<svg xmlns="http://www.w3.org/2000/svg" width="102.623" height="91.277" viewBox="0 0 102.623 91.277" fill="#1A4BB7">
  <path id="Australia" d="M1073.243-126.758c.446-.334-.223-2.116-.612-1.839s-.39-2.785-.112-4.178.112-1.228-.612-.5-1.505-1.4-1.672-1.952-1-2.116-1.951-1.893-.333-1.337-1.225-1.172-1.059-1.28-.891-2.618-.614-.278-1-.835-.835-.111-1.449.112-.779-1.172-.611-1.728-.112-1.225-.949-1.839a1.734,1.734,0,0,1-.835-1.839c.055-.723-4.736-3.176-5.795-3.4s-.167-1.337-.612-1.728-.612-1.839-.612-3.065-1.561-1.616-1.505-2.618-.446-1.951-.335-3.065-1.616-1.393-1.671-2.007-1-.055-1.951.057-.89-1.228-.779-2.507-.391-3.4-1.17-4.012-.837-2.73-1.226-3.065-1.671,1.114-1.616,1.837a2.505,2.505,0,0,1-.612,2.007c-.5.446.335,2.174-.335,2.787s-.056,3.064-.223,4.455-.111,2.9-.779,3.846-.781,2.451-2.118,2.953-3.121-.556-3.065-1.281-1.449-1.169-2.228-1.059-1.226-1-2.451-1.951-2.174.223-2.563-.889-.781-1.282-1.672-1.9-.612-.614.223-1.225.668-1.393.223-2.119.5-.556,1.616-1.169,0-1.338.837-1.671.334-1.059-.558-1.228-.614.891-.949,1-.668-1.393-.946-1.338-1.337,1.505-1.895.779-3.677-1.337-4.9-1.5-1.616-1.728-2.34-1.45.111.782.947,1.673-2.786,1.5-3.844,1.169.167.779-.726.725-1.058,1.505-1.783,2.284-.223,1.337-1,1.839-.835,1.058.112,2.118-.446,1.116-1.281.279-1.672-.837-1.616.109-1,.5-.837-.555-1.17-.559-1.393-1.17a2.91,2.91,0,0,0-2.118-1.56c-.723.055-.723.837-1.449.837s-.89.388-.778,1.169-1.115-.057-1.952.055,0,1.059-.446,1.115-.446.837-1.169.837-.612,1.615-.5,2.45-1.114-.388-1.839-.165.167.946.39,1.893-.39.891-.779,1.282-1-1.059-1-1.9-.947-.055-1.949,1,.333,2.675-.112,2.953a29.024,29.024,0,0,0-3.621,3.567c-1.17,1.393-3.677.556-4.458,1.225s-1.616.168-2.4.782-2.23,1.78-2.4,1.057-2.172-.168-3.009.723a5.525,5.525,0,0,1-3.12,1.729c-.947.055-.947,1.505-1.337,1.837s-.28-1.169-.28-1.56-.891.668-1.281,1.839.947,1.617.112,2.842-1.616,2.452-.446,4.012,1.837,2.562,1.448,3.344-1.225-1.56-1.5-1.282,1.058,1.282.725,1.783-1.535-1.9-1.784-1.337c-.223.5,2.507,4.29,2.563,5.683s2.23,2.73,2.118,4.737,1.895,5.237,2.228,5.738-.779,1.839-.556,3.344-.5,2.062-1.448,2.062-.391,1.56.668,1.672.667.835,1.839,1.616,3.955.5,4.9.5,1.226-1.449,2.507-1.506,1.17-.446,1.783-1.225,3.511-.558,6.464-.39,4.235-.725,4.681-1.949c.382-1.047,2.507-1.114,3.342-1.9s1.56-.835,3.734-.723,4.179-1.059,5.572-1.616,3.956-.335,5.292-.669,1.561,1.671,3.066,1.505,2.172.446,2.953.388.668.559,1.449.725.667.837.166,1.56,1.17.669,2.23,2.119.055,1.671.613,2.785.947.837,2.062-.723,2.34-.559,2.509-1.9,1.337-2.9,2.116-2.227-.558,1-1.058,3.564-1.393,1.228-1.561,1.951,2.34,1.115,2.34-.223.446-1.951,1.393-.723-.558,2.228-.333,2.785,1.282-.167,1.839-.109c.991.1,2.339,2.283,2.116,3.453s-.556,2.284,1.338,3.23,1.169,1.115,2.563,1.115a11.683,11.683,0,0,1,5.07,1.783c.779.668,2.785-.5,3.176-1.839s1.839-.055,1.058.391.391,1.5.446.779.39-1.337.668-.5,1.281.835,1.672,1.505.835,1.169.835.611.223-1.058,1.114-1.393a8.815,8.815,0,0,0,2.4-1.728c.947-.779,4.848-.947,5.239-.947s.612-3.342.835-5.069,1.672-2.005,1.895-3.844,2.172-5.237,2.673-5.405a2.045,2.045,0,0,0,1.505-1.728c.056-1.057,1.338-2.228,1.338-3.509s.723-2.787.612-3.176a2.49,2.49,0,0,1,.279-2.507C1073.968-125.364,1072.8-126.423,1073.243-126.758Zm-55.83-43.627c-.112-.67-4.076.105-3.232.781C1014.74-169.159,1017.524-169.717,1017.414-170.385Zm12.536,65.971c.614.558,2.675.391,3.009-.388S1029.4-104.914,1029.95-104.415Zm25.186,15.49c-1.505.168-3.762-1.369-4.291-1.226-.612.167,1.951,4.012,1.172,5.016s2.284,3.732,3.342,3.9.668-1.059,1.392-1,.446-.723.558-1.28.837.611,1.449.278-.167-2.73.724-2.73.167-2.9-.111-3.844S1056.64-89.092,1055.135-88.924Z" transform="translate(-970.819 172.496)"/>
</svg>
