<svg xmlns="http://www.w3.org/2000/svg" width="236.631" height="136.407" viewBox="0 0 236.631 136.407" fill="#1A4BB7">
  <g id="asia" transform="translate(-172.292 -125.018)">
    <path id="Path_158" data-name="Path 158" d="M1043.039-281.632c-.519-.669-1.41.37-2.524.592s-4.607-2.671-5.5-4.01-2.376-.223-1.633.743-.15,1.264-.15,2.6-.891,1.338-.742,2.23-1.189.745-2.081.891.075,1.041-.966,1.486-.963,1.189-.446,1.488.151,1.261,0,1.929.668.149,1.264-.519,1.214.322,1.338-.3c.148-.745-1.561-1.114-1.488-1.859s1.19.223,2.082-.223a4.027,4.027,0,0,1,3.788.891c1.114.967,1.412.6,1.635-.594s1.932-1.709,3.64-1.709,1.857-.818,1.337-1.188,2.823-2.529,2.749-3.121S1043.559-280.964,1043.039-281.632Zm-13.669,10.178c-.743.372-1.264,2.675-.444,3.344s-1.338,1.929-1.265,3.341-1.337,1.413-1.56,2.451-1.039.818-2.3,1.784-1.934-.147-1.636-.817-1.931.371-1.857,2.007-2.079,1.783-1.561,2.526-1.632,1.188-1.558.519-1.337-.3-3.046.372-2.75-.745-3.714.223-2.6,2.673-3.864,2.9-.534,1.753,0,1.486c.891-.446,2.3,0,2.75-.669s4.084-1.485,6.314-1.56.891,1.041,1.041,2.228,2.005.965,2.97-.149,1.709-1.038.891-1.707.149-1.265.743-.372a2.04,2.04,0,0,0,3.2-.223c.743-1.189.965.223,1.856.149s1.412-2.3,1.488-1.488,1.484.6,2.375-.37.075-2.675.67-3.567,1.189-2.749.594-3.863,1.337-1.859,2.3-2.75-1.114-5.348-1.189-6.685S1030.112-271.826,1029.37-271.454Zm-16.344,19.314c-.3.818-1.189.446-2.376.669s-1.229,3.058-.372,3.344c.667.223,1.189.223,1.412-.669a1.553,1.553,0,0,1,2.154-.818c.743.372,1.709-1.113,1.709-2.227S1013.323-252.955,1013.026-252.14Zm-5.126,2.9c0-.743-1.635-.6-1.708-1.262s-1.189-.3-2.3.519-1.485.966-1.039,1.784,1.114.073,1.41-.745,1.041,1.19.372,2.527.085,3.222.965,3.045c.743-.149,1.709-2.822,2.825-4.235S1007.9-248.5,1007.9-249.242Z" transform="translate(-636.42 437.268)"/>
    <path id="Path_160" data-name="Path 160" d="M991.758-215.835c1.412-.223,3.344,1.561,3.046,2.23s.075,2.822.743,2.227,1.708.149,1.039,1.114,1.039,1.932,1.262,3.121.966.223.818-.668.148-.817,1.114-1.485-.075-1.783-.668-3.048-2.825-.815-2.825-2.005-1.632-1.561-1.707-2.23-2.23-1.337-3.492-.592-.372-1.337-1.264-2.3.669-2.376,1.709-3.565-.3-3.193-.149-4.086.075-1.188-.446-.891-2.675-.891-3.639-.3-.076,5.5-.522,5.867-1.022-.8-1.188-.3c-.223.669.075,3.417.667,3.417s1.042.742.668,1.932,1.114,1.337,2.527.815S990.346-215.612,991.758-215.835Zm-4.755.668c.223,1.039.745,3.194,2.378,2.675S986.843-215.915,987-215.166Zm4.16,7.205c.372-.075,1.264,0,1.337-.743s.891,1.338.224,2.007-.67,2.526.371,2.749,2.97-3.344,2.675-4.012-1.189.446-.966-.444-2.675-3.2-3.79-2.973S990.286-207.785,991.163-207.961Zm-8.765,1.413c-1.04,1.337-3.523,3.557-3.194,4.159.444.815,3.194-3.268,4.531-4.235a1.781,1.781,0,0,0,.669-2.673C983.958-210.188,983.437-207.886,982.4-206.548Zm13.222,1.484c.3.743,2.452-.446,1.859-1.188S995.4-205.62,995.62-205.064Zm6.686,5.8c.891-1.041-.593-3.789-.593-5.573s-2.452-1.261-1.784-.149-1.262.223-1.412,1.338-1.56.223-1.485,1.114-1.485,0-2.228-.519-1.783,1.41-2.9,1.709-1.707,2.661-.966,2.6c.891-.073,1.337-1.262,2.228-1.188s.6-.893,1.859-.67.37,4.012,2.08,4.31,1.783,1.337,2.6,1.337-.148-2.376-.075-3.194S1001.416-198.227,1002.306-199.268Z" transform="translate(-644.273 456.385)"/>
    <path id="Path_174" data-name="Path 174" d="M1049.6-287.155c.075-1.337-1.486-.891-2-.519s-2.007,0-2.453.891-1.189.37-2.228.519-2.527-.3-2.453-.965-.6-1.337-.521-2.156-1.039-.446-1.783-1.187a3.94,3.94,0,0,0-2.526-1.114c-.3.149-1.189-.818-2.453-.891s-1.114-.893-.965-1.412-1.041-2.155-1.264-3.046-1.115-1.039-1.486-2.972-1.41-1.412-1.188-2.3-1.264-1.337-1.635-1.857-1.932-.3-3.046-.891-1.784-.149-2.822-.446-3.418.3-3.715.3-2.156-.372-3.2,1.041-.223,1.338.223,1.338.668,1.337.745,1.783-.745,1.115-1.114,1.262a6.308,6.308,0,0,0-1.561,2.378c-.148.594-1.337,2.08-1.189,2.6s-.594,1.041-1.114,1.114a23.935,23.935,0,0,0-2.378,1.265c-.446.147-2.227-.149-2.45-.67a1.009,1.009,0,0,0-.562-.42l-2.01,4.022-.161,1.294s-1.294.322-.324,1.293,1.134.164,2.591.164,2.1,1.133,2.427.323a1.431,1.431,0,0,1,2.427-.323c.81.971,3.4,2.587,3.237,3.4s-1.619.647-2.589.324-2.266.647-3.237.647a4.278,4.278,0,0,0-3.076,1.294c-.971.97-.809,1.941-2.267,2.1s-2.1,0-3.72,1.132a4.113,4.113,0,0,1-4.047.323,1.749,1.749,0,0,0-2.43.648c-.644,1.133.81,1.62.649,2.914s-1.78.97-3.074,2.428a5.884,5.884,0,0,1-4.533,1.94c-1.133-.161-3.561-.807-5.664.163s-3.561,2.427-4.37,2.266-.809-1.133-1.943-.97a3.492,3.492,0,0,1-2.589-.647c-.81-.487-1.457.324-2.753-.648s-3.561-.809-4.53-.971-4.7,0-5.99-.161-3.074.322-3.237-.324-1.132-1.133-1.456-2.59a2.393,2.393,0,0,0-1.943-2.1c-.81-.164-.9-1.018-1.619-1.136-.343-.056-.753-1.135-1.885-1.135s-5.089-.462-5.656-1.388.567-1.132.567-2.058.615-2.159.152-2.521a3.676,3.676,0,0,1-1.337-1.9,2.819,2.819,0,0,0-2.159-1.749,4,4,0,0,1-2.262-1.234c-.771-.669-1.492-.618-1.8-2.314-.021-.112-.055-.2-.081-.3-.311-.035-.706-.152-.959-.152a1.076,1.076,0,0,1-.659-.395c-.2.707-.871,1.061-.871,1.617,0,.618-.256,1.39-1.081,1.39s-1.592.616-1.645,1.9.722,1.441.362,2.007a2.735,2.735,0,0,1-2.367.875,9.848,9.848,0,0,0-2.315-.207c-.821-.1-1.44-1.13-1.7,0S920.589-279.8,921-279.44s.719,1.182,0,1.182a2.7,2.7,0,0,1-1.8-.463c-.36-.362-1.537.5-2.365.463-.384-.02-2,.7-1.442.985s.556,1.615.556,2.171,1.225,2.23,1,2.787-1.336,1.17-1.336,1.893.222,1.393-.168,1.561a13.709,13.709,0,0,0-2.228,1.114c-.614.446-1.616.446-1.951,1.114a1.782,1.782,0,0,1-2.005,1.114c-1-.112-1.5-.28-2.284.669s-.947.556-1.5,1-1.115-.332-1.561-.5-1.058.5-1.5.5-.837.725-1.393.893-1.114,0-1.114.669a1.926,1.926,0,0,1-.411,1.245h0l.4,2.182s2.382.794,2.48,1.588.5,3.373.5,3.373-.031,0-.072.009c.963.755,2.288,1.562,2.288,1.855a2.089,2.089,0,0,0,1.282,1.895,17.158,17.158,0,0,1,1.963,1.039c.057-.14.092-.238.092-.238l.993-.1a3.109,3.109,0,0,1,.567.48c.244-.8,1.956-1.684,2.849-1.632.946.056,3.12,1.784,2.9,2.4s-1.783,2.842-2.507,3.01a6.412,6.412,0,0,1-1.072.108,7.218,7.218,0,0,0-.155.894c0,.5.891,1.292,1.388,2.183s-.794,1.486-1.486.891-.993.6-.6,1.091.2,1.884.893,1.985,1.289,1.486,2.083,1.486,1.488,1.29,1.488,1.29,1.09.694,1.09,1.091a.3.3,0,0,1-.048.151c.866-.087,1.44-.119,1.541-.475.111-.391,1.226-.391,2,.391s3.956,2.785,5.128,3.731a10.831,10.831,0,0,0,4.848,1.952c.946-.056,1.837.668,3.286.612a4.388,4.388,0,0,1,.576.015c.205-.221.554-.228.819-.623.4-.6.991.5.794,1.289a1.711,1.711,0,0,0,.14,1.1,5.423,5.423,0,0,0,.567-1.057c.5-1.228,1.282-1.17,1.784-1.56s1-.224,2.062.332c1,.527,1.405-.583,2.9.791a3.268,3.268,0,0,1,.878-.3c.3,0,.7-.6,1.19-1.091s.4-1.091.993-.993.894-.694,2.182-1.388,2.382.395,2.977-.1,1.289-.7,1.289-.2.794,1.091.993,1.687c.178.534,1.221.747,1.441.786a4.057,4.057,0,0,0,.424-.248,1.109,1.109,0,0,1,1.671.725c0,.669.056,1.392.557,1.392s1,0,1,1.225.446,2.619-.612,3.679-2.284,2.954-2.062,3.509-.334,1.616.446,1.228,2.563,0,2.284.446.056,2,.781,2.062,1.17.446.947,1.114-.612,1.671,0,1.671,1.5,0,1.392.668.446,1.282,1.561.837c.654-.262.982-.5,1.13-.239.443-.013.475,1,1.24,1.186.794.2.4-1.687.1-1.984s.1-1.588.4-1.289,1.19,0,1.687-.6,1.489.5,1.885-.2,1.289.5,2.182,0,1.29.4,1.688-.3,1.685-1.588,1.983-1.289a2.528,2.528,0,0,0,2.082,1.091c1.588.2.7.99.7,1.486s1.787,1.787,2.481,1.885c.128.017.307.175.514.414.483-.239,1.345.159,1.536-.412.221-.668,1.038-.482,1.373.073s.706.67,1.449,0,1.114.67.668,1.042-.148,1.521.558,2.19.817-.407.669-1.075,1.189-1.337,3.528-2.119,4.865-2.489,4.9-2.858,1.672.668,2.453.073,3.6-.669,4.346-.706.7-.668,1.485-1.3.592-.929,1.485-1.188a2,2,0,0,0,1.449-1.524c0-.446,1.671-.592,1.709-1.078s1.262-.63,1.262-1.225.743-.482,1.078-.927-.262-1.747.333-1.933-.223-.891-.333-1.225,1.114-.408,1.744-.818a2.551,2.551,0,0,0,1.154-1.744c.111-.707,1.15-1.337,1.632-1.524s.668-1.19.52-2.043.855-.631.41-.967.185-1.261,1.077-1.521-.558-.668-1.041-.3-1-1.078-1.448-.519-1.708-.336-.893-.519a25.131,25.131,0,0,0,2.638-1.3c.558-.187-.818-1.412-1.523-1.374s-1.485-1.635-2.23-1.635.558-.52,1.413-.075,1.856.818,2.228.446-1.449-1.857-2.118-2.376-.039-1.225-.446-1.524a10.983,10.983,0,0,1-1.6-3.045c-.295-.854-1.856-1-2.228-1.56s.039-1.859,1.19-2.342.668-1.448,1.189-1.336.964-.112,1.373-.967,1.114-.332,1.524-.779,2.228-.408,2.859-.854-.594-1.82-1.449-1.6a2.281,2.281,0,0,1-2.453-1c-.594-.891-2.152,1.636-3.341,2.192s-1.969-1-1.561-2.005-.929-.966-2.6-.891-1.039-2.972-.036-3.12,2.489.927,3.121-.93,1.522-.407,2.933-2.043,3.046-2.635,4.272-1.671-1.3,2.488-1.709,3.417.371,1.226-.371,1.931.3.891,1.745-.035a30.61,30.61,0,0,1,4.643-2.6,2.7,2.7,0,0,1,1.212-.152,2.046,2.046,0,0,1,.71-1.1c.971-.487,4.208-1.941,4.694-2.59s.971-1.781,1.617-1.781.647.648,1.62.648,2.1.322,1.616-.484-.159-.81.973-.973.971-1.3,1.781-1.3.646-1.94,1.456-1.94,1.133,1.132,2.1.807a1.03,1.03,0,0,1,.69.1c.208-.161.411-.315.614-.463a13.274,13.274,0,0,0-.179-2.4c-.37-.893,0-1.561-.149-2.08s-.223-1.783.372-1.783,1.337-1.485,2.08-.966,2.228.67,2.228,0,1.042-.742,1.189-1.633,1.262-1.114,1.485-1.933.6-2.747,1.337-3.193S1049.525-285.818,1049.6-287.155ZM1013.2-216.8c-.815,2.972,1.087,4.486,1.337,4.31.745-.519,3.79-6.908,3.121-7.8S1014.013-219.773,1013.2-216.8Zm-26.521,10.1c-.966,0-3.419,1.412-2.453,3.417s4.159.668,4.235-.223,1.531-2.294,1.338-2.972C989.649-206.994,987.642-206.7,986.676-206.7Z" transform="translate(-670.914 430.607)"/>
    <path id="Path_226" data-name="Path 226" d="M998.174-268.83c-.225.224-.9.647-1.48,1.114.283.471.229,1.277.779,1.33a.549.549,0,1,1-.148,1.078c-.853-.187-.854,1.152-.109,2.3s-1.414,2.452-.818,3.045.112,1.3.371,1.673,3.417-.149,4.792-1.56,1.747-1.228,2.452-1.041,1.412-.52,1.038-1.078a6.557,6.557,0,0,1-.669-3.64c.067-1-1.288-2.787-2.6-4.222a1.939,1.939,0,0,1-1.326.5A3.713,3.713,0,0,0,998.174-268.83Z" transform="translate(-638.551 442.563)"/>
    <path id="uae" d="M859.2-235.369a44.031,44.031,0,0,0,5.8.713l.847-2.116,1.585-2.011v-1.9h.953l.873-.5c-.367-1.546-.424-3.1-.69-3.125-.444-.036-2.267,1.933-3.009,3.381a4.793,4.793,0,0,1-4.756,2.228,3.126,3.126,0,0,0-2.971.779c-.123.087-.319.019-.531-.145A4.377,4.377,0,0,0,859.2-235.369Z" transform="translate(-685.018 451.094)"/>
  </g>
</svg>
