<svg xmlns="http://www.w3.org/2000/svg" width="229.853" height="175.855" viewBox="0 0 229.853 175.855">
  <path id="canada" d="M541.361-256.81c-.751-.789-2.689-.591-2.984-1.332s-2.1-3.395-3.068-3.325a4.773,4.773,0,0,1-3.375-.7c-1.153-.842-1.895-.889-2.686-.366s.863.616.814,1.188.526.906,1.208.782,1.1,1.3,1.787,1.346c1.066.077,2.534,1.8,3.113,2.526.639.8,1.947.706,2.482,1.992a10.9,10.9,0,0,0,4.064-.041,2.468,2.468,0,0,1,.255-1.066C543.361-256.551,542.114-256.02,541.361-256.81Zm-3.114-90.617c2.163.452,1.949,3.607,3.962,3.908.6.089,2.777-1.809,3.94-1.729,3.233.231,1.859-3.724,4.848-4.513,1.365-.359.087-2.055,2.022-2.535a43.458,43.458,0,0,0,8.169-3.529c.9-.7-1.161-1.583-3.232-2.811s-3.671-1.549-5.255-.5c-.522.344-5.836-.845-6.757-1.967-.6-.725-8.719,1.595-8.67,1.812a5.3,5.3,0,0,0,1.757,1.929c1.038.785-2.466,3.34-1.775,3.9s-.658,2.063-2.231,3.91S536.188-347.856,538.247-347.426Zm57.165,8.616c.861-1.033,3.124,1.639,3.648-.161.486-1.665-3.684-2.765-4.607-3.362-1.381-.9-1.945-.431-4.134-2s.539-2.406-1.074-3.639-2.228-4.649-1.1-5.806,2.359-2.882.295-3.655-5.353.754-5.005,1.206c.623.81,3.214,1.53,3.23,2.7,0-.015-3.08-1.629-3.555-1.324-.906.583-1.955-1.115-2.738.036s1.093,5.12,1.792,6.253-.67,1.15-1.58,1.39-1.067-3.181-2-4.425c-.308-.412-4.506-3.074-4.815-1.764-.259,1.094,2.319.783,1.967,2.143-.326,1.26-1.721-.777-2.962.267s-1.022.355-.809-.674-1.852-2.144-4.131-1.887-1,1.839-1.68,2.418c-.359.307-2.9.115-2.643-.451.838-1.839,3-.4,1.11-3.294-.814-1.245-2.962.266-6.484,1.568s-5.1,2.69-4.641,2.8.579.677-.775,1.836c-1.289,1.1,1.673,3.216,2.326,3.393.8.217,4.885-1.661,6.036-.878.391.267-5.635,1.615-5.9,1.98-2.012,2.8,4.882,2.59,6.749,2.232.685-.132,8.78-.546,8.8,1.14.015,1.1-14.759-.073-14.119,2.352.845,3.2,9.583,2.074,9.516,3.527-.089,1.941,1.628,2.375,5.623,2.438s5.795-1.9,7.735-1.811,2.85-.266,3.744-1.647,1.7-.594,1.941.088,2.745.536,3.322,1.1c1.474,1.436,6.289.946,8.1.011s-.843-3.413-1.74-2.26-1.707.479-1.941-.091S594.737-338,595.412-338.811Zm-43.718-27.5c2.057.2,4.087-1.651,3.959-2.675S550.672-366.413,551.694-366.314Zm-9.511-3.072c.8.332.025,1.94.933,1.472s1.133-.586,1.821-.367c1.238.4,1.473-.7,2.036-1.281.024-.024,1.214,1.977,1.853,2.03,1.12.092,1.019-2.731,2.142-1.967,1.152.783,1.478-.362,1.7-1.164s.2-2.171,1.452-2.415.244,1.252.827,2.271c.851,1.485,2.284.084,2.39-.6s2.164-.256,2.039-1.054.558-1.034-.024-1.94.9-.7,1.579-1.389c.451-.462-3.182-1.162-3.248-1.156-.6.055-.021,1.2-.706,1.252a7.109,7.109,0,0,1-3.125-.46c-1.261-.44-2.833,1.52-4.646,2.457s-1.908,2.535-3.62,2.443S541.381-369.718,542.183-369.385Zm17.791-.8c-3.648.31,2.016,2.228,1.923,1.959a2.415,2.415,0,0,1-1.78.208c-2.626-.08-3.737,2.216-1.917,1.736s3.987-.507,2.623-.033-5.088.837-4.543,1.542c.348.451,1.829.319,3.32.87s2.409.881,3.532-.388,2.593-2.545,2.044-.826c-.583,1.828,5.28-.173,6.01.412s-4.662,1.953-4.838,1.968c-3.192.271-2.6,1.86-.084,2.4s7.853-1.7,9.091-2.97,2.4.654,3.648-.275,3.652.067,5.814-.418,2.451-4.6.845-5.26c-1.836-.759-1.345,1.245-2.839,1.063s-1.988-1.376-3-2.358c-1.041-1.013-.38-2.962-1.86-2.714s-4.643,2.685-2.7,2.887,1.272,1.238.251,1.708,2.412,1.225,1.964,1.915-5.7.188-5.946-.95c-.318-1.488-3.364-2.247-4.429-2.571a42.693,42.693,0,0,0-4.411-1.536C560.978-371.911,561.57-370.322,559.974-370.187Zm5.827-8.29c.551-1.377-3.795-1.1-3.433-.641C563.18-378.1,565.247-377.1,565.8-378.478Zm9.46-.694c1.481-.247.782-1.378-1.609-1.006-1.146.179-5.493.059-6.171,1.41-1.071,2.138,1.494,2.843,3.146,2.965,1,.075,3.939-.612,3.979-2.074a1.855,1.855,0,0,0-.982-.463A1.967,1.967,0,0,1,575.261-379.171Zm-5.618-2.095c.463.179,6.541.366,7.04-.177,2.047-2.228-4-2.9-5.244-2.127-1.132.7-6.377.994-4.88,2.116C567.478-380.766,568.5-381.708,569.644-381.266Zm19.006-3.784c1.357-.93,3.887.52,3.444,1.553s-4.409-.151-4.1.738c.119.34.592,1.7,3.321.87a7.137,7.137,0,0,1,6.861,1.166c1.844,1.458,3.564,2.007,4.8.508s-1.62-1.691-1.065-2.839c.3-.614-5.561-3.715-5.866-3.575a2.838,2.838,0,0,1-1.488.611c-1.2-.707-.689-1.418-2.8-1.99a9.279,9.279,0,0,0-4.86.242C585.427-387.176,587.293-384.119,588.65-385.05Zm.923,9.574c.9-1.153-3.713-4.745-3.919-3.03S588.619-374.253,589.573-375.477Zm14.638-15.138c.781-1.38-4.844-2.383-3.44-1.21C601.579-391.151,603.429-389.235,604.211-390.615ZM591.655-364.55c.786-.923-1.748-2.83-2.412-1.224S590.853-363.611,591.655-364.55Zm12.788-8.153c-.1,1.141-2.741-.194-4.8-.965s-.779,1.608.837,2.956-.79.7-2.977-.761-1.925,1.053-.889,1.837-.2,1.943-1.6.135-2.1-3.737-4.271-3.824-1.153,2.12-.3,3.2c3.431,4.346,6.174,1.631,10.3,2.606,1.374.324-1.457,2.072-.528,3.2s3.427.3,5.364.159,1.011-1.268,2.142-2.082-1.15-.67-.263-2.621S604.542-373.846,604.443-372.7Zm4.7-6.794a12.022,12.022,0,0,0,4.554-.857c1.474-.59-.807-.56.2-1.943s-2.529-1.45-2.751-.991-4.713-2.678-5.384-1.641S607.436-379.474,609.146-379.5Zm9.25.451c-.237-.682-8.873.474-7.512,1.466C613.187-375.9,618.632-378.364,618.4-379.046Zm-1.039,16.672c2.052-.14.993-2.637-1.312-4.318s-7.385,1.9-6.47,2.594C610.612-363.313,615.3-362.232,617.357-362.374Zm-14.4,16.161c1.09.723,4.654-.754,5.608-1.549,1.88-1.566,1.728-3.9,2.28-6.083.434-1.717-2.3-1.568-1.6-.322a1.361,1.361,0,0,1,.023,1.7c.825-.093-3.739-2.127-3.561-1.881-.814-1.13,2.492-1.286,3.273-2.781s-2.641-1.221-1.856-2.371-5.02.179-3.3.841.135,1.6-1.476.475-6.012.846-4.423,2.112c1.268,1.01,5.01-.75,2.881,2.244s-3.09-.759-5.14-.39-1.1,2.867,1.99,3.739S600.428-347.889,602.961-346.212Zm18.359-18.494c.829,2.271,1.72.662,2.988,1.558s3.213,1.441,4.229.515,1.462-1.616,1.815-.822c.906,2.044,7.029,1.583,8.577,1.486,1.085-.067,5.06-1.791,5.687-1.444,3.188,1.768,9.582,1.164,9.081-3.655-.131-1.253-12.352-2.122-14.5-.838s-5.6-.5-7.3.436c-.543.3-3.9-.869-4.236-1.2-1.484-1.477-.857-.406.767-2.407.562-.691-4.71-2.449-6.872-1.964s-3.432-.64-5.5-1.526-7.638-.6-6.492,1c.814,1.132,7.462,3.441,8.131,2.291s2.414,1.338,3.457,2.579S620.491-366.978,621.319-364.706Zm5.644-13.538c-2.067-1-4.615,1.2-2.484,1.972C626.314-375.612,629.031-377.243,626.964-378.244ZM610.37-390.808c1.693.819.71,1.931,2.545,2.7s7.06-1.118,7.532.131-5.344,1.438-4.535,2.227,4.134,2,3.687,2.69,5.511,2.554,6.068,1.633,2.16-.713,3.649-.161,1.552-3.557,2.587-2.886.894-1.494,2.6-2.2,4.167-.746,4.315-1.54c.107-.571-.474-1.362-2.524-1.107s-3.431-.526-2.533-1.679-2.3-1.453-1.172-2.382-2.191-1.8-1.831-.432-2.052.141-2.411-1.11-5.042-1.645-8.158-4.345-6.286-.83-4.457-.512,1.728,1.233.243,1.138-4.106.167-1.7,1.049l.951.57c-.346-.883-8.349,2.853-2.61,3.56,2.514.31.709,1.816-1.352,1.273S608.533-391.7,610.37-390.808Zm13.657-11.474c1.584-1.047,2.849-.379,1.488.323l-.765.606c-.244.656,2.447.254,2.5.458.1.391-1.969,1.007-1.47,1.672.556.739,2.316.682,2.416,1.567.128,1.138,5.041,1.53,6.506.143s.917.331.815,1.245,6.981,1.621,7.308.476,1.36-.7,2.734-.379,8.083-1.36,8.179-2.73,2.176.656.028,2.167-6.486,1.34-8.418,1.936,1.28,1.923,3.238,3.381-2.5.716-4.351-1.2-5.958-1.864-8.123-1.721c-1.915.125-1.433,2.892-.551,3.819,1.521,1.6,3.914.806,5.549,3.305.659,1.006,5.049,2.146,5.06,3.016.012.933-6.568-1.21-6.977-1.28-2.515-.423-6.487,1.226-6.578,3.053s3.671,1.549,6.162.033.691.448-.55,1.605c-1.16,1.081,2.574,2.056,2.7,2.738.35,1.968-2.642,1.987-3.112.348-1.456-5.077-9.183-.2-4.789.289q1.573-.036,1.25,1.218c-.2.195-8.472,1.341-6.557,3.073,1.616,1.462,7.416-.1,8.454.8s3.895,1.2,4.566.169c1.284-1.982,7.662-.71,9.136.566,1.038.9,2.859.534,4.1-.4,1.352-1.009,5.631-.682,3.952-3.246-.815-1.244-2.841.95-3.081.04-.3-1.125-2.187-1.454-5.375-.957a1.508,1.508,0,0,1-1.905-.464c-.252-1.228,7.878-1.1,8.728-1.336,2.625-.727-.411-1.8.424-2.517,1.021-.879,1.9-.229,3.172-.458,2.853-.511,6.5-1.341,6.681-5.26.133-2.916-6.59-.488-7.528-1.512-.651-.711,7.448-1.537,7.306-1.477,2.162-.906,1.01-1.248,2.322-2.4.789-.7,2.862.762,5.024.278.814-.183,2.275-1.995,3.026-2.558,2.074-1.559,4.918-2.783,7.157-4.078,4.643-2.686,8.3-2.276,8.509-3.763s-6.5.085-7.65-.356,4.656-1.772,6.029-1.448,3.194-.041,7.843-2.385,2.587-2.886.651-2.518-4.111-.29-4.014-1.545-2.853-.077-2.977-.761-2.857-.306-5.807.874-.244-1.138,1.006-1.611c-1.787.677-6.445-.782-8.738-.791-1.736-.008-3.762-.092-5.367.019-.854.059-1.974-.115-2.96-.012-1.219.128-.511,1.449-.947,1.812a2.116,2.116,0,0,1-1.953-.769c-1.384-1.123-3.991.165-6.391-.145-1.285-.167-2.163.933-3.385,1-.464.027-5.333-.343-5.279-.32.8.332-.215,1.029-1.36.7s-2.167.143-1.581,1.276c-.487-.942-6.241,2.649-7.28,1.805-1.384-1.122-5.723-1.409-4.454-.4s-3.874.506-2.491,1.516c1.893,1.381-5.552.625-5.695.758-1.129,1.041-1.454,2.3-2.034,1.624s-3.086-.416-5.469.527S622.444-401.235,624.027-402.282ZM654.053-304.2c.8-.125,2.358-3,.306-2.858S652.814-304,654.053-304.2Zm-10.072-2.379c1.84,1.117,4.538-2,4.3-2.909S641.757-307.928,643.982-306.577Zm8.133-6.382c.213-1.144-3.786-1.548-3.573-2.806s-3.795-2.234-5.058-2.9c-1.381-.73-5.848-5.455-6.055-.606-.088,2.054-1.234,1.612-.639,3.545s-2.479,2.427-2.123,3.451c.408,1.173,2.717-.472,3.468-.009.806.5-.364,1.785,1.121,1.889,1.37.1,3.745-1.532,4.3-2.451C644.958-315.153,651.538-309.868,652.115-312.959Zm37.177-10.524c1.369.1,1.62,1.8,3.812,3.6s2.4.54,2.729-.721,2.734-.264,2.6-1.516,1.9-2.765,3.265-3.353-1.166-1.924-2.99-1.785c-2.677.2-3.05-5.423-6.786-4.249-1.137.356-3.1-1.444-4.585-1.538s-3.667-1.208-3.46-2.807,2.973.419,3.527-.846-2.859-.531-2.985-1.442.791-.583,1.469-1.161-.594-1.7-1.4-2.15c-.761-.423-1.126.927-1.813.935-1,.013.431-2.062.43-2.059.56-.806-2.646-1.677-4.01-1.2-2.382.829-1.783-3.09-5.141-.5-.9.7-2.062-.658-.923-.787s2.5-1.059,2.142-2.083-3.324-1.1-3.878.165c-.235.534-6.2-4.225-6.215-4.142.628-2.486-9.041-3.226-8.329.108.243,1.138-1.36.7-1.6-.55-.254-1.3-3.645,1.707-4.2,1.424-1.07-.542.524-3.322.057-4.337s-1.158-1.354-1.865-3.057-4.12-.973-5.02.065-3.872.621-5.448,2.239.156,3.193.847,3.755-2.376,1.513-1.338,2.413,2.63.423,2.763,1.9-3.771-.407-4.358-1.655.2-2.4-.612-3.3-.14-2.052,1.321-3.668c1.671-1.845,3.711-1.945.793-2.809-2.406-.711-6.674,1.6-8.318,3.134a8.83,8.83,0,0,0-2.28,8.929c.24.909,3.543.41,5.488.957s.931,1.357-.555,1.149-4-.634-3.875.391,3.234,2.925,5.053,2.444,1.82-.479,2.631.536,2.976.647,5.144.733a54.608,54.608,0,0,1,5.718.953,3.174,3.174,0,0,0,2.61-1.174c.335-.575,4.575.854,5.828.723s.44-1.261-.363-1.593-.48-1.82.554-1.262,2.75.877,3.106,1.9c.3.869,1.261.439,1.385,1.236.185,1.189,4.028,1.325,3.914,2.575-.071.753-3.265,1.608-2.483,2.2,1.038.786,2.611-1.059,3.979-1.193s1.408,2.949,2.428,2.479c1.392-.64,2.517.539,3.911,2.461s-.065,3.765.059,4.449,2.743.422,4.216-.4,2.863.875,4.018,1.887-4.186,2.794-3.741,1.875-3.241-3.609-6.534-2.311c-3.663,1.444.076,2.775-.627,4.343-.927,2.068-4.1,1.951-6.031,1.334-1.591-.508-7.144,1.489-4.856,3.942,1.158,1.241,3.652.067,5.708.155s2.29.655,2.5-.488,2.39-.6,3.876-.279,1.172,2.382,3,2.586.37,2.05,1.527,3.288,4.8.51,6.186,1.861,7.227,4,8.026,2.977c.9-1.153-5.1-6.325-6.82-6.76s1.7-1.047,3.888.635,5.395,2.44,6.965.366c.658-.87-2.063-5.236-2.989-6.121-.129-.123-7.748-3.016-5.36-4.155,1.474-.7-.478-1.592.647-2.861S687.92-323.579,689.292-323.483Zm-24.145-5.163c1.366-.247,1.086-2.355.3-3.428-.58-.791-2.065-.886-3.32-.755s-3.4,2.1-2.23,4.023S663.782-328.4,665.147-328.646ZM650.5-358.124c-.666,1.492,1.5,1.464,1.638,3.173s2.311,2.252,3.895,1.2c1.181-.782,6.191.276,6.008-1.4-.18-1.651-5.195-3.076-6.406-2.817C653.932-357.6,651.167-359.616,650.5-358.124Zm44.041,96.532c.24.91,6.892,3.563,7.1,2.3S694.337-262.37,694.543-261.592Zm29.028,6.433c-.446.842-1.149-.594-.169-1.366s-.167-1.065-1.073-.6-.711-2.044.119-2.511c.379-.214-4.241-.592-4.347-.933-.239-.757-1.685-.966-1.161-1.508s-1.761-.811-1.976.1-.921-.6.2-1.828.731-2.292,1.788-2.913-.093-1.3-1.228-.825c-2.138.887-4.3,8.338-5.217,8.285-1.066-.061-2.27.942-1.426,1.54s-2.178,2.367-.721,3.128c1,.519,2.583-.262,3.955-.127a4.691,4.691,0,0,0,3.643-.656c1.13-.853,1.15.747,2.366.579s-.671,1-.584,1.833,1.286-.474,2.194-.942,2.054-.027,1.607.739,2.53,1.488,3.2.264S724.017-256,723.572-255.159Zm-206.483-18.29c-2.039,1.118,2.965,6.263,3.987,5.595C521.377-268.051,519.952-275.016,517.088-273.449Zm188.333,23.582c-.8.125-.185-1.138-.08-1.765s-1.707.307-1.755,1.049c-.068,1.065-1.594,2.2-2.362,2.6-.907.468-4.45.057-4.574-.739s-2.7-1.162-2.825-2.246-1.388-1.408-.376-2.618-.195-1.768-1.153-.842-1.547-.494-.242-1.023,3.752-1.077,2.469-3.342-9.119.8-11.1,1.969c-.658.387-5.646,4.41-5.748,4.661.435-1.073,1.933-1.52,2.523-2.507a17.8,17.8,0,0,1,4.048-4.615c1.186-.929,2.509-.091,2.671-.835s.724-1.264,1.852-2.306,14.763-1.049,16.076-1.006,3.856-1.764,4.583-2.914,1.7-1.164,3.524-1.071,2.661-1.576,3.565-2.214.559-.919-.243-1.081-1.548-.664-.751-.731,1.192-.531,1.521-1.561-.294-.566-1.4-1.98-1.648.478-2.733.379.722-1.492-.2-2.052-2.626-.137-3.98,1.022-1.256-.04-2.438,1.116-1.206-.555-.642-1.019.971.047,1.476-.644c.9-1.238,4.315-.632,5.165-2.01.391-.63-.647-1.473-1.9-1.173s-2.134-1.683-2.925-1.1-.638-.845-1.542-.264-1.429-.153-1.843-1.23-2.889-2.817-4.378-3.254-.53-1.246.276-.687,1.7-.592,2.039-1.168-.584-1.075-1.041-1.129-.467-.791-.36-1.362-1.614-1.292-1.68-1.863-1.038-.955-.987-1.469c.165-1.7-2.67-3.2-2.8-4.757-.068-.8-.987-1.357-1.342-2.322-.63-1.713-2.136,2.874-2.3,2.655.714.926.183.967-.323,1.544-.087.1-1.071,2.965-1.394,2.415-.668-1.135-2.749,1.848-4.086,1.764-.742-.047-.762-1.588-1.384-1.123s-.53-1.306-1.5-1.234-1.655-.037-1.38-.9c-.051.155-1.361-4.53-1.373-4.662-.107-1.181.839-1.277.827-2.178,0,.005-2.521-.674-2.8-.648-.741.065-2.966-.019-3.094-1.045s-.862-.5-1.217-1.466a11.463,11.463,0,0,0-2.363-1.908c-.686-.051-.923-.789-1.837-.89a5.467,5.467,0,0,0-2.557.887c-.51.235-1.835-.774-2.343-.367s-.631-.279-2.063-.658-3.316-.47-3.423.044-1.246.7-1.059,1.9,1.382.951,1.677,1.745-.565.523-.611,1.265c-.115,1.8-.555.608.033,2.623.432,1.482,2.063,2.96.047,3.595-.439.139-2.056,3.787-1.542,4.242.635.563,2.986,1.5,3.92,3.029s.906,3.924.642,5.642-2.2,2.139-3.6,3.639a4.468,4.468,0,0,1-3.576,1.36c-.683.065-.267,1.429.717,2.5s.191,1.424.719,2.558.025,2.054.781,3.07.3,1.421-.542,2.176c-.225.2.419,1.919.152,1.808-.294-.2-.586-.4-.878-.6-1.113-.747-1.114,1.552-1.406,1.616-.87.194-1.4-.891-2.178-.771-.4.061.1-.97-.935-1.755a12.086,12.086,0,0,1-3.177-3.192c-.671-1.468.129-3.38-.691-4.748a2.068,2.068,0,0,1,.259-2.058c1.081-2.048-4.786-1.807-5.329-1.756-2.386.224-4.007-1.6-6.246-2.143a3.753,3.753,0,0,1-2.763-1.847c-.177-.512-1.951-.887-2.356-1.4a4.2,4.2,0,0,0-2.8-.648c-.683.124-2.414-1.394-3.44-1.325a29.646,29.646,0,0,0-3.808,1.19c-.4.064.047-.855.327-1.258s-.883-2.1-1.182-3.237-.717-2.386-1.912-2.2a4.817,4.817,0,0,1-2.861-.648c-.346-.223-.444-3.475-.177-4.846a17.658,17.658,0,0,1,2.292-5.285c-.264.414,2.83-2.619,2.228-2.531.853-.127.906-.468,1.069-1.156s1.194-.244.616-.806c-.721-.7,4.586-.6,4.131-2.565-.093-.41-7.879-2.911-7.8-3.094.276-.631,4.341.4,5.831.95a5.632,5.632,0,0,0,3.086.418c1.2-.072.379-1.6.6-2.232s2.522.937,3.83.576,2.527-3.056,3.6-3.811.1-1.428-2.012-1.229a5.912,5.912,0,0,1-4.469-1.426c-1.152-.841-1.046-1.526.152-1.428,1.72.141,3.08,2.31,4.748,2.312,1.868,0,2.834-1.615,4.262-2.714,1.186-.914-2.4-1.289-1.472-1.915.02-.013,10.733.807,4.909-1.382-1.318-.5.039-1.484.448-.69s1.32.61,1.788,1.517c.682,1.321,1.09.442,2.226.028a11.349,11.349,0,0,0,3.786-2.787c.511-.767-1.524-4.281-2.17-4.594l-.753-.789a11.371,11.371,0,0,0,3.35-1.242c.5-.8-1.724-.947-.7-1.529,1.409-.81-2.742-1.4-2.827-2.475-.068-.855-1.829-.262-2.92-.762a10.487,10.487,0,0,0-4.055-.288c-.57.064-.6,2.4.26,2.45s1.552.95.815,1.245.129,1.2-.442,1.146-1.488-.324-1.64,1.164-.259,2.058-1.222,2.582-.248-1.651-1.161-1.583-1,1.839-.316,2,.809.731.99,1.584-1.252.245-1.809,1.28-.632-.448-1.441-1.123-1.791-1.8-1.745-2.658a1.125,1.125,0,0,1,1.069-1.156c.626-.121-.008-.685-.079-1.711-.077-1.133-3.141-3.308-4.138-2.284-.507.519-.152,1.484-.946,1.837s-.431,1.944-1.114,2.068-.322-2.79-.9-3.069-.527-.963.328-1.087l.9-.57c.209-.367-2.789-1.424-2.872-1.46-.516-.221-1.356.987-1.932.539s.036-1.6.084-2.227.917.275,1.477-.532c.514-.739-3.54-2.79-3.918-2.973-.575-.278.376-1.716.084-2.284s-2.428-2.42-3.338-2.238-1.156-1.184-.642-1.133c.85.084,3.532-2.641,2.243-3.053l-.628-.527c-.08-.643,4.279.351,4.785-.04.678-.523,2.8-3.916,3.643-5.125s-.645-1.3-2.7-1.106-2.522-.766-4.234-.858-4.9.406-5.351.926.854,1.007.7,1.53c-.133.464-1.392-.287-1.657-.149-.454.234.184.967.039,2.966a2.811,2.811,0,0,0,1.007,2.839c1.576,1.995.3,3.443-1.083,4.465-.091.067.885,1.288.818,1.529-.172.635-1.777-.318-2.114-.2-.68.238-1.226,2.184-.476,2.8s1.033.5.472,1.249-1.174,1.841.209,2.908,3.891.919,5.213,1.759-.566.35-.04,1.313c.554,1.011-.85,1.181-.771,2.063q.857.925,1.244-.927c.667-1.265,1.2.326,1.16,1.41s-1.022.47-1.749,1.562a2.072,2.072,0,0,1-2.5,1.059c-1.086-.214-.436,1.546.033,2.511s-.1,1.313-1.357.986-2.011-1.114-1.4-2.092,1.055-2.124.316-2-2.454-.025-2.978-.817.336-.462,1.879-.311c-.121-.012,4.4-1.381,4.319-1.31.959-.869-.659-2.5-1.454-2.207a1.4,1.4,0,0,1-2.056-.144c-.009-.731,1.816-.355,2.106-.426.739-.181-.415-1.193-1.552-.893a2.474,2.474,0,0,1-2.861-.591c-.926-.958-2.587-1.506-2.957.723s-1.984,1.053-2.6,1.8.757,1.245,2.3,1.281c3.11.079,1.583,2.551.77,2.159s-1.6.021-1.018.7-.215.971-.149,1.656-1.2.072-2.4-.027a21.19,21.19,0,0,0-5.012.691,4.746,4.746,0,0,1-4.063-.917,24.19,24.19,0,0,0-5.042-1.7c-1.484-.039-1.158-1.3-1.338-2.036s-3.145-.474-4.219.225-3.189.44-3.744,1.7c-.97,2.215,3.125.187,3.541.24.528.069,2.96-1.453,3.409-1.014.8.777-3.83,2.218-4.191,2.279-1.481.247-1.123,1.44.331,3.533,2,2.878-2.944,1.525-2.21,1.284,1.081-.358.552-1.433-.312-2.107-.943-.735-2.2-.627-3.04-1.273-.807-.618-1.213-1.125-2.29-.54s-2.334.428-4.724.859-6.785.374-7.594-.414,2.024-2.252,2.883-2.036c.831.211.33-.917-1-1.925s-4.243-1.6-4.178-.974c.1.955-6.856-1.421-7.55-1.441a9.088,9.088,0,0,1-5.041-1.648c-1.613-1.233-5.375-.843-5.816.3-.335.871-3.581,1.422-3.384.754a2.139,2.139,0,0,0,.524-1.286c-.6-.315.032-1.883-.881-1.987s-1.72,3.788-3.433,3.7-2.506-4.075-3.946-5.082-2.751-1.049-1.533.476-1.022.47-.894,1.495-1.911,2.25-1.861,1.677-1.156-1.182-2.5.434c-.614.735-6.858,1.34-6.407,3.049.18.683-.611,1.206-1.7,1.164s-.242-.966.608-1.433c.955-.527,3.56-2.673,4.926-2.918s3.976-1.362,4.024-1.991-1.313-.1-2.228-.256-2.5.887-4.03,1.591-3.3.5-2.834,1.406c.318.618-3.436.787-2.4.147.667-.414-6.969.534-4.88,2.06.921.671,1.5,1.007,1.046,1.469s-1.9-1.173-3.892-.978c-2.348.234-3.772-1.589-5.715-2.3a19.278,19.278,0,0,0-5.069-.734l.511,39.427s1,.721,1.372.262,1.068.137,2.352-.487c1.006-.492,3.793,3.072,4.386,3.822.773.978,1.164,1.811,1.993,1.268,1.393-.914,2.775-2.92,4.593-2.631,1.261.2,3.579,3.258,4.521,4.248,1.987,2.092,2.865,5.224,4.946,7.112,1.24,1.123,5.369,1.489,4.513,3.809-.368.993,1.768,1.5.562,2.351-.462.328-1.111.8-1.739,1.262.063.5.52.819,1.108,1.294-.238-.193-.845,2.323-.19,3.025a1.665,1.665,0,0,0,2.223-.141c.62-.523,1.091.612.59,1.474a.691.691,0,0,0,1.1.843c.5-.635,1.61,1,2.127,1.282,1.114.6-1.309,2.574.092,2.682-.7-.055,5.316,3.76,5.121,3.413.351.624,1.727,1.062,2.235.656s.865.73.989,1.528,1.26.324,1.944.26,1.1.9,1.549.721c1-.39,1.326,1.361,2,2.38l70.894-1.3s.025-1.761.87-1.162.1,1.595,1.09,1.963,1.688.969,2.215.734,1.433-1.01,2.36.044,1.6.132,2.139.81,1.539,1.2,2.212.351c.544-.686,2.658.108,3.684.471,1.841-1.52,1.953-2.9,4.434-3.149,1.3-.131,4.174.538,4.387,2.174.253,1.936,2.513.081,2.765,1.9.214,1.551,1.737,2.75,1.494,3.577a16.759,16.759,0,0,1,1.48,1,8.412,8.412,0,0,1,3.936.468c1.605.551,3.984-.737,4.809,1.194s2.7,3.368.958,3.524c-2.693.245-1.96-1.792-3.668.2-.618.721-.507,5.608-2.194,5.353a.32.32,0,0,1-.065-.028,2.238,2.238,0,0,0,.442,2.011c.862-.642,2.095-1.745,3.165-1.688,1.713.093,2.183,1.113,3.313.3s1.354-1.158,1.589-.592a.323.323,0,0,1-.036.258c.432-.236.737-.466.754-.646a2.939,2.939,0,0,0-.157-1.018c-1.144.179-1.515.271-1.84-.515-.471-1.136,3.392-2.327,5.221-2.123,1.732.195,2.934-1.035,3.552-.3,3.752-3.469,7.327-2.726,12.229-2.837,0,0,2.793-1.784,3.152-3.387s2.136-5.428,3.212-4.606,3.349.184,3.436.946c.079.7-.717,3.3,2.262,7.127a5.958,5.958,0,0,1,2.683-1.165c1.027.045,2.55-1.344,3-2.206s1.094.786.185,1.082.754.959,2.35.882-.734.579-1.932.539-1.711.135-3.286,1.753-1.172,2.068-.248,2.857,2.116.43,3.357-.671,1.17-2.183,2.426-2.143,4.491-1.2,5.911-1.675c2.371-.793-.379-.443.5-1.32.917-.915,2.376-.568,3.407-1.3C707.309-249.491,706.219-249.99,705.421-249.867ZM555.992-321.875c-1.473,1.879-1.969,2.158-3.515,1.9s-2.487.531-1.711,1.066.829.989-.753,1.372-2.61,1.621-3.246,1.493,2.687-2.575,1.819-3.2-2.98,1.128-3.016,1.9-1.441.835-2.3.8-2.007-.835-1.146-.937.258-1.049,1.433-1.516-.244-1.13.113-1.633,2.773.462,2.806-.446-2.424-1.648-3.234-1.092a5.055,5.055,0,0,1-4.978.881c-.718-.306,5.7-1.071,6.778-2.083s5.959-2.211,6.333-1.309-2.61,1.53-1.149,2.328,3.815.224,4.347-.644S557.464-323.755,555.992-321.875Zm14.66,18.136c-1.749,1.564-1.619,1.152-3.157,1.445s-.294,1.817-2.152,1.979-6.345.4-6.995-.634c-.216-.346,2.448-.124,2.621-.9.422-1.9,4.992-2.614,1.168-4.415-1.871-.885,2.655-1.534,3.717-.1s2.937,2.459,3.966,1.4c.591-.606,6.934-3.96,6.951-2.677C576.792-306,571.649-304.633,570.652-303.739Zm40.237,40.949c-1.246.155.071-3.309-2.228-4.533-1.518-.811-4.068-3.192-3.872-5.145.128-1.28,1.659-3.332,3.1-1.58.927,1.129,2.358,5.791,3.176,7.263S611.914-262.915,610.889-262.79Z" transform="translate(-495.068 412.264)" fill="#b6caef"/>
</svg>
