<svg xmlns="http://www.w3.org/2000/svg" width="150.459" height="176.706" viewBox="0 0 150.459 176.706">
  <g id="europe" transform="translate(-0.001 0.001)">
    <path id="Path_154" data-name="Path 154" d="M749.844-305.366c-.938-.907-2.15.515-3.141.5a2.553,2.553,0,0,1-.686,1.432c-.394.28-1.124,1.349-.562,1.458s1.46,1.011,1.572.338.5-1.572,1.46-.447a5.27,5.27,0,0,0,.83.751c.155-.508,1.329-.6,1.937-1.209C752-303.286,750.883-304.364,749.844-305.366Zm20.318,9.212c.075-1.114-2.376-1.895-2.638-1.3s-.817.52-1.225-.148.372-1.3-.037-1.374a1.534,1.534,0,0,1-.815-1.374c.111-.372-.633-2.749-1.895-3.048s-1.449-2.079-1.672-3.045-1.042-.446-1.672-1.261-1.709-.412-2.267-.372,0-1.041.891-1.635,1.933-3.752,1.933-4.385-3.9-.6-4.643-.223-1.486-.556-.855-.818,1.969-1.56,1.895-2.08.93-1,.372-1.484-.632.632-1.114,1-1.561.259-2.713.036-1.6,1.412-1.561,2.119-1.337,1.115-1.114,1.708-.259,1.041-.63.706-.781-1.152-1.524-.556.855,1.374,1.82,1.486-.742.815-.929,1.857,1.262.592,1.337,1.337-2.08.855-2.08,1.559,1.226-.334,1.783-.63-.295,1.744,1.042,1.521.963-2.042,1.448-1.967-.223.965.187,1.744-.966,1.969-.891,2.527,2.747.556,3.6-.335,1.262.076.669.742a.882.882,0,0,0,.408,1.56c.742.26,1,.336.67.931s-.039,1.707-.224,2.263-2.49.486-2.562.113-1.042-.113-.781.408-.819,1.078-.743,1.561,1.448.37,1.485.965-1,1.3-2.414,1.709.3,1.521.965,1.039.52.335,1.488.335,1.56.779,2.635.37,1.042,0,.223.632-2.042-.037-2.786.372-3.764,3.24-3.193,3.936c.335.41.778-.592,1.856-1.038s1.264.3,1.857.37.631-1.225,1.115-1.114.927-.41,1.819-.26a2.338,2.338,0,0,0,1.969-.556c.446-.372,1.633.743,2.005.483a7.38,7.38,0,0,1,2.823-.522,7.856,7.856,0,0,0,3.491-1.448c.558-.519-.334-.632-1.075-.519s-.6-.742.184-1.486S770.087-295.041,770.162-296.154ZM747.838-314.8c1-.036,2.154-1.745,1.672-2.228S747.091-314.775,747.838-314.8Zm14.375-8.061c.633-.632,1.374-3.045.41-2.785S761.938-322.587,762.213-322.863Z" transform="translate(-714.818 418.441)" fill="#b6caef"/>
    <path id="Path_232" data-name="Path 232" d="M821.906-320.087c.6-1.337,3.268-2.37,3.716-3.567.223-.592.3-.891-.668-2.005s-3.12-1.857-3.194-2.452,1.633-.666,1.56-1.41-.965-.743-1.337-1.337.446-.966.37-1.264-1.186-.446-1.261-.817.743-.3.593-.743-.889-1.264-.37-1.932,1.633,0,.815-1.484-2.078-3.344-2.376-3.789.3-1.189.745-1.488,1.56-1.41,1.56-1.856-1.412-1.635-1.783-1.857-1.19-.149-1.561-.891-.743-.965-.372-1.41a1.857,1.857,0,0,0,.372-1.338c0-.446.817-.073.965-.742a2,2,0,0,1,.555-.914,10.607,10.607,0,0,0,0-1.4c-.119-.715-2.148-.954-2.625-1.791s-1.672-.476-2.031,0-2.506-.119-2.506.6-1.551.834-1.551,1.671.715,2.268-.478,2.148-.358.476-1.074,1.432-.718-.6-1.433-.358-1.55-.715-1.911-.12-1.55.12-2.743-.119-1.791-1.909-2.746-2.027a1.778,1.778,0,0,0-1.667,1.225,18.673,18.673,0,0,0,2.741,2c1.313.6,3.7,1.313,3.583,2.147s-.48,2.031.117,2.387-.117,1.911.6,2.268.478,2.148-.12,2.148.12.954.478,1.313a2.468,2.468,0,0,1,.354,1.238,11.955,11.955,0,0,1,2.023.83c1,.447.853,1.153.891,1.932s.073,1.228-.447.891-1.077,0-1.374,1.116a4,4,0,0,1-2.563,2.525c-.854.073-.781.966-1.485,1.151s-1.374.6-1.337,1.374-1.041.855-1.747.855-.558,1.264-1.115,1.6-.446.782.075,1.448.076,1.265.26,1.747,1,1.6.446,2.825-1.151,2.749-.668,2.6,1.6,1,2.34.93.818,1.039,1.524.817.7.669,2.749.6,6.166-1.784,7.8-1.784a9.114,9.114,0,0,0,2.251-.258,10.474,10.474,0,0,1,1.2-1.525C819.084-318.007,821.313-318.75,821.906-320.087Z" transform="translate(-696.691 408.607)" fill="#b6caef"/>
    <path id="Path_233" data-name="Path 233" d="M750.782-306.468a5.27,5.27,0,0,1-.83-.751c-.955-1.125-1.346-.226-1.46.447s-1.01-.224-1.572-.338.168-1.178.562-1.458a2.553,2.553,0,0,0,.686-1.432.867.867,0,0,1-.314-.053c-1.039-.408-2.49-.408-2.526.519s1.15.6,1.189,1.189-1.189.446-2.044,1.041-1.783-.41-2.674.036.966.966.3,1.9.036.89,1.15,1.781-.669,1.114-.669,2.119-1.373.965-1.671,1.633,1.189,2.007,2.49,2.007a7.646,7.646,0,0,0,4.346-1.784c1.262-1.19,1.931-.036,3.082-.631s.446-4.941,0-5.832A.494.494,0,0,1,750.782-306.468Z" transform="translate(-716.283 423.574)" fill="#b6caef"/>
    <path id="Path_252" data-name="Path 252" d="M784.828-285.5a2.613,2.613,0,0,1,1.6-.205c.292.117.388.422.439.75a13.286,13.286,0,0,0,1.769-.34c.446-.168,1.45.391,1.56.055s.446-1.114.893-1.114.167-1.17.612-1.225a5.743,5.743,0,0,0,1.561-1.059s-.446-.891-.614-.947-.723.556-1.727.556-1.727.782-2.174.782-1.837-.446-2.786-.5c-.334-.019-.682-.047-1-.081A22.078,22.078,0,0,0,784.828-285.5Z" transform="translate(-701.592 430.502)" fill="#b6caef"/>
    <path id="Path_254" data-name="Path 254" d="M772.368-297.521a2.067,2.067,0,0,0-.878,2.132,6,6,0,0,1,1.657.188,3.68,3.68,0,0,0-.8-2.082A.251.251,0,0,1,772.368-297.521Z" transform="translate(-706.047 427.852)" fill="#b6caef"/>
    <path id="Path_136" data-name="Path 136" d="M796.438-278a5.6,5.6,0,0,1,1.9-2.794c.332,0,.455-2.208.316-3.353a8.6,8.6,0,0,0-2.267-1.149,30.145,30.145,0,0,1-3.883-.388c-.554-.22-1.109.722-1.609.334a.708.708,0,0,0-1.109.667c.111.554,1.165.886,1.165,1.719s2.108,2.052,2.052,2.5c-.039.307,1.265,1.153,2.044,2.3a14.154,14.154,0,0,1,1.289.954A2.579,2.579,0,0,0,796.438-278Z" transform="translate(-699.934 431.799)" fill="#b6caef"/>
    <path id="Path_137" data-name="Path 137" d="M798.459-296.147c-.416-.248-1.576-.083-1.66-.414s-.165-.911-.663-.911-1.164-.334-1.41.248-1.246-.168-1.329-.582-.5-.747-1.659-1.162a6.18,6.18,0,0,1-1.454-.845,1.5,1.5,0,0,1-.132.27c-.224.334-1-.28-1.338.055s-1.449.391-2.062.947a6.549,6.549,0,0,1-2.618,1c-.724.165-.112.835.167,1.336s.279,1.728.835,2.119a17.938,17.938,0,0,1,2.619,1.948.158.158,0,0,1-.032.19c.775.208,1.979.213,2.19-.133a4.957,4.957,0,0,0,.414-1.164,3.742,3.742,0,0,1,2.323.747c.664.747,1.911.248,1.911.248s.067.211.181.508c.179-.412.412-.773.7-.811a3.1,3.1,0,0,0,2.4-1.2,4.441,4.441,0,0,1,1.457-1.2C798.955-295.358,798.782-295.953,798.459-296.147Z" transform="translate(-701.932 427.086)" fill="#b6caef"/>
    <path id="Path_138" data-name="Path 138" d="M802.438-295.623c-.831.085-1.246-.414-1.909-.165a3.081,3.081,0,0,1-2.156-.248c-.416-.248-.913.5-1.493.165a1.164,1.164,0,0,1-.331-.295,4.441,4.441,0,0,0-1.457,1.2,3.1,3.1,0,0,1-2.4,1.2c-.286.039-.519.4-.7.811a5.769,5.769,0,0,0,1.145,1.983c.747.662,3.4.579,3.4,0s2.158-.83,2.655-.83,2.075-1.576,2.324-1.493a7.479,7.479,0,0,1,2.323.746,4.266,4.266,0,0,0,1.578.566,1.36,1.36,0,0,1-.524-.863,4.4,4.4,0,0,1,1.115-1.839.26.26,0,0,0,.048-.08,4.62,4.62,0,0,1-1.47-.358A3.62,3.62,0,0,0,802.438-295.623Z" transform="translate(-699.189 428.305)" fill="#b6caef"/>
    <path id="Path_139" data-name="Path 139" d="M748.677-265.909c.994-.181-.271-1-.543-1.266s.091-1.356.635-1.356,0-.632-.726-1.356,0-.993.634-.993-.181-1.087.451-1.719-.179-1.809-.179-2.348.9-.725,1.627-1.449-.633-.452-.633-.994-.9-.722-1.537-.271-.451,0-.994,0-1.537.181-1.537-.362-.452-.631-.9-.089a1,1,0,0,1-.669.283,3.354,3.354,0,0,0,.068,1.705c.482.781-.594,4.9-1.561,6.018s-.036,1.412.967,2.19.334,3.6.334,4.273.891.483,1.931.483a13.037,13.037,0,0,0,2.007-.395,1.875,1.875,0,0,1-.364-.819C747.683-264.917,747.683-265.728,748.677-265.909Z" transform="translate(-715.77 434.219)" fill="#b6caef"/>
    <path id="Path_140" data-name="Path 140" d="M815.911-291.159a1.97,1.97,0,0,0-1.783-1.337c-.521,0-1.412-1.189-2.005-1.115a13.476,13.476,0,0,0-1.832.464,23.609,23.609,0,0,0,1.657,2.834c.679.793,2.156,2.95,1.588,3.52a2.657,2.657,0,0,0,.436,2.829,8.553,8.553,0,0,0,1.418-2.218c0-.446.075-1.337.967-1.114s1.707.6,1.707.3a3.16,3.16,0,0,0-.593-1.636A7.811,7.811,0,0,1,815.911-291.159Z" transform="translate(-693.072 429.156)" fill="#b6caef"/>
    <path id="Path_141" data-name="Path 141" d="M805.288-312.255c.68,0,2.271.34,3.178,0s.91.683,1.477.568,1.7.682,2.386,1.25a9.288,9.288,0,0,0,1.27.822,1.785,1.785,0,0,1,.49-.542c.593-.446,1.186-.223,1.708-.223s.594-.6.966-.893a1.937,1.937,0,0,1,.782-.316c-.2-.41-.211-1.214-.542-1.543-.39-.391-.947-1.059-.779-1.448a1.244,1.244,0,0,0-.279-1.393,1.838,1.838,0,0,1-.424-.643,11.22,11.22,0,0,0-2.4-.156c-.444.149-2.228-1.264-2.526-1.486a9.445,9.445,0,0,0-2.706.044c-.686.755-.192,1.316-.228,2.483-.037,1.189-1.337.966-2.042.966s-1.859-2.116-2.23-2.6-1.561.6-2.415,1.114-.41,1.524-1,2.007a1.747,1.747,0,0,0-.372,2.378c.024.044.04.088.063.133a4.274,4.274,0,0,0,1.99-.522C802.449-312.823,804.607-312.255,805.288-312.255Z" transform="translate(-696.748 420.891)" fill="#b6caef"/>
    <path id="Path_142" data-name="Path 142" d="M801.094-309.631a1.679,1.679,0,0,0,1.5.558c.335-.167,1.393.388,1.393.834s-.28,1.784,0,1.784c.252,0,1.857.5,1.968,1.169a12.721,12.721,0,0,1,1.84.132,1.2,1.2,0,0,0,1.262-.6,2.835,2.835,0,0,1,1.635-.52c.3,0,.3-.818.371-1.188a2.474,2.474,0,0,1,1.265-1.189c.446-.148.371-.668.815-.668s.372-.6.3-.967a1.141,1.141,0,0,1,.179-.793,9.282,9.282,0,0,1-1.27-.822c-.683-.568-1.819-1.364-2.386-1.25s-.567-.909-1.477-.568-2.5,0-3.178,0-2.84-.567-3.636,0a4.274,4.274,0,0,1-1.99.522,2.449,2.449,0,0,1-.245,2.726c-.407.458-.171.519.125.7C800.178-309.828,800.872-309.945,801.094-309.631Z" transform="translate(-696.771 422.352)" fill="#b6caef"/>
    <path id="Path_143" data-name="Path 143" d="M782.248-289.042c-.5.223-1.282-.446-1.282-.668a3.528,3.528,0,0,1,0-1.055,9.879,9.879,0,0,0-1.449-.634,1.952,1.952,0,0,0-1.709.073,5.649,5.649,0,0,1-2.131.073c-.063.223-.161.372-.339.372a1.487,1.487,0,0,0-1.282,1.059c-.111.556-1.281,1-1.616,2.007s-.167,1.448.335.834,1.114-.388,1.114.112.668.556.446,1.225c0,.015,0,.025-.007.04.762-.065,1.821-.149,2.143-.149.52,0,1.039-1.635,1.262-1.784s.819,1.189,1.412,1.709.67-.446.67-.891.52-.6.891-.519,1.189.223,1.189-.3.446-.3.742-.3.372-.6.372-.6l.486-.452A1.489,1.489,0,0,0,782.248-289.042Z" transform="translate(-705.785 429.844)" fill="#b6caef"/>
    <path id="Path_155" data-name="Path 155" d="M815.724-320.761c.308-.666,1.113-.777.511-1.651a1.415,1.415,0,0,1-.548.258c-1.078.3-3.419-.742-4.755-.482s-4.047.259-4.68.927-2.228.855-1.521,1.448,0,.893.518,1.6.782,1,1.486.855,1.264.223.52,1c-.012.013-.019.029-.032.044a9.445,9.445,0,0,1,2.706-.044c.3.223,2.082,1.636,2.526,1.486a11.22,11.22,0,0,1,2.4.156.59.59,0,0,1,.089-.694c.335-.28,1.059-.28.669-.837a2.054,2.054,0,0,1-.557-1.337,7.911,7.911,0,0,1-.167-1.448C814.943-319.924,815.389-320.037,815.724-320.761Zm-13.15,1.8c-1.337.372-1.533,2.22-1,2.192a7.236,7.236,0,0,0,2.6-1.709C804.579-318.886,803.911-319.332,802.574-318.959Zm1.114-1.078c.3-.555-2.147-.314-1.6.187A1.093,1.093,0,0,0,803.688-320.037Z" transform="translate(-696.08 419.441)" fill="#b6caef"/>
    <path id="Path_172" data-name="Path 172" d="M841.508-287.139c.39-.056,1.56-1.336,1.951-1.336s2.062.334,2.062.055.556-1.226.446-1.505-.668-.669-.558-.946.891-.279.891-.614-.612-.5-.612-.725.779-.612.724-1.058-.724-.5-1.449-.893-1.449-.223-2.118-.556-2.062-.112-2.062-.335-.891-.947-1.114-1.336-.947-.167-1.393.111a1.1,1.1,0,0,1-1.282.111c-.444-.279-.835-.725-1.225-.556s-1.114.055-.947-.5-.725-1.783-1.113-1.951-1.561.113-1.84-.446-.781-1-.558-1.392a2.626,2.626,0,0,0-.334-1.893c-.28-.447-1.672-.391-2.062-.224s-1.281-.167-1.672.056-.612.614-1.17.614a.716.716,0,0,1-.687-.288,5.709,5.709,0,0,1-1.615.324s-1.486,1.189-1.486,1.635-.075,1.19-.447.818a3.093,3.093,0,0,0-2.3-.149c-.374.223-.967-.891-1.636-.519s-1.56-.52-1.635-.149-1.039.076-1.709-.223-1.856.149-2.3-.371-3.344-.522-4.308-.522-1.189.522-1.635.967a1.554,1.554,0,0,1-1.344.3,2.329,2.329,0,0,0,.209.849c.223.335,1.281,1.951,1,2.451s-.781.5-1.114.891a30.75,30.75,0,0,0-2.34,2.4c-.057.278.334,1.505.056,1.728a4.4,4.4,0,0,0-1.115,1.839c0,.446.612,1.057,1.115,1.224a.676.676,0,0,1,.407.288,7.951,7.951,0,0,1,.969-.083c.371,0,2,.446,2.523.446a2.713,2.713,0,0,1,1.488.446c.223.223.742.073,1.114-.3s.817-.149,1.262-.149a2.054,2.054,0,0,0,1.413-.742c.223-.372,2.451-.969,3.045-1.042s1.485,1.115,2.005,1.115a1.97,1.97,0,0,1,1.783,1.337,7.812,7.812,0,0,0,1.561,2.526,3.16,3.16,0,0,1,.593,1.636c0,.3-.815-.076-1.707-.3s-.967.669-.967,1.114a9.38,9.38,0,0,1-1.485,2.3c-.223.3.446.522.966.6.222.029,1.114-.6,1.41-.6a3.037,3.037,0,0,1,.885.623c-.083-1.161.157-1.1,1.2-1.885,1.078-.818,1.186-2.34,2.154-2.525s1.374-.632,2.786-.41-.706,1.113.259,1.635,3.939-.149,4.087.592-3.419,1.486-3.343,1.859,1.893.743,2.525,1.152-.185,1.561.113,1.931,1.261.076,2.042-.483,1.412-.37,2.415-1.038,3.081-.076,3.344-.483-.6-.818-2.527-.669a1.863,1.863,0,0,1-2.043-2.046c0-.37,2.007-1.893,3.157-2a9.3,9.3,0,0,0,3.194-.967,10.074,10.074,0,0,1,2.043-.574C841.331-286.475,841.176-287.091,841.508-287.139Z" transform="translate(-695.955 425.936)" fill="#b6caef"/>
    <path id="Path_173" data-name="Path 173" d="M774.572-278.07a15.77,15.77,0,0,1-2.581-.073c-.813-.181-2.533-.271-2.984-.723s-1.176-.814-1.176-.272-1.264.632-1.988.181-1.9-.813-2.44-1.174c-.286-.191-.87-.431-1.428-.71-.754.146-2.917-.647-4.346-.475-1.524.185-6.39-.223-8.285-.073s-2.005-.779-3.046-.779-.592,1.261-2.08,1.3-1.633.967-.556,1.821c.614.486.54,1.516.452,2.455a1,1,0,0,0,.669-.283c.452-.542.9-.452.9.089s1,.362,1.537.362.362.452.994,0,1.537-.272,1.537.271,1.357.271.633.994-1.627.9-1.627,1.449.813,1.716.179,2.348.181,1.719-.451,1.719-1.356.268-.634.993,1.266,1.356.726,1.356-.9,1.085-.635,1.356,1.537,1.085.543,1.266-.994.993-.994,1.534a1.875,1.875,0,0,0,.364.819,2.171,2.171,0,0,1,1.337.1c1.039.482,1.643,3.072,3.045,2.9.6-.073.3-.519.6-.818s.854-.073,1.449-.073.891-.855,2.3-.891,2.3-.149,3.194-.112,1.6-.26,1.819-.893a2.386,2.386,0,0,1,1.971-1.334c1-.149.854-1.19.927-1.784s1.747-1.486,1.857-1.932-.966-2.154.037-3.677,2.08-1.6,2.08-2.451c0-.785,1.039-1.078,2.3-1.228s1.671-1,2.749-1.448A1.675,1.675,0,0,0,774.572-278.07Zm.219,8.122c-.187-1.265-2.739.376-2.192.742C773.714-268.464,774.977-268.687,774.791-269.948Z" transform="translate(-715.582 432.984)" fill="#b6caef"/>
    <path id="Path_192" data-name="Path 192" d="M787.457-305.815a4.224,4.224,0,0,1-.056,2.619c-.39.614-.222.779.168,1a1.436,1.436,0,0,1,.556,1.226c0,.447.28.39.335,1.338a3.384,3.384,0,0,0,.614,2,1.134,1.134,0,0,1,.076,1.125,6.18,6.18,0,0,0,1.454.845c1.16.415,1.576.746,1.659,1.162s1.079,1.161,1.329.582.911-.248,1.41-.248.582.579.663.911,1.244.165,1.66.414.58,1.164,1.164,1.494,1.077-.414,1.493-.165a3.081,3.081,0,0,0,2.156.248c.663-.248,1.078.251,1.909.165a3.62,3.62,0,0,1,2.158.5,4.619,4.619,0,0,0,1.47.358c.165-.34-.155-1.39-.1-1.648a30.75,30.75,0,0,1,2.34-2.4c.333-.388.837-.388,1.114-.891s-.781-2.116-1-2.451a4.163,4.163,0,0,1-.167-2.227c.167-.559-.837-.891-.837-1.282s.947-1.059,1.449-1.282.335-1.784-.111-2.172a1.723,1.723,0,0,1-.391-1.9c.279-.778-1.671-1.392-1.949-1.392-.048,0-.073-.048-.092-.115a27.137,27.137,0,0,1-6.533-.276c-.22-.089-.785-.292-1.27-.464a1.544,1.544,0,0,1-1.374.709c-1.075,0-1.15-1.078-1.186-1.561s-4.347.407-5.5,1.561-3.826.7-3.9,1.337c-.052.458-.456.694-.718.567A.658.658,0,0,0,787.457-305.815Z" transform="translate(-700.799 423.773)" fill="#b6caef"/>
    <path id="Path_193" data-name="Path 193" d="M794.335-294.141a3.742,3.742,0,0,0-2.323-.747,4.957,4.957,0,0,1-.414,1.164c-.211.347-1.415.342-2.19.133-.219.287-1.221.512-1.361.926-.167.5-1.393.223-1,1.56s-.612.891-1,.725a3.962,3.962,0,0,0-2.563.5,1.184,1.184,0,0,1-1.449.109,1.136,1.136,0,0,0-1.5.223c-.335.559-.947-.446-1.449-.39s-.279,1.114-.279,1.337.781.891,1.282.668a1.784,1.784,0,0,1,1.56.336c.446.278,1.281-.224,1.56-.5s1.839-.28,2.005-.28.223.891.5,1.059a8.227,8.227,0,0,0,2.284.334c.949.057,2.34.5,2.786.5s1.17-.782,2.174-.782,1.558-.611,1.727-.556l.009.008c.073-.311.19-.559.407-.591.407-.057.116-.757.407-1.1s-.232-1.049.291-.989,1.1.117,1.1-.639a.93.93,0,0,1,.335-.666,9.214,9.214,0,0,1-.986-2.094S795-293.394,794.335-294.141Z" transform="translate(-703.617 428.73)" fill="#b6caef"/>
    <path id="Path_194" data-name="Path 194" d="M818.816-283.4c-.52-.073-1.189-.3-.966-.6.013-.019.044-.055.067-.085a2.657,2.657,0,0,1-.436-2.829c.568-.57-.909-2.727-1.588-3.52a23.619,23.619,0,0,1-1.657-2.834,2.993,2.993,0,0,0-1.213.578,2.054,2.054,0,0,1-1.413.742c-.446,0-.891-.223-1.262.149s-.891.519-1.114.3a2.713,2.713,0,0,0-1.488-.446c-.519,0-2.152-.446-2.523-.446a7.946,7.946,0,0,0-.969.083c.084.16.019.354-.24.548-.446.334-1.337.835-1.672,1.058s-1.505,3.01-2.284,3.788-1.5.893-1.56,1.17.891,1,.891,1.45a.8.8,0,0,0,.837.891c.611,0-.057,1.448.332,1.56s2.786.279,2.786.835c0,.434.266.8.15,1.1.672.115,1.167,1.029,1.432.962.3-.073,2.3.372,2.674.3a16.607,16.607,0,0,1,2.674.073,2.261,2.261,0,0,0,1.783-.742c.522-.519,2.379-.6,2.973-.519s1.783.223,2.005.592a4.178,4.178,0,0,0,1.524.725,9.036,9.036,0,0,0,0-1.317c.036-.782.482-1.969,1.261-2.043s1.413-.076,1.3-1.374c0-.048,0-.079-.007-.121a3.037,3.037,0,0,0-.885-.623C819.93-284,819.037-283.371,818.816-283.4Z" transform="translate(-697.018 429.273)" fill="#b6caef"/>
    <path id="Path_196" data-name="Path 196" d="M783.366-292.9c-.335.055-.612-.447-1.337-.447a1.977,1.977,0,0,1-1.616-.778c-.335-.446-2.062-.559-2.619-.446s-.725-.95-1.281-.837-.724-.725-.724-1.17-.612.334-1.114.556-.669-.5-.725-.837-1.058-.667-1.56-.947-1.06-1.169-1.281-.778-.837-.559-.893-.947c-.036-.262-.211-.179-.322-.334a2.374,2.374,0,0,1-.57.053c-.891-.037-1.672.669-1.521,2.155s-1.078,1.635-2.6,1.747-1,1.3-1.633,1.784-2.861-.26-3.158-1.078-2.3,0-1.449.965.817,2.3.335,2.675-1.524-.592-2.192-.112-.706-.447-1.521-.743-1.154.372-2.452.263-2.044.629-1.56,1.188-.076,1.075.3,1.56,2.08.407,3.343,1.075,1.56.113,2.192.6.781.187.817,1.115a2.45,2.45,0,0,0,1.969,2.155c1.226.334.3,1.149.668,1.967s-.558,2.007-.371,3.009-.6,4.235-1.189,4.531a.629.629,0,0,1-.148.029c.558.279,1.142.519,1.428.71.543.362,1.719.722,2.44,1.174s1.988.362,1.988-.181.723-.181,1.176.272,2.171.542,2.984.723a15.763,15.763,0,0,0,2.581.073,4.99,4.99,0,0,0-.152-.646c-.446-1.448.854-2.3,2.079-2.489a10.3,10.3,0,0,1,4.607,1c.706.446,1.672.335,2.9-.965a3.316,3.316,0,0,1,1.574-1.025,3.785,3.785,0,0,1,.28-.851c.168-.446-.613-.335-1.169-.39a.757.757,0,0,1-.558-1.225c.39-.614-.335-.67-.725-1.282s.167-.446.5-.614.781-.834.5-1-.5-.559-.279-1.228-.446-.723-.446-1.225-.612-.723-1.114-.112-.67.168-.335-.834,1.505-1.45,1.616-2.007a1.487,1.487,0,0,1,1.282-1.059c.5,0,.39-1.169.557-1.893a3.28,3.28,0,0,1,1-2.062C784.592-292.673,783.7-292.952,783.366-292.9Zm3.975,18.907c-.408-.037-.52.706-1.56,1.337s.008,3.484,1.039,3.344C787.9-269.457,787.749-273.953,787.341-273.989Z" transform="translate(-712.754 427.068)" fill="#b6caef"/>
    <path id="Path_197" data-name="Path 197" d="M813.559-277.674c-.559.057-1.333.262-1.208.576.148.372-.372.6-.966.6a12.24,12.24,0,0,1-2.674-.446,12.451,12.451,0,0,0-3.37-.041.267.267,0,0,1-.048.115c-.223.334-2.005,1.244-2.34,1.076s-.5.559-1.169.726-1.673-.057-1.728.223a4.247,4.247,0,0,1-.891,1.448c-.39.391-.056.837-.613.947-.368.073-.519.755-.723,1.356a.79.79,0,0,0,.111.057,2.093,2.093,0,0,1,1.337,2.154c-.112.929,1.188,1.264,1.781.6s2.266.372,2.266.818-1.708-.484-2.674.22.743,1.374.521,2.119a1.434,1.434,0,0,0,1.3,1.744c.854-.036,1.82,1.377,2.34,1.116s-.634-2.227-.446-2.526,1.226.522,1.744-.073-.371-1.041-1.15-1-.037-1.038.891-.483,1.373-.147,1.819-.223.558-1.671-.817-2.043-1.187,1-2.079.075.818-.556.818-1.336-1.377-1.9-2.045-2.825.93-1.374,1.3-.7,1.373.558,2.005.3-.668-1.448.483-1.893,1.153.332,1.524.482.7-.927,1.895-.927a3.049,3.049,0,0,1,1.7.806c.323-.359.587-.563.587-.862,0-.391.726-.558.726-1.172A4.077,4.077,0,0,0,813.559-277.674Zm-2.1,18.739c-.6-.332-3.27.223-3.975-.446s-2.144.528-1.524.632c.891.149,2.228.929,3.677.965s3.419-.669,3.381-1.038S812.054-258.6,811.46-258.935Z" transform="translate(-697.238 434.486)" fill="#b6caef"/>
    <path id="Path_207" data-name="Path 207" d="M794.141-279.417c.056-.446-2.052-1.667-2.052-2.5s-1.054-1.165-1.165-1.719a.708.708,0,0,1,1.109-.667c.5.388,1.055-.554,1.609-.334a30.146,30.146,0,0,0,3.883.388,8.594,8.594,0,0,1,2.267,1.149,2.289,2.289,0,0,0-.116-.542c-.3-.7,0-1.5-.8-1.8-.411-.153-.583-.866-.655-1.518-.375.115-.694.21-.866.252a2.9,2.9,0,0,1-2.574-.58,9.4,9.4,0,0,0-2.088-1.559,5.154,5.154,0,0,1-1.5,1.009c-.446.055-.167,1.225-.612,1.225s-.779.781-.893,1.114-1.114-.223-1.56-.055a13.286,13.286,0,0,1-1.769.34c.077.51.045,1.07.452,1.07.668,0,1.893-.073,1.931.818s1.635,2.862,2.228,3.531,1.933.519,2.007,1.075,1.041,1.077,2.155,1.152a2.509,2.509,0,0,1,1.058.44C795.406-278.264,794.1-279.11,794.141-279.417Z" transform="translate(-701.076 430.754)" fill="#b6caef"/>
    <path id="Path_208" data-name="Path 208" d="M799.124-271.794c.557-.111.223-.556.613-.947a4.248,4.248,0,0,0,.891-1.448.125.125,0,0,1,.053-.071c-.754-.567-1.284-.974-1.45-1.559a5.63,5.63,0,0,1,.271-2.61,8.062,8.062,0,0,0-2.176-1.222c-.414,0-1.05.919-1.206,1.8.974.519,1.358.89.683,1.565-.706.7-.854,3.082-.075,3.713.742.6.954,1.795,1.673,2.135C798.6-271.039,798.756-271.721,799.124-271.794Z" transform="translate(-697.811 433.824)" fill="#b6caef"/>
    <path id="Path_209" data-name="Path 209" d="M813.926-283.181c-.594-.076-2.451,0-2.973.519a2.261,2.261,0,0,1-1.783.742,16.61,16.61,0,0,0-2.674-.073c-.372.073-2.376-.372-2.674-.3-.264.067-.759-.847-1.432-.962a.494.494,0,0,1-.2.239,1.135,1.135,0,0,0,0,1.728c.558.5,1.281,1.616.781,1.616a1,1,0,0,0-.837,1c.056.335-.167,1.059,0,1.226s1.337,1.282,1.393,1.616c.049.294.528.443.494.7a12.45,12.45,0,0,1,3.37.041,12.241,12.241,0,0,0,2.674.446c.594,0,1.114-.223.966-.6-.125-.315.648-.519,1.208-.576-.1-.346-.164-.63-.019-.687a4.945,4.945,0,0,1,2.562,0,1.032,1.032,0,0,0,1.015-.188c-.089-.314-.176-.562-.347-.591-.408-.076-1.038-1.784-.52-1.9s1.189-1.893,2.007-2.154a.7.7,0,0,0,.522-.539,4.177,4.177,0,0,1-1.524-.725C815.709-282.958,814.518-283.107,813.926-283.181Z" transform="translate(-695.916 432.621)" fill="#b6caef"/>
    <path id="Path_210" data-name="Path 210" d="M781.694-313.256A1.383,1.383,0,0,1,781.62-315a2.088,2.088,0,0,0,.261-2.155c-.371-.372-1.711,0-1.821,1s-1.188.558-1.485.781.593.669.111,1.114-.668-.668-1.449-.742-.854,1.188-1.262,1.82-.15,1.967,0,2.858,1.226,1.45.965,2.194c-.12.347.124.733.383,1.111a10.112,10.112,0,0,1,2.294.225,2.672,2.672,0,0,0,.929-.021c-.326-.535-1.059-.965-1-1.353.075-.522.781-.187,1.3.259s1.671.52,1.783-.036c.068-.344-.187-1.932-.891-1.56s-.891.223-1.153-.149.521-.966.707-1.561,1.409-.372,1.6-.853S782.065-313.069,781.694-313.256Zm5.609,2.266c-.3-.183-.52.519-.854.6s-.706-1.41-.855-.6-.891-.332-1.633.706.446,1.969.965,2.3-.037.817-.706.67-.259.965.668,1.111,1.932-1.633,1.82-2.079S787.656-310.768,787.3-310.99Z" transform="translate(-704.619 421.24)" fill="#b6caef"/>
    <path id="Path_229" data-name="Path 229" d="M806.453-292.343a1.833,1.833,0,0,1-.591-.36,4.266,4.266,0,0,1-1.578-.566,7.48,7.48,0,0,0-2.323-.746c-.25-.083-1.827,1.493-2.324,1.493s-2.655.248-2.655.83-2.655.662-3.4,0a2.506,2.506,0,0,1-.34-.4.93.93,0,0,0-.335.666c0,.757-.583.7-1.1.639s0,.639-.291.989,0,1.047-.407,1.1c-.218.032-.334.28-.406.591a4.028,4.028,0,0,1,.6.939l-.057.051a9.4,9.4,0,0,1,2.088,1.559,2.9,2.9,0,0,0,2.574.58c.663-.167,3.484-1.079,3.484-1.079a9.127,9.127,0,0,0,1.08.334c.1.017.363.061.707.115a10.088,10.088,0,0,0,1.49-1.058c.779-.778,1.951-3.565,2.284-3.788s1.226-.725,1.672-1.058S806.954-292.175,806.453-292.343Z" transform="translate(-699.625 429.021)" fill="#b6caef"/>
    <path id="Path_230" data-name="Path 230" d="M799.919-274.4h0a.307.307,0,0,1,.1-.041l.02-.007a1.212,1.212,0,0,1,.143-.021l.02,0c.216-.016.506-.005.8-.012a.451.451,0,0,1,.061,0c.065,0,.132-.007.2-.013l.077-.007c.088-.012.173-.025.254-.044.668-.167.835-.891,1.169-.726s2.118-.742,2.34-1.075a.268.268,0,0,0,.048-.115c.035-.26-.444-.41-.494-.7-.056-.334-1.225-1.448-1.393-1.616a.289.289,0,0,1-.055-.172l0-.02a1.658,1.658,0,0,1,.011-.273c-1.744.252-4.33.793-4.33.793s-.061-.047-.147-.108a5.63,5.63,0,0,0-.271,2.61C798.635-275.369,799.165-274.962,799.919-274.4Z" transform="translate(-697.049 433.961)" fill="#b6caef"/>
    <path id="Path_231" data-name="Path 231" d="M774.847-302.978c-.6.891-1.412.965-1.264,1.188s1.041.965.818,1.337-.52.149-.52.818-1.039.669-1.413.669.076.667-.147,1.189a10.13,10.13,0,0,0-.3,2.005c-.073.447.743,1.189.667,1.561s-.667.669-.518.965a3.68,3.68,0,0,1,.8,2.082,1.1,1.1,0,0,1,.559.3,1.977,1.977,0,0,0,1.616.778c.725,0,1,.5,1.337.447s1.226.223.5.835a3.28,3.28,0,0,0-1,2.062c-.108.47-.1,1.12-.218,1.521a5.65,5.65,0,0,0,2.131-.073,1.952,1.952,0,0,1,1.709-.073,9.883,9.883,0,0,1,1.449.634c.045-.151.127-.264.278-.282.5-.056,1.114.949,1.449.39a1.136,1.136,0,0,1,1.5-.223,1.184,1.184,0,0,0,1.449-.109,3.962,3.962,0,0,1,2.563-.5c.39.167,1.393.612,1-.725s.837-1.057,1-1.56,1.616-.725,1.393-1.116a17.938,17.938,0,0,0-2.619-1.948c-.556-.391-.556-1.616-.835-2.119s-.891-1.17-.167-1.336a6.549,6.549,0,0,0,2.618-1c.613-.556,1.728-.614,2.062-.947s1.114.279,1.338-.055a1.272,1.272,0,0,0,.056-1.394,3.384,3.384,0,0,1-.614-2c-.055-.949-.335-.891-.335-1.338a1.436,1.436,0,0,0-.556-1.226c-.39-.223-.558-.388-.168-1a4.224,4.224,0,0,0,.056-2.619.658.658,0,0,1-.012-.3.4.4,0,0,1-.211-.307c-.112-.6-.518-.819-1.485-.819s.6-.965.223-1.448-1.337.893-2.228.594-2.043,1.041-2.823,1.636-1.893-.112-1.3-.967,0-.779-.891-.446-1.969-.073-1.859-.891a.851.851,0,0,0-.147-.578,2.672,2.672,0,0,1-.929.021,10.112,10.112,0,0,0-2.294-.225c.3.432.615.855.435,1.19-.334.633.187,1.228.67,2.155s-1.04.41-1.078,1-1.41-.036-1.856-.259-1.933-.076-1.895.3a1.274,1.274,0,0,1-.073.526A2.431,2.431,0,0,1,774.847-302.978Z" transform="translate(-705.869 423.816)" fill="#b6caef"/>
    <path id="Path_235" data-name="Path 235" d="M769.8-299.034a1.257,1.257,0,0,1,1.7.228c.455.452,1.137.567,1.817,1.248a5.791,5.791,0,0,0,.548.475,8.927,8.927,0,0,1,.288-1.925c.223-.522-.223-1.189.147-1.189s1.413,0,1.413-.669.3-.446.52-.818-.669-1.114-.818-1.337.669-.3,1.264-1.188a2.431,2.431,0,0,0-.073-1.7c-.1.264-.3.455-.634.256-.556-.336-1.41-.149-2.525.073s-1.448,1.3-1.041,1.747-1.077.668-1.187.073-1.226-.187-1.153.6-1.226,1.075-1.152,2.043-1.189,1.856-2.005,2.339c-.127.076-.259.154-.391.23a3.009,3.009,0,0,0,.893.318A4.3,4.3,0,0,0,769.8-299.034Z" transform="translate(-707.705 425.045)" fill="#b6caef"/>
    <path id="Path_244" data-name="Path 244" d="M825.668-304.958c-.446-.112-.723-1.114-1.448-1.393s-.558-1.172-1.172-1.56-.223-1.17-.277-1.784.111-1.56-.223-1.728-1.728-.946-2.34-.669-1.058.5-1.337,0a1.044,1.044,0,0,0-1.282-.614,1.364,1.364,0,0,1-1.337-.388.529.529,0,0,1-.127-.185,1.938,1.938,0,0,0-.782.316c-.372.3-.446.893-.966.893s-1.115-.223-1.708.223a1.378,1.378,0,0,0-.668,1.334c.073.372.147.967-.3.967s-.37.52-.815.668a2.474,2.474,0,0,0-1.265,1.189c-.073.37-.073,1.188-.371,1.188a2.835,2.835,0,0,0-1.635.52,1.2,1.2,0,0,1-1.262.6,12.721,12.721,0,0,0-1.84-.132.459.459,0,0,1-.019.223,1.723,1.723,0,0,0,.391,1.9c.446.388.612,1.949.111,2.172s-1.449.891-1.449,1.282,1,.723.837,1.282a4.084,4.084,0,0,0-.043,1.378,1.555,1.555,0,0,0,1.344-.3c.446-.446.668-.967,1.635-.967s3.863,0,4.308.522,1.633.072,2.3.371,1.637.592,1.709.223.966.522,1.635.149,1.262.742,1.636.519a3.093,3.093,0,0,1,2.3.149c.372.372.447-.372.447-.818s1.486-1.635,1.486-1.635a5.709,5.709,0,0,0,1.615-.324,3.145,3.145,0,0,1-.372-1.05c-.278-1.226-.723-1.951-.39-2.342s1.282.5,1.784.28,1.393-.669,1.281-1.172A2.419,2.419,0,0,0,825.668-304.958Z" transform="translate(-695.326 422.582)" fill="#b6caef"/>
    <path id="Path_251" data-name="Path 251" d="M765.588-299.164c.056.388.67,1.337.893.947s.779.5,1.281.778,1.5.614,1.56.947.223,1.059.725.837,1.114-1,1.114-.556.167,1.28.724,1.17.725.946,1.281.837a2.462,2.462,0,0,1,.4-.04,2.067,2.067,0,0,1,.878-2.132c.116-.22.448-.452.5-.726.076-.372-.74-1.114-.667-1.561a.728.728,0,0,0,.009-.08,5.791,5.791,0,0,1-.548-.475c-.681-.681-1.362-.8-1.817-1.248a1.257,1.257,0,0,0-1.7-.228,4.3,4.3,0,0,1-2.386.8,3.008,3.008,0,0,1-.893-.318,5.847,5.847,0,0,1-1.677.719C765.377-299.343,765.552-299.426,765.588-299.164Z" transform="translate(-708.125 426.707)" fill="#b6caef"/>
    <path id="Path_253" data-name="Path 253" d="M793.031-262.687c-1.524.336-2.154.446-3.046,0s-2.334.407-2.116,1c.148.408.743.929,2.6,1.41s2.082,1.747,2.861,1.784.855-.706.669-1.709.929-2.154,1.041-2.34S794.555-263.019,793.031-262.687Zm-14.375-8.43c-.817.7-1.49-.124-1.82.446-.41.7,1.262,1.783.929,3.23s.186,3.27,1.039,2.415,1.264-.446,1.747-1.078.075-2.97.41-4.086S779.473-271.823,778.657-271.117Zm18.2-1.189c-.967-.6-.335-1.56-1.859-1.486s-3.343-1.82-3.9-4.012-2.934-2.3-3.529-3.6.558-1.448.039-2.526c-.29-.6.354-1.129,1.107-1.429a22.078,22.078,0,0,1,.133-3.333,4.233,4.233,0,0,1-1.28-.252c-.279-.168-.334-1.059-.5-1.059s-1.727,0-2.005.28-1.114.779-1.56.5c-.1-.06-.2-.12-.312-.175l-.486.452s-.075.6-.372.6-.742-.223-.742.3-.818.372-1.189.3-.891.076-.891.522-.075,1.412-.67.891-1.189-1.859-1.412-1.709-.742,1.784-1.262,1.784c-.322,0-1.381.084-2.143.149-.2.643.013,1.025.286,1.188s-.167.834-.5,1-.891,0-.5.614,1.114.669.725,1.282a.757.757,0,0,0,.558,1.225c.556.055,1.337-.056,1.169.39a3.785,3.785,0,0,0-.28.851,6.148,6.148,0,0,0,1.21-.35c.781-.41.446-1.114,1.745-1.486a3.833,3.833,0,0,1,3.529,1.486c.52.779.668.854.781,1.486a4.816,4.816,0,0,0,2.376,3.045c1.783,1.152,2.49,2.453,3.419,2.934s1.857.372,2.415,1.041a5.757,5.757,0,0,0,2.19,1.448c.891.41.93,1.374,1.783,1.485s.3.855.818,1.486a2.474,2.474,0,0,1,.112,2.711c-.558.745-.261,2.007.111,2.007s1.152-1.337,1.264-2.08.854-.7,1.449-1.486-.893-.965-1.151-1.969,1.114-1.893,2.412-1.075,1.823,1.374,1.895.111S797.824-271.712,796.86-272.306Z" transform="translate(-705.482 430.363)" fill="#b6caef"/>
    <path id="Path_256" data-name="Path 256" d="M795.754-281.325a4.375,4.375,0,0,0-.961,1.863,2.579,2.579,0,0,1-.105.782,13.758,13.758,0,0,0,1.776,1.317c.047.025.087.048.133.071a2.47,2.47,0,0,1,1.127-1.779C797.148-279.777,796.3-280.777,795.754-281.325Z" transform="translate(-698.289 433.266)" fill="#b6caef"/>
    <path id="Path_257" data-name="Path 257" d="M804.374-279.685a1.135,1.135,0,0,1,0-1.728c.5-.334.055-.779.055-1.337s-2.4-.725-2.786-.835.279-1.56-.332-1.56a.8.8,0,0,1-.837-.891c0-.446-.947-1.17-.891-1.45a.234.234,0,0,1,.069-.112c-.344-.053-.61-.1-.707-.115a9.125,9.125,0,0,1-1.08-.334s-1.544.5-2.618.827c.072.655.244,1.365.655,1.518.8.3.5,1.1.8,1.8s.2,3.895-.2,3.895c-.171,0-.556.416-.935.931.547.548,1.394,1.548,1.971,2.254a.34.34,0,0,1,.079-.02,9.569,9.569,0,0,1,2.323,1.328s2.586-.538,4.33-.79a3.678,3.678,0,0,0,.048-.761,1,1,0,0,1,.837-1C805.655-278.069,804.932-279.184,804.374-279.685Z" transform="translate(-698.102 431.02)" fill="#b6caef"/>
    <path id="Path_211" data-name="Path 211" d="M832.725-340.33c-.15.559-1.151.446-1.114-.109s-1.56-1-1.636-1.265.668-.223,1.265.112,1,.112,1.672-.52,1.6-.111,1.707-.669-1.077-.929-1.3-1.262a2.131,2.131,0,0,0-1.895-.631c-.818.147-.853-.187-1.337-.632s-1.968.3-1.968,1.337-.93.782-.6.223-.446-1.225.3-1.41.335-1.3-1.038-1.412-1.9,1.039-1.561,1.412-.93,1.97-1.486,1.97.073-1.376.037-2.119-.556-.334-1.6.855-1.82,2.266-2.415,2.376-.52-1.077.446-1.6,1-1.931,1.633-1.931.634-.743-.295-.966-1.078.817-1.376,1.114-1.82-.52-1.783-.223-.817.408-.446.966-.184,1.039-.558.371-1.3-.148-1.744.594-1.042.706-.6.966a.858.858,0,0,1-.26,1.449c-.667.185-.408-1.82-.927-1.633s-.185-.967.519-.967a1.692,1.692,0,0,0,1.337-1.3c-.123-.435-.891-.335-.891.223s-1.116.446-2.042.408-.893,1.077.148,1.672-.186.966-.706.52a1.833,1.833,0,0,0-1.895.036c-.558.26,1.337.929,1.412,1.265s-.966-.41-1.189-.149-1.262-.187-1.336-.818-1.747.26-.819.483.6.817.6,1.635-1.077.187-.854-.52-.669-.556-1.412-.111.112-.818-.185-1.449-.967,0-1.747.148-1.187.185-.706.707.41,1.262-.223,1.149-.891,0-.818.6-.817.631-.891.112-1.337-.372-1.708.223-1.413,1.038-1.3,1.708.927-.334,1.6-.111-.039.556.335.891.295,1.15-.223.669-1.19-.631-1.3.147-.669-.109-1.114-.669-.891,1.041-1.374.669.965-1.521.592-2.079-.631.334-1.484,1.188-2.007.818-1.6,1.226-.855.634-1.078,1.337-1.969.967-3.084,1.709.223.781.855.075.854-.3,1.859-.929,2.079-1.153,2.451-.891a1,1,0,0,0,1.485-.222.96.96,0,0,1,1.56-.113c.483.41-.817.743-.223,1.338s-.7.927-.7.408-.745-.966-1-.483-.707,1-1.189,1.039-1,.93-1,1.82-.855,0-.927.782-1.264,2.152-2.3,3.156-.075,1.226-.41,1.857-1.56.073-1.967.335.223,1.819-.335,2.3,0,1.151,0,1.708-1.449-.334-1.558.223-1.377.41-1.747.559.742,1.038,1.41,1.559-.631.929-.779.335-1.077.371-2.228.891-.668,1.56-1.561,1.6-.631,1.448-1.225,1.893-.446-1.038-1.376-1.077-.855.631-.3,1.412-.854.187-1.374.855-2.005.334-2.415.891,1.114.556,1.337,1-1.337.223-2.154.037-.594,1.041-1.337.891-1.672.632-1.151,1.152-.408.6-.929.259-.965.483-1.151,1.116,1,.967.966,1.264-.966.779-.3.929.187.742-.259.927-.447.632,0,1.189-.781.668-.187,1.524,1.039-.223,1.3.408.965.073,1.783-.669,1.115.815.446.782-1.448.37-1.3,1.038-1.041.556-1-.26-1.374.148-.855.743-.184.927-.184,1.486,1,.446,1.41-.187a.713.713,0,0,1,1.337.149c.261.63-.63.148-.63,1s-.558.111-1.042.779,1.895,1.9,2.638,2.08,1.449,1,2.934.781,4.308-2.972,4.681-3.453,1.189.073,1.745-.372.224-1.6.632-1.82.63,1.228,1,1.374c.339.135.58.4.6,1.137a1.11,1.11,0,0,1,.786.113c.479.358.6-1.193.6-1.671s.478-1.432.358-2.03,1.434-.12,1.673-.6.356-2.148-.121-2.387-.6-1.193-.119-1.193,1.073-.359.955-1.313-1.552-.835-1.671-1.789.715-1.2.119-2.388.239-1.909,0-2.506a2.447,2.447,0,0,1,.239-2.506,3.187,3.187,0,0,1,2.5-1.672c.479.121,1.314.6,1.672-.117s.358-1.314,0-1.433-1.313-.36-.6-1.313a7.618,7.618,0,0,0,1.671-3.222c.119-1.074-.239-1.909.119-2.268s1.194,0,1.911-.476.12-1.074.476-1.433.837-1.551,1.314-1.909.953-.834.6-1.312.715-.957.715-1.793,1.193-1.429,1.909-1.429,1.911,0,1.911-.717-.479-2.268.6-1.792,1.911-.117,2.626.478,1.672.478,1.672-.478.358-2.506,1.433-1.908c.084.047.161.1.241.152a1.778,1.778,0,0,1,1.667-1.225c.955.117,1.552,1.789,2.746,2.027s2.387.717,2.743.119,1.2.359,1.911.12.715,1.313,1.433.358-.12-1.55,1.074-1.432.478-1.314.478-2.148,1.551-.954,1.551-1.671,2.148-.119,2.506-.6,1.552-.835,2.031,0,2.506,1.075,2.625,1.791a10.607,10.607,0,0,1,0,1.4,1.746,1.746,0,0,1,1.156-.572c.74,0,1.409-1.116,2.079-.966.556.123,1.108.028,1.277-.9C834-340.786,832.861-340.835,832.725-340.33ZM787.8-387.95c1.058.223-1.114,1.393-1.449,2.452s1.672,2.006,2.507,2.786a3.723,3.723,0,0,0,3.565.223c.725-.446.5-2.005,1.449-1.951s.446-.835,1.226-1.114.891.725.223,1.505,1.17.723,2.172-.223,1.226-.056,1,.835-2.284.39-3.007,1.393-2.953.223-3.958,1.337.891,1.17,2.284.891a17.436,17.436,0,0,1,5.016-.223c1,.223-.612.558-2.284.558s-2.229.5-2.172.947-2.342-.5-2.453.5,2.23,1.394,2.507,2.007,1.839.055,2.453.278-1,.67-1.226.947,1.727.668,2.06,1.226,1.728.279,1.672-.5c-.068-.97,1.226-3.9,2.9-4.513s.724-1.17.947-2.118,1.56-.167,1.169-.947-.167-1.114.893-2.118,1.728-.278,3.009-.891,1.895.446.5.558c-1.221.1-.612,1.5.39,1.895s.112.724.891.891.559,1.337-.446,2.4.279,1.282,2.4.5.781.669,1.393,1.282,2.284-.446,3.176-1.505,2.226-.883,2.174-1.448c-.056-.614-1-.781-1.783-.446s-2.73.111-2.061-.5.556-1.115-.446-1-2.786-.391-1.951-.725-.612-1.449-1.393-1.393-.556-.835-.5-1.449-2.23-.891-1.784-1.114-.946-.725-1.282-.279a.537.537,0,0,1-1-.334c0-.669-1.672-.5-2.342-.446s-.334-1.449-1-1.951-1.561,1-2.062.893.39-1.115.669-1.784-2.34-1.56-2.619-.891-.779-1-1.338-1.17-.109,1.114-.613,1.226-1.169.612-.334,1.17,1.672,3.342,1.56,3.788-2.674-2.005-2.785-3.176-1.394-2.118-1.728-1.281-1.281,1.17-1,2.005-.667,1.114-.667.446-1.394-1.449-1.9-1.5,1.282-.391,2.119-.781-.726-.947-1.45-.5-1.671-.279-2.116.335-1,0-1.784-.168-1.448,1.115-2.005.891-.891,1.116,0,2.507S786.737-388.173,787.8-387.95Zm-2.284,4.514c.669.167,1.17,1.281,1.783,1.226.278-.025-.947-1.393-1.672-2.174s-.668-1.56-1.671-1.281S784.842-383.6,785.512-383.436Zm17.719-9.027c.5.391-.826.4-.279.947,1.671,1.672,8.246-.223,9.138.279s-5.515,1.114-5.237,1.783,5.516,1.226,5.906.781,1.282.891,3.009,1,1.56-.668,2.842-.723,3.176-.669,3.23-1.393,3.79-1.617,3.455-2.842-3.955-.39-4.957-.891-3.344-1.17-3.735-.39-1.058,1-1.392.669.167-2.118-1.449-1.616-.112,2.228-.446,2.451-1.895-.334-2.005-1.114-1.84.835-2.063-.112-2.284-1.616-2.73-1.56.446.669.167,1.114-1.392-.446-1.839-.5.28.947.057,1.393-1.116-1.337-1.895-1.337-.5.891-1.059.947S802.729-392.853,803.231-392.463Z" transform="translate(-706.543 395.195)" fill="#b6caef"/>
    <path id="Path_245" data-name="Path 245" d="M812.775-339.038c-.358-.359-1.073-1.313-.478-1.313s.835-1.789.12-2.148,0-1.909-.6-2.268-.238-1.55-.117-2.387-2.27-1.552-3.583-2.147-1.908-1.553-2.982-2.148-1.433.954-1.433,1.908-.955,1.074-1.672.478-1.552,0-2.626-.478-.6,1.074-.6,1.792-1.194.717-1.911.717-1.909.6-1.909,1.429-1.074,1.314-.715,1.793-.121.954-.6,1.312-.955,1.552-1.314,1.909.239.957-.476,1.433-1.552.119-1.911.476,0,1.194-.119,2.268a7.618,7.618,0,0,1-1.671,3.222c-.717.953.239,1.193.6,1.313s.359.715,0,1.433-1.193.239-1.672.117a3.187,3.187,0,0,0-2.5,1.672,2.447,2.447,0,0,0-.239,2.506c.239.6-.6,1.314,0,2.506s-.239,1.432-.119,2.388,1.55.834,1.671,1.789-.478,1.313-.955,1.313-.358.955.119,1.193.359,1.911.121,2.387-1.792,0-1.673.6-.358,1.551-.358,2.03-.117,2.028-.6,1.671a1.11,1.11,0,0,0-.786-.113c0,.076,0,.152,0,.236a3.039,3.039,0,0,0,1.114,2.529c.817.669.186,1.671.891,2.6s.482,1.6,1.262,2.266.855,1.041.52,1.893.668.632.7,1.154-.22,1.595.04,2.116.778,0,1.969-.037.891-.781.927-1.486.632-.37.779-.817,1.226-.558,2.082-.188,1.3-.258,1.448-1.149.63.184.893.37,1.038-1.373,1.41-2.375-.036-.818-.891.147-.372-.965-.037-1.744a22.553,22.553,0,0,0,.41-3.567,1.719,1.719,0,0,1,1.41-1.524c1.078-.223,2.49-1.56,2.267-2.116s1.485-1.486,1.485-2.043-1.784-2.266-2.378-2.638-1.893-.073-1.783-.483a12.4,12.4,0,0,0-.3-2.825c-.148-.818.927-1.671.927-2.451s-.036-1.671.668-1.931.26-.929,1.189-1.152.743-1.56,1.747-1.969,1.076-.742,2.376-1.373,3.491-2.118,3.864-2.9-1.337-1.6-.261-2.412.187-1.747.966-2.044a4.008,4.008,0,0,0,1.636-1.3c.556-.6,1.3-.037,2.635-.26a3.334,3.334,0,0,1,1.36.06A2.468,2.468,0,0,0,812.775-339.038Zm-12.557,32.676c-1.412.037-2.071,2.815-1.709,3.268C798.806-302.721,801.628-306.4,800.218-306.361Z" transform="translate(-702.602 409.777)" fill="#b6caef"/>
    <path id="Path_281" data-name="Path 281" d="M745.639-338.662c1.482-.093,1.424-1.729,2.032-1.661s1.583-1.162,1.955-1.927c1.069-2.215-3.276-1.913-2.782-3.35.183-.534-.512-1.209-.478-1.591s-1.141-.023-1.749.137c-.708.187-1.406-1.029-2.1-1.05-1.133-.035-.171,1.36-.666,1.466-.651.14-2.211.591-2.546.184-.463-.564-1.525-.208-1.48.248s-.455.083-1.337-.439-1.78.632-1.7,1.2-.3.726-1.034-.519-1.558.135-1.169.814.248,1.518-.327,1.182-1.328.246-1.663.785-1.58-1.54-.711-2.046-4.294-3.569-4.525-2.29a2.11,2.11,0,0,0,.974,1.194c.769.6-.527.463-.951-.065s-1.22-.1-1.665.67-1.2,1.194-1.27,1.728,1.306,1.086,2.478.575,2.5-.6,3.12-.04-1.093.814-.479,1.262.124.834-1.32.741-3.192.344-2.92.835,3.683-.464,3.728.028.017,1.332.926.939.311.681.77.865.356,1.1-.858,1.19-1.807.344-1.284.853c.656.639,1.981.165,3.269-.155s3.173,1.213,4.7,1.8,4.14-.283,4.435-1.086,2.352-.524,3.181-1.1A6.688,6.688,0,0,1,745.639-338.662Z" transform="translate(-722.443 410.938)" fill="#b6caef"/>
  </g>
</svg>
