<svg xmlns="http://www.w3.org/2000/svg" width="262.186" height="176.901" viewBox="0 0 262.186 176.901">
  <path id="usa" d="M541.592-296.777c.886-2.4-3.237-2.6-4.513-3.809-2.07-1.956-2.93-4.99-4.946-7.112-4.148-4.365-4.461-4.671-9.113-1.617-.83.543-1.221-.29-1.993-1.268-.659-.834-3.453-4.278-4.386-3.822-1.285.624-1.977.025-2.352.487s-1.372-.262-1.372-.262l-.511-39.427a5.072,5.072,0,0,1-1.182-.229c-1.663-.606-4.131-1.715-5.439-1.413s-3.928.679-4.846.235a6.419,6.419,0,0,0-4.058-.519c-1.879.311-3.094-.986-5.5-1.526a14.67,14.67,0,0,0-6.553.542c-.8.3-.639-.847-1.664-.721s-.235-.454-.817-1.3-3.423-.013-4.449.113-1.318-.5-1.268-1.01-.917-.331-1.308.359a1.416,1.416,0,0,1-1.992.368c-.462-.451.962-.639,1.011-1.154s-1.493-.779-2.066-.943-1.476.59-2.659,1.689-2.954,1.009-4.039.907-2.451.148-2.386.773,1.376.554.587,1.362-1.1-1.07-1.885-.2-3.184.841-3.756.733-2.427,1.973-2.99,2.55.471,1.079-1.049,2.753c-1.472,1.623-3.564.73-5.287,1.4-1.912.747-.7-.039-1.863,1.6-.448.632.53,1.192,2.875,1.788s3.984,3.657,4.279,4.4,3.193-.1,4.337.056-.091,1.771.885,2.215,2.45-.26,2.746.534-1.94.025-3.069.9-1.7,1.277-2.16.655-2.342-.2-3.31-.071-.072-1.2-.023-1.768-1.324-.954-3.193.156-1.189.7-1.406,1.557-1.033-.5-2.22.258-3.121,1.3-3.455,2.042,2.583,1.224,3.727,1.436-1.356.987-.439,1.261.527,1.134,1.964,1.856c1.172.591,5.484.6,6.706.3,1.32-.315,4.187-3.082,5.655-1.776-.3-.268-.188,5.046-.39,5.2-1.244.929-2.45.316-3.134.27s-.27,1.257-1.342,2.127c-1.776,1.442-4.657-3.266-4.255,1.767.068.855-2.056-.143-2.543,1.917s-2.677.319-1.225,2.3,1.208.727,2.359,1.51-1.226,2.242-.083,2.455,2.426,2.251,3.233,2.981,1.821-.423,3.018-.5.606-1.721,1.3-1.1,1.687,2.431,1.065,2.9-.089,1.883-.195,2.569,2.63.423,2.791-.379,2.324-1.057,3.54.242a2.2,2.2,0,0,0,1.464,1.108c-.191.132,1.106-3.2,1.206-1.943.068.855,1.042,1.071,2.8.248s.97.047.072,1.2c-1.24,1.591.051,3.878-.859,4.116s-1.621,2.589-3.1,2.779-3.955,3.018-4.291,3.48-3.549-.867-3.988.451-2.358,2.32-1.845,2.819c.346.338,2.953-1.007,3.058-1.693s.45-.578.913-.071,1.593-.25,2.1-.713,1.365-.3,1.879-.252.734-.635,2.27-.942,1.189-.757,1.521-1.559a57.4,57.4,0,0,1,5.651-4.126c.741-.067,1.871-.994,2.83-1.8s1.192-.472,1.929-.769.148-1.769.889-1.893c3.5-.579-.644-2.042-.773-2.33-.176-.4,1.458-1.9,2.087-1.852a1.8,1.8,0,0,0,1.692-1.561c.045-.914.955-1.1,1.687-1.907s.551-1.489,1.292-1.556,1.412-1.1,2.206-1.569.007.571,1.548.607,1.217,1.468.069.969-1.66-.435-2.674.548-.212,1.258-1,2.351-.833,1.78.2,1.883.067.853-.9,1.15c-1.449.45,1.162.73,1.581.682,1.589-.182,3.11-1.983,4.5-2.7,1.813-.937,3.194-.041,3.705-.22s-.583-1.018.04-1.31c-1.336.631-.339-2.725-.322-2.791.218-.859.849-.527,1.425-.135s1.364-.418,1.892.66,1.08-.3,2,.431-.163.63-1.13.871-.435,1.544.3.909c1.521-1.324,2.359.582,3.585-.675-.354.364,3.049,1.313,3.5,1.381a27.7,27.7,0,0,0,5.588-.244c.8-.067.528,1.193,2.3,1.512s2.2-1.8,3.124-1.066.013,1.025-.492,1.6.578.618,1.266.894a9.916,9.916,0,0,1,3.042,1.445,8.981,8.981,0,0,0,3.056,2.413c1.539.745.42-1.026.938-1.442.235-.188,2.323.987,2.6,1.228,1.154,1.01.735-.467.2-2.172s.506-.576,1.029.215a4.521,4.521,0,0,1,.215,3.364c-.328,1.03-2.051.2-1.887-.375s-1.716-.319-1.763.479a3.342,3.342,0,0,0,2.143,2.483c.915.16.248,1.595.822,1.759.786.226.763,1.7,1.217,1.466s.259-2-.264-2.791-.311-1.935.376-1.716.019,1.425.367,1.819.737-.407,1.528-.874-.364-1.765-.088-2.453,1.2.555,1.563,1.748c.468,1.56-1.6,1.82-2.25,2.482-.338.348-.136,2.627.32,2.678s.716-1.892,1.015-.926,1.353-1.272,1.649-.363,1.68,1.917,2.19,1.683-.244-1.194-1.042-1.241-.7-1.36.039-1.428,2.078,1.855,2.03,2.541-.677.636-1.3,1.329-1.5-1.121-2.239-1.055.016,1.2.368,1.993-.887,1.893.089,2.51.681-.41.846-.869.913.1,1.432.5c.6.456.246-3.363,1.871-.994.464.679.5-.747,1.189-.642-.542-.081,1.188,2.965,1.338,1.979a1.054,1.054,0,0,0,0,.29c.627-.463,1.277-.934,1.739-1.262C543.36-295.279,541.224-295.784,541.592-296.777Zm-96.146,9.348c1.361-.59,1.923-1.281,1.344-1.959S444.4-286.977,445.446-287.428Zm9.631-5.259c-1.261-.44-4.538,1.607-3.4,1.755C452.287-290.852,456.186-292.3,455.077-292.687Zm28.747-13.781c.049-.628-.863-.56-1.987.767s-2.084,2.024-2.248,2.653-1.484-.093-1.872.709.315,2.566,1.109,1.984c1.449-1.066,3.3-.211,4.7-2.457.5-.807-.926-1.017-.99-1.529s1.192-.528,1.815-.879S483.774-305.841,483.824-306.468ZM447.4-312.727c-.127-.911-2.569-.025-2.272.827s2.619,1.38,3.608,1.038a1.033,1.033,0,0,0,.49-1.776C448.592-313.2,447.526-311.816,447.4-312.727Zm29.429,125.59c-1.425.185-.591,3.743.167,3.144.539-.426,1.545-.52,1.832-1.07C479.211-185.8,478.253-187.323,476.829-187.137Zm-1.916-2.156c-.838.136-.273,1.66.268,1.256C476.1-188.721,475.751-189.43,474.913-189.294Zm-8.931-2.778c.765.785,1.306.568,1.508-.147S465.162-192.915,465.983-192.072Zm4.05,1.668c.555.83,1.144.989,1.6.231S469.381-191.378,470.032-190.4Zm233.1-79.407c-.087-.762-2.36-.123-3.436-.946s-2.853,3-3.212,4.606-3.152,3.387-3.152,3.387c-4.954.112-8.446-.66-12.229,2.837a1.131,1.131,0,0,1,.1.137c.842,1.472-2.136,2.423-4.988,2.574a19.184,19.184,0,0,0-2.043.224,2.939,2.939,0,0,1,.157,1.018c-.017.18-.322.41-.754.646-.426.89-3.9,2.643-5.846,3.7-1.5.814-3.926,1.081-4.893-.547-.783-1.317,1.022-2.6,1.676-1.121.132.3.515.077,1.031-.308a2.238,2.238,0,0,1-.442-2.011c-.659-.276.327-2.845-1-3.269-1.374-.439-2.941,1.979-2.731.491s2.246-2.765.966-4.69-3.563-1.892-4-.4-2.043.827-2.6,1.975a9.356,9.356,0,0,0-.612,5.484c.479,1.82-.079,2.739-1.777,3.789s-2.627-1.534-2-4.882c.67-3.588-.2-6.67,4.349-7.814,1.965-.5,3.87-.774,5.636-1.393a16.759,16.759,0,0,0-1.48-1,.757.757,0,0,1-.3.4c-.484.348-1.9-.965-2.408-1-1.593-.095-3.165,1.757-4.781.975-1.328-.643-2.569-3.117-2.89-2.93-1.812,1.051-4.518,3.6-5.787,2.471-1.188-1.05-3.641.682-3.117-1.46.32-1.308,3.776-2.494,4.892-2.442a1.934,1.934,0,0,0,1.314-.526c-1.026-.363-3.14-1.157-3.684-.471-.674.846-1.671.327-2.212-.351s-1.213.244-2.139-.81-1.829-.28-2.36-.044-1.221-.366-2.215-.734-.246-1.364-1.09-1.963-.87,1.162-.87,1.162l-70.894,1.3a2.324,2.324,0,0,0,.256.33c.867.9.192,1.594.491,2.675.979,3.531-2.184,1.924-1.125,1.325,1.181-.66-.885-1.771-.871-2.518a10.9,10.9,0,0,1-4.064.041.708.708,0,0,1,.057.2,7.225,7.225,0,0,0,1.357,3.407c.927,1.185.31,1.935,1.172,2.379s.811.959.011.857c-.77-.1-.661,7.718-.8,8.681-.156,1.087-1.389,2.873-.632,4a5.346,5.346,0,0,1,.91,4.152,3.8,3.8,0,0,0,.328,3.361c.642,1.077.153,2.965.843,3.356a6.37,6.37,0,0,1,1.968,2.2c.641,1.021,1.2.384,1.33,1.412s.129,1.2,1.047,1.581a41.04,41.04,0,0,0,3.088,4.869c1.262,1.087.882,1.648,2.143,2.567a12.287,12.287,0,0,0,4.585,1.51,5.072,5.072,0,0,1,2.432,2.821,9.525,9.525,0,0,0,.6,1.613l5.906-.851a12.254,12.254,0,0,0,2.884,1.488c1.039.228,6.672,2.228,6.672,2.228l7.312-.156.839-1.109,4.022-.052a33.118,33.118,0,0,0,2.96,2.582c1.807.591,1.169,2.93,2.606,3.623.615.3,2.7,1.613,3.006,1.486s.883-2.45,1.98-2.4,4.1.863,4.6,2.562a7.662,7.662,0,0,0,2.482,3.441c.492.36.263,1.4.635,1.943.981,1.428,2.126,2.973,4.365,2.809a2.1,2.1,0,0,1,1.076.387c.091-2.039-2.009-2.355-.787-3.31,1.412-1.1-.083-1.995.6-2.459,1.2-.821,1.907-2.378,3.395-2.214,2.23.252,1.839-3.045,3.731-2.673-.085-.016,2.962-1.608,2.9-.95.051-.514.737-.41,1.258.268s2.007.83,2.111.029.97-.013,1.723.778,1.09.555,2.175.6,1.081-.242,1.129-.927,1.218,1.466,2.3,1.568.219-.687-.588-1.3.16-.915-.531-1.42.839-1.21,2.21-1.169,1.317.38,1.82-.424c-.224.359,6.564.2,6.872,1.909.123.683.926,1.014,1.772.262s1.576-1.619,2.386-.831,1.621,1.864,2.6,2.821-.428,2.172.095,2.907-.035,1.769,1.117,2.553.147,2.453,1.062,2.669,1.675,1.632,1.8,2.2,1.841,1.288,1.944.316,1-2.123,1.1-3.038a12.252,12.252,0,0,0-1.493-5.171c-.755-1.019.155-1.258-.774-2.444a8.651,8.651,0,0,1-1.49-5c.035-1.711,1.995-4.531,2.954-5.4s2.047-.427,2.264-1.342c.464-1.96,3.464-1.592,3.616-2.671.105-.742,1.234-1.669,2.714-1.917s.614-1.034.207-1.713.323-1.373.615-.921a1.353,1.353,0,0,0,1.769.089c.566-.407,1.864-1.506.608-1.549s-1.548-.548-.81-.843.092-1.656-.937-1.757-.693-.619-.073-1.253-.934-1.643-1.681-2.148.446-.8,1.014-.926.079-2.737.356-3.369,1.246-.644.855-.011-.949,1.667-.2,2.513a3.205,3.205,0,0,1,.725,3.072c-.268,1.316.3.965,1.131-.757s.929-3.208.355-3.372-.536-1.875.1-1.083.869.9,1.825-.139,1.96-2.821,1.328-3.213.275-.8,1.416-.759,3.585-.731,3.752-1.075c.406-.838-3.932.327-3.938-.064-.013-.989,3.533-1.33,4.147-1.366,1.31-.073.66-1.832,1.241-1.1a1.53,1.53,0,0,0,2.17.143c.735-.466.148-1.771-.71-1.988s.616-.807.326-1.317a2.881,2.881,0,0,1,1.617-2.817c1.284-.287,2.517-2,3.329-2.838.789-.809,1.956,1.232,3.2.073a14.6,14.6,0,0,1,1.9-1.464C702.419-266.513,703.214-269.111,703.135-269.811Z" transform="translate(-443.211 360.827)" fill="#b6caef"/>
</svg>
