<svg width="269" height="268" viewBox="0 0 269 268" fill="none" xmlns="http://www.w3.org/2000/svg">
<path fill-rule="evenodd" clip-rule="evenodd" d="M268.397 19.5371C268.397 11.2528 261.682 4.53711 253.397 4.53711H20.1992C11.9149 4.53711 5.19922 11.2529 5.19922 19.5371V252.735C5.19922 261.02 11.915 267.735 20.1992 267.735H253.397C261.682 267.735 268.397 261.02 268.397 252.735V19.5371ZM236.565 51.3691C236.565 43.0849 229.849 36.3691 221.565 36.3691H52.0321C43.7478 36.3691 37.0321 43.0849 37.0321 51.3691V220.902C37.0321 229.186 43.7478 235.902 52.0321 235.902H221.565C229.849 235.902 236.565 229.186 236.565 220.902V51.3691Z" fill="#122C65"/>
<g filter="url(#filter0_di_47_595)">
<path fill-rule="evenodd" clip-rule="evenodd" d="M136.799 4.53711H20.1992C11.9149 4.53711 5.19922 11.2529 5.19922 19.5371V166.31H37.0321V51.3691C37.0321 43.0849 43.7478 36.3691 52.0321 36.3691H136.799V4.53711Z" fill="#2368FF"/>
</g>
<path d="M95.2649 166.763V157.227H76.5769V149.611L98.0169 122.091H103.841V149.547H109.473V157.227H103.841V166.763H95.2649ZM85.1529 149.547H96.2249V135.083L85.1529 149.547ZM134.323 129.131H113.651V121.323H147.827L125.299 166.763H115.571L134.323 129.131ZM160.534 131.947C158.572 131.947 156.801 131.52 155.222 130.667C153.644 129.771 152.364 128.597 151.382 127.147C150.444 125.653 149.974 124.011 149.974 122.219C149.974 120.427 150.444 118.805 151.382 117.355C152.364 115.861 153.644 114.688 155.222 113.835C156.801 112.981 158.572 112.555 160.534 112.555C162.497 112.555 164.268 112.981 165.846 113.835C167.468 114.688 168.748 115.861 169.686 117.355C170.625 118.805 171.094 120.427 171.094 122.219C171.094 124.011 170.625 125.653 169.686 127.147C168.748 128.597 167.468 129.771 165.846 130.667C164.268 131.52 162.497 131.947 160.534 131.947ZM160.534 127.659C161.388 127.659 162.156 127.403 162.838 126.891C163.521 126.379 164.054 125.717 164.438 124.907C164.865 124.096 165.078 123.221 165.078 122.283C165.078 121.259 164.865 120.341 164.438 119.531C164.012 118.72 163.457 118.08 162.774 117.611C162.092 117.099 161.345 116.843 160.534 116.843C159.681 116.843 158.913 117.099 158.23 117.611C157.548 118.08 156.993 118.72 156.566 119.531C156.182 120.341 155.99 121.237 155.99 122.219C155.99 123.2 156.204 124.117 156.63 124.971C157.057 125.781 157.612 126.443 158.294 126.955C158.977 127.424 159.724 127.659 160.534 127.659ZM185.238 159.275C183.276 159.275 181.505 158.848 179.926 157.995C178.348 157.141 177.068 155.989 176.086 154.539C175.148 153.045 174.678 151.403 174.678 149.611C174.678 147.776 175.148 146.133 176.086 144.683C177.068 143.232 178.348 142.08 179.926 141.227C181.505 140.331 183.276 139.883 185.238 139.883C187.201 139.883 188.972 140.331 190.55 141.227C192.172 142.08 193.452 143.232 194.39 144.683C195.329 146.133 195.798 147.755 195.798 149.547C195.798 151.339 195.329 152.981 194.39 154.475C193.452 155.925 192.172 157.099 190.55 157.995C188.972 158.848 187.201 159.275 185.238 159.275ZM185.238 154.987C186.092 154.987 186.86 154.731 187.542 154.219C188.225 153.707 188.758 153.045 189.142 152.235C189.569 151.424 189.782 150.549 189.782 149.611C189.782 148.587 189.569 147.669 189.142 146.859C188.758 146.048 188.204 145.408 187.478 144.939C186.796 144.427 186.049 144.171 185.238 144.171C184.428 144.171 183.66 144.427 182.934 144.939C182.252 145.408 181.697 146.069 181.27 146.923C180.886 147.733 180.694 148.608 180.694 149.547C180.694 150.571 180.908 151.488 181.334 152.299C181.761 153.109 182.316 153.771 182.998 154.283C183.681 154.752 184.428 154.987 185.238 154.987ZM153.622 155.627L171.606 134.571L188.246 112.683L192.15 116.139L174.614 136.875L157.462 159.083L153.622 155.627Z" fill="black"/>
<defs>
<filter id="filter0_di_47_595" x="0.199219" y="0.537109" width="143.598" height="173.773" filterUnits="userSpaceOnUse" color-interpolation-filters="sRGB">
<feFlood flood-opacity="0" result="BackgroundImageFix"/>
<feColorMatrix in="SourceAlpha" type="matrix" values="0 0 0 0 0 0 0 0 0 0 0 0 0 0 0 0 0 0 127 0" result="hardAlpha"/>
<feOffset dx="1" dy="2"/>
<feGaussianBlur stdDeviation="3"/>
<feComposite in2="hardAlpha" operator="out"/>
<feColorMatrix type="matrix" values="0 0 0 0 0 0 0 0 0 0 0 0 0 0 0 0 0 0 0.25 0"/>
<feBlend mode="normal" in2="BackgroundImageFix" result="effect1_dropShadow_47_595"/>
<feBlend mode="normal" in="SourceGraphic" in2="effect1_dropShadow_47_595" result="shape"/>
<feColorMatrix in="SourceAlpha" type="matrix" values="0 0 0 0 0 0 0 0 0 0 0 0 0 0 0 0 0 0 127 0" result="hardAlpha"/>
<feOffset dy="1"/>
<feGaussianBlur stdDeviation="1.5"/>
<feComposite in2="hardAlpha" operator="arithmetic" k2="-1" k3="1"/>
<feColorMatrix type="matrix" values="0 0 0 0 1 0 0 0 0 1 0 0 0 0 1 0 0 0 0.25 0"/>
<feBlend mode="normal" in2="shape" result="effect2_innerShadow_47_595"/>
</filter>
</defs>
</svg>
