<svg width="264" height="265" viewBox="0 0 264 265" fill="none" xmlns="http://www.w3.org/2000/svg">
<path fill-rule="evenodd" clip-rule="evenodd" d="M263.35 15.9004C263.35 7.61612 256.634 0.900391 248.35 0.900391H15.1519C6.86759 0.900391 0.151855 7.61614 0.151855 15.9004V249.099C0.151855 257.383 6.8676 264.099 15.1519 264.099H248.35C256.634 264.099 263.35 257.383 263.35 249.099V15.9004ZM231.517 47.7324C231.517 39.4482 224.802 32.7324 216.517 32.7324H46.9847C38.7005 32.7324 31.9847 39.4481 31.9847 47.7324V217.265C31.9847 225.549 38.7005 232.265 46.9847 232.265H216.517C224.802 232.265 231.517 225.549 231.517 217.265V47.7324Z" fill="#484848"/>
<path fill-rule="evenodd" clip-rule="evenodd" d="M134.5 1H15C6.71573 1 0 7.71572 0 16V176.453H31.8933V45.016C31.8933 36.7317 38.609 30.016 46.8933 30.016H134.5V1Z" fill="#2368FF"/>
<path d="M94.635 129.894C96.427 130.193 97.9843 130.875 99.307 131.942C100.63 132.966 101.654 134.289 102.379 135.91C103.147 137.531 103.531 139.323 103.531 141.286C103.531 143.931 102.848 146.235 101.483 148.198C100.118 150.161 98.1763 151.675 95.659 152.742C93.1843 153.851 90.2616 154.406 86.891 154.406C83.6483 154.406 80.7683 153.873 78.251 152.806C75.7763 151.782 73.707 150.267 72.043 148.262L76.907 142.182C78.0163 143.547 79.339 144.614 80.875 145.382C82.4536 146.193 84.3736 146.598 86.635 146.598C89.2376 146.598 91.2216 146.065 92.587 144.998C93.9523 143.974 94.635 142.417 94.635 140.326C94.635 138.107 93.8456 136.401 92.267 135.206C90.6883 134.011 88.299 133.414 85.099 133.414H83.307V127.014H85.291C87.8936 127.014 89.9203 126.417 91.371 125.222C92.8643 124.027 93.611 122.534 93.611 120.742C93.611 119.59 93.3336 118.63 92.779 117.862C92.2243 117.094 91.4563 116.518 90.475 116.134C89.5363 115.75 88.427 115.558 87.147 115.558C85.227 115.558 83.4776 116.006 81.899 116.902C80.3203 117.798 79.0403 119.057 78.059 120.678L72.683 114.662C73.579 113.339 74.795 112.209 76.331 111.27C77.9096 110.289 79.7016 109.521 81.707 108.966C83.755 108.411 85.8883 108.134 88.107 108.134C91.0083 108.134 93.547 108.603 95.723 109.542C97.9416 110.481 99.6696 111.803 100.907 113.51C102.144 115.217 102.763 117.201 102.763 119.462C102.763 121.126 102.422 122.705 101.739 124.198C101.056 125.691 100.096 126.95 98.859 127.974C97.6643 128.955 96.2563 129.595 94.635 129.894ZM136.018 137.254V144.998H110.034V137.254H119.122V117.862C118.738 118.374 118.141 118.907 117.33 119.462C116.52 119.974 115.602 120.465 114.578 120.934C113.554 121.403 112.53 121.787 111.506 122.086C110.482 122.385 109.565 122.534 108.754 122.534V114.534C109.522 114.534 110.44 114.299 111.506 113.83C112.616 113.318 113.704 112.721 114.77 112.038C115.88 111.355 116.818 110.694 117.586 110.054C118.397 109.371 118.909 108.838 119.122 108.454H127.89V137.254H136.018ZM150.363 118.31C148.401 118.31 146.63 117.883 145.051 117.03C143.473 116.134 142.193 114.961 141.211 113.51C140.273 112.017 139.803 110.374 139.803 108.582C139.803 106.79 140.273 105.169 141.211 103.718C142.193 102.225 143.473 101.051 145.051 100.198C146.63 99.3447 148.401 98.918 150.363 98.918C152.326 98.918 154.097 99.3447 155.675 100.198C157.297 101.051 158.577 102.225 159.515 103.718C160.454 105.169 160.923 106.79 160.923 108.582C160.923 110.374 160.454 112.017 159.515 113.51C158.577 114.961 157.297 116.134 155.675 117.03C154.097 117.883 152.326 118.31 150.363 118.31ZM150.363 114.022C151.217 114.022 151.985 113.766 152.667 113.254C153.35 112.742 153.883 112.081 154.267 111.27C154.694 110.459 154.907 109.585 154.907 108.646C154.907 107.622 154.694 106.705 154.267 105.894C153.841 105.083 153.286 104.443 152.603 103.974C151.921 103.462 151.174 103.206 150.363 103.206C149.51 103.206 148.742 103.462 148.059 103.974C147.377 104.443 146.822 105.083 146.395 105.894C146.011 106.705 145.819 107.601 145.819 108.582C145.819 109.563 146.033 110.481 146.459 111.334C146.886 112.145 147.441 112.806 148.123 113.318C148.806 113.787 149.553 114.022 150.363 114.022ZM175.067 145.638C173.105 145.638 171.334 145.211 169.755 144.358C168.177 143.505 166.897 142.353 165.915 140.902C164.977 139.409 164.507 137.766 164.507 135.974C164.507 134.139 164.977 132.497 165.915 131.046C166.897 129.595 168.177 128.443 169.755 127.59C171.334 126.694 173.105 126.246 175.067 126.246C177.03 126.246 178.801 126.694 180.379 127.59C182.001 128.443 183.281 129.595 184.219 131.046C185.158 132.497 185.627 134.118 185.627 135.91C185.627 137.702 185.158 139.345 184.219 140.838C183.281 142.289 182.001 143.462 180.379 144.358C178.801 145.211 177.03 145.638 175.067 145.638ZM175.067 141.35C175.921 141.35 176.689 141.094 177.371 140.582C178.054 140.07 178.587 139.409 178.971 138.598C179.398 137.787 179.611 136.913 179.611 135.974C179.611 134.95 179.398 134.033 178.971 133.222C178.587 132.411 178.033 131.771 177.307 131.302C176.625 130.79 175.878 130.534 175.067 130.534C174.257 130.534 173.489 130.79 172.763 131.302C172.081 131.771 171.526 132.433 171.099 133.286C170.715 134.097 170.523 134.971 170.523 135.91C170.523 136.934 170.737 137.851 171.163 138.662C171.59 139.473 172.145 140.134 172.827 140.646C173.51 141.115 174.257 141.35 175.067 141.35ZM143.451 141.99L161.435 120.934L178.075 99.046L181.979 102.502L164.443 123.238L147.291 145.446L143.451 141.99Z" fill="white"/>
</svg>
