<svg width="622" height="441" viewBox="0 0 622 441" fill="none" xmlns="http://www.w3.org/2000/svg">
<path d="M321 440.083C321 440.203 321.023 440.322 321.069 440.433C321.114 440.544 321.181 440.645 321.266 440.73C321.351 440.815 321.451 440.883 321.562 440.929C321.673 440.976 321.791 441 321.912 441H620.358C620.601 441 620.835 440.903 621.007 440.731C621.179 440.559 621.275 440.326 621.275 440.083C621.275 439.84 621.179 439.607 621.007 439.435C620.835 439.263 620.601 439.166 620.358 439.166H321.917C321.797 439.166 321.678 439.189 321.567 439.235C321.456 439.28 321.355 439.347 321.27 439.432C321.185 439.517 321.117 439.617 321.071 439.728C321.024 439.839 321 439.958 321 440.078V440.083Z" fill="#CCCCCC"/>
<path opacity="0.5" d="M440.267 314.493C443.518 313.835 446.848 313.654 450.152 313.956C450.458 313.954 450.75 313.831 450.967 313.615C451.183 313.399 451.305 313.106 451.308 312.8C451.301 312.496 451.178 312.205 450.962 311.99C450.747 311.774 450.456 311.651 450.152 311.644C446.641 311.34 443.104 311.549 439.652 312.264C439.357 312.345 439.106 312.541 438.955 312.807C438.804 313.074 438.765 313.39 438.846 313.685C438.928 313.98 439.123 314.231 439.39 314.383C439.656 314.534 439.972 314.574 440.267 314.493H440.267Z" fill="#CCCCCC"/>
<path d="M360.916 294.385C354.559 285.931 350.886 276.476 350.765 265.697C350.56 265.116 350.594 264.478 350.86 263.922C351.125 263.366 351.6 262.938 352.18 262.732L373.846 255.066C374.427 254.861 375.066 254.895 375.622 255.16C376.177 255.426 376.605 255.901 376.811 256.481L386.962 285.169C387.167 285.75 387.133 286.389 386.868 286.945C386.602 287.5 386.127 287.928 385.547 288.134L363.881 295.801C363.3 296.005 362.662 295.971 362.106 295.706C361.55 295.441 361.122 294.966 360.916 294.385V294.385Z" fill="#F2F2F2"/>
<path opacity="0.2" d="M365.807 293.875C365.226 294.08 364.588 294.046 364.032 293.78C363.476 293.515 363.048 293.04 362.842 292.46C356.486 284.005 352.812 274.55 352.692 263.771C352.559 263.389 352.53 262.979 352.607 262.582L352.18 262.733C351.6 262.939 351.125 263.367 350.86 263.923C350.594 264.479 350.56 265.117 350.765 265.698C350.886 276.477 354.559 285.931 360.916 294.386C361.122 294.967 361.55 295.442 362.106 295.707C362.662 295.972 363.3 296.006 363.881 295.801L385.547 288.135C385.931 287.998 386.273 287.761 386.536 287.449C386.799 287.138 386.976 286.762 387.047 286.36L365.807 293.875Z" fill="black"/>
<path d="M375.954 272.401L361.45 277.578C361.219 277.661 360.965 277.648 360.743 277.543C360.522 277.438 360.351 277.25 360.269 277.019C360.186 276.788 360.199 276.534 360.304 276.312C360.409 276.091 360.597 275.92 360.828 275.838L375.333 270.66C375.563 270.579 375.817 270.592 376.038 270.697C376.259 270.802 376.429 270.99 376.511 271.221C376.594 271.451 376.581 271.705 376.477 271.926C376.372 272.147 376.184 272.318 375.954 272.401H375.954Z" fill="#2368FF"/>
<path d="M362.941 271.667L359.75 272.806C359.636 272.848 359.515 272.866 359.394 272.861C359.272 272.855 359.153 272.826 359.043 272.774C358.933 272.722 358.835 272.65 358.753 272.56C358.671 272.47 358.608 272.365 358.566 272.251C358.525 272.137 358.507 272.015 358.513 271.894C358.518 271.773 358.548 271.654 358.6 271.544C358.651 271.434 358.724 271.335 358.814 271.254C358.904 271.172 359.009 271.109 359.123 271.068L359.129 271.066L362.32 269.927C362.551 269.845 362.804 269.859 363.025 269.964C363.246 270.069 363.416 270.257 363.498 270.487C363.58 270.718 363.568 270.971 363.464 271.193C363.359 271.414 363.171 271.584 362.941 271.667V271.667Z" fill="#2368FF"/>
<path d="M378.686 280.053L364.181 285.23C363.951 285.312 363.697 285.298 363.476 285.193C363.255 285.088 363.085 284.9 363.003 284.67C362.921 284.439 362.933 284.186 363.038 283.965C363.142 283.743 363.33 283.573 363.56 283.49L378.065 278.312C378.295 278.229 378.549 278.242 378.77 278.346C378.992 278.45 379.163 278.638 379.246 278.868C379.329 279.099 379.317 279.353 379.213 279.574C379.109 279.796 378.922 279.967 378.691 280.051L378.686 280.053Z" fill="#2368FF"/>
<path d="M377.319 276.227L362.814 281.405C362.583 281.487 362.329 281.475 362.107 281.37C361.886 281.265 361.715 281.077 361.632 280.846C361.55 280.616 361.562 280.362 361.667 280.14C361.771 279.918 361.96 279.747 362.19 279.665L362.193 279.664L376.697 274.487C376.928 274.405 377.181 274.418 377.402 274.523C377.623 274.628 377.794 274.817 377.876 275.047C377.958 275.277 377.946 275.531 377.841 275.752C377.737 275.974 377.549 276.144 377.318 276.227H377.319Z" fill="#2368FF"/>
<path d="M362.435 263.029C364.563 263.029 366.288 261.304 366.288 259.176C366.288 257.048 364.563 255.323 362.435 255.323C360.307 255.323 358.582 257.048 358.582 259.176C358.582 261.304 360.307 263.029 362.435 263.029Z" fill="#CCCCCC"/>
<path d="M503.453 92.7592C503.514 98.3999 505.31 110.144 504.023 115.669L503.815 115.206C502.745 116.054 501.609 116.815 500.416 117.48C499.557 115.388 498.271 113.499 496.641 111.931C496.855 114.524 496.549 117.134 495.739 119.607C490.923 121.34 482.469 115.877 477.229 115.761C468.799 115.569 460.585 113.473 452.532 111.253C449.673 110.467 446.529 109.442 445.235 107.069C443.94 104.696 446.257 102.134 446.105 99.4556C445.026 80.3792 454.112 77.1816 462.758 72.0843C464.66 70.9626 465.594 68.5473 467.744 67.6072C470.726 66.3049 474.278 66.9291 477.522 67.5841C476.717 67.3186 475.993 66.8503 475.421 66.224C474.848 65.5978 474.447 64.8348 474.255 64.0085C474.12 63.1986 474.211 62.3671 474.518 61.6056C474.825 60.8442 475.337 60.1824 475.997 59.6933C477.784 58.3139 480.451 58.1444 482.731 58.73C484.935 59.4191 487.019 60.4431 488.912 61.7661C490.196 62.4709 491.345 63.4 492.302 64.5094C492.753 65.0345 493.033 65.6847 493.105 66.3732C493.177 67.0618 493.036 67.7557 492.703 68.3624C492.292 68.8824 491.768 69.3028 491.172 69.5924C490.575 69.8819 489.921 70.0331 489.258 70.0346C488.237 70.0643 487.216 69.958 486.222 69.7186C490.777 70.842 494.881 73.3256 497.989 76.8389C501.85 81.3314 503.383 87.1185 503.453 92.7592Z" fill="#2F2E41"/>
<path d="M368.755 147.12C369.539 148.783 370.94 150.075 372.662 150.72C374.383 151.366 376.289 151.314 377.972 150.576C378.312 150.421 378.639 150.238 378.948 150.028L398.79 164.606L409.73 157.141L380.39 140.109C379.423 138.893 378.08 138.03 376.571 137.656C375.063 137.283 373.473 137.419 372.049 138.044C371.243 138.408 370.516 138.927 369.91 139.571C369.305 140.215 368.831 140.973 368.518 141.8C368.205 142.627 368.058 143.508 368.085 144.392C368.112 145.276 368.314 146.146 368.677 146.953V146.953C368.702 147.009 368.728 147.065 368.755 147.12Z" fill="#FFB6B6"/>
<path d="M573.259 133.89C571.435 134.117 569.771 135.048 568.622 136.483C567.473 137.918 566.93 139.745 567.107 141.575C567.149 141.946 567.222 142.313 567.324 142.673L547.297 156.995L550.989 169.714L576.302 147.128C577.76 146.588 578.997 145.58 579.822 144.262C580.646 142.945 581.011 141.391 580.86 139.844C580.765 138.965 580.498 138.112 580.074 137.336C579.65 136.56 579.078 135.875 578.389 135.32C577.7 134.765 576.909 134.351 576.06 134.102C575.211 133.853 574.322 133.773 573.443 133.868C573.381 133.874 573.32 133.882 573.259 133.89Z" fill="#FFB6B6"/>
<path d="M428.035 427.419L421.585 427.365L418.73 401.909L428.249 401.989L428.035 427.419Z" fill="#FFB6B6"/>
<path d="M407.375 437.674C407.369 438.439 407.667 439.174 408.203 439.72C408.739 440.265 409.469 440.575 410.234 440.583L423.056 440.69L425.301 436.14L426.126 440.713L430.964 440.757L429.742 424.446L428.059 424.334L421.193 423.86L418.978 423.712L418.939 428.327L408.639 435.314C408.253 435.576 407.936 435.927 407.716 436.338C407.496 436.749 407.379 437.208 407.375 437.674Z" fill="#2F2E41"/>
<path d="M513.046 398.847L507.78 402.571L490.59 383.581L498.361 378.084L513.046 398.847Z" fill="#FFB6B6"/>
<path d="M502.271 419.239C502.713 419.863 503.385 420.286 504.138 420.415C504.892 420.545 505.666 420.37 506.291 419.929L516.76 412.524L515.923 407.52L519.264 410.75L523.216 407.958L512.694 395.435L511.263 396.327L505.414 399.955L503.53 401.129L506.195 404.897L501.917 416.585C501.757 417.023 501.706 417.493 501.767 417.956C501.829 418.418 502.002 418.858 502.271 419.239V419.239Z" fill="#2F2E41"/>
<path d="M432.871 221.034L451.605 177.53H494.755L482.309 222.932L432.871 221.034Z" fill="#FFB6B6"/>
<path d="M393.26 427.614C392.902 427.63 392.547 427.536 392.244 427.344C391.941 427.153 391.705 426.872 391.566 426.542C391.428 426.211 391.395 425.845 391.471 425.495C391.547 425.145 391.729 424.826 391.993 424.583L392.112 424.106C392.097 424.068 392.081 424.03 392.065 423.992C391.704 423.14 391.099 422.413 390.327 421.903C389.554 421.394 388.648 421.123 387.723 421.127C386.797 421.13 385.893 421.407 385.125 421.923C384.356 422.438 383.757 423.169 383.402 424.024C381.986 427.437 380.182 430.855 379.738 434.463C379.542 436.057 379.625 437.674 379.981 439.241C376.654 431.982 374.926 424.092 374.915 416.107C374.914 414.103 375.025 412.101 375.248 410.109C375.432 408.477 375.688 406.856 376.015 405.247C377.798 396.515 381.628 388.331 387.188 381.367C389.88 379.898 392.056 377.64 393.425 374.896C393.92 373.91 394.271 372.857 394.465 371.771C394.161 371.81 393.32 367.187 393.549 366.903C393.126 366.261 392.369 365.942 391.907 365.315C389.609 362.199 386.442 362.744 384.789 366.978C381.258 368.76 381.224 371.715 383.391 374.558C384.769 376.366 384.959 378.813 386.168 380.749C386.044 380.909 385.914 381.063 385.79 381.222C383.515 384.147 381.533 387.288 379.871 390.599C380.275 386.889 379.793 383.136 378.463 379.649C377.116 376.4 374.591 373.663 372.368 370.853C371.78 370.098 370.981 369.535 370.073 369.234C369.165 368.933 368.187 368.908 367.265 369.163C366.343 369.417 365.516 369.939 364.891 370.663C364.265 371.387 363.868 372.28 363.75 373.229C363.745 373.271 363.741 373.312 363.736 373.353C364.066 373.54 364.39 373.737 364.706 373.947C365.103 374.212 365.411 374.591 365.589 375.035C365.768 375.478 365.808 375.965 365.704 376.432C365.601 376.899 365.359 377.323 365.01 377.65C364.661 377.977 364.222 378.19 363.75 378.263L363.701 378.271C363.819 379.461 364.027 380.641 364.324 381.8C361.471 392.831 367.629 396.849 376.423 397.03C376.617 397.129 376.806 397.229 377 397.323C375.331 402.055 374.283 406.984 373.885 411.986C373.659 414.937 373.672 417.901 373.924 420.85L373.909 420.746C373.272 417.466 371.523 414.508 368.957 412.369C365.146 409.238 359.762 408.086 355.65 405.569C355.214 405.289 354.705 405.139 354.186 405.138C353.667 405.136 353.158 405.284 352.72 405.562C352.282 405.84 351.932 406.238 351.712 406.709C351.493 407.179 351.412 407.703 351.481 408.218L351.497 408.328C352.11 408.577 352.707 408.865 353.284 409.189C353.614 409.375 353.938 409.573 354.254 409.782C354.651 410.047 354.959 410.427 355.137 410.87C355.316 411.314 355.356 411.801 355.252 412.267C355.149 412.734 354.907 413.158 354.558 413.485C354.209 413.812 353.77 414.026 353.298 414.099L353.249 414.106C353.215 414.111 353.185 414.116 353.15 414.121C354.197 416.621 355.667 418.923 357.495 420.925C359.278 430.555 366.939 431.468 375.134 428.664H375.139C376.038 432.571 377.341 436.374 379.026 440.012H392.912C392.962 439.858 393.007 439.698 393.051 439.544C391.766 439.625 390.476 439.548 389.209 439.315C390.239 438.051 391.27 436.777 392.3 435.513C392.323 435.489 392.344 435.464 392.365 435.438C392.887 434.791 393.415 434.149 393.937 433.502L393.938 433.501C393.966 431.518 393.738 429.539 393.261 427.614L393.26 427.614Z" fill="#9B9DA0"/>
<path d="M543.521 427.614C543.88 427.63 544.234 427.536 544.537 427.344C544.84 427.153 545.077 426.872 545.215 426.541C545.353 426.211 545.387 425.845 545.31 425.495C545.234 425.145 545.052 424.826 544.789 424.583L544.669 424.106C544.685 424.068 544.701 424.03 544.716 423.992C545.077 423.14 545.682 422.413 546.455 421.903C547.227 421.393 548.133 421.123 549.058 421.127C549.984 421.13 550.888 421.407 551.657 421.923C552.425 422.438 553.024 423.169 553.379 424.024C554.796 427.436 556.6 430.855 557.044 434.463C557.239 436.057 557.157 437.674 556.8 439.241C560.128 431.982 561.855 424.092 561.867 416.107C561.867 414.103 561.756 412.101 561.533 410.109C561.349 408.477 561.093 406.856 560.767 405.247C558.983 396.515 555.154 388.331 549.593 381.367C546.902 379.898 544.725 377.64 543.357 374.896C542.861 373.91 542.511 372.857 542.316 371.771C542.62 371.81 543.461 367.187 543.232 366.903C543.655 366.261 544.413 365.942 544.875 365.315C547.173 362.199 550.339 362.744 551.992 366.978C555.523 368.76 555.557 371.715 553.391 374.558C552.012 376.366 551.823 378.813 550.613 380.749C550.738 380.909 550.867 381.063 550.992 381.222C553.266 384.147 555.249 387.288 556.911 390.599C556.506 386.889 556.989 383.136 558.318 379.649C559.665 376.4 562.19 373.663 564.414 370.853C565.002 370.098 565.8 369.535 566.709 369.234C567.617 368.933 568.594 368.908 569.516 369.163C570.439 369.417 571.265 369.939 571.891 370.663C572.516 371.387 572.914 372.28 573.032 373.229C573.036 373.271 573.041 373.312 573.045 373.353C572.715 373.54 572.392 373.737 572.075 373.947C571.678 374.212 571.37 374.591 571.192 375.035C571.014 375.478 570.974 375.965 571.077 376.432C571.181 376.899 571.422 377.323 571.771 377.65C572.12 377.977 572.559 378.19 573.032 378.263L573.08 378.271C572.962 379.461 572.754 380.641 572.458 381.8C575.31 392.831 569.152 396.849 560.358 397.03C560.164 397.129 559.975 397.229 559.781 397.323C561.451 402.055 562.498 406.984 562.897 411.986C563.122 414.937 563.109 417.901 562.857 420.85L562.872 420.746C563.509 417.466 565.258 414.508 567.824 412.369C571.635 409.238 577.019 408.086 581.131 405.569C581.568 405.289 582.076 405.139 582.595 405.138C583.114 405.136 583.623 405.284 584.062 405.562C584.5 405.84 584.849 406.238 585.069 406.709C585.288 407.179 585.369 407.703 585.301 408.218L585.284 408.328C584.671 408.577 584.074 408.865 583.497 409.189C583.167 409.375 582.844 409.573 582.527 409.782C582.13 410.047 581.822 410.427 581.644 410.87C581.466 411.314 581.426 411.801 581.529 412.267C581.633 412.734 581.874 413.158 582.223 413.485C582.572 413.812 583.011 414.026 583.484 414.099L583.532 414.106C583.567 414.111 583.597 414.116 583.631 414.121C582.584 416.621 581.114 418.923 579.286 420.925C577.503 430.555 569.842 431.468 561.647 428.664H561.642C560.743 432.571 559.441 436.374 557.755 440.012H543.869C543.819 439.858 543.775 439.698 543.73 439.544C545.015 439.625 546.306 439.548 547.572 439.315C546.542 438.051 545.512 436.777 544.481 435.513C544.458 435.489 544.437 435.464 544.417 435.438C543.894 434.791 543.367 434.149 542.844 433.502L542.844 433.501C542.816 431.518 543.043 429.539 543.521 427.614L543.521 427.614Z" fill="#9B9DA0"/>
<path d="M432.869 217.767L414.27 256.567L415.597 411.191H431.528C431.528 411.191 434.625 407.014 434.625 404.087C434.625 401.16 429.357 400.735 432.869 397.142C436.382 393.549 437.553 392.378 437.553 388.866V332.671L450.114 278.197L448.786 338.052L493.923 391.923L504.438 381.408C504.438 381.408 507.513 380.053 504.438 377.142C501.363 374.23 499.445 379.372 499.233 371.24C499.021 363.107 500.778 364.864 499.021 363.107C497.265 361.351 472.682 332.005 472.682 332.005C472.682 332.005 494.923 237.243 483.8 219.095L432.869 217.767Z" fill="#2F2E41"/>
<path d="M484.976 222.021C484.976 222.021 436.971 205.044 440.484 195.678C443.996 186.311 449.897 188.113 442.849 185.163C435.801 182.213 431.131 181.628 435.515 177.53C439.898 173.432 446.338 169.334 446.338 165.236C446.338 161.138 451.607 128.94 451.607 128.94H460.041L468.584 114.305H480.652L486.732 127.769H499.57L500.196 148.259C500.196 148.259 501.026 187.841 497.099 189.418C493.171 190.994 489.659 190.994 493.171 194.507C496.684 198.019 498.685 199.836 497.099 203.025C495.513 206.215 484.976 222.021 484.976 222.021Z" fill="#525252"/>
<path d="M491.996 133.624L499.565 127.77C499.565 127.77 512.486 127.77 514.242 134.795C515.998 141.82 526.569 158.999 526.569 158.999C526.569 158.999 537.073 152.942 541.171 152.942C545.269 152.942 548.196 155.87 548.196 152.357C548.196 148.845 545.854 148.259 549.367 148.259C552.88 148.259 562.246 144.747 562.246 144.747L572.237 154.738C572.237 154.738 571.027 164.065 566.929 163.48C562.832 162.895 560.49 159.967 560.49 163.48C560.49 166.992 562.832 172.261 557.563 172.847C552.294 173.432 517.169 182.213 517.169 182.213L493.167 147.088L491.996 133.624Z" fill="#525252"/>
<path d="M461.554 133.624L453.985 127.77C453.985 127.77 441.064 127.77 439.308 134.795C437.552 141.82 426.392 158.999 426.392 158.999C426.392 158.999 416.477 152.942 412.379 152.942C408.281 152.942 405.354 155.87 405.354 152.357C405.354 148.845 407.695 148.259 404.183 148.259C400.67 148.259 391.304 144.747 391.304 144.747L381.312 154.738C381.312 154.738 382.523 164.065 386.62 163.48C390.718 162.895 393.06 159.967 393.06 163.48C393.06 166.992 390.718 172.261 395.987 172.847C401.256 173.432 436.381 182.213 436.381 182.213L460.383 147.088L461.554 133.624Z" fill="#525252"/>
<path d="M473.21 111.126C483.527 111.126 491.892 102.762 491.892 92.4439C491.892 82.126 483.527 73.7617 473.21 73.7617C462.892 73.7617 454.527 82.126 454.527 92.4439C454.527 102.762 462.892 111.126 473.21 111.126Z" fill="#FFB6B6"/>
<path d="M493.596 89.6235C491.4 92.2821 488.133 92.1434 485.228 91.7195C484.311 91.5885 483.394 91.4421 482.477 91.2726C482.315 90.7563 482.13 90.24 481.922 89.7391C481.062 87.6476 479.776 85.7581 478.146 84.1909C478.318 86.2398 478.159 88.3031 477.676 90.3017C475.973 89.9087 474.278 89.4694 472.59 88.9839C471.097 88.7412 469.754 87.934 468.839 86.7294C467.924 85.5247 467.507 84.0145 467.674 82.511C465.246 84.3604 462.603 85.9632 459.829 85.9941C458.265 85.9535 456.756 85.4131 455.522 84.4521C454.288 83.491 453.394 82.1599 452.971 80.6539C452.216 78.3421 452.331 75.6759 452.64 73.1792C453.01 70.2124 453.842 66.9528 455.845 65.7584C457.456 64.7875 459.313 65.481 460.97 66.267C464.62 68.0187 468.08 70.1413 471.296 72.6012L471.334 73.4103C472.166 69.4264 474.917 66.3518 477.915 66.0435C479.934 65.8432 481.907 66.7756 483.81 67.7157C486.298 68.8132 488.611 70.2697 490.676 72.0387C493.009 74.1607 494.629 76.9516 495.315 80.0297C496.031 83.3664 495.492 87.3272 493.596 89.6235Z" fill="#2F2E41"/>
<path d="M475.101 63.6962C475.293 63.7123 474.822 63.6044 474.975 63.6685C474.9 63.6343 474.828 63.594 474.76 63.548C474.748 63.5405 474.596 63.4178 474.695 63.5032C474.467 63.3253 474.295 63.0851 474.2 62.8115C473.987 62.1466 473.889 61.4508 473.908 60.7531C473.945 59.8362 473.789 58.9216 473.449 58.0694C473.348 57.8386 473.194 57.6349 472.999 57.4748C472.805 57.3146 472.576 57.2026 472.33 57.1478C472.084 57.093 471.829 57.0969 471.584 57.1592C471.34 57.2216 471.114 57.3406 470.925 57.5066C470.294 58.125 470.245 59.1695 470.2 60.0004C470.152 60.8629 470.243 61.7276 470.471 62.561C470.862 63.9315 471.643 65.1585 472.719 66.0927C473.962 67.1812 475.523 67.8401 477.17 67.9716C477.396 67.9665 477.616 67.8957 477.803 67.7679C477.989 67.64 478.135 67.4606 478.222 67.2514C478.308 67.0423 478.332 66.8125 478.29 66.59C478.249 66.3675 478.143 66.1619 477.987 65.9983L475.919 64.0348C475.702 63.818 475.408 63.6962 475.101 63.6962C474.795 63.6962 474.501 63.818 474.284 64.0348C474.067 64.2515 473.945 64.5455 473.945 64.8521C473.945 65.1587 474.067 65.4526 474.284 65.6694L476.352 67.633L477.17 65.6598C476.828 65.6291 476.491 65.5602 476.165 65.4546C475.812 65.3564 475.474 65.2083 475.162 65.015C474.856 64.8475 474.57 64.6473 474.308 64.4178C474.14 64.2704 473.98 64.1145 473.828 63.9508C473.773 63.8913 473.719 63.8308 473.666 63.7693C473.669 63.7737 473.448 63.4957 473.543 63.6228C473.304 63.2958 473.096 62.9472 472.922 62.5815C472.86 62.452 472.809 62.3177 472.77 62.1799C472.697 61.9532 472.637 61.7225 472.591 61.4888C472.503 60.9979 472.476 60.4979 472.512 60.0004C472.522 59.7894 472.543 59.5791 472.575 59.3703C472.604 59.2602 472.625 59.1482 472.639 59.0352C472.643 58.7546 472.601 59.1851 472.455 59.2505L471.871 59.4083C471.776 59.4005 471.684 59.3715 471.602 59.3233C471.52 59.2751 471.449 59.2091 471.396 59.13C471.372 59.0335 471.378 59.0506 471.416 59.1813C471.46 59.3348 471.494 59.4908 471.518 59.6485C471.563 60.0152 471.589 60.3838 471.596 60.7531C471.603 61.5354 471.694 62.3148 471.867 63.0778C472.029 63.8445 472.429 64.5406 473.009 65.0668C473.59 65.5929 474.322 65.9223 475.101 66.008C475.407 66.0056 475.699 65.883 475.916 65.6668C476.132 65.4505 476.255 65.1579 476.257 64.8521C476.251 64.5475 476.127 64.257 475.912 64.0415C475.696 63.8261 475.406 63.7023 475.101 63.6962V63.6962Z" fill="#2F2E41"/>
<path d="M570.517 138.727C564.161 130.272 560.487 120.818 560.367 110.039C560.162 109.458 560.196 108.82 560.461 108.264C560.726 107.708 561.201 107.28 561.782 107.074L583.448 99.4077C584.029 99.2029 584.667 99.2369 585.223 99.5022C585.779 99.7675 586.207 100.242 586.413 100.823L596.564 129.511C596.768 130.092 596.734 130.731 596.469 131.286C596.204 131.842 595.729 132.27 595.148 132.476L573.482 140.142C572.902 140.347 572.263 140.313 571.707 140.048C571.151 139.782 570.724 139.308 570.517 138.727V138.727Z" fill="white"/>
<path opacity="0.2" d="M575.409 138.216C574.828 138.421 574.19 138.387 573.634 138.121C573.078 137.856 572.65 137.381 572.444 136.801C566.087 128.346 562.414 118.891 562.293 108.112C562.161 107.73 562.131 107.32 562.208 106.923L561.782 107.074C561.201 107.28 560.727 107.708 560.461 108.264C560.196 108.819 560.162 109.458 560.367 110.039C560.487 120.818 564.161 130.272 570.517 138.727C570.724 139.307 571.151 139.782 571.707 140.048C572.263 140.313 572.902 140.347 573.482 140.142L595.149 132.476C595.533 132.339 595.874 132.102 596.138 131.79C596.401 131.478 596.577 131.103 596.649 130.701L575.409 138.216Z" fill="black"/>
<path d="M585.556 116.743L571.051 121.92C570.82 122.002 570.566 121.99 570.345 121.885C570.123 121.78 569.953 121.591 569.87 121.36C569.788 121.13 569.8 120.875 569.905 120.654C570.01 120.433 570.199 120.262 570.43 120.179L584.934 115.002C585.049 114.961 585.17 114.943 585.291 114.949C585.412 114.955 585.531 114.985 585.641 115.037C585.75 115.089 585.849 115.162 585.93 115.252C586.012 115.342 586.075 115.447 586.115 115.562C586.156 115.676 586.174 115.797 586.168 115.918C586.162 116.04 586.132 116.158 586.08 116.268C586.028 116.378 585.955 116.476 585.865 116.557C585.775 116.639 585.67 116.702 585.556 116.743V116.743Z" fill="#2368FF"/>
<path d="M572.54 116.009L569.349 117.148C569.235 117.189 569.114 117.207 568.992 117.201C568.871 117.195 568.752 117.165 568.643 117.113C568.533 117.062 568.434 116.989 568.353 116.899C568.271 116.809 568.208 116.704 568.167 116.59C568.126 116.475 568.108 116.354 568.114 116.233C568.12 116.112 568.15 115.993 568.202 115.883C568.254 115.774 568.327 115.675 568.416 115.594C568.506 115.512 568.611 115.449 568.726 115.408L568.728 115.407L571.919 114.268C572.149 114.186 572.403 114.199 572.625 114.304C572.846 114.409 573.016 114.598 573.099 114.828C573.181 115.059 573.168 115.313 573.064 115.534C572.959 115.756 572.771 115.926 572.54 116.009V116.009Z" fill="#2368FF"/>
<path d="M588.287 124.396L573.783 129.573C573.552 129.656 573.298 129.643 573.076 129.539C572.855 129.434 572.684 129.245 572.601 129.015C572.518 128.784 572.531 128.53 572.635 128.308C572.74 128.087 572.929 127.916 573.159 127.833L573.161 127.832L587.666 122.655C587.897 122.573 588.151 122.586 588.372 122.691C588.593 122.796 588.764 122.984 588.846 123.215C588.928 123.446 588.916 123.7 588.811 123.921C588.706 124.142 588.518 124.313 588.287 124.396V124.396Z" fill="#2368FF"/>
<path d="M586.92 120.569L572.415 125.747C572.301 125.787 572.18 125.806 572.059 125.8C571.938 125.794 571.819 125.764 571.709 125.712C571.599 125.66 571.501 125.587 571.419 125.498C571.338 125.408 571.275 125.303 571.234 125.188C571.193 125.074 571.175 124.953 571.181 124.832C571.187 124.711 571.216 124.592 571.268 124.482C571.32 124.372 571.393 124.274 571.483 124.192C571.573 124.111 571.678 124.048 571.792 124.007L571.794 124.006L586.299 118.829C586.413 118.788 586.534 118.77 586.655 118.776C586.777 118.781 586.895 118.811 587.005 118.863C587.115 118.915 587.213 118.988 587.295 119.078C587.376 119.168 587.439 119.273 587.48 119.387C587.521 119.501 587.539 119.622 587.533 119.743C587.527 119.865 587.498 119.983 587.446 120.093C587.394 120.203 587.321 120.301 587.231 120.383C587.141 120.464 587.036 120.527 586.922 120.568L586.92 120.569Z" fill="#2368FF"/>
<path d="M572.033 107.369C574.161 107.369 575.886 105.644 575.886 103.516C575.886 101.388 574.161 99.6631 572.033 99.6631C569.905 99.6631 568.18 101.388 568.18 103.516C568.18 105.644 569.905 107.369 572.033 107.369Z" fill="#3F3D56"/>
<path d="M381.778 40.5194C385.658 30.6792 391.794 22.6022 400.918 16.8609C401.306 16.3825 401.867 16.0775 402.48 16.0129C403.092 15.9482 403.706 16.1291 404.185 16.516L422.052 30.9709C422.531 31.3588 422.836 31.9207 422.9 32.5332C422.965 33.1457 422.784 33.7589 422.397 34.2381L403.257 57.8966C402.869 58.375 402.308 58.68 401.695 58.7447C401.082 58.8094 400.469 58.6284 399.99 58.2416L382.123 43.7867C381.644 43.3988 381.339 42.8369 381.275 42.2244C381.21 41.6118 381.391 40.9987 381.778 40.5194Z" fill="white"/>
<path opacity="0.2" d="M384.772 44.4208C384.294 44.0329 383.989 43.471 383.924 42.8585C383.86 42.2459 384.041 41.6328 384.427 41.1535C388.308 31.3133 394.444 23.2363 403.567 17.495C403.824 17.1822 404.158 16.9426 404.537 16.8005L404.185 16.516C403.706 16.1291 403.092 15.9482 402.48 16.0129C401.867 16.0775 401.306 16.3825 400.918 16.8609C391.794 22.6022 385.658 30.6792 381.778 40.5194C381.391 40.9987 381.21 41.6119 381.275 42.2244C381.339 42.8369 381.644 43.3988 382.123 43.7867L399.99 58.2416C400.308 58.4973 400.688 58.6643 401.092 58.7257C401.496 58.787 401.908 58.7407 402.288 58.5912L384.772 44.4208Z" fill="black"/>
<path d="M408.382 41.8379L396.382 32.1846C396.192 32.0308 396.07 31.8078 396.044 31.5645C396.018 31.3212 396.09 31.0775 396.243 30.8869C396.396 30.6962 396.619 30.5742 396.862 30.5475C397.106 30.5208 397.35 30.5917 397.541 30.7446L409.541 40.3979C409.731 40.5518 409.852 40.7748 409.878 41.018C409.904 41.2613 409.833 41.5049 409.68 41.6956C409.526 41.8862 409.304 42.0082 409.06 42.0349C408.817 42.0616 408.573 41.9907 408.382 41.8379L408.382 41.8379Z" fill="#2368FF"/>
<path d="M402.197 30.3605L399.557 28.2368C399.367 28.0828 399.246 27.8599 399.22 27.6167C399.194 27.3736 399.266 27.1301 399.419 26.9396C399.572 26.7491 399.795 26.6271 400.038 26.6003C400.281 26.5735 400.525 26.6442 400.716 26.7968L403.356 28.9205C403.546 29.0744 403.667 29.2974 403.693 29.5406C403.719 29.7837 403.647 30.0273 403.494 30.2179C403.341 30.4085 403.118 30.5305 402.875 30.5572C402.632 30.5839 402.388 30.5132 402.197 30.3605L402.197 30.3605Z" fill="#2368FF"/>
<path d="M403.289 48.17L391.288 38.5167C391.098 38.3629 390.977 38.1398 390.951 37.8965C390.925 37.6532 390.996 37.4095 391.149 37.2189C391.303 37.0282 391.525 36.9062 391.769 36.8795C392.012 36.8529 392.256 36.9238 392.447 37.0767L404.447 46.73C404.637 46.8839 404.758 47.1068 404.784 47.35C404.81 47.5931 404.738 47.8366 404.585 48.0271C404.432 48.2176 404.209 48.3396 403.966 48.3664C403.723 48.3932 403.48 48.3225 403.289 48.17H403.289Z" fill="#2368FF"/>
<path d="M405.835 45.005L393.835 35.3517C393.74 35.2759 393.661 35.1822 393.603 35.0759C393.544 34.9696 393.507 34.8528 393.494 34.7322C393.467 34.4886 393.538 34.2442 393.691 34.0529C393.844 33.8615 394.067 33.7388 394.31 33.7117C394.554 33.6846 394.798 33.7554 394.99 33.9085L394.993 33.9117L406.994 43.565C407.185 43.7181 407.308 43.9409 407.335 44.1845C407.362 44.4281 407.291 44.6724 407.138 44.8638C406.985 45.0552 406.762 45.1779 406.518 45.205C406.275 45.232 406.03 45.1612 405.839 45.0081L405.835 45.005V45.005Z" fill="#2368FF"/>
<path d="M412.58 27.2489C414.707 27.2489 416.432 25.5238 416.432 23.3959C416.432 21.268 414.707 19.543 412.58 19.543C410.452 19.543 408.727 21.268 408.727 23.3959C408.727 25.5238 410.452 27.2489 412.58 27.2489Z" fill="#3F3D56"/>
<path d="M337.585 155.708C328.183 143.202 322.749 129.218 322.571 113.274C322.268 112.415 322.318 111.471 322.711 110.648C323.103 109.826 323.805 109.193 324.664 108.888L356.711 97.5492C357.57 97.2463 358.515 97.2966 359.337 97.689C360.159 98.0815 360.792 98.784 361.097 99.6425L376.111 142.077C376.414 142.936 376.364 143.88 375.971 144.702C375.579 145.524 374.876 146.157 374.018 146.462L341.971 157.801C341.112 158.104 340.167 158.054 339.345 157.662C338.523 157.269 337.89 156.567 337.585 155.708Z" fill="white"/>
<path opacity="0.2" d="M344.82 154.953C343.961 155.256 343.017 155.205 342.195 154.813C341.372 154.42 340.74 153.718 340.435 152.859C331.033 140.354 325.598 126.369 325.42 110.425C325.224 109.86 325.181 109.253 325.295 108.666L324.664 108.889C323.805 109.194 323.103 109.827 322.711 110.649C322.318 111.471 322.268 112.416 322.571 113.275C322.749 129.218 328.183 143.203 337.585 155.709C337.89 156.567 338.523 157.27 339.345 157.662C340.167 158.055 341.112 158.105 341.971 157.802L374.018 146.463C374.586 146.26 375.091 145.91 375.481 145.448C375.87 144.987 376.131 144.431 376.237 143.837L344.82 154.953Z" fill="black"/>
<path d="M359.831 123.19L338.377 130.848C338.208 130.909 338.028 130.936 337.849 130.928C337.669 130.919 337.493 130.875 337.33 130.798C337.168 130.722 337.022 130.614 336.901 130.48C336.78 130.347 336.687 130.191 336.626 130.022C336.566 129.853 336.54 129.673 336.549 129.493C336.558 129.314 336.602 129.138 336.679 128.975C336.757 128.813 336.865 128.667 336.999 128.547C337.132 128.427 337.288 128.334 337.458 128.274L358.912 120.616C359.081 120.555 359.261 120.529 359.44 120.538C359.619 120.547 359.795 120.591 359.957 120.668C360.119 120.745 360.265 120.853 360.385 120.986C360.506 121.119 360.599 121.274 360.659 121.443C360.719 121.613 360.746 121.792 360.737 121.971C360.728 122.15 360.684 122.326 360.607 122.488C360.53 122.65 360.422 122.796 360.289 122.916C360.156 123.037 360 123.13 359.831 123.19V123.19Z" fill="#2368FF"/>
<path d="M340.578 122.105L335.858 123.79C335.517 123.91 335.142 123.891 334.815 123.735C334.488 123.58 334.236 123.301 334.115 122.961C333.993 122.62 334.012 122.245 334.166 121.918C334.32 121.59 334.598 121.338 334.939 121.215V121.215L339.659 119.53C340 119.41 340.375 119.429 340.701 119.585C341.028 119.74 341.28 120.019 341.402 120.359C341.523 120.7 341.505 121.075 341.35 121.402C341.196 121.73 340.918 121.982 340.578 122.105V122.105Z" fill="#2368FF"/>
<path d="M363.87 134.51L342.416 142.168C342.075 142.29 341.699 142.271 341.371 142.116C341.044 141.96 340.791 141.681 340.669 141.34C340.548 140.998 340.566 140.623 340.722 140.295C340.877 139.967 341.156 139.715 341.497 139.593V139.593L362.951 131.935C363.121 131.875 363.3 131.848 363.479 131.857C363.658 131.866 363.834 131.91 363.996 131.987C364.159 132.064 364.304 132.172 364.424 132.305C364.545 132.438 364.638 132.594 364.698 132.763C364.759 132.932 364.785 133.111 364.776 133.29C364.767 133.47 364.723 133.645 364.646 133.808C364.569 133.97 364.461 134.115 364.328 134.236C364.195 134.356 364.04 134.449 363.87 134.51V134.51Z" fill="#2368FF"/>
<path d="M361.851 128.849L340.397 136.508C340.228 136.568 340.048 136.594 339.869 136.585C339.69 136.576 339.514 136.532 339.352 136.455C339.19 136.379 339.044 136.27 338.924 136.137C338.803 136.004 338.71 135.849 338.65 135.68C338.59 135.511 338.563 135.331 338.572 135.152C338.581 134.973 338.625 134.797 338.702 134.635C338.779 134.473 338.887 134.327 339.02 134.207C339.153 134.086 339.309 133.993 339.478 133.933V133.933L360.932 126.275C361.101 126.215 361.28 126.188 361.46 126.197C361.639 126.206 361.815 126.25 361.977 126.327C362.139 126.404 362.284 126.512 362.405 126.645C362.525 126.778 362.618 126.934 362.679 127.103C362.739 127.272 362.766 127.451 362.757 127.63C362.748 127.81 362.703 127.985 362.627 128.147C362.55 128.31 362.442 128.455 362.309 128.576C362.175 128.696 362.02 128.789 361.851 128.849V128.849Z" fill="#2368FF"/>
<path d="M339.832 109.328C342.979 109.328 345.531 106.776 345.531 103.629C345.531 100.481 342.979 97.9297 339.832 97.9297C336.684 97.9297 334.133 100.481 334.133 103.629C334.133 106.776 336.684 109.328 339.832 109.328Z" fill="#3F3D56"/>
<path d="M549.063 361.83C538.486 361.776 528.735 358.981 520.079 352.556C519.493 352.368 519.005 351.955 518.723 351.407C518.441 350.86 518.388 350.222 518.575 349.636L525.578 327.746C525.766 327.16 526.18 326.672 526.727 326.39C527.275 326.108 527.912 326.055 528.499 326.242L557.483 335.515C558.069 335.703 558.557 336.117 558.839 336.664C559.121 337.212 559.174 337.849 558.987 338.436L551.984 360.325C551.795 360.911 551.382 361.399 550.835 361.681C550.287 361.963 549.65 362.017 549.063 361.83V361.83Z" fill="#F2F2F2"/>
<path opacity="0.2" d="M551.615 357.624C551.427 358.211 551.014 358.699 550.466 358.981C549.919 359.263 549.282 359.316 548.695 359.129C538.117 359.076 528.366 356.281 519.711 349.856C519.326 349.73 518.982 349.505 518.713 349.204L518.575 349.635C518.388 350.222 518.441 350.859 518.723 351.406C519.005 351.954 519.493 352.367 520.079 352.555C528.735 358.981 538.486 361.775 549.063 361.829C549.65 362.016 550.287 361.962 550.835 361.68C551.382 361.398 551.795 360.91 551.984 360.324L558.987 338.435C559.11 338.045 559.128 337.631 559.039 337.232C558.95 336.834 558.758 336.466 558.481 336.166L551.615 357.624Z" fill="black"/>
<path d="M540.658 336.553L536.006 351.234C535.97 351.35 535.911 351.458 535.833 351.551C535.756 351.644 535.66 351.721 535.553 351.778C535.445 351.834 535.328 351.869 535.207 351.88C535.086 351.891 534.964 351.878 534.848 351.842C534.732 351.806 534.624 351.747 534.531 351.669C534.438 351.591 534.361 351.496 534.304 351.388C534.248 351.28 534.214 351.163 534.203 351.042C534.192 350.921 534.205 350.799 534.242 350.683L534.244 350.676L538.896 335.994C538.971 335.762 539.135 335.568 539.352 335.456C539.57 335.344 539.822 335.323 540.055 335.397C540.288 335.47 540.482 335.634 540.595 335.85C540.708 336.067 540.731 336.319 540.658 336.553V336.553Z" fill="#2368FF"/>
<path d="M532.201 346.472L531.177 349.702C531.141 349.818 531.082 349.926 531.005 350.019C530.927 350.112 530.831 350.189 530.724 350.245C530.616 350.302 530.499 350.336 530.378 350.347C530.257 350.358 530.135 350.345 530.02 350.309C529.904 350.273 529.796 350.214 529.703 350.136C529.61 350.058 529.533 349.963 529.477 349.856C529.42 349.748 529.386 349.631 529.375 349.51C529.364 349.389 529.377 349.267 529.413 349.151L529.415 349.144L530.439 345.914C530.475 345.798 530.534 345.691 530.612 345.598C530.689 345.504 530.785 345.427 530.892 345.371C531 345.315 531.117 345.28 531.238 345.269C531.359 345.258 531.481 345.271 531.596 345.308C531.712 345.344 531.82 345.403 531.913 345.48C532.006 345.558 532.083 345.653 532.139 345.761C532.196 345.868 532.23 345.986 532.241 346.107C532.252 346.228 532.239 346.349 532.203 346.465L532.201 346.472Z" fill="#2368FF"/>
<path d="M548.404 339.008L543.751 353.689C543.715 353.805 543.657 353.912 543.579 354.005C543.501 354.099 543.406 354.176 543.298 354.232C543.191 354.288 543.073 354.323 542.952 354.334C542.831 354.345 542.71 354.332 542.594 354.295C542.478 354.259 542.37 354.201 542.277 354.123C542.184 354.045 542.107 353.95 542.051 353.842C541.995 353.735 541.96 353.617 541.949 353.496C541.938 353.375 541.951 353.254 541.987 353.138L541.99 353.131L546.642 338.449C546.678 338.333 546.737 338.225 546.814 338.132C546.892 338.039 546.987 337.961 547.095 337.905C547.203 337.848 547.32 337.814 547.441 337.803C547.562 337.792 547.684 337.805 547.8 337.841C547.916 337.877 548.024 337.936 548.117 338.014C548.21 338.092 548.287 338.187 548.344 338.295C548.4 338.403 548.434 338.52 548.445 338.641C548.456 338.762 548.443 338.884 548.406 339L548.404 339.008Z" fill="#2368FF"/>
<path d="M544.533 337.78L539.881 352.461C539.845 352.577 539.786 352.685 539.708 352.779C539.631 352.872 539.535 352.949 539.428 353.005C539.32 353.062 539.203 353.097 539.082 353.107C538.961 353.118 538.839 353.105 538.723 353.069C538.607 353.033 538.499 352.974 538.406 352.896C538.313 352.819 538.236 352.723 538.179 352.615C538.123 352.508 538.089 352.39 538.078 352.269C538.067 352.148 538.08 352.026 538.117 351.91L538.119 351.903L542.771 337.222C542.808 337.106 542.866 336.998 542.944 336.905C543.022 336.812 543.117 336.735 543.225 336.679C543.332 336.622 543.45 336.588 543.57 336.577C543.691 336.566 543.813 336.579 543.929 336.615C544.045 336.651 544.152 336.71 544.245 336.788C544.339 336.866 544.416 336.961 544.472 337.068C544.528 337.176 544.563 337.293 544.574 337.414C544.585 337.535 544.572 337.657 544.535 337.773L544.533 337.78Z" fill="#2368FF"/>
<path d="M521.947 343.17C524.075 343.17 525.8 341.445 525.8 339.317C525.8 337.189 524.075 335.464 521.947 335.464C519.819 335.464 518.094 337.189 518.094 339.317C518.094 341.445 519.819 343.17 521.947 343.17Z" fill="#CCCCCC"/>
<path d="M606.767 188.879C607.143 187.394 605.717 185.751 603.582 185.209C601.446 184.668 599.41 185.434 599.033 186.919C598.657 188.405 600.083 190.048 602.218 190.589C604.354 191.131 606.39 190.365 606.767 188.879Z" fill="white"/>
<path d="M580.685 188.71C581.061 187.225 579.635 185.582 577.5 185.04C575.364 184.499 573.328 185.265 572.951 186.75C572.575 188.236 574.001 189.879 576.136 190.42C578.272 190.962 580.308 190.196 580.685 188.71Z" fill="#3F3D56"/>
<path d="M611.657 210.516C612.034 209.03 610.608 207.387 608.472 206.846C606.337 206.305 604.3 207.071 603.924 208.556C603.547 210.042 604.973 211.685 607.109 212.226C609.245 212.767 611.281 212.002 611.657 210.516Z" fill="#FF6584"/>
<path d="M617.735 218.674C617.889 217.29 617.234 216.081 616.272 215.974C615.309 215.866 614.403 216.901 614.249 218.285C614.094 219.668 614.749 220.877 615.712 220.985C616.674 221.092 617.58 220.058 617.735 218.674Z" fill="#E6E6E6"/>
<path d="M619.883 235.017C620.038 233.633 619.383 232.424 618.42 232.317C617.457 232.209 616.552 233.244 616.397 234.627C616.243 236.011 616.898 237.22 617.86 237.328C618.823 237.435 619.728 236.401 619.883 235.017Z" fill="#3F3D56"/>
<path d="M593.223 203.872C593.377 202.489 592.722 201.28 591.76 201.172C590.797 201.064 589.892 202.099 589.737 203.483C589.582 204.867 590.237 206.075 591.2 206.183C592.163 206.291 593.068 205.256 593.223 203.872Z" fill="#E6E6E6"/>
<path d="M606.344 198.942C606.499 197.558 605.844 196.349 604.881 196.241C603.918 196.134 603.013 197.168 602.858 198.552C602.703 199.936 603.358 201.145 604.321 201.252C605.284 201.36 606.189 200.325 606.344 198.942Z" fill="#FF6584"/>
<path d="M590.176 185.621C590.331 184.238 589.676 183.029 588.713 182.921C587.75 182.814 586.845 183.848 586.69 185.232C586.535 186.616 587.19 187.824 588.153 187.932C589.116 188.04 590.021 187.005 590.176 185.621Z" fill="#3F3D56"/>
<path d="M363.259 179.631C363.636 178.146 362.21 176.503 360.074 175.961C357.938 175.42 355.902 176.186 355.525 177.671C355.149 179.157 356.575 180.8 358.711 181.341C360.846 181.882 362.883 181.117 363.259 179.631Z" fill="white"/>
<path d="M337.177 179.463C337.553 177.978 336.127 176.335 333.992 175.793C331.856 175.252 329.82 176.018 329.443 177.503C329.067 178.989 330.493 180.632 332.629 181.173C334.764 181.714 336.801 180.949 337.177 179.463Z" fill="#3F3D56"/>
<path d="M368.154 201.268C368.53 199.782 367.104 198.139 364.968 197.598C362.833 197.057 360.796 197.823 360.42 199.308C360.043 200.794 361.47 202.437 363.605 202.978C365.741 203.519 367.777 202.754 368.154 201.268Z" fill="#FF6584"/>
<path d="M374.235 209.427C374.389 208.043 373.734 206.834 372.772 206.727C371.809 206.619 370.903 207.654 370.749 209.037C370.594 210.421 371.249 211.63 372.212 211.738C373.174 211.845 374.08 210.811 374.235 209.427Z" fill="#E6E6E6"/>
<path d="M376.375 225.77C376.53 224.386 375.875 223.177 374.912 223.07C373.95 222.962 373.044 223.997 372.889 225.38C372.735 226.764 373.39 227.973 374.352 228.08C375.315 228.188 376.221 227.153 376.375 225.77Z" fill="#3F3D56"/>
<path d="M349.715 194.625C349.87 193.242 349.215 192.033 348.252 191.925C347.289 191.817 346.384 192.852 346.229 194.236C346.075 195.619 346.73 196.828 347.692 196.936C348.655 197.044 349.56 196.009 349.715 194.625Z" fill="#E6E6E6"/>
<path d="M362.836 189.695C362.991 188.311 362.336 187.102 361.373 186.994C360.411 186.887 359.505 187.921 359.35 189.305C359.196 190.689 359.851 191.898 360.813 192.005C361.776 192.113 362.682 191.078 362.836 189.695Z" fill="#FF6584"/>
<path d="M346.672 176.374C346.827 174.991 346.172 173.782 345.209 173.674C344.247 173.566 343.341 174.601 343.186 175.985C343.032 177.368 343.687 178.577 344.649 178.685C345.612 178.793 346.517 177.758 346.672 176.374Z" fill="#3F3D56"/>
<path d="M529.674 253.545C523.317 245.09 519.643 235.635 519.523 224.856C519.318 224.275 519.352 223.637 519.617 223.081C519.883 222.525 520.358 222.097 520.938 221.891L542.604 214.225C543.185 214.02 543.824 214.054 544.379 214.32C544.935 214.585 545.363 215.06 545.569 215.64L555.72 244.329C555.925 244.91 555.891 245.548 555.625 246.104C555.36 246.66 554.885 247.088 554.305 247.294L532.639 254.96C532.058 255.164 531.419 255.13 530.864 254.865C530.308 254.6 529.88 254.125 529.674 253.545V253.545Z" fill="#F2F2F2"/>
<path opacity="0.2" d="M534.565 253.033C533.984 253.238 533.346 253.204 532.79 252.939C532.234 252.673 531.806 252.198 531.6 251.618C525.244 243.163 521.57 233.709 521.449 222.93C521.317 222.548 521.288 222.137 521.365 221.74L520.938 221.891C520.358 222.097 519.883 222.525 519.617 223.081C519.352 223.637 519.318 224.275 519.523 224.856C519.643 235.635 523.317 245.09 529.674 253.544C529.88 254.125 530.308 254.6 530.864 254.865C531.419 255.13 532.058 255.164 532.639 254.96L554.305 247.294C554.689 247.156 555.03 246.919 555.294 246.608C555.557 246.296 555.734 245.92 555.805 245.518L534.565 253.033Z" fill="black"/>
<path d="M544.712 231.561L530.207 236.738C529.977 236.821 529.722 236.808 529.501 236.703C529.28 236.598 529.109 236.41 529.026 236.179C528.944 235.948 528.957 235.694 529.062 235.472C529.167 235.251 529.355 235.08 529.586 234.998L544.091 229.82C544.205 229.78 544.326 229.762 544.447 229.768C544.569 229.774 544.687 229.804 544.797 229.856C544.907 229.908 545.005 229.981 545.086 230.071C545.168 230.161 545.231 230.266 545.272 230.38C545.312 230.494 545.33 230.615 545.324 230.737C545.318 230.858 545.288 230.977 545.236 231.086C545.184 231.196 545.111 231.294 545.021 231.376C544.931 231.457 544.826 231.52 544.712 231.561V231.561Z" fill="#2368FF"/>
<path d="M531.696 230.826L528.505 231.965C528.391 232.006 528.27 232.024 528.149 232.018C528.027 232.012 527.909 231.983 527.799 231.931C527.689 231.879 527.591 231.806 527.509 231.716C527.428 231.626 527.365 231.521 527.324 231.407C527.283 231.293 527.265 231.172 527.271 231.05C527.277 230.929 527.306 230.81 527.358 230.701C527.41 230.591 527.483 230.492 527.573 230.411C527.663 230.329 527.768 230.266 527.882 230.225L527.884 230.225L531.075 229.086C531.306 229.004 531.56 229.016 531.781 229.121C532.002 229.226 532.173 229.415 532.255 229.646C532.337 229.876 532.325 230.13 532.22 230.352C532.115 230.573 531.927 230.744 531.696 230.826V230.826Z" fill="#2368FF"/>
<path d="M547.447 239.212L532.943 244.389C532.829 244.43 532.707 244.448 532.586 244.442C532.465 244.437 532.346 244.407 532.236 244.355C532.127 244.303 532.028 244.23 531.947 244.14C531.865 244.05 531.802 243.945 531.761 243.831C531.72 243.717 531.702 243.596 531.708 243.475C531.714 243.353 531.744 243.234 531.796 243.125C531.847 243.015 531.92 242.917 532.01 242.835C532.1 242.754 532.205 242.691 532.319 242.65L532.321 242.649L546.826 237.471C547.057 237.389 547.311 237.402 547.532 237.507C547.753 237.612 547.924 237.801 548.006 238.031C548.088 238.262 548.076 238.516 547.971 238.737C547.866 238.959 547.678 239.129 547.447 239.212V239.212Z" fill="#2368FF"/>
<path d="M546.08 235.387L531.576 240.564C531.461 240.605 531.34 240.623 531.219 240.617C531.098 240.611 530.979 240.581 530.869 240.53C530.759 240.478 530.661 240.405 530.579 240.315C530.498 240.225 530.435 240.12 530.394 240.006C530.353 239.891 530.335 239.77 530.341 239.649C530.347 239.528 530.377 239.409 530.428 239.299C530.48 239.19 530.553 239.091 530.643 239.01C530.733 238.928 530.838 238.865 530.952 238.824L530.954 238.823L545.459 233.646C545.69 233.563 545.944 233.576 546.165 233.68C546.387 233.785 546.558 233.973 546.641 234.204C546.723 234.435 546.711 234.689 546.606 234.911C546.501 235.132 546.313 235.303 546.082 235.386L546.08 235.387Z" fill="#2368FF"/>
<path d="M531.193 222.187C533.321 222.187 535.046 220.462 535.046 218.334C535.046 216.206 533.321 214.481 531.193 214.481C529.065 214.481 527.34 216.206 527.34 218.334C527.34 220.462 529.065 222.187 531.193 222.187Z" fill="#CCCCCC"/>
<path d="M92.1589 111.942C81.8707 111.942 71.8135 108.891 63.2591 103.175C54.7048 97.4593 48.0374 89.3352 44.1003 79.8301C40.1632 70.325 39.133 59.8658 41.1402 49.7753C43.1473 39.6847 48.1016 30.416 55.3764 23.1411C62.6513 15.8662 71.9201 10.9119 82.0107 8.90481C92.1012 6.89768 102.56 7.92781 112.065 11.865C121.571 15.8021 129.695 22.4694 135.411 31.0238C141.126 39.5781 144.177 49.6353 144.177 59.9236C144.162 73.7149 138.676 86.9368 128.924 96.6888C119.172 106.441 105.95 111.926 92.1589 111.942V111.942ZM92.1589 8.72448C82.0327 8.72448 72.1339 11.7273 63.7142 17.3531C55.2946 22.9789 48.7323 30.9751 44.8571 40.3305C40.982 49.6859 39.9681 59.9804 41.9436 69.912C43.9191 79.8436 48.7954 88.9664 55.9557 96.1268C63.116 103.287 72.2388 108.163 82.1705 110.139C92.1021 112.114 102.397 111.1 111.752 107.225C121.107 103.35 129.104 96.7879 134.729 88.3682C140.355 79.9486 143.358 70.0498 143.358 59.9236C143.343 46.3494 137.944 33.3357 128.345 23.7373C118.747 14.1389 105.733 8.73982 92.1589 8.72448Z" fill="#9B9DA0"/>
<path d="M96.1283 71.3075H129.483C129.591 71.3075 129.696 71.2643 129.772 71.1875C129.849 71.1107 129.892 71.0065 129.892 70.8979C129.892 70.7892 129.849 70.6851 129.772 70.6083C129.696 70.5314 129.591 70.4883 129.483 70.4883H96.1283C96.0197 70.4883 95.9155 70.5314 95.8387 70.6083C95.7619 70.6851 95.7188 70.7892 95.7188 70.8979C95.7188 71.0065 95.7619 71.1107 95.8387 71.1875C95.9155 71.2643 96.0197 71.3075 96.1283 71.3075Z" fill="#3F3D56"/>
<path d="M137.79 70.0791C135.006 70.0822 132.337 71.1896 130.368 73.1582C128.4 75.1269 127.292 77.796 127.289 80.5801V125.113C127.292 127.897 128.4 130.566 130.368 132.535C132.337 134.503 135.006 135.611 137.79 135.614H206.898C209.683 135.611 212.352 134.503 214.32 132.535C216.289 130.566 217.396 127.897 217.399 125.113V80.5801C217.396 77.796 216.289 75.1269 214.32 73.1582C212.352 71.1896 209.683 70.0822 206.898 70.0791H137.79Z" fill="white"/>
<path d="M206.902 136.024H137.793C134.901 136.021 132.128 134.87 130.082 132.825C128.037 130.779 126.886 128.006 126.883 125.113V80.5805C126.886 77.6879 128.037 74.9146 130.082 72.8692C132.128 70.8238 134.901 69.6732 137.793 69.6699H206.902C209.794 69.6732 212.568 70.8238 214.613 72.8692C216.659 74.9146 217.809 77.6879 217.812 80.5805V125.113C217.809 128.006 216.659 130.779 214.613 132.825C212.568 134.87 209.794 136.021 206.902 136.024V136.024ZM137.793 70.4891C135.118 70.4921 132.553 71.5563 130.661 73.4481C128.769 75.34 127.705 77.905 127.702 80.5805V125.113C127.705 127.789 128.769 130.354 130.661 132.246C132.553 134.138 135.118 135.202 137.793 135.205H206.902C209.577 135.202 212.142 134.138 214.034 132.246C215.926 130.354 216.99 127.789 216.993 125.113V80.5805C216.99 77.905 215.926 75.34 214.034 73.4481C212.142 71.5563 209.577 70.4921 206.902 70.4891H137.793Z" fill="#3F3D56"/>
<path d="M94.9452 67.4731C93.912 67.6526 92.9897 68.2281 92.3744 69.0772C91.7591 69.9264 91.4994 70.9821 91.6506 72.0198C91.6847 72.2302 91.7361 72.4375 91.8043 72.6394L71.1992 90.7991L78.8315 96.1451L97.0417 74.9321C97.8572 74.5843 98.5346 73.9763 98.9682 73.2029C99.4019 72.4296 99.5672 71.5345 99.4386 70.6572C99.3607 70.1588 99.1853 69.6806 98.9225 69.2499C98.6597 68.8192 98.3147 68.4445 97.9071 68.1472C97.4995 67.8499 97.0373 67.6358 96.5469 67.517C96.0566 67.3983 95.5476 67.3774 95.0492 67.4553C95.0144 67.4608 94.9798 67.4667 94.9452 67.4731Z" fill="#FFB6B6"/>
<path d="M87.1285 88.0237C87.1285 88.0237 82.4796 93.377 76.819 99.439C76.4258 99.8568 76.0326 100.279 75.6271 100.705C72.1865 104.35 68.4797 108.135 65.2644 111.071C61.8361 114.213 58.9649 116.4 57.5722 116.453C57.4563 116.461 57.3399 116.449 57.2282 116.417C53.0626 115.163 56.495 116.654 54.7133 119.198C52.9234 121.745 53.1446 118.403 49.1346 116.417C45.1329 114.43 47.2628 116.404 45.6654 119.542C45.1698 120.525 40.8199 120.324 35.0856 119.587C34.4385 114.119 33.4964 109.4 33.4964 109.4C33.4847 106.121 33.8197 102.849 34.4958 99.6397C44.4858 99.4595 52.7472 99.3571 53.1691 99.4882C54.2586 99.8199 56.6015 98.9803 59.1901 97.518C59.5588 97.3091 60.2551 96.8258 61.1767 96.1459C61.9918 95.5479 62.9748 94.8024 64.0684 93.9669C65.2972 93.0166 67.3902 92.4964 68.0701 90.8417C70.0443 86.0658 69.3685 89.6293 69.8969 89.4081C70.499 89.1542 71.5639 89.0558 72.1865 88.6913C72.3569 88.6168 72.497 88.4867 72.5841 88.3223C72.6711 88.158 72.6999 87.9689 72.6657 87.7861C72.6353 87.6307 72.5829 87.4803 72.5101 87.3397C71.9449 86.2051 72.805 86.0945 73.616 85.9757C73.9521 85.9591 74.2794 85.8622 74.5703 85.6931C77.8266 83.0963 80.2924 81.1016 80.2924 81.1016L81.1771 82.0027L81.1812 82.0068L86.4158 87.3069L87.1285 88.0237Z" fill="#3F3D56"/>
<path d="M82.6609 240.785H30.8974C28.6817 240.785 26.8789 238.51 26.8789 235.713V180.709C26.8789 177.912 28.6817 175.637 30.8974 175.637H82.6609C84.8766 175.637 86.6794 177.912 86.6794 180.709V235.713C86.6794 238.51 84.8766 240.785 82.6609 240.785Z" fill="#525252"/>
<path d="M0.00309079 240.673C-0.0122877 240.819 0.0301283 240.965 0.121251 241.08C0.212374 241.195 0.344949 241.27 0.490532 241.288H218.513C218.651 241.256 218.775 241.177 218.863 241.065C218.952 240.954 219 240.815 219 240.673C219 240.53 218.952 240.392 218.863 240.28C218.775 240.169 218.651 240.09 218.513 240.058H0.490507C0.34493 240.076 0.212368 240.151 0.121251 240.266C0.0301345 240.381 -0.0122828 240.527 0.00309079 240.673V240.673Z" fill="#9B9DA0"/>
<path d="M118.607 233.157L123.825 233.157L126.308 213.026L118.605 213.027L118.607 233.157Z" fill="#A0616A"/>
<path d="M118.422 238.602L134.471 238.601V238.399C134.471 236.742 133.813 235.153 132.642 233.982C131.47 232.81 129.881 232.152 128.225 232.152H128.224L125.293 229.928L119.823 232.152L118.422 232.152L118.422 238.602Z" fill="#2F2E41"/>
<path d="M86.1875 230.758L91.2112 232.172L99.0573 213.467L91.6425 211.38L86.1875 230.758Z" fill="#A0616A"/>
<path d="M84.5391 235.949L99.9878 240.298L100.043 240.102C100.492 238.508 100.289 236.8 99.4786 235.355C98.6685 233.91 97.3175 232.846 95.7228 232.396L95.7224 232.396L93.5034 229.461L87.6355 230.12L86.2869 229.74L84.5391 235.949Z" fill="#2F2E41"/>
<path d="M72.8182 145.034C72.8182 145.034 71.1471 144.867 75.4315 146.35C80.068 147.96 87.1048 147.751 93.8426 150.168C95.9234 150.913 98.0328 151.675 100.126 152.437C100.548 152.588 100.97 152.744 101.391 152.895C104.115 153.891 106.794 154.886 109.325 155.836C109.682 155.972 110.034 156.107 110.382 156.238C110.39 156.242 110.398 156.242 110.402 156.246C118.656 159.383 125.148 162.07 126.221 163.143C127.368 164.29 127.843 172.04 127.974 181.616C128.212 199.364 127.274 223.39 127.274 223.39L117.619 223.354C117.619 223.354 117.558 223.141 117.439 222.743C117.226 222.01 116.829 220.646 116.301 218.864C114.105 211.422 109.686 196.673 107.245 189.919C106.556 188.01 106.024 186.74 105.741 186.453C104.103 184.774 105.741 184.033 107.38 182.968C109.018 181.903 107.38 181.575 106.175 180.183C104.971 178.79 106.626 175.652 106.626 175.652C106.626 175.652 105.537 175.624 103.8 175.579C101.236 175.513 97.2464 175.415 93.2528 175.317C93.2487 175.321 93.2487 175.321 93.2487 175.317C91.7455 175.28 90.2423 175.243 88.8169 175.21C87.711 175.181 86.6502 175.157 85.6672 175.132C82.7222 175.067 80.494 175.022 79.937 175.022C78.1184 175.022 79.5315 175.022 78.4338 173.584C78.2653 173.369 78.0834 173.165 77.889 172.974C77.6137 172.667 77.3122 172.385 76.9879 172.13C76.7585 172.023 77.0698 172.683 76.8978 173.539C76.8037 174.003 76.5841 174.432 76.2629 174.78C74.6368 176.586 69.648 174.637 69.648 174.637C61.4398 178.741 54.7061 178.446 49.5206 176.525C45.7958 175.09 42.4547 172.81 39.76 169.865C38.6935 168.743 37.7362 167.523 36.9011 166.22L36.2252 166.093C36.2252 166.093 35.3159 135.626 36.3644 133.565C37.9987 130.354 62.1688 132.746 62.1688 132.746L72.8182 145.034Z" fill="#2F2E41"/>
<path d="M117.839 21.7469H151.194C151.302 21.7469 151.407 21.7038 151.483 21.6269C151.56 21.5501 151.603 21.446 151.603 21.3373C151.603 21.2287 151.56 21.1245 151.483 21.0477C151.407 20.9709 151.302 20.9277 151.194 20.9277H117.839C117.731 20.9277 117.626 20.9709 117.55 21.0477C117.473 21.1245 117.43 21.2287 117.43 21.3373C117.43 21.446 117.473 21.5501 117.55 21.6269C117.626 21.7038 117.731 21.7469 117.839 21.7469Z" fill="#3F3D56"/>
<path d="M162.995 54.3199C156.232 45.3248 152.324 35.2659 152.195 23.798C151.978 23.18 152.014 22.5008 152.296 21.9094C152.578 21.318 153.084 20.8627 153.701 20.6435L176.752 12.4875C177.37 12.2696 178.049 12.3057 178.641 12.588C179.232 12.8703 179.687 13.3756 179.906 13.9931L190.706 44.515C190.924 45.133 190.888 45.8123 190.605 46.4036C190.323 46.995 189.818 47.4503 189.2 47.6696L166.149 55.8256C165.531 56.0435 164.852 56.0073 164.261 55.725C163.669 55.4428 163.214 54.9374 162.995 54.3199V54.3199Z" fill="#E6E6E6"/>
<path d="M161.501 44.4757C157.433 40.3632 155.692 33.0284 154.558 24.8534C154.354 24.2746 154.387 23.6385 154.652 23.0847C154.916 22.5308 155.389 22.1044 155.968 21.8991L175.778 14.8897C176.357 14.6856 176.993 14.7195 177.547 14.9838C178.101 15.2481 178.527 15.7214 178.732 16.2997L188.342 43.4601C188.547 44.0389 188.513 44.675 188.248 45.2289C187.984 45.7827 187.511 46.2091 186.932 46.4144L174.66 50.7566C172.082 51.6656 169.249 51.5148 166.782 50.3373C164.315 49.1598 162.415 47.0517 161.501 44.4757V44.4757Z" fill="white"/>
<path d="M178.999 30.9305L163.568 36.4388C163.446 36.4822 163.317 36.5013 163.188 36.4948C163.059 36.4884 162.933 36.4566 162.816 36.4013C162.699 36.346 162.595 36.2683 162.508 36.1726C162.421 36.0769 162.355 35.965 162.311 35.8434C162.268 35.7218 162.249 35.5929 162.255 35.4639C162.262 35.335 162.293 35.2086 162.349 35.0919C162.404 34.9752 162.482 34.8706 162.577 34.784C162.673 34.6974 162.785 34.6304 162.907 34.587L178.338 29.0787C178.46 29.0353 178.589 29.0163 178.718 29.0227C178.847 29.0291 178.973 29.0609 179.09 29.1162C179.206 29.1715 179.311 29.2492 179.398 29.3449C179.484 29.4407 179.551 29.5525 179.595 29.6741C179.638 29.7957 179.657 29.9246 179.651 30.0536C179.644 30.1825 179.612 30.3089 179.557 30.4256C179.502 30.5423 179.424 30.6469 179.328 30.7335C179.233 30.8202 179.121 30.8871 178.999 30.9305V30.9305Z" fill="#2368FF"/>
<path d="M165.149 30.1492L161.754 31.3611C161.509 31.4484 161.238 31.4347 161.003 31.323C160.768 31.2113 160.586 31.0107 160.499 30.7653C160.411 30.5199 160.424 30.2498 160.536 30.0143C160.647 29.7788 160.848 29.5971 161.093 29.5093L164.488 28.2975C164.734 28.2098 165.004 28.2233 165.24 28.3349C165.475 28.4466 165.657 28.6473 165.744 28.8929C165.832 29.1384 165.819 29.4087 165.707 29.6444C165.595 29.88 165.395 30.0616 165.149 30.1492V30.1492Z" fill="#2368FF"/>
<path d="M181.905 39.0715L166.474 44.5798C166.352 44.6232 166.223 44.6422 166.094 44.6358C165.965 44.6294 165.839 44.5976 165.722 44.5423C165.606 44.487 165.501 44.4093 165.414 44.3136C165.328 44.2178 165.261 44.106 165.217 43.9844C165.174 43.8628 165.155 43.7338 165.161 43.6049C165.168 43.476 165.2 43.3495 165.255 43.2329C165.31 43.1162 165.388 43.0116 165.484 42.9249C165.579 42.8383 165.691 42.7714 165.813 42.728L181.244 37.2197C181.366 37.1761 181.495 37.157 181.624 37.1633C181.753 37.1696 181.88 37.2013 181.996 37.2566C182.113 37.3119 182.218 37.3896 182.305 37.4854C182.391 37.5811 182.458 37.6931 182.502 37.8147C182.545 37.9364 182.564 38.0654 182.558 38.1945C182.551 38.3235 182.519 38.45 182.464 38.5667C182.409 38.6834 182.331 38.7881 182.235 38.8747C182.139 38.9613 182.027 39.0282 181.905 39.0715H181.905Z" fill="#2368FF"/>
<path d="M180.452 35.0015L165.021 40.5098C164.775 40.5974 164.505 40.5839 164.269 40.4723C164.034 40.3606 163.852 40.1599 163.764 39.9144C163.677 39.6688 163.69 39.3985 163.802 39.1629C163.913 38.9272 164.114 38.7456 164.36 38.658L179.791 33.1497C180.037 33.0623 180.307 33.076 180.542 33.1877C180.778 33.2994 180.959 33.5 181.047 33.7454C181.134 33.9908 181.121 34.2609 181.009 34.4964C180.898 34.732 180.698 34.9136 180.452 35.0015V35.0015Z" fill="#2368FF"/>
<path d="M153.51 27.0717C155.772 27.0717 157.606 25.2379 157.606 22.9758C157.606 20.7137 155.772 18.8799 153.51 18.8799C151.248 18.8799 149.414 20.7137 149.414 22.9758C149.414 25.2379 151.248 27.0717 153.51 27.0717Z" fill="#2368FF"/>
<path d="M79.4046 13.9647H46.0502C45.9416 13.9647 45.8374 13.9215 45.7606 13.8447C45.6838 13.7679 45.6406 13.6637 45.6406 13.5551C45.6406 13.4465 45.6838 13.3423 45.7606 13.2655C45.8374 13.1887 45.9416 13.1455 46.0502 13.1455H79.4046C79.5132 13.1455 79.6174 13.1887 79.6942 13.2655C79.7711 13.3423 79.8142 13.4465 79.8142 13.5551C79.8142 13.6637 79.7711 13.7679 79.6942 13.8447C79.6174 13.9215 79.5132 13.9647 79.4046 13.9647Z" fill="#3F3D56"/>
<path d="M2.91421 28.4934C5.81101 17.6188 11.3072 8.3317 20.2467 1.14739C20.5981 0.594312 21.1546 0.203219 21.794 0.0599082C22.4335 -0.0834021 23.1036 0.0327771 23.6575 0.382959L44.3098 13.4728C44.8629 13.8243 45.254 14.3808 45.3973 15.0202C45.5406 15.6596 45.4244 16.3298 45.0742 16.8836L27.7417 44.2296C27.3903 44.7827 26.8338 45.1738 26.1944 45.3171C25.555 45.4604 24.8848 45.3442 24.3309 44.9941L3.67865 31.9042C3.12557 31.5527 2.73447 30.9963 2.59116 30.3568C2.44785 29.7174 2.56403 29.0472 2.91421 28.4934V28.4934Z" fill="#E6E6E6"/>
<path d="M9.73427 21.2381C10.4561 15.4992 15.1489 9.5994 20.8772 3.65761C21.2063 3.13962 21.7275 2.77333 22.3263 2.63911C22.9251 2.5049 23.5528 2.61371 24.0715 2.94168L41.8204 14.1913C42.3384 14.5205 42.7047 15.0416 42.8389 15.6405C42.9732 16.2393 42.8644 16.867 42.5364 17.3857L27.1128 41.7199C26.7837 42.2379 26.2625 42.6042 25.6637 42.7384C25.0648 42.8726 24.4371 42.7638 23.9184 42.4358L12.9234 35.4669C10.6161 34.0008 8.98452 31.6794 8.38665 29.0119C7.78879 26.3444 8.27343 23.5487 9.73427 21.2381Z" fill="white"/>
<path d="M31.197 26.6308L17.3332 17.8974C17.1129 17.7583 16.9568 17.5374 16.8993 17.2833C16.8417 17.0292 16.8874 16.7626 17.0263 16.5421C17.1652 16.3217 17.3859 16.1653 17.64 16.1075C17.894 16.0497 18.1607 16.0951 18.3813 16.2338L32.2451 24.9672C32.3544 25.0359 32.4492 25.1255 32.5239 25.2309C32.5986 25.3363 32.6518 25.4554 32.6805 25.5814C32.7092 25.7073 32.7127 25.8377 32.691 25.9651C32.6692 26.0924 32.6226 26.2142 32.5537 26.3235C32.4849 26.4328 32.3951 26.5275 32.2897 26.6021C32.1842 26.6767 32.0651 26.7298 31.9391 26.7584C31.8131 26.7869 31.6827 26.7903 31.5554 26.7684C31.428 26.7466 31.3063 26.6998 31.197 26.6308Z" fill="#2368FF"/>
<path d="M23.2561 15.2573L20.2061 13.336C20.0967 13.2672 20.0019 13.1776 19.9272 13.0722C19.8525 12.9668 19.7993 12.8478 19.7706 12.7218C19.7419 12.5958 19.7384 12.4654 19.7601 12.3381C19.7819 12.2107 19.8285 12.0889 19.8974 11.9796C19.9662 11.8703 20.056 11.7756 20.1614 11.701C20.2669 11.6264 20.386 11.5733 20.512 11.5448C20.638 11.5163 20.7684 11.5128 20.8957 11.5347C21.0231 11.5566 21.1448 11.6034 21.2541 11.6723L24.3041 13.5937C24.4135 13.6624 24.5082 13.7521 24.583 13.8575C24.6577 13.9628 24.7109 14.0819 24.7396 14.2079C24.7682 14.3339 24.7718 14.4643 24.75 14.5916C24.7283 14.7189 24.6816 14.8408 24.6128 14.9501C24.5439 15.0594 24.4542 15.154 24.3487 15.2286C24.2433 15.3033 24.1241 15.3563 23.9981 15.3849C23.8721 15.4134 23.7417 15.4169 23.6144 15.395C23.4871 15.3731 23.3653 15.3263 23.2561 15.2573V15.2573Z" fill="#2368FF"/>
<path d="M26.5855 33.9464L12.7217 25.2129C12.6123 25.1442 12.5176 25.0546 12.4428 24.9492C12.3681 24.8438 12.3149 24.7247 12.2862 24.5987C12.2576 24.4728 12.254 24.3424 12.2758 24.215C12.2975 24.0877 12.3442 23.9659 12.413 23.8566C12.4819 23.7473 12.5716 23.6526 12.6771 23.578C12.7825 23.5034 12.9017 23.4503 13.0277 23.4217C13.1537 23.3932 13.2841 23.3898 13.4114 23.4117C13.5387 23.4336 13.6605 23.4803 13.7697 23.5493L27.6335 32.2827C27.8538 32.4218 28.0099 32.6427 28.0675 32.8968C28.125 33.1509 28.0793 33.4175 27.9405 33.638C27.8016 33.8585 27.5809 34.0148 27.3268 34.0726C27.0727 34.1304 26.8061 34.085 26.5855 33.9464V33.9464Z" fill="#2368FF"/>
<path d="M28.8941 30.2891L15.0303 21.5557C14.9209 21.487 14.8261 21.3973 14.7514 21.292C14.6767 21.1866 14.6235 21.0675 14.5948 20.9415C14.5662 20.8155 14.5626 20.6852 14.5843 20.5578C14.6061 20.4305 14.6527 20.3087 14.7216 20.1993C14.7905 20.09 14.8802 19.9954 14.9857 19.9208C15.0911 19.8461 15.2103 19.7931 15.3363 19.7645C15.4623 19.736 15.5926 19.7326 15.72 19.7544C15.8473 19.7763 15.9691 19.8231 16.0783 19.8921L29.9421 28.6255C30.1627 28.7645 30.3191 28.9854 30.3768 29.2396C30.4345 29.4939 30.3889 29.7607 30.2499 29.9813C30.1811 30.0906 30.0915 30.1852 29.9861 30.2598C29.8807 30.3343 29.7617 30.3874 29.6358 30.416C29.3815 30.4738 29.1147 30.4281 28.8941 30.2891L28.8941 30.2891Z" fill="#2368FF"/>
<path d="M43.7366 19.2895C45.9987 19.2895 47.8325 17.4557 47.8325 15.1936C47.8325 12.9315 45.9987 11.0977 43.7366 11.0977C41.4744 11.0977 39.6406 12.9315 39.6406 15.1936C39.6406 17.4557 41.4744 19.2895 43.7366 19.2895Z" fill="#2368FF"/>
<path d="M131.799 76.6323C134.061 76.6323 135.895 74.7985 135.895 72.5364C135.895 70.2742 134.061 68.4404 131.799 68.4404C129.537 68.4404 127.703 70.2742 127.703 72.5364C127.703 74.7985 129.537 76.6323 131.799 76.6323Z" fill="#2368FF"/>
<path d="M112.625 174.886C110.917 184.192 103.68 206.003 99.3052 218.77C97.3105 224.603 97.1466 222.407 97.1466 222.407L94.8734 221.69L91.0396 220.478L89.6388 220.036L87.9431 219.499C87.9431 219.499 87.1116 204.664 86.8454 193.535C86.7553 189.947 86.5996 187.383 86.3416 186.875C85.2766 184.786 87.0584 184.565 88.9384 184.037C90.8225 183.508 89.3521 182.714 88.6189 181.018C88.1233 179.887 89.0981 178.384 89.7904 177.524C89.9811 177.282 90.1848 177.051 90.4007 176.832C90.4007 176.832 85.6084 175.202 80.1895 173.363C80.1854 173.367 80.1854 173.363 80.1854 173.363C79.6407 173.178 79.0918 172.994 78.543 172.805C80.4517 172.117 81.7214 171.585 82.0081 171.302C83.6874 169.664 84.4288 171.302 85.4937 172.941C86.5587 174.579 86.8864 172.941 88.279 171.736C89.6716 170.532 92.8091 172.187 92.8091 172.187C92.8091 172.187 92.8377 171.098 92.8828 169.361C92.9483 166.797 93.0466 162.807 93.1449 158.814C93.1408 158.81 93.1408 158.81 93.1449 158.81C93.1818 157.307 93.2187 155.803 93.2514 154.378C96.1391 156.59 98.9407 158.761 101.48 160.768C101.484 160.772 101.492 160.776 101.492 160.784C107.599 165.609 112.183 169.484 112.826 170.712C113.117 171.27 113.018 172.748 112.625 174.886Z" fill="#2F2E41"/>
<path d="M73.2273 140.119L71.72 141.098L67.8617 143.604L62.6271 147L34.7256 165.104C34.7256 165.104 31.2769 158.075 34.4348 151.964C34.8412 151.191 35.1718 150.38 35.4219 149.544C36.6999 145.161 34.2423 143.26 34.2423 143.26C34.2423 143.26 30.1464 139.275 34.0744 135.601C34.8813 134.847 35.3318 133.303 35.5366 131.321C35.8807 128.06 35.5653 123.62 35.0861 119.586C34.4389 114.118 33.4968 109.399 33.4968 109.399C33.4851 106.12 33.8201 102.848 34.4962 99.6388C35.2458 96.1818 36.45 92.8969 38.2317 90.169C38.8852 89.1568 39.6385 88.2128 40.4804 87.351C41.6585 86.1434 43.0375 85.1497 44.5558 84.4142C46.8332 83.3165 50.7366 83.976 54.1772 84.4552C54.8694 84.5494 55.5411 84.6395 56.176 84.705C56.8056 84.7782 57.4386 84.8178 58.0724 84.8238L59.4978 90.0256L60.0385 91.9958L60.3088 92.9829L60.9232 95.2275L61.1771 96.145L65.2648 111.07L68.603 123.244L70.4462 129.969L73.2027 140.025L73.2273 140.119Z" fill="#3F3D56"/>
<path d="M50.3903 81.2425C57.257 81.2425 62.8236 75.676 62.8236 68.8093C62.8236 61.9425 57.257 56.376 50.3903 56.376C43.5236 56.376 37.957 61.9425 37.957 68.8093C37.957 75.676 43.5236 81.2425 50.3903 81.2425Z" fill="#FFB6B6"/>
<path d="M48.0631 79.0859L47.0504 82.3243C44.8047 81.2156 42.5289 80.087 40.659 78.421C38.7891 76.755 37.3428 74.456 37.2543 71.9532C37.2085 70.6606 37.5216 69.3566 37.3068 68.0812C37.0641 66.6399 36.1745 65.3905 35.7673 63.9869C35.3864 62.5167 35.5298 60.9597 36.1729 59.5838C36.8159 58.2078 37.9183 57.0991 39.2905 56.4482C41.3515 55.5424 43.7082 55.7967 45.9488 55.5778C48.1893 55.3589 50.6887 54.3453 51.3193 52.1842C51.5551 51.3762 51.5281 50.4235 52.2499 49.8945C52.6126 49.652 53.0522 49.5524 53.484 49.6149C53.9159 49.6773 54.3093 49.8973 54.5885 50.2326C55.6436 51.4306 55.3839 53.0081 55.1076 54.4423C56.5606 54.2526 57.9579 53.7614 59.2101 53.0001C60.4622 52.2389 61.5414 51.2244 62.3786 50.0217C62.7716 50.3898 63.0878 50.8321 63.3089 51.3232C63.53 51.8142 63.6516 52.3442 63.6666 52.8825C63.6816 53.4208 63.5897 53.9567 63.3963 54.4593C63.2029 54.9619 62.9118 55.4212 62.5399 55.8105C63.2464 55.8108 63.9324 55.573 64.4871 55.1355C65.0419 54.698 65.433 54.0864 65.5974 53.3992C66.4554 54.5844 67.3361 55.8203 67.612 57.2572C67.8878 58.694 67.3758 60.3935 66.058 61.0293C65.3855 61.2951 64.6637 61.4133 63.9414 61.3759L58.4171 61.4809C56.7743 61.5121 55.2081 62.1811 54.0498 63.3465C52.8914 64.5118 52.2319 66.082 52.2106 67.725C50.6034 67.5706 48.948 67.4196 47.4282 68.0964C46.7202 68.3945 46.1236 68.9071 45.7224 69.5622C44.718 71.2875 45.7145 73.0807 46.5977 74.6499C47.3526 75.9914 48.0683 77.6068 47.4418 79.0128" fill="#2F2E41"/>
<path d="M104.818 205.328L81.7675 197.172C81.15 196.952 80.6447 196.497 80.3624 195.906C80.0801 195.314 80.044 194.635 80.2619 194.017L91.0614 163.495C91.2806 162.878 91.7359 162.372 92.3273 162.09C92.9187 161.808 93.5979 161.772 94.2159 161.989L117.267 170.145C117.884 170.365 118.39 170.82 118.672 171.411C118.954 172.003 118.99 172.682 118.772 173.3C118.644 184.768 114.736 194.827 107.973 203.822C107.754 204.439 107.298 204.945 106.707 205.227C106.116 205.509 105.436 205.545 104.818 205.328V205.328Z" fill="#E6E6E6"/>
<path d="M96.3063 200.259L84.0342 195.916C83.4559 195.711 82.9826 195.285 82.7182 194.731C82.4539 194.177 82.42 193.541 82.624 192.962L92.2341 165.802C92.4395 165.223 92.8659 164.75 93.4197 164.486C93.9736 164.221 94.6097 164.188 95.1885 164.392L114.999 171.401C115.577 171.606 116.05 172.033 116.315 172.587C116.579 173.14 116.613 173.777 116.409 174.355C115.274 182.53 113.533 189.865 109.466 193.978C108.551 196.554 106.652 198.662 104.185 199.839C101.718 201.017 98.8844 201.168 96.3063 200.259V200.259Z" fill="white"/>
<path d="M91.3733 179.177C91.4612 178.931 91.6429 178.731 91.8784 178.619C92.1139 178.508 92.3841 178.494 92.6297 178.581L108.061 184.09C108.183 184.133 108.295 184.2 108.391 184.286C108.487 184.373 108.565 184.478 108.62 184.594C108.675 184.711 108.707 184.838 108.714 184.967C108.72 185.096 108.701 185.225 108.658 185.346C108.614 185.468 108.547 185.58 108.461 185.676C108.374 185.771 108.269 185.849 108.152 185.904C108.036 185.96 107.909 185.991 107.78 185.998C107.651 186.004 107.522 185.985 107.4 185.941L91.9687 180.433C91.7233 180.345 91.5229 180.164 91.4112 179.928C91.2996 179.692 91.286 179.422 91.3733 179.177Z" fill="#2368FF"/>
<path d="M105.225 178.395C105.313 178.15 105.494 177.95 105.73 177.838C105.965 177.726 106.236 177.713 106.481 177.8L109.876 179.012C109.998 179.055 110.11 179.122 110.205 179.209C110.301 179.295 110.379 179.4 110.434 179.517C110.489 179.633 110.521 179.76 110.528 179.889C110.534 180.018 110.515 180.147 110.472 180.268C110.428 180.39 110.361 180.502 110.275 180.597C110.188 180.693 110.083 180.771 109.967 180.826C109.85 180.881 109.724 180.913 109.595 180.92C109.466 180.926 109.337 180.907 109.215 180.864L105.82 179.652C105.575 179.564 105.374 179.382 105.263 179.147C105.151 178.911 105.138 178.641 105.225 178.395V178.395Z" fill="#2368FF"/>
<path d="M88.4671 187.317C88.555 187.072 88.7366 186.871 88.9721 186.76C89.2077 186.648 89.4779 186.635 89.7235 186.722L105.155 192.23C105.277 192.274 105.389 192.34 105.485 192.427C105.581 192.514 105.658 192.618 105.714 192.735C105.769 192.852 105.801 192.978 105.807 193.107C105.814 193.236 105.795 193.365 105.751 193.487C105.708 193.609 105.641 193.721 105.554 193.816C105.468 193.912 105.363 193.99 105.246 194.045C105.129 194.1 105.003 194.132 104.874 194.138C104.745 194.145 104.616 194.126 104.494 194.082L89.0624 188.574C88.8171 188.486 88.6166 188.304 88.505 188.069C88.3934 187.833 88.3797 187.563 88.4671 187.317V187.317Z" fill="#2368FF"/>
<path d="M89.9202 183.246C90.0081 183.001 90.1897 182.8 90.4253 182.689C90.6608 182.577 90.931 182.563 91.1766 182.651L106.608 188.159C106.73 188.202 106.842 188.269 106.938 188.356C107.034 188.442 107.111 188.547 107.167 188.664C107.222 188.78 107.254 188.907 107.261 189.036C107.267 189.165 107.248 189.294 107.205 189.416C107.161 189.537 107.094 189.649 107.007 189.745C106.921 189.841 106.816 189.919 106.699 189.974C106.582 190.029 106.456 190.061 106.327 190.067C106.198 190.073 106.069 190.054 105.947 190.011L90.5156 184.502C90.2702 184.415 90.0697 184.233 89.9581 183.997C89.8465 183.762 89.8329 183.492 89.9202 183.246V183.246Z" fill="#2368FF"/>
<path d="M97.8345 162.433C97.5393 161.427 96.8631 160.575 95.9497 160.06C95.0364 159.545 93.9581 159.406 92.9442 159.674C92.739 159.732 92.5388 159.806 92.3459 159.897L71.9716 141.479L67.5234 149.667L90.6605 165.36C91.0984 166.131 91.7792 166.735 92.5966 167.078C93.414 167.422 94.3221 167.485 95.1792 167.258C95.6656 167.124 96.1209 166.896 96.5191 166.586C96.9172 166.276 97.2505 165.891 97.4998 165.452C97.7491 165.013 97.9096 164.53 97.972 164.029C98.0345 163.529 97.9978 163.021 97.8639 162.534C97.8546 162.5 97.8447 162.467 97.8345 162.433Z" fill="#FFB6B6"/>
<path d="M82.6253 149.416L81.8307 150.399L77.1531 156.203L76.5224 156.989C76.5224 156.989 69.8419 152.402 62.6208 146.999C53.9538 140.507 44.5086 132.836 44.9305 130.497C45.7046 126.217 44.611 129.792 41.879 128.31C39.1512 126.823 42.4934 126.663 44.013 122.457C45.5367 118.254 43.8164 120.593 40.5192 119.364C38.3197 118.545 39.4706 99.7528 40.4741 87.3504C41.6522 86.1427 43.0312 85.149 44.5496 84.4136C47.2816 83.0947 52.3646 84.3112 56.1697 84.7044C58.3242 100.584 61.433 123.812 61.2937 124.545C61.0807 125.664 62.1866 127.896 63.9315 130.304C64.7507 131.443 68.9736 135.772 73.1965 140.024C77.9068 144.767 82.6253 149.416 82.6253 149.416Z" fill="#3F3D56"/>
<path d="M183.053 90.9563H139.687C139.564 90.9566 139.442 90.9326 139.329 90.8857C139.215 90.8388 139.112 90.77 139.025 90.6831C138.938 90.5962 138.868 90.4931 138.821 90.3795C138.774 90.2659 138.75 90.1441 138.75 90.0211C138.75 89.8982 138.774 89.7764 138.821 89.6628C138.868 89.5492 138.938 89.446 139.025 89.3592C139.112 89.2723 139.215 89.2034 139.329 89.1566C139.442 89.1097 139.564 89.0857 139.687 89.0859H183.053C183.301 89.0865 183.539 89.1852 183.713 89.3605C183.888 89.5359 183.987 89.7734 183.987 90.0211C183.987 90.2688 183.888 90.5064 183.713 90.6817C183.539 90.8571 183.301 90.9558 183.053 90.9563V90.9563Z" fill="#2368FF"/>
<path d="M205.006 99.5061H139.687C139.564 99.5064 139.442 99.4824 139.329 99.4355C139.215 99.3886 139.112 99.3198 139.025 99.2329C138.938 99.146 138.868 99.0429 138.821 98.9293C138.774 98.8157 138.75 98.6939 138.75 98.5709C138.75 98.448 138.774 98.3262 138.821 98.2126C138.868 98.099 138.938 97.9958 139.025 97.909C139.112 97.8221 139.215 97.7533 139.329 97.7064C139.442 97.6595 139.564 97.6355 139.687 97.6357H205.006C205.254 97.6363 205.491 97.735 205.666 97.9103C205.841 98.0857 205.939 98.3232 205.939 98.5709C205.939 98.8186 205.841 99.0562 205.666 99.2315C205.491 99.4069 205.254 99.5056 205.006 99.5061Z" fill="#F2F2F2"/>
<path d="M205.008 106.184H139.686C139.438 106.184 139.2 106.282 139.024 106.458C138.849 106.633 138.75 106.871 138.75 107.12C138.75 107.368 138.849 107.606 139.024 107.781C139.2 107.957 139.438 108.055 139.686 108.055H205.008C205.256 108.055 205.494 107.957 205.67 107.781C205.845 107.606 205.944 107.368 205.944 107.12C205.944 106.871 205.845 106.633 205.67 106.458C205.494 106.282 205.256 106.184 205.008 106.184V106.184Z" fill="#F2F2F2"/>
<path d="M205.006 116.606H139.687C139.564 116.606 139.442 116.582 139.329 116.535C139.215 116.488 139.112 116.419 139.025 116.333C138.938 116.246 138.868 116.142 138.821 116.029C138.774 115.915 138.75 115.794 138.75 115.671C138.75 115.548 138.774 115.426 138.821 115.312C138.868 115.199 138.938 115.095 139.025 115.009C139.112 114.922 139.215 114.853 139.329 114.806C139.442 114.759 139.564 114.735 139.687 114.735H205.006C205.254 114.736 205.491 114.835 205.666 115.01C205.841 115.185 205.939 115.423 205.939 115.671C205.939 115.918 205.841 116.156 205.666 116.331C205.491 116.506 205.254 116.605 205.006 116.606Z" fill="#F2F2F2"/>
</svg>
