<svg xmlns="http://www.w3.org/2000/svg" xmlns:xlink="http://www.w3.org/1999/xlink" width="509.093" height="130.292" viewBox="0 0 509.093 130.292">
  <defs>
    <clipPath id="clip-path">
      <path id="Path_328" data-name="Path 328" d="M295.159,50.578,379.292,24.1,484.582,1.621,295.159,1.466Z" fill="none"/>
    </clipPath>
    <clipPath id="clip-path-2">
      <path id="Path_348" data-name="Path 348" d="M397.679,29.312,307.148,49.578H474.375V2.621Z" fill="none"/>
    </clipPath>
  </defs>
  <g id="Group_204" data-name="Group 204" transform="translate(0 -1.466)">
    <g id="Group_197" data-name="Group 197">
      <g id="Group_196" data-name="Group 196" clip-path="url(#clip-path)">
        <path id="Path_323" data-name="Path 323" d="M317.052,4.62c9.3,0,16.859,4.979,19.678,13.56h-9.658c-1.981-4.021-5.581-6-10.081-6-7.319,0-12.539,5.339-12.539,13.859,0,8.46,5.22,13.859,12.539,13.859,4.5,0,8.1-1.979,10.081-6.059h9.658C333.911,42.478,326.35,47.4,317.052,47.4c-12.06,0-21.239-8.82-21.239-21.359S304.992,4.62,317.052,4.62" fill="#1a4bb7"/>
        <path id="Path_324" data-name="Path 324" d="M358.692,47.578c-9.6,0-16.859-6.719-16.859-17.159,0-10.5,7.5-17.159,17.1-17.159s17.1,6.659,17.1,17.159c0,10.44-7.68,17.159-17.339,17.159m0-7.319c4.439,0,8.7-3.24,8.7-9.84,0-6.66-4.139-9.84-8.579-9.84s-8.46,3.18-8.46,9.84c0,6.6,3.84,9.84,8.34,9.84" fill="#1a4bb7"/>
        <path id="Path_325" data-name="Path 325" d="M394.931,47.578c-8.34,0-14.159-4.86-14.52-11.04h8.46c.3,2.52,2.64,4.44,6,4.44,3.3,0,5.1-1.5,5.1-3.42,0-5.939-18.779-2.16-18.779-14.339,0-5.52,4.92-9.959,13.139-9.959,8.039,0,12.9,4.38,13.379,10.979h-8.039c-.24-2.58-2.28-4.32-5.58-4.32-3.12,0-4.74,1.26-4.74,3.18,0,6.06,18.42,2.28,18.659,14.459,0,5.7-4.979,10.02-13.079,10.02" fill="#1a4bb7"/>
        <path id="Path_326" data-name="Path 326" d="M416.231,20.7h-3.96V13.8h3.96V5.58h8.46V13.8h7.439v6.9h-7.439V36.778c0,2.22.9,3.18,3.539,3.18h3.9v7.08h-5.28c-6.359,0-10.619-2.7-10.619-10.319Z" fill="#1a4bb7"/>
        <path id="Path_327" data-name="Path 327" d="M450.909,47.578c-8.34,0-14.159-4.86-14.519-11.04h8.459c.3,2.52,2.64,4.44,6,4.44,3.3,0,5.1-1.5,5.1-3.42,0-5.939-18.779-2.16-18.779-14.339,0-5.52,4.92-9.959,13.139-9.959,8.039,0,12.9,4.38,13.379,10.979h-8.039c-.24-2.58-2.28-4.32-5.58-4.32-3.12,0-4.74,1.26-4.74,3.18,0,6.06,18.42,2.28,18.659,14.459,0,5.7-4.979,10.02-13.079,10.02" fill="#1a4bb7"/>
      </g>
    </g>
    <g id="Group_199" data-name="Group 199" transform="translate(-504.563 69)">
      <path id="Path_329" data-name="Path 329" d="M520.1,47.458c-8.7,0-15.419-4.56-15.539-12.479h9c.24,3.36,2.46,5.58,6.36,5.58,3.96,0,6.3-2.1,6.3-5.1,0-9.06-21.6-3.6-21.539-18.779,0-7.56,6.12-12.12,14.759-12.12,8.58,0,14.46,4.379,15,11.939H525.2c-.18-2.76-2.4-4.92-6-4.979-3.3-.121-5.76,1.5-5.76,4.919,0,8.4,21.479,3.72,21.479,18.48,0,6.6-5.279,12.539-14.819,12.539" fill="#414141"/>
      <path id="Path_330" data-name="Path 330" d="M555.2,13.26a13.144,13.144,0,0,1,10.979,5.279V13.8h8.46V47.038h-8.46V42.179a13.106,13.106,0,0,1-11.039,5.4c-8.4,0-15.12-6.9-15.12-17.279s6.72-17.039,15.18-17.039m2.16,7.38c-4.5,0-8.76,3.359-8.76,9.659s4.26,9.9,8.76,9.9c4.62,0,8.819-3.48,8.819-9.78s-4.2-9.779-8.819-9.779" fill="#414141"/>
      <path id="Path_331" data-name="Path 331" d="M588.322,13.8l8.4,25.5,8.4-25.5h8.939l-12.3,33.238h-10.2L579.322,13.8Z" fill="#414141"/>
      <path id="Path_332" data-name="Path 332" d="M633.323,47.578c-9.66,0-16.68-6.719-16.68-17.159,0-10.5,6.84-17.159,16.68-17.159,9.6,0,16.379,6.539,16.379,16.439a19.749,19.749,0,0,1-.24,3.24h-24.3c.42,4.92,3.78,7.679,7.98,7.679A6.847,6.847,0,0,0,639.8,36.6h9.059c-1.8,6.119-7.319,10.979-15.538,10.979m-8.1-20.279H641c-.12-4.38-3.6-7.14-7.92-7.14-4.019,0-7.2,2.58-7.859,7.14" fill="#414141"/>
      <path id="Path_333" data-name="Path 333" d="M671.421,20.7h-3.96V13.8h3.96V5.58h8.46V13.8h7.439v6.9h-7.439V36.778c0,2.22.9,3.18,3.539,3.18h3.9v7.08h-5.28c-6.359,0-10.619-2.7-10.619-10.319Z" fill="#414141"/>
      <path id="Path_334" data-name="Path 334" d="M693.379,2.64h8.4v15.3A12.772,12.772,0,0,1,712.1,13.32c7.5,0,12.959,5.04,12.959,14.219v19.5h-8.4V28.679c0-5.34-2.939-8.22-7.38-8.22-4.559,0-7.5,2.88-7.5,8.22V47.038h-8.4Z" fill="#414141"/>
      <path id="Path_335" data-name="Path 335" d="M747.559,47.578c-9.66,0-16.68-6.719-16.68-17.159,0-10.5,6.84-17.159,16.68-17.159,9.6,0,16.379,6.539,16.379,16.439a19.642,19.642,0,0,1-.24,3.24H739.4c.42,4.92,3.78,7.679,7.98,7.679a6.847,6.847,0,0,0,6.659-4.019h9.06c-1.8,6.119-7.32,10.979-15.539,10.979m-8.1-20.279h15.779c-.12-4.38-3.6-7.14-7.92-7.14-4.019,0-7.2,2.58-7.859,7.14" fill="#414141"/>
      <path id="Path_336" data-name="Path 336" d="M816.378,43.618l9.6,10.8H815.538l-6.361-7.62a22.553,22.553,0,0,1-5.4.66A21.048,21.048,0,0,1,782.3,25.979c0-12.54,9.66-21.419,21.479-21.419,11.939,0,21.419,8.879,21.419,21.419a21.155,21.155,0,0,1-8.819,17.639m-12.6-3.66c7.56,0,12.779-5.459,12.779-13.979s-5.219-13.86-12.779-13.86c-7.62,0-12.84,5.34-12.84,13.86s5.22,13.979,12.84,13.979" fill="#1a4bb7"/>
      <path id="Path_337" data-name="Path 337" d="M862.936,47.038h-8.46v-4.2a12.259,12.259,0,0,1-9.9,4.62c-7.74,0-13.32-5.04-13.32-14.159V13.8h8.4V32.1c0,5.339,2.94,8.219,7.38,8.219,4.559,0,7.439-2.88,7.439-8.219V13.8h8.46Z" fill="#1a4bb7"/>
      <path id="Path_338" data-name="Path 338" d="M884.237,13.26a13.144,13.144,0,0,1,10.979,5.279V13.8h8.46V47.038h-8.46V42.179a13.106,13.106,0,0,1-11.039,5.4c-8.4,0-15.12-6.9-15.12-17.279s6.72-17.039,15.18-17.039m2.16,7.38c-4.5,0-8.76,3.359-8.76,9.659s4.26,9.9,8.76,9.9c4.62,0,8.819-3.48,8.819-9.78s-4.2-9.779-8.819-9.779" fill="#1a4bb7"/>
      <rect id="Rectangle_127" data-name="Rectangle 127" width="8.399" height="44.398" transform="translate(911.896 2.641)" fill="#1a4bb7"/>
      <path id="Path_339" data-name="Path 339" d="M927.677,4.92a5.166,5.166,0,1,1,5.159,4.92,4.925,4.925,0,0,1-5.159-4.92m.9,8.88h8.4V47.038h-8.4Z" fill="#1a4bb7"/>
      <path id="Path_340" data-name="Path 340" d="M946.578,20.7h-3.96V13.8h3.96V5.58h8.46V13.8h7.439v6.9h-7.439V36.778c0,2.22.9,3.18,3.539,3.18h3.9v7.08H957.2c-6.359,0-10.619-2.7-10.619-10.319Z" fill="#1a4bb7"/>
      <path id="Path_341" data-name="Path 341" d="M991.4,13.8h8.939L979.755,62.758h-8.939l7.2-16.56L964.7,13.8h9.42L982.7,37.019Z" fill="#1a4bb7"/>
      <path id="Path_342" data-name="Path 342" d="M1008.555,47.458a4.923,4.923,0,1,1,5.1-4.92,4.942,4.942,0,0,1-5.1,4.92" fill="#414141"/>
    </g>
    <g id="Group_201" data-name="Group 201">
      <g id="Group_200" data-name="Group 200" clip-path="url(#clip-path-2)">
        <path id="Path_343" data-name="Path 343" d="M322.883,6.62c9.3,0,16.86,4.979,19.679,13.56H332.9c-1.98-4.021-5.58-6-10.08-6-7.319,0-12.539,5.339-12.539,13.859,0,8.46,5.22,13.859,12.539,13.859,4.5,0,8.1-1.979,10.08-6.059h9.659c-2.819,8.639-10.38,13.559-19.679,13.559-12.059,0-21.239-8.82-21.239-21.359S310.824,6.62,322.883,6.62" fill="#1a4bb7"/>
        <path id="Path_344" data-name="Path 344" d="M364.523,49.578c-9.6,0-16.859-6.719-16.859-17.159,0-10.5,7.5-17.159,17.1-17.159s17.1,6.659,17.1,17.159c0,10.44-7.68,17.159-17.339,17.159m0-7.319c4.439,0,8.7-3.24,8.7-9.84,0-6.66-4.139-9.84-8.579-9.84s-8.46,3.18-8.46,9.84c0,6.6,3.84,9.84,8.34,9.84" fill="#1a4bb7"/>
        <path id="Path_345" data-name="Path 345" d="M400.763,49.578c-8.34,0-14.159-4.86-14.52-11.04h8.46c.3,2.52,2.64,4.44,6,4.44,3.3,0,5.1-1.5,5.1-3.42,0-5.939-18.779-2.16-18.779-14.339,0-5.52,4.92-9.959,13.139-9.959,8.039,0,12.9,4.38,13.379,10.979H405.5c-.24-2.58-2.28-4.32-5.58-4.32-3.12,0-4.74,1.26-4.74,3.18,0,6.06,18.42,2.28,18.659,14.459,0,5.7-4.979,10.02-13.079,10.02" fill="#1a4bb7"/>
        <path id="Path_346" data-name="Path 346" d="M422.063,22.7H418.1V15.8h3.961V7.58h8.459V15.8h7.439v6.9h-7.439V38.778c0,2.22.9,3.18,3.539,3.18h3.9v7.08h-5.28c-6.359,0-10.618-2.7-10.618-10.319Z" fill="#1a4bb7"/>
        <path id="Path_347" data-name="Path 347" d="M456.741,49.578c-8.34,0-14.159-4.86-14.519-11.04h8.459c.3,2.52,2.64,4.44,6,4.44,3.3,0,5.1-1.5,5.1-3.42,0-5.939-18.779-2.16-18.779-14.339,0-5.52,4.92-9.959,13.139-9.959,8.039,0,12.9,4.38,13.379,10.979h-8.039c-.24-2.58-2.28-4.32-5.58-4.32-3.12,0-4.74,1.26-4.74,3.18,0,6.06,18.42,2.28,18.659,14.459,0,5.7-4.979,10.02-13.079,10.02" fill="#1a4bb7"/>
      </g>
    </g>
    <g id="Group_203" data-name="Group 203">
      <path id="Path_349" data-name="Path 349" d="M15.539,47.456C6.839,47.456.12,42.9,0,34.977H9c.24,3.36,2.46,5.58,6.36,5.58,3.96,0,6.3-2.1,6.3-5.1,0-9.06-21.6-3.6-21.539-18.779,0-7.56,6.12-12.12,14.759-12.12,8.58,0,14.46,4.379,15,11.939h-9.24c-.18-2.76-2.4-4.92-6-4.979-3.3-.121-5.76,1.5-5.76,4.919,0,8.4,21.479,3.72,21.479,18.48,0,6.6-5.279,12.539-14.819,12.539" fill="#414141"/>
      <rect id="Rectangle_129" data-name="Rectangle 129" width="8.399" height="44.398" transform="translate(37.619 2.639)" fill="#414141"/>
      <path id="Path_350" data-name="Path 350" d="M67.319,13.258A13.144,13.144,0,0,1,78.3,18.537V13.8h8.46V47.036H78.3V42.177a13.106,13.106,0,0,1-11.039,5.4c-8.4,0-15.12-6.9-15.12-17.279s6.72-17.039,15.18-17.039m2.16,7.38c-4.5,0-8.76,3.359-8.76,9.659s4.26,9.9,8.76,9.9c4.62,0,8.819-3.48,8.819-9.78s-4.2-9.779-8.819-9.779" fill="#414141"/>
      <path id="Path_351" data-name="Path 351" d="M107.7,47.576c-8.34,0-14.159-4.86-14.52-11.04h8.46c.3,2.52,2.64,4.44,6,4.44,3.3,0,5.1-1.5,5.1-3.42,0-5.939-18.779-2.16-18.779-14.339,0-5.52,4.92-9.959,13.139-9.959,8.039,0,12.9,4.38,13.379,10.979h-8.04c-.239-2.58-2.279-4.32-5.579-4.32-3.12,0-4.74,1.26-4.74,3.18,0,6.06,18.42,2.28,18.659,14.459,0,5.7-4.979,10.02-13.079,10.02" fill="#414141"/>
      <path id="Path_352" data-name="Path 352" d="M127.679,2.638h8.4v15.3a12.772,12.772,0,0,1,10.321-4.62c7.5,0,12.959,5.04,12.959,14.219v19.5h-8.4V28.677c0-5.34-2.94-8.22-7.38-8.22-4.559,0-7.5,2.88-7.5,8.22V47.036h-8.4Z" fill="#414141"/>
      <path id="Path_353" data-name="Path 353" d="M182.939,20.7h-3.96V13.8h3.96V5.578h8.46V13.8h7.439v6.9H191.4V36.776c0,2.22.9,3.18,3.539,3.18h3.9v7.08h-5.28c-6.359,0-10.619-2.7-10.619-10.319Z" fill="#414141"/>
      <path id="Path_354" data-name="Path 354" d="M204.9,2.638h8.4v15.3a12.772,12.772,0,0,1,10.321-4.62c7.5,0,12.959,5.04,12.959,14.219v19.5h-8.4V28.677c0-5.34-2.94-8.22-7.38-8.22-4.559,0-7.5,2.88-7.5,8.22V47.036h-8.4Z" fill="#414141"/>
      <path id="Path_355" data-name="Path 355" d="M259.077,47.576c-9.66,0-16.68-6.719-16.68-17.159,0-10.5,6.84-17.159,16.68-17.159,9.6,0,16.379,6.539,16.379,16.439a19.643,19.643,0,0,1-.24,3.24h-24.3c.42,4.92,3.78,7.679,7.98,7.679a6.847,6.847,0,0,0,6.659-4.019h9.06c-1.8,6.119-7.32,10.979-15.539,10.979m-8.1-20.279h15.779c-.12-4.38-3.6-7.14-7.92-7.14-4.019,0-7.2,2.58-7.859,7.14" fill="#414141"/>
      <path id="Path_356" data-name="Path 356" d="M479.594,48.459a4.923,4.923,0,1,1,5.1-4.92,4.943,4.943,0,0,1-5.1,4.92" fill="#414141"/>
    </g>
  </g>
</svg>
