<svg xmlns="http://www.w3.org/2000/svg" viewBox="0 0 315.29 371.89"><defs><style>.cls-1{fill:#b6caef;}</style></defs><g id="Layer_2" data-name="Layer 2"><g id="Layer_1-2" data-name="Layer 1"><path class="cls-1" d="M206.36,0c0,12.35.14,24.71-.05,37.05-.06,3.93,1.44,6,5,7.29,4.19,1.53,8.24,3.47,12.29,5.37,4.89,2.3,5.44,2.27,9.17-1.45l23.37-23.32c13.56,13.56,27,27,40.62,40.64l-14.92,14.9q-3.74,3.72-7.45,7.45c-5.47,5.46-5.39,5.43-2.29,12.41,1.91,4.31,3.7,8.68,5.22,13.13,1.07,3.11,2.87,4.41,6.16,4.37,9.2-.13,18.4,0,27.61,0h4.18v57.47H300.36c-5.21,0-10.43.21-15.62-.07-4.17-.22-6.4,1.37-7.81,5.32-2.12,5.9-4.7,11.65-7.29,17.36-1.33,2.94-1.06,5.18,1.31,7.48,6.78,6.55,13.41,13.26,19.85,19.67L250.05,265.8c-6.07-6.09-12.44-12.5-18.83-18.9-4.63-4.65-4.7-4.52-10.67-2.05s-12.12,4.82-18.29,6.92c-3.27,1.12-4.62,3-4.58,6.42.11,8.59,0,17.18,0,26.07H185.14v-15c0-7.13-.86-8-7.87-8-5,0-9.94-.18-14.89.06-2.94.14-3.24-1.9-4-3.75s-1.66-3.24.39-5.11c4.55-4.16,8.81-8.66,13.15-13,3.52-3.55,3.56-5.42.12-8.87q-13.46-13.51-27-27c-3.31-3.29-5.24-3.29-8.58,0q-6.34,6.24-12.59,12.58c-1.26,1.28-2.3,2.27-4.3,1.18s-3.74-1.54-3.6-4.55c.31-6.65.14-13.32.08-20,0-4.64-1.47-6-6.14-6-11.74,0-23.49-.06-35.23,0-2.17,0-3.3-.56-3.88-2.73-1.12-4.2-2.7-8.29-3.7-12.51-.86-3.61-2.9-5-6.45-4.93-8.35.09-16.71,0-25.07,0H31.38V109.15H45.53c7,0,14-.07,21.07,0,2.8,0,4.44-1.15,5.62-3.65,2.48-5.24,5-10.46,7.84-15.53,1.73-3.09,1.24-5.34-1.18-7.72-7.76-7.63-15.42-15.36-22.83-22.76l41-41c2.5,2.72,5.27,5.89,8.21,8.89,5.86,6,11.85,11.78,17.7,17.76,2.06,2.1,4.13,2.47,6.86,1.4,4.72-1.86,9.5-3.6,14.34-5.08,3.42-1.05,4.89-3,4.84-6.58-.13-11.62,0-23.25,0-34.87ZM238,142.31a64.62,64.62,0,0,0-129.23-.26c-.26,35.49,28.75,64.71,64.45,64.92C208.61,207.18,237.93,177.91,238,142.31Z"/><path class="cls-1" d="M140.23,211.67l23.68,23.72c-4.38,4.32-8.92,9-13.66,13.41-2.69,2.52-3.38,5-1.53,8.33a53.84,53.84,0,0,1,3.55,8.72c1,2.83,2.75,4,5.71,4,6-.09,12.05,0,18.29,0V303c-5.8,0-11.47.19-17.11-.06-3.89-.18-6.11,1.24-7.29,4.95a47.49,47.49,0,0,1-3.76,9c-2,3.63-1.36,6.27,1.64,8.92,3.61,3.21,7,6.68,10.15,9.72L136.2,359.3c-3.08-3.13-6.81-6.71-10.29-10.52-2.57-2.82-5.09-3.49-8.65-1.69a73.88,73.88,0,0,1-11.14,4.29c-3,1-4.28,2.85-4.25,5.9,0,4.81,0,9.62,0,14.61H68.81c0-5.22-.11-10.38,0-15.53.11-3.49-1.16-5.62-4.53-6.91a70.45,70.45,0,0,1-10.43-5c-3.32-1.95-5.8-1.45-8.32,1.31-3.17,3.47-6.55,6.75-9.59,9.85L12.26,332.1c3.9-3.86,8-8,12.15-12,2.33-2.2,2.9-4.45,1.65-7.47a60.59,60.59,0,0,1-3.34-10c-.88-4-3.15-5.31-7-5.2-5.17.16-10.35,0-15.74,0V264.44c6,0,12-.24,18,.08,4.41.24,7.09-1.2,8.55-5.46A38.8,38.8,0,0,1,30.19,252c1.78-3,1.37-5.37-1.14-7.74-4.47-4.23-8.78-8.62-12.9-12.68l23.58-23.63c4.73,4.76,9.73,9.66,14.55,14.73,2.31,2.43,4.61,3.16,7.74,1.67a45.91,45.91,0,0,1,7.51-2.67c3.29-.89,4.78-2.73,4.68-6.26-.18-6.5,0-13,0-19.76h33.28c0,6.83.23,13.58-.08,20.31-.2,4.2,1.28,6.66,5.3,7.77a25,25,0,0,1,4,1.65c6.87,3.27,6.88,3.29,12.35-2.22C132.85,219.28,136.62,215.37,140.23,211.67ZM52.05,282a40.12,40.12,0,1,0,40-40.21A40,40,0,0,0,52.05,282Z"/></g></g></svg>