<svg width="46" height="46" viewBox="0 0 46 46" fill="none" xmlns="http://www.w3.org/2000/svg">
<circle cx="23.1292" cy="22.9927" r="22.4917" fill="white"/>
<path d="M21.3371 22.8632C21.3371 24.0487 21.1081 25.1063 20.65 26.0359C20.2055 26.952 19.5857 27.6727 18.7909 28.1981C18.0095 28.7236 17.1203 28.9863 16.1234 28.9863C15.1264 28.9863 14.2305 28.7236 13.4357 28.1981C12.6543 27.6727 12.0346 26.952 11.5765 26.0359C11.1319 25.1063 10.9096 24.0487 10.9096 22.8632C10.9096 21.6776 11.1319 20.6268 11.5765 19.7107C12.0346 18.7811 12.6543 18.0536 13.4357 17.5282C14.2305 16.9893 15.1264 16.7198 16.1234 16.7198C17.1203 16.7198 18.0095 16.9893 18.7909 17.5282C19.5857 18.0536 20.2055 18.7811 20.65 19.7107C21.1081 20.6268 21.3371 21.6776 21.3371 22.8632ZM18.609 22.8632C18.609 22.1357 18.5012 21.5025 18.2857 20.9636C18.0836 20.4112 17.7939 19.9801 17.4167 19.6702C17.0395 19.3604 16.6084 19.2055 16.1234 19.2055C15.6249 19.2055 15.1871 19.3604 14.8098 19.6702C14.4326 19.9801 14.1362 20.4112 13.9207 20.9636C13.7186 21.5025 13.6176 22.1357 13.6176 22.8632C13.6176 23.5906 13.7186 24.2238 13.9207 24.7627C14.1362 25.3016 14.4326 25.726 14.8098 26.0359C15.1871 26.3457 15.6249 26.5006 16.1234 26.5006C16.6084 26.5006 17.0328 26.3457 17.3965 26.0359C17.7737 25.726 18.0701 25.3016 18.2857 24.7627C18.5012 24.2104 18.609 23.5772 18.609 22.8632ZM30.0319 24.015C30.5977 24.1093 31.0895 24.3249 31.5071 24.6617C31.9247 24.985 32.2481 25.4027 32.4771 25.9146C32.7196 26.4265 32.8408 26.9924 32.8408 27.6121C32.8408 28.4474 32.6253 29.1749 32.1942 29.7946C31.7631 30.4143 31.1501 30.8926 30.3552 31.2294C29.5738 31.5797 28.651 31.7548 27.5867 31.7548C26.5628 31.7548 25.6534 31.5864 24.8586 31.2496C24.0772 30.9263 23.4238 30.448 22.8984 29.8148L24.4342 27.895C24.7845 28.3261 25.2021 28.6629 25.6871 28.9054C26.1856 29.1614 26.7918 29.2894 27.5059 29.2894C28.3277 29.2894 28.9541 29.121 29.3852 28.7842C29.8163 28.4608 30.0319 27.9691 30.0319 27.309C30.0319 26.6084 29.7827 26.0695 29.2842 25.6923C28.7857 25.3151 28.0313 25.1265 27.0209 25.1265H26.455V23.1057H27.0815C27.9033 23.1057 28.5432 22.917 29.0013 22.5398C29.4728 22.1626 29.7086 21.6911 29.7086 21.1252C29.7086 20.7615 29.621 20.4584 29.4458 20.2159C29.2707 19.9734 29.0282 19.7915 28.7183 19.6702C28.422 19.549 28.0717 19.4884 27.6675 19.4884C27.0613 19.4884 26.5089 19.6298 26.0104 19.9127C25.512 20.1957 25.1078 20.5931 24.7979 21.105L23.1004 19.2055C23.3834 18.7878 23.7673 18.4308 24.2523 18.1344C24.7508 17.8246 25.3166 17.5821 25.9498 17.4069C26.5965 17.2318 27.2701 17.1442 27.9706 17.1442C28.8868 17.1442 29.6883 17.2924 30.3754 17.5888C31.076 17.8852 31.6216 18.3028 32.0123 18.8417C32.403 19.3806 32.5983 20.007 32.5983 20.7211C32.5983 21.2465 32.4906 21.745 32.275 22.2165C32.0595 22.688 31.7563 23.0854 31.3656 23.4088C30.9884 23.7186 30.5438 23.9207 30.0319 24.015Z" fill="#4461A1"/>
</svg>
