<svg width="46" height="46" viewBox="0 0 46 46" fill="none" xmlns="http://www.w3.org/2000/svg">
<circle cx="22.656" cy="23.1089" r="22.4917" fill="white"/>
<path d="M22.5964 22.9784C22.5964 24.1639 22.3674 25.2215 21.9093 26.1511C21.4647 27.0672 20.845 27.788 20.0501 28.3134C19.2688 28.8388 18.3796 29.1015 17.3827 29.1015C16.3857 29.1015 15.4898 28.8388 14.695 28.3134C13.9136 27.788 13.2938 27.0672 12.8358 26.1511C12.3912 25.2215 12.1689 24.1639 12.1689 22.9784C12.1689 21.7928 12.3912 20.742 12.8358 19.8259C13.2938 18.8963 13.9136 18.1688 14.695 17.6434C15.4898 17.1045 16.3857 16.8351 17.3827 16.8351C18.3796 16.8351 19.2688 17.1045 20.0501 17.6434C20.845 18.1688 21.4647 18.8963 21.9093 19.8259C22.3674 20.742 22.5964 21.7928 22.5964 22.9784ZM19.8683 22.9784C19.8683 22.2509 19.7605 21.6177 19.5449 21.0788C19.3429 20.5264 19.0532 20.0953 18.676 19.7855C18.2988 19.4756 17.8677 19.3207 17.3827 19.3207C16.8842 19.3207 16.4463 19.4756 16.0691 19.7855C15.6919 20.0953 15.3955 20.5264 15.18 21.0788C14.9779 21.6177 14.8768 22.2509 14.8768 22.9784C14.8768 23.7059 14.9779 24.3391 15.18 24.878C15.3955 25.4169 15.6919 25.8412 16.0691 26.1511C16.4463 26.4609 16.8842 26.6159 17.3827 26.6159C17.8677 26.6159 18.292 26.4609 18.6558 26.1511C19.033 25.8412 19.3294 25.4169 19.5449 24.878C19.7605 24.3256 19.8683 23.6924 19.8683 22.9784ZM33.0897 26.4542V28.8994H24.8851V26.4542H27.7547V20.3311C27.6335 20.4928 27.4449 20.6612 27.1889 20.8363C26.9329 20.998 26.6433 21.1529 26.3199 21.3011C25.9966 21.4493 25.6733 21.5705 25.3499 21.6648C25.0266 21.7592 24.7369 21.8063 24.481 21.8063V19.2803C24.7235 19.2803 25.0131 19.2062 25.3499 19.058C25.7002 18.8963 26.0437 18.7077 26.3806 18.4921C26.7308 18.2766 27.0272 18.0678 27.2697 17.8657C27.5257 17.6501 27.6874 17.4817 27.7547 17.3605H30.5233V26.4542H33.0897Z" fill="#4461A1"/>
</svg>
