<svg width="46" height="46" viewBox="0 0 46 46" fill="none" xmlns="http://www.w3.org/2000/svg">
<circle cx="23.0891" cy="22.9829" r="22.4917" fill="white"/>
<path d="M21.5141 22.8524C21.5141 24.038 21.2851 25.0955 20.827 26.0251C20.3825 26.9412 19.7627 27.662 18.9679 28.1874C18.1865 28.7128 17.2973 28.9755 16.3004 28.9755C15.3034 28.9755 14.4075 28.7128 13.6127 28.1874C12.8313 27.662 12.2116 26.9412 11.7535 26.0251C11.3089 25.0955 11.0866 24.038 11.0866 22.8524C11.0866 21.6669 11.3089 20.616 11.7535 19.6999C12.2116 18.7703 12.8313 18.0428 13.6127 17.5174C14.4075 16.9785 15.3034 16.7091 16.3004 16.7091C17.2973 16.7091 18.1865 16.9785 18.9679 17.5174C19.7627 18.0428 20.3825 18.7703 20.827 19.6999C21.2851 20.616 21.5141 21.6669 21.5141 22.8524ZM18.786 22.8524C18.786 22.1249 18.6782 21.4917 18.4627 20.9528C18.2606 20.4005 17.9709 19.9694 17.5937 19.6595C17.2165 19.3496 16.7854 19.1947 16.3004 19.1947C15.8019 19.1947 15.3641 19.3496 14.9868 19.6595C14.6096 19.9694 14.3132 20.4005 14.0977 20.9528C13.8956 21.4917 13.7946 22.1249 13.7946 22.8524C13.7946 23.5799 13.8956 24.2131 14.0977 24.752C14.3132 25.2909 14.6096 25.7153 14.9868 26.0251C15.3641 26.335 15.8019 26.4899 16.3004 26.4899C16.7854 26.4899 17.2098 26.335 17.5735 26.0251C17.9507 25.7153 18.2471 25.2909 18.4627 24.752C18.6782 24.1996 18.786 23.5664 18.786 22.8524ZM23.2774 28.7734C23.2774 28.1672 23.3246 27.6216 23.4189 27.1366C23.5132 26.6516 23.6749 26.2002 23.9039 25.7826C24.1464 25.365 24.4697 24.9743 24.8739 24.6105C25.2915 24.2333 25.817 23.8696 26.4501 23.5193C27.0025 23.2229 27.4875 22.9669 27.9051 22.7514C28.3228 22.5223 28.6731 22.3135 28.956 22.1249C29.2524 21.9363 29.4747 21.7477 29.6229 21.5591C29.771 21.357 29.8451 21.128 29.8451 20.872C29.8451 20.6026 29.771 20.3601 29.6229 20.1445C29.4747 19.9155 29.2658 19.7336 28.9964 19.5989C28.7269 19.4642 28.3901 19.3968 27.986 19.3968C27.6626 19.3968 27.3595 19.4372 27.0766 19.518C26.8072 19.5989 26.5512 19.7134 26.3087 19.8616C26.0797 20.0098 25.8641 20.1782 25.662 20.3668C25.4599 20.5419 25.2781 20.7305 25.1164 20.9326L23.3987 18.9522C23.5873 18.7636 23.8365 18.5615 24.1464 18.346C24.4697 18.1169 24.847 17.9081 25.2781 17.7195C25.7227 17.5174 26.2076 17.3558 26.7331 17.2345C27.272 17.0998 27.8445 17.0324 28.4508 17.0324C29.3669 17.0324 30.1483 17.1806 30.7949 17.477C31.4416 17.7599 31.9333 18.1574 32.2701 18.6693C32.6204 19.1812 32.7956 19.7807 32.7956 20.4678C32.7956 20.9394 32.708 21.357 32.5328 21.7207C32.3577 22.0845 32.1354 22.4078 31.866 22.6907C31.5965 22.9602 31.3001 23.2027 30.9768 23.4182C30.6669 23.6338 30.3638 23.8224 30.0674 23.9841C29.6498 24.1996 29.2726 24.4017 28.9358 24.5903C28.599 24.7655 28.3026 24.9473 28.0466 25.1359C27.7906 25.3111 27.5616 25.493 27.3595 25.6816C27.1709 25.8702 27.0025 26.0857 26.8543 26.3282H33.0178V28.7734H23.2774Z" fill="#4461A1"/>
</svg>
