<svg width="46" height="46" viewBox="0 0 46 46" fill="none" xmlns="http://www.w3.org/2000/svg">
<circle cx="22.6299" cy="23.0357" r="22.4917" fill="white"/>
<path d="M20.8378 22.9061C20.8378 24.0917 20.6088 25.1492 20.1508 26.0788C19.7062 26.9949 19.0865 27.7157 18.2916 28.2411C17.5102 28.7665 16.6211 29.0292 15.6241 29.0292C14.6272 29.0292 13.7313 28.7665 12.9364 28.2411C12.155 27.7157 11.5353 26.9949 11.0772 26.0788C10.6327 25.1492 10.4104 24.0917 10.4104 22.9061C10.4104 21.7206 10.6327 20.6697 11.0772 19.7536C11.5353 18.824 12.155 18.0965 12.9364 17.5711C13.7313 17.0322 14.6272 16.7628 15.6241 16.7628C16.6211 16.7628 17.5102 17.0322 18.2916 17.5711C19.0865 18.0965 19.7062 18.824 20.1508 19.7536C20.6088 20.6697 20.8378 21.7206 20.8378 22.9061ZM18.1097 22.9061C18.1097 22.1786 18.002 21.5454 17.7864 21.0065C17.5843 20.4542 17.2947 20.0231 16.9174 19.7132C16.5402 19.4034 16.1091 19.2484 15.6241 19.2484C15.1256 19.2484 14.6878 19.4034 14.3106 19.7132C13.9334 20.0231 13.637 20.4542 13.4214 21.0065C13.2193 21.5454 13.1183 22.1786 13.1183 22.9061C13.1183 23.6336 13.2193 24.2668 13.4214 24.8057C13.637 25.3446 13.9334 25.769 14.3106 26.0788C14.6878 26.3887 15.1256 26.5436 15.6241 26.5436C16.1091 26.5436 16.5335 26.3887 16.8972 26.0788C17.2745 25.769 17.5708 25.3446 17.7864 24.8057C18.002 24.2533 18.1097 23.6201 18.1097 22.9061ZM28.1382 31.3936V28.3826H22.2374V25.9778L29.0072 17.2882H30.8462V25.9576H32.6245V28.3826H30.8462V31.3936H28.1382ZM24.9453 25.9576H28.4414V21.3905L24.9453 25.9576Z" fill="#4461A1"/>
</svg>
