<svg width="317" height="417" viewBox="0 0 317 417" fill="none" xmlns="http://www.w3.org/2000/svg">
<g style="mix-blend-mode:multiply" opacity="0.6">
<path d="M39.0428 317.997C21.64 317.426 7.72571 302.665 6.54956 283.556L0.668871 239.208V238.835C-0.327858 220.34 8.66264 202.812 23.5537 194.201L53.615 177.024L77.2773 319.271L39.0628 318.02L39.0428 317.997Z" fill="white"/>
<path d="M263.061 177.01L293.082 194.165C308.013 202.819 317.004 220.347 316.027 238.842V239.215L310.126 283.563C308.93 302.651 295.036 317.433 277.633 318.005L239.418 319.256L263.081 177.01H263.061Z" fill="white"/>
<path d="M156.189 405.606C99.0173 397.632 52.6696 348.759 42.7621 286.4L42.5229 286.093L42.3236 283.391L28.6484 93.3706L31.3795 90.4926C48.6228 72.2836 69.7734 63.4755 85.2428 59.2583L61.9192 14.7568L86.2789 10.3857C93.9141 9.02383 101.728 8.32101 109.503 8.32101C136.853 8.32101 163.845 17.0192 186.988 33.0538V0.21582L210.053 9.85852C257.079 29.4954 286.282 79.7737 286.282 141.057C286.282 146.812 285.924 152.742 285.246 158.672L274.082 286.115L273.883 286.378C263.996 348.759 217.628 397.632 160.455 405.606L158.323 405.913L156.189 405.606Z" fill="white"/>
<path d="M207.211 18.0583L194.952 12.9404V50.0396C170.991 29.1068 140.95 17.1138 109.492 17.1138C102.157 17.1138 94.781 17.7728 87.5444 19.0687L74.5871 21.397L97.6517 65.4153C78.4346 68.8638 54.8919 77.8036 36.8711 96.8476L39.2832 130.213L50.2671 282.673C58.8389 342.462 102.455 389.248 157.176 396.892L158.312 397.045L159.449 396.892C214.149 389.248 257.786 342.484 266.357 282.695L277.302 157.691C277.94 152.222 278.298 146.665 278.298 141.063C278.298 86.7655 253.32 37.3218 207.211 18.0802V18.0583Z" fill="black"/>
<path d="M247.536 416.022C239.88 416.109 232.983 410.179 231.169 401.92C229.395 393.881 232.843 385.446 239.542 381.426C240.18 381.031 240.558 380.635 240.638 380.24L256.965 300.726C258.719 292.467 265.337 286.624 273.052 286.515C274.407 286.515 275.763 286.668 277.098 286.998C286.089 289.326 291.69 299.276 289.577 309.183L273.251 388.697C270.799 400.185 263.762 409.585 253.954 414.462C251.901 415.473 249.728 416 247.496 416.044L247.536 416.022Z" fill="white"/>
<path d="M77.9531 246.667C85.0101 262.306 99.6623 273.069 116.566 273.069C125.278 273.069 133.371 270.191 140.149 265.271C118.101 263.009 97.1502 256.573 77.9531 246.645V246.667Z" fill="white"/>
<path d="M175.227 265.32C182.004 270.218 190.098 273.096 198.789 273.096C215.654 273.096 230.266 262.376 237.362 246.781C218.165 256.666 197.234 263.079 175.227 265.32Z" fill="white"/>
<path d="M112.113 323.395C113.587 323.505 115.083 323.593 116.598 323.593C133.064 323.593 146.958 316.805 158.36 305.625C167.112 311.929 178.674 315.597 189.897 315.597C213.998 315.597 236.325 298.772 244.139 275.203C244.139 275.203 242.325 275.182 242.325 275.159C232.099 289.196 216.41 298.201 198.808 298.201C182.541 298.201 167.89 290.513 157.703 278.279C147.497 290.513 132.864 298.201 116.598 298.201C100.331 298.201 82.8084 289.942 72.582 276.894C76.1109 327.129 112.412 367.787 156.865 375.76C137.091 364.426 121.243 345.931 112.133 323.417L112.113 323.395Z" fill="#2368FF"/>
<path d="M256.235 176.745C229.302 200.775 195.035 215.185 157.758 215.185C120.48 215.185 86.232 200.753 59.3008 176.745C66.9157 193.791 78.0392 208.595 91.6746 219.973C84.6576 221.533 77.441 222.411 70.0256 222.433C195.554 292.963 256.235 176.724 256.235 176.724V176.745Z" fill="#2368FF"/>
<path d="M47.7151 190.29L27.2622 201.975C15.1022 209.004 7.82603 223.238 8.60353 238.328L14.4842 282.654C15.2617 297.261 26.0263 308.792 39.2828 309.231L67.6297 310.154L47.6951 190.29H47.7151Z" fill="black"/>
<path d="M45.3272 210.818L34.124 217.123C33.5459 217.452 32.9878 217.826 32.4495 218.221L32.2702 218.33C27.2665 222.086 23.3594 227.359 23.7182 236.056L24.0571 238.934L27.2467 268.17C27.2467 268.17 27.2467 229.818 46.8822 235.112L45.3272 210.818Z" fill="#58595B"/>
<path d="M268.966 190.29L289.419 201.975C301.579 209.004 308.855 223.238 308.077 238.328L302.196 282.654C301.419 297.261 290.654 308.792 277.398 309.231L249.051 310.154L268.986 190.29H268.966Z" fill="black"/>
<path d="M292.621 246.776L294.315 233.685C294.674 224.986 289.412 221.34 284.407 217.628L284.228 217.496C283.69 217.1 283.132 216.727 282.554 216.398L272.667 210.818L265.988 269.334C265.988 269.334 274.361 212.422 292.641 246.776H292.621Z" fill="#323E48"/>
<path d="M24.0771 239.256C25.1136 233.523 28.343 229.614 32.2702 226.692L32.4496 226.561C32.9878 226.165 33.5459 225.791 34.124 225.462L45.8455 219.048L45.3272 210.833L34.124 217.138C33.5459 217.467 32.9878 217.84 32.4496 218.235L32.2702 218.345C27.2665 222.101 23.3594 227.373 23.7182 236.071L24.0571 238.949L24.097 239.256H24.0771Z" fill="white"/>
<path d="M284.4 217.628L284.22 217.496C283.682 217.1 283.124 216.727 282.546 216.398L272.658 210.818L271.602 220.154L282.805 224.832C288.267 227.82 293.031 228.676 293.45 237.397L293.251 242.163L294.347 233.706C294.706 225.008 289.443 221.362 284.44 217.65L284.4 217.628Z" fill="white"/>
<path d="M238.926 399.881C240.182 405.614 245.843 408.887 250.727 406.47C257.923 402.89 263.585 395.817 265.539 386.68L281.865 307.188C282.981 301.982 280.05 296.776 275.326 295.546C270.602 294.317 265.877 297.546 264.781 302.751L248.454 382.243C247.817 385.275 245.983 387.603 243.411 389.14C239.903 391.249 238.009 395.576 238.966 399.859L238.926 399.881Z" fill="black"/>
<path d="M220.09 153.924C215.007 123.195 180.979 75.0033 133.236 64.7676L154.645 105.645C102.815 94.3767 72.5547 115.859 72.5547 115.859L146.333 172.727L122.212 126.688C122.212 126.688 174.281 126.468 220.11 153.924H220.09Z" fill="white"/>
</g>
</svg>
