<svg width="269" height="268" viewBox="0 0 269 268" fill="none" xmlns="http://www.w3.org/2000/svg">
<path fill-rule="evenodd" clip-rule="evenodd" d="M268.198 19.5371C268.198 11.2528 261.482 4.53711 253.198 4.53711H20C11.7157 4.53711 5 11.2529 5 19.5371V252.735C5 261.02 11.7157 267.735 20 267.735H253.198C261.482 267.735 268.198 261.02 268.198 252.735V19.5371ZM236.365 51.3691C236.365 43.0849 229.649 36.3691 221.365 36.3691H51.832C43.5478 36.3691 36.832 43.0849 36.832 51.3691V220.902C36.832 229.186 43.5477 235.902 51.832 235.902H221.365C229.649 235.902 236.365 229.186 236.365 220.902V51.3691Z" fill="#122C65"/>
<g filter="url(#filter0_di_47_583)">
<path fill-rule="evenodd" clip-rule="evenodd" d="M136.599 4.53711H20C11.7157 4.53711 5 11.2529 5 19.5371V133.343H36.833V51.3691C36.833 43.0849 43.5487 36.3691 51.833 36.3691H136.599V4.53711Z" fill="#2368FF"/>
</g>
<path d="M99.4817 143.531C101.274 143.829 102.831 144.512 104.154 145.579C105.476 146.603 106.5 147.925 107.226 149.547C107.994 151.168 108.378 152.96 108.378 154.923C108.378 157.568 107.695 159.872 106.33 161.835C104.964 163.797 103.023 165.312 100.506 166.379C98.031 167.488 95.1083 168.043 91.7377 168.043C88.495 168.043 85.615 167.509 83.0977 166.443C80.623 165.419 78.5537 163.904 76.8897 161.899L81.7537 155.819C82.863 157.184 84.1857 158.251 85.7217 159.019C87.3003 159.829 89.2203 160.235 91.4817 160.235C94.0843 160.235 96.0683 159.701 97.4337 158.635C98.799 157.611 99.4817 156.053 99.4817 153.963C99.4817 151.744 98.6923 150.037 97.1137 148.843C95.535 147.648 93.1457 147.051 89.9457 147.051H88.1537V140.651H90.1377C92.7403 140.651 94.767 140.053 96.2177 138.859C97.711 137.664 98.4577 136.171 98.4577 134.379C98.4577 133.227 98.1803 132.267 97.6257 131.499C97.071 130.731 96.303 130.155 95.3217 129.771C94.383 129.387 93.2737 129.195 91.9937 129.195C90.0737 129.195 88.3243 129.643 86.7457 130.539C85.167 131.435 83.887 132.693 82.9057 134.315L77.5297 128.299C78.4257 126.976 79.6417 125.845 81.1777 124.907C82.7563 123.925 84.5483 123.157 86.5537 122.603C88.6017 122.048 90.735 121.771 92.9537 121.771C95.855 121.771 98.3937 122.24 100.57 123.179C102.788 124.117 104.516 125.44 105.754 127.147C106.991 128.853 107.61 130.837 107.61 133.099C107.61 134.763 107.268 136.341 106.586 137.835C105.903 139.328 104.943 140.587 103.706 141.611C102.511 142.592 101.103 143.232 99.4817 143.531ZM130.753 166.763V157.227H112.065V149.611L133.505 122.091H139.329V149.547H144.961V157.227H139.329V166.763H130.753ZM120.641 149.547H131.713V135.083L120.641 149.547ZM160.148 131.947C158.185 131.947 156.414 131.52 154.836 130.667C153.257 129.771 151.977 128.597 150.996 127.147C150.057 125.653 149.588 124.011 149.588 122.219C149.588 120.427 150.057 118.805 150.996 117.355C151.977 115.861 153.257 114.688 154.836 113.835C156.414 112.981 158.185 112.555 160.148 112.555C162.11 112.555 163.881 112.981 165.46 113.835C167.081 114.688 168.361 115.861 169.3 117.355C170.238 118.805 170.708 120.427 170.708 122.219C170.708 124.011 170.238 125.653 169.3 127.147C168.361 128.597 167.081 129.771 165.46 130.667C163.881 131.52 162.11 131.947 160.148 131.947ZM160.148 127.659C161.001 127.659 161.769 127.403 162.452 126.891C163.134 126.379 163.668 125.717 164.052 124.907C164.478 124.096 164.692 123.221 164.692 122.283C164.692 121.259 164.478 120.341 164.052 119.531C163.625 118.72 163.07 118.08 162.388 117.611C161.705 117.099 160.958 116.843 160.148 116.843C159.294 116.843 158.526 117.099 157.844 117.611C157.161 118.08 156.606 118.72 156.18 119.531C155.796 120.341 155.604 121.237 155.604 122.219C155.604 123.2 155.817 124.117 156.244 124.971C156.67 125.781 157.225 126.443 157.908 126.955C158.59 127.424 159.337 127.659 160.148 127.659ZM184.852 159.275C182.889 159.275 181.118 158.848 179.54 157.995C177.961 157.141 176.681 155.989 175.7 154.539C174.761 153.045 174.292 151.403 174.292 149.611C174.292 147.776 174.761 146.133 175.7 144.683C176.681 143.232 177.961 142.08 179.54 141.227C181.118 140.331 182.889 139.883 184.852 139.883C186.814 139.883 188.585 140.331 190.164 141.227C191.785 142.08 193.065 143.232 194.004 144.683C194.942 146.133 195.412 147.755 195.412 149.547C195.412 151.339 194.942 152.981 194.004 154.475C193.065 155.925 191.785 157.099 190.164 157.995C188.585 158.848 186.814 159.275 184.852 159.275ZM184.852 154.987C185.705 154.987 186.473 154.731 187.156 154.219C187.838 153.707 188.372 153.045 188.756 152.235C189.182 151.424 189.396 150.549 189.396 149.611C189.396 148.587 189.182 147.669 188.756 146.859C188.372 146.048 187.817 145.408 187.092 144.939C186.409 144.427 185.662 144.171 184.852 144.171C184.041 144.171 183.273 144.427 182.548 144.939C181.865 145.408 181.31 146.069 180.884 146.923C180.5 147.733 180.308 148.608 180.308 149.547C180.308 150.571 180.521 151.488 180.948 152.299C181.374 153.109 181.929 153.771 182.612 154.283C183.294 154.752 184.041 154.987 184.852 154.987ZM153.236 155.627L171.22 134.571L187.86 112.683L191.764 116.139L174.228 136.875L157.076 159.083L153.236 155.627Z" fill="black"/>
<defs>
<filter id="filter0_di_47_583" x="0" y="0.537109" width="143.598" height="140.807" filterUnits="userSpaceOnUse" color-interpolation-filters="sRGB">
<feFlood flood-opacity="0" result="BackgroundImageFix"/>
<feColorMatrix in="SourceAlpha" type="matrix" values="0 0 0 0 0 0 0 0 0 0 0 0 0 0 0 0 0 0 127 0" result="hardAlpha"/>
<feOffset dx="1" dy="2"/>
<feGaussianBlur stdDeviation="3"/>
<feComposite in2="hardAlpha" operator="out"/>
<feColorMatrix type="matrix" values="0 0 0 0 0 0 0 0 0 0 0 0 0 0 0 0 0 0 0.25 0"/>
<feBlend mode="normal" in2="BackgroundImageFix" result="effect1_dropShadow_47_583"/>
<feBlend mode="normal" in="SourceGraphic" in2="effect1_dropShadow_47_583" result="shape"/>
<feColorMatrix in="SourceAlpha" type="matrix" values="0 0 0 0 0 0 0 0 0 0 0 0 0 0 0 0 0 0 127 0" result="hardAlpha"/>
<feOffset dy="1"/>
<feGaussianBlur stdDeviation="1.5"/>
<feComposite in2="hardAlpha" operator="arithmetic" k2="-1" k3="1"/>
<feColorMatrix type="matrix" values="0 0 0 0 1 0 0 0 0 1 0 0 0 0 1 0 0 0 0.25 0"/>
<feBlend mode="normal" in2="shape" result="effect2_innerShadow_47_583"/>
</filter>
</defs>
</svg>
