<svg width="264" height="265" viewBox="0 0 264 265" fill="none" xmlns="http://www.w3.org/2000/svg">
<path fill-rule="evenodd" clip-rule="evenodd" d="M263.549 15.9004C263.549 7.61612 256.833 0.900391 248.549 0.900391H15.3503C7.06607 0.900391 0.350342 7.61614 0.350342 15.9004V249.099C0.350342 257.383 7.06609 264.099 15.3504 264.099H248.549C256.833 264.099 263.549 257.383 263.549 249.099V15.9004ZM231.715 47.7324C231.715 39.4482 225 32.7324 216.715 32.7324H47.1827C38.8985 32.7324 32.1827 39.4481 32.1827 47.7324V217.265C32.1827 225.549 38.8985 232.265 47.1827 232.265H216.715C225 232.265 231.715 225.549 231.715 217.265V47.7324Z" fill="#484848"/>
<path fill-rule="evenodd" clip-rule="evenodd" d="M131.402 0.900391H15.3503C7.06607 0.900391 0.350342 7.61612 0.350342 15.9004V227H35.8455C33.5639 224.368 32.1831 220.935 32.1831 217.178V47.7205C32.1831 39.4362 38.8988 32.7205 47.1831 32.7205H131.402V0.900391Z" fill="#2368FF"/>
<path d="M94.8332 129.894C96.6252 130.193 98.1826 130.875 99.5052 131.942C100.828 132.966 101.852 134.289 102.577 135.91C103.345 137.531 103.729 139.323 103.729 141.286C103.729 143.931 103.047 146.235 101.681 148.198C100.316 150.161 98.3746 151.675 95.8572 152.742C93.3826 153.851 90.4599 154.406 87.0892 154.406C83.8466 154.406 80.9666 153.873 78.4492 152.806C75.9746 151.782 73.9052 150.267 72.2412 148.262L77.1052 142.182C78.2146 143.547 79.5372 144.614 81.0732 145.382C82.6519 146.193 84.5719 146.598 86.8332 146.598C89.4359 146.598 91.4199 146.065 92.7852 144.998C94.1506 143.974 94.8332 142.417 94.8332 140.326C94.8332 138.107 94.0439 136.401 92.4652 135.206C90.8866 134.011 88.4972 133.414 85.2972 133.414H83.5052V127.014H85.4892C88.0919 127.014 90.1186 126.417 91.5692 125.222C93.0626 124.027 93.8092 122.534 93.8092 120.742C93.8092 119.59 93.5319 118.63 92.9772 117.862C92.4226 117.094 91.6546 116.518 90.6732 116.134C89.7346 115.75 88.6252 115.558 87.3452 115.558C85.4252 115.558 83.6759 116.006 82.0972 116.902C80.5186 117.798 79.2386 119.057 78.2572 120.678L72.8812 114.662C73.7772 113.339 74.9932 112.209 76.5292 111.27C78.1079 110.289 79.8999 109.521 81.9052 108.966C83.9532 108.411 86.0866 108.134 88.3052 108.134C91.2066 108.134 93.7452 108.603 95.9212 109.542C98.1399 110.481 99.8679 111.803 101.105 113.51C102.343 115.217 102.961 117.201 102.961 119.462C102.961 121.126 102.62 122.705 101.937 124.198C101.255 125.691 100.295 126.95 99.0572 127.974C97.8626 128.955 96.4546 129.595 94.8332 129.894ZM141.977 131.558C141.977 134.374 141.209 136.827 139.673 138.918C138.179 141.009 136.174 142.651 133.657 143.846C131.139 144.998 128.387 145.574 125.401 145.574C122.371 145.574 119.598 144.955 117.081 143.718C114.606 142.481 112.622 140.795 111.129 138.662C109.678 136.486 108.953 134.011 108.953 131.238C108.953 129.531 109.315 127.995 110.041 126.63C110.766 125.222 111.662 124.027 112.729 123.046C113.838 122.022 114.947 121.233 116.057 120.678C115.033 120.166 114.073 119.483 113.177 118.63C112.323 117.777 111.641 116.795 111.129 115.686C110.617 114.577 110.361 113.403 110.361 112.166C110.361 110.161 110.809 108.369 111.705 106.79C112.601 105.211 113.795 103.889 115.289 102.822C116.782 101.713 118.403 100.902 120.153 100.39C121.945 99.8354 123.715 99.558 125.465 99.558C127.171 99.558 128.921 99.8354 130.713 100.39C132.505 100.902 134.147 101.691 135.641 102.758C137.134 103.825 138.329 105.147 139.225 106.726C140.163 108.262 140.633 110.054 140.633 112.102C140.633 113.297 140.355 114.47 139.801 115.622C139.289 116.731 138.585 117.734 137.689 118.63C136.835 119.483 135.854 120.166 134.745 120.678C135.982 121.318 137.155 122.15 138.265 123.174C139.374 124.198 140.27 125.414 140.953 126.822C141.635 128.23 141.977 129.809 141.977 131.558ZM133.273 131.046C133.273 129.937 133.059 128.977 132.633 128.166C132.206 127.313 131.609 126.609 130.841 126.054C130.073 125.457 129.219 125.009 128.281 124.71C127.342 124.411 126.382 124.262 125.401 124.262C124.035 124.262 122.755 124.539 121.561 125.094C120.409 125.649 119.47 126.438 118.745 127.462C118.019 128.486 117.657 129.681 117.657 131.046C117.657 132.07 117.87 133.009 118.297 133.862C118.766 134.673 119.363 135.377 120.089 135.974C120.857 136.571 121.689 137.041 122.585 137.382C123.523 137.681 124.483 137.83 125.465 137.83C126.83 137.83 128.11 137.531 129.305 136.934C130.499 136.337 131.459 135.526 132.185 134.502C132.91 133.478 133.273 132.326 133.273 131.046ZM119.065 112.422C119.065 113.574 119.385 114.555 120.025 115.366C120.665 116.177 121.475 116.795 122.457 117.222C123.481 117.606 124.483 117.798 125.465 117.798C126.489 117.798 127.47 117.585 128.409 117.158C129.39 116.731 130.201 116.134 130.841 115.366C131.523 114.555 131.865 113.553 131.865 112.358C131.865 111.291 131.566 110.374 130.969 109.606C130.371 108.838 129.582 108.241 128.601 107.814C127.662 107.387 126.595 107.174 125.401 107.174C124.291 107.174 123.246 107.387 122.265 107.814C121.283 108.241 120.494 108.859 119.897 109.67C119.342 110.438 119.065 111.355 119.065 112.422ZM157.562 118.31C155.599 118.31 153.828 117.883 152.25 117.03C150.671 116.134 149.391 114.961 148.41 113.51C147.471 112.017 147.002 110.374 147.002 108.582C147.002 106.79 147.471 105.169 148.41 103.718C149.391 102.225 150.671 101.051 152.25 100.198C153.828 99.3447 155.599 98.918 157.562 98.918C159.524 98.918 161.295 99.3447 162.874 100.198C164.495 101.051 165.775 102.225 166.714 103.718C167.652 105.169 168.122 106.79 168.122 108.582C168.122 110.374 167.652 112.017 166.714 113.51C165.775 114.961 164.495 116.134 162.874 117.03C161.295 117.883 159.524 118.31 157.562 118.31ZM157.562 114.022C158.415 114.022 159.183 113.766 159.866 113.254C160.548 112.742 161.082 112.081 161.466 111.27C161.892 110.459 162.106 109.585 162.106 108.646C162.106 107.622 161.892 106.705 161.466 105.894C161.039 105.083 160.484 104.443 159.802 103.974C159.119 103.462 158.372 103.206 157.562 103.206C156.708 103.206 155.94 103.462 155.258 103.974C154.575 104.443 154.02 105.083 153.594 105.894C153.21 106.705 153.018 107.601 153.018 108.582C153.018 109.563 153.231 110.481 153.658 111.334C154.084 112.145 154.639 112.806 155.322 113.318C156.004 113.787 156.751 114.022 157.562 114.022ZM182.266 145.638C180.303 145.638 178.532 145.211 176.954 144.358C175.375 143.505 174.095 142.353 173.114 140.902C172.175 139.409 171.706 137.766 171.706 135.974C171.706 134.139 172.175 132.497 173.114 131.046C174.095 129.595 175.375 128.443 176.954 127.59C178.532 126.694 180.303 126.246 182.266 126.246C184.228 126.246 185.999 126.694 187.578 127.59C189.199 128.443 190.479 129.595 191.418 131.046C192.356 132.497 192.826 134.118 192.826 135.91C192.826 137.702 192.356 139.345 191.418 140.838C190.479 142.289 189.199 143.462 187.578 144.358C185.999 145.211 184.228 145.638 182.266 145.638ZM182.266 141.35C183.119 141.35 183.887 141.094 184.57 140.582C185.252 140.07 185.786 139.409 186.17 138.598C186.596 137.787 186.81 136.913 186.81 135.974C186.81 134.95 186.596 134.033 186.17 133.222C185.786 132.411 185.231 131.771 184.506 131.302C183.823 130.79 183.076 130.534 182.266 130.534C181.455 130.534 180.687 130.79 179.962 131.302C179.279 131.771 178.724 132.433 178.298 133.286C177.914 134.097 177.722 134.971 177.722 135.91C177.722 136.934 177.935 137.851 178.362 138.662C178.788 139.473 179.343 140.134 180.026 140.646C180.708 141.115 181.455 141.35 182.266 141.35ZM150.65 141.99L168.634 120.934L185.274 99.046L189.178 102.502L171.642 123.238L154.49 145.446L150.65 141.99Z" fill="white"/>
</svg>
