<svg width="151" height="153" viewBox="0 0 151 153" fill="none" xmlns="http://www.w3.org/2000/svg">
<path d="M44.0121 134.633C43.6713 135.223 42.9163 135.426 42.3259 135.085C41.7355 134.744 41.5332 133.989 41.8741 133.398L44.0121 134.633ZM118.514 1.37532C119.173 1.19886 119.849 1.58965 120.026 2.24815L122.901 12.9791C123.078 13.6376 122.687 14.3144 122.028 14.4909C121.37 14.6673 120.693 14.2766 120.517 13.6181L117.961 4.07945L108.422 6.63538C107.764 6.81183 107.087 6.42106 106.91 5.76255C106.734 5.10405 107.125 4.42719 107.783 4.25073L118.514 1.37532ZM43.4124 130.734C43.7533 130.144 44.5082 129.941 45.0986 130.282C45.689 130.623 45.8913 131.378 45.5504 131.968L43.4124 130.734ZM51.9601 120.866C51.6192 121.457 50.8643 121.659 50.2739 121.318C49.6835 120.977 49.4812 120.222 49.8221 119.632L51.9601 120.866ZM52.8987 114.303C53.2396 113.713 53.9945 113.51 54.5849 113.851C55.1753 114.192 55.3776 114.947 55.0367 115.537L52.8987 114.303ZM61.4464 104.435C61.1055 105.026 60.3506 105.228 59.7602 104.887C59.1698 104.546 58.9675 103.791 59.3084 103.201L61.4464 104.435ZM62.385 97.872C62.7259 97.2816 63.4808 97.0793 64.0712 97.4201C64.6616 97.761 64.8639 98.5159 64.523 99.1063L62.385 97.872ZM70.9327 88.0043C70.5918 88.5947 69.8369 88.797 69.2465 88.4561C68.6561 88.1153 68.4538 87.3603 68.7947 86.7699L70.9327 88.0043ZM71.8713 81.441C72.2122 80.8506 72.9671 80.6483 73.5575 80.9891C74.1479 81.33 74.3502 82.0849 74.0093 82.6753L71.8713 81.441ZM80.419 71.5733C80.0781 72.1637 79.3232 72.366 78.7328 72.0251C78.1424 71.6843 77.9401 70.9293 78.281 70.3389L80.419 71.5733ZM81.3576 65.01C81.6985 64.4196 82.4534 64.2173 83.0438 64.5581C83.6342 64.899 83.8365 65.6539 83.4956 66.2443L81.3576 65.01ZM89.9053 55.1423C89.5644 55.7327 88.8095 55.935 88.2191 55.5941C87.6287 55.2533 87.4264 54.4983 87.7673 53.9079L89.9053 55.1423ZM90.8439 48.579C91.1848 47.9886 91.9397 47.7863 92.5301 48.1271C93.1205 48.468 93.3228 49.2229 92.9819 49.8133L90.8439 48.579ZM99.3916 38.7113C99.0507 39.3017 98.2958 39.504 97.7054 39.1631C97.115 38.8223 96.9127 38.0673 97.2536 37.4769L99.3916 38.7113ZM100.33 32.148C100.671 31.5576 101.426 31.3553 102.016 31.6961C102.607 32.037 102.809 32.7919 102.468 33.3823L100.33 32.148ZM108.878 22.2803C108.537 22.8707 107.782 23.073 107.192 22.7321C106.601 22.3913 106.399 21.6363 106.74 21.0459L108.878 22.2803ZM109.816 15.717C110.157 15.1266 110.912 14.9243 111.503 15.2651C112.093 15.606 112.295 16.3609 111.955 16.9513L109.816 15.717ZM118.364 5.8493C118.023 6.4397 117.268 6.64199 116.678 6.30114C116.088 5.96027 115.885 5.20532 116.226 4.61492L118.364 5.8493ZM41.8741 133.398L43.4124 130.734L45.5504 131.968L44.0121 134.633L41.8741 133.398ZM49.8221 119.632L52.8987 114.303L55.0367 115.537L51.9601 120.866L49.8221 119.632ZM59.3084 103.201L62.385 97.872L64.523 99.1063L61.4464 104.435L59.3084 103.201ZM68.7947 86.7699L71.8713 81.441L74.0093 82.6753L70.9327 88.0043L68.7947 86.7699ZM78.281 70.3389L81.3576 65.01L83.4956 66.2443L80.419 71.5733L78.281 70.3389ZM87.7673 53.9079L90.8439 48.579L92.9819 49.8133L89.9053 55.1423L87.7673 53.9079ZM97.2536 37.4769L100.33 32.148L102.468 33.3823L99.3916 38.7113L97.2536 37.4769ZM106.74 21.0459L109.816 15.717L111.955 16.9513L108.878 22.2803L106.74 21.0459ZM116.226 4.61492L117.764 1.95046L119.903 3.18482L118.364 5.8493L116.226 4.61492ZM45.0811 135.25C44.3994 136.431 42.8895 136.835 41.7087 136.154C40.5279 135.472 40.1234 133.962 40.8051 132.781L45.0811 135.25ZM118.195 0.182988C119.512 -0.169902 120.865 0.611656 121.218 1.92866L126.969 23.3905C127.322 24.7075 126.54 26.0612 125.223 26.4141C123.906 26.767 122.553 25.9855 122.2 24.6685L117.088 5.59128L98.0106 10.7031C96.6936 11.056 95.3399 10.2745 94.987 8.95747C94.6341 7.64046 95.4157 6.28673 96.7327 5.93383L118.195 0.182988ZM42.3434 130.117C43.0251 128.936 44.535 128.531 45.7158 129.213C46.8966 129.895 47.3012 131.405 46.6195 132.586L42.3434 130.117ZM53.0291 121.483C52.3474 122.664 50.8375 123.069 49.6567 122.387C48.4759 121.705 48.0713 120.196 48.7531 119.015L53.0291 121.483ZM51.8297 113.686C52.5114 112.505 54.0213 112.1 55.2021 112.782C56.3829 113.464 56.7875 114.974 56.1058 116.155L51.8297 113.686ZM62.5154 105.052C61.8337 106.233 60.3238 106.638 59.143 105.956C57.9622 105.274 57.5576 103.765 58.2394 102.584L62.5154 105.052ZM61.316 97.2548C61.9977 96.074 63.5076 95.6694 64.6884 96.3511C65.8692 97.0328 66.2738 98.5427 65.5921 99.7235L61.316 97.2548ZM72.0017 88.6215C71.32 89.8023 69.8101 90.2069 68.6293 89.5252C67.4485 88.8434 67.0439 87.3335 67.7257 86.1527L72.0017 88.6215ZM70.8023 80.8238C71.484 79.643 72.9939 79.2384 74.1747 79.9201C75.3555 80.6018 75.7601 82.1117 75.0784 83.2925L70.8023 80.8238ZM81.488 72.1905C80.8063 73.3713 79.2964 73.7759 78.1156 73.0942C76.9348 72.4124 76.5302 70.9025 77.212 69.7217L81.488 72.1905ZM80.2886 64.3928C80.9703 63.212 82.4802 62.8074 83.661 63.4891C84.8418 64.1709 85.2464 65.6807 84.5647 66.8615L80.2886 64.3928ZM90.9743 55.7595C90.2926 56.9403 88.7827 57.3449 87.6019 56.6632C86.4211 55.9814 86.0165 54.4716 86.6983 53.2908L90.9743 55.7595ZM89.7749 47.9618C90.4566 46.781 91.9665 46.3764 93.1473 47.0581C94.3281 47.7398 94.7327 49.2497 94.0509 50.4305L89.7749 47.9618ZM100.461 39.3285C99.7789 40.5093 98.269 40.9139 97.0882 40.2322C95.9074 39.5504 95.5028 38.0406 96.1845 36.8598L100.461 39.3285ZM99.2612 31.5308C99.9429 30.35 101.453 29.9454 102.634 30.6271C103.814 31.3089 104.219 32.8187 103.537 33.9995L99.2612 31.5308ZM109.947 22.8975C109.265 24.0783 107.755 24.4829 106.575 23.8012C105.394 23.1194 104.989 21.6096 105.671 20.4288L109.947 22.8975ZM108.747 15.0998C109.429 13.919 110.939 13.5144 112.12 14.1961C113.301 14.8778 113.705 16.3877 113.024 17.5685L108.747 15.0998ZM119.433 6.46649C118.751 7.64729 117.242 8.05187 116.061 7.37014C114.88 6.68842 114.475 5.17854 115.157 3.99774L119.433 6.46649ZM40.8051 132.781L42.3434 130.117L46.6195 132.586L45.0811 135.25L40.8051 132.781ZM48.7531 119.015L51.8297 113.686L56.1058 116.155L53.0291 121.483L48.7531 119.015ZM58.2394 102.584L61.316 97.2548L65.5921 99.7235L62.5154 105.052L58.2394 102.584ZM67.7257 86.1527L70.8023 80.8238L75.0784 83.2925L72.0017 88.6215L67.7257 86.1527ZM77.212 69.7217L80.2886 64.3928L84.5647 66.8615L81.488 72.1905L77.212 69.7217ZM86.6983 53.2908L89.7749 47.9618L94.0509 50.4305L90.9743 55.7595L86.6983 53.2908ZM96.1845 36.8598L99.2612 31.5308L103.537 33.9995L100.461 39.3285L96.1845 36.8598ZM105.671 20.4288L108.747 15.0998L113.024 17.5685L109.947 22.8975L105.671 20.4288ZM115.157 3.99774L116.695 1.33327L120.972 3.80202L119.433 6.46649L115.157 3.99774Z" fill="white"/>
<circle r="11.6122" transform="matrix(0.965926 -0.258819 -0.258819 -0.965926 40.9393 138.358)" fill="white"/>
</svg>
