<svg width="154" height="151" viewBox="0 0 154 151" fill="none" xmlns="http://www.w3.org/2000/svg">
<path d="M134.265 109.439C134.855 109.78 135.61 109.578 135.951 108.987C136.292 108.397 136.089 107.642 135.499 107.301L134.265 109.439ZM3.11538 31.2857C2.45686 31.4621 2.06608 32.139 2.24252 32.7975L5.1178 43.5285C5.29424 44.187 5.97109 44.5778 6.62959 44.4013C7.28811 44.2249 7.67889 43.548 7.50245 42.8895L4.94664 33.3509L14.4853 30.7951C15.1438 30.6186 15.5346 29.9418 15.3581 29.2833C15.1817 28.6248 14.5048 28.234 13.8463 28.4104L3.11538 31.2857ZM132.835 105.763C132.244 105.422 131.489 105.624 131.148 106.215C130.807 106.805 131.01 107.56 131.6 107.901L132.835 105.763ZM120.498 101.491C121.089 101.832 121.844 101.63 122.184 101.039C122.525 100.449 122.323 99.6938 121.733 99.353L120.498 101.491ZM116.404 96.2762C115.813 95.9354 115.058 96.1377 114.717 96.7281C114.377 97.3184 114.579 98.0734 115.169 98.4143L116.404 96.2762ZM104.067 92.0045C104.658 92.3453 105.413 92.143 105.754 91.5526C106.094 90.9623 105.892 90.2073 105.302 89.8664L104.067 92.0045ZM99.9728 86.7897C99.3824 86.4489 98.6275 86.6511 98.2866 87.2415C97.9457 87.8319 98.148 88.5869 98.7384 88.9277L99.9728 86.7897ZM87.6365 82.5179C88.2269 82.8588 88.9818 82.6565 89.3227 82.0661C89.6636 81.4757 89.4613 80.7208 88.8709 80.3799L87.6365 82.5179ZM83.542 77.3032C82.9516 76.9624 82.1966 77.1646 81.8557 77.755C81.5149 78.3454 81.7172 79.1004 82.3076 79.4412L83.542 77.3032ZM71.2056 73.0314C71.796 73.3723 72.5509 73.17 72.8918 72.5796C73.2327 71.9892 73.0304 71.2343 72.44 70.8934L71.2056 73.0314ZM67.1111 67.8167C66.5207 67.4758 65.7657 67.6781 65.4249 68.2685C65.084 68.8589 65.2863 69.6139 65.8767 69.9547L67.1111 67.8167ZM54.7747 63.5449C55.3651 63.8858 56.1201 63.6835 56.4609 63.0931C56.8018 62.5027 56.5995 61.7478 56.0091 61.4069L54.7747 63.5449ZM50.6802 58.3302C50.0898 57.9893 49.3349 58.1916 48.994 58.782C48.6531 59.3724 48.8554 60.1273 49.4458 60.4682L50.6802 58.3302ZM38.3439 54.0584C38.9343 54.3993 39.6892 54.197 40.0301 53.6066C40.3709 53.0162 40.1687 52.2613 39.5783 51.9204L38.3439 54.0584ZM34.2493 48.8437C33.6589 48.5028 32.904 48.7051 32.5631 49.2955C32.2223 49.8859 32.4245 50.6408 33.0149 50.9817L34.2493 48.8437ZM21.913 44.5719C22.5034 44.9128 23.2583 44.7105 23.5992 44.1201C23.9401 43.5297 23.7378 42.7748 23.1474 42.4339L21.913 44.5719ZM17.8185 39.3572C17.2281 39.0163 16.4731 39.2186 16.1322 39.809C15.7914 40.3994 15.9937 41.1543 16.5841 41.4952L17.8185 39.3572ZM5.48209 35.0854C6.07249 35.4262 6.82743 35.224 7.16831 34.6336C7.50918 34.0432 7.30689 33.2882 6.7165 32.9474L5.48209 35.0854ZM135.499 107.301L132.835 105.763L131.6 107.901L134.265 109.439L135.499 107.301ZM121.733 99.353L116.404 96.2762L115.169 98.4143L120.498 101.491L121.733 99.353ZM105.302 89.8664L99.9728 86.7897L98.7384 88.9277L104.067 92.0045L105.302 89.8664ZM88.8709 80.3799L83.542 77.3032L82.3076 79.4412L87.6365 82.5179L88.8709 80.3799ZM72.44 70.8934L67.1111 67.8167L65.8767 69.9547L71.2056 73.0314L72.44 70.8934ZM56.0091 61.4069L50.6802 58.3302L49.4458 60.4682L54.7747 63.5449L56.0091 61.4069ZM39.5783 51.9204L34.2493 48.8437L33.0149 50.9817L38.3439 54.0584L39.5783 51.9204ZM23.1474 42.4339L17.8185 39.3572L16.5841 41.4952L21.913 44.5719L23.1474 42.4339ZM6.7165 32.9474L4.05205 31.409L2.81764 33.547L5.48209 35.0854L6.7165 32.9474ZM133.647 110.508C134.828 111.19 136.338 110.785 137.02 109.605C137.702 108.424 137.297 106.914 136.116 106.232L133.647 110.508ZM2.79589 30.0934C1.47889 30.4462 0.697306 31.8 1.05019 33.117L6.80075 54.5789C7.15363 55.8959 8.50734 56.6775 9.82436 56.3246C11.1414 55.9717 11.9229 54.618 11.5701 53.301L6.45846 34.2237L25.5357 29.1121C26.8527 28.7592 27.6343 27.4055 27.2814 26.0885C26.9286 24.7715 25.5748 23.9899 24.2578 24.3428L2.79589 30.0934ZM133.452 104.694C132.271 104.012 130.761 104.417 130.079 105.597C129.398 106.778 129.802 108.288 130.983 108.97L133.452 104.694ZM119.881 102.56C121.062 103.242 122.572 102.837 123.253 101.656C123.935 100.476 123.531 98.9657 122.35 98.2839L119.881 102.56ZM117.021 95.2072C115.84 94.5255 114.33 94.9301 113.648 96.1108C112.967 97.2916 113.371 98.8015 114.552 99.4833L117.021 95.2072ZM103.45 93.0735C104.631 93.7552 106.141 93.3506 106.823 92.1698C107.504 90.9891 107.1 89.4792 105.919 88.7974L103.45 93.0735ZM100.59 85.7207C99.4092 85.039 97.8994 85.4435 97.2176 86.6243C96.5359 87.8051 96.9404 89.315 98.1212 89.9968L100.59 85.7207ZM87.0193 83.5869C88.2001 84.2687 89.71 83.8641 90.3917 82.6833C91.0734 81.5025 90.6689 79.9927 89.4881 79.3109L87.0193 83.5869ZM84.1592 76.2342C82.9784 75.5525 81.4685 75.957 80.7867 77.1378C80.105 78.3186 80.5096 79.8285 81.6903 80.5102L84.1592 76.2342ZM70.5884 74.1004C71.7692 74.7822 73.2791 74.3776 73.9608 73.1968C74.6426 72.016 74.238 70.5061 73.0572 69.8244L70.5884 74.1004ZM67.7283 66.7477C66.5475 66.066 65.0376 66.4705 64.3559 67.6513C63.6741 68.8321 64.0787 70.342 65.2595 71.0237L67.7283 66.7477ZM54.1575 64.6139C55.3383 65.2957 56.8482 64.8911 57.5299 63.7103C58.2117 62.5295 57.8071 61.0196 56.6263 60.3379L54.1575 64.6139ZM51.2974 57.2612C50.1166 56.5795 48.6067 56.984 47.925 58.1648C47.2432 59.3456 47.6478 60.8555 48.8286 61.5372L51.2974 57.2612ZM37.7267 55.1274C38.9075 55.8092 40.4173 55.4046 41.0991 54.2238C41.7808 53.043 41.3763 51.5331 40.1955 50.8514L37.7267 55.1274ZM34.8665 47.7747C33.6857 47.0929 32.1759 47.4975 31.4941 48.6783C30.8124 49.8591 31.2169 51.369 32.3977 52.0507L34.8665 47.7747ZM21.2958 45.6409C22.4766 46.3226 23.9865 45.9181 24.6682 44.7373C25.3499 43.5565 24.9454 42.0466 23.7646 41.3649L21.2958 45.6409ZM18.4357 38.2882C17.2549 37.6064 15.745 38.011 15.0632 39.1918C14.3815 40.3726 14.7861 41.8825 15.9668 42.5642L18.4357 38.2882ZM4.8649 36.1544C6.04569 36.8361 7.55557 36.4316 8.23731 35.2508C8.91905 34.07 8.51449 32.5601 7.3337 31.8784L4.8649 36.1544ZM136.116 106.232L133.452 104.694L130.983 108.97L133.647 110.508L136.116 106.232ZM122.35 98.2839L117.021 95.2072L114.552 99.4833L119.881 102.56L122.35 98.2839ZM105.919 88.7974L100.59 85.7207L98.1212 89.9968L103.45 93.0735L105.919 88.7974ZM89.4881 79.3109L84.1592 76.2342L81.6903 80.5102L87.0193 83.5869L89.4881 79.3109ZM73.0572 69.8244L67.7283 66.7477L65.2595 71.0237L70.5884 74.1004L73.0572 69.8244ZM56.6263 60.3379L51.2974 57.2612L48.8286 61.5372L54.1575 64.6139L56.6263 60.3379ZM40.1955 50.8514L34.8665 47.7747L32.3977 52.0507L37.7267 55.1274L40.1955 50.8514ZM23.7646 41.3649L18.4357 38.2882L15.9668 42.5642L21.2958 45.6409L23.7646 41.3649ZM7.3337 31.8784L4.66925 30.34L2.20044 34.616L4.8649 36.1544L7.3337 31.8784Z" fill="white"/>
<circle cx="138.788" cy="111.128" r="11.6122" transform="rotate(165 138.788 111.128)" fill="white"/>
</svg>
