<svg width="153" height="151" viewBox="0 0 153 151" fill="none" xmlns="http://www.w3.org/2000/svg">
<path d="M18.8027 42.1605C18.2124 41.8196 17.4574 42.0219 17.1165 42.6123C16.7757 43.2027 16.9779 43.9576 17.5683 44.2985L18.8027 42.1605ZM149.952 120.314C150.611 120.137 151.001 119.461 150.825 118.802L147.95 108.071C147.773 107.413 147.096 107.022 146.438 107.198C145.779 107.375 145.388 108.052 145.565 108.71L148.121 118.249L138.582 120.805C137.924 120.981 137.533 121.658 137.709 122.316C137.886 122.975 138.563 123.366 139.221 123.189L149.952 120.314ZM20.2328 45.8369C20.8232 46.1777 21.5781 45.9754 21.919 45.385C22.2599 44.7947 22.0576 44.0397 21.4672 43.6988L20.2328 45.8369ZM32.5692 50.1086C31.9788 49.7678 31.2238 49.9701 30.8829 50.5605C30.5421 51.1508 30.7444 51.9058 31.3348 52.2467L32.5692 50.1086ZM36.6637 55.3234C37.2541 55.6642 38.009 55.462 38.3499 54.8716C38.6908 54.2812 38.4885 53.5262 37.8981 53.1854L36.6637 55.3234ZM49 59.5952C48.4096 59.2543 47.6547 59.4566 47.3138 60.047C46.9729 60.6374 47.1752 61.3923 47.7656 61.7332L49 59.5952ZM53.0946 64.8099C53.685 65.1507 54.4399 64.9485 54.7808 64.3581C55.1216 63.7677 54.9194 63.0127 54.329 62.6719L53.0946 64.8099ZM65.4309 69.0817C64.8405 68.7408 64.0856 68.9431 63.7447 69.5335C63.4038 70.1239 63.6061 70.8788 64.1965 71.2197L65.4309 69.0817ZM69.5254 74.2964C70.1158 74.6373 70.8708 74.435 71.2116 73.8446C71.5525 73.2542 71.3502 72.4992 70.7598 72.1584L69.5254 74.2964ZM81.8618 78.5682C81.2714 78.2273 80.5164 78.4296 80.1756 79.02C79.8347 79.6104 80.037 80.3653 80.6274 80.7062L81.8618 78.5682ZM85.9563 83.7829C86.5467 84.1238 87.3016 83.9215 87.6425 83.3311C87.9834 82.7407 87.7811 81.9858 87.1907 81.6449L85.9563 83.7829ZM98.2926 88.0547C97.7023 87.7138 96.9473 87.9161 96.6064 88.5065C96.2656 89.0969 96.4678 89.8518 97.0582 90.1927L98.2926 88.0547ZM102.387 93.2694C102.978 93.6103 103.733 93.408 104.073 92.8176C104.414 92.2272 104.212 91.4723 103.622 91.1314L102.387 93.2694ZM114.724 97.5412C114.133 97.2003 113.378 97.4026 113.037 97.993C112.696 98.5834 112.899 99.3383 113.489 99.6792L114.724 97.5412ZM118.818 102.756C119.408 103.097 120.163 102.895 120.504 102.304C120.845 101.714 120.643 100.959 120.052 100.618L118.818 102.756ZM131.154 107.028C130.564 106.687 129.809 106.889 129.468 107.48C129.127 108.07 129.33 108.825 129.92 109.166L131.154 107.028ZM135.249 112.242C135.839 112.583 136.594 112.381 136.935 111.791C137.276 111.2 137.074 110.445 136.483 110.104L135.249 112.242ZM147.585 116.514C146.995 116.173 146.24 116.376 145.899 116.966C145.558 117.556 145.76 118.311 146.351 118.652L147.585 116.514ZM17.5683 44.2985L20.2328 45.8369L21.4672 43.6988L18.8027 42.1605L17.5683 44.2985ZM31.3348 52.2467L36.6637 55.3234L37.8981 53.1854L32.5692 50.1086L31.3348 52.2467ZM47.7656 61.7332L53.0946 64.8099L54.329 62.6719L49 59.5952L47.7656 61.7332ZM64.1965 71.2197L69.5254 74.2964L70.7598 72.1584L65.4309 69.0817L64.1965 71.2197ZM80.6274 80.7062L85.9563 83.7829L87.1907 81.6449L81.8618 78.5682L80.6274 80.7062ZM97.0582 90.1927L102.387 93.2694L103.622 91.1314L98.2926 88.0547L97.0582 90.1927ZM113.489 99.6792L118.818 102.756L120.052 100.618L114.724 97.5412L113.489 99.6792ZM129.92 109.166L135.249 112.242L136.483 110.104L131.154 107.028L129.92 109.166ZM146.351 118.652L149.015 120.191L150.25 118.053L147.585 116.514L146.351 118.652ZM19.4199 41.0915C18.2392 40.4097 16.7293 40.8143 16.0475 41.9951C15.3658 43.1759 15.7704 44.6858 16.9511 45.3675L19.4199 41.0915ZM150.271 121.506C151.588 121.153 152.37 119.8 152.017 118.483L146.267 97.0207C145.914 95.7037 144.56 94.9221 143.243 95.275C141.926 95.6279 141.144 96.9816 141.497 98.2986L146.609 117.376L127.532 122.487C126.215 122.84 125.433 124.194 125.786 125.511C126.139 126.828 127.493 127.61 128.81 127.257L150.271 121.506ZM19.6156 46.9059C20.7964 47.5876 22.3063 47.183 22.988 46.0022C23.6698 44.8215 23.2652 43.3116 22.0844 42.6298L19.6156 46.9059ZM33.1864 49.0396C32.0056 48.3579 30.4957 48.7625 29.8139 49.9432C29.1322 51.124 29.5368 52.6339 30.7176 53.3157L33.1864 49.0396ZM36.0465 56.3924C37.2273 57.0741 38.7372 56.6696 39.4189 55.4888C40.1006 54.308 39.6961 52.7981 38.5153 52.1163L36.0465 56.3924ZM49.6172 58.5261C48.4364 57.8444 46.9266 58.249 46.2448 59.4298C45.5631 60.6106 45.9676 62.1204 47.1484 62.8022L49.6172 58.5261ZM52.4774 65.8789C53.6581 66.5606 55.168 66.1561 55.8498 64.9753C56.5315 63.7945 56.127 62.2846 54.9462 61.6029L52.4774 65.8789ZM66.0481 68.0127C64.8673 67.3309 63.3574 67.7355 62.6757 68.9163C61.9939 70.0971 62.3985 71.6069 63.5793 72.2887L66.0481 68.0127ZM68.9082 75.3654C70.089 76.0471 71.5989 75.6426 72.2806 74.4618C72.9624 73.281 72.5578 71.7711 71.377 71.0894L68.9082 75.3654ZM82.479 77.4992C81.2982 76.8174 79.7883 77.222 79.1066 78.4028C78.4248 79.5836 78.8294 81.0935 80.0102 81.7752L82.479 77.4992ZM85.3391 84.8519C86.5199 85.5336 88.0298 85.1291 88.7115 83.9483C89.3933 82.7675 88.9887 81.2576 87.8079 80.5759L85.3391 84.8519ZM98.9098 86.9857C97.7291 86.3039 96.2192 86.7085 95.5374 87.8893C94.8557 89.0701 95.2603 90.58 96.441 91.2617L98.9098 86.9857ZM101.77 94.3384C102.951 95.0202 104.461 94.6156 105.142 93.4348C105.824 92.254 105.42 90.7441 104.239 90.0624L101.77 94.3384ZM115.341 96.4722C114.16 95.7905 112.65 96.195 111.968 97.3758C111.287 98.5566 111.691 100.066 112.872 100.748L115.341 96.4722ZM118.201 103.825C119.382 104.507 120.892 104.102 121.573 102.921C122.255 101.741 121.85 100.231 120.67 99.5489L118.201 103.825ZM131.772 105.959C130.591 105.277 129.081 105.682 128.399 106.862C127.717 108.043 128.122 109.553 129.303 110.235L131.772 105.959ZM134.632 113.311C135.813 113.993 137.322 113.589 138.004 112.408C138.686 111.227 138.281 109.717 137.101 109.035L134.632 113.311ZM148.202 115.445C147.022 114.763 145.512 115.168 144.83 116.349C144.148 117.53 144.553 119.04 145.734 119.721L148.202 115.445ZM16.9511 45.3675L19.6156 46.9059L22.0844 42.6298L19.4199 41.0915L16.9511 45.3675ZM30.7176 53.3157L36.0465 56.3924L38.5153 52.1163L33.1864 49.0396L30.7176 53.3157ZM47.1484 62.8022L52.4774 65.8789L54.9462 61.6029L49.6172 58.5261L47.1484 62.8022ZM63.5793 72.2887L68.9082 75.3654L71.377 71.0894L66.0481 68.0127L63.5793 72.2887ZM80.0102 81.7752L85.3391 84.8519L87.8079 80.5759L82.479 77.4992L80.0102 81.7752ZM96.441 91.2617L101.77 94.3384L104.239 90.0624L98.9098 86.9857L96.441 91.2617ZM112.872 100.748L118.201 103.825L120.67 99.5489L115.341 96.4722L112.872 100.748ZM129.303 110.235L134.632 113.311L137.101 109.035L131.772 105.959L129.303 110.235ZM145.734 119.721L148.398 121.26L150.867 116.984L148.202 115.445L145.734 119.721Z" fill="white"/>
<circle cx="14.2795" cy="40.4718" r="11.6122" transform="rotate(-15 14.2795 40.4718)" fill="white"/>
</svg>
