<svg width="150" height="153" viewBox="0 0 150 153" fill="none" xmlns="http://www.w3.org/2000/svg">
<path d="M106.833 18.2666C107.174 17.6762 107.929 17.4739 108.519 17.8148C109.11 18.1556 109.312 18.9106 108.971 19.501L106.833 18.2666ZM32.3312 151.524C31.6727 151.701 30.9958 151.31 30.8194 150.651L27.944 139.92C27.7675 139.262 28.1583 138.585 28.8168 138.409C29.4753 138.232 30.1522 138.623 30.3286 139.281L32.8846 148.82L42.4232 146.264C43.0817 146.088 43.7585 146.478 43.935 147.137C44.1114 147.795 43.7206 148.472 43.0621 148.649L32.3312 151.524ZM107.433 22.1655C107.092 22.7559 106.337 22.9582 105.747 22.6173C105.156 22.2764 104.954 21.5215 105.295 20.9311L107.433 22.1655ZM98.8851 32.0331C99.226 31.4427 99.9809 31.2404 100.571 31.5813C101.162 31.9221 101.364 32.6771 101.023 33.2675L98.8851 32.0331ZM97.9465 38.5965C97.6056 39.1869 96.8507 39.3892 96.2603 39.0483C95.6699 38.7074 95.4676 37.9525 95.8085 37.3621L97.9465 38.5965ZM89.3988 48.4641C89.7397 47.8737 90.4946 47.6714 91.085 48.0123C91.6754 48.3531 91.8777 49.1081 91.5368 49.6985L89.3988 48.4641ZM88.4602 55.0275C88.1193 55.6179 87.3644 55.8201 86.774 55.4793C86.1836 55.1384 85.9813 54.3835 86.3222 53.7931L88.4602 55.0275ZM79.9125 64.8951C80.2534 64.3047 81.0083 64.1024 81.5987 64.4433C82.1891 64.7841 82.3914 65.5391 82.0505 66.1295L79.9125 64.8951ZM78.9739 71.4585C78.633 72.0489 77.8781 72.2511 77.2877 71.9103C76.6973 71.5694 76.495 70.8145 76.8359 70.2241L78.9739 71.4585ZM70.4262 81.3261C70.7671 80.7357 71.522 80.5334 72.1124 80.8743C72.7028 81.2151 72.9051 81.9701 72.5642 82.5605L70.4262 81.3261ZM69.4876 87.8895C69.1467 88.4798 68.3918 88.6821 67.8014 88.3413C67.211 88.0004 67.0087 87.2455 67.3496 86.6551L69.4876 87.8895ZM60.9399 97.7571C61.2808 97.1667 62.0357 96.9644 62.6261 97.3053C63.2165 97.6461 63.4188 98.4011 63.0779 98.9915L60.9399 97.7571ZM60.0013 104.32C59.6605 104.911 58.9055 105.113 58.3151 104.772C57.7247 104.431 57.5224 103.676 57.8633 103.086L60.0013 104.32ZM51.4536 114.188C51.7945 113.598 52.5494 113.395 53.1398 113.736C53.7302 114.077 53.9325 114.832 53.5917 115.422L51.4536 114.188ZM50.515 120.751C50.1742 121.342 49.4192 121.544 48.8288 121.203C48.2384 120.862 48.0361 120.107 48.377 119.517L50.515 120.751ZM41.9673 130.619C42.3082 130.029 43.0631 129.826 43.6535 130.167C44.2439 130.508 44.4462 131.263 44.1054 131.853L41.9673 130.619ZM41.0287 137.182C40.6879 137.773 39.9329 137.975 39.3425 137.634C38.7521 137.293 38.5498 136.538 38.8907 135.948L41.0287 137.182ZM32.481 147.05C32.8219 146.46 33.5768 146.257 34.1672 146.598C34.7576 146.939 34.9599 147.694 34.619 148.284L32.481 147.05ZM108.971 19.501L107.433 22.1655L105.295 20.9311L106.833 18.2666L108.971 19.501ZM101.023 33.2675L97.9465 38.5965L95.8085 37.3621L98.8851 32.0331L101.023 33.2675ZM91.5368 49.6985L88.4602 55.0275L86.3222 53.7931L89.3988 48.4641L91.5368 49.6985ZM82.0505 66.1295L78.9739 71.4585L76.8359 70.2241L79.9125 64.8951L82.0505 66.1295ZM72.5642 82.5605L69.4876 87.8895L67.3496 86.6551L70.4262 81.3261L72.5642 82.5605ZM63.0779 98.9915L60.0013 104.32L57.8633 103.086L60.9399 97.7571L63.0779 98.9915ZM53.5917 115.422L50.515 120.751L48.377 119.517L51.4536 114.188L53.5917 115.422ZM44.1054 131.853L41.0287 137.182L38.8907 135.948L41.9673 130.619L44.1054 131.853ZM34.619 148.284L33.0807 150.949L30.9427 149.715L32.481 147.05L34.619 148.284ZM105.764 17.6494C106.446 16.4686 107.956 16.064 109.136 16.7458C110.317 17.4275 110.722 18.9374 110.04 20.1182L105.764 17.6494ZM32.6507 152.716C31.3337 153.069 29.98 152.288 29.6271 150.971L23.8762 129.509C23.5233 128.192 24.3049 126.838 25.6219 126.485C26.9389 126.132 28.2926 126.914 28.6455 128.231L33.7574 147.308L52.8346 142.196C54.1516 141.843 55.5053 142.625 55.8582 143.942C56.2111 145.259 55.4296 146.613 54.1126 146.966L32.6507 152.716ZM108.502 22.7826C107.82 23.9635 106.31 24.368 105.129 23.6863C103.949 23.0046 103.544 21.4947 104.226 20.3139L108.502 22.7826ZM97.8161 31.4159C98.4978 30.2351 100.008 29.8305 101.188 30.5123C102.369 31.194 102.774 32.7039 102.092 33.8847L97.8161 31.4159ZM99.0155 39.2136C98.3338 40.3944 96.8239 40.799 95.6431 40.1173C94.4623 39.4356 94.0577 37.9257 94.7395 36.7449L99.0155 39.2136ZM88.3298 47.8469C89.0115 46.6661 90.5214 46.2615 91.7022 46.9433C92.883 47.625 93.2876 49.1349 92.6059 50.3157L88.3298 47.8469ZM89.5292 55.6446C88.8475 56.8254 87.3376 57.23 86.1568 56.5483C84.976 55.8666 84.5714 54.3567 85.2532 53.1759L89.5292 55.6446ZM78.8435 64.2779C79.5252 63.0971 81.0351 62.6925 82.2159 63.3743C83.3967 64.056 83.8013 65.5659 83.1196 66.7467L78.8435 64.2779ZM80.0429 72.0756C79.3612 73.2564 77.8513 73.661 76.6705 72.9793C75.4897 72.2976 75.0851 70.7877 75.7669 69.6069L80.0429 72.0756ZM69.3572 80.7089C70.0389 79.5281 71.5488 79.1235 72.7296 79.8053C73.9104 80.487 74.315 81.9969 73.6333 83.1777L69.3572 80.7089ZM70.5566 88.5066C69.8749 89.6874 68.365 90.092 67.1842 89.4103C66.0034 88.7286 65.5988 87.2187 66.2806 86.0379L70.5566 88.5066ZM59.8709 97.1399C60.5526 95.9591 62.0625 95.5545 63.2433 96.2363C64.4241 96.918 64.8287 98.4279 64.147 99.6087L59.8709 97.1399ZM61.0703 104.938C60.3886 106.118 58.8787 106.523 57.6979 105.841C56.5171 105.16 56.1125 103.65 56.7943 102.469L61.0703 104.938ZM50.3846 113.571C51.0663 112.39 52.5762 111.986 53.757 112.667C54.9378 113.349 55.3424 114.859 54.6607 116.04L50.3846 113.571ZM51.584 121.369C50.9023 122.549 49.3924 122.954 48.2116 122.272C47.0308 121.591 46.6262 120.081 47.308 118.9L51.584 121.369ZM40.8983 130.002C41.58 128.821 43.0899 128.417 44.2707 129.098C45.4515 129.78 45.8561 131.29 45.1744 132.471L40.8983 130.002ZM42.0977 137.8C41.416 138.98 39.9061 139.385 38.7253 138.703C37.5445 138.022 37.1399 136.512 37.8217 135.331L42.0977 137.8ZM31.412 146.433C32.0937 145.252 33.6036 144.848 34.7844 145.529C35.9652 146.211 36.3698 147.721 35.6881 148.902L31.412 146.433ZM110.04 20.1182L108.502 22.7826L104.226 20.3139L105.764 17.6494L110.04 20.1182ZM102.092 33.8847L99.0155 39.2136L94.7395 36.7449L97.8161 31.4159L102.092 33.8847ZM92.6059 50.3157L89.5292 55.6446L85.2532 53.1759L88.3298 47.8469L92.6059 50.3157ZM83.1196 66.7467L80.0429 72.0756L75.7669 69.6069L78.8435 64.2779L83.1196 66.7467ZM73.6333 83.1777L70.5566 88.5066L66.2806 86.0379L69.3572 80.7089L73.6333 83.1777ZM64.147 99.6087L61.0703 104.938L56.7943 102.469L59.8709 97.1399L64.147 99.6087ZM54.6607 116.04L51.584 121.369L47.308 118.9L50.3846 113.571L54.6607 116.04ZM45.1744 132.471L42.0977 137.8L37.8217 135.331L40.8983 130.002L45.1744 132.471ZM35.6881 148.902L34.1498 151.566L29.8737 149.097L31.412 146.433L35.6881 148.902Z" fill="white"/>
<circle r="11.6122" transform="matrix(-0.965926 0.258819 0.258819 0.965926 109.906 14.5422)" fill="white"/>
</svg>
