<svg width="269" height="276" viewBox="0 0 269 276" fill="none" xmlns="http://www.w3.org/2000/svg">
<path fill-rule="evenodd" clip-rule="evenodd" d="M268.198 19.498C268.198 11.2138 261.482 4.49805 253.198 4.49805H20C11.7157 4.49805 5 11.2138 5 19.4981V252.696C5 260.98 11.7157 267.696 20 267.696H253.198C261.482 267.696 268.198 260.98 268.198 252.696V19.498ZM236.366 51.3301C236.366 43.0458 229.65 36.3301 221.366 36.3301H51.833C43.5487 36.3301 36.833 43.0458 36.833 51.3301V220.863C36.833 229.147 43.5487 235.863 51.833 235.863H221.366C229.65 235.863 236.366 229.147 236.366 220.863V51.3301Z" fill="#122C65"/>
<g filter="url(#filter0_di_47_608)">
<path fill-rule="evenodd" clip-rule="evenodd" d="M136.6 4.49805H20C11.7157 4.49805 5 11.2138 5 19.4981V252.696C5 260.98 11.7157 267.696 20 267.696H136.6V235.863H51.833C43.5487 235.863 36.833 229.147 36.833 220.863V51.3301C36.833 43.0458 43.5487 36.3301 51.833 36.3301H136.6V4.49805Z" fill="#2368FF"/>
</g>
<path d="M90.8696 168.138C87.5842 168.138 84.6189 167.434 81.9736 166.026C79.3282 164.618 77.3229 162.698 75.9576 160.266L80.8856 155.146C82.0802 156.81 83.5736 158.132 85.3656 159.114C87.1576 160.095 89.0136 160.586 90.9336 160.586C92.4696 160.586 93.8136 160.266 94.9656 159.626C96.1602 158.986 97.0989 158.09 97.7816 156.938C98.4642 155.786 98.8056 154.463 98.8056 152.97C98.8056 151.476 98.4856 150.175 97.8456 149.066C97.2056 147.956 96.3309 147.103 95.2216 146.506C94.1122 145.866 92.8536 145.546 91.4456 145.546C90.0376 145.546 88.7149 145.866 87.4776 146.506C86.2829 147.103 85.3229 147.978 84.5976 149.13H77.1096L82.3576 122.058H104.758V129.866H88.5656L86.7096 140.042C87.2642 139.53 88.0322 139.103 89.0136 138.762C89.9949 138.378 91.2109 138.186 92.6616 138.186C95.5202 138.186 98.0802 138.804 100.342 140.042C102.603 141.279 104.374 143.007 105.654 145.226C106.934 147.402 107.574 149.919 107.574 152.778C107.574 155.807 106.848 158.474 105.398 160.778C103.947 163.124 101.963 164.938 99.4456 166.218C96.9282 167.498 94.0696 168.138 90.8696 168.138ZM145.699 139.85C145.699 143.604 144.974 146.954 143.523 149.898C142.115 152.799 140.152 155.082 137.635 156.746C135.16 158.41 132.344 159.242 129.187 159.242C126.03 159.242 123.192 158.41 120.675 156.746C118.2 155.082 116.238 152.799 114.787 149.898C113.379 146.954 112.675 143.604 112.675 139.85C112.675 136.095 113.379 132.767 114.787 129.866C116.238 126.922 118.2 124.618 120.675 122.954C123.192 121.247 126.03 120.394 129.187 120.394C132.344 120.394 135.16 121.247 137.635 122.954C140.152 124.618 142.115 126.922 143.523 129.866C144.974 132.767 145.699 136.095 145.699 139.85ZM137.059 139.85C137.059 137.546 136.718 135.54 136.035 133.834C135.395 132.084 134.478 130.719 133.283 129.738C132.088 128.756 130.723 128.266 129.187 128.266C127.608 128.266 126.222 128.756 125.027 129.738C123.832 130.719 122.894 132.084 122.211 133.834C121.571 135.54 121.251 137.546 121.251 139.85C121.251 142.154 121.571 144.159 122.211 145.866C122.894 147.572 123.832 148.916 125.027 149.898C126.222 150.879 127.608 151.37 129.187 151.37C130.723 151.37 132.067 150.879 133.219 149.898C134.414 148.916 135.352 147.572 136.035 145.866C136.718 144.116 137.059 142.111 137.059 139.85ZM161.652 131.914C159.689 131.914 157.918 131.487 156.34 130.634C154.761 129.738 153.481 128.564 152.5 127.114C151.561 125.62 151.092 123.978 151.092 122.186C151.092 120.394 151.561 118.772 152.5 117.322C153.481 115.828 154.761 114.655 156.34 113.802C157.918 112.948 159.689 112.522 161.652 112.522C163.614 112.522 165.385 112.948 166.964 113.802C168.585 114.655 169.865 115.828 170.804 117.322C171.742 118.772 172.212 120.394 172.212 122.186C172.212 123.978 171.742 125.62 170.804 127.114C169.865 128.564 168.585 129.738 166.964 130.634C165.385 131.487 163.614 131.914 161.652 131.914ZM161.652 127.626C162.505 127.626 163.273 127.37 163.956 126.858C164.638 126.346 165.172 125.684 165.556 124.874C165.982 124.063 166.196 123.188 166.196 122.25C166.196 121.226 165.982 120.308 165.556 119.498C165.129 118.687 164.574 118.047 163.892 117.578C163.209 117.066 162.462 116.81 161.652 116.81C160.798 116.81 160.03 117.066 159.348 117.578C158.665 118.047 158.11 118.687 157.684 119.498C157.3 120.308 157.108 121.204 157.108 122.186C157.108 123.167 157.321 124.084 157.748 124.938C158.174 125.748 158.729 126.41 159.412 126.922C160.094 127.391 160.841 127.626 161.652 127.626ZM186.356 159.242C184.393 159.242 182.622 158.815 181.044 157.962C179.465 157.108 178.185 155.956 177.204 154.506C176.265 153.012 175.796 151.37 175.796 149.578C175.796 147.743 176.265 146.1 177.204 144.65C178.185 143.199 179.465 142.047 181.044 141.194C182.622 140.298 184.393 139.85 186.356 139.85C188.318 139.85 190.089 140.298 191.668 141.194C193.289 142.047 194.569 143.199 195.508 144.65C196.446 146.1 196.916 147.722 196.916 149.514C196.916 151.306 196.446 152.948 195.508 154.442C194.569 155.892 193.289 157.066 191.668 157.962C190.089 158.815 188.318 159.242 186.356 159.242ZM186.356 154.954C187.209 154.954 187.977 154.698 188.66 154.186C189.342 153.674 189.876 153.012 190.26 152.202C190.686 151.391 190.9 150.516 190.9 149.578C190.9 148.554 190.686 147.636 190.26 146.826C189.876 146.015 189.321 145.375 188.596 144.906C187.913 144.394 187.166 144.138 186.356 144.138C185.545 144.138 184.777 144.394 184.052 144.906C183.369 145.375 182.814 146.036 182.388 146.89C182.004 147.7 181.812 148.575 181.812 149.514C181.812 150.538 182.025 151.455 182.452 152.266C182.878 153.076 183.433 153.738 184.116 154.25C184.798 154.719 185.545 154.954 186.356 154.954ZM154.74 155.594L172.724 134.538L189.364 112.65L193.268 116.106L175.732 136.842L158.58 159.05L154.74 155.594Z" fill="black"/>
<defs>
<filter id="filter0_di_47_608" x="0" y="0.498047" width="143.602" height="275.198" filterUnits="userSpaceOnUse" color-interpolation-filters="sRGB">
<feFlood flood-opacity="0" result="BackgroundImageFix"/>
<feColorMatrix in="SourceAlpha" type="matrix" values="0 0 0 0 0 0 0 0 0 0 0 0 0 0 0 0 0 0 127 0" result="hardAlpha"/>
<feOffset dx="1" dy="2"/>
<feGaussianBlur stdDeviation="3"/>
<feComposite in2="hardAlpha" operator="out"/>
<feColorMatrix type="matrix" values="0 0 0 0 0 0 0 0 0 0 0 0 0 0 0 0 0 0 0.25 0"/>
<feBlend mode="normal" in2="BackgroundImageFix" result="effect1_dropShadow_47_608"/>
<feBlend mode="normal" in="SourceGraphic" in2="effect1_dropShadow_47_608" result="shape"/>
<feColorMatrix in="SourceAlpha" type="matrix" values="0 0 0 0 0 0 0 0 0 0 0 0 0 0 0 0 0 0 127 0" result="hardAlpha"/>
<feOffset dy="1"/>
<feGaussianBlur stdDeviation="1.5"/>
<feComposite in2="hardAlpha" operator="arithmetic" k2="-1" k3="1"/>
<feColorMatrix type="matrix" values="0 0 0 0 1 0 0 0 0 1 0 0 0 0 1 0 0 0 0.25 0"/>
<feBlend mode="normal" in2="shape" result="effect2_innerShadow_47_608"/>
</filter>
</defs>
</svg>
