<svg width="264" height="264" viewBox="0 0 264 264" fill="none" xmlns="http://www.w3.org/2000/svg">
<path fill-rule="evenodd" clip-rule="evenodd" d="M263.548 15.2598C263.548 6.9755 256.832 0.259766 248.548 0.259766H15.3496C7.06534 0.259766 0.349609 6.97551 0.349609 15.2598V248.458C0.349609 256.742 7.06535 263.458 15.3496 263.458H248.548C256.832 263.458 263.548 256.742 263.548 248.458V15.2598ZM231.715 47.0918C231.715 38.8075 224.999 32.0918 216.715 32.0918H47.1824C38.8981 32.0918 32.1824 38.8075 32.1824 47.0918V216.624C32.1824 224.909 38.8981 231.624 47.1824 231.624H216.715C224.999 231.624 231.715 224.909 231.715 216.624V47.0918Z" fill="#484848"/>
<path fill-rule="evenodd" clip-rule="evenodd" d="M132 0.259766H15.3494C7.06509 0.259766 0.349365 6.97551 0.349365 15.2598V248.458C0.349365 256.742 7.06511 263.458 15.3494 263.458H181.5V231.624H47.1821C38.8978 231.624 32.1821 224.909 32.1821 216.624V47.0918C32.1821 38.8075 38.8979 32.0918 47.1821 32.0918H132V0.259766Z" fill="#2368FF"/>
<path d="M90.417 152.491V142.955H71.729V135.339L93.169 107.819H98.993V135.275H104.625V142.955H98.993V152.491H90.417ZM80.305 135.275H91.377V120.811L80.305 135.275ZM129.475 114.859H108.803V107.051H142.979L120.451 152.491H110.723L129.475 114.859ZM155.686 117.675C153.724 117.675 151.953 117.249 150.374 116.395C148.796 115.499 147.516 114.326 146.534 112.875C145.596 111.382 145.126 109.739 145.126 107.947C145.126 106.155 145.596 104.534 146.534 103.083C147.516 101.59 148.796 100.417 150.374 99.5633C151.953 98.7099 153.724 98.2833 155.686 98.2833C157.649 98.2833 159.42 98.7099 160.998 99.5633C162.62 100.417 163.9 101.59 164.838 103.083C165.777 104.534 166.246 106.155 166.246 107.947C166.246 109.739 165.777 111.382 164.838 112.875C163.9 114.326 162.62 115.499 160.998 116.395C159.42 117.249 157.649 117.675 155.686 117.675ZM155.686 113.387C156.54 113.387 157.308 113.131 157.99 112.619C158.673 112.107 159.206 111.446 159.59 110.635C160.017 109.825 160.23 108.95 160.23 108.011C160.23 106.987 160.017 106.07 159.59 105.259C159.164 104.449 158.609 103.809 157.926 103.339C157.244 102.827 156.497 102.571 155.686 102.571C154.833 102.571 154.065 102.827 153.382 103.339C152.7 103.809 152.145 104.449 151.718 105.259C151.334 106.07 151.142 106.966 151.142 107.947C151.142 108.929 151.356 109.846 151.782 110.699C152.209 111.51 152.764 112.171 153.446 112.683C154.129 113.153 154.876 113.387 155.686 113.387ZM180.39 145.003C178.428 145.003 176.657 144.577 175.078 143.723C173.5 142.87 172.22 141.718 171.238 140.267C170.3 138.774 169.83 137.131 169.83 135.339C169.83 133.505 170.3 131.862 171.238 130.411C172.22 128.961 173.5 127.809 175.078 126.955C176.657 126.059 178.428 125.611 180.39 125.611C182.353 125.611 184.124 126.059 185.702 126.955C187.324 127.809 188.604 128.961 189.542 130.411C190.481 131.862 190.95 133.483 190.95 135.275C190.95 137.067 190.481 138.71 189.542 140.203C188.604 141.654 187.324 142.827 185.702 143.723C184.124 144.577 182.353 145.003 180.39 145.003ZM180.39 140.715C181.244 140.715 182.012 140.459 182.694 139.947C183.377 139.435 183.91 138.774 184.294 137.963C184.721 137.153 184.934 136.278 184.934 135.339C184.934 134.315 184.721 133.398 184.294 132.587C183.91 131.777 183.356 131.137 182.63 130.667C181.948 130.155 181.201 129.899 180.39 129.899C179.58 129.899 178.812 130.155 178.086 130.667C177.404 131.137 176.849 131.798 176.422 132.651C176.038 133.462 175.846 134.337 175.846 135.275C175.846 136.299 176.06 137.217 176.486 138.027C176.913 138.838 177.468 139.499 178.15 140.011C178.833 140.481 179.58 140.715 180.39 140.715ZM148.774 141.355L166.758 120.299L183.398 98.4113L187.302 101.867L169.766 122.603L152.614 144.811L148.774 141.355Z" fill="white"/>
</svg>
