<svg width="269" height="276" viewBox="0 0 269 276" fill="none" xmlns="http://www.w3.org/2000/svg">
<path fill-rule="evenodd" clip-rule="evenodd" d="M268.397 19.498C268.397 11.2138 261.682 4.49805 253.397 4.49805H20.1992C11.9149 4.49805 5.19922 11.2138 5.19922 19.4981V252.696C5.19922 260.98 11.915 267.696 20.1992 267.696H253.397C261.682 267.696 268.397 260.98 268.397 252.696V19.498ZM236.565 51.3301C236.565 43.0458 229.849 36.3301 221.565 36.3301H52.0322C43.748 36.3301 37.0322 43.0458 37.0322 51.3301V220.863C37.0322 229.147 43.7479 235.863 52.0322 235.863H221.565C229.849 235.863 236.565 229.147 236.565 220.863V51.3301Z" fill="#122C65"/>
<g filter="url(#filter0_di_47_620)">
<path fill-rule="evenodd" clip-rule="evenodd" d="M136.799 4.49805H20.1992C11.9149 4.49805 5.19922 11.2138 5.19922 19.4981V252.696C5.19922 260.98 11.915 267.696 20.1992 267.696H213.999V235.863H52.0322C43.7479 235.863 37.0322 229.147 37.0322 220.863V51.3301C37.0322 43.0458 43.748 36.3301 52.0322 36.3301H136.799V4.49805Z" fill="#2368FF"/>
</g>
<path d="M92.0649 168.138C88.7795 168.138 85.8142 167.434 83.1689 166.026C80.5235 164.618 78.5182 162.698 77.1529 160.266L82.0809 155.146C83.2755 156.81 84.7689 158.132 86.5609 159.114C88.3529 160.095 90.2089 160.586 92.1289 160.586C93.6649 160.586 95.0089 160.266 96.1609 159.626C97.3555 158.986 98.2942 158.09 98.9769 156.938C99.6595 155.786 100.001 154.463 100.001 152.97C100.001 151.476 99.6809 150.175 99.0409 149.066C98.4009 147.956 97.5262 147.103 96.4169 146.506C95.3075 145.866 94.0489 145.546 92.6409 145.546C91.2329 145.546 89.9102 145.866 88.6729 146.506C87.4782 147.103 86.5182 147.978 85.7929 149.13H78.3049L83.5529 122.058H105.953V129.866H89.7609L87.9049 140.042C88.4595 139.53 89.2275 139.103 90.2089 138.762C91.1902 138.378 92.4062 138.186 93.8569 138.186C96.7155 138.186 99.2755 138.804 101.537 140.042C103.798 141.279 105.569 143.007 106.849 145.226C108.129 147.402 108.769 149.919 108.769 152.778C108.769 155.807 108.044 158.474 106.593 160.778C105.142 163.124 103.158 164.938 100.641 166.218C98.1235 167.498 95.2649 168.138 92.0649 168.138ZM133.198 129.098H112.526V121.29H146.702L124.174 166.73H114.446L133.198 129.098ZM159.409 131.914C157.447 131.914 155.676 131.487 154.097 130.634C152.519 129.738 151.239 128.564 150.257 127.114C149.319 125.62 148.849 123.978 148.849 122.186C148.849 120.394 149.319 118.772 150.257 117.322C151.239 115.828 152.519 114.655 154.097 113.802C155.676 112.948 157.447 112.522 159.409 112.522C161.372 112.522 163.143 112.948 164.721 113.802C166.343 114.655 167.623 115.828 168.561 117.322C169.5 118.772 169.969 120.394 169.969 122.186C169.969 123.978 169.5 125.62 168.561 127.114C167.623 128.564 166.343 129.738 164.721 130.634C163.143 131.487 161.372 131.914 159.409 131.914ZM159.409 127.626C160.263 127.626 161.031 127.37 161.713 126.858C162.396 126.346 162.929 125.684 163.313 124.874C163.74 124.063 163.953 123.188 163.953 122.25C163.953 121.226 163.74 120.308 163.313 119.498C162.887 118.687 162.332 118.047 161.649 117.578C160.967 117.066 160.22 116.81 159.409 116.81C158.556 116.81 157.788 117.066 157.105 117.578C156.423 118.047 155.868 118.687 155.441 119.498C155.057 120.308 154.865 121.204 154.865 122.186C154.865 123.167 155.079 124.084 155.505 124.938C155.932 125.748 156.487 126.41 157.169 126.922C157.852 127.391 158.599 127.626 159.409 127.626ZM184.113 159.242C182.151 159.242 180.38 158.815 178.801 157.962C177.223 157.108 175.943 155.956 174.961 154.506C174.023 153.012 173.553 151.37 173.553 149.578C173.553 147.743 174.023 146.1 174.961 144.65C175.943 143.199 177.223 142.047 178.801 141.194C180.38 140.298 182.151 139.85 184.113 139.85C186.076 139.85 187.847 140.298 189.425 141.194C191.047 142.047 192.327 143.199 193.265 144.65C194.204 146.1 194.673 147.722 194.673 149.514C194.673 151.306 194.204 152.948 193.265 154.442C192.327 155.892 191.047 157.066 189.425 157.962C187.847 158.815 186.076 159.242 184.113 159.242ZM184.113 154.954C184.967 154.954 185.735 154.698 186.417 154.186C187.1 153.674 187.633 153.012 188.017 152.202C188.444 151.391 188.657 150.516 188.657 149.578C188.657 148.554 188.444 147.636 188.017 146.826C187.633 146.015 187.079 145.375 186.353 144.906C185.671 144.394 184.924 144.138 184.113 144.138C183.303 144.138 182.535 144.394 181.809 144.906C181.127 145.375 180.572 146.036 180.145 146.89C179.761 147.7 179.569 148.575 179.569 149.514C179.569 150.538 179.783 151.455 180.209 152.266C180.636 153.076 181.191 153.738 181.873 154.25C182.556 154.719 183.303 154.954 184.113 154.954ZM152.497 155.594L170.481 134.538L187.121 112.65L191.025 116.106L173.489 136.842L156.337 159.05L152.497 155.594Z" fill="black"/>
<defs>
<filter id="filter0_di_47_620" x="0.199219" y="0.498047" width="220.801" height="275.198" filterUnits="userSpaceOnUse" color-interpolation-filters="sRGB">
<feFlood flood-opacity="0" result="BackgroundImageFix"/>
<feColorMatrix in="SourceAlpha" type="matrix" values="0 0 0 0 0 0 0 0 0 0 0 0 0 0 0 0 0 0 127 0" result="hardAlpha"/>
<feOffset dx="1" dy="2"/>
<feGaussianBlur stdDeviation="3"/>
<feComposite in2="hardAlpha" operator="out"/>
<feColorMatrix type="matrix" values="0 0 0 0 0 0 0 0 0 0 0 0 0 0 0 0 0 0 0.25 0"/>
<feBlend mode="normal" in2="BackgroundImageFix" result="effect1_dropShadow_47_620"/>
<feBlend mode="normal" in="SourceGraphic" in2="effect1_dropShadow_47_620" result="shape"/>
<feColorMatrix in="SourceAlpha" type="matrix" values="0 0 0 0 0 0 0 0 0 0 0 0 0 0 0 0 0 0 127 0" result="hardAlpha"/>
<feOffset dy="1"/>
<feGaussianBlur stdDeviation="1.5"/>
<feComposite in2="hardAlpha" operator="arithmetic" k2="-1" k3="1"/>
<feColorMatrix type="matrix" values="0 0 0 0 1 0 0 0 0 1 0 0 0 0 1 0 0 0 0.25 0"/>
<feBlend mode="normal" in2="shape" result="effect2_innerShadow_47_620"/>
</filter>
</defs>
</svg>
