<svg width="264" height="264" viewBox="0 0 264 264" fill="none" xmlns="http://www.w3.org/2000/svg">
<path fill-rule="evenodd" clip-rule="evenodd" d="M263.35 15.2598C263.35 6.9755 256.634 0.259766 248.35 0.259766H15.1514C6.8671 0.259766 0.151367 6.97551 0.151367 15.2598V248.458C0.151367 256.742 6.86711 263.458 15.1514 263.458H248.35C256.634 263.458 263.35 256.742 263.35 248.458V15.2598ZM231.517 47.0918C231.517 38.8075 224.801 32.0918 216.517 32.0918H46.9841C38.6999 32.0918 31.9841 38.8075 31.9841 47.0918V216.624C31.9841 224.909 38.6998 231.624 46.9841 231.624H216.517C224.801 231.624 231.517 224.909 231.517 216.624V47.0918Z" fill="#484848"/>
<path fill-rule="evenodd" clip-rule="evenodd" d="M127.751 0.259766H15.1514C6.8671 0.259766 0.151367 6.97551 0.151367 15.2598V248.458C0.151367 256.742 6.86711 263.458 15.1514 263.458H87.5V231.624H46.9841C38.6998 231.624 31.9841 224.909 31.9841 216.624V47.0918C31.9841 38.8075 38.6999 32.0918 46.9841 32.0918H127.751V0.259766Z" fill="#2368FF"/>
<path d="M90.2187 152.491V142.955H71.5307V135.339L92.9707 107.819H98.7947V135.275H104.427V142.955H98.7947V152.491H90.2187ZM80.1067 135.275H91.1787V120.811L80.1067 135.275ZM109.245 144.363C109.245 142.443 109.395 140.715 109.693 139.179C109.992 137.643 110.504 136.214 111.229 134.891C111.997 133.569 113.021 132.331 114.301 131.179C115.624 129.985 117.288 128.833 119.293 127.723C121.043 126.785 122.579 125.974 123.901 125.291C125.224 124.566 126.333 123.905 127.229 123.307C128.168 122.71 128.872 122.113 129.341 121.515C129.811 120.875 130.045 120.15 130.045 119.339C130.045 118.486 129.811 117.718 129.341 117.035C128.872 116.31 128.211 115.734 127.357 115.307C126.504 114.881 125.437 114.667 124.157 114.667C123.133 114.667 122.173 114.795 121.277 115.051C120.424 115.307 119.613 115.67 118.845 116.139C118.12 116.609 117.437 117.142 116.797 117.739C116.157 118.294 115.581 118.891 115.069 119.531L109.629 113.259C110.227 112.662 111.016 112.022 111.997 111.339C113.021 110.614 114.216 109.953 115.581 109.355C116.989 108.715 118.525 108.203 120.189 107.819C121.896 107.393 123.709 107.179 125.629 107.179C128.531 107.179 131.005 107.649 133.053 108.587C135.101 109.483 136.659 110.742 137.725 112.363C138.835 113.985 139.389 115.883 139.389 118.059C139.389 119.553 139.112 120.875 138.557 122.027C138.003 123.179 137.299 124.203 136.445 125.099C135.592 125.953 134.653 126.721 133.629 127.403C132.648 128.086 131.688 128.683 130.749 129.195C129.427 129.878 128.232 130.518 127.165 131.115C126.099 131.67 125.16 132.246 124.349 132.843C123.539 133.398 122.813 133.974 122.173 134.571C121.576 135.169 121.043 135.851 120.573 136.619H140.093V144.363H109.245ZM155.738 117.675C153.776 117.675 152.005 117.249 150.426 116.395C148.848 115.499 147.568 114.326 146.586 112.875C145.648 111.382 145.178 109.739 145.178 107.947C145.178 106.155 145.648 104.534 146.586 103.083C147.568 101.59 148.848 100.417 150.426 99.5633C152.005 98.7099 153.776 98.2833 155.738 98.2833C157.701 98.2833 159.472 98.7099 161.05 99.5633C162.672 100.417 163.952 101.59 164.89 103.083C165.829 104.534 166.298 106.155 166.298 107.947C166.298 109.739 165.829 111.382 164.89 112.875C163.952 114.326 162.672 115.499 161.05 116.395C159.472 117.249 157.701 117.675 155.738 117.675ZM155.738 113.387C156.592 113.387 157.36 113.131 158.042 112.619C158.725 112.107 159.258 111.446 159.642 110.635C160.069 109.825 160.282 108.95 160.282 108.011C160.282 106.987 160.069 106.07 159.642 105.259C159.216 104.449 158.661 103.809 157.978 103.339C157.296 102.827 156.549 102.571 155.738 102.571C154.885 102.571 154.117 102.827 153.434 103.339C152.752 103.809 152.197 104.449 151.77 105.259C151.386 106.07 151.194 106.966 151.194 107.947C151.194 108.929 151.408 109.846 151.834 110.699C152.261 111.51 152.816 112.171 153.498 112.683C154.181 113.153 154.928 113.387 155.738 113.387ZM180.442 145.003C178.48 145.003 176.709 144.577 175.13 143.723C173.552 142.87 172.272 141.718 171.29 140.267C170.352 138.774 169.882 137.131 169.882 135.339C169.882 133.505 170.352 131.862 171.29 130.411C172.272 128.961 173.552 127.809 175.13 126.955C176.709 126.059 178.48 125.611 180.442 125.611C182.405 125.611 184.176 126.059 185.754 126.955C187.376 127.809 188.656 128.961 189.594 130.411C190.533 131.862 191.002 133.483 191.002 135.275C191.002 137.067 190.533 138.71 189.594 140.203C188.656 141.654 187.376 142.827 185.754 143.723C184.176 144.577 182.405 145.003 180.442 145.003ZM180.442 140.715C181.296 140.715 182.064 140.459 182.746 139.947C183.429 139.435 183.962 138.774 184.346 137.963C184.773 137.153 184.986 136.278 184.986 135.339C184.986 134.315 184.773 133.398 184.346 132.587C183.962 131.777 183.408 131.137 182.682 130.667C182 130.155 181.253 129.899 180.442 129.899C179.632 129.899 178.864 130.155 178.138 130.667C177.456 131.137 176.901 131.798 176.474 132.651C176.09 133.462 175.898 134.337 175.898 135.275C175.898 136.299 176.112 137.217 176.538 138.027C176.965 138.838 177.52 139.499 178.202 140.011C178.885 140.481 179.632 140.715 180.442 140.715ZM148.826 141.355L166.81 120.299L183.45 98.4113L187.354 101.867L169.818 122.603L152.666 144.811L148.826 141.355Z" fill="white"/>
</svg>
