<svg width="34" height="34" viewBox="0 0 34 34" fill="none" xmlns="http://www.w3.org/2000/svg">
<path fill-rule="evenodd" clip-rule="evenodd" d="M18.3169 24.8101C21.0151 23.267 26.9154 19.1597 26.9154 12.7497C26.9154 7.27285 22.4755 2.83301 16.9987 2.83301C11.5219 2.83301 7.08203 7.27285 7.08203 12.7497C7.08203 19.1597 12.9823 23.267 15.6805 24.8101C16.5047 25.2815 17.4927 25.2815 18.3169 24.8101ZM16.9993 16.9998C19.3465 16.9998 21.2493 15.097 21.2493 12.7498C21.2493 10.4026 19.3465 8.49981 16.9993 8.49981C14.652 8.49981 12.7493 10.4026 12.7493 12.7498C12.7493 15.097 14.652 16.9998 16.9993 16.9998Z" fill="white"/>
<path d="M25.5868 23.375C26.4572 24.0211 26.9154 24.754 26.9154 25.5C26.9154 26.246 26.4572 26.9789 25.5868 27.625C24.7164 28.2711 23.4646 28.8076 21.957 29.1806C20.4495 29.5536 18.7394 29.75 16.9987 29.75C15.258 29.75 13.5479 29.5536 12.0404 29.1806C10.5328 28.8076 9.28098 28.2711 8.41061 27.625C7.54024 26.9789 7.08203 26.246 7.08203 25.5C7.08203 24.754 7.54024 24.0211 8.41061 23.375" stroke="white" stroke-width="2" stroke-linecap="round"/>
</svg>
