<svg xmlns="http://www.w3.org/2000/svg" width="70" height="42.292" viewBox="0 0 70 42.292">
  <path id="Path_account-group" data-name="Path / account-group" d="M35,5.5A10.208,10.208,0,1,1,24.792,15.708,10.208,10.208,0,0,1,35,5.5M14.583,12.792a8.61,8.61,0,0,1,4.463,1.225,16.147,16.147,0,0,0,3.3,11.55,8.746,8.746,0,1,1-7.758-12.775m40.833,0a8.75,8.75,0,1,1-7.758,12.775,16.147,16.147,0,0,0,3.3-11.55,8.61,8.61,0,0,1,4.462-1.225m-39.375,29.9C16.042,36.65,24.529,31.75,35,31.75s18.958,4.9,18.958,10.938v5.1H16.042v-5.1M0,47.792V43.417c0-4.054,5.512-7.467,12.979-8.458a11.8,11.8,0,0,0-2.771,7.729v5.1H0m70,0H59.792v-5.1a11.8,11.8,0,0,0-2.771-7.729C64.488,35.95,70,39.362,70,43.417Z" transform="translate(0 -5.5)" fill="#414141"/>
</svg>
