<svg width="34" height="34" viewBox="0 0 34 34" fill="none" xmlns="http://www.w3.org/2000/svg">
<path d="M9.4628 4.70452L10.3316 3.83572C10.8848 3.28248 11.7818 3.28248 12.3351 3.83572L15.9983 7.49892C16.5515 8.05216 16.5515 8.94914 15.9983 9.50239L13.459 12.0416C13.0356 12.4651 12.9306 13.1119 13.1984 13.6475C14.7465 16.7436 17.257 19.2542 20.3532 20.8022C20.8887 21.07 21.5356 20.9651 21.959 20.5416L24.4983 18.0024C25.0515 17.4491 25.9485 17.4491 26.5017 18.0024L30.1649 21.6656C30.7182 22.2188 30.7182 23.1158 30.1649 23.6691L29.2961 24.5379C26.3051 27.5289 21.5697 27.8655 18.1857 25.3274L16.4738 24.0435C14.0038 22.191 11.8096 19.9968 9.95714 17.5268L8.67321 15.8149C6.13519 12.4309 6.47172 7.6956 9.4628 4.70452Z" fill="white"/>
</svg>
