<svg xmlns="http://www.w3.org/2000/svg" width="55" height="55" viewBox="0 0 55 55">
  <path id="Path_earth" data-name="Path / earth" d="M45.725,44.322A5.516,5.516,0,0,0,40.5,40.5H37.75V32.25A2.75,2.75,0,0,0,35,29.5H18.5V24H24a2.75,2.75,0,0,0,2.75-2.75v-5.5h5.5a5.5,5.5,0,0,0,5.5-5.5V9.123a21.951,21.951,0,0,1,7.975,35.2M26.75,51.308A21.894,21.894,0,0,1,8.078,24.577L21.25,37.75V40.5a5.5,5.5,0,0,0,5.5,5.5M29.5,2A27.5,27.5,0,1,0,57,29.5,27.5,27.5,0,0,0,29.5,2Z" transform="translate(-2 -2)" fill="#414141"/>
</svg>
