<svg xmlns="http://www.w3.org/2000/svg" xmlns:xlink="http://www.w3.org/1999/xlink" width="75.562" height="55" viewBox="0 0 75.562 55">
  <defs>
    <clipPath id="clip-path">
      <rect id="Rectangle_114" data-name="Rectangle 114" width="75.562" height="55" fill="#414141"/>
    </clipPath>
  </defs>
  <g id="Group_111" data-name="Group 111" clip-path="url(#clip-path)">
    <path id="Path_301" data-name="Path 301" d="M0,110.759a5.828,5.828,0,0,1,.73-2.885,4.227,4.227,0,0,1,2.187-1.935,13.33,13.33,0,0,1,3.074-.547c.144-.019.409.235.484.418q2.177,5.333,4.312,10.682a1.647,1.647,0,0,1,.113.738c-.186,2.4-.389,4.792-.595,7.283H0Z" transform="translate(0 -87.969)" fill="#414141"/>
    <path id="Path_302" data-name="Path 302" d="M140.964,191.361H127.576c-.015-.19-.039-.354-.039-.519,0-5.8-.017-11.6,0-17.4a6.67,6.67,0,0,1,5.13-6.788,13.422,13.422,0,0,1,3.144-.225c.158,0,.407.361.473.6.987,3.521,1.952,7.047,2.919,10.573.6,2.2,1.227,4.4,1.788,6.609a7.569,7.569,0,0,1,.207,2.024c-.041,1.692-.152,3.381-.238,5.135" transform="translate(-106.448 -138.913)" fill="#414141"/>
    <path id="Path_303" data-name="Path 303" d="M263.853,191.111h-12.84c-.192-3.376-.412-6.672.545-10.005,1.353-4.714,2.4-9.516,3.542-14.288.132-.55.362-.681.891-.688a7.834,7.834,0,0,1,5.029,1.321,6.813,6.813,0,0,1,2.83,5.714c.01,2.311,0,4.621,0,6.931v11.015Z" transform="translate(-209.379 -138.665)" fill="#414141"/>
    <path id="Path_304" data-name="Path 304" d="M202.283,39.963a10.712,10.712,0,0,1-1.023,4.735,6.512,6.512,0,0,1-6.844,3.128,6.341,6.341,0,0,1-5.111-5.569,14.949,14.949,0,0,1,.3-5.916A6.491,6.491,0,0,1,195.671,32a6.364,6.364,0,0,1,6.039,4.355,28.635,28.635,0,0,1,.573,3.608" transform="translate(-157.887 -26.71)" fill="#414141"/>
    <path id="Path_305" data-name="Path 305" d="M404.4,124.317h-9.828c-.1-1.177-.207-2.342-.3-3.508-.107-1.273-.22-2.546-.3-3.821a2.2,2.2,0,0,1,.159-.853c1.247-3.437,2.518-6.865,3.748-10.308a.835.835,0,0,1,.952-.648,5.208,5.208,0,0,1,5.573,5.582q.006,6.379,0,12.758Z" transform="translate(-328.84 -87.792)" fill="#414141"/>
    <path id="Path_306" data-name="Path 306" d="M311.639,124.328h-3.247c-.048-1.035-.04-2.041-.151-3.033a8.828,8.828,0,0,0-6.215-7.813c-.5-.182-.7-.392-.668-.927.053-.857,0-1.721.055-2.577.178-2.8,2.526-5.023,5.962-4.74a.683.683,0,0,1,.445.383q2.2,5.381,4.36,10.777a1.318,1.318,0,0,1,.086.571q-.262,3.49-.547,6.978a3.194,3.194,0,0,1-.08.382" transform="translate(-251.538 -87.821)" fill="#414141"/>
    <path id="Path_307" data-name="Path 307" d="M93.5,124.285c-.134-1.619-.172-3.222-.419-4.793a10.744,10.744,0,0,1,.867-5.858c1.04-2.566,1.931-5.193,2.854-7.805a.84.84,0,0,1,.951-.66c2.788.025,4.845,1.424,5.391,3.966a18.482,18.482,0,0,1,.155,3.811c0,.154-.331.378-.548.451A9.036,9.036,0,0,0,97,118.812a11.774,11.774,0,0,0-.644,4.707c0,.241,0,.482,0,.766Z" transform="translate(-77.603 -87.784)" fill="#414141"/>
    <path id="Path_308" data-name="Path 308" d="M58.37,6.122a5.673,5.673,0,0,1-1.123,4.143,4.777,4.777,0,0,1-5.189,1.5,4.584,4.584,0,0,1-3.264-4.123,16.017,16.017,0,0,1,.123-3.956A4.636,4.636,0,0,1,53.842.023a4.8,4.8,0,0,1,4.524,4.756c.022.417,0,.835,0,1.343" transform="translate(-40.676 0)" fill="#414141"/>
    <path id="Path_309" data-name="Path 309" d="M359.894,5.986a6.187,6.187,0,0,1-.972,4.073,4.807,4.807,0,0,1-5.1,1.807,4.566,4.566,0,0,1-3.509-4.084,15.541,15.541,0,0,1,.223-4.45A4.55,4.55,0,0,1,355.359.038a4.742,4.742,0,0,1,4.452,4.329c.046.538.057,1.079.084,1.618" transform="translate(-292.353 -0.012)" fill="#414141"/>
    <path id="Path_310" data-name="Path 310" d="M208.686,155.65c.983,0,1.965-.015,2.948,0a1.155,1.155,0,0,1,1.1,1.81c-.485,1.019-1.007,2.019-1.509,3.03a1.286,1.286,0,0,1-1.244.759q-1.363,0-2.727-.02a1.35,1.35,0,0,1-1.288-.818c-.485-.992-1-1.969-1.474-2.966-.489-1.026.014-1.8,1.168-1.819,1.007-.014,2.014,0,3.022,0Z" transform="translate(-170.536 -129.898)" fill="#414141"/>
    <path id="Path_311" data-name="Path 311" d="M223.268,209.612h.8c.043.713.095,1.415.126,2.119.256,5.694.5,11.388.772,17.081.036.752-.593.833-1,1.1-.172.116-.559-.017-.818-.116a1.225,1.225,0,0,1-.8-1.429c.32-6.084.589-12.17.874-18.256.007-.144.021-.289.037-.5" transform="translate(-185.595 -174.961)" fill="#414141"/>
    <path id="Path_312" data-name="Path 312" d="M362.046,94.033c.738,0,1.476-.014,2.213,0,1.055.025,1.567.651,1.271,1.641-.337,1.128-.751,2.233-1.146,3.343a1.117,1.117,0,0,1-1.117.8c-.836.006-1.672,0-2.508,0a1.113,1.113,0,0,1-1.134-.777c-.4-1.132-.814-2.264-1.157-3.415-.287-.962.2-1.577,1.218-1.606.786-.023,1.574,0,2.36,0Z" transform="translate(-299.141 -78.472)" fill="#414141"/>
    <path id="Path_313" data-name="Path 313" d="M60.6,94.033c.762,0,1.525-.017,2.287,0,1.045.03,1.526.678,1.219,1.665-.336,1.078-.711,2.144-1.08,3.211a1.225,1.225,0,0,1-1.272.915c-.787-.01-1.574-.006-2.361,0a1.186,1.186,0,0,1-1.221-.875c-.379-1.09-.774-2.175-1.114-3.277a1.163,1.163,0,0,1,1.182-1.648c.786-.027,1.574-.006,2.361-.006Z" transform="translate(-47.552 -78.472)" fill="#414141"/>
    <path id="Path_314" data-name="Path 314" d="M75.714,190.582c.086.939.179,1.878.256,2.818.137,1.66.236,3.324.409,4.98.062.594-.257.9-.689.908a.713.713,0,0,1-.736-.87c.23-2.607.431-5.216.643-7.825l.118-.01" transform="translate(-62.559 -159.077)" fill="#414141"/>
    <path id="Path_315" data-name="Path 315" d="M377.334,189.438c.212,2.714.42,5.428.641,8.141a.642.642,0,0,1-.694.747c-.252-.017-.692-.448-.679-.671.166-2.742.4-5.48.619-8.219l.114,0" transform="translate(-314.345 -158.12)" fill="#414141"/>
  </g>
</svg>
