<svg width="734" height="426" viewBox="0 0 734 426" fill="none" xmlns="http://www.w3.org/2000/svg">
<path d="M643.82 393.864C626.842 406.793 483.512 396.707 463.177 402.882C457.314 404.715 451.265 405.885 445.142 406.371C439.418 406.831 433.656 406.384 428.071 405.046C413.395 401.396 399.782 395.003 386.611 387.534C382.307 385.09 378.054 382.534 373.825 379.922C366.922 375.656 360.087 371.241 353.234 366.931C352.208 366.278 351.188 365.637 350.162 365.003H350.156C348.502 363.965 346.843 362.941 345.181 361.931C344.889 361.751 344.596 361.577 344.298 361.396C341.157 359.493 337.963 357.634 334.715 355.818C334.317 355.6 333.919 355.376 333.521 355.159C327.236 351.673 320.776 348.511 314.168 345.688C309.827 343.859 305.43 342.211 300.99 340.806H300.984C299.286 340.271 297.582 339.767 295.872 339.307C290.744 337.9 285.518 336.877 280.238 336.247C272.962 335.367 265.603 335.425 258.342 336.422C257.85 336.49 257.365 336.558 256.874 336.639C237.222 339.786 219.287 350.395 199.549 352.895C198.908 352.976 198.274 353.051 197.634 353.107C197.36 353.131 197.086 353.163 196.813 353.181C191.077 353.672 185.304 353.53 179.599 352.758C163.66 350.656 148.138 344.133 134.164 335.912C101.497 316.689 75.0049 287.144 58.8982 252.928C56.1323 247.064 53.6767 241.059 51.5414 234.937C45.5713 217.961 42.2835 200.159 41.7965 182.17C40.2853 119.758 75.7511 57.1413 131.434 28.9142C187.124 0.687025 260.832 -17.4524 305.744 25.9113C332.988 52.2168 453.908 44.3279 513.574 39.4164C573.24 34.5048 578.688 6.67293 629.085 39.4164C648.233 41.7795 691.298 152.79 679.019 174.074C661.419 198.631 633.997 189.218 629.085 210.91C624.992 224.826 648.731 219.505 674.107 242.835C686.386 263.709 662.647 285.811 659.782 299.727C656.099 318.963 651.596 317.735 658.554 335.335C659.782 374.627 652.006 390.999 643.82 393.864Z" fill="white"/>
<path d="M733.028 425.519H0.971858C0.713847 425.518 0.466664 425.415 0.284487 425.232C0.102309 425.049 0 424.802 0 424.544C0 424.286 0.102309 424.039 0.284487 423.856C0.466664 423.673 0.713847 423.57 0.971858 423.569H733.028C733.286 423.57 733.533 423.673 733.716 423.856C733.898 424.039 734 424.286 734 424.544C734 424.802 733.898 425.049 733.716 425.232C733.533 425.415 733.286 425.518 733.028 425.519Z" fill="#D3D3D3"/>
<path d="M229.489 94.2202C232.413 94.2202 234.783 91.8501 234.783 88.9265C234.783 86.0029 232.413 83.6328 229.489 83.6328C226.565 83.6328 224.195 86.0029 224.195 88.9265C224.195 91.8501 226.565 94.2202 229.489 94.2202Z" fill="#F2F2F2"/>
<path d="M208.391 94.2202C211.315 94.2202 213.685 91.8501 213.685 88.9265C213.685 86.0029 211.315 83.6328 208.391 83.6328C205.468 83.6328 203.098 86.0029 203.098 88.9265C203.098 91.8501 205.468 94.2202 208.391 94.2202Z" fill="#F2F2F2"/>
<path d="M187.298 94.2202C190.221 94.2202 192.591 91.8501 192.591 88.9265C192.591 86.0029 190.221 83.6328 187.298 83.6328C184.374 83.6328 182.004 86.0029 182.004 88.9265C182.004 91.8501 184.374 94.2202 187.298 94.2202Z" fill="#F2F2F2"/>
<path d="M166.196 94.2202C169.12 94.2202 171.49 91.8501 171.49 88.9265C171.49 86.0029 169.12 83.6328 166.196 83.6328C163.272 83.6328 160.902 86.0029 160.902 88.9265C160.902 91.8501 163.272 94.2202 166.196 94.2202Z" fill="#F2F2F2"/>
<path d="M229.489 116.322C232.413 116.322 234.783 113.952 234.783 111.028C234.783 108.104 232.413 105.734 229.489 105.734C226.565 105.734 224.195 108.104 224.195 111.028C224.195 113.952 226.565 116.322 229.489 116.322Z" fill="#F2F2F2"/>
<path d="M208.391 116.322C211.315 116.322 213.685 113.952 213.685 111.028C213.685 108.104 211.315 105.734 208.391 105.734C205.468 105.734 203.098 108.104 203.098 111.028C203.098 113.952 205.468 116.322 208.391 116.322Z" fill="#F2F2F2"/>
<path d="M187.298 116.322C190.221 116.322 192.591 113.952 192.591 111.028C192.591 108.104 190.221 105.734 187.298 105.734C184.374 105.734 182.004 108.104 182.004 111.028C182.004 113.952 184.374 116.322 187.298 116.322Z" fill="#F2F2F2"/>
<path d="M166.196 116.322C169.12 116.322 171.49 113.952 171.49 111.028C171.49 108.104 169.12 105.734 166.196 105.734C163.272 105.734 160.902 108.104 160.902 111.028C160.902 113.952 163.272 116.322 166.196 116.322Z" fill="#F2F2F2"/>
<path d="M229.489 138.423C232.413 138.423 234.783 136.053 234.783 133.13C234.783 130.206 232.413 127.836 229.489 127.836C226.565 127.836 224.195 130.206 224.195 133.13C224.195 136.053 226.565 138.423 229.489 138.423Z" fill="#F2F2F2"/>
<path d="M208.391 138.423C211.315 138.423 213.685 136.053 213.685 133.13C213.685 130.206 211.315 127.836 208.391 127.836C205.468 127.836 203.098 130.206 203.098 133.13C203.098 136.053 205.468 138.423 208.391 138.423Z" fill="#F2F2F2"/>
<path d="M187.298 138.423C190.221 138.423 192.591 136.053 192.591 133.13C192.591 130.206 190.221 127.836 187.298 127.836C184.374 127.836 182.004 130.206 182.004 133.13C182.004 136.053 184.374 138.423 187.298 138.423Z" fill="#F2F2F2"/>
<path d="M166.196 138.423C169.12 138.423 171.49 136.053 171.49 133.13C171.49 130.206 169.12 127.836 166.196 127.836C163.272 127.836 160.902 130.206 160.902 133.13C160.902 136.053 163.272 138.423 166.196 138.423Z" fill="#F2F2F2"/>
<path d="M229.489 160.525C232.413 160.525 234.783 158.155 234.783 155.231C234.783 152.308 232.413 149.938 229.489 149.938C226.565 149.938 224.195 152.308 224.195 155.231C224.195 158.155 226.565 160.525 229.489 160.525Z" fill="#F2F2F2"/>
<path d="M208.391 160.525C211.315 160.525 213.685 158.155 213.685 155.231C213.685 152.308 211.315 149.938 208.391 149.938C205.468 149.938 203.098 152.308 203.098 155.231C203.098 158.155 205.468 160.525 208.391 160.525Z" fill="#F2F2F2"/>
<path d="M187.298 160.525C190.221 160.525 192.591 158.155 192.591 155.231C192.591 152.308 190.221 149.938 187.298 149.938C184.374 149.938 182.004 152.308 182.004 155.231C182.004 158.155 184.374 160.525 187.298 160.525Z" fill="#F2F2F2"/>
<path d="M166.196 160.525C169.12 160.525 171.49 158.155 171.49 155.231C171.49 152.308 169.12 149.938 166.196 149.938C163.272 149.938 160.902 152.308 160.902 155.231C160.902 158.155 163.272 160.525 166.196 160.525Z" fill="#F2F2F2"/>
<path d="M229.489 182.627C232.413 182.627 234.783 180.257 234.783 177.334C234.783 174.41 232.413 172.04 229.489 172.04C226.565 172.04 224.195 174.41 224.195 177.334C224.195 180.257 226.565 182.627 229.489 182.627Z" fill="#F2F2F2"/>
<path d="M208.391 182.627C211.315 182.627 213.685 180.257 213.685 177.334C213.685 174.41 211.315 172.04 208.391 172.04C205.468 172.04 203.098 174.41 203.098 177.334C203.098 180.257 205.468 182.627 208.391 182.627Z" fill="#F2F2F2"/>
<path d="M187.298 182.627C190.221 182.627 192.591 180.257 192.591 177.334C192.591 174.41 190.221 172.04 187.298 172.04C184.374 172.04 182.004 174.41 182.004 177.334C182.004 180.257 184.374 182.627 187.298 182.627Z" fill="#F2F2F2"/>
<path d="M166.196 182.627C169.12 182.627 171.49 180.257 171.49 177.334C171.49 174.41 169.12 172.04 166.196 172.04C163.272 172.04 160.902 174.41 160.902 177.334C160.902 180.257 163.272 182.627 166.196 182.627Z" fill="#F2F2F2"/>
<path d="M229.489 204.729C232.413 204.729 234.783 202.359 234.783 199.435C234.783 196.512 232.413 194.142 229.489 194.142C226.565 194.142 224.195 196.512 224.195 199.435C224.195 202.359 226.565 204.729 229.489 204.729Z" fill="#F2F2F2"/>
<path d="M208.391 204.729C211.315 204.729 213.685 202.359 213.685 199.435C213.685 196.512 211.315 194.142 208.391 194.142C205.468 194.142 203.098 196.512 203.098 199.435C203.098 202.359 205.468 204.729 208.391 204.729Z" fill="#F2F2F2"/>
<path d="M187.298 204.729C190.221 204.729 192.591 202.359 192.591 199.435C192.591 196.512 190.221 194.142 187.298 194.142C184.374 194.142 182.004 196.512 182.004 199.435C182.004 202.359 184.374 204.729 187.298 204.729Z" fill="#F2F2F2"/>
<path d="M166.196 204.729C169.12 204.729 171.49 202.359 171.49 199.435C171.49 196.512 169.12 194.142 166.196 194.142C163.272 194.142 160.902 196.512 160.902 199.435C160.902 202.359 163.272 204.729 166.196 204.729Z" fill="#F2F2F2"/>
<path d="M182.973 343.85V345.487C182.975 348.2 184.054 350.801 185.972 352.719C187.891 354.638 190.492 355.717 193.205 355.719H266.878C269.591 355.718 272.193 354.64 274.112 352.721C276.031 350.802 277.109 348.2 277.11 345.487V343.85C277.115 341.455 276.274 339.136 274.736 337.301C274.224 336.692 273.644 336.142 273.009 335.664C273.009 335.664 232.505 334.747 232.505 333.617H193.205C190.492 333.621 187.892 334.7 185.974 336.618C184.056 338.536 182.976 341.137 182.973 343.85Z" fill="#CCCCCC"/>
<path d="M235.954 355.312H225.312V424.074H235.954V355.312Z" fill="#CCCCCC"/>
<path d="M266.243 423.699C266.243 424.849 250.117 424.144 230.225 424.144C210.333 424.144 194.207 424.849 194.207 423.699C194.207 422.55 210.333 413.432 230.225 413.432C250.117 413.432 266.243 422.55 266.243 423.699Z" fill="#CCCCCC"/>
<path d="M251.615 342.462C252.383 341.431 252.916 340.244 253.176 338.985C253.436 337.726 253.417 336.425 253.12 335.174C252.823 333.924 252.255 332.753 251.456 331.746C250.658 330.738 249.648 329.918 248.499 329.342L225.944 252.489L208.77 260.901L236.34 333.8C235.502 335.795 235.425 338.029 236.123 340.078C236.822 342.126 238.248 343.848 240.13 344.915C242.013 345.983 244.222 346.323 246.339 345.871C248.456 345.418 250.333 344.205 251.615 342.462L251.615 342.462Z" fill="#FFB8B8"/>
<path d="M231.052 265.324L211.829 270.527C211.282 270.675 210.71 270.704 210.151 270.611C209.592 270.518 209.06 270.305 208.59 269.988C208.121 269.67 207.725 269.256 207.431 268.771C207.136 268.288 206.949 267.746 206.883 267.183L204.56 247.465C203.818 244.663 204.218 241.681 205.672 239.173C207.126 236.664 209.515 234.835 212.315 234.086C215.116 233.337 218.099 233.728 220.611 235.175C223.123 236.622 224.959 239.006 225.716 241.805L233.635 259.941C233.862 260.46 233.974 261.022 233.964 261.589C233.953 262.155 233.821 262.713 233.576 263.224C233.331 263.735 232.978 264.187 232.543 264.549C232.107 264.911 231.599 265.176 231.052 265.324H231.052Z" fill="#2368FF"/>
<path d="M256.638 415.64L266.674 415.639L271.449 389.611H256.637L256.638 415.64Z" fill="#FFB8B8"/>
<path d="M254.074 412.364L273.838 412.363H273.839C275.493 412.363 277.131 412.689 278.659 413.322C280.187 413.955 281.575 414.883 282.745 416.052C283.915 417.222 284.842 418.61 285.475 420.138C286.108 421.666 286.434 423.304 286.434 424.958V425.368L254.075 425.369L254.074 412.364Z" fill="#2F2E41"/>
<path d="M268.284 401.683C268.167 401.683 268.049 401.677 267.931 401.666L254.043 400.655C253.481 400.603 252.939 400.422 252.458 400.127C251.977 399.833 251.57 399.431 251.269 398.954C250.968 398.478 250.78 397.938 250.72 397.377C250.661 396.816 250.73 396.249 250.925 395.719L269.512 353.959C269.645 353.587 269.699 353.191 269.671 352.797C269.644 352.403 269.535 352.018 269.351 351.668C269.168 351.314 268.912 351.003 268.6 350.754C268.288 350.506 267.927 350.327 267.541 350.228C258.801 347.943 236.376 341.86 216.964 334.742C208.647 331.692 203.409 327.285 201.395 321.643C198.74 314.204 202.668 307.421 202.836 307.136L202.968 306.913L221.234 308.573L241.037 310.258L284.433 333.528C288.069 335.495 290.831 338.759 292.169 342.67C293.507 346.582 293.322 350.853 291.652 354.635L271.645 399.5C271.355 400.149 270.884 400.701 270.287 401.089C269.691 401.476 268.995 401.683 268.284 401.683Z" fill="#2F2E41"/>
<path d="M224.414 225.954C235.518 225.954 244.519 216.952 244.519 205.848C244.519 194.745 235.518 185.743 224.414 185.743C213.31 185.743 204.309 194.745 204.309 205.848C204.309 216.952 213.31 225.954 224.414 225.954Z" fill="#FFB8B8"/>
<path d="M250.908 414.822L260.944 414.821L265.719 388.793H250.906L250.908 414.822Z" fill="#FFB8B8"/>
<path d="M248.344 411.546L268.108 411.545H268.108C269.762 411.545 271.4 411.871 272.928 412.504C274.456 413.136 275.845 414.064 277.014 415.234C278.184 416.403 279.112 417.792 279.745 419.32C280.378 420.848 280.704 422.486 280.703 424.14V424.549L248.344 424.55L248.344 411.546Z" fill="#2F2E41"/>
<path d="M262.553 404.139C262.436 404.139 262.319 404.133 262.201 404.122L248.312 403.111C247.751 403.059 247.208 402.878 246.728 402.583C246.247 402.289 245.84 401.887 245.539 401.411C245.237 400.934 245.049 400.394 244.99 399.833C244.93 399.272 245 398.705 245.194 398.175L263.781 356.415C263.914 356.043 263.968 355.647 263.941 355.253C263.913 354.859 263.804 354.475 263.621 354.124C263.438 353.77 263.182 353.459 262.87 353.21C262.558 352.962 262.197 352.783 261.811 352.684C253.07 350.399 230.645 344.316 211.233 337.198C202.916 334.148 197.678 329.741 195.665 324.099C193.01 316.66 196.937 309.877 197.106 309.592L197.237 309.369L215.504 311.029L235.306 312.714L278.703 335.984C282.339 337.951 285.101 341.215 286.439 345.126C287.776 349.038 287.592 353.31 285.921 357.091L265.914 401.956C265.625 402.605 265.153 403.157 264.557 403.545C263.96 403.932 263.264 404.139 262.553 404.139Z" fill="#2F2E41"/>
<path d="M230.614 237.355L209.33 229.987C209.33 229.987 195.969 240.252 202.388 265.717C205.739 278.858 204.763 292.73 199.605 305.272C198.984 306.823 198.268 308.336 197.461 309.799C197.461 309.799 221.2 338.45 243.302 317.167L234.707 275.828C234.707 275.828 248.213 248.405 230.614 237.355Z" fill="#2F2E41"/>
<path d="M226.906 226.638C224.045 222.355 221.787 216.416 224.937 212.341C228.047 208.318 234.181 208.911 238.944 207.131C245.578 204.652 249.425 196.858 248.225 189.879C247.025 182.899 241.422 177.113 234.748 174.746C228.073 172.379 220.547 173.149 214.011 175.875C205.964 179.231 199.062 185.723 196.168 193.946C193.274 202.17 194.821 212.043 200.825 218.364C207.262 225.141 217.365 226.947 226.711 226.837" fill="#2F2E41"/>
<path d="M208.207 190.103C204.601 193.038 199.1 191.734 195.229 189.158C191.358 186.582 188.218 182.914 184.03 180.894C176.647 177.333 167.721 179.7 160.535 183.644C153.35 187.589 146.98 193.038 139.39 196.133C131.8 199.228 122.115 199.381 116.367 193.537C114.953 197.634 114.838 202.069 116.036 206.234C117.235 210.4 119.69 214.095 123.066 216.814C126.442 219.533 130.575 221.144 134.901 221.428C139.226 221.711 143.534 220.653 147.236 218.398C155.553 213.333 160.146 202.711 169.474 199.915C174.636 198.368 180.178 199.614 185.395 200.964C190.612 202.314 196.051 203.772 201.316 202.623C206.58 201.474 211.505 196.743 210.835 191.396L208.207 190.103Z" fill="#2F2E41"/>
<path d="M273.655 379.546C271.526 365.718 271.526 351.646 273.655 337.818C273.79 336.995 274.213 336.246 274.848 335.706C275.483 335.165 276.29 334.868 277.124 334.866H309.763C310.292 334.865 310.814 334.984 311.29 335.214C311.766 335.445 312.183 335.781 312.509 336.197C312.843 336.619 313.076 337.112 313.19 337.637C313.305 338.163 313.298 338.708 313.17 339.23C310.117 352.018 310.117 365.345 313.17 378.133C313.298 378.656 313.305 379.2 313.19 379.726C313.076 380.251 312.843 380.744 312.509 381.166C312.183 381.582 311.766 381.918 311.29 382.149C310.814 382.38 310.292 382.499 309.763 382.497H277.124C276.29 382.495 275.483 382.198 274.848 381.657C274.213 381.117 273.79 380.368 273.655 379.546Z" fill="#9B9DA0"/>
<path d="M299.716 355.067H282.589C281.937 355.066 281.313 354.807 280.853 354.347C280.392 353.887 280.134 353.262 280.133 352.611V351.652C280.134 351.001 280.392 350.377 280.853 349.916C281.313 349.456 281.937 349.197 282.589 349.196H299.716C300.367 349.197 300.992 349.456 301.452 349.916C301.912 350.377 302.171 351.001 302.172 351.652V352.611C302.171 353.262 301.912 353.887 301.452 354.347C300.992 354.807 300.367 355.066 299.716 355.067Z" fill="white"/>
<path d="M299.716 365.171H282.589C281.937 365.17 281.313 364.911 280.853 364.451C280.392 363.991 280.134 363.366 280.133 362.715V361.756C280.134 361.104 280.392 360.48 280.853 360.02C281.313 359.559 281.937 359.301 282.589 359.3H299.716C300.367 359.301 300.992 359.559 301.452 360.02C301.912 360.48 302.171 361.104 302.172 361.756V362.715C302.171 363.366 301.912 363.991 301.452 364.451C300.992 364.911 300.367 365.17 299.716 365.171Z" fill="white"/>
<path d="M282.239 338.778C282.725 337.588 282.945 336.305 282.882 335.021C282.819 333.737 282.475 332.483 281.875 331.346C281.275 330.209 280.433 329.217 279.408 328.441C278.383 327.665 277.201 327.123 275.944 326.853L234.903 258.072L220.375 270.508L265.284 334.207C264.971 336.349 265.455 338.531 266.643 340.34C267.831 342.149 269.642 343.46 271.732 344.023C273.821 344.586 276.045 344.364 277.982 343.397C279.918 342.43 281.433 340.787 282.239 338.778L282.239 338.778Z" fill="#FFB8B8"/>
<path d="M243.056 269.224L225.743 279.065C225.251 279.345 224.704 279.515 224.139 279.565C223.575 279.614 223.006 279.541 222.472 279.351C221.939 279.161 221.452 278.859 221.046 278.463C220.64 278.068 220.323 277.59 220.118 277.062L212.943 258.55C211.525 256.022 211.167 253.034 211.948 250.243C212.729 247.451 214.586 245.083 217.11 243.658C219.634 242.233 222.621 241.867 225.415 242.64C228.209 243.413 230.582 245.263 232.014 247.783L244.213 263.366C244.562 263.812 244.811 264.329 244.943 264.88C245.074 265.431 245.086 266.004 244.976 266.56C244.866 267.116 244.638 267.641 244.307 268.101C243.975 268.561 243.549 268.944 243.056 269.224Z" fill="#2F2E41"/>
<path d="M427.272 293.385H94.9263C93.5151 293.385 92.1617 293.945 91.1639 294.943C90.1661 295.941 89.6055 297.294 89.6055 298.706C89.6055 300.117 90.1661 301.47 91.1639 302.468C92.1617 303.466 93.5151 304.026 94.9263 304.026H104.34V419.856C104.34 421.267 104.901 422.621 105.898 423.619C106.896 424.617 108.25 425.177 109.661 425.177C111.072 425.177 112.425 424.617 113.423 423.619C114.421 422.621 114.982 421.267 114.982 419.856V314.251L174.633 422.368C175.34 423.587 176.502 424.475 177.864 424.839C179.225 425.202 180.675 425.011 181.896 424.306C183.116 423.601 184.007 422.441 184.374 421.08C184.74 419.719 184.551 418.269 183.849 417.047L121.492 304.026H406.398V304.095L344.08 417.047C343.375 418.269 343.183 419.721 343.549 421.084C343.914 422.447 344.805 423.609 346.027 424.315C347.25 425.021 348.702 425.212 350.065 424.847C351.428 424.481 352.59 423.59 353.296 422.368L406.398 326.12V419.856C406.398 421.267 406.959 422.621 407.957 423.619C408.954 424.617 410.308 425.177 411.719 425.177C413.13 425.177 414.483 424.617 415.481 423.619C416.479 422.621 417.04 421.267 417.04 419.856V306.832L418.588 304.026H427.272C428.683 304.026 430.037 303.466 431.034 302.468C432.032 301.47 432.593 300.117 432.593 298.706C432.593 297.294 432.032 295.941 431.034 294.943C430.037 293.945 428.683 293.385 427.272 293.385Z" fill="#3F3D56"/>
<path d="M289.752 290.11H225.084C223.501 290.11 222.219 291.393 222.219 292.975C222.219 294.558 223.501 295.84 225.084 295.84H289.752C291.334 295.84 292.617 294.558 292.617 292.975C292.617 291.393 291.334 290.11 289.752 290.11Z" fill="#CCCCCC"/>
<path d="M333.136 295.84H260.282C258.871 295.839 257.519 295.278 256.521 294.28C255.524 293.283 254.963 291.93 254.961 290.519V250.409C254.963 248.998 255.524 247.646 256.521 246.648C257.519 245.651 258.871 245.089 260.282 245.088H333.136C334.547 245.089 335.899 245.651 336.897 246.648C337.894 247.646 338.455 248.998 338.457 250.409V290.519C338.455 291.93 337.894 293.283 336.896 294.28C335.899 295.278 334.547 295.839 333.136 295.84Z" fill="#CCCCCC"/>
<path d="M296.708 275.376C299.421 275.376 301.62 273.177 301.62 270.464C301.62 267.752 299.421 265.553 296.708 265.553C293.996 265.553 291.797 267.752 291.797 270.464C291.797 273.177 293.996 275.376 296.708 275.376Z" fill="white"/>
<path d="M388.734 197.013V53.3513C388.736 51.7189 389.385 50.154 390.54 48.9997C391.694 47.8455 393.259 47.1962 394.891 47.1943H508.453C510.085 47.1962 511.65 47.8455 512.804 48.9997C513.958 50.154 514.608 51.7189 514.609 53.3513V197.013C514.608 198.645 513.958 200.21 512.804 201.365C511.65 202.519 510.085 203.168 508.453 203.17H394.891C393.259 203.168 391.694 202.519 390.54 201.365C389.385 200.21 388.736 198.645 388.734 197.013ZM394.891 48.5625C393.622 48.564 392.404 49.069 391.507 49.9667C390.609 50.8645 390.104 52.0817 390.103 53.3513V197.013C390.104 198.283 390.609 199.5 391.507 200.398C392.404 201.295 393.622 201.8 394.891 201.802H508.453C509.722 201.8 510.939 201.295 511.837 200.398C512.735 199.5 513.24 198.283 513.241 197.013V53.3513C513.24 52.0817 512.735 50.8645 511.837 49.9667C510.939 49.069 509.722 48.564 508.453 48.5625H394.891Z" fill="#E6E6E6"/>
<path d="M458.039 113.171V83.6722C458.04 82.856 458.365 82.0735 458.942 81.4964C459.519 80.9193 460.301 80.5947 461.118 80.5938H486.115C486.931 80.5947 487.713 80.9193 488.29 81.4964C488.868 82.0735 489.192 82.856 489.193 83.6722V113.171C489.192 113.987 488.868 114.769 488.29 115.346C487.713 115.923 486.931 116.248 486.115 116.249H461.118C460.301 116.248 459.519 115.923 458.942 115.346C458.365 114.769 458.04 113.987 458.039 113.171Z" fill="#D3D3D3"/>
<path d="M409.469 126.852V97.3539C409.47 96.5377 409.794 95.7552 410.371 95.1781C410.949 94.6009 411.731 94.2763 412.547 94.2754H437.544C438.361 94.2763 439.143 94.6009 439.72 95.1781C440.297 95.7552 440.622 96.5377 440.623 97.3539V126.852C440.622 127.668 440.297 128.451 439.72 129.028C439.143 129.605 438.361 129.93 437.544 129.931H412.547C411.731 129.93 410.949 129.605 410.371 129.028C409.794 128.451 409.47 127.668 409.469 126.852Z" fill="#CCCCCC"/>
<path d="M448.461 168.583V139.084C448.462 138.268 448.786 137.486 449.364 136.909C449.941 136.331 450.723 136.007 451.539 136.006H476.537C477.353 136.007 478.135 136.331 478.712 136.909C479.289 137.486 479.614 138.268 479.615 139.084V168.583C479.614 169.399 479.289 170.181 478.712 170.758C478.135 171.336 477.353 171.66 476.537 171.661H451.539C450.723 171.66 449.941 171.336 449.364 170.758C448.786 170.181 448.462 169.399 448.461 168.583Z" fill="#2368FF"/>
<path d="M639.102 62.1636C642.026 62.1636 644.396 59.7935 644.396 56.8699C644.396 53.9462 642.026 51.5762 639.102 51.5762C636.179 51.5762 633.809 53.9462 633.809 56.8699C633.809 59.7935 636.179 62.1636 639.102 62.1636Z" fill="#F2F2F2"/>
<path d="M639.102 83.2622C642.026 83.2622 644.396 80.8921 644.396 77.9685C644.396 75.0449 642.026 72.6748 639.102 72.6748C636.179 72.6748 633.809 75.0449 633.809 77.9685C633.809 80.8921 636.179 83.2622 639.102 83.2622Z" fill="#F2F2F2"/>
<path d="M639.102 104.36C642.026 104.36 644.396 101.99 644.396 99.0662C644.396 96.1425 642.026 93.7725 639.102 93.7725C636.179 93.7725 633.809 96.1425 633.809 99.0662C633.809 101.99 636.179 104.36 639.102 104.36Z" fill="#F2F2F2"/>
<path d="M639.102 125.457C642.026 125.457 644.396 123.086 644.396 120.163C644.396 117.239 642.026 114.869 639.102 114.869C636.179 114.869 633.809 117.239 633.809 120.163C633.809 123.086 636.179 125.457 639.102 125.457Z" fill="#F2F2F2"/>
<path d="M616.997 62.1636C619.92 62.1636 622.291 59.7935 622.291 56.8699C622.291 53.9462 619.92 51.5762 616.997 51.5762C614.073 51.5762 611.703 53.9462 611.703 56.8699C611.703 59.7935 614.073 62.1636 616.997 62.1636Z" fill="#F2F2F2"/>
<path d="M616.997 83.2622C619.92 83.2622 622.291 80.8921 622.291 77.9685C622.291 75.0449 619.92 72.6748 616.997 72.6748C614.073 72.6748 611.703 75.0449 611.703 77.9685C611.703 80.8921 614.073 83.2622 616.997 83.2622Z" fill="#F2F2F2"/>
<path d="M616.997 104.36C619.92 104.36 622.291 101.99 622.291 99.0662C622.291 96.1425 619.92 93.7725 616.997 93.7725C614.073 93.7725 611.703 96.1425 611.703 99.0662C611.703 101.99 614.073 104.36 616.997 104.36Z" fill="#F2F2F2"/>
<path d="M616.997 125.457C619.92 125.457 622.291 123.086 622.291 120.163C622.291 117.239 619.92 114.869 616.997 114.869C614.073 114.869 611.703 117.239 611.703 120.163C611.703 123.086 614.073 125.457 616.997 125.457Z" fill="#F2F2F2"/>
<path d="M594.899 62.1636C597.823 62.1636 600.193 59.7935 600.193 56.8699C600.193 53.9462 597.823 51.5762 594.899 51.5762C591.976 51.5762 589.605 53.9462 589.605 56.8699C589.605 59.7935 591.976 62.1636 594.899 62.1636Z" fill="#F2F2F2"/>
<path d="M594.899 83.2622C597.823 83.2622 600.193 80.8921 600.193 77.9685C600.193 75.0449 597.823 72.6748 594.899 72.6748C591.976 72.6748 589.605 75.0449 589.605 77.9685C589.605 80.8921 591.976 83.2622 594.899 83.2622Z" fill="#F2F2F2"/>
<path d="M594.899 104.36C597.823 104.36 600.193 101.99 600.193 99.0662C600.193 96.1425 597.823 93.7725 594.899 93.7725C591.976 93.7725 589.605 96.1425 589.605 99.0662C589.605 101.99 591.976 104.36 594.899 104.36Z" fill="#F2F2F2"/>
<path d="M594.899 125.457C597.823 125.457 600.193 123.086 600.193 120.163C600.193 117.239 597.823 114.869 594.899 114.869C591.976 114.869 589.605 117.239 589.605 120.163C589.605 123.086 591.976 125.457 594.899 125.457Z" fill="#F2F2F2"/>
<path d="M572.794 62.1636C575.717 62.1636 578.087 59.7935 578.087 56.8699C578.087 53.9462 575.717 51.5762 572.794 51.5762C569.87 51.5762 567.5 53.9462 567.5 56.8699C567.5 59.7935 569.87 62.1636 572.794 62.1636Z" fill="#F2F2F2"/>
<path d="M572.794 83.2622C575.717 83.2622 578.087 80.8921 578.087 77.9685C578.087 75.0449 575.717 72.6748 572.794 72.6748C569.87 72.6748 567.5 75.0449 567.5 77.9685C567.5 80.8921 569.87 83.2622 572.794 83.2622Z" fill="#F2F2F2"/>
<path d="M572.794 104.36C575.717 104.36 578.087 101.99 578.087 99.0662C578.087 96.1425 575.717 93.7725 572.794 93.7725C569.87 93.7725 567.5 96.1425 567.5 99.0662C567.5 101.99 569.87 104.36 572.794 104.36Z" fill="#F2F2F2"/>
<path d="M572.794 125.457C575.717 125.457 578.087 123.086 578.087 120.163C578.087 117.239 575.717 114.869 572.794 114.869C569.87 114.869 567.5 117.239 567.5 120.163C567.5 123.086 569.87 125.457 572.794 125.457Z" fill="#F2F2F2"/>
<path d="M550.692 62.1636C553.616 62.1636 555.986 59.7935 555.986 56.8699C555.986 53.9462 553.616 51.5762 550.692 51.5762C547.768 51.5762 545.398 53.9462 545.398 56.8699C545.398 59.7935 547.768 62.1636 550.692 62.1636Z" fill="#F2F2F2"/>
<path d="M550.692 83.2622C553.616 83.2622 555.986 80.8921 555.986 77.9685C555.986 75.0449 553.616 72.6748 550.692 72.6748C547.768 72.6748 545.398 75.0449 545.398 77.9685C545.398 80.8921 547.768 83.2622 550.692 83.2622Z" fill="#F2F2F2"/>
<path d="M550.692 104.36C553.616 104.36 555.986 101.99 555.986 99.0662C555.986 96.1425 553.616 93.7725 550.692 93.7725C547.768 93.7725 545.398 96.1425 545.398 99.0662C545.398 101.99 547.768 104.36 550.692 104.36Z" fill="#F2F2F2"/>
<path d="M550.692 125.457C553.616 125.457 555.986 123.086 555.986 120.163C555.986 117.239 553.616 114.869 550.692 114.869C547.768 114.869 545.398 117.239 545.398 120.163C545.398 123.086 547.768 125.457 550.692 125.457Z" fill="#F2F2F2"/>
<path d="M528.591 62.1636C531.514 62.1636 533.884 59.7935 533.884 56.8699C533.884 53.9462 531.514 51.5762 528.591 51.5762C525.667 51.5762 523.297 53.9462 523.297 56.8699C523.297 59.7935 525.667 62.1636 528.591 62.1636Z" fill="#F2F2F2"/>
<path d="M528.591 83.2622C531.514 83.2622 533.884 80.8921 533.884 77.9685C533.884 75.0449 531.514 72.6748 528.591 72.6748C525.667 72.6748 523.297 75.0449 523.297 77.9685C523.297 80.8921 525.667 83.2622 528.591 83.2622Z" fill="#F2F2F2"/>
<path d="M528.591 104.36C531.514 104.36 533.884 101.99 533.884 99.0662C533.884 96.1425 531.514 93.7725 528.591 93.7725C525.667 93.7725 523.297 96.1425 523.297 99.0662C523.297 101.99 525.667 104.36 528.591 104.36Z" fill="#F2F2F2"/>
<path d="M528.591 125.457C531.514 125.457 533.884 123.086 533.884 120.163C533.884 117.239 531.514 114.869 528.591 114.869C525.667 114.869 523.297 117.239 523.297 120.163C523.297 123.086 525.667 125.457 528.591 125.457Z" fill="#F2F2F2"/>
<path d="M549.915 244.68C549.481 243.487 549.303 242.217 549.394 240.951C549.485 239.686 549.843 238.454 550.443 237.336C551.043 236.218 551.873 235.24 552.878 234.465C553.883 233.69 555.04 233.136 556.273 232.84C556.664 232.748 557.061 232.683 557.461 232.646L577.355 197.776L572.332 189.146L584.836 179.499L594.403 192.786C595.544 194.384 596.139 196.306 596.101 198.269C596.062 200.231 595.392 202.129 594.19 203.68L566.878 238.645C566.977 238.923 567.062 239.206 567.132 239.492C567.428 240.726 567.46 242.009 567.226 243.256C566.992 244.503 566.497 245.687 565.774 246.729C565.051 247.772 564.115 248.65 563.029 249.306C561.942 249.962 560.73 250.38 559.47 250.535C559.105 250.581 558.736 250.604 558.368 250.604C556.522 250.598 554.723 250.027 553.212 248.968C551.701 247.909 550.55 246.412 549.915 244.68Z" fill="#FFB8B8"/>
<path d="M511.107 416.284L501.071 416.283L496.297 377.574L511.108 377.575L511.107 416.284Z" fill="#FFB8B8"/>
<path d="M493.901 413.416H513.256V425.602H481.715C481.715 424.002 482.03 422.417 482.642 420.939C483.255 419.46 484.152 418.117 485.284 416.985C486.416 415.854 487.759 414.956 489.238 414.344C490.716 413.731 492.301 413.416 493.901 413.416Z" fill="#2F2E41"/>
<path d="M593.782 416.284L583.747 416.283L578.973 377.574L593.784 377.575L593.782 416.284Z" fill="#FFB8B8"/>
<path d="M576.577 413.416H595.931V425.602H564.391C564.391 424.002 564.706 422.417 565.318 420.939C565.931 419.46 566.828 418.117 567.96 416.985C569.091 415.854 570.435 414.956 571.913 414.344C573.392 413.731 574.976 413.416 576.577 413.416Z" fill="#2F2E41"/>
<path d="M587.623 181.384L565.092 189.946L559.591 174.666C558.861 172.637 558.871 170.415 559.62 168.393C560.37 166.37 561.81 164.678 563.686 163.615C565.584 162.54 567.804 162.178 569.945 162.596C572.086 163.014 574.007 164.184 575.361 165.894L587.623 181.384Z" fill="#2368FF"/>
<path d="M511.971 384.933L493.074 380.623C492.069 380.392 491.189 379.79 490.61 378.936C490.031 378.083 489.797 377.042 489.954 376.023C497.536 327.964 504.831 299.82 523.631 264.08C523.893 263.413 526.829 249.887 528.744 240.926C528.722 239.938 529.06 238.977 529.695 238.22C530.33 237.464 531.218 236.964 532.194 236.813L567.429 231.391C567.961 231.206 568.522 231.122 569.084 231.141L569.436 231.208L569.432 231.555C569.427 231.913 569.071 231.968 568.937 231.988L568.469 232.06C569.003 232.309 569.493 232.643 569.921 233.048C585.36 251.617 593.388 312.483 603.584 379.726C603.641 380.272 603.574 380.823 603.39 381.34C603.205 381.857 602.907 382.326 602.517 382.712C602.148 383.115 601.701 383.439 601.203 383.664C600.706 383.889 600.167 384.011 599.621 384.022L577.109 384.571C576.12 384.593 575.157 384.255 574.398 383.62C573.64 382.984 573.139 382.095 572.987 381.118L557.824 293.489C557.719 292.805 557.399 292.171 556.91 291.681C556.421 291.191 555.788 290.87 555.103 290.765C554.419 290.659 553.719 290.775 553.105 291.094C552.491 291.414 551.995 291.922 551.689 292.543C539.456 317.456 528.047 339.002 516.812 381.987C516.589 382.858 516.083 383.631 515.372 384.183C514.662 384.735 513.788 385.036 512.889 385.037C512.58 385.037 512.272 385.002 511.971 384.933Z" fill="#2F2E41"/>
<path d="M530.314 241.927C529.84 241.591 529.443 241.159 529.149 240.658C528.855 240.157 528.671 239.599 528.609 239.022C525.723 212.082 527.733 191 534.753 174.571C535.989 171.737 537.852 169.22 540.201 167.21C542.55 165.199 545.324 163.747 548.314 162.963L566.528 162.044L566.622 162.09C570.732 164.103 574.084 167.386 576.18 171.454C578.277 175.522 579.007 180.158 578.262 184.673C572.404 200.114 567.498 216.191 571.239 229.16C571.396 229.702 571.442 230.27 571.374 230.831C571.306 231.391 571.125 231.932 570.843 232.421C570.57 232.893 570.202 233.305 569.764 233.63C569.325 233.955 568.824 234.187 568.293 234.311L533.602 242.563C533.04 242.697 532.457 242.709 531.89 242.599C531.323 242.49 530.786 242.26 530.314 241.927Z" fill="#2368FF"/>
<path d="M522.475 203.267L487.542 175.708C487.264 175.806 486.981 175.889 486.694 175.958C485.461 176.247 484.181 176.272 482.938 176.034C481.694 175.795 480.515 175.298 479.476 174.574C478.43 173.849 477.552 172.909 476.899 171.818C476.245 170.726 475.833 169.507 475.689 168.243C475.455 166.223 475.91 164.182 476.981 162.453C478.053 160.723 479.677 159.407 481.59 158.716C482.784 158.288 484.056 158.117 485.321 158.214C486.586 158.311 487.816 158.674 488.931 159.28C490.046 159.886 491.02 160.72 491.79 161.729C492.56 162.737 493.109 163.897 493.399 165.132C493.489 165.523 493.552 165.921 493.587 166.321L528.361 186.382L537.015 181.4L546.602 193.95L533.165 203.527C531.592 204.639 529.703 205.214 527.777 205.167C525.851 205.12 523.992 204.454 522.475 203.267H522.475Z" fill="#FFB8B8"/>
<path d="M550.865 197.859L530.934 184.306L540.301 171.039C541.544 169.277 543.371 168.012 545.457 167.467C547.544 166.922 549.756 167.132 551.702 168.059C553.672 168.998 555.24 170.61 556.125 172.604C557.01 174.598 557.153 176.842 556.527 178.932L550.865 197.859Z" fill="#2368FF"/>
<path d="M560.445 155.242C571.549 155.242 580.55 146.24 580.55 135.137C580.55 124.033 571.549 115.031 560.445 115.031C549.341 115.031 540.34 124.033 540.34 135.137C540.34 146.24 549.341 155.242 560.445 155.242Z" fill="#FFB8B8"/>
<path d="M553.08 132.141C547.912 135.678 541.127 139.314 535.85 135.547C532.384 133.074 531.292 128.495 532.697 124.476C535.225 117.249 542.168 114.067 548.808 111.629C557.439 108.458 566.838 105.936 575.748 108.207C584.659 110.477 592.534 119.104 590.925 128.158C589.632 135.439 582.764 141.497 583.739 148.827C584.72 156.204 593.017 160.087 600.341 161.406C607.666 162.724 615.862 163.148 621.126 168.409C627.841 175.12 626.164 187.116 619.845 194.202C613.527 201.288 603.992 204.5 594.752 206.684C582.511 209.577 569.271 211.097 557.644 206.296C546.018 201.494 536.97 188.57 540.338 176.45C541.761 171.331 545.112 167.005 548.351 162.793C551.59 158.581 554.87 154.176 556.105 149.009C557.135 144.702 556.373 139.702 553.517 136.472C552.997 135.907 552.67 135.191 552.583 134.428C552.496 133.666 552.652 132.895 553.03 132.226L553.08 132.141Z" fill="#2F2E41"/>
</svg>
