<svg xmlns="http://www.w3.org/2000/svg" width="82.321" height="68.635" viewBox="0 0 82.321 68.635">
  <path id="Path_heart-pulse" data-name="Path / heart-pulse" d="M24.638,4A22.638,22.638,0,0,0,2,26.638a24.614,24.614,0,0,0,.906,6.174H19.7l5.227-13.871a4.121,4.121,0,0,1,7.656,0l8.52,22.1L43.531,35.2a3.966,3.966,0,0,1,3.746-2.387H83.415a24.614,24.614,0,0,0,.906-6.174A22.634,22.634,0,0,0,43.16,13.632,22.687,22.687,0,0,0,24.638,4h0M6.116,38.986a4.116,4.116,0,1,0,0,8.232H16.159L39.044,69.856c4.116,3.7,4.116,3.7,8.232,0L70.161,47.218H80.2a4.116,4.116,0,0,0,0-8.232H48.923l-3.828,9.467c-1.646,4.157-6.38,3.581-7.9.123L28.754,26.638,24.8,36.228a4.153,4.153,0,0,1-3.869,2.758Z" transform="translate(-2 -4)" fill="#ffffff"/>
</svg>
