<svg width="657" height="484" viewBox="0 0 657 484" fill="none" xmlns="http://www.w3.org/2000/svg">
<path d="M609.673 437.179C588.933 452.973 563.665 468.973 538.823 476.516C531.661 478.756 524.271 480.185 516.791 480.778C509.798 481.34 502.76 480.794 495.938 479.16C478.009 474.701 461.379 466.891 445.288 457.767C440.031 454.781 434.835 451.659 429.669 448.468C421.236 443.257 412.887 437.863 404.515 432.598C403.262 431.8 402.016 431.018 400.762 430.243H400.755C398.734 428.974 396.708 427.723 394.677 426.49C394.32 426.27 393.963 426.057 393.598 425.837C389.762 423.512 385.859 421.241 381.891 419.022C381.405 418.756 380.919 418.483 380.433 418.217C372.755 413.958 364.864 410.096 356.791 406.647C351.488 404.413 346.117 402.4 340.693 400.683H340.685C338.611 400.03 336.53 399.414 334.44 398.852C328.176 397.133 321.792 395.884 315.341 395.115C306.453 394.038 297.463 394.11 288.592 395.327C287.992 395.411 287.4 395.494 286.799 395.593C262.793 399.437 240.883 412.398 216.77 415.452C215.988 415.55 215.213 415.642 214.43 415.71C214.096 415.74 213.762 415.778 213.428 415.801C206.42 416.401 199.368 416.228 192.399 415.285C172.928 412.717 153.966 404.748 136.895 394.704C96.9881 371.222 64.6248 335.129 44.9485 293.33C41.5697 286.166 38.5698 278.83 35.9613 271.352C28.6681 250.614 24.6517 228.866 24.0568 206.891C22.2107 130.647 65.5364 54.1531 133.56 19.6703C201.591 -14.8125 291.084 -3.40939 345.95 49.5646C379.232 81.6999 527.5 38.5 600.389 32.5C673.278 26.5 538.823 146 600.389 186C623.78 188.887 577.97 243.174 600.389 250.437C612.803 254.463 623.393 262.167 631.924 271.982C637.66 278.643 642.46 286.055 646.191 294.013C648.926 299.767 651.146 305.752 652.824 311.897C653.135 313.029 653.424 314.161 653.705 315.293C664.872 360.905 647.027 408.721 609.673 437.179Z" fill="white"/>
<path d="M257.851 123.505H186.193C183.735 123.505 181.734 121.505 181.734 119.046C181.734 116.588 183.735 114.588 186.193 114.588H257.851C260.309 114.588 262.309 116.588 262.309 119.046C262.309 121.505 260.309 123.505 257.851 123.505Z" fill="#E6E7E8"/>
<path d="M313.773 138.596H186.193C183.735 138.596 181.734 136.595 181.734 134.137C181.734 131.679 183.735 129.679 186.193 129.679H313.773C316.231 129.679 318.231 131.679 318.231 134.137C318.231 136.595 316.231 138.596 313.773 138.596Z" fill="#E6E7E8"/>
<path d="M313.773 153.55H186.193C183.735 153.55 181.734 151.55 181.734 149.091C181.734 146.633 183.735 144.633 186.193 144.633H313.773C316.231 144.633 318.231 146.633 318.231 149.091C318.231 151.55 316.231 153.55 313.773 153.55Z" fill="#E6E7E8"/>
<path d="M327.29 231.154V229.018C302.631 229.018 281.097 208.875 275.372 180.816L284.663 183.206C280.17 178.949 275.63 171.821 272.813 165.996C271.15 172.25 268.043 180.108 264.438 185.14L273.228 180.976C279.074 210.167 301.533 231.154 327.29 231.154Z" fill="#3F3D56"/>
<path d="M317.959 149.398C317.959 151.754 316.042 153.67 313.686 153.67H258.142C255.786 153.67 253.869 151.754 253.869 149.398C253.869 147.042 255.786 145.125 258.142 145.125H313.686C316.042 145.125 317.959 147.042 317.959 149.398Z" fill="#2368FF"/>
<path d="M67.8492 387.405C67.0037 384.46 65.5557 381.949 63.8318 380.157L57.5684 351.605L43.916 354.95L51.7395 383.553C51.225 385.973 51.328 388.862 52.1735 391.806C54.1052 398.533 59.1802 403 63.509 401.785C67.8377 400.569 69.7809 394.131 67.8492 387.405H67.8492Z" fill="#FFB6B6"/>
<path d="M65.9625 200.111C65.9625 200.111 51.2166 199.602 42.6713 209.216C32.8809 221.175 26.1888 268.037 31.2126 271.192L44.8239 367.845L64.2333 365.178L59.252 249.209L65.9625 200.111V200.111Z" fill="#9B9DA0"/>
<path d="M165.51 363.031L161.977 480.997H111.239L109.189 435.525L100.173 480.997H45.793L52.5758 402.828L59.583 386.389L64.3256 375.248L165.51 363.031Z" fill="#2F2E41"/>
<path d="M125.214 180.841L89.9641 178.705L78.2143 193.659C68.0664 195.832 58.9006 198.637 52.5783 203.273C54.0909 248.057 50.7681 306.288 64.3281 317.567L52.2871 402.553C52.2871 402.553 57.1429 398.393 65.2543 399.861C68.0566 400.369 71.4393 406.681 74.8827 407.064C101.341 410.003 144.247 406.981 165.513 363.031L157.259 299.408L159.395 206.477C152.716 201.198 144.413 197.767 134.827 195.796L125.214 180.841V180.841H125.214Z" fill="#9B9DA0"/>
<path d="M193.074 154.843C193.457 158.547 192.971 162.029 191.853 164.822L197.725 199.87L180.965 202.176L176.813 166.375C175.148 163.87 173.961 160.56 173.578 156.857C172.705 148.397 176.361 141.088 181.744 140.532C187.128 139.976 192.201 146.383 193.074 154.843V154.843H193.074H193.074Z" fill="#FFB6B6"/>
<path d="M137.356 209.154C135.601 211.744 136.09 214.654 135.671 218.15C133.893 232.994 162.337 276.857 182.019 281.907C184.602 282.57 186.073 285.356 188.68 285.916H188.68C196.403 287.576 203.593 281.446 203.176 273.558L197.829 172.395L175.369 180.055L176.807 232.578C176.663 221.697 166.672 210.618 159.104 206.01C159.104 206.01 143.775 199.684 137.356 209.154L137.356 209.154Z" fill="#9B9DA0"/>
<path d="M111.244 175.942C128.392 175.942 142.294 162.041 142.294 144.893C142.294 127.745 128.392 113.844 111.244 113.844C94.0965 113.844 80.1953 127.745 80.1953 144.893C80.1953 162.041 94.0965 175.942 111.244 175.942Z" fill="#FFB6B6"/>
<path d="M140.166 122.093C139.899 122.157 144.253 117.913 144.439 117.82C148.711 115.684 144.321 136.567 141.234 135.979C133.64 134.537 130.36 131.674 127.412 138.82C126.59 140.807 126.077 143.05 124.475 144.471C122.274 146.404 118.621 146.244 116.827 148.551C115.385 150.41 115.801 153.144 116.869 155.238C117.938 157.342 119.561 159.126 120.533 161.273C121.623 163.687 116.976 171.367 115.203 175.683V175.693L115.193 175.719C114.721 176.851 113.602 173.59 112.42 173.264C111.005 172.875 108.921 176.215 106.668 175.608C106.658 175.608 106.647 175.597 106.636 175.597C104.489 174.999 102.097 174.358 99.7254 173.717H99.7147C93.0386 171.901 91.3509 174.508 91.0305 174.433L86.886 170.096C85.4637 169.061 85.6244 165.717 84.6215 164.82C83.8013 164.085 81.7565 165.782 81.1538 165.076C78.1989 161.615 77.519 158.153 75.7771 151.318C74.1855 145.069 70.8849 126.366 77.6677 125.522C84.066 124.721 79.3875 115.812 85.8285 116.143C85.444 114.52 86.1597 112.778 87.324 111.582C88.4776 110.375 90.0157 109.627 91.5646 108.986C99.202 105.867 97.9309 103.186 105.985 105.002C106.786 103.881 117.059 100.957 118.512 101.331C118.618 101.352 116.271 105.91 122.007 105.002C121.794 106.316 124.921 103.467 125.212 108.207C131.33 104.535 134.622 113.323 134.825 114.616C135.092 116.229 132.657 115.406 134.281 115.652C135.242 115.801 136.887 117.756 136.727 118.728C137.421 117.788 138.115 116.859 138.82 115.919C138.948 115.93 139.066 115.951 139.194 115.972C142.441 116.592 138.719 127.207 138.852 123.898C139.098 117.82 143.403 121.377 140.166 122.093H140.166Z" fill="#2F2E41"/>
<path d="M536.206 115.728C535.059 125.157 533.805 134.573 532.446 143.974C531.894 147.792 531.31 151.659 529.774 155.198C528.726 157.613 527.257 159.819 525.796 162.01C524.07 164.6 522.316 167.222 519.972 169.269C517.628 171.315 514.583 172.753 511.48 172.512C519.712 166.971 525.245 157.599 526.119 147.714C526.53 143.068 525.966 138.398 525.858 133.734C525.75 129.071 526.14 124.246 528.291 120.107C530.443 115.969 534.693 112.656 539.356 112.774L536.206 115.728H536.206Z" fill="#2F2E41"/>
<path d="M452.779 316.833C446.081 322.266 437.849 323.214 434.392 318.952C430.935 314.69 433.562 306.831 440.26 301.398C443.192 299.02 446.418 297.502 449.409 296.903L478.079 274.24L488.427 287.921L459.066 308.81C457.863 311.612 455.711 314.455 452.779 316.833H452.779L452.779 316.833L452.779 316.833Z" fill="#A0616A"/>
<path d="M458.197 286.068L500.917 245.533L505.189 242.329C505.189 242.329 529.712 218.438 536.062 217.89C538.751 217.659 541.441 218.33 543.706 219.802C547.367 222.175 549.263 226.082 549.263 230.02C549.263 233.311 547.937 236.617 545.224 239.052L506.115 274.162L489.477 289.096L468.786 307.676L466.682 303.392L459.569 288.873L458.197 286.068V286.068L458.197 286.068H458.197Z" fill="#9B9DA0"/>
<path d="M549.539 258.636L506.766 271.736C513.927 273.754 516.925 317.389 510.261 318.745C510.261 318.745 581.149 323.787 577.281 318.745C572.566 312.599 578.89 271.754 581.905 271.736L549.539 258.636Z" fill="#A0616A"/>
<path d="M606.455 481L602.717 435.88C602.717 419.74 601.67 405.16 599.993 392.16C593.274 339.98 576.429 313.233 576.429 313.233H513.407C513.322 313.33 513.237 313.404 513.151 313.5L513.14 313.511C498.272 329.138 490.538 368.436 487.099 392.16C485.464 403.451 484.802 411.216 484.802 411.216L478.639 465.992L483.093 481H519.763L519.186 477.784L542.782 392.16L543.071 391.113L543.327 392.16L565.203 481H606.455V481Z" fill="#2F2E41"/>
<path d="M514.701 232.607L528.018 205.724L539.239 186.194L548.313 176.946H573.146L575.458 186.194L589.33 193.9L594.236 232.432L576.756 316.031C555.949 299.078 513.063 294.382 513.063 294.382L506.115 274.161L501.522 249.801L500.967 246.888L514.701 232.607V232.607V232.607Z" fill="#9B9DA0"/>
<path d="M513.099 281.237C504.479 280.993 497.616 276.347 497.772 270.861C497.928 265.376 505.042 261.127 513.663 261.371C517.436 261.478 520.873 262.429 523.531 263.924L560.046 265.419L558.98 282.539L523.097 279.248C520.358 280.59 516.873 281.344 513.099 281.237L513.099 281.237V281.237Z" fill="#A0616A"/>
<path d="M559.796 222.801L594.24 256.997L534.244 263.141L520.301 282.753L603.926 285.525C611.471 288.212 619.508 282.998 620.129 275.013V275.013C620.338 272.317 603.158 203.903 592.758 197.552C580.568 190.108 559.796 222.801 559.796 222.801L566.6 211.474L559.796 222.801Z" fill="#9B9DA0"/>
<path d="M583.726 143.392C583.976 127.859 571.587 115.065 556.055 114.814C540.522 114.564 527.727 126.952 527.477 142.485C527.226 158.018 539.615 170.812 555.148 171.063C570.68 171.313 583.475 158.925 583.726 143.392Z" fill="#A0616A"/>
<path d="M617.344 230.579C616.639 233.249 611.149 234.627 609.867 238.056C605.786 240.385 607.997 221.361 606.353 220.111C605.081 219.16 604.74 221.457 604.451 219.481C603.362 212.067 596.237 213.723 590.96 212.527C590.362 211.362 589.903 210.23 589.604 209.13C589.07 207.143 586.634 206.449 585.192 207.912C584.541 207.335 584.071 205.295 583.611 203.255C583.28 201.77 582.949 200.286 582.565 199.346L578.89 191.057L580.076 197.231C577.672 196.365 575.248 197.263 573.848 194.293C572.054 190.48 571.338 186.015 572.641 182.009C573.827 178.378 575.824 171.103 578.078 165.079C575.525 166.927 572.46 168.273 568.903 168.946C570.163 166.553 571.445 164.117 571.979 161.458C572.502 158.798 572.182 155.839 570.494 153.724C569.106 151.983 567.055 152.421 565.324 151.022C563.978 149.932 562.814 147.144 562.002 145.617C565.463 157.121 568.08 169.341 563.679 180.322C560.635 187.927 554.226 194.112 546.535 196.921C550.626 193.994 554.621 190.875 557.687 186.901C560.966 182.639 563.102 177.256 562.451 171.915C561.425 163.53 545.873 137.007 543.961 131.795C545.008 136.89 544.602 140.864 541.846 143.053C541.13 135.662 533.076 136.334 528.686 133.376C528.686 133.376 525.289 114.181 533.258 114.063C537.103 114.01 541.13 104.973 544.623 103.36C550.199 100.786 553.617 102.538 559.802 102.73C565.976 102.912 571.904 105.571 575.675 110.453C577.651 113.006 578.377 110.976 581.347 112.568C584.167 114.074 586.068 112.675 589.262 112.771C595.66 112.942 601.866 116.36 605.455 121.647C609.044 126.945 611.255 126.454 609.835 134.647C609.813 134.743 609.813 134.935 609.835 135.224C610.615 148.127 608.617 161.063 603.501 172.941C601.92 176.594 609.652 180.364 609.642 184.925C609.631 190.223 601.097 195.052 601.888 197.316C604.152 208.222 616.874 205.797 613.872 224.052C613.627 225.537 617.814 228.795 617.344 230.579Z" fill="#2F2E41"/>
<path d="M539.418 197.178C539.653 197.104 539.888 197.018 540.123 196.922C539.824 197.136 539.535 197.338 539.236 197.552L539.418 197.178H539.418Z" fill="#2F2E41"/>
<path d="M579.04 107.185C575.981 107.64 572.872 102.563 574.609 95.5234C578.395 101.312 580.331 107.829 580.635 114.988L578.595 115.62L579.04 107.185Z" fill="#2368FF"/>
<path d="M594.674 100.613C592.586 108.012 581.982 112.964 580.109 110.389L579.895 114.801L578.584 113.115C582.387 107.459 587.571 103.121 594.674 100.613H594.674Z" fill="#2368FF"/>
<path d="M361.822 300.131C361.822 297.673 363.822 295.673 366.281 295.673H437.939C440.397 295.673 442.397 297.673 442.397 300.131C442.397 302.59 440.397 304.59 437.939 304.59H366.281C363.822 304.59 361.822 302.59 361.822 300.131Z" fill="#E6E7E8"/>
<path d="M361.822 330.039C361.822 327.581 363.822 325.581 366.281 325.581H437.939C440.397 325.581 442.397 327.581 442.397 330.039C442.397 332.498 440.397 334.498 437.939 334.498H366.281C363.822 334.498 361.822 332.498 361.822 330.039Z" fill="#E6E7E8"/>
<path d="M310.361 319.68C307.902 319.68 305.902 317.679 305.902 315.221C305.902 312.763 307.902 310.763 310.361 310.763H437.941C440.399 310.763 442.399 312.763 442.399 315.221C442.399 317.679 440.399 319.68 437.941 319.68H310.361Z" fill="#E6E7E8"/>
<path d="M300.881 277.008L292.09 272.844C295.695 277.876 298.802 285.735 300.466 291.988C303.282 286.163 307.822 279.036 312.316 274.778L303.025 277.168C308.75 249.11 330.283 228.966 354.942 228.966V226.83C329.185 226.83 306.726 247.817 300.881 277.008Z" fill="#3F3D56"/>
<path d="M341.343 319.76H285.798C283.442 319.76 281.525 317.843 281.525 315.488C281.525 313.132 283.442 311.215 285.798 311.215H341.343C343.699 311.215 345.615 313.132 345.615 315.488C345.615 317.843 343.699 319.76 341.343 319.76Z" fill="#2368FF"/>
<path d="M357.566 232.379C359.045 223.261 352.853 214.67 343.736 213.191C334.618 211.711 326.028 217.903 324.548 227.021C323.069 236.138 329.26 244.729 338.378 246.208C347.495 247.688 356.086 241.496 357.566 232.379Z" fill="#3F3D56"/>
<path d="M250.261 108.631C255.958 108.631 260.577 104.013 260.577 98.3157C260.577 92.6185 255.958 88 250.261 88C244.564 88 239.945 92.6185 239.945 98.3157C239.945 104.013 244.564 108.631 250.261 108.631Z" fill="#E6E7E8"/>
<path d="M370.964 287.015C376.661 287.015 381.28 282.397 381.28 276.699C381.28 271.002 376.661 266.384 370.964 266.384C365.267 266.384 360.648 271.002 360.648 276.699C360.648 282.397 365.267 287.015 370.964 287.015Z" fill="#E6E7E8"/>
<path d="M0 481H656.5" stroke="#D3D3D3" stroke-width="5"/>
</svg>
