<svg version="1.2" xmlns="http://www.w3.org/2000/svg" viewBox="0 0 30 30" width="30" height="30">
	<title>instagram-v3-svg</title>
	<defs>
		<radialGradient id="g1" cx="4" cy="30.1" r="39.2" gradientUnits="userSpaceOnUse">
			<stop offset=".1" stop-color="#fa8f21"/>
			<stop offset=".8" stop-color="#d82d7e"/>
		</radialGradient>
		<radialGradient id="g2" cx="18.2" cy="31.4" r="30.8" gradientUnits="userSpaceOnUse">
			<stop offset=".6" stop-color="#8c3aaa" stop-opacity="0"/>
			<stop offset="1" stop-color="#8c3aaa"/>
		</radialGradient>
	</defs>
	<style>
		.s0 { fill: url(#g1) } 
		.s1 { fill: url(#g2) } 
	</style>
	<g id="Folder 1">
		<path id="Layer" fill-rule="evenodd" class="s0" d="m15 0c4 0 4.6 0 6.2 0.1 1.6 0.1 2.7 0.3 3.6 0.7 1 0.3 1.9 0.9 2.7 1.7 0.8 0.8 1.4 1.6 1.7 2.7 0.4 0.9 0.6 2 0.7 3.6 0.1 1.6 0.1 2.2 0.1 6.2 0 4 0 4.6-0.1 6.2-0.1 1.6-0.3 2.7-0.7 3.6-0.3 1.1-0.9 1.9-1.7 2.7-0.8 0.8-1.7 1.4-2.7 1.7-0.9 0.4-2 0.6-3.6 0.7-1.6 0.1-2.2 0.1-6.2 0.1-4 0-4.6 0-6.2-0.1-1.6-0.1-2.7-0.3-3.6-0.7-1.1-0.3-1.9-0.9-2.7-1.7-0.8-0.8-1.4-1.6-1.7-2.7-0.4-0.9-0.6-2-0.7-3.6-0.1-1.6-0.1-2.2-0.1-6.2 0-4 0-4.6 0.1-6.2 0.1-1.6 0.3-2.7 0.7-3.6 0.3-1.1 0.9-1.9 1.7-2.7 0.8-0.8 1.6-1.4 2.7-1.7 0.9-0.4 2-0.6 3.6-0.7 1.6-0.1 2.2-0.1 6.2-0.1zm0 27.3c4 0 4.4 0 6.1-0.1 1.5-0.1 2.2-0.3 2.7-0.5 0.7-0.3 1.2-0.6 1.8-1.1 0.5-0.6 0.8-1.1 1.1-1.7 0.2-0.6 0.4-1.3 0.5-2.8 0.1-1.7 0.1-2.1 0.1-6.1 0-4 0-4.4-0.1-6.1-0.1-1.5-0.3-2.2-0.5-2.8-0.3-0.6-0.6-1.1-1.1-1.7-0.6-0.5-1.1-0.8-1.8-1.1-0.5-0.2-1.2-0.4-2.7-0.5-1.7-0.1-2.1-0.1-6.1-0.1-4 0-4.4 0-6.1 0.1-1.5 0.1-2.2 0.3-2.8 0.5-0.6 0.3-1.1 0.6-1.7 1.1-0.5 0.6-0.8 1.1-1.1 1.7-0.2 0.6-0.4 1.3-0.5 2.8-0.1 1.7-0.1 2.1-0.1 6.1 0 4 0 4.4 0.1 6.1 0.1 1.5 0.3 2.2 0.5 2.8 0.3 0.6 0.6 1.1 1.1 1.7 0.6 0.5 1.1 0.8 1.7 1.1 0.6 0.2 1.3 0.4 2.8 0.5 1.7 0.1 2.1 0.1 6.1 0.1zm6.7-21.6c0.3-0.3 0.9-0.5 1.3-0.5q0.6 0 1 0.3 0.4 0.3 0.6 0.8 0.2 0.5 0.1 1-0.1 0.6-0.4 1-0.4 0.4-0.9 0.5-0.5 0.1-1.1-0.1-0.5-0.2-0.8-0.7-0.3-0.4-0.3-1c0-0.5 0.2-0.9 0.5-1.3zm-6.7 17c-4.2 0-7.7-3.5-7.7-7.7 0-4.2 3.5-7.7 7.7-7.7 4.2 0 7.7 3.5 7.7 7.7 0 4.2-3.5 7.7-7.7 7.7zm5-7.7c0-2.7-2.3-5-5-5-2.7 0-5 2.3-5 5 0 2.7 2.3 5 5 5 2.7 0 5-2.3 5-5z"/>
		<path id="Layer" fill-rule="evenodd" class="s1" d="m15 0c4 0 4.6 0 6.2 0.1 1.6 0.1 2.7 0.3 3.6 0.7 1 0.3 1.9 0.9 2.7 1.7 0.8 0.8 1.4 1.6 1.7 2.7 0.4 0.9 0.6 2 0.7 3.6 0.1 1.6 0.1 2.2 0.1 6.2 0 4 0 4.6-0.1 6.2-0.1 1.6-0.3 2.7-0.7 3.6-0.3 1.1-0.9 1.9-1.7 2.7-0.8 0.8-1.7 1.4-2.7 1.7-0.9 0.4-2 0.6-3.6 0.7-1.6 0.1-2.2 0.1-6.2 0.1-4 0-4.6 0-6.2-0.1-1.6-0.1-2.7-0.3-3.6-0.7-1.1-0.3-1.9-0.9-2.7-1.7-0.8-0.8-1.4-1.6-1.7-2.7-0.4-0.9-0.6-2-0.7-3.6-0.1-1.6-0.1-2.2-0.1-6.2 0-4 0-4.6 0.1-6.2 0.1-1.6 0.3-2.7 0.7-3.6 0.3-1.1 0.9-1.9 1.7-2.7 0.8-0.8 1.6-1.4 2.7-1.7 0.9-0.4 2-0.6 3.6-0.7 1.6-0.1 2.2-0.1 6.2-0.1zm0 27.3c4 0 4.4 0 6.1-0.1 1.5-0.1 2.2-0.3 2.7-0.5 0.7-0.3 1.2-0.6 1.8-1.1 0.5-0.6 0.8-1.1 1.1-1.7 0.2-0.6 0.4-1.3 0.5-2.8 0.1-1.7 0.1-2.1 0.1-6.1 0-4 0-4.4-0.1-6.1-0.1-1.5-0.3-2.2-0.5-2.8-0.3-0.6-0.6-1.1-1.1-1.7-0.6-0.5-1.1-0.8-1.8-1.1-0.5-0.2-1.2-0.4-2.7-0.5-1.7-0.1-2.1-0.1-6.1-0.1-4 0-4.4 0-6.1 0.1-1.5 0.1-2.2 0.3-2.8 0.5-0.6 0.3-1.1 0.6-1.7 1.1-0.5 0.6-0.8 1.1-1.1 1.7-0.2 0.6-0.4 1.3-0.5 2.8-0.1 1.7-0.1 2.1-0.1 6.1 0 4 0 4.4 0.1 6.1 0.1 1.5 0.3 2.2 0.5 2.8 0.3 0.6 0.6 1.1 1.1 1.7 0.6 0.5 1.1 0.8 1.7 1.1 0.6 0.2 1.3 0.4 2.8 0.5 1.7 0.1 2.1 0.1 6.1 0.1zm6.7-21.6c0.3-0.3 0.9-0.5 1.3-0.5q0.6 0 1 0.3 0.4 0.3 0.6 0.8 0.2 0.5 0.1 1-0.1 0.6-0.4 1-0.4 0.4-0.9 0.5-0.5 0.1-1.1-0.1-0.5-0.2-0.8-0.7-0.3-0.4-0.3-1c0-0.5 0.2-0.9 0.5-1.3zm-6.7 17c-4.2 0-7.7-3.5-7.7-7.7 0-4.2 3.5-7.7 7.7-7.7 4.2 0 7.7 3.5 7.7 7.7 0 4.2-3.5 7.7-7.7 7.7zm5-7.7c0-2.7-2.3-5-5-5-2.7 0-5 2.3-5 5 0 2.7 2.3 5 5 5 2.7 0 5-2.3 5-5z"/>
	</g>
</svg>