<svg version="1.2" xmlns="http://www.w3.org/2000/svg" viewBox="0 0 30 30" width="30" height="30">
	<title>linkedin-v4-svg</title>
	<style>
		.s0 { fill: #0e76a8 } 
	</style>
	<path id="Layer" fill-rule="evenodd" class="s0" d="m0 6c0-3.3 2.7-6 6-6h18c3.3 0 6 2.7 6 6v18c0 3.3-2.7 6-6 6h-18c-3.3 0-6-2.7-6-6zm6.2 17.8h3.8v-13.8h-3.8zm4.1-17.5c0-1.3-1-2.2-2.2-2.2-1.2 0-2.2 0.9-2.2 2.2 0 1.2 1 2.2 2.2 2.2 1.2 0 2.2-1 2.2-2.2zm14.7 9.1c0-6.6-7-6.4-8.7-3.2v-2.1h-3.8v13.7h3.8v-7c0-3.9 4.9-4.2 4.9 0v7h3.8z"/>
</svg>