<svg width="489" height="371" viewBox="0 0 489 371" fill="none" xmlns="http://www.w3.org/2000/svg">
<path d="M452.115 337.199C436.119 349.381 416.63 361.721 397.469 367.54C391.945 369.267 386.245 370.37 380.476 370.827C375.082 371.261 369.653 370.839 364.391 369.579C350.562 366.139 337.736 360.116 325.325 353.078C321.27 350.775 317.262 348.367 313.278 345.906C306.773 341.886 300.334 337.726 293.876 333.665C292.909 333.05 291.948 332.447 290.982 331.849H290.976C289.417 330.87 287.855 329.905 286.288 328.954C286.013 328.784 285.737 328.62 285.456 328.45C282.497 326.657 279.487 324.905 276.426 323.194C276.051 322.989 275.676 322.778 275.301 322.573C269.38 319.288 263.293 316.31 257.066 313.649C252.976 311.926 248.833 310.373 244.65 309.049H244.644C243.044 308.545 241.439 308.071 239.827 307.637C234.995 306.311 230.071 305.348 225.096 304.754C218.24 303.924 211.306 303.979 204.464 304.918C204.002 304.983 203.544 305.047 203.082 305.123C184.565 308.088 167.666 318.085 149.068 320.44C148.464 320.516 147.866 320.587 147.263 320.639C147.005 320.663 146.747 320.692 146.489 320.71C141.085 321.172 135.645 321.039 130.27 320.311C115.252 318.331 100.626 312.184 87.4595 304.438C56.6789 286.326 31.717 258.486 16.5405 226.247C13.9344 220.722 11.6206 215.063 9.60864 209.295C3.98336 193.3 0.885497 176.526 0.426592 159.576C-0.997296 100.769 32.4201 41.7686 84.8871 15.1718C137.36 -11.425 206.386 -2.62968 248.705 38.2294C274.376 63.0156 289.23 96.6029 308.549 126.61C327.868 156.611 355.326 185.271 390.742 189.642C408.784 191.869 427.663 187.562 444.955 193.163C454.53 196.269 462.698 202.211 469.278 209.781C473.702 214.919 477.404 220.636 480.283 226.774C482.392 231.212 484.104 235.828 485.398 240.568C485.638 241.441 485.861 242.314 486.078 243.187C494.691 278.368 480.927 315.249 452.115 337.199Z" fill="#D3D3D3"/>
<path d="M163.962 273.511H108.881C100.629 273.511 93.9395 280.201 93.9395 288.453V288.453C93.9395 296.705 100.629 303.395 108.881 303.395H163.962C172.214 303.395 178.904 296.705 178.904 288.453C178.904 280.201 172.214 273.511 163.962 273.511Z" fill="#3F3D56"/>
<path d="M147.262 295.777V320.64C141.604 321.187 135.902 321.077 130.27 320.312V295.777H147.262Z" fill="#3F3D56"/>
<path d="M204.465 304.919C204.002 304.983 203.545 305.048 203.082 305.124C184.566 308.089 167.667 318.085 149.068 320.441C148.465 320.517 147.867 320.587 147.263 320.64C147.005 320.663 146.748 320.693 146.49 320.71C141.949 316.263 137.407 311.528 133.142 306.624C130.827 303.969 128.589 301.262 126.485 298.52C121.024 291.441 116.395 284.164 113.336 277.015C113.647 273.587 111.514 265.659 110.494 259.589L110.488 259.583C110.055 257.034 109.82 254.819 110.037 253.395C111.279 245.18 117.989 246.123 120.051 238.072C121.912 236.528 123.893 235.135 125.975 233.906C126.321 233.701 126.673 233.496 127.036 233.291L149.42 217.821L157.975 226.212L170.995 238.986L185.105 252.821L173.128 264.921C173.128 264.921 183.136 276.458 194.838 291.84C197.978 295.971 201.242 300.383 204.465 304.919Z" fill="#2F2E41"/>
<path d="M397.468 295.777V367.54C391.944 369.267 386.244 370.37 380.475 370.827V295.777H397.468Z" fill="#3F3D56"/>
<path d="M419.442 289.917H364.362C356.11 289.917 349.42 296.607 349.42 304.859V304.859C349.42 313.111 356.11 319.801 364.362 319.801H419.442C427.695 319.801 434.384 313.111 434.384 304.859C434.384 296.607 427.695 289.917 419.442 289.917Z" fill="#3F3D56"/>
<path d="M285.456 328.451C282.496 326.658 279.486 324.905 276.426 323.194C276.051 322.989 275.676 322.778 275.301 322.573L277.316 321.712L282.754 319.374L282.807 319.351L282.866 319.55L285.456 328.451Z" fill="#FFB6B6"/>
<path d="M293.876 333.665C292.909 333.05 291.948 332.446 290.982 331.849H290.976C289.417 330.87 287.855 329.905 286.288 328.954C286.013 328.784 285.737 328.62 285.456 328.45C282.497 326.657 279.487 324.905 276.426 323.194C276.051 322.989 275.676 322.778 275.301 322.573C269.38 319.288 263.293 316.31 257.066 313.649C252.976 311.926 248.833 310.373 244.65 309.049H244.644L241.356 303.547L226.561 278.766L223.309 273.323C223.309 273.323 212.217 276.604 196.519 279.751C190.806 280.899 184.489 282.024 177.862 282.974C170.777 283.981 163.347 284.784 155.964 285.171C152.443 285.359 148.933 285.452 145.475 285.423C136.54 285.364 127.955 284.526 120.437 282.534C117.929 280.179 110.371 276.973 104.956 274.038H104.95C102.677 272.807 100.79 271.629 99.7998 270.581C94.0925 264.545 98.9677 259.84 93.8933 253.254C93.825 250.837 93.9484 248.42 94.2624 246.023C94.3152 245.624 94.3679 245.22 94.4323 244.81L96.032 217.645L107.915 216.074L125.998 213.684L145.587 211.094L147.743 227.981C147.743 227.981 162.996 227.208 182.321 227.466C213.359 227.887 254.892 230.981 260.517 244.259C261.045 245.507 261.572 246.767 262.1 248.027C263.353 251.039 264.596 254.066 265.826 257.109C270.285 268.125 274.54 279.247 278.424 289.759C280.839 296.298 283.112 302.603 285.204 308.504C286.886 313.25 288.444 317.739 289.868 321.87C291.169 325.643 292.347 329.118 293.396 332.235C293.56 332.722 293.718 333.202 293.876 333.665Z" fill="#2F2E41"/>
<path d="M184.563 169.076L147.029 137.198L171.449 112.484L188.486 140.39L251.638 152.91C253.536 151.481 255.81 150.635 258.181 150.476C260.553 150.317 262.919 150.851 264.992 152.013C267.065 153.176 268.755 154.916 269.855 157.022C270.956 159.128 271.421 161.509 271.192 163.875C270.963 166.24 270.05 168.488 268.566 170.344C267.082 172.2 265.089 173.584 262.832 174.327C260.574 175.071 258.15 175.141 255.853 174.53C253.556 173.919 251.487 172.653 249.898 170.886L184.563 169.076Z" fill="#A0616A"/>
<path d="M113.856 95.305C109.519 109.417 150.83 143.073 150.83 143.073C151.289 139.685 174.712 168.898 176.305 166.252C180.834 158.733 185.817 140.147 191.046 137.771C194.036 136.413 176.883 117.53 176.883 117.53C176.883 117.53 168.133 105.954 156.58 91.2822C153.391 87.0737 149.189 83.7406 144.365 81.5931C139.541 79.4455 134.252 78.5534 128.991 78.9997C128.991 78.9997 118.194 81.1935 113.856 95.305Z" fill="#3F3D56"/>
<path d="M132.123 64.0654C146.143 64.0654 157.509 52.6996 157.509 38.6792C157.509 24.6588 146.143 13.293 132.123 13.293C118.102 13.293 106.736 24.6588 106.736 38.6792C106.736 52.6996 118.102 64.0654 132.123 64.0654Z" fill="#A0616A"/>
<path d="M144.815 80.8443C150.284 84.0957 153.556 90.0697 155.434 96.1488C158.911 107.404 161.004 119.04 161.666 130.801L163.65 166.011L188.217 240.983C166.926 258.999 86.8933 245.078 86.8933 245.078C86.8933 245.078 84.4366 244.259 86.8933 241.802C89.35 239.345 91.7417 241.522 89.285 239.065C86.8283 236.608 88.5218 239.345 89.3408 236.889C90.1597 234.432 89.3408 236.07 88.5219 235.251C87.7029 234.432 94.8614 227.062 94.8614 227.062L88.3102 184.027L80.1211 97.2224C89.9481 84.9388 109.711 77.6977 109.711 77.6977L114.818 68.5059L140.351 70.5485L144.815 80.8443Z" fill="#3F3D56"/>
<path d="M153.048 25.191C155.021 26.6626 156.483 28.716 157.228 31.062C157.514 27.2281 157.532 23.3788 157.282 19.5424C156.983 16.8464 155.085 16.24 152.887 15.5374C150.903 14.9026 148.658 14.1854 148.054 11.5683C140.074 3.80526 126.183 4.19672 116.676 6.9046C111.444 8.3947 108.434 10.3092 108.165 11.4307L108.109 11.6616L107.897 11.7678C103.864 13.784 103.079 20.1507 103.131 25.1366C103.229 34.5304 106.473 45.1994 108.3 46.066C108.397 46.1119 108.421 46.094 108.463 46.0591C111.214 43.8603 114.571 46.2262 116.046 47.5123C116.916 41.6739 119.718 36.2954 124.003 32.2359C128.288 28.1765 133.811 25.6701 139.688 25.1172C141.607 24.9317 143.511 24.6125 145.386 24.1618C146.337 23.9157 147.314 23.7874 148.296 23.7798C149.987 23.7541 151.646 24.2465 153.048 25.191Z" fill="#2F2E41"/>
<path d="M121.061 207.323L113.296 203.346C112.879 203.05 112.584 202.613 112.463 202.117C112.342 201.621 112.403 201.097 112.636 200.643C112.869 200.188 113.258 199.832 113.731 199.64C114.205 199.448 114.732 199.433 115.215 199.598L122.981 203.575C123.397 203.871 123.693 204.307 123.814 204.804C123.935 205.3 123.873 205.823 123.64 206.278C123.407 206.733 123.019 207.089 122.545 207.281C122.072 207.472 121.545 207.488 121.061 207.323L121.061 207.323Z" fill="#2368FF"/>
<path d="M94.927 196.668L82.1523 149.11L116.29 142.647L114.454 175.291L159.308 221.475C161.682 221.378 164.034 221.974 166.075 223.191C168.117 224.407 169.761 226.191 170.806 228.325C171.852 230.459 172.253 232.852 171.962 235.211C171.672 237.569 170.701 239.792 169.168 241.609C167.636 243.425 165.608 244.757 163.332 245.441C161.056 246.124 158.63 246.131 156.35 245.46C154.07 244.789 152.035 243.469 150.492 241.662C148.949 239.854 147.966 237.636 147.662 235.279L94.927 196.668Z" fill="#A0616A"/>
<path d="M78.6596 95.7884C67.0722 104.936 81.9447 156.104 81.9447 156.104C84.2473 153.577 86.9231 190.925 89.7376 189.654C97.7368 186.039 112.398 173.576 118.051 174.592C121.283 175.173 117.896 149.888 117.896 149.888C117.896 149.888 117.274 135.39 116.103 116.753C115.87 111.478 114.305 106.347 111.556 101.839C108.807 97.3313 104.961 93.5921 100.378 90.9699C100.378 90.9699 90.2471 86.6407 78.6596 95.7884Z" fill="#3F3D56"/>
<path d="M480.283 226.774L16.5413 226.247C13.9352 220.722 11.6213 215.063 9.60938 209.295L469.279 209.781C473.703 214.919 477.405 220.636 480.283 226.774Z" fill="#3F3D56"/>
<path d="M332.579 349.721C330.182 350.881 327.764 352 325.325 353.079C321.27 350.776 317.262 348.368 313.277 345.906L328.055 339.414L332.579 349.721Z" fill="#FFB6B6"/>
<path d="M440.327 268.976C437.924 272.199 435.446 275.357 432.891 278.451C430.535 281.305 428.117 284.104 425.637 286.848C424.611 287.985 423.574 289.116 422.513 290.235C420.562 292.327 418.568 294.383 416.531 296.405C412.863 297.559 405.433 299.593 397.469 301.491C391.674 302.868 385.598 304.175 380.477 305.007C377.61 305.522 374.71 305.831 371.798 305.933C368.341 305.962 364.831 305.868 361.31 305.681C357.337 305.47 353.358 305.142 349.426 304.72C339.201 303.648 329.299 301.978 320.755 300.261C317.626 299.64 314.685 299.007 311.978 298.391C306.85 297.237 302.561 296.159 299.456 295.339C295.957 294.424 293.965 293.833 293.965 293.833L285.205 308.505L280.658 316.117L277.318 321.713L276.427 323.195C276.052 322.99 275.677 322.779 275.302 322.574C269.381 319.289 263.294 316.311 257.067 313.65C252.977 311.927 248.834 310.374 244.651 309.05H244.645C243.045 308.546 241.44 308.072 239.828 307.638C240.332 306.284 240.842 304.921 241.358 303.548C242.318 300.987 243.299 298.403 244.299 295.796C246.461 290.147 248.7 284.416 251.002 278.715C252.889 274.033 254.811 269.369 256.757 264.769C257.653 262.648 259.475 260.784 262.024 259.15C263.243 258.381 264.513 257.7 265.827 257.11C273.123 253.788 283.869 251.626 295.711 250.237C296.69 250.126 297.674 250.014 298.665 249.909C308.468 248.878 318.869 248.344 328.596 248.098C333.465 247.975 338.164 247.928 342.536 247.923C343.948 247.923 345.321 247.927 346.655 247.934H346.661C350.264 247.952 353.581 248.005 356.499 248.063C357.067 248.075 357.618 248.093 358.157 248.104H358.163C358.527 248.11 358.884 248.122 359.236 248.128C365.617 248.292 369.531 248.491 369.531 248.491L371.049 236.584L371.359 234.182L371.652 231.897V231.891L371.687 231.604L371.927 231.598L376.146 231.516L411.609 230.824L430.981 230.443L427.91 243.604L422.842 265.32C423.357 268.754 440.503 266.064 440.327 268.976Z" fill="#2F2E41"/>
<path d="M336.95 347.553C335.503 348.291 334.044 349.018 332.579 349.721C330.182 350.881 327.764 352 325.325 353.078C321.27 350.775 317.262 348.367 313.277 345.906C306.773 341.886 300.333 337.726 293.876 333.665C292.909 333.05 291.948 332.447 290.981 331.849H290.976C288.315 327.899 285.602 323.786 282.866 319.55C282.825 319.491 282.79 319.432 282.755 319.374C282.051 318.296 281.352 317.21 280.657 316.116C276.28 309.26 271.879 302.111 267.607 294.81L278.424 289.759L298.534 280.372L302.003 278.755L311.976 298.39L320.871 315.905L322.852 319.801L336.95 347.553Z" fill="#2F2E41"/>
<path d="M339.982 253.282L391.254 203.836L405.465 163.598L384.503 154.483C373.736 164.797 362.098 196.921 362.098 196.921L326.816 241.808C326.541 241.903 326.266 242.003 325.996 242.122C324.406 242.823 323.025 243.922 321.985 245.313C320.944 246.703 320.28 248.339 320.057 250.061C319.833 251.783 320.058 253.534 320.708 255.145C321.359 256.755 322.415 258.17 323.772 259.253C325.13 260.336 326.744 261.051 328.458 261.328C330.173 261.605 331.93 261.435 333.56 260.835C335.189 260.235 336.637 259.224 337.762 257.901C338.887 256.578 339.651 254.987 339.982 253.282Z" fill="#FFB8B8"/>
<path d="M378.605 158.976L405.194 167.417L405.294 167.401C415.19 165.743 423.402 149.58 428.548 136.313C430.241 131.937 430.209 127.081 428.459 122.728C426.709 118.374 423.372 114.847 419.121 112.86C415.975 111.416 412.488 110.88 409.054 111.313C405.62 111.746 402.376 113.131 399.688 115.312L386.034 126.468L378.605 158.976Z" fill="#2368FF"/>
<path d="M440.219 269.569L440.375 269.363C448.67 258.361 437.324 231.115 435.609 227.164L443.322 224.879L441.978 210.192L441.33 203.644L447.328 197.948L447.348 197.803L451.472 168.451L456.869 149.024C458.903 141.68 458.946 133.926 456.993 126.56C455.041 119.194 451.163 112.48 445.759 107.107L434.726 96.1539L421.509 75.4657L399.349 74.8936L391.38 89.0498C383.969 90.5622 377.324 94.6265 372.601 100.535C367.879 106.443 365.379 113.82 365.537 121.382L366.287 159.069L358.336 205.762L358.113 214.244L350.308 222.48L351.751 230.806L345.913 233.132L343.056 244.963C341.965 246.328 334.761 255.434 334.696 257.973C334.686 258.354 334.958 258.729 335.551 259.154C340.214 262.49 366.277 269.719 378.007 265.373C390.502 260.748 439.471 269.435 439.965 269.523L440.219 269.569Z" fill="#D3D3D3"/>
<path d="M408.492 68.5506C424.706 68.5506 437.85 55.4062 437.85 39.1918C437.85 22.9774 424.706 9.83301 408.492 9.83301C392.277 9.83301 379.133 22.9774 379.133 39.1918C379.133 55.4062 392.277 68.5506 408.492 68.5506Z" fill="#FFB8B8"/>
<path d="M404.912 68.9432C409.459 69.0141 414.003 68.6965 418.495 67.9939C422.948 67.0884 432.909 59.7886 435.686 55.3959C437.75 52.1321 439.069 47.0356 439.812 43.335C440.814 38.438 440.776 33.3853 439.7 28.5041C438.625 23.6228 436.536 19.0218 433.57 14.999C432.43 13.3164 430.856 11.9732 429.015 11.1115C428.852 11.0477 428.684 10.9912 428.514 10.9429C425.832 10.2371 423.422 8.7457 421.593 6.66015C421.238 6.23832 420.854 5.84258 420.442 5.476C418.376 3.73182 415.925 2.50152 413.292 1.88565C409.042 0.748059 402.89 1.87727 395.009 5.24516C391.05 6.93726 386.719 6.32489 383.388 5.60228C383.201 5.56619 383.008 5.57965 382.828 5.64133C382.648 5.70302 382.487 5.81077 382.362 5.95386C380.945 7.28441 379.076 8.02919 377.132 8.03851C375.942 8.0908 374.692 9.73942 373.182 11.8893C372.84 12.3773 372.44 12.9469 372.152 13.2933L372.113 12.6277L371.439 13.3702C370.381 14.5372 369.635 15.9531 369.27 17.486C368.906 19.019 368.936 20.6192 369.357 22.1376C369.777 23.656 370.576 25.0432 371.677 26.1701C372.778 27.297 374.147 28.1268 375.655 28.5824C376.853 28.9011 378.08 29.0966 379.317 29.166C380.067 29.2335 380.842 29.3032 381.585 29.4321C383.97 29.9205 386.187 31.0188 388.021 32.6199C389.854 34.221 391.241 36.2702 392.046 38.5674C392.237 39.0984 392.546 39.5785 392.952 39.9707C393.357 40.3629 393.847 40.6568 394.384 40.8295C394.921 41.0022 395.491 41.0492 396.049 40.9669C396.607 40.8846 397.139 40.6751 397.603 40.3547C398.377 39.752 399.285 39.3455 400.25 39.1697C401.215 38.994 402.209 39.0543 403.145 39.3455C403.955 39.7956 404.585 40.5104 404.93 41.37C405.35 42.3276 406.045 43.1386 406.927 43.6995C409.945 45.2553 410.153 52.1474 409.069 57.8928C408.024 63.4309 405.959 67.4371 404.047 67.6352C402.575 67.7875 402.407 67.892 402.3 68.1523L402.205 68.3854L402.37 68.6034C403.183 68.8981 404.05 69.014 404.912 68.9432Z" fill="#2F2E41"/>
<path d="M385.895 150.1L374.575 127.531C358.144 128.654 325.533 147.652 325.533 147.652L263.832 160.734C262.004 160.031 260.024 159.822 258.09 160.128C256.155 160.435 254.336 161.245 252.815 162.478C251.293 163.711 250.123 165.323 249.423 167.151C248.723 168.98 248.516 170.961 248.825 172.895C249.133 174.828 249.946 176.647 251.18 178.167C252.415 179.687 254.028 180.854 255.858 181.553C257.687 182.251 259.669 182.455 261.602 182.144C263.535 181.833 265.353 181.019 266.871 179.782L345.359 174.156L385.895 150.1Z" fill="#FFB8B8"/>
<path d="M381.329 153.805L410.893 131.835L416.1 113.068C417.109 109.38 417.067 105.484 415.977 101.819C414.888 98.1538 412.795 94.8666 409.935 92.3286C406.036 88.9143 400.985 87.1082 395.805 87.2753C390.624 87.4424 385.701 89.5704 382.029 93.229C370.904 104.334 358.215 119.826 360.941 130.568L360.968 130.677L381.329 153.805Z" fill="#D3D3D3"/>
<path d="M344.816 212.88H265.711V223.427H344.816V212.88Z" fill="#9B9DA0"/>
<path d="M142.576 212.571H63.4707V223.119H142.576V212.571Z" fill="#9B9DA0"/>
<path d="M151.814 161.849V212.069C151.815 212.709 152.069 213.322 152.522 213.775C152.974 214.227 153.588 214.482 154.228 214.482H228.648C229.288 214.482 229.901 214.227 230.354 213.775C230.807 213.322 231.061 212.709 231.061 212.069V161.849C231.06 161.21 230.805 160.597 230.353 160.145C229.9 159.693 229.287 159.439 228.648 159.438H154.228C153.589 159.439 152.976 159.693 152.523 160.145C152.071 160.597 151.816 161.21 151.814 161.849Z" fill="#3F3D56"/>
<path d="M153.559 162.474V211.449C153.559 211.791 153.695 212.119 153.937 212.361C154.179 212.602 154.507 212.739 154.849 212.739H228.027C228.369 212.739 228.696 212.602 228.938 212.361C229.18 212.119 229.316 211.791 229.317 211.449V162.474C229.317 162.132 229.181 161.804 228.939 161.561C228.697 161.319 228.369 161.182 228.027 161.182H154.849C154.506 161.182 154.178 161.319 153.936 161.561C153.694 161.804 153.559 162.132 153.559 162.474Z" fill="#2368FF"/>
<path d="M150.255 221.862C150.392 222.033 150.565 222.171 150.762 222.265C150.96 222.359 151.176 222.408 151.394 222.407H231.08C231.298 222.406 231.513 222.357 231.71 222.264C231.907 222.17 232.08 222.033 232.217 221.864C232.355 221.695 232.452 221.497 232.504 221.285C232.555 221.073 232.558 220.853 232.514 220.639L231.277 214.764C231.225 214.524 231.115 214.301 230.956 214.115C230.796 213.929 230.593 213.786 230.364 213.699C230.198 213.634 230.021 213.6 229.843 213.601H152.626C152.448 213.6 152.272 213.634 152.106 213.699C151.877 213.786 151.674 213.929 151.514 214.115C151.355 214.301 151.244 214.524 151.193 214.764L149.956 220.639C149.912 220.853 149.916 221.073 149.968 221.284C150.02 221.496 150.118 221.693 150.255 221.862Z" fill="#2F2E41"/>
<path d="M227.111 216.133H228.993C229.151 216.133 229.279 216.005 229.279 215.847V214.946C229.279 214.788 229.151 214.66 228.993 214.66H227.111C226.953 214.66 226.825 214.788 226.825 214.946V215.847C226.825 216.005 226.953 216.133 227.111 216.133Z" fill="#3F3D56"/>
<path d="M222.201 216.133H224.083C224.241 216.133 224.369 216.005 224.369 215.847V214.946C224.369 214.788 224.241 214.66 224.083 214.66H222.201C222.043 214.66 221.915 214.788 221.915 214.946V215.847C221.915 216.005 222.043 216.133 222.201 216.133Z" fill="#3F3D56"/>
<path d="M217.293 216.133H219.175C219.333 216.133 219.461 216.005 219.461 215.847V214.946C219.461 214.788 219.333 214.66 219.175 214.66H217.293C217.135 214.66 217.007 214.788 217.007 214.946V215.847C217.007 216.005 217.135 216.133 217.293 216.133Z" fill="#3F3D56"/>
<path d="M212.383 216.133H214.265C214.423 216.133 214.551 216.005 214.551 215.847V214.946C214.551 214.788 214.423 214.66 214.265 214.66H212.383C212.225 214.66 212.096 214.788 212.096 214.946V215.847C212.096 216.005 212.225 216.133 212.383 216.133Z" fill="#3F3D56"/>
<path d="M207.474 216.133H209.357C209.515 216.133 209.643 216.005 209.643 215.847V214.946C209.643 214.788 209.515 214.66 209.357 214.66H207.474C207.316 214.66 207.188 214.788 207.188 214.946V215.847C207.188 216.005 207.316 216.133 207.474 216.133Z" fill="#3F3D56"/>
<path d="M202.566 216.133H204.448C204.606 216.133 204.734 216.005 204.734 215.847V214.946C204.734 214.788 204.606 214.66 204.448 214.66H202.566C202.408 214.66 202.28 214.788 202.28 214.946V215.847C202.28 216.005 202.408 216.133 202.566 216.133Z" fill="#3F3D56"/>
<path d="M197.658 216.133H199.54C199.698 216.133 199.826 216.005 199.826 215.847V214.946C199.826 214.788 199.698 214.66 199.54 214.66H197.658C197.5 214.66 197.372 214.788 197.372 214.946V215.847C197.372 216.005 197.5 216.133 197.658 216.133Z" fill="#3F3D56"/>
<path d="M192.75 216.133H194.632C194.79 216.133 194.918 216.005 194.918 215.847V214.946C194.918 214.788 194.79 214.66 194.632 214.66H192.75C192.592 214.66 192.464 214.788 192.464 214.946V215.847C192.464 216.005 192.592 216.133 192.75 216.133Z" fill="#3F3D56"/>
<path d="M187.842 216.133H189.724C189.882 216.133 190.01 216.005 190.01 215.847V214.946C190.01 214.788 189.882 214.66 189.724 214.66H187.842C187.684 214.66 187.555 214.788 187.555 214.946V215.847C187.555 216.005 187.684 216.133 187.842 216.133Z" fill="#3F3D56"/>
<path d="M182.931 216.133H184.814C184.972 216.133 185.1 216.005 185.1 215.847V214.946C185.1 214.788 184.972 214.66 184.814 214.66H182.931C182.773 214.66 182.645 214.788 182.645 214.946V215.847C182.645 216.005 182.773 216.133 182.931 216.133Z" fill="#3F3D56"/>
<path d="M178.023 216.133H179.905C180.063 216.133 180.191 216.005 180.191 215.847V214.946C180.191 214.788 180.063 214.66 179.905 214.66H178.023C177.865 214.66 177.737 214.788 177.737 214.946V215.847C177.737 216.005 177.865 216.133 178.023 216.133Z" fill="#3F3D56"/>
<path d="M173.117 216.133H174.999C175.157 216.133 175.285 216.005 175.285 215.847V214.946C175.285 214.788 175.157 214.66 174.999 214.66H173.117C172.959 214.66 172.831 214.788 172.831 214.946V215.847C172.831 216.005 172.959 216.133 173.117 216.133Z" fill="#3F3D56"/>
<path d="M168.207 216.133H170.089C170.247 216.133 170.375 216.005 170.375 215.847V214.946C170.375 214.788 170.247 214.66 170.089 214.66H168.207C168.049 214.66 167.921 214.788 167.921 214.946V215.847C167.921 216.005 168.049 216.133 168.207 216.133Z" fill="#3F3D56"/>
<path d="M163.297 216.133H165.179C165.337 216.133 165.465 216.005 165.465 215.847V214.946C165.465 214.788 165.337 214.66 165.179 214.66H163.297C163.139 214.66 163.011 214.788 163.011 214.946V215.847C163.011 216.005 163.139 216.133 163.297 216.133Z" fill="#3F3D56"/>
<path d="M158.39 216.133H160.273C160.431 216.133 160.559 216.005 160.559 215.847V214.946C160.559 214.788 160.431 214.66 160.273 214.66H158.39C158.232 214.66 158.104 214.788 158.104 214.946V215.847C158.104 216.005 158.232 216.133 158.39 216.133Z" fill="#3F3D56"/>
<path d="M153.48 216.133H155.362C155.52 216.133 155.648 216.005 155.648 215.847V214.946C155.648 214.788 155.52 214.66 155.362 214.66H153.48C153.322 214.66 153.194 214.788 153.194 214.946V215.847C153.194 216.005 153.322 216.133 153.48 216.133Z" fill="#3F3D56"/>
<path d="M227.168 218.586H229.05C229.208 218.586 229.336 218.458 229.336 218.3V217.399C229.336 217.241 229.208 217.113 229.05 217.113H227.168C227.01 217.113 226.882 217.241 226.882 217.399V218.3C226.882 218.458 227.01 218.586 227.168 218.586Z" fill="#3F3D56"/>
<path d="M222.259 218.586H224.142C224.3 218.586 224.428 218.458 224.428 218.3V217.399C224.428 217.241 224.3 217.113 224.142 217.113H222.259C222.102 217.113 221.973 217.241 221.973 217.399V218.3C221.973 218.458 222.102 218.586 222.259 218.586Z" fill="#3F3D56"/>
<path d="M217.349 218.586H219.231C219.389 218.586 219.518 218.458 219.518 218.3V217.399C219.518 217.241 219.389 217.113 219.231 217.113H217.349C217.191 217.113 217.063 217.241 217.063 217.399V218.3C217.063 218.458 217.191 218.586 217.349 218.586Z" fill="#3F3D56"/>
<path d="M212.441 218.586H214.323C214.481 218.586 214.609 218.458 214.609 218.3V217.399C214.609 217.241 214.481 217.113 214.323 217.113H212.441C212.283 217.113 212.155 217.241 212.155 217.399V218.3C212.155 218.458 212.283 218.586 212.441 218.586Z" fill="#3F3D56"/>
<path d="M207.535 218.586H209.417C209.575 218.586 209.703 218.458 209.703 218.3V217.399C209.703 217.241 209.575 217.113 209.417 217.113H207.535C207.377 217.113 207.249 217.241 207.249 217.399V218.3C207.249 218.458 207.377 218.586 207.535 218.586Z" fill="#3F3D56"/>
<path d="M202.625 218.586H204.507C204.665 218.586 204.793 218.458 204.793 218.3V217.399C204.793 217.241 204.665 217.113 204.507 217.113H202.625C202.467 217.113 202.339 217.241 202.339 217.399V218.3C202.339 218.458 202.467 218.586 202.625 218.586Z" fill="#3F3D56"/>
<path d="M197.715 218.586H199.597C199.755 218.586 199.883 218.458 199.883 218.3V217.399C199.883 217.241 199.755 217.113 199.597 217.113H197.715C197.557 217.113 197.429 217.241 197.429 217.399V218.3C197.429 218.458 197.557 218.586 197.715 218.586Z" fill="#3F3D56"/>
<path d="M192.808 218.586H194.691C194.848 218.586 194.977 218.458 194.977 218.3V217.399C194.977 217.241 194.848 217.113 194.691 217.113H192.808C192.65 217.113 192.522 217.241 192.522 217.399V218.3C192.522 218.458 192.65 218.586 192.808 218.586Z" fill="#3F3D56"/>
<path d="M187.898 218.586H189.78C189.938 218.586 190.066 218.458 190.066 218.3V217.399C190.066 217.241 189.938 217.113 189.78 217.113H187.898C187.74 217.113 187.612 217.241 187.612 217.399V218.3C187.612 218.458 187.74 218.586 187.898 218.586Z" fill="#3F3D56"/>
<path d="M182.99 218.586H184.872C185.03 218.586 185.158 218.458 185.158 218.3V217.399C185.158 217.241 185.03 217.113 184.872 217.113H182.99C182.832 217.113 182.704 217.241 182.704 217.399V218.3C182.704 218.458 182.832 218.586 182.99 218.586Z" fill="#3F3D56"/>
<path d="M178.082 218.586H179.964C180.122 218.586 180.25 218.458 180.25 218.3V217.399C180.25 217.241 180.122 217.113 179.964 217.113H178.082C177.924 217.113 177.796 217.241 177.796 217.399V218.3C177.796 218.458 177.924 218.586 178.082 218.586Z" fill="#3F3D56"/>
<path d="M173.176 218.586H175.058C175.216 218.586 175.344 218.458 175.344 218.3V217.399C175.344 217.241 175.216 217.113 175.058 217.113H173.176C173.018 217.113 172.889 217.241 172.889 217.399V218.3C172.889 218.458 173.018 218.586 173.176 218.586Z" fill="#3F3D56"/>
<path d="M168.265 218.586H170.148C170.306 218.586 170.434 218.458 170.434 218.3V217.399C170.434 217.241 170.306 217.113 170.148 217.113H168.265C168.107 217.113 167.979 217.241 167.979 217.399V218.3C167.979 218.458 168.107 218.586 168.265 218.586Z" fill="#3F3D56"/>
<path d="M163.355 218.586H165.237C165.395 218.586 165.523 218.458 165.523 218.3V217.399C165.523 217.241 165.395 217.113 165.237 217.113H163.355C163.197 217.113 163.069 217.241 163.069 217.399V218.3C163.069 218.458 163.197 218.586 163.355 218.586Z" fill="#3F3D56"/>
<path d="M158.447 218.586H160.329C160.487 218.586 160.615 218.458 160.615 218.3V217.399C160.615 217.241 160.487 217.113 160.329 217.113H158.447C158.289 217.113 158.161 217.241 158.161 217.399V218.3C158.161 218.458 158.289 218.586 158.447 218.586Z" fill="#3F3D56"/>
<path d="M153.539 218.586H155.421C155.579 218.586 155.707 218.458 155.707 218.3V217.399C155.707 217.241 155.579 217.113 155.421 217.113H153.539C153.381 217.113 153.253 217.241 153.253 217.399V218.3C153.253 218.458 153.381 218.586 153.539 218.586Z" fill="#3F3D56"/>
<path d="M186.427 221.531H205.489C205.647 221.531 205.775 221.403 205.775 221.245V220.345C205.775 220.187 205.647 220.059 205.489 220.059H186.427C186.269 220.059 186.141 220.187 186.141 220.345V221.245C186.141 221.403 186.269 221.531 186.427 221.531Z" fill="#3F3D56"/>
</svg>
