<svg width="34" height="34" viewBox="0 0 34 34" fill="none" xmlns="http://www.w3.org/2000/svg">
<path fill-rule="evenodd" clip-rule="evenodd" d="M4.2687 12.965C4.25 13.7285 4.25 14.5952 4.25 15.584V18.4173C4.25 22.4243 4.25 24.4277 5.4948 25.6725C6.73959 26.9173 8.74306 26.9173 12.75 26.9173H21.25C25.2569 26.9173 27.2604 26.9173 28.5052 25.6725C29.75 24.4277 29.75 22.4243 29.75 18.4173V15.584C29.75 14.5952 29.75 13.7285 29.7313 12.965L18.376 19.2735C17.5203 19.7489 16.4797 19.7489 15.624 19.2735L4.2687 12.965ZM4.5942 9.95941C4.71161 9.98889 4.82715 10.034 4.93799 10.0956L17 16.7967L29.062 10.0956C29.1728 10.034 29.2884 9.98889 29.4058 9.95941C29.2217 9.28859 28.939 8.76261 28.5052 8.32878C27.2604 7.08398 25.2569 7.08398 21.25 7.08398H12.75C8.74306 7.08398 6.73959 7.08398 5.4948 8.32878C5.06097 8.76261 4.77834 9.28859 4.5942 9.95941Z" fill="white"/>
</svg>
