<svg xmlns="http://www.w3.org/2000/svg" width="70" height="68.634" viewBox="0 0 70 68.634">
  <path id="Path_human-male-female-child" data-name="Path / human-male-female-child" d="M49.8,8.829a6.829,6.829,0,1,1,6.829,6.829A6.849,6.849,0,0,1,49.8,8.829M63.463,70.293V49.8H72L63.463,23.854a6.98,6.98,0,0,0-6.488-4.78h-.341a6.98,6.98,0,0,0-6.488,4.78l-3.073,8.878A11.669,11.669,0,0,1,53.22,43.317V70.634H63.463m-25.61-36.2a5.122,5.122,0,1,0-5.122-5.122,5.252,5.252,0,0,0,5.122,5.122m-23.9-18.78A6.829,6.829,0,1,0,7.122,8.829a6.849,6.849,0,0,0,6.829,6.829M20.78,70.293V46.39H25.9V25.9a6.849,6.849,0,0,0-6.829-6.829H8.829A6.849,6.849,0,0,0,2,25.9V46.39H7.122v23.9H20.78m22.2,0V56.634H46.39V42.976a5.252,5.252,0,0,0-5.122-5.122H34.439a5.252,5.252,0,0,0-5.122,5.122V56.634h3.415V70.293Z" transform="translate(-2 -2)" fill="#ffffff"/>
</svg>
