<svg xmlns="http://www.w3.org/2000/svg" width="76.507" height="68.634" viewBox="0 0 76.507 68.634">
  <path id="Path_paw" data-name="Path / paw" d="M26.307,3.042c4.5-.648,9.258,4.267,10.629,11.048,1.372,6.743-1.1,12.763-5.6,13.449-4.457.686-9.258-4.229-10.667-11.01-1.41-6.743,1.143-12.763,5.638-13.487m27.24,0c4.534.724,7.048,6.743,5.715,13.487-1.448,6.781-6.21,11.7-10.705,11.01-4.534-.686-7.01-6.705-5.6-13.449,1.372-6.781,6.134-11.7,10.591-11.048M5.925,20.567C10.268,18.7,16.173,22.091,19.259,28c2.9,6.019,1.9,12.344-2.4,14.21S6.687,40.721,3.677,34.74,1.734,22.4,5.925,20.567m68.576,0c4.191,1.829,5.257,8.191,2.248,14.172s-8.877,9.334-13.182,7.467-5.3-8.191-2.4-14.21c3.086-5.905,8.991-9.3,13.334-7.429M68.138,61.637c.152,3.581-2.591,7.543-5.867,9.029-6.819,3.124-14.9-3.353-22.478-3.353s-15.734,6.743-22.44,3.353a11.542,11.542,0,0,1-5.943-10.934c.686-5.677,7.505-8.724,11.544-12.877,5.372-5.372,9.182-15.468,16.839-15.468,7.62,0,11.658,9.944,16.8,15.468C60.824,51.5,67.872,55.427,68.138,61.637Z" transform="translate(-1.959 -2.985)" fill="#ffffff"/>
</svg>
