<svg xmlns="http://www.w3.org/2000/svg" width="59.404" height="54.004" viewBox="0 0 59.404 54.004">
  <path id="Path_application-braces" data-name="Path / application-braces" d="M55,2H6.4A5.416,5.416,0,0,0,1,7.4V50.6A5.416,5.416,0,0,0,6.4,56H55a5.416,5.416,0,0,0,5.4-5.4V7.4A5.416,5.416,0,0,0,55,2M28,26.3H22.6v4.05a5.416,5.416,0,0,1-5.4,5.4,5.416,5.416,0,0,1,5.4,5.4V45.2H28v5.4H22.6a5.416,5.416,0,0,1-5.4-5.4v-1.35a5.416,5.416,0,0,0-5.4-5.4v-5.4a5.416,5.416,0,0,0,5.4-5.4V26.3a5.416,5.416,0,0,1,5.4-5.4H28v5.4M49.6,38.452a5.416,5.416,0,0,0-5.4,5.4V45.2a5.416,5.416,0,0,1-5.4,5.4H33.4V45.2h5.4v-4.05a5.416,5.416,0,0,1,5.4-5.4,5.416,5.416,0,0,1-5.4-5.4V26.3H33.4V20.9h5.4a5.416,5.416,0,0,1,5.4,5.4v1.35a5.416,5.416,0,0,0,5.4,5.4v5.4M55,15.5H6.4V7.4H55Z" transform="translate(-1 -2)" fill="#414141"/>
</svg>
