<svg xmlns="http://www.w3.org/2000/svg" width="68.635" height="68.635" viewBox="0 0 68.635 68.635">
  <path id="Path_human-greeting-proximity" data-name="Path / human-greeting-proximity" d="M32.886,43.181H26.022A30.888,30.888,0,0,1,56.908,12.3v6.863A24,24,0,0,0,32.886,43.181m24.022-10.3V26.022A17.165,17.165,0,0,0,39.749,43.181h6.863a10.281,10.281,0,0,1,10.3-10.3M19.159,8.863A6.863,6.863,0,1,0,12.3,15.727a6.84,6.84,0,0,0,6.863-6.863M34.43,10.579H27.566a10.233,10.233,0,0,1-10.124,8.579H7.148A5.141,5.141,0,0,0,2,24.306v8.579H22.59V25.13A17.1,17.1,0,0,0,34.43,10.579m25.91,42.9a6.863,6.863,0,1,0-6.863-6.863,6.84,6.84,0,0,0,6.863,6.863m5.148,3.432h-10.3a10.233,10.233,0,0,1-10.124-8.579H38.2A17.1,17.1,0,0,0,50.044,62.879v7.756h20.59V62.055A5.141,5.141,0,0,0,65.487,56.908Z" transform="translate(-2 -2)" fill="#ffffff"/>
</svg>
