<svg width="729" height="394" viewBox="0 0 729 394" fill="none" xmlns="http://www.w3.org/2000/svg">
<path d="M531.9 381.094C516.95 392.479 400.831 351.881 382.925 357.319C377.763 358.933 372.436 359.964 367.044 360.391C362.004 360.796 356.931 360.403 352.013 359.225C339.089 356.01 327.102 350.381 315.504 343.804C311.715 341.652 307.969 339.401 304.246 337.102C298.167 333.345 292.149 329.457 286.115 325.662C285.211 325.087 284.313 324.523 283.409 323.965H283.404C281.947 323.05 280.487 322.148 279.023 321.259C278.766 321.101 278.508 320.947 278.245 320.789C275.48 319.113 272.667 317.476 269.807 315.877C269.457 315.685 269.106 315.488 268.756 315.296C263.221 312.226 257.534 309.443 251.714 306.956C247.892 305.346 244.02 303.895 240.111 302.657H240.105C238.61 302.187 237.11 301.743 235.604 301.338C231.088 300.099 226.487 299.198 221.837 298.644C215.43 297.868 208.95 297.919 202.556 298.797C196.162 299.674 201.696 298.917 201.264 298.989C167.524 306.956 195.924 322.803 170.832 322.923C145.74 323.044 149.663 313.44 149.099 313.489C148.535 313.538 148.487 313.475 148.376 313.555C130.467 326.527 144.162 362.928 79.2892 368.334C48.6547 373.02 32.7614 367.63 20.4568 360.391C-8.30869 343.465 41.1178 255.405 26.9349 225.276C24.4994 220.112 22.337 214.824 20.4568 209.434C15.1998 194.486 12.3047 178.81 11.8759 162.97C10.5452 108.013 -22.1019 48.0664 26.9303 23.2108C75.9679 -1.6448 240.111 -11.0285 315.504 17.8068C358.178 31.1392 323.219 44.1138 373.315 56.3697C465.219 69.7026 408.989 36.9074 485.762 36.9078C562.534 36.9082 570.097 40.1514 616.589 50.2428C643.259 91.329 686.862 74.3912 677.137 127.73C651.909 174.583 681.301 190.83 683.991 196.566C729.036 268.649 742.01 302.657 714.98 320.789C715.204 321.604 707.417 334.908 683.991 360.391C660.565 385.874 558.826 360.581 531.9 381.094Z" fill="white"/>
<path d="M73.314 333.885L71.2092 344.444C71.0506 345.252 70.8849 346.073 70.7047 346.888C68.9455 346.523 67.1215 346.625 65.4139 347.184C66.7687 349.119 67.9828 351.15 69.0468 353.26C67.7205 357.347 65.7743 361.124 62.5162 363.856C60.3402 365.64 57.7412 366.833 54.9699 367.32C52.1987 367.808 49.3485 367.573 46.6944 366.638L46.7881 366.22C43.285 359.423 45.188 350.852 49.5416 344.574C51.7622 341.477 54.3932 338.696 57.3625 336.306C60.3033 333.856 63.4821 331.657 66.6321 329.488C67.3396 329.001 68.176 328.737 69.0346 328.728C69.8931 328.719 70.7348 328.966 71.4521 329.438C72.1693 329.91 72.7296 330.586 73.0612 331.377C73.3929 332.169 73.4809 333.042 73.314 333.885Z" fill="#2368FF"/>
<path d="M47.4426 392.046C46.5568 385.593 45.6456 379.057 46.267 372.535C46.8191 366.742 48.5858 361.085 52.1841 356.446C54.0939 353.988 56.4178 351.882 59.0513 350.223C59.7382 349.79 60.3696 350.878 59.6863 351.309C55.1299 354.189 51.6056 358.441 49.6216 363.453C47.4304 369.026 47.0786 375.102 47.4592 381.022C47.6877 384.602 48.1714 388.158 48.6593 391.711C48.6986 391.872 48.675 392.042 48.5933 392.186C48.5115 392.33 48.3779 392.437 48.2197 392.485C48.0587 392.529 47.8871 392.507 47.7422 392.425C47.5973 392.342 47.4906 392.206 47.4455 392.046L47.4426 392.046Z" fill="#F2F2F2"/>
<path d="M55.0441 68.357C85.9217 67.8201 116.803 67.7429 147.687 68.1256C178.567 68.5105 209.436 69.3573 240.295 70.6658C257.611 71.4002 274.921 72.2799 292.223 73.3051C293.613 73.3873 293.608 71.2246 292.223 71.1427C261.394 69.3184 230.544 67.9534 199.67 67.0477C168.801 66.1443 137.924 65.7029 107.037 65.7233C89.705 65.7349 72.3741 65.8919 55.0441 66.1946C53.6542 66.2187 53.6498 68.3812 55.0441 68.357V68.357Z" fill="#E6E6E6"/>
<path d="M270.234 54.7979L283.736 53.793C285.115 53.6903 285.126 51.5271 283.736 51.6305L270.234 52.6354C268.855 52.7381 268.843 54.9014 270.234 54.7979Z" fill="#E6E6E6"/>
<path d="M270.234 67.7725L283.736 66.7676C285.115 66.6649 285.126 64.5017 283.736 64.6052L270.234 65.6101C268.855 65.7127 268.843 67.876 270.234 67.7725Z" fill="#E6E6E6"/>
<path d="M269.216 61.8474L288.412 63.5914C289.798 63.7173 289.789 61.5541 288.412 61.429L269.216 59.685C267.83 59.5591 267.839 61.7223 269.216 61.8474Z" fill="#E6E6E6"/>
<path d="M63.0372 51.8897C62.0983 51.8839 61.1784 52.1546 60.3923 52.6681C59.6061 53.1815 58.9885 53.9149 58.6163 54.777C58.2 55.6207 58.0715 56.5775 58.2505 57.5012C58.4294 58.4249 58.9059 59.2645 59.6072 59.8917C60.2664 60.4526 61.0571 60.8371 61.9053 61.0095C62.7535 61.1818 63.6315 61.1362 64.4574 60.8771C65.3019 60.5821 66.0343 60.0326 66.5537 59.3042C67.073 58.5758 67.3538 57.7043 67.3575 56.8098C67.3952 55.8173 67.1263 54.8372 66.5874 54.003C66.0485 53.1687 65.2657 52.5206 64.3455 52.1468C64.069 52.0717 63.7741 52.109 63.5249 52.2504C63.2758 52.3919 63.0927 52.6261 63.0155 52.902C62.9473 53.1782 62.9876 53.4701 63.1281 53.7175C63.2685 53.9649 63.4985 54.149 63.7707 54.232C63.9591 54.3048 63.5985 54.1394 63.7745 54.2353C63.8468 54.2747 63.9205 54.3103 63.9915 54.3524C64.0519 54.3881 64.1098 54.4273 64.1685 54.4656C64.3703 54.5974 64.07 54.3689 64.199 54.4873C64.3109 54.59 64.4217 54.6902 64.5234 54.8036C64.5618 54.8464 64.7125 54.9655 64.5954 54.8823C64.5058 54.8186 64.5609 54.8335 64.5954 54.8847C64.6216 54.9235 64.6493 54.9613 64.6751 55.0003C64.7594 55.1279 64.8361 55.2604 64.9046 55.397C64.9205 55.4287 64.935 55.461 64.9512 55.4925C64.9815 55.5515 65.0254 55.5669 64.9542 55.4931C64.8862 55.4225 64.9295 55.4273 64.9538 55.4952C64.9698 55.5399 64.9873 55.5839 65.0028 55.6287C65.0535 55.7746 65.0961 55.9231 65.1303 56.0737C65.1462 56.1433 65.1589 56.2133 65.1725 56.2833C65.2208 56.5316 65.1655 56.129 65.1772 56.3134C65.1869 56.4674 65.1983 56.6197 65.1956 56.7744C65.1944 56.8451 65.1913 56.9158 65.1864 56.9863C65.1839 57.0215 65.1799 57.0567 65.1776 57.0919C65.1664 57.2615 65.1661 57.0299 65.1898 57.014C65.1404 57.158 65.1076 57.3073 65.0921 57.4587C65.0727 57.526 65.0497 57.5917 65.0282 57.6582C64.9529 57.8902 65.0988 57.5318 65.0186 57.6903C64.9526 57.8265 64.8789 57.9588 64.7977 58.0866C64.7625 58.1401 64.6297 58.2609 64.7383 58.1768C64.8562 58.0855 64.6765 58.2427 64.6381 58.2831C64.5889 58.3351 64.5378 58.3852 64.4848 58.4335C64.4509 58.4666 64.4151 58.4978 64.3776 58.5267C64.3707 58.5233 64.5582 58.4015 64.4572 58.466C64.3287 58.5479 64.207 58.6356 64.0716 58.7069C64.0559 58.7152 63.8828 58.7954 63.8835 58.7982C63.876 58.769 64.106 58.7172 63.9482 58.7683C63.915 58.779 63.8825 58.7919 63.8494 58.803C63.7057 58.8514 63.559 58.8905 63.4102 58.92C63.3762 58.9268 63.3402 58.9303 63.3066 58.9389C63.1948 58.9678 63.4134 58.922 63.42 58.9258C63.3374 58.9222 63.2546 58.9295 63.1739 58.9476C63.0205 58.9563 62.8667 58.9563 62.7133 58.9475C62.6778 58.9455 62.6424 58.9419 62.6069 58.9399C62.5245 58.9351 62.4641 58.8757 62.5737 58.9402C62.6583 58.9899 62.6513 58.9536 62.5763 58.9398C62.5413 58.9333 62.5061 58.9278 62.471 58.9213C62.3192 58.8928 62.169 58.8561 62.0212 58.8111C61.9417 58.7868 61.8638 58.7587 61.7853 58.7313C61.7512 58.7213 61.7179 58.7085 61.6859 58.693C61.6854 58.6841 61.8881 58.7898 61.7811 58.7321C61.646 58.6593 61.5063 58.5983 61.3745 58.5188C61.3041 58.4763 61.2365 58.4302 61.1681 58.3847C61.138 58.3666 61.1094 58.3461 61.0825 58.3234C61.0848 58.3143 61.2501 58.4675 61.1633 58.3848C61.0535 58.2802 60.9361 58.1865 60.8321 58.0751C60.8083 58.0496 60.7858 58.023 60.7621 57.9974L60.7392 57.9712C60.6806 57.8996 60.6795 57.8999 60.7359 57.9722C60.7932 57.9891 60.7906 58.052 60.7363 57.9703C60.7169 57.9412 60.6963 57.913 60.677 57.8838C60.5892 57.7587 60.5143 57.625 60.4535 57.4847C60.4587 57.4806 60.5471 57.7449 60.4795 57.5455C60.4668 57.5078 60.4524 57.4707 60.4399 57.433C60.4151 57.3581 60.3932 57.2823 60.3743 57.2057C60.3556 57.1299 60.346 57.0516 60.3272 56.9761C60.2954 56.8488 60.3457 57.0765 60.34 57.0709C60.322 57.0531 60.3296 56.9426 60.3283 56.9162C60.3196 56.7466 60.339 56.5819 60.342 56.4133C60.3443 56.2826 60.3312 56.5151 60.3285 56.5082C60.3291 56.4691 60.336 56.4303 60.349 56.3934C60.3686 56.3045 60.3868 56.2156 60.4107 56.1277C60.4382 56.027 60.4697 55.9275 60.5055 55.8293C60.5188 55.7925 60.5351 55.7563 60.5475 55.7192C60.593 55.5834 60.4574 55.8832 60.5322 55.7608C60.6351 55.5923 60.7117 55.41 60.8209 55.2437C60.8468 55.2042 61.0041 54.9846 60.9206 55.0955C60.8374 55.2059 61.0061 54.9966 61.038 54.961C61.1706 54.8133 61.3266 54.6921 61.4639 54.5507C61.5452 54.467 61.4072 54.5919 61.399 54.5977C61.4416 54.5673 61.4832 54.5358 61.5263 54.5061C61.6013 54.4544 61.6782 54.4055 61.757 54.3594C61.8457 54.3074 61.946 54.2687 62.032 54.2137C62.1335 54.1487 61.9543 54.2422 61.9511 54.2441C61.9975 54.2211 62.046 54.2026 62.0959 54.1889C62.1796 54.1592 62.5438 54.0021 62.6201 54.0513C62.6167 54.049 62.3437 54.0732 62.5644 54.0591C62.6165 54.0557 62.6685 54.0506 62.7207 54.0485C62.8264 54.0441 62.9317 54.0467 63.0372 54.0522C63.3234 54.0503 63.5973 53.9358 63.7997 53.7335C64.002 53.5311 64.1166 53.2572 64.1184 52.971C64.1123 52.6862 63.9964 52.4147 63.795 52.2132C63.5935 52.0118 63.3221 51.8959 63.0372 51.8898L63.0372 51.8897Z" fill="#E6E6E6"/>
<path d="M78.1739 51.8897C77.235 51.8839 76.3151 52.1546 75.529 52.6681C74.7428 53.1815 74.1252 53.9149 73.7531 54.777C73.3368 55.6207 73.2083 56.5775 73.3872 57.5012C73.5661 58.4249 74.0427 59.2645 74.7439 59.8917C75.4031 60.4526 76.1938 60.8371 77.042 61.0095C77.8902 61.1818 78.7683 61.1362 79.5941 60.8771C80.4386 60.5821 81.171 60.0326 81.6904 59.3042C82.2097 58.5758 82.4906 57.7043 82.4942 56.8098C82.5319 55.8173 82.263 54.8372 81.7241 54.003C81.1852 53.1687 80.4024 52.5206 79.4822 52.1468C79.2058 52.0717 78.9108 52.109 78.6617 52.2504C78.4125 52.3919 78.2294 52.6261 78.1522 52.902C78.084 53.1782 78.1243 53.4701 78.2648 53.7175C78.4053 53.9649 78.6352 54.149 78.9074 54.232C79.0958 54.3048 78.7352 54.1394 78.9112 54.2353C78.9835 54.2747 79.0572 54.3103 79.1283 54.3524C79.1887 54.3881 79.2465 54.4273 79.3052 54.4656C79.507 54.5974 79.2067 54.3689 79.3357 54.4873C79.4476 54.59 79.5584 54.6902 79.6601 54.8036C79.6986 54.8464 79.8492 54.9655 79.7321 54.8823C79.6426 54.8186 79.6976 54.8335 79.7321 54.8847C79.7583 54.9235 79.786 54.9613 79.8119 55.0003C79.8962 55.1279 79.9728 55.2604 80.0413 55.397C80.0572 55.4287 80.0718 55.461 80.0879 55.4925C80.1182 55.5515 80.1621 55.5669 80.0909 55.4931C80.0229 55.4225 80.0662 55.4273 80.0905 55.4952C80.1065 55.5399 80.124 55.5839 80.1395 55.6287C80.1902 55.7746 80.2328 55.9231 80.267 56.0737C80.2829 56.1433 80.2956 56.2133 80.3092 56.2833C80.3575 56.5316 80.3022 56.129 80.3139 56.3134C80.3236 56.4674 80.335 56.6197 80.3323 56.7744C80.3311 56.8451 80.328 56.9158 80.3231 56.9863C80.3206 57.0215 80.3167 57.0567 80.3143 57.0919C80.3031 57.2615 80.3028 57.0299 80.3265 57.014C80.2771 57.158 80.2443 57.3073 80.2288 57.4587C80.2094 57.526 80.1864 57.5917 80.1649 57.6582C80.0897 57.8902 80.2355 57.5318 80.1553 57.6903C80.0894 57.8265 80.0156 57.9588 79.9344 58.0866C79.8992 58.1401 79.7664 58.2609 79.875 58.1768C79.9929 58.0855 79.8132 58.2427 79.7749 58.2831C79.7256 58.3351 79.6745 58.3852 79.6215 58.4335C79.5876 58.4666 79.5518 58.4978 79.5143 58.5267C79.5074 58.5233 79.6949 58.4015 79.5939 58.466C79.4654 58.5479 79.3438 58.6356 79.2084 58.7069C79.1926 58.7152 79.0195 58.7954 79.0202 58.7982C79.0128 58.769 79.2427 58.7172 79.0849 58.7683C79.0517 58.779 79.0192 58.7919 78.9862 58.803C78.8424 58.8514 78.6957 58.8905 78.5469 58.92C78.5129 58.9268 78.4769 58.9303 78.4433 58.9389C78.3315 58.9678 78.5501 58.922 78.5567 58.9258C78.4741 58.9222 78.3913 58.9295 78.3106 58.9476C78.1572 58.9563 78.0034 58.9563 77.85 58.9475C77.8145 58.9455 77.7791 58.9419 77.7436 58.9399C77.6613 58.9351 77.6008 58.8757 77.7104 58.9402C77.795 58.9899 77.788 58.9536 77.713 58.9398C77.678 58.9333 77.6428 58.9278 77.6077 58.9213C77.4559 58.8928 77.3058 58.8561 77.158 58.8111C77.0784 58.7868 77.0005 58.7587 76.9221 58.7313C76.8879 58.7213 76.8546 58.7085 76.8226 58.693C76.8221 58.6841 77.0248 58.7898 76.9178 58.7321C76.7827 58.6593 76.6431 58.5983 76.5112 58.5188C76.4408 58.4763 76.3732 58.4302 76.3048 58.3847C76.2747 58.3666 76.2461 58.3461 76.2192 58.3234C76.2215 58.3143 76.3868 58.4675 76.3 58.3848C76.1903 58.2802 76.0728 58.1865 75.9689 58.0751C75.9451 58.0496 75.9226 58.023 75.8989 57.9974L75.8759 57.9712C75.8173 57.8996 75.8162 57.8999 75.8727 57.9722C75.93 57.9891 75.9274 58.052 75.873 57.9703C75.8536 57.9412 75.833 57.913 75.8137 57.8838C75.7259 57.7587 75.651 57.625 75.5902 57.4847C75.5955 57.4806 75.6839 57.7449 75.6163 57.5455C75.6035 57.5078 75.5891 57.4707 75.5766 57.433C75.5518 57.3581 75.5299 57.2823 75.511 57.2057C75.4923 57.1299 75.4827 57.0516 75.4639 56.9761C75.4321 56.8488 75.4825 57.0765 75.4767 57.0709C75.4587 57.0531 75.4664 56.9426 75.465 56.9162C75.4564 56.7466 75.4757 56.5819 75.4787 56.4133C75.4811 56.2826 75.4679 56.5151 75.4652 56.5082C75.4658 56.4691 75.4728 56.4303 75.4857 56.3934C75.5053 56.3045 75.5235 56.2156 75.5474 56.1277C75.5749 56.027 75.6065 55.9275 75.6422 55.8293C75.6556 55.7925 75.6718 55.7563 75.6842 55.7192C75.7298 55.5834 75.5941 55.8832 75.6689 55.7608C75.7718 55.5923 75.8484 55.41 75.9576 55.2437C75.9835 55.2042 76.1408 54.9846 76.0573 55.0955C75.9742 55.2059 76.1428 54.9966 76.1747 54.961C76.3074 54.8133 76.4633 54.6921 76.6006 54.5507C76.6819 54.467 76.5439 54.5919 76.5358 54.5977C76.5783 54.5673 76.6199 54.5358 76.663 54.5061C76.7381 54.4544 76.815 54.4055 76.8937 54.3594C76.9824 54.3074 77.0827 54.2687 77.1687 54.2137C77.2702 54.1487 77.091 54.2422 77.0878 54.2441C77.1342 54.2211 77.1827 54.2026 77.2326 54.1889C77.3164 54.1592 77.6805 54.0021 77.7569 54.0513C77.7534 54.049 77.4804 54.0732 77.7011 54.0591C77.7532 54.0557 77.8052 54.0506 77.8574 54.0485C77.9631 54.0441 78.0684 54.0467 78.1739 54.0522C78.4601 54.0503 78.734 53.9358 78.9364 53.7335C79.1388 53.5311 79.2533 53.2572 79.2552 52.971C79.249 52.6862 79.1331 52.4147 78.9317 52.2132C78.7302 52.0118 78.4588 51.8959 78.1739 51.8898L78.1739 51.8897Z" fill="#E6E6E6"/>
<path d="M93.3067 51.8897C92.3678 51.8839 91.4479 52.1546 90.6618 52.6681C89.8756 53.1815 89.258 53.9149 88.8859 54.777C88.4696 55.6207 88.3411 56.5775 88.52 57.5012C88.6989 58.4249 89.1755 59.2645 89.8767 59.8917C90.536 60.4526 91.3266 60.8371 92.1748 61.0095C93.023 61.1818 93.9011 61.1362 94.7269 60.8771C95.5715 60.5821 96.3038 60.0326 96.8232 59.3042C97.3425 58.5758 97.6234 57.7043 97.627 56.8098C97.6647 55.8173 97.3958 54.8372 96.8569 54.003C96.318 53.1687 95.5353 52.5206 94.615 52.1468C94.3386 52.0717 94.0436 52.109 93.7945 52.2504C93.5453 52.3919 93.3622 52.6261 93.285 52.902C93.2168 53.1782 93.2571 53.4701 93.3976 53.7175C93.5381 53.9649 93.768 54.149 94.0402 54.232C94.2286 54.3048 93.868 54.1394 94.044 54.2353C94.1163 54.2747 94.19 54.3103 94.2611 54.3524C94.3215 54.3881 94.3793 54.4273 94.438 54.4656C94.6399 54.5974 94.3395 54.3689 94.4685 54.4873C94.5804 54.59 94.6912 54.6902 94.7929 54.8036C94.8314 54.8464 94.982 54.9655 94.8649 54.8823C94.7754 54.8186 94.8304 54.8335 94.8649 54.8847C94.8911 54.9235 94.9188 54.9613 94.9447 55.0003C95.029 55.1279 95.1056 55.2604 95.1742 55.397C95.19 55.4287 95.2046 55.461 95.2207 55.4925C95.251 55.5515 95.2949 55.5669 95.2237 55.4931C95.1557 55.4225 95.199 55.4273 95.2233 55.4952C95.2393 55.5399 95.2568 55.5839 95.2724 55.6287C95.3231 55.7746 95.3656 55.9231 95.3998 56.0737C95.4157 56.1433 95.4284 56.2133 95.442 56.2833C95.4903 56.5316 95.435 56.129 95.4467 56.3134C95.4564 56.4674 95.4678 56.6197 95.4651 56.7744C95.4639 56.8451 95.4608 56.9158 95.4559 56.9863C95.4534 57.0215 95.4495 57.0567 95.4472 57.0919C95.4359 57.2615 95.4356 57.0299 95.4593 57.014C95.4099 57.158 95.3771 57.3073 95.3616 57.4587C95.3422 57.526 95.3192 57.5917 95.2977 57.6582C95.2225 57.8902 95.3683 57.5318 95.2882 57.6903C95.2222 57.8265 95.1484 57.9588 95.0673 58.0866C95.032 58.1401 94.8992 58.2609 95.0078 58.1768C95.1257 58.0855 94.946 58.2427 94.9077 58.2831C94.8584 58.3351 94.8073 58.3852 94.7543 58.4335C94.7204 58.4666 94.6846 58.4978 94.6471 58.5267C94.6402 58.5233 94.8277 58.4015 94.7267 58.466C94.5982 58.5479 94.4766 58.6356 94.3412 58.7069C94.3254 58.7152 94.1523 58.7954 94.153 58.7982C94.1456 58.769 94.3756 58.7172 94.2177 58.7683C94.1845 58.779 94.152 58.7919 94.119 58.803C93.9752 58.8514 93.8285 58.8905 93.6798 58.92C93.6457 58.9268 93.6097 58.9303 93.5761 58.9389C93.4644 58.9678 93.6829 58.922 93.6895 58.9258C93.6069 58.9222 93.5242 58.9295 93.4435 58.9476C93.29 58.9563 93.1363 58.9563 92.9828 58.9475C92.9473 58.9455 92.9119 58.9419 92.8765 58.9399C92.7941 58.9351 92.7336 58.8757 92.8432 58.9402C92.9278 58.9899 92.9208 58.9536 92.8459 58.9398C92.8108 58.9333 92.7756 58.9278 92.7406 58.9213C92.5887 58.8928 92.4386 58.8561 92.2908 58.8111C92.2113 58.7868 92.1333 58.7587 92.0549 58.7313C92.0207 58.7213 91.9874 58.7085 91.9554 58.693C91.9549 58.6841 92.1576 58.7898 92.0506 58.7321C91.9155 58.6593 91.7759 58.5983 91.644 58.5188C91.5736 58.4763 91.506 58.4302 91.4376 58.3847C91.4075 58.3666 91.3789 58.3461 91.352 58.3234C91.3543 58.3143 91.5197 58.4675 91.4328 58.3848C91.3231 58.2802 91.2056 58.1865 91.1017 58.0751C91.0779 58.0496 91.0554 58.023 91.0317 57.9974L91.0087 57.9712C90.9501 57.8996 90.949 57.8999 91.0055 57.9722C91.0628 57.9891 91.0602 58.052 91.0058 57.9703C90.9864 57.9412 90.9658 57.913 90.9465 57.8838C90.8587 57.7587 90.7838 57.625 90.723 57.4847C90.7283 57.4806 90.8167 57.7449 90.7491 57.5455C90.7363 57.5078 90.7219 57.4707 90.7094 57.433C90.6846 57.3581 90.6627 57.2823 90.6438 57.2057C90.6251 57.1299 90.6156 57.0516 90.5967 56.9761C90.5649 56.8488 90.6153 57.0765 90.6095 57.0709C90.5915 57.0531 90.5992 56.9426 90.5978 56.9162C90.5892 56.7466 90.6085 56.5819 90.6115 56.4133C90.6139 56.2826 90.6007 56.5151 90.598 56.5082C90.5987 56.4691 90.6056 56.4303 90.6185 56.3934C90.6381 56.3045 90.6563 56.2156 90.6803 56.1277C90.7077 56.027 90.7393 55.9275 90.775 55.8293C90.7884 55.7925 90.8046 55.7563 90.8171 55.7192C90.8626 55.5834 90.727 55.8832 90.8017 55.7608C90.9046 55.5923 90.9812 55.41 91.0904 55.2437C91.1163 55.2042 91.2737 54.9846 91.1901 55.0955C91.107 55.2059 91.2756 54.9966 91.3075 54.961C91.4402 54.8133 91.5961 54.6921 91.7335 54.5507C91.8147 54.467 91.6767 54.5919 91.6686 54.5977C91.7111 54.5673 91.7527 54.5358 91.7958 54.5061C91.8709 54.4544 91.9478 54.4055 92.0265 54.3594C92.1152 54.3074 92.2155 54.2687 92.3015 54.2137C92.4031 54.1487 92.2238 54.2422 92.2206 54.2441C92.267 54.2211 92.3155 54.2026 92.3654 54.1889C92.4492 54.1592 92.8133 54.0021 92.8897 54.0513C92.8862 54.049 92.6132 54.0732 92.8339 54.0591C92.8861 54.0557 92.938 54.0506 92.9903 54.0485C93.0959 54.0441 93.2012 54.0467 93.3067 54.0522C93.5929 54.0503 93.8668 53.9358 94.0692 53.7335C94.2716 53.5311 94.3861 53.2572 94.388 52.971C94.3818 52.6862 94.266 52.4147 94.0645 52.2132C93.863 52.0118 93.5916 51.8959 93.3067 51.8898L93.3067 51.8897Z" fill="#E6E6E6"/>
<path d="M311.983 291.352H46.7929C43.4395 291.348 40.2246 290.014 37.8533 287.643C35.4821 285.272 34.1483 282.057 34.1445 278.704V42.3456C34.1483 38.9922 35.4821 35.7772 37.8533 33.406C40.2245 31.0348 43.4395 29.701 46.7929 29.6973H311.983C315.336 29.701 318.551 31.0348 320.923 33.406C323.294 35.7772 324.628 38.9922 324.631 42.3456V278.704C324.628 282.057 323.294 285.272 320.923 287.643C318.551 290.014 315.336 291.348 311.983 291.352ZM46.7929 31.1389C43.8217 31.1423 40.9732 32.3241 38.8723 34.425C36.7713 36.5259 35.5895 39.3744 35.5862 42.3456V278.704C35.5896 281.675 36.7714 284.523 38.8724 286.624C40.9733 288.725 43.8218 289.907 46.7929 289.91H311.983C314.954 289.907 317.803 288.725 319.904 286.624C322.004 284.523 323.186 281.675 323.19 278.704V42.3456C323.186 39.3744 322.005 36.5259 319.904 34.425C317.803 32.3241 314.954 31.1423 311.983 31.1389H46.7929Z" fill="#9B9DA0"/>
<path d="M46.353 190.514L139.611 190.231L232.393 189.949L284.732 189.789C285.012 189.78 285.278 189.662 285.472 189.46C285.667 189.258 285.776 188.989 285.776 188.708C285.776 188.428 285.667 188.158 285.472 187.957C285.278 187.755 285.012 187.637 284.732 187.627L191.474 187.911L98.6916 188.193L46.353 188.352C46.0727 188.362 45.8072 188.48 45.6123 188.682C45.4175 188.883 45.3086 189.153 45.3086 189.433C45.3086 189.714 45.4175 189.983 45.6123 190.185C45.8072 190.387 46.0727 190.505 46.353 190.514Z" fill="#E6E6E6"/>
<path d="M93.4009 188.761L93.9776 154.712C94.0011 153.32 91.8387 153.32 91.8151 154.712L91.2385 188.761C91.2149 190.153 93.3773 190.153 93.4009 188.761Z" fill="#E6E6E6"/>
<path d="M137.976 189.13L139.381 146.332L139.782 134.104C139.828 132.712 137.666 132.714 137.62 134.104L136.215 176.902L135.813 189.13C135.768 190.521 137.93 190.52 137.976 189.13Z" fill="#9B9DA0"/>
<path d="M182.426 113.817C181.578 128.975 180.01 173.687 179.162 188.846C179.084 190.236 181.247 190.232 181.325 188.846C182.172 173.687 183.741 128.975 184.588 113.817C184.666 112.426 182.503 112.431 182.426 113.817Z" fill="#525252"/>
<path d="M226.66 173.635L226.395 188.205C226.369 189.597 228.532 189.597 228.557 188.205C228.87 170.997 229.673 171.558 229.761 166.701C229.787 165.309 227.624 165.309 227.599 166.701C227.599 166.701 226.973 156.427 226.66 173.635Z" fill="#E6E6E6"/>
<path d="M269.988 135.36L270.233 176.236L270.303 187.941C270.313 188.221 270.431 188.487 270.632 188.681C270.834 188.876 271.104 188.985 271.384 188.985C271.665 188.985 271.934 188.876 272.136 188.681C272.337 188.487 272.456 188.221 272.465 187.941L272.221 147.064L272.151 135.36C272.141 135.08 272.023 134.814 271.821 134.619C271.619 134.424 271.35 134.315 271.069 134.315C270.789 134.315 270.52 134.424 270.318 134.619C270.116 134.814 269.998 135.08 269.988 135.36Z" fill="#E6E6E6"/>
<path d="M46.5271 189.297C44.7372 184.378 48.7721 179.647 52.918 177.522C57.8851 174.975 63.5992 174.398 68.6189 171.942C76.1026 168.282 81.5535 161.713 86.4037 155.137C91.3959 148.37 95.9637 141.106 102.307 135.483C105.65 132.453 109.598 130.169 113.89 128.78C119.297 127.092 125.032 126.976 130.62 127.656C142.167 129.062 152.87 133.831 164.011 136.862C174.515 139.72 186.088 141.327 196.398 136.883C201.636 134.625 205.919 130.838 210.52 127.561C214.972 124.357 219.951 121.955 225.23 120.465C235.58 117.587 246.882 118.356 256.517 123.221C265.374 127.636 272.387 135.037 276.318 144.119C280.886 155.031 280.291 167.225 278.799 178.711C278.413 181.68 277.954 184.638 277.49 187.596C277.276 188.957 279.36 189.544 279.575 188.171C281.433 176.327 283.286 164.109 280.974 152.191C278.975 141.784 273.252 132.462 264.877 125.97C256.467 119.46 246.012 116.16 235.388 116.663C229.821 116.922 224.34 118.141 219.188 120.266C213.84 122.478 209.312 125.757 204.712 129.207C199.982 132.754 195.107 135.688 189.235 136.845C183.54 137.967 177.615 137.546 171.944 136.487C160.244 134.301 149.338 129.29 137.737 126.722C126.988 124.343 115.39 124.105 105.765 130.177C98.361 134.848 93.1294 142.1 88.1087 149.102C83.1319 156.042 78.0922 163.464 70.8149 168.205C66.3756 171.097 61.3854 172.164 56.4193 173.791C51.4405 175.422 46.6607 178.173 44.6307 183.273C43.7557 185.374 43.6885 187.725 44.4419 189.872C44.914 191.169 47.0046 190.609 46.5271 189.297V189.297Z" fill="#525252"/>
<path d="M92.687 150.004L92.6836 150.006L92.6905 150.004H92.687Z" fill="#E6E6E6"/>
<path d="M96.4329 148.015C95.9331 147.13 95.1358 146.451 94.1826 146.098C93.2294 145.745 92.1819 145.742 91.2264 146.088C90.7514 146.262 90.316 146.529 89.9459 146.873C89.5758 147.218 89.2786 147.633 89.0718 148.094C89.0304 148.193 89.0062 148.296 88.9724 148.396C88.9256 148.472 88.8693 148.54 88.8273 148.62C88.3791 149.513 88.2564 150.534 88.4803 151.508C88.7042 152.482 89.2606 153.347 90.0538 153.955C90.847 154.562 91.8273 154.874 92.8258 154.837C93.8243 154.8 94.7786 154.415 95.5242 153.75C96.3079 153.042 96.8254 152.087 96.9907 151.043C97.156 150 96.9592 148.931 96.4329 148.015ZM93.7246 149.852C93.7335 149.906 93.7302 149.956 93.7246 149.852V149.852ZM93.4493 149.226C93.4387 149.214 93.4401 149.215 93.4493 149.226V149.226ZM92.236 149.714C92.2197 149.689 92.2181 149.684 92.236 149.714V149.714ZM92.5236 149.957C92.592 149.981 92.565 149.976 92.5236 149.957V149.957ZM92.652 150.019L92.6804 150.006C92.6735 150.006 92.6665 150.005 92.6603 150.002L92.6611 150.001L92.6834 150.004L92.6876 150.002L92.6747 149.999C92.6859 149.999 92.6872 150 92.6879 150.002C92.8166 149.943 92.7295 149.972 92.6549 149.995L92.6499 149.994C92.6033 149.97 92.5533 149.954 92.5017 149.946C92.4969 149.943 92.4912 149.941 92.4872 149.939C92.4458 149.909 92.2366 149.746 92.4307 149.917C92.3885 149.88 92.3467 149.843 92.307 149.803C92.2836 149.779 92.2623 149.753 92.2436 149.725C92.2181 149.681 92.1934 149.637 92.1695 149.593L92.1659 149.569C92.1627 149.549 92.1603 149.54 92.1577 149.529C92.1589 149.516 92.1609 149.503 92.1628 149.49C92.1773 149.451 92.1866 149.41 92.1903 149.369L92.1987 149.359C92.2297 149.315 92.2569 149.265 92.2865 149.22C92.1298 149.458 92.3478 149.193 92.3641 149.16C92.3669 149.154 92.362 149.157 92.3632 149.153C92.3696 149.15 92.3676 149.152 92.3753 149.148C92.4239 149.119 92.4699 149.087 92.5192 149.06C92.5779 149.027 92.8093 148.962 92.5694 149.03C92.6239 149.015 92.6762 148.995 92.7313 148.981C92.7412 148.978 92.822 148.967 92.8655 148.959C92.9037 148.958 92.9408 148.957 92.9447 148.957C92.9627 148.957 92.9806 148.959 92.9986 148.96C92.9587 148.965 93.1352 149.004 93.1876 149.012C93.1952 149.018 93.199 149.021 93.2093 149.029C93.2536 149.061 93.3075 149.09 93.3543 149.12C93.1452 148.985 93.357 149.131 93.397 149.171C93.4209 149.195 93.4429 149.22 93.4653 149.245C93.486 149.269 93.5046 149.295 93.521 149.322C93.5553 149.385 93.5918 149.448 93.6278 149.51L93.6378 149.526C93.6376 149.528 93.6375 149.53 93.6375 149.532C93.6563 149.632 93.684 149.731 93.7203 149.826C93.7221 149.834 93.7234 149.842 93.7244 149.85C93.7277 149.905 93.7323 149.96 93.7324 150.015L93.7319 150.026C93.5654 149.94 93.3807 149.894 93.1929 149.892C93.0051 149.891 92.8197 149.934 92.652 150.019H92.652Z" fill="#2368FF"/>
<path d="M92.6883 150.003C92.6926 150.004 92.6885 150.004 92.6875 150.004L92.6883 150.003Z" fill="#E6E6E6"/>
<path d="M92.692 150.003L92.6875 150.004C92.6932 150.004 92.6912 150.003 92.692 150.003Z" fill="#E6E6E6"/>
<path d="M92.6875 150.003L92.6895 150.004L92.6875 150.003Z" fill="#E6E6E6"/>
<path d="M138.816 129.822L138.812 129.824L138.819 129.822H138.816Z" fill="#E6E6E6"/>
<path d="M142.566 127.832C142.066 126.947 141.269 126.267 140.315 125.915C139.362 125.562 138.315 125.558 137.359 125.905C136.884 126.078 136.449 126.345 136.079 126.69C135.709 127.034 135.411 127.449 135.205 127.911C135.163 128.009 135.139 128.112 135.105 128.213C135.058 128.288 135.002 128.357 134.96 128.436C134.512 129.329 134.389 130.35 134.613 131.324C134.837 132.298 135.393 133.163 136.187 133.771C136.98 134.379 137.96 134.691 138.959 134.653C139.957 134.616 140.911 134.232 141.657 133.567C142.441 132.858 142.958 131.903 143.124 130.86C143.289 129.816 143.092 128.748 142.566 127.832ZM139.857 129.668C139.866 129.723 139.863 129.773 139.857 129.668V129.668ZM139.582 129.042C139.572 129.03 139.573 129.031 139.582 129.042V129.042ZM138.369 129.53C138.353 129.505 138.351 129.501 138.369 129.53V129.53ZM138.656 129.774C138.725 129.797 138.698 129.792 138.656 129.774V129.774ZM138.785 129.835L138.813 129.822C138.806 129.823 138.799 129.821 138.793 129.818L138.794 129.818L138.816 129.821L138.82 129.819L138.807 129.816C138.819 129.815 138.82 129.817 138.821 129.819C138.949 129.76 138.862 129.788 138.788 129.811L138.783 129.81C138.736 129.786 138.686 129.77 138.634 129.762C138.63 129.76 138.624 129.758 138.62 129.755C138.579 129.726 138.369 129.562 138.563 129.733C138.521 129.696 138.479 129.659 138.44 129.619C138.416 129.595 138.395 129.569 138.376 129.541C138.351 129.498 138.326 129.454 138.302 129.409L138.299 129.385C138.295 129.365 138.293 129.357 138.29 129.345C138.292 129.333 138.294 129.319 138.296 129.306C138.31 129.267 138.319 129.227 138.323 129.186L138.331 129.175C138.362 129.132 138.39 129.081 138.419 129.036C138.263 129.274 138.481 129.01 138.497 128.976C138.5 128.971 138.495 128.974 138.496 128.97C138.502 128.966 138.5 128.969 138.508 128.964C138.557 128.936 138.603 128.904 138.652 128.876C138.711 128.844 138.942 128.778 138.702 128.847C138.757 128.831 138.809 128.811 138.864 128.797C138.874 128.794 138.955 128.783 138.998 128.775C139.036 128.774 139.074 128.773 139.077 128.773C139.095 128.773 139.113 128.776 139.131 128.776C139.092 128.782 139.268 128.82 139.32 128.828C139.328 128.834 139.332 128.838 139.342 128.845C139.386 128.878 139.44 128.906 139.487 128.937C139.278 128.801 139.49 128.947 139.53 128.987C139.554 129.011 139.576 129.037 139.598 129.062C139.619 129.086 139.637 129.111 139.654 129.138C139.688 129.201 139.725 129.265 139.761 129.326L139.771 129.342C139.77 129.344 139.77 129.346 139.77 129.348C139.789 129.449 139.817 129.547 139.853 129.642C139.855 129.65 139.856 129.659 139.857 129.667C139.86 129.722 139.865 129.776 139.865 129.832L139.865 129.843C139.698 129.756 139.513 129.71 139.326 129.709C139.138 129.707 138.953 129.751 138.785 129.835Z" fill="#2368FF"/>
<path d="M138.825 129.821L138.82 129.822C138.826 129.823 138.824 129.822 138.825 129.821Z" fill="#E6E6E6"/>
<path d="M138.82 129.819L138.822 129.82L138.82 129.819Z" fill="#E6E6E6"/>
<path d="M138.821 129.82C138.825 129.822 138.821 129.821 138.82 129.822L138.821 129.82Z" fill="#E6E6E6"/>
<path d="M183.512 139.91L183.514 139.911L183.512 139.91Z" fill="#E6E6E6"/>
<path d="M187.253 107.65C186.753 106.765 185.956 106.086 185.003 105.733C184.05 105.38 183.002 105.377 182.047 105.723C181.572 105.896 181.136 106.163 180.766 106.508C180.396 106.853 180.099 107.268 179.892 107.729C179.851 107.827 179.827 107.93 179.793 108.031C179.746 108.107 179.69 108.175 179.648 108.254C179.199 109.147 179.077 110.169 179.301 111.143C179.524 112.116 180.081 112.982 180.874 113.589C181.667 114.197 182.648 114.509 183.646 114.472C184.645 114.435 185.599 114.05 186.345 113.385C187.128 112.677 187.646 111.721 187.811 110.678C187.976 109.635 187.779 108.566 187.253 107.65ZM184.545 109.486C184.554 109.541 184.551 109.591 184.545 109.486V109.486ZM184.27 108.86C184.259 108.848 184.26 108.85 184.27 108.86V108.86ZM183.056 109.348C183.04 109.323 183.038 109.319 183.056 109.348V109.348ZM183.344 109.592C183.412 109.616 183.385 109.611 183.344 109.592V109.592ZM183.472 109.653L183.501 109.64C183.494 109.641 183.487 109.64 183.481 109.636L183.481 109.636L183.504 109.639L183.508 109.637L183.495 109.634C183.506 109.634 183.507 109.635 183.508 109.637C183.637 109.578 183.55 109.606 183.475 109.63L183.47 109.628C183.424 109.605 183.374 109.589 183.322 109.581C183.317 109.578 183.311 109.576 183.308 109.573C183.266 109.544 183.057 109.38 183.251 109.552C183.209 109.514 183.167 109.478 183.127 109.438C183.104 109.414 183.083 109.387 183.064 109.36C183.038 109.316 183.014 109.272 182.99 109.227L182.986 109.203C182.983 109.184 182.981 109.175 182.978 109.163C182.979 109.151 182.981 109.138 182.983 109.125C182.998 109.086 183.007 109.045 183.011 109.004L183.019 108.993C183.05 108.95 183.077 108.899 183.107 108.854C182.95 109.092 183.168 108.828 183.184 108.795C183.187 108.789 183.182 108.792 183.184 108.788C183.19 108.785 183.188 108.787 183.196 108.782C183.244 108.754 183.29 108.722 183.339 108.695C183.398 108.662 183.63 108.596 183.39 108.665C183.444 108.649 183.496 108.63 183.552 108.615C183.562 108.613 183.642 108.602 183.686 108.594C183.724 108.593 183.761 108.592 183.765 108.592C183.783 108.592 183.801 108.594 183.819 108.595C183.779 108.6 183.955 108.638 184.008 108.646C184.015 108.652 184.019 108.656 184.03 108.664C184.074 108.696 184.128 108.725 184.175 108.755C183.965 108.62 184.177 108.766 184.217 108.806C184.241 108.83 184.263 108.855 184.286 108.88C184.306 108.904 184.325 108.93 184.341 108.957C184.376 109.019 184.412 109.083 184.448 109.145L184.458 109.161C184.458 109.163 184.458 109.165 184.458 109.167C184.477 109.267 184.504 109.365 184.541 109.461C184.542 109.469 184.544 109.477 184.545 109.485C184.548 109.54 184.553 109.595 184.553 109.65L184.552 109.661C184.386 109.574 184.201 109.528 184.013 109.527C183.825 109.526 183.64 109.569 183.472 109.653Z" fill="#2368FF"/>
<path d="M183.507 139.913L183.504 139.915L183.511 139.913H183.507Z" fill="#E6E6E6"/>
<path d="M183.516 139.912L183.512 139.913C183.517 139.913 183.515 139.912 183.516 139.912Z" fill="#E6E6E6"/>
<path d="M183.513 139.911C183.517 139.912 183.513 139.912 183.512 139.913L183.513 139.911Z" fill="#E6E6E6"/>
<path d="M232.667 163.152C232.167 162.267 231.37 161.588 230.417 161.235C229.464 160.882 228.416 160.879 227.461 161.225C226.986 161.398 226.55 161.665 226.18 162.01C225.81 162.354 225.513 162.77 225.306 163.231C225.265 163.329 225.241 163.432 225.207 163.533C225.16 163.609 225.104 163.677 225.062 163.756C224.613 164.649 224.491 165.671 224.715 166.645C224.939 167.618 225.495 168.484 226.288 169.091C227.081 169.699 228.062 170.011 229.06 169.974C230.059 169.936 231.013 169.552 231.759 168.887C232.542 168.179 233.06 167.223 233.225 166.18C233.39 165.137 233.194 164.068 232.667 163.152ZM229.959 164.988C229.968 165.043 229.965 165.093 229.959 164.988V164.988ZM229.684 164.362C229.673 164.35 229.674 164.352 229.684 164.362V164.362ZM228.47 164.85C228.454 164.825 228.453 164.821 228.47 164.85V164.85ZM228.758 165.094C228.826 165.117 228.799 165.113 228.758 165.094V165.094ZM228.886 165.155L228.915 165.142C228.908 165.143 228.901 165.142 228.895 165.138L228.895 165.138L228.918 165.141L228.922 165.139L228.909 165.136C228.92 165.136 228.921 165.137 228.922 165.139C229.051 165.08 228.964 165.108 228.889 165.131L228.884 165.13C228.838 165.107 228.788 165.091 228.736 165.083C228.731 165.08 228.726 165.078 228.722 165.075C228.68 165.046 228.471 164.882 228.665 165.054C228.623 165.016 228.581 164.98 228.541 164.94C228.518 164.915 228.497 164.889 228.478 164.862C228.452 164.818 228.428 164.774 228.404 164.729L228.4 164.705C228.397 164.685 228.395 164.677 228.392 164.665C228.393 164.653 228.395 164.64 228.397 164.627C228.412 164.588 228.421 164.547 228.425 164.506L228.433 164.495C228.464 164.452 228.491 164.401 228.521 164.356C228.364 164.594 228.582 164.33 228.598 164.297C228.601 164.291 228.596 164.294 228.598 164.29C228.604 164.287 228.602 164.289 228.61 164.284C228.658 164.256 228.704 164.224 228.754 164.197C228.812 164.164 229.044 164.098 228.804 164.167C228.858 164.151 228.91 164.132 228.966 164.117C228.976 164.115 229.056 164.103 229.1 164.096C229.138 164.095 229.175 164.094 229.179 164.094C229.197 164.094 229.215 164.096 229.233 164.097C229.193 164.102 229.37 164.14 229.422 164.148C229.43 164.154 229.433 164.158 229.444 164.166C229.488 164.198 229.542 164.227 229.589 164.257C229.38 164.122 229.591 164.268 229.631 164.308C229.655 164.332 229.677 164.357 229.7 164.382C229.72 164.406 229.739 164.432 229.755 164.459C229.79 164.521 229.826 164.585 229.862 164.647L229.872 164.663C229.872 164.665 229.872 164.667 229.872 164.669C229.891 164.769 229.918 164.867 229.955 164.963C229.956 164.971 229.958 164.979 229.959 164.987C229.962 165.042 229.967 165.097 229.967 165.152L229.966 165.163C229.8 165.076 229.615 165.03 229.427 165.029C229.239 165.028 229.054 165.071 228.886 165.155Z" fill="#E6E6E6"/>
<path d="M228.918 117.568L228.914 117.57L228.921 117.568H228.918Z" fill="#E6E6E6"/>
<path d="M228.926 117.567L228.922 117.568C228.928 117.569 228.926 117.568 228.926 117.567Z" fill="#E6E6E6"/>
<path d="M228.923 117.566C228.927 117.568 228.923 117.568 228.922 117.568L228.923 117.566Z" fill="#E6E6E6"/>
<path d="M228.922 117.565L228.924 117.566L228.922 117.565Z" fill="#E6E6E6"/>
<path d="M275.195 129.995C274.695 129.11 273.897 128.431 272.944 128.078C271.991 127.725 270.944 127.721 269.988 128.068C269.513 128.241 269.078 128.508 268.708 128.853C268.338 129.197 268.04 129.613 267.834 130.074C267.792 130.172 267.768 130.275 267.734 130.376C267.687 130.451 267.631 130.52 267.589 130.599C267.141 131.492 267.018 132.514 267.242 133.487C267.466 134.461 268.022 135.326 268.816 135.934C269.609 136.542 270.589 136.854 271.588 136.817C272.586 136.779 273.54 136.395 274.286 135.73C275.07 135.021 275.587 134.066 275.752 133.023C275.918 131.979 275.721 130.911 275.195 129.995ZM272.486 131.831C272.495 131.886 272.492 131.936 272.486 131.831V131.831ZM272.211 131.205C272.2 131.193 272.202 131.194 272.211 131.205V131.205ZM270.998 131.693C270.981 131.668 270.98 131.664 270.998 131.693V131.693ZM271.285 131.937C271.354 131.96 271.327 131.955 271.285 131.937V131.937ZM271.414 131.998L271.442 131.985C271.435 131.986 271.428 131.984 271.422 131.981L271.423 131.981L271.445 131.984L271.449 131.982L271.436 131.979C271.448 131.978 271.449 131.98 271.45 131.982C271.578 131.923 271.491 131.951 271.417 131.974L271.412 131.973C271.365 131.949 271.315 131.933 271.263 131.926C271.259 131.923 271.253 131.921 271.249 131.918C271.208 131.889 270.998 131.725 271.192 131.897C271.15 131.859 271.108 131.823 271.069 131.782C271.045 131.758 271.024 131.732 271.005 131.704C270.98 131.661 270.955 131.617 270.931 131.572L270.928 131.548C270.924 131.528 270.922 131.52 270.919 131.508C270.921 131.496 270.923 131.482 270.925 131.469C270.939 131.431 270.948 131.39 270.952 131.349L270.96 131.338C270.991 131.295 271.019 131.244 271.048 131.199C270.892 131.437 271.109 131.173 271.126 131.139C271.129 131.134 271.124 131.137 271.125 131.133C271.131 131.129 271.129 131.132 271.137 131.127C271.186 131.099 271.232 131.067 271.281 131.039C271.34 131.007 271.571 130.941 271.331 131.01C271.386 130.994 271.438 130.975 271.493 130.96C271.503 130.958 271.584 130.946 271.627 130.938C271.665 130.937 271.702 130.936 271.706 130.936C271.724 130.937 271.742 130.939 271.76 130.94C271.72 130.945 271.897 130.983 271.949 130.991C271.957 130.997 271.961 131.001 271.971 131.008C272.015 131.041 272.069 131.069 272.116 131.1C271.907 130.965 272.119 131.11 272.159 131.15C272.183 131.174 272.205 131.2 272.227 131.225C272.248 131.249 272.266 131.274 272.283 131.301C272.317 131.364 272.353 131.428 272.389 131.489L272.399 131.505C272.399 131.507 272.399 131.509 272.399 131.511C272.418 131.612 272.446 131.71 272.482 131.805C272.484 131.813 272.485 131.822 272.486 131.83C272.489 131.885 272.494 131.939 272.494 131.995L272.494 132.006C272.327 131.919 272.142 131.873 271.955 131.872C271.767 131.87 271.581 131.914 271.414 131.998Z" fill="#2368FF"/>
<path d="M271.445 131.984L271.441 131.986L271.448 131.984H271.445Z" fill="#E6E6E6"/>
<path d="M271.449 131.982L271.451 131.983L271.449 131.982Z" fill="#E6E6E6"/>
<path d="M271.454 131.983C271.458 131.985 271.454 131.985 271.453 131.985L271.454 131.983Z" fill="#E6E6E6"/>
<path d="M271.454 131.983L271.449 131.984C271.455 131.985 271.453 131.984 271.454 131.983Z" fill="#E6E6E6"/>
<path d="M259.795 165.017L226.28 166.88C226.091 166.891 225.905 166.828 225.761 166.706C225.617 166.584 225.525 166.411 225.504 166.223C225.484 166.034 225.536 165.846 225.651 165.695C225.765 165.544 225.933 165.444 226.12 165.413L260.376 159.839L259.795 165.017Z" fill="#3F3D56"/>
<path d="M302.386 239.633L315.016 218.385L324.351 222.794C324.351 222.794 308.266 242.884 307.753 243.462C307.973 244.438 307.89 245.458 307.518 246.387C307.145 247.316 306.499 248.11 305.665 248.663C304.831 249.217 303.849 249.504 302.848 249.487C301.847 249.471 300.875 249.15 300.06 248.569C299.246 247.988 298.627 247.173 298.285 246.232C297.943 245.291 297.896 244.269 298.148 243.301C298.4 242.332 298.94 241.463 299.697 240.808C300.454 240.153 301.391 239.743 302.386 239.633Z" fill="#FFB6B6"/>
<path d="M307.639 190.274L328.101 200.95C329.38 201.871 330.452 203.049 331.25 204.409C332.047 205.768 332.553 207.279 332.733 208.844C332.914 210.41 332.765 211.996 332.298 213.501C331.831 215.006 331.054 216.397 330.019 217.585L315.912 233.767L309.767 225.44L314.503 215.536L305.332 213.117L307.639 190.274Z" fill="#2368FF"/>
<path d="M249.328 165.364L247.023 189.975L236.699 189.992C236.699 189.992 242.622 164.947 242.838 164.205C242.221 163.417 241.858 162.46 241.797 161.461C241.736 160.462 241.979 159.468 242.495 158.611C243.011 157.753 243.776 157.073 244.687 156.659C245.598 156.245 246.614 156.118 247.599 156.294C248.584 156.47 249.493 156.941 250.205 157.644C250.917 158.348 251.398 159.251 251.585 160.234C251.773 161.217 251.657 162.234 251.254 163.15C250.851 164.066 250.179 164.838 249.328 165.364V165.364Z" fill="#FFB6B6"/>
<path d="M269.876 215.694L246.115 211.336C236.109 210.133 232.003 203.549 233.808 197.128L239.618 176.462L248.739 181.352L248.704 192.33L261.472 190.585L269.876 215.694Z" fill="#2368FF"/>
<path d="M260.153 385.772H253.62L250.512 360.571H260.155L260.153 385.772Z" fill="#FFB6B6"/>
<path d="M260.381 392.588L240.289 392.587V392.333C240.289 390.259 241.113 388.27 242.58 386.803C244.046 385.337 246.035 384.513 248.109 384.513H248.11L251.78 381.729L258.627 384.513L260.381 384.513L260.381 392.588Z" fill="#2F2E41"/>
<path d="M306.38 385.772H312.914L316.022 360.571H306.379L306.38 385.772Z" fill="#FFB6B6"/>
<path d="M306.149 392.588L326.24 392.587V392.333C326.24 390.259 325.416 388.27 323.95 386.803C322.483 385.337 320.494 384.513 318.42 384.513H318.42L314.75 381.729L307.902 384.513L306.148 384.513L306.149 392.588Z" fill="#2F2E41"/>
<path d="M250.22 342.052C250.316 340.614 251.083 332.662 251.083 332.662L252.921 315.797L256.16 271.091L259.047 259.34L273.337 264.907L284.933 259.348L298.716 263.754L309.448 267.778C309.448 267.778 309.466 269.501 309.549 271.582C309.659 274.307 309.852 277.647 310.311 278.515C311.079 280.049 310.886 288.287 310.886 288.287C310.886 288.287 311.648 305.046 312.608 306.884C313.569 308.722 313.762 312.549 313.472 313.316C313.183 314.083 314.432 334.21 314.432 334.21C314.432 334.21 317.64 369.828 315.627 375.198C313.615 380.569 306.011 377.051 306.011 377.051C306.011 377.051 306.379 375.617 304.174 374.942C301.968 374.267 295.252 323.763 295.252 323.763C295.252 323.763 294.002 313.408 292.853 310.44C291.705 307.472 290.648 299.134 290.648 299.134C290.648 299.134 283.555 285.333 283.463 282.264C283.463 282.264 282.535 279.392 281.657 282.553C280.78 285.714 278.193 293.285 278.193 293.285L275.671 302.584L272.703 316.477L270.783 328.173C270.783 328.173 267.907 343.697 267.448 344.368C266.988 345.038 267.448 359.221 267.448 359.221C267.448 359.221 265.224 371.299 262.082 373.408C258.939 375.516 250.614 373.441 250.614 373.441C250.614 373.441 250.123 343.49 250.22 342.052Z" fill="#2F2E41"/>
<path d="M260.902 221.529L259.076 245.185L256.333 248.024C256.086 248.28 255.892 248.584 255.765 248.916C255.638 249.248 255.579 249.603 255.592 249.959C255.604 250.315 255.689 250.664 255.84 250.986C255.991 251.309 256.206 251.597 256.471 251.834L254.96 254.426L254.425 262.593C254.272 263.229 254.262 263.89 254.394 264.53C254.527 265.17 254.799 265.773 255.191 266.295C255.584 266.818 256.087 267.248 256.664 267.553C257.242 267.859 257.88 268.033 258.533 268.064L305.841 270.287C306.49 270.317 307.138 270.205 307.739 269.957C308.34 269.71 308.879 269.334 309.319 268.855C309.758 268.376 310.087 267.807 310.283 267.187C310.478 266.567 310.535 265.912 310.45 265.268L306.427 234.984V232.72L304.626 228.347L305.552 213.697L307.705 190.444L295.19 187.212L288.404 182.543L276.615 182.731L269.462 188.605L259.925 190.099L252.712 191.533L251.793 193.53L253.631 193.13L260.291 219.109L260.902 221.529Z" fill="#2368FF"/>
<path d="M282.246 179.372C289.916 179.372 296.134 173.154 296.134 165.485C296.134 157.815 289.916 151.598 282.246 151.598C274.577 151.598 268.359 157.815 268.359 165.485C268.359 173.154 274.577 179.372 282.246 179.372Z" fill="#FFB6B6"/>
<path d="M278.899 178.475L288.933 177.964C290.218 177.898 291.622 177.784 292.557 176.9C293.06 176.353 293.447 175.711 293.694 175.01C294.622 172.856 295.549 170.701 296.453 168.536C297.703 165.542 298.931 162.381 298.612 159.152C298.537 157.677 297.919 156.283 296.876 155.237C296.344 154.733 295.66 154.42 294.931 154.346C294.202 154.272 293.469 154.442 292.847 154.829C292.692 153.807 292.307 152.835 291.722 151.984C291.136 151.133 290.364 150.427 289.465 149.918C287.649 148.915 285.576 148.476 283.509 148.656C280.511 148.849 277.648 149.977 275.324 151.882C274.67 152.485 273.972 153.038 273.235 153.537C272.865 153.784 272.448 153.954 272.01 154.035C271.571 154.116 271.121 154.107 270.687 154.008C270.256 153.893 269.882 153.626 269.633 153.257C269.384 152.887 269.277 152.44 269.333 151.998C268.626 152.526 268.142 153.299 267.974 154.165C267.806 155.031 267.967 155.929 268.425 156.683C267.904 156.901 267.336 156.981 266.775 156.915C266.214 156.848 265.68 156.638 265.224 156.304C264.736 156.546 264.304 156.888 263.956 157.307C263.607 157.726 263.35 158.212 263.201 158.736C263.051 159.26 263.013 159.81 263.088 160.349C263.163 160.889 263.351 161.407 263.637 161.87C263.924 162.333 264.305 162.731 264.755 163.039C265.204 163.347 265.713 163.557 266.249 163.656C266.785 163.756 267.335 163.742 267.865 163.617C268.395 163.491 268.894 163.256 269.328 162.927C269.937 163.78 269.71 164.939 269.631 165.984C269.551 167.029 269.831 168.328 270.839 168.617C272.201 169.007 273.304 167.173 274.721 167.193C275.07 167.221 275.407 167.336 275.702 167.526C275.997 167.715 276.24 167.975 276.41 168.282C276.744 168.898 276.973 169.565 277.086 170.256L278.9 178.419" fill="#2F2E41"/>
<path d="M670.117 303.344C670.117 301.193 669.395 299.448 668.508 299.444H426.788C425.897 299.448 425.179 301.193 425.175 303.344V391.866C425.175 392.066 425.101 392.258 424.967 392.406C424.832 392.554 424.648 392.646 424.449 392.666C423.8 392.728 423.152 392.786 422.503 392.84C422.487 392.84 422.471 392.844 422.455 392.844C422.102 392.876 421.749 392.9 421.396 392.928H421.392C421.21 392.592 421.03 392.253 420.853 391.912C420.793 391.797 420.762 391.669 420.762 391.539V298.284C420.762 297.691 420.786 297.093 420.826 296.503C420.883 295.693 420.984 294.887 421.127 294.088C421.805 290.361 423.337 287.837 425.079 287.829H670.213C670.467 287.831 670.718 287.884 670.951 287.986C671.293 288.137 671.603 288.354 671.862 288.623C672.214 288.989 672.515 289.401 672.757 289.847C673.756 291.838 674.331 294.014 674.446 296.238C674.446 296.262 674.45 296.286 674.45 296.31C674.506 296.96 674.534 297.622 674.53 298.284L674.586 306.882L674.622 312.009L674.731 328.098L674.771 333.811L674.947 392.467C674.947 392.679 674.863 392.883 674.712 393.034C674.562 393.184 674.358 393.269 674.145 393.269H670.919C670.706 393.269 670.502 393.184 670.352 393.034C670.201 392.883 670.117 392.679 670.117 392.467V303.344Z" fill="#E6E6E6"/>
<path d="M604.433 247.598H578.388C578.019 247.598 577.666 247.745 577.406 248.006C577.146 248.267 577 248.62 577 248.989V290.133H605.824V248.989C605.825 248.806 605.789 248.625 605.719 248.456C605.649 248.287 605.546 248.134 605.417 248.005C605.288 247.876 605.135 247.773 604.966 247.703C604.797 247.633 604.616 247.598 604.433 247.598ZM591.498 270.976C590.684 270.972 589.903 270.646 589.328 270.071C588.752 269.495 588.426 268.714 588.423 267.9V263.154C588.423 262.339 588.747 261.556 589.323 260.98C589.9 260.403 590.682 260.079 591.498 260.079C592.314 260.079 593.096 260.403 593.673 260.98C594.25 261.556 594.574 262.339 594.574 263.154V267.9C594.57 268.714 594.245 269.495 593.669 270.071C593.093 270.646 592.313 270.972 591.498 270.976Z" fill="#CCCCCC"/>
<path d="M576.91 288.818V292.788C576.911 292.994 576.992 293.191 577.138 293.336C577.283 293.482 577.481 293.564 577.686 293.564H605.137C605.343 293.563 605.54 293.481 605.685 293.336C605.83 293.19 605.912 292.993 605.913 292.788V288.818H576.91Z" fill="#3F3D56"/>
<path d="M647.565 183.388H536.23C535.273 183.389 534.356 183.77 533.68 184.446C533.003 185.123 532.623 186.04 532.621 186.996V262.126C532.622 263.083 533.003 264 533.679 264.676C534.356 265.353 535.273 265.733 536.23 265.734H647.565C648.522 265.733 649.439 265.353 650.116 264.676C650.792 264 651.173 263.083 651.173 262.126V186.996C651.172 186.04 650.791 185.123 650.115 184.446C649.439 183.77 648.522 183.389 647.565 183.388Z" fill="#E6E6E6"/>
<path d="M646.632 185.994H537.156C536.644 185.995 536.153 186.199 535.792 186.562C535.43 186.925 535.227 187.416 535.227 187.928V261.195C535.227 261.707 535.431 262.197 535.793 262.559C536.154 262.921 536.645 263.124 537.156 263.125H646.632C647.144 263.124 647.634 262.921 647.996 262.559C648.358 262.197 648.561 261.707 648.562 261.195V187.928C648.562 187.416 648.359 186.925 647.997 186.562C647.635 186.199 647.144 185.995 646.632 185.994Z" fill="white"/>
<path d="M625.311 294.945H560.179C560 294.945 559.824 294.905 559.663 294.829C559.502 294.752 559.361 294.64 559.248 294.502C559.136 294.364 559.056 294.202 559.014 294.028C558.972 293.855 558.969 293.675 559.006 293.5L560.017 288.7C560.074 288.432 560.222 288.191 560.435 288.018C560.648 287.845 560.914 287.75 561.189 287.749H624.3C624.575 287.75 624.841 287.845 625.054 288.018C625.267 288.191 625.415 288.432 625.473 288.7L626.483 293.5C626.52 293.675 626.517 293.855 626.476 294.028C626.434 294.202 626.354 294.364 626.241 294.502C626.129 294.64 625.987 294.752 625.826 294.829C625.665 294.905 625.489 294.945 625.311 294.945Z" fill="#CCCCCC"/>
<path d="M563.303 288.613H562C561.806 288.613 561.648 288.771 561.648 288.965V289.465C561.648 289.659 561.806 289.817 562 289.817H563.303C563.497 289.817 563.654 289.659 563.654 289.465V288.965C563.654 288.771 563.497 288.613 563.303 288.613Z" fill="#E6E6E6"/>
<path d="M567.314 288.613H566.012C565.818 288.613 565.66 288.771 565.66 288.965V289.465C565.66 289.659 565.818 289.817 566.012 289.817H567.314C567.509 289.817 567.666 289.659 567.666 289.465V288.965C567.666 288.771 567.509 288.613 567.314 288.613Z" fill="#E6E6E6"/>
<path d="M571.326 288.613H570.024C569.829 288.613 569.672 288.771 569.672 288.965V289.465C569.672 289.659 569.829 289.817 570.024 289.817H571.326C571.52 289.817 571.678 289.659 571.678 289.465V288.965C571.678 288.771 571.52 288.613 571.326 288.613Z" fill="#E6E6E6"/>
<path d="M575.342 288.613H574.039C573.845 288.613 573.688 288.771 573.688 288.965V289.465C573.688 289.659 573.845 289.817 574.039 289.817H575.342C575.536 289.817 575.693 289.659 575.693 289.465V288.965C575.693 288.771 575.536 288.613 575.342 288.613Z" fill="#E6E6E6"/>
<path d="M579.353 288.613H578.051C577.857 288.613 577.699 288.771 577.699 288.965V289.465C577.699 289.659 577.857 289.817 578.051 289.817H579.353C579.548 289.817 579.705 289.659 579.705 289.465V288.965C579.705 288.771 579.548 288.613 579.353 288.613Z" fill="#E6E6E6"/>
<path d="M583.365 288.613H582.063C581.868 288.613 581.711 288.771 581.711 288.965V289.465C581.711 289.659 581.868 289.817 582.063 289.817H583.365C583.559 289.817 583.717 289.659 583.717 289.465V288.965C583.717 288.771 583.559 288.613 583.365 288.613Z" fill="#E6E6E6"/>
<path d="M587.377 288.613H586.075C585.88 288.613 585.723 288.771 585.723 288.965V289.465C585.723 289.659 585.88 289.817 586.075 289.817H587.377C587.571 289.817 587.729 289.659 587.729 289.465V288.965C587.729 288.771 587.571 288.613 587.377 288.613Z" fill="#E6E6E6"/>
<path d="M591.388 288.613H590.086C589.892 288.613 589.734 288.771 589.734 288.965V289.465C589.734 289.659 589.892 289.817 590.086 289.817H591.388C591.583 289.817 591.74 289.659 591.74 289.465V288.965C591.74 288.771 591.583 288.613 591.388 288.613Z" fill="#E6E6E6"/>
<path d="M595.4 288.613H594.098C593.904 288.613 593.746 288.771 593.746 288.965V289.465C593.746 289.659 593.904 289.817 594.098 289.817H595.4C595.595 289.817 595.752 289.659 595.752 289.465V288.965C595.752 288.771 595.595 288.613 595.4 288.613Z" fill="#E6E6E6"/>
<path d="M599.408 288.613H598.106C597.911 288.613 597.754 288.771 597.754 288.965V289.465C597.754 289.659 597.911 289.817 598.106 289.817H599.408C599.602 289.817 599.76 289.659 599.76 289.465V288.965C599.76 288.771 599.602 288.613 599.408 288.613Z" fill="#E6E6E6"/>
<path d="M603.424 288.613H602.121C601.927 288.613 601.77 288.771 601.77 288.965V289.465C601.77 289.659 601.927 289.817 602.121 289.817H603.424C603.618 289.817 603.776 289.659 603.776 289.465V288.965C603.776 288.771 603.618 288.613 603.424 288.613Z" fill="#E6E6E6"/>
<path d="M607.435 288.613H606.133C605.939 288.613 605.781 288.771 605.781 288.965V289.465C605.781 289.659 605.939 289.817 606.133 289.817H607.435C607.63 289.817 607.787 289.659 607.787 289.465V288.965C607.787 288.771 607.63 288.613 607.435 288.613Z" fill="#E6E6E6"/>
<path d="M611.447 288.613H610.145C609.951 288.613 609.793 288.771 609.793 288.965V289.465C609.793 289.659 609.951 289.817 610.145 289.817H611.447C611.641 289.817 611.799 289.659 611.799 289.465V288.965C611.799 288.771 611.641 288.613 611.447 288.613Z" fill="#E6E6E6"/>
<path d="M615.459 288.613H614.157C613.962 288.613 613.805 288.771 613.805 288.965V289.465C613.805 289.659 613.962 289.817 614.157 289.817H615.459C615.653 289.817 615.811 289.659 615.811 289.465V288.965C615.811 288.771 615.653 288.613 615.459 288.613Z" fill="#E6E6E6"/>
<path d="M619.474 288.613H618.172C617.978 288.613 617.82 288.771 617.82 288.965V289.465C617.82 289.659 617.978 289.817 618.172 289.817H619.474C619.669 289.817 619.826 289.659 619.826 289.465V288.965C619.826 288.771 619.669 288.613 619.474 288.613Z" fill="#E6E6E6"/>
<path d="M623.486 288.613H622.184C621.99 288.613 621.832 288.771 621.832 288.965V289.465C621.832 289.659 621.99 289.817 622.184 289.817H623.486C623.68 289.817 623.838 289.659 623.838 289.465V288.965C623.838 288.771 623.68 288.613 623.486 288.613Z" fill="#E6E6E6"/>
<path d="M563.26 290.619H561.957C561.763 290.619 561.605 290.777 561.605 290.971V291.471C561.605 291.665 561.763 291.823 561.957 291.823H563.26C563.454 291.823 563.612 291.665 563.612 291.471V290.971C563.612 290.777 563.454 290.619 563.26 290.619Z" fill="#E6E6E6"/>
<path d="M567.267 290.619H565.965C565.771 290.619 565.613 290.777 565.613 290.971V291.471C565.613 291.665 565.771 291.823 565.965 291.823H567.267C567.462 291.823 567.619 291.665 567.619 291.471V290.971C567.619 290.777 567.462 290.619 567.267 290.619Z" fill="#E6E6E6"/>
<path d="M571.279 290.619H569.977C569.783 290.619 569.625 290.777 569.625 290.971V291.471C569.625 291.665 569.783 291.823 569.977 291.823H571.279C571.473 291.823 571.631 291.665 571.631 291.471V290.971C571.631 290.777 571.473 290.619 571.279 290.619Z" fill="#E6E6E6"/>
<path d="M575.291 290.619H573.989C573.794 290.619 573.637 290.777 573.637 290.971V291.471C573.637 291.665 573.794 291.823 573.989 291.823H575.291C575.485 291.823 575.643 291.665 575.643 291.471V290.971C575.643 290.777 575.485 290.619 575.291 290.619Z" fill="#E6E6E6"/>
<path d="M579.303 290.619H578C577.806 290.619 577.648 290.777 577.648 290.971V291.471C577.648 291.665 577.806 291.823 578 291.823H579.303C579.497 291.823 579.654 291.665 579.654 291.471V290.971C579.654 290.777 579.497 290.619 579.303 290.619Z" fill="#E6E6E6"/>
<path d="M583.314 290.619H582.012C581.818 290.619 581.66 290.777 581.66 290.971V291.471C581.66 291.665 581.818 291.823 582.012 291.823H583.314C583.509 291.823 583.666 291.665 583.666 291.471V290.971C583.666 290.777 583.509 290.619 583.314 290.619Z" fill="#E6E6E6"/>
<path d="M587.33 290.619H586.028C585.833 290.619 585.676 290.777 585.676 290.971V291.471C585.676 291.665 585.833 291.823 586.028 291.823H587.33C587.524 291.823 587.682 291.665 587.682 291.471V290.971C587.682 290.777 587.524 290.619 587.33 290.619Z" fill="#E6E6E6"/>
<path d="M591.342 290.619H590.039C589.845 290.619 589.688 290.777 589.688 290.971V291.471C589.688 291.665 589.845 291.823 590.039 291.823H591.342C591.536 291.823 591.694 291.665 591.694 291.471V290.971C591.694 290.777 591.536 290.619 591.342 290.619Z" fill="#E6E6E6"/>
<path d="M595.353 290.619H594.051C593.857 290.619 593.699 290.777 593.699 290.971V291.471C593.699 291.665 593.857 291.823 594.051 291.823H595.353C595.548 291.823 595.705 291.665 595.705 291.471V290.971C595.705 290.777 595.548 290.619 595.353 290.619Z" fill="#E6E6E6"/>
<path d="M599.365 290.619H598.063C597.869 290.619 597.711 290.777 597.711 290.971V291.471C597.711 291.665 597.869 291.823 598.063 291.823H599.365C599.559 291.823 599.717 291.665 599.717 291.471V290.971C599.717 290.777 599.559 290.619 599.365 290.619Z" fill="#E6E6E6"/>
<path d="M603.373 290.619H602.071C601.876 290.619 601.719 290.777 601.719 290.971V291.471C601.719 291.665 601.876 291.823 602.071 291.823H603.373C603.567 291.823 603.725 291.665 603.725 291.471V290.971C603.725 290.777 603.567 290.619 603.373 290.619Z" fill="#E6E6E6"/>
<path d="M607.385 290.619H606.082C605.888 290.619 605.73 290.777 605.73 290.971V291.471C605.73 291.665 605.888 291.823 606.082 291.823H607.385C607.579 291.823 607.737 291.665 607.737 291.471V290.971C607.737 290.777 607.579 290.619 607.385 290.619Z" fill="#E6E6E6"/>
<path d="M611.4 290.619H610.098C609.904 290.619 609.746 290.777 609.746 290.971V291.471C609.746 291.665 609.904 291.823 610.098 291.823H611.4C611.595 291.823 611.752 291.665 611.752 291.471V290.971C611.752 290.777 611.595 290.619 611.4 290.619Z" fill="#E6E6E6"/>
<path d="M615.412 290.619H614.11C613.915 290.619 613.758 290.777 613.758 290.971V291.471C613.758 291.665 613.915 291.823 614.11 291.823H615.412C615.606 291.823 615.764 291.665 615.764 291.471V290.971C615.764 290.777 615.606 290.619 615.412 290.619Z" fill="#E6E6E6"/>
<path d="M619.428 290.619H618.125C617.931 290.619 617.773 290.777 617.773 290.971V291.471C617.773 291.665 617.931 291.823 618.125 291.823H619.428C619.622 291.823 619.779 291.665 619.779 291.471V290.971C619.779 290.777 619.622 290.619 619.428 290.619Z" fill="#E6E6E6"/>
<path d="M623.439 290.619H622.137C621.943 290.619 621.785 290.777 621.785 290.971V291.471C621.785 291.665 621.943 291.823 622.137 291.823H623.439C623.634 291.823 623.791 291.665 623.791 291.471V290.971C623.791 290.777 623.634 290.619 623.439 290.619Z" fill="#E6E6E6"/>
<path d="M596.556 293.026H581.211C581.017 293.026 580.859 293.184 580.859 293.378V293.878C580.859 294.072 581.017 294.23 581.211 294.23H596.556C596.75 294.23 596.907 294.072 596.907 293.878V293.378C596.907 293.184 596.75 293.026 596.556 293.026Z" fill="#E6E6E6"/>
<path d="M641.131 196.089H538.695C538.589 196.087 538.487 196.043 538.413 195.967C538.339 195.891 538.297 195.788 538.297 195.682C538.297 195.575 538.339 195.473 538.413 195.397C538.487 195.321 538.589 195.277 538.695 195.274H641.131C641.238 195.277 641.339 195.321 641.414 195.397C641.488 195.473 641.53 195.575 641.53 195.682C641.53 195.788 641.488 195.891 641.414 195.967C641.339 196.043 641.238 196.087 641.131 196.089Z" fill="#CACACA"/>
<path d="M545.665 193.194C546.983 193.194 548.052 192.101 548.052 190.753C548.052 189.405 546.983 188.312 545.665 188.312C544.346 188.312 543.277 189.405 543.277 190.753C543.277 192.101 544.346 193.194 545.665 193.194Z" fill="#CCCCCC"/>
<path d="M553.915 193.194C555.233 193.194 556.302 192.101 556.302 190.753C556.302 189.405 555.233 188.312 553.915 188.312C552.596 188.312 551.527 189.405 551.527 190.753C551.527 192.101 552.596 193.194 553.915 193.194Z" fill="#CCCCCC"/>
<path d="M562.161 193.194C563.479 193.194 564.548 192.101 564.548 190.753C564.548 189.405 563.479 188.312 562.161 188.312C560.842 188.312 559.773 189.405 559.773 190.753C559.773 192.101 560.842 193.194 562.161 193.194Z" fill="#CCCCCC"/>
<path d="M636.164 188.917H630.306C630.19 188.919 630.079 188.967 629.998 189.05C629.917 189.133 629.871 189.244 629.871 189.361C629.871 189.477 629.917 189.588 629.998 189.671C630.079 189.754 630.19 189.802 630.306 189.804H636.164C636.28 189.802 636.391 189.754 636.472 189.671C636.554 189.588 636.599 189.477 636.599 189.361C636.599 189.244 636.554 189.133 636.472 189.05C636.391 188.967 636.28 188.919 636.164 188.917H636.164Z" fill="#CCCCCC"/>
<path d="M636.164 190.583H630.306C630.19 190.585 630.079 190.633 629.998 190.716C629.917 190.799 629.871 190.91 629.871 191.027C629.871 191.143 629.917 191.254 629.998 191.337C630.079 191.42 630.19 191.468 630.306 191.47H636.164C636.28 191.468 636.391 191.42 636.472 191.337C636.553 191.254 636.599 191.143 636.599 191.027C636.599 190.91 636.553 190.799 636.472 190.716C636.391 190.633 636.28 190.585 636.164 190.583H636.164Z" fill="#CCCCCC"/>
<path d="M636.164 192.246H630.306C630.19 192.248 630.079 192.296 629.998 192.379C629.917 192.462 629.871 192.574 629.871 192.69C629.871 192.806 629.917 192.917 629.998 193C630.079 193.083 630.19 193.131 630.306 193.133H636.164C636.28 193.131 636.391 193.083 636.472 193C636.554 192.917 636.599 192.806 636.599 192.69C636.599 192.574 636.554 192.462 636.472 192.379C636.391 192.296 636.28 192.248 636.164 192.246H636.164Z" fill="#CCCCCC"/>
<path d="M598.185 218.282H585.385C584.424 218.282 583.645 219.062 583.645 220.023C583.645 220.984 584.424 221.764 585.385 221.764H598.185C599.147 221.764 599.926 220.984 599.926 220.023C599.926 219.062 599.147 218.282 598.185 218.282Z" fill="#2368FF"/>
<path d="M606.45 225.246H577.112C576.15 225.246 575.371 226.025 575.371 226.987C575.371 227.948 576.15 228.728 577.112 228.728H606.45C607.411 228.728 608.19 227.948 608.19 226.987C608.19 226.025 607.411 225.246 606.45 225.246Z" fill="#E6E6E6"/>
<path d="M606.45 232.209H577.112C576.15 232.209 575.371 232.988 575.371 233.95C575.371 234.911 576.15 235.691 577.112 235.691H606.45C607.411 235.691 608.19 234.911 608.19 233.95C608.19 232.988 607.411 232.209 606.45 232.209Z" fill="#E6E6E6"/>
<path d="M408.799 340.689L402.898 337.866L411.004 313.202L419.713 317.367L408.799 340.689Z" fill="#FFB6B6"/>
<path d="M448.359 336.712C447.93 336.981 447.501 337.245 447.068 337.51C446.205 338.038 445.334 338.559 444.463 339.07C444.025 339.326 443.583 339.581 443.145 339.833V339.846L443.119 339.85L443.111 339.854L442.443 340.019L441.485 337.488L441.043 336.322L440.419 334.671L439.275 331.65L433.25 315.743L442.616 313.433L442.967 314.867H442.972L443.145 315.578L446.418 328.85L447.085 331.563L447.107 331.645L447.51 333.266L447.857 334.671L448.242 336.24L448.359 336.712Z" fill="#FFB6B6"/>
<path d="M504.234 280.852C503.64 281.805 503.033 282.754 502.422 283.695C501.286 285.446 500.12 287.171 498.924 288.87C498.924 288.874 498.92 288.875 498.915 288.879C498.218 289.525 497.447 290.088 496.618 290.556C496.584 290.582 496.545 290.6 496.51 290.621C495.9 290.958 495.251 291.219 494.577 291.397C494.334 291.458 494.087 291.518 493.844 291.579C492.969 291.787 492.102 291.965 491.239 292.121C489.705 292.394 488.188 292.589 486.68 292.71C486.558 292.723 486.437 292.732 486.316 292.741C480.113 293.196 474.076 292.463 467.774 291.263C464.661 290.673 461.484 289.967 458.195 289.234C457.12 288.991 456.041 288.753 454.948 288.515C454.866 288.497 454.779 288.476 454.693 288.458C453.132 288.116 451.546 287.778 449.921 287.444C447.875 287.024 445.764 286.616 443.571 286.231L443.727 289.321C443.857 291.698 444.351 294.041 445.192 296.269C446.128 299.008 446.869 301.175 445.305 305.687L444.55 307.872C444.941 308.956 445.075 310.117 444.942 311.262C444.809 312.408 444.412 313.507 443.783 314.473L443.631 314.703L449.921 330.614L450.328 331.645H447.108L443.146 331.65H436.432L426.745 312.215L426.281 311.287V311.239L427.282 273.891C427.295 273.561 427.321 273.228 427.365 272.898C427.541 271.401 428.014 269.953 428.756 268.641C429.498 267.328 430.494 266.176 431.686 265.253C432.828 264.36 434.136 263.703 435.535 263.321C436.933 262.938 438.393 262.838 439.83 263.025L443.146 263.454L449.92 264.329L454.693 264.949L454.788 264.962L468.861 266.783L469.871 262.665L470.058 262.596L475.983 260.424L496.475 252.913L496.527 252.895L497.875 252.401L498.036 252.661C498.083 252.739 498.131 252.817 498.174 252.895C499.507 255.284 500.591 257.802 501.412 260.411C502.792 264.673 503.928 269.01 504.814 273.401C504.853 273.592 504.888 273.765 504.918 273.921L504.931 273.969C504.944 274.043 504.953 274.09 504.957 274.103C505.364 276.376 505.113 278.717 504.234 280.852Z" fill="#2F2E41"/>
<path d="M505.101 267.087C505.036 266.809 504.954 266.528 504.867 266.254C504.179 264.186 503.377 262.158 502.466 260.178C501.443 257.924 500.216 255.51 498.756 252.896C498.049 251.631 497.289 250.314 496.476 248.948C496.069 248.263 495.645 247.565 495.206 246.854C495.189 246.821 495.17 246.79 495.15 246.759L495.024 246.551L474.748 249.264L467.198 250.274L466.747 254.036L466.639 254.968C466.634 254.968 466.634 254.968 466.639 254.972L466.335 257.512V257.517L465.932 260.871L465.898 260.867L454.693 259.415L443.147 257.92L436.944 257.118C435.507 256.931 434.047 257.031 432.649 257.413C431.25 257.796 429.942 258.453 428.8 259.346C427.609 260.27 426.613 261.421 425.871 262.734C425.129 264.047 424.656 265.494 424.479 266.991C424.44 267.295 424.414 267.607 424.401 267.915L418.55 281.78C415.048 290.072 412.818 298.845 411.936 307.803L407.645 321.521L408.256 321.577L417.349 322.423L419.75 322.648L425.038 314.929C425.641 314.049 426.213 313.143 426.746 312.215C427.624 310.701 428.404 309.131 429.082 307.517L440.52 280.298C441.404 280.449 442.28 280.594 443.147 280.731C447.156 281.381 451.005 281.911 454.693 282.322C466.686 283.661 477.071 283.765 486.316 282.63C488.913 282.313 491.422 281.897 493.845 281.381C494.734 281.195 495.611 280.994 496.476 280.779C496.68 280.731 496.879 280.683 497.078 280.631C498.87 280.169 500.517 279.266 501.868 278.003C503.22 276.74 504.233 275.158 504.815 273.402C505.51 271.367 505.609 269.176 505.101 267.087Z" fill="#2F2E41"/>
<path d="M410.685 336.66L404.301 333.6L403.3 333.119L401.7 337.046L390.535 339.504C389.983 339.625 389.484 339.919 389.111 340.344C388.739 340.769 388.511 341.301 388.463 341.864C388.414 342.428 388.547 342.991 388.842 343.474C389.137 343.956 389.578 344.331 390.102 344.544L401.011 348.996L404.474 345.879L403.625 350.062L407.734 351.739L412.237 337.406L410.685 336.66Z" fill="#2F2E41"/>
<path d="M449.918 330.613L450.326 331.645H449.918V330.613Z" fill="#2F2E41"/>
<path d="M447.7 331.865L441.01 334.183L439.96 334.545L441.587 338.461L435.382 348.063C435.075 348.538 434.928 349.098 434.962 349.662C434.996 350.226 435.209 350.765 435.571 351.199C435.933 351.633 436.424 351.94 436.973 352.075C437.522 352.21 438.099 352.167 438.621 351.95L449.505 347.437L449.773 342.786L452.113 346.356L456.213 344.656L449.327 331.303L447.7 331.865Z" fill="#2F2E41"/>
<path d="M407.092 188.455C407.409 189.073 407.858 189.614 408.407 190.039C408.956 190.465 409.591 190.765 410.269 190.919C410.946 191.072 411.649 191.076 412.328 190.928C413.007 190.781 413.645 190.486 414.197 190.065L428.265 199.404L428.291 190.63L414.929 183.107C414.16 182.225 413.095 181.656 411.935 181.508C410.775 181.359 409.601 181.641 408.635 182.3C407.669 182.959 406.979 183.95 406.694 185.084C406.41 186.218 406.551 187.418 407.092 188.455V188.455Z" fill="#FFB6B6"/>
<path d="M417.602 192.511L424.165 185.044L450.888 200.909L486.313 197.664C488.064 197.504 489.829 197.731 491.482 198.33C493.136 198.928 494.637 199.883 495.88 201.127C497.123 202.371 498.076 203.874 498.673 205.527C499.27 207.181 499.495 208.947 499.333 210.697C499.037 213.86 497.499 216.775 495.056 218.804C492.612 220.833 489.464 221.811 486.301 221.521L446.404 217.828L417.602 192.511Z" fill="#CCCCCC"/>
<path d="M499.826 192.625L499.764 192.548C494.781 192.056 489.762 193.021 485.315 195.325C480.869 197.628 477.187 201.172 474.715 205.527L471.708 210.823C461.984 222.712 469.05 230.91 469.473 232.129L466.098 247.693L466.854 252.901L467.232 254.448L505.762 274.581C507.956 264.041 505.835 255.06 497.843 248.199L505.575 224.14C507.29 218.82 507.662 213.159 506.659 207.66C505.656 202.162 503.308 196.997 499.826 192.625Z" fill="#CCCCCC"/>
<path d="M469.186 309.51H456.827C456.147 309.509 455.49 309.264 454.977 308.818C454.464 308.372 454.129 307.756 454.033 307.083C453.27 301.467 453.27 295.774 454.033 290.159C454.128 289.494 454.456 288.884 454.959 288.439C455.462 287.995 456.108 287.744 456.779 287.732C460.668 285.989 464.856 285.989 469.228 287.732C469.636 287.737 470.037 287.832 470.404 288.009C470.77 288.186 471.094 288.441 471.352 288.756C471.621 289.084 471.813 289.468 471.915 289.879C472.017 290.291 472.026 290.72 471.941 291.136C470.948 296.076 470.948 301.165 471.941 306.106C472.026 306.521 472.017 306.951 471.915 307.362C471.813 307.774 471.621 308.158 471.352 308.486C471.09 308.807 470.759 309.065 470.384 309.242C470.01 309.419 469.6 309.511 469.186 309.51Z" fill="#2368FF"/>
<path d="M467.894 294.184H457.492C457.406 294.185 457.321 294.169 457.241 294.136C457.162 294.104 457.089 294.056 457.028 293.996C456.967 293.935 456.919 293.863 456.886 293.784C456.853 293.705 456.836 293.62 456.836 293.534C456.836 293.448 456.853 293.363 456.886 293.284C456.919 293.205 456.967 293.133 457.028 293.072C457.089 293.012 457.162 292.964 457.241 292.932C457.321 292.899 457.406 292.883 457.492 292.884H467.894C467.98 292.883 468.065 292.899 468.145 292.932C468.224 292.964 468.297 293.012 468.358 293.072C468.419 293.133 468.467 293.205 468.5 293.284C468.533 293.363 468.55 293.448 468.55 293.534C468.55 293.62 468.533 293.705 468.5 293.784C468.467 293.863 468.419 293.935 468.358 293.996C468.297 294.056 468.224 294.104 468.145 294.136C468.065 294.169 467.98 294.185 467.894 294.184Z" fill="white"/>
<path d="M467.894 299.385H457.492C457.406 299.386 457.321 299.37 457.241 299.337C457.162 299.305 457.089 299.257 457.028 299.197C456.967 299.136 456.919 299.065 456.886 298.985C456.853 298.906 456.836 298.821 456.836 298.735C456.836 298.649 456.853 298.564 456.886 298.485C456.919 298.406 456.967 298.334 457.028 298.273C457.089 298.213 457.162 298.165 457.241 298.133C457.321 298.1 457.406 298.084 457.492 298.085H467.894C467.98 298.084 468.065 298.1 468.145 298.133C468.224 298.165 468.297 298.213 468.358 298.273C468.419 298.334 468.467 298.406 468.5 298.485C468.533 298.564 468.55 298.649 468.55 298.735C468.55 298.821 468.533 298.906 468.5 298.985C468.467 299.065 468.419 299.136 468.358 299.197C468.297 299.257 468.224 299.305 468.145 299.337C468.065 299.37 467.98 299.386 467.894 299.385Z" fill="white"/>
<path d="M467.895 304.587H457.492C457.406 304.588 457.321 304.572 457.242 304.54C457.162 304.507 457.09 304.46 457.029 304.399C456.968 304.339 456.919 304.267 456.886 304.187C456.853 304.108 456.836 304.023 456.836 303.937C456.836 303.851 456.853 303.766 456.886 303.687C456.919 303.608 456.968 303.536 457.029 303.475C457.09 303.415 457.162 303.367 457.242 303.335C457.321 303.303 457.406 303.286 457.492 303.287H467.895C467.98 303.286 468.066 303.303 468.145 303.335C468.225 303.367 468.297 303.415 468.358 303.475C468.419 303.536 468.468 303.608 468.501 303.687C468.534 303.766 468.551 303.851 468.551 303.937C468.551 304.023 468.534 304.108 468.501 304.187C468.468 304.267 468.419 304.339 468.358 304.399C468.297 304.46 468.225 304.507 468.145 304.54C468.066 304.572 467.98 304.588 467.895 304.587Z" fill="white"/>
<path d="M409.362 192.738H397.002C396.323 192.738 395.666 192.492 395.153 192.046C394.64 191.601 394.305 190.984 394.209 190.311C393.446 184.696 393.446 179.003 394.209 173.387C394.303 172.722 394.632 172.113 395.135 171.668C395.638 171.223 396.284 170.972 396.955 170.961C400.844 169.218 405.031 169.218 409.404 170.96C409.811 170.966 410.212 171.06 410.579 171.237C410.946 171.414 411.27 171.669 411.528 171.984C411.796 172.312 411.989 172.696 412.091 173.108C412.193 173.52 412.202 173.949 412.117 174.364C411.124 179.305 411.124 184.394 412.117 189.334C412.202 189.75 412.193 190.179 412.091 190.591C411.989 191.002 411.796 191.386 411.528 191.714C411.265 192.035 410.935 192.293 410.56 192.471C410.185 192.648 409.776 192.739 409.362 192.738Z" fill="#2368FF"/>
<path d="M408.066 177.413H397.664C397.578 177.413 397.493 177.397 397.413 177.365C397.334 177.332 397.261 177.285 397.2 177.224C397.139 177.164 397.091 177.092 397.058 177.013C397.025 176.933 397.008 176.848 397.008 176.762C397.008 176.677 397.025 176.592 397.058 176.512C397.091 176.433 397.139 176.361 397.2 176.301C397.261 176.24 397.334 176.192 397.413 176.16C397.493 176.128 397.578 176.112 397.664 176.112H408.066C408.152 176.112 408.237 176.128 408.317 176.16C408.396 176.192 408.468 176.24 408.529 176.301C408.59 176.361 408.639 176.433 408.672 176.512C408.705 176.592 408.722 176.677 408.722 176.762C408.722 176.848 408.705 176.933 408.672 177.013C408.639 177.092 408.59 177.164 408.529 177.224C408.468 177.285 408.396 177.332 408.317 177.365C408.237 177.397 408.152 177.413 408.066 177.413Z" fill="white"/>
<path d="M408.066 182.615H397.664C397.578 182.616 397.493 182.599 397.413 182.567C397.334 182.535 397.261 182.487 397.2 182.426C397.139 182.366 397.091 182.294 397.058 182.215C397.025 182.136 397.008 182.05 397.008 181.965C397.008 181.879 397.025 181.794 397.058 181.715C397.091 181.635 397.139 181.563 397.2 181.503C397.261 181.442 397.334 181.395 397.413 181.362C397.493 181.33 397.578 181.314 397.664 181.314H408.066C408.152 181.314 408.237 181.33 408.317 181.362C408.396 181.395 408.468 181.442 408.529 181.503C408.59 181.563 408.639 181.635 408.672 181.715C408.705 181.794 408.722 181.879 408.722 181.965C408.722 182.05 408.705 182.136 408.672 182.215C408.639 182.294 408.59 182.366 408.529 182.426C408.468 182.487 408.396 182.535 408.317 182.567C408.237 182.599 408.152 182.616 408.066 182.615Z" fill="white"/>
<path d="M408.066 187.815H397.664C397.578 187.816 397.493 187.8 397.413 187.767C397.334 187.735 397.261 187.687 397.2 187.627C397.139 187.566 397.091 187.494 397.058 187.415C397.025 187.336 397.008 187.251 397.008 187.165C397.008 187.079 397.025 186.994 397.058 186.915C397.091 186.835 397.139 186.763 397.2 186.703C397.261 186.642 397.334 186.595 397.413 186.562C397.493 186.53 397.578 186.514 397.664 186.515H408.066C408.152 186.514 408.238 186.53 408.317 186.562C408.397 186.595 408.469 186.642 408.53 186.703C408.591 186.763 408.64 186.835 408.673 186.915C408.706 186.994 408.723 187.079 408.723 187.165C408.723 187.251 408.706 187.336 408.673 187.415C408.64 187.494 408.591 187.566 408.53 187.627C408.469 187.687 408.397 187.735 408.317 187.767C408.238 187.8 408.152 187.816 408.066 187.815Z" fill="white"/>
<path d="M192.393 224.454H180.034C179.354 224.454 178.697 224.208 178.184 223.762C177.671 223.316 177.336 222.7 177.24 222.027C176.477 216.412 176.477 210.719 177.24 205.103C177.335 204.438 177.663 203.828 178.166 203.384C178.669 202.939 179.315 202.688 179.986 202.676C183.875 200.933 188.063 200.934 192.435 202.676C192.843 202.682 193.244 202.776 193.611 202.953C193.977 203.13 194.301 203.385 194.559 203.7C194.828 204.028 195.02 204.412 195.122 204.824C195.224 205.235 195.233 205.665 195.148 206.08C194.155 211.021 194.155 216.11 195.148 221.05C195.233 221.466 195.224 221.895 195.122 222.307C195.02 222.718 194.828 223.102 194.559 223.43C194.297 223.751 193.966 224.009 193.591 224.186C193.217 224.364 192.807 224.455 192.393 224.454Z" fill="#2368FF"/>
<path d="M191.101 209.128H180.699C180.613 209.129 180.528 209.113 180.448 209.081C180.369 209.048 180.296 209 180.235 208.94C180.174 208.88 180.126 208.808 180.093 208.728C180.06 208.649 180.043 208.564 180.043 208.478C180.043 208.392 180.06 208.307 180.093 208.228C180.126 208.149 180.174 208.077 180.235 208.017C180.296 207.956 180.369 207.908 180.448 207.876C180.528 207.844 180.613 207.827 180.699 207.828H191.101C191.187 207.827 191.272 207.844 191.352 207.876C191.431 207.908 191.504 207.956 191.565 208.017C191.626 208.077 191.674 208.149 191.707 208.228C191.74 208.307 191.757 208.392 191.757 208.478C191.757 208.564 191.74 208.649 191.707 208.728C191.674 208.808 191.626 208.88 191.565 208.94C191.504 209 191.431 209.048 191.352 209.081C191.272 209.113 191.187 209.129 191.101 209.128Z" fill="white"/>
<path d="M191.101 214.33H180.699C180.613 214.33 180.528 214.314 180.448 214.282C180.369 214.249 180.296 214.202 180.235 214.141C180.174 214.081 180.126 214.009 180.093 213.93C180.06 213.85 180.043 213.765 180.043 213.679C180.043 213.594 180.06 213.509 180.093 213.429C180.126 213.35 180.174 213.278 180.235 213.218C180.296 213.157 180.369 213.11 180.448 213.077C180.528 213.045 180.613 213.029 180.699 213.029H191.101C191.187 213.029 191.272 213.045 191.352 213.077C191.431 213.11 191.504 213.157 191.565 213.218C191.626 213.278 191.674 213.35 191.707 213.429C191.74 213.509 191.757 213.594 191.757 213.679C191.757 213.765 191.74 213.85 191.707 213.93C191.674 214.009 191.626 214.081 191.565 214.141C191.504 214.202 191.431 214.249 191.352 214.282C191.272 214.314 191.187 214.33 191.101 214.33Z" fill="white"/>
<path d="M191.102 219.532H180.699C180.613 219.533 180.528 219.516 180.449 219.484C180.369 219.452 180.297 219.404 180.236 219.344C180.175 219.283 180.126 219.211 180.093 219.132C180.06 219.053 180.043 218.968 180.043 218.882C180.043 218.796 180.06 218.711 180.093 218.631C180.126 218.552 180.175 218.48 180.236 218.42C180.297 218.359 180.369 218.312 180.449 218.279C180.528 218.247 180.613 218.231 180.699 218.231H191.102C191.187 218.231 191.273 218.247 191.352 218.279C191.432 218.312 191.504 218.359 191.565 218.42C191.626 218.48 191.675 218.552 191.708 218.631C191.741 218.711 191.758 218.796 191.758 218.882C191.758 218.968 191.741 219.053 191.708 219.132C191.675 219.211 191.626 219.283 191.565 219.344C191.504 219.404 191.432 219.452 191.352 219.484C191.273 219.516 191.187 219.533 191.102 219.532Z" fill="white"/>
<path d="M472.808 293.712C473.406 293.359 473.919 292.879 474.311 292.306C474.704 291.733 474.966 291.08 475.079 290.395C475.192 289.71 475.153 289.008 474.966 288.339C474.778 287.67 474.447 287.051 473.994 286.524L482.481 271.928L473.721 272.421L467.004 286.207C466.17 287.026 465.665 288.123 465.585 289.29C465.506 290.457 465.857 291.612 466.572 292.537C467.287 293.462 468.317 294.093 469.466 294.31C470.616 294.526 471.804 294.314 472.808 293.712V293.712Z" fill="#FFB6B6"/>
<path d="M476.233 282.98L468.391 276.871L482.642 249.254L477.302 214.084C477.038 212.345 477.16 210.57 477.659 208.884C478.159 207.198 479.023 205.643 480.191 204.328C481.359 203.014 482.802 201.973 484.418 201.279C486.033 200.585 487.782 200.255 489.539 200.313C492.714 200.421 495.715 201.784 497.886 204.102C500.056 206.421 501.218 209.506 501.117 212.68L499.798 252.726L476.233 282.98Z" fill="#CCCCCC"/>
<path d="M97.1632 275.434C97.6572 274.938 98.0363 274.339 98.2738 273.68C98.5114 273.021 98.6016 272.318 98.538 271.621C98.4745 270.923 98.2588 270.248 97.9062 269.643C97.5536 269.038 97.0725 268.517 96.497 268.118L104.125 230.232L95.7013 232.937L89.5958 269.582C88.9894 270.593 88.7751 271.792 88.9934 272.951C89.2118 274.109 89.8475 275.148 90.7803 275.869C91.7131 276.591 92.878 276.945 94.0544 276.864C95.2308 276.784 96.337 276.275 97.1632 275.434H97.1632Z" fill="#9E616A"/>
<path d="M108.425 195.277L103.199 191.332C103.199 191.332 98.5882 191.005 97.7716 199.32C96.9551 207.634 95.2785 223.837 95.2785 223.837L87.2812 260.877L98.3516 263.307L106.917 223.334L112.056 211.464L108.425 195.277Z" fill="#CCCCCC"/>
<path d="M99.8125 255.76L129.263 255.269L131.717 235.145H99.8125V255.76Z" fill="#9E616A"/>
<path d="M126.314 379.599H133.113L136.347 353.375L126.312 353.376L126.314 379.599Z" fill="#9E616A"/>
<path d="M83.7266 380.228L90.5253 380.18L93.5757 353.935L84.7335 355.963L83.7266 380.228Z" fill="#9E616A"/>
<path d="M104.986 217.814L103.445 221.819L103.753 225.824L133.902 236.267L132.407 218.738L129.018 214.732L104.986 217.814Z" fill="#FFB6B6"/>
<path d="M117.92 181.771C123.868 181.771 128.689 176.95 128.689 171.003C128.689 165.055 123.868 160.234 117.92 160.234C111.973 160.234 107.152 165.055 107.152 171.003C107.152 176.95 111.973 181.771 117.92 181.771Z" fill="#9E616A"/>
<path d="M124.629 376.245L135.376 375.604V380.208L145.594 387.265C146.099 387.613 146.479 388.114 146.679 388.694C146.879 389.274 146.888 389.902 146.706 390.488C146.523 391.073 146.158 391.585 145.664 391.949C145.17 392.312 144.573 392.508 143.959 392.508H131.164L128.959 387.953L128.098 392.508H123.273L124.629 376.245Z" fill="#2F2E41"/>
<path d="M81.3975 376.89L92.1402 376.173L92.1724 380.777L102.439 387.762C102.947 388.107 103.33 388.605 103.534 389.184C103.738 389.762 103.752 390.391 103.574 390.978C103.395 391.564 103.034 392.079 102.542 392.446C102.051 392.813 101.455 393.013 100.842 393.017L88.0469 393.106L85.8096 388.567L84.9804 393.128L80.1562 393.162L81.3975 376.89Z" fill="#2F2E41"/>
<path d="M81.6077 360.122L86.5583 320.551L92.4483 278.829C88.1349 270.819 97.8475 245.943 97.8475 245.943L99.2185 246.009L130.249 251.863L130.243 251.833C136.59 269.144 138.692 277.696 138.345 296.131L137.094 362.398H137.486C138.137 362.398 138.762 362.657 139.222 363.117C139.682 363.577 139.941 364.202 139.941 364.853C139.941 365.503 139.682 366.128 139.222 366.588C138.762 367.048 138.137 367.307 137.486 367.307H125.216C124.893 367.307 124.573 367.244 124.275 367.121C123.977 366.998 123.706 366.817 123.477 366.589C123.249 366.362 123.068 366.091 122.944 365.793C122.821 365.495 122.757 365.175 122.757 364.853C122.757 364.53 122.821 364.21 122.944 363.912C123.068 363.614 123.249 363.344 123.477 363.116C123.706 362.888 123.977 362.707 124.275 362.584C124.573 362.461 124.893 362.398 125.216 362.398H125.532L114.269 283.493L104.719 316.624L93.9208 359.817C97.8475 358.836 97.2378 361.11 97.2378 362.398C97.2378 363.049 96.9793 363.674 96.519 364.134C96.0588 364.594 95.4345 364.853 94.7836 364.853H82.5128C81.942 364.853 81.389 364.655 80.949 364.291C80.5089 363.928 80.2095 363.422 80.1023 362.862C79.995 362.301 80.0867 361.721 80.3615 361.22C80.6364 360.72 81.0771 360.332 81.6077 360.122H81.6077Z" fill="#2F2E41"/>
<path d="M95.4329 247.232L96.4146 237.416C96.5166 237.015 96.7427 236.657 97.0606 236.393C97.3784 236.129 97.7717 235.972 98.1841 235.946C98.5932 231.269 100.314 211.095 100.417 210.215L100.421 210.178L101.203 193.461C101.232 192.854 101.483 192.279 101.909 191.845C102.334 191.411 102.905 191.15 103.512 191.11L107.645 190.84C107.702 190.838 107.755 190.814 107.795 190.773C107.834 190.733 107.856 190.678 107.856 190.621C107.856 190.165 107.946 189.713 108.121 189.291C108.295 188.869 108.551 188.486 108.874 188.164C109.197 187.841 109.58 187.585 110.002 187.41C110.424 187.235 110.876 187.146 111.332 187.146H123.569C124.362 187.146 125.127 187.435 125.721 187.96C126.315 188.484 126.698 189.208 126.797 189.994C126.802 190.048 126.828 190.098 126.868 190.135C126.909 190.171 126.962 190.19 127.017 190.189H127.018C128.408 190.16 129.763 190.631 130.836 191.516C131.909 192.4 132.63 193.64 132.867 195.011C134.539 204.745 137.892 226.837 136.235 239.118C135.658 243.394 136.901 240.008 137.12 243.585C137.141 243.931 137.095 244.277 136.982 244.605C136.87 244.932 136.694 245.235 136.464 245.494C136.934 245.665 137.317 246.014 137.531 246.466C137.745 246.918 137.772 247.436 137.607 247.907L137.822 247.854C137.759 248.104 137.647 248.339 137.493 248.546C137.339 248.753 137.146 248.927 136.925 249.06C136.704 249.192 136.458 249.279 136.203 249.317C135.948 249.354 135.688 249.341 135.438 249.278L103.423 253.616C102.371 253.351 95.1679 248.284 95.4329 247.232Z" fill="#CCCCCC"/>
<path d="M180.982 207.319C180.781 207.991 180.436 208.609 179.97 209.133C179.505 209.656 178.93 210.07 178.287 210.348C177.644 210.625 176.948 210.757 176.247 210.736C175.547 210.715 174.86 210.541 174.235 210.225L161.858 221.521L160.215 212.828L172.228 203.462C172.827 202.447 173.778 201.686 174.901 201.325C176.023 200.964 177.239 201.027 178.318 201.503C179.397 201.978 180.264 202.833 180.755 203.905C181.246 204.977 181.327 206.192 180.982 207.319H180.982Z" fill="#9E616A"/>
<path d="M137.903 198.686C137.903 198.686 133.587 188.933 128.136 190.871C122.685 192.81 125.5 202.273 125.5 202.273L145.979 233.132C145.979 233.132 175.517 214.183 171.925 214.05C168.333 213.916 167.259 207.383 167.259 207.383L151.647 215.183L151.119 212.407L150.273 213.253L148.088 211.534L137.903 198.686Z" fill="#CCCCCC"/>
<path d="M490.94 187.972C499.243 187.972 505.974 181.241 505.974 172.938C505.974 164.635 499.243 157.904 490.94 157.904C482.637 157.904 475.906 164.635 475.906 172.938C475.906 181.241 482.637 187.972 490.94 187.972Z" fill="#FFB6B6"/>
<path d="M539.189 195.06C537.454 197.519 534.922 199.301 532.022 200.106C530.862 200.451 529.663 200.655 528.454 200.712C528.305 199.344 527.947 198.008 527.394 196.748C527.45 198.089 527.263 199.428 526.843 200.703C525.027 200.6 523.252 200.124 521.627 199.305C520.032 198.503 518.646 197.339 517.578 195.907C516.511 194.475 515.792 192.815 515.478 191.056C514.841 186.944 516.705 182.906 517.379 178.801C518.056 174.695 516.786 169.494 512.767 168.415C509.706 167.593 510.049 167.949 507.504 169.838C510.151 173.751 500.375 188.093 496.374 186.842C494.112 186.135 492.664 184.06 492.197 184.06C489.053 189.476 494.973 198.603 489.006 200.499L489.498 200.007C493.1 195.577 485.571 186.199 489.173 181.769C490.178 180.529 491.248 179.06 490.951 177.493C490.67 176.003 488.305 175.214 487.612 176.439C488.858 173.585 487.018 169.776 483.973 169.043C481.268 168.391 481.317 169.194 478.603 169.544C478.425 168.371 478.094 167.226 477.616 166.14C477.666 167.31 477.529 168.481 477.211 169.609C476.252 169.59 475.326 169.255 474.577 168.657C472.363 166.873 472.812 163.125 474.787 161.082C476.766 159.038 479.706 158.302 482.511 157.826C483.326 152.149 498.988 151.557 501.064 157.229C501.948 152.994 507.251 150.795 511.372 152.109C515.493 153.423 518.353 157.273 519.859 161.329C521.365 165.382 521.785 169.745 522.713 173.968C523.64 178.192 525.208 182.492 528.436 185.371C531.663 188.246 536.922 189.198 540.323 186.527C540.818 187.938 540.973 189.447 540.776 190.929C540.578 192.412 540.035 193.827 539.189 195.06Z" fill="#2F2E41"/>
<path d="M680.236 229.367L678.131 239.927C677.973 240.734 677.807 241.556 677.627 242.37C675.867 242.006 674.043 242.108 672.336 242.666C673.691 244.602 674.905 246.633 675.969 248.742C674.642 252.829 672.696 256.606 669.438 259.338C667.262 261.122 664.663 262.315 661.892 262.803C659.121 263.29 656.27 263.055 653.616 262.121L653.71 261.703C650.207 254.905 652.11 246.335 656.464 240.057C658.684 236.959 661.315 234.178 664.284 231.789C667.225 229.338 670.404 227.14 673.554 224.97C674.261 224.483 675.098 224.219 675.956 224.21C676.815 224.201 677.657 224.449 678.374 224.921C679.091 225.393 679.651 226.068 679.983 226.86C680.315 227.652 680.403 228.525 680.236 229.367Z" fill="#2368FF"/>
<path d="M654.364 287.53C653.479 281.076 652.568 274.541 653.189 268.018C653.741 262.226 655.508 256.568 659.106 251.929C661.016 249.471 663.34 247.365 665.973 245.706C666.66 245.274 667.292 246.361 666.608 246.792C662.052 249.672 658.527 253.924 656.544 258.936C654.352 264.509 654 270.585 654.381 276.505C654.61 280.085 655.093 283.641 655.581 287.195C655.62 287.355 655.597 287.525 655.515 287.669C655.433 287.813 655.3 287.92 655.142 287.969C654.981 288.012 654.809 287.99 654.664 287.908C654.519 287.826 654.412 287.69 654.367 287.529L654.364 287.53Z" fill="#D3D3D3"/>
<path d="M704.487 393.699L31.43 393.92C31.2028 393.92 30.9851 393.829 30.8247 393.668C30.6643 393.507 30.5742 393.289 30.5742 393.062C30.5742 392.835 30.6643 392.617 30.8247 392.456C30.9851 392.295 31.2028 392.205 31.43 392.204L704.487 391.982C704.714 391.983 704.932 392.074 705.092 392.235C705.253 392.396 705.343 392.613 705.343 392.841C705.343 393.068 705.253 393.286 705.092 393.447C704.932 393.608 704.714 393.698 704.487 393.699Z" fill="#D3D3D3"/>
<path d="M105.247 164.41C103.596 165.202 101.747 164.01 100.321 162.828L100.831 163.269C98.3114 165.721 97.1332 169.248 96.5575 172.72C95.9813 176.189 95.917 179.736 95.1915 183.18C94.4654 186.621 92.9591 190.077 90.1457 192.185C86.3766 195.007 81.1781 194.826 76.5527 193.961C76.4911 193.948 76.4337 193.939 76.372 193.926C77.6166 190.333 78.1225 186.525 77.8594 182.731C76.6196 186.533 74.5089 189.992 71.6955 192.834C68.6288 191.99 65.6354 190.9 62.7447 189.573C60.8743 188.712 58.8603 187.535 58.3412 185.541C57.8208 183.563 59.0293 181.488 60.6452 180.239C62.2612 178.99 64.2445 178.338 66.0854 177.449C67.9233 176.563 69.7421 175.3 70.478 173.394C72.1753 169.008 67.3401 163.976 69.2245 159.665C70.1537 157.545 72.4298 156.392 74.569 155.503C77.8349 154.15 81.1884 153.019 84.6068 152.118C87.6077 151.326 90.741 150.711 93.798 151.23C96.855 151.749 99.85 153.608 100.95 156.511C102.786 157.132 104.735 157.831 105.913 159.376C107.091 160.918 106.996 163.572 105.247 164.41Z" fill="#2F2E41"/>
<path d="M119.944 159.328C115.219 155.598 111.399 156.235 108.452 158.552C107.957 158.001 105.848 159.517 105.135 159.299L102.553 164.146C101.224 166.49 100.679 168.884 100.894 170.231C98.4501 177.084 104.245 181.712 111.099 184.156C113.833 185.137 116.817 185.181 119.579 184.278L119.663 183.111L120.182 184.068C120.182 184.068 126.448 196.968 127.928 197.548C127.03 195.217 124.661 184.142 123.999 181.833C123.092 178.692 123.712 173.701 124.245 170.642C124.577 168.755 124.594 166.827 124.296 164.935L124.283 164.852L125.749 167.811L129.038 165.743C127.781 162.082 127.756 157.702 119.944 159.328Z" fill="#2F2E41"/>
</svg>
