<svg version="1.2" xmlns="http://www.w3.org/2000/svg" viewBox="0 0 26 30" width="26" height="30">
	<title>tiktok-v3-svg</title>
	<defs>
		<clipPath clipPathUnits="userSpaceOnUse" id="cp1">
			<path d="m0 0h26v29.45h-26z"/>
		</clipPath>
	</defs>
	<style>
		.s0 { fill: #ff004f } 
		.s1 { fill: #000000 } 
		.s2 { fill: #00f2ea } 
	</style>
	<g id="Clip-Path" clip-path="url(#cp1)">
		<g id="Layer">
			<path id="Layer" fill-rule="evenodd" class="s0" d="m19.3 10.6q0 0 0 0zm0 0v9.9c0 4.9-4 8.9-9 8.9-2.5 0-4.7-1-6.3-2.7 1.4 0.9 3.1 1.5 4.9 1.5 5 0 9-4 9-8.9v-9.9c1.8 1.4 4.2 2.2 6.7 2.2v-3.8q0.7 0.1 1.4 0.1v4.9c-2.5 0-4.8-0.8-6.7-2.2zm-1.4-9.4h1.4v0.6c0.1 1.5 0.7 2.9 1.7 3.9-1.6-1-2.7-2.6-3.1-4.5zm-13.1 18.1c0-2.3 1.9-4.1 4.1-4.1q0.6 0 1.2 0.2v-3.9q0.8 0 1.5 0.1v5q-0.6-0.2-1.3-0.2c-2.2 0-4.1 1.8-4.1 4 0 0.9 0.3 1.8 0.9 2.5-1.4-0.7-2.3-2-2.3-3.6z"/>
			<path id="Layer" class="s1" d="m17.9 9.4v9.9c0 4.9-4 8.9-9 8.9-1.8 0-3.5-0.6-4.9-1.5-1.6-1.6-2.6-3.8-2.6-6.2 0-4.9 3.9-8.9 8.8-9v3.9q-0.6-0.2-1.3-0.2c-2.2 0-4.1 1.8-4.1 4.1 0 1.6 0.9 2.9 2.3 3.6 0.7 1 1.9 1.6 3.2 1.6 2.3 0 4.1-1.8 4.1-4v-19.3h3.5c0.4 1.9 1.5 3.5 3.1 4.5 0.9 1.1 2.2 1.8 3.6 2.1v3.8c-2.5 0-4.8-0.8-6.7-2.2z"/>
			<path id="Layer" class="s2" d="m24.6 7.8c-1.4-0.3-2.6-1-3.6-2.1 1.1 0.7 2.3 1.1 3.6 1.1v1zm-6.7-6.6h-3.5v19.3c0 2.2-1.8 4-4.1 4-1.3 0-2.5-0.6-3.2-1.6q0.8 0.4 1.8 0.4c2.3 0 4.1-1.8 4.1-4v-19.3h4.9v0.6q0 0.3 0 0.6zm-7.7 10.3c-4.9 0.1-8.8 4.1-8.8 9 0 2.4 1 4.6 2.6 6.2-2.4-1.6-4-4.3-4-7.4 0-4.9 4-8.9 8.9-8.9q0.6 0 1.3 0v1.1z"/>
		</g>
	</g>
</svg>