<svg version="1.2" xmlns="http://www.w3.org/2000/svg" viewBox="0 0 36 30" width="36" height="30">
	<title>twitter-v3-svg</title>
	<style>
		.s0 { fill: #2368ff } 
	</style>
	<path id="Layer" class="s0" d="m32 7.8q0.1 0.5 0 0.9c0 9.6-7.1 20.7-20.2 20.7-4.1 0-7.8-1.2-11-3.3 0.6 0.1 1.1 0.1 1.7 0.1 3.2 0 6.4-1.1 8.9-3.1-1.5 0-3-0.5-4.1-1.4-1.2-0.9-2.1-2.2-2.6-3.6q0.7 0.1 1.4 0.1 0.9 0 1.8-0.3c-1.6-0.3-3-1.2-4.1-2.5-1-1.3-1.6-2.9-1.6-4.6v-0.1c1 0.6 2.1 0.9 3.2 0.9-0.9-0.6-1.7-1.5-2.3-2.6-0.6-1-0.8-2.2-0.8-3.4 0-1.4 0.3-2.6 0.9-3.7 1.8 2.3 4.1 4.1 6.6 5.4 2.5 1.3 5.3 2.1 8.1 2.2q-0.1-0.8-0.1-1.6 0-1.5 0.5-2.8 0.5-1.3 1.5-2.4 1.1-1 2.4-1.5 1.3-0.6 2.7-0.6c2 0 3.9 0.9 5.2 2.3 1.6-0.3 3.1-0.9 4.5-1.8-0.5 1.7-1.6 3.1-3.1 4q2.1-0.2 4.1-1.1c-1 1.5-2.2 2.7-3.6 3.8z"/>
</svg>