<svg xmlns="http://www.w3.org/2000/svg" width="22.495" height="22.495" viewBox="0 0 22.495 22.495">
  <path id="Path_pencil-ruler" data-name="Path / pencil-ruler" d="M3.1,18.2v3.975H7.072L18.8,10.443,14.821,6.468,3.1,18.2M23.885,19.38,19.38,23.885l-5.512-5.512L15.743,16.5l1.06,1.06,2.618-2.629,1.505,1.505L19.38,17.938,20.5,19l1.505-1.484,1.876,1.866M6.924,11.4,1.39,5.9,5.9,1.39,7.761,3.266,5.143,5.9,6.277,7.019,8.885,4.39,10.39,5.9,8.885,7.39l1.06,1.06L6.924,11.4m14.947-4.06a1.056,1.056,0,0,0,0-1.495L19.39,3.4a1.056,1.056,0,0,0-1.495,0l-1.951,1.94L19.92,9.319Z" transform="translate(-1.39 -1.39)" fill="#414141"/>
</svg>
