<svg xmlns="http://www.w3.org/2000/svg" width="88.911" height="68.635" viewBox="0 0 88.911 68.635">
  <g id="Group_257" data-name="Group 257" transform="translate(-51.145 -76.49)">
    <path id="Path_chart-timeline-variant-shimmer" data-name="Path / chart-timeline-variant-shimmer" d="M47.532,14.633a4.452,4.452,0,0,0-4.421,5.817l-8.376,8.376a3.965,3.965,0,0,0-2.327,0L26.36,22.776a4.452,4.452,0,0,0-4.421-5.817,4.553,4.553,0,0,0-4.421,5.817l-10.7,10.47a4.718,4.718,0,1,0-1.163,9.306,4.553,4.553,0,0,0,4.421-5.817l10.47-10.7a3.965,3.965,0,0,0,2.327,0l6.049,6.049A4.785,4.785,0,0,0,33.572,37.9a4.452,4.452,0,0,0,4.421-5.817l8.376-8.376a4.616,4.616,0,1,0,1.163-9.074M33.572,16.96l2.094-4.886L40.552,9.98,35.666,7.886,33.572,3,31.478,7.886,26.593,9.98l4.886,2.094,2.094,4.886M6.817,21.613,7.98,16.96,12.633,15.8,7.98,14.633,6.817,9.98,5.653,14.633,1,15.8,5.653,16.96Z" transform="translate(50.145 73.49)" fill="#ffffff"/>
    <path id="Path_face-man-shimmer" data-name="Path / face-man-shimmer" d="M40.18,6.607,34.572,9.143l5.607,2.536,2.536,5.607,2.559-5.607,5.584-2.536L45.275,6.607,42.716,1M25.266,3.327A23.314,23.314,0,1,0,46.438,16.984l-2.885,6.328a18.6,18.6,0,1,1-36.9,3.281v-.3A23.266,23.266,0,0,0,20.008,13.354a23.266,23.266,0,0,0,18.054,8.585,23.265,23.265,0,0,0,3.094-.209l-3.443-7.585-11.051-5,8.213-3.723a23.288,23.288,0,0,0-9.609-2.094m-6.98,22.684a2.908,2.908,0,1,0,2.908,2.908,2.908,2.908,0,0,0-2.908-2.908m13.96,0a2.908,2.908,0,1,0,2.908,2.908,2.908,2.908,0,0,0-2.908-2.908Z" transform="translate(89.197 95.266)" fill="#ffffff"/>
  </g>
</svg>
