<svg width="25" height="25" viewBox="0 0 25 25" fill="none" xmlns="http://www.w3.org/2000/svg">
<path d="M12.5 0C5.6075 0 0 5.6075 0 12.5C0 19.3925 5.6075 25 12.5 25C19.3925 25 25 19.3925 25 12.5C25 5.6075 19.3925 0 12.5 0ZM22.4137 11.25H18.9587C18.8045 8.51406 18.0391 5.84746 16.7188 3.44625C18.249 4.16131 19.5736 5.25175 20.5693 6.61614C21.565 7.98053 22.1995 9.57457 22.4137 11.25ZM13.1625 2.53375C14.4562 4.23875 16.1962 7.25875 16.4462 11.25H8.7875C8.96125 8.005 10.03 4.965 11.8512 2.5325C12.0662 2.52 12.2812 2.5 12.5 2.5C12.7238 2.5 12.9425 2.52 13.1625 2.53375ZM8.36 3.40875C7.13 5.7725 6.42 8.4525 6.2875 11.25H2.58625C2.80221 9.5598 3.44579 7.95263 4.45612 6.58052C5.46644 5.20841 6.8101 4.11674 8.36 3.40875ZM2.58625 13.75H6.30375C6.47375 16.7237 7.135 19.3475 8.24875 21.5375C6.72649 20.8199 5.40966 19.7302 4.41995 18.3691C3.43024 17.008 2.79958 15.4193 2.58625 13.75ZM11.8125 22.4662C10.0612 20.3438 9.0275 17.37 8.80125 13.75H16.4425C16.1825 17.2162 15.0462 20.245 13.1887 22.465C12.9612 22.48 12.7338 22.5 12.5 22.5C12.2675 22.5 12.0413 22.48 11.8125 22.4662ZM16.8263 21.5013C18.02 19.2588 18.7488 16.625 18.94 13.75H22.4125C22.2015 15.4053 21.5799 16.9816 20.6043 18.3354C19.6286 19.6892 18.3299 20.7775 16.8263 21.5013Z" fill="#2368FF"/>
</svg>
