<svg xmlns="http://www.w3.org/2000/svg" width="25" height="22.5" viewBox="0 0 30 22.5">
  <path id="Path_responsive" data-name="Path / responsive" d="M5,6.5V19h6.25V14a2.5,2.5,0,0,1,2.5-2.5H20A2.5,2.5,0,0,1,22.5,14v5H25V6.5H5M0,24V21.5H5A2.5,2.5,0,0,1,2.5,19V6.5A2.5,2.5,0,0,1,5,4H25a2.5,2.5,0,0,1,2.5,2.5V19A2.5,2.5,0,0,1,25,21.5h5V24H22.5A2.5,2.5,0,0,1,20,26.5H13.75a2.5,2.5,0,0,1-2.5-2.5H0m14.375,0a.625.625,0,1,0,.625.625A.625.625,0,0,0,14.375,24m5,0a.625.625,0,1,0,.625.625A.625.625,0,0,0,19.375,24M16.25,24v1.25H17.5V24H16.25m-2.5-10v8.75H20V14Z" transform="translate(0 -4)" fill="#414141"/>
</svg>
