<svg xmlns="http://www.w3.org/2000/svg" width="72.973" height="68.635" viewBox="0 0 72.973 68.635">
  <path id="Path_scale-balance" data-name="Path / scale-balance" d="M38.351,3a10.783,10.783,0,0,0-10.187,7.225H5.84v7.225h7.044L2.228,42.736C.53,49.961,5.84,53.573,14.871,53.573s14.666-3.612,12.643-10.837L16.858,17.449H28.128a11.465,11.465,0,0,0,6.611,6.611V64.41H2.228v7.225H74.475V64.41H41.963V24.024a11.15,11.15,0,0,0,6.574-6.574H59.845L49.188,42.736c-1.7,7.225,3.612,10.837,12.643,10.837S76.5,49.961,74.475,42.736L63.818,17.449h7.044V10.225H48.574A10.864,10.864,0,0,0,38.351,3m0,7.225a3.612,3.612,0,1,1-3.612,3.612,3.612,3.612,0,0,1,3.612-3.612M14.871,29.19l5.419,13.546H9.452L14.871,29.19m46.961,0L67.25,42.736H56.413Z" transform="translate(-1.913 -3)" fill="#ffffff"/>
</svg>
