<svg version="1.2" xmlns="http://www.w3.org/2000/svg" viewBox="0 0 43 30" width="43" height="30">
	<title>youtube-v3-svg</title>
	<style>
		.s0 { fill: #f40d0d } 
	</style>
	<path id="Layer" fill-rule="evenodd" class="s0" d="m42.2 15.1c0 0 0 6.6-0.9 9.8-0.2 0.9-0.7 1.7-1.3 2.3-0.7 0.7-1.5 1.1-2.4 1.4-3.2 0.8-16.3 0.8-16.3 0.8 0 0-13.1 0-16.4-0.9-1.8-0.5-3.2-1.9-3.7-3.6-0.8-3.2-0.8-9.9-0.8-9.9 0 0 0-6.7 0.9-9.9 0.2-0.9 0.7-1.7 1.3-2.3 0.7-0.7 1.5-1.1 2.4-1.4 3.2-0.8 16.3-0.8 16.3-0.8 0 0 13.1 0 16.4 0.9 0.9 0.2 1.7 0.7 2.3 1.3 0.7 0.7 1.1 1.5 1.4 2.3 0.8 3.2 0.8 10 0.8 10zm-14.2-0.1l-10.9-6.2v12.4z"/>
</svg>