<svg width="812" height="621" viewBox="0 0 812 621" fill="none" xmlns="http://www.w3.org/2000/svg">
<g filter="url(#filter0_di_431_3618)">
<rect x="54" y="188" width="271" height="366" rx="8.60978" fill="#2368FF"/>
</g>
<g filter="url(#filter1_di_431_3618)">
<rect x="472" y="322" width="243" height="229" rx="3.24382" fill="#2368FF"/>
</g>
<g filter="url(#filter2_di_431_3618)">
<rect x="261" width="262" height="452" rx="4.98795" fill="white" shape-rendering="crispEdges"/>
<rect x="275.254" y="67.627" width="187" height="41" rx="3" fill="white"/>
<path d="M288.494 86.527V95.627H285.734V81.427H287.874L295.274 90.747V81.447H298.034V95.627H295.794L288.494 86.527ZM300.728 95.627V85.147H303.408V95.627H300.728ZM300.728 83.687V81.027H303.408V83.687H300.728ZM305.165 90.387C305.165 89.6536 305.292 88.9603 305.545 88.307C305.799 87.6536 306.165 87.0803 306.645 86.587C307.125 86.0936 307.705 85.7003 308.385 85.407C309.065 85.1136 309.832 84.967 310.685 84.967C311.832 84.967 312.805 85.2136 313.605 85.707C314.419 86.2003 315.025 86.847 315.425 87.647L312.805 88.447C312.579 88.0603 312.279 87.767 311.905 87.567C311.532 87.3536 311.119 87.247 310.665 87.247C310.279 87.247 309.919 87.327 309.585 87.487C309.252 87.6336 308.959 87.847 308.705 88.127C308.465 88.3936 308.272 88.7203 308.125 89.107C307.992 89.4936 307.925 89.9203 307.925 90.387C307.925 90.8536 307.999 91.2803 308.145 91.667C308.292 92.0536 308.485 92.387 308.725 92.667C308.979 92.947 309.272 93.167 309.605 93.327C309.939 93.4736 310.292 93.547 310.665 93.547C311.145 93.547 311.585 93.427 311.985 93.187C312.399 92.947 312.685 92.6536 312.845 92.307L315.465 93.107C315.105 93.907 314.512 94.5603 313.685 95.067C312.859 95.5736 311.865 95.827 310.705 95.827C309.852 95.827 309.085 95.6803 308.405 95.387C307.725 95.0936 307.145 94.7003 306.665 94.207C306.185 93.7003 305.812 93.1203 305.545 92.467C305.292 91.8003 305.165 91.107 305.165 90.387ZM321.877 95.827C321.037 95.827 320.277 95.687 319.597 95.407C318.917 95.1136 318.337 94.7203 317.857 94.227C317.377 93.7336 317.004 93.1603 316.737 92.507C316.484 91.8536 316.357 91.167 316.357 90.447C316.357 89.7003 316.484 89.0003 316.737 88.347C316.99 87.6803 317.357 87.1003 317.837 86.607C318.317 86.1003 318.897 85.7003 319.577 85.407C320.27 85.1136 321.044 84.967 321.897 84.967C322.75 84.967 323.51 85.1136 324.177 85.407C324.857 85.7003 325.43 86.0936 325.897 86.587C326.377 87.0803 326.737 87.6536 326.977 88.307C327.23 88.9603 327.357 89.6403 327.357 90.347C327.357 90.5203 327.35 90.687 327.337 90.847C327.337 91.007 327.324 91.1403 327.297 91.247H319.197C319.237 91.6603 319.337 92.027 319.497 92.347C319.657 92.667 319.864 92.9403 320.117 93.167C320.37 93.3936 320.657 93.567 320.977 93.687C321.297 93.807 321.63 93.867 321.977 93.867C322.51 93.867 323.01 93.7403 323.477 93.487C323.957 93.2203 324.284 92.8736 324.457 92.447L326.757 93.087C326.37 93.887 325.75 94.547 324.897 95.067C324.057 95.5736 323.05 95.827 321.877 95.827ZM324.597 89.507C324.53 88.7203 324.237 88.0936 323.717 87.627C323.21 87.147 322.59 86.907 321.857 86.907C321.497 86.907 321.157 86.9736 320.837 87.107C320.53 87.227 320.257 87.4003 320.017 87.627C319.777 87.8536 319.577 88.127 319.417 88.447C319.27 88.767 319.184 89.1203 319.157 89.507H324.597ZM340.074 95.087C339.714 95.247 339.274 95.407 338.754 95.567C338.234 95.727 337.688 95.807 337.114 95.807C336.741 95.807 336.388 95.7603 336.054 95.667C335.734 95.5736 335.448 95.427 335.194 95.227C334.954 95.0136 334.761 94.747 334.614 94.427C334.468 94.0936 334.394 93.6936 334.394 93.227V87.207H333.014V85.147H334.394V81.747H337.074V85.147H339.274V87.207H337.074V92.327C337.074 92.7003 337.168 92.967 337.354 93.127C337.554 93.2736 337.794 93.347 338.074 93.347C338.354 93.347 338.628 93.3003 338.894 93.207C339.161 93.1136 339.374 93.0336 339.534 92.967L340.074 95.087ZM346.056 95.827C345.203 95.827 344.436 95.6803 343.756 95.387C343.076 95.0936 342.496 94.7003 342.016 94.207C341.549 93.7003 341.189 93.1203 340.936 92.467C340.683 91.8136 340.556 91.127 340.556 90.407C340.556 89.6736 340.683 88.9803 340.936 88.327C341.189 87.6736 341.549 87.1003 342.016 86.607C342.496 86.1003 343.076 85.7003 343.756 85.407C344.436 85.1136 345.203 84.967 346.056 84.967C346.909 84.967 347.669 85.1136 348.336 85.407C349.016 85.7003 349.589 86.1003 350.056 86.607C350.536 87.1003 350.903 87.6736 351.156 88.327C351.409 88.9803 351.536 89.6736 351.536 90.407C351.536 91.127 351.409 91.8136 351.156 92.467C350.903 93.1203 350.543 93.7003 350.076 94.207C349.609 94.7003 349.036 95.0936 348.356 95.387C347.676 95.6803 346.909 95.827 346.056 95.827ZM343.316 90.407C343.316 90.8736 343.383 91.3003 343.516 91.687C343.663 92.0603 343.856 92.387 344.096 92.667C344.349 92.947 344.643 93.167 344.976 93.327C345.309 93.4736 345.669 93.547 346.056 93.547C346.443 93.547 346.803 93.4736 347.136 93.327C347.469 93.167 347.756 92.947 347.996 92.667C348.249 92.387 348.443 92.0536 348.576 91.667C348.723 91.2803 348.796 90.8536 348.796 90.387C348.796 89.9336 348.723 89.5136 348.576 89.127C348.443 88.7403 348.249 88.407 347.996 88.127C347.756 87.847 347.469 87.6336 347.136 87.487C346.803 87.327 346.443 87.247 346.056 87.247C345.669 87.247 345.309 87.327 344.976 87.487C344.643 87.647 344.349 87.867 344.096 88.147C343.856 88.427 343.663 88.7603 343.516 89.147C343.383 89.5336 343.316 89.9536 343.316 90.407ZM374.43 95.627H371.75V89.747C371.75 88.907 371.603 88.2936 371.31 87.907C371.03 87.5203 370.636 87.327 370.13 87.327C369.596 87.327 369.096 87.5336 368.63 87.947C368.163 88.347 367.83 88.8736 367.63 89.527V95.627H364.95V89.747C364.95 88.907 364.803 88.2936 364.51 87.907C364.23 87.5203 363.836 87.327 363.33 87.327C362.81 87.327 362.31 87.527 361.83 87.927C361.363 88.327 361.03 88.8536 360.83 89.507V95.627H358.15V85.147H360.57V87.087C360.956 86.407 361.483 85.887 362.15 85.527C362.83 85.1536 363.603 84.967 364.47 84.967C365.35 84.967 366.03 85.1803 366.51 85.607C366.99 86.0336 367.296 86.5603 367.43 87.187C367.856 86.467 368.396 85.9203 369.05 85.547C369.703 85.1603 370.45 84.967 371.29 84.967C371.93 84.967 372.456 85.087 372.87 85.327C373.283 85.567 373.603 85.8803 373.83 86.267C374.056 86.6536 374.21 87.0936 374.29 87.587C374.383 88.0803 374.43 88.5803 374.43 89.087V95.627ZM381.623 95.827C380.783 95.827 380.023 95.687 379.343 95.407C378.663 95.1136 378.083 94.7203 377.603 94.227C377.123 93.7336 376.75 93.1603 376.483 92.507C376.23 91.8536 376.103 91.167 376.103 90.447C376.103 89.7003 376.23 89.0003 376.483 88.347C376.736 87.6803 377.103 87.1003 377.583 86.607C378.063 86.1003 378.643 85.7003 379.323 85.407C380.016 85.1136 380.79 84.967 381.643 84.967C382.496 84.967 383.256 85.1136 383.923 85.407C384.603 85.7003 385.176 86.0936 385.643 86.587C386.123 87.0803 386.483 87.6536 386.723 88.307C386.976 88.9603 387.103 89.6403 387.103 90.347C387.103 90.5203 387.096 90.687 387.083 90.847C387.083 91.007 387.07 91.1403 387.043 91.247H378.943C378.983 91.6603 379.083 92.027 379.243 92.347C379.403 92.667 379.61 92.9403 379.863 93.167C380.116 93.3936 380.403 93.567 380.723 93.687C381.043 93.807 381.376 93.867 381.723 93.867C382.256 93.867 382.756 93.7403 383.223 93.487C383.703 93.2203 384.03 92.8736 384.203 92.447L386.503 93.087C386.116 93.887 385.496 94.547 384.643 95.067C383.803 95.5736 382.796 95.827 381.623 95.827ZM384.343 89.507C384.276 88.7203 383.983 88.0936 383.463 87.627C382.956 87.147 382.336 86.907 381.603 86.907C381.243 86.907 380.903 86.9736 380.583 87.107C380.276 87.227 380.003 87.4003 379.763 87.627C379.523 87.8536 379.323 88.127 379.163 88.447C379.016 88.767 378.93 89.1203 378.903 89.507H384.343ZM393.596 95.827C392.756 95.827 391.996 95.687 391.316 95.407C390.636 95.1136 390.056 94.7203 389.576 94.227C389.096 93.7336 388.722 93.1603 388.456 92.507C388.202 91.8536 388.076 91.167 388.076 90.447C388.076 89.7003 388.202 89.0003 388.456 88.347C388.709 87.6803 389.076 87.1003 389.556 86.607C390.036 86.1003 390.616 85.7003 391.296 85.407C391.989 85.1136 392.762 84.967 393.616 84.967C394.469 84.967 395.229 85.1136 395.896 85.407C396.576 85.7003 397.149 86.0936 397.616 86.587C398.096 87.0803 398.456 87.6536 398.696 88.307C398.949 88.9603 399.076 89.6403 399.076 90.347C399.076 90.5203 399.069 90.687 399.056 90.847C399.056 91.007 399.042 91.1403 399.016 91.247H390.916C390.956 91.6603 391.056 92.027 391.216 92.347C391.376 92.667 391.582 92.9403 391.836 93.167C392.089 93.3936 392.376 93.567 392.696 93.687C393.016 93.807 393.349 93.867 393.696 93.867C394.229 93.867 394.729 93.7403 395.196 93.487C395.676 93.2203 396.002 92.8736 396.176 92.447L398.476 93.087C398.089 93.887 397.469 94.547 396.616 95.067C395.776 95.5736 394.769 95.827 393.596 95.827ZM396.316 89.507C396.249 88.7203 395.956 88.0936 395.436 87.627C394.929 87.147 394.309 86.907 393.576 86.907C393.216 86.907 392.876 86.9736 392.556 87.107C392.249 87.227 391.976 87.4003 391.736 87.627C391.496 87.8536 391.296 88.127 391.136 88.447C390.989 88.767 390.902 89.1203 390.876 89.507H396.316ZM406.91 95.087C406.55 95.247 406.11 95.407 405.59 95.567C405.07 95.727 404.523 95.807 403.95 95.807C403.577 95.807 403.223 95.7603 402.89 95.667C402.57 95.5736 402.283 95.427 402.03 95.227C401.79 95.0136 401.597 94.747 401.45 94.427C401.303 94.0936 401.23 93.6936 401.23 93.227V87.207H399.85V85.147H401.23V81.747H403.91V85.147H406.11V87.207H403.91V92.327C403.91 92.7003 404.003 92.967 404.19 93.127C404.39 93.2736 404.63 93.347 404.91 93.347C405.19 93.347 405.463 93.3003 405.73 93.207C405.997 93.1136 406.21 93.0336 406.37 92.967L406.91 95.087ZM412.764 97.667C412.991 97.7336 413.211 97.7803 413.424 97.807C413.638 97.847 413.818 97.867 413.964 97.867C414.138 97.867 414.298 97.8336 414.444 97.767C414.591 97.7003 414.724 97.5803 414.844 97.407C414.964 97.247 415.084 97.0203 415.204 96.727C415.324 96.4336 415.451 96.067 415.584 95.627L411.444 85.147H414.204L417.044 93.307L419.564 85.147H422.084L417.684 97.707C417.431 98.4403 416.998 99.0403 416.384 99.507C415.771 99.9736 415.011 100.207 414.104 100.207C413.891 100.207 413.671 100.187 413.444 100.147C413.231 100.12 413.004 100.067 412.764 99.987V97.667ZM428.029 95.827C427.175 95.827 426.409 95.6803 425.729 95.387C425.049 95.0936 424.469 94.7003 423.989 94.207C423.522 93.7003 423.162 93.1203 422.909 92.467C422.655 91.8136 422.529 91.127 422.529 90.407C422.529 89.6736 422.655 88.9803 422.909 88.327C423.162 87.6736 423.522 87.1003 423.989 86.607C424.469 86.1003 425.049 85.7003 425.729 85.407C426.409 85.1136 427.175 84.967 428.029 84.967C428.882 84.967 429.642 85.1136 430.309 85.407C430.989 85.7003 431.562 86.1003 432.029 86.607C432.509 87.1003 432.875 87.6736 433.129 88.327C433.382 88.9803 433.509 89.6736 433.509 90.407C433.509 91.127 433.382 91.8136 433.129 92.467C432.875 93.1203 432.515 93.7003 432.049 94.207C431.582 94.7003 431.009 95.0936 430.329 95.387C429.649 95.6803 428.882 95.827 428.029 95.827ZM425.289 90.407C425.289 90.8736 425.355 91.3003 425.489 91.687C425.635 92.0603 425.829 92.387 426.069 92.667C426.322 92.947 426.615 93.167 426.949 93.327C427.282 93.4736 427.642 93.547 428.029 93.547C428.415 93.547 428.775 93.4736 429.109 93.327C429.442 93.167 429.729 92.947 429.969 92.667C430.222 92.387 430.415 92.0536 430.549 91.667C430.695 91.2803 430.769 90.8536 430.769 90.387C430.769 89.9336 430.695 89.5136 430.549 89.127C430.415 88.7403 430.222 88.407 429.969 88.127C429.729 87.847 429.442 87.6336 429.109 87.487C428.775 87.327 428.415 87.247 428.029 87.247C427.642 87.247 427.282 87.327 426.949 87.487C426.615 87.647 426.322 87.867 426.069 88.147C425.829 88.427 425.635 88.7603 425.489 89.147C425.355 89.5336 425.289 89.9536 425.289 90.407ZM438.518 95.827C437.438 95.827 436.618 95.4803 436.058 94.787C435.498 94.0936 435.218 93.067 435.218 91.707V85.147H437.898V91.127C437.898 92.7403 438.478 93.547 439.638 93.547C440.158 93.547 440.658 93.3936 441.138 93.087C441.631 92.767 442.031 92.287 442.338 91.647V85.147H445.018V92.547C445.018 92.827 445.064 93.027 445.158 93.147C445.264 93.267 445.431 93.3336 445.658 93.347V95.627C445.391 95.6803 445.164 95.7136 444.978 95.727C444.804 95.7403 444.644 95.747 444.498 95.747C444.018 95.747 443.624 95.6403 443.318 95.427C443.024 95.2003 442.851 94.8936 442.798 94.507L442.738 93.667C442.271 94.387 441.671 94.927 440.938 95.287C440.204 95.647 439.398 95.827 438.518 95.827ZM448.201 90.287V81.287H450.881V90.287H448.201ZM448.201 95.627V92.607H450.881V95.627H448.201Z" fill="#2368FF"/>
<rect x="275.254" y="67.627" width="187" height="41" rx="3" stroke="#2368FF" stroke-width="2"/>
<rect x="261.25" y="0.25" width="261.5" height="451.5" rx="4.73795" stroke="#2368FF" stroke-width="0.5" shape-rendering="crispEdges"/>
</g>
<rect x="581" y="119" width="57" height="43" rx="4" fill="#2368FF"/>
<path d="M609.42 133.8V148H606.68V141.94H600.24V148H597.48V133.8H600.24V139.54H606.68V133.8H609.42ZM612.382 148V133.8H615.142V148H612.382ZM618.365 142.66V133.66H621.045V142.66H618.365ZM618.365 148V144.98H621.045V148H618.365Z" fill="white"/>
<rect x="658" y="189" width="115" height="43" rx="4" fill="#2368FF"/>
<path d="M673.62 210.8C673.62 209.933 673.773 209.08 674.08 208.24C674.4 207.387 674.86 206.627 675.46 205.96C676.06 205.293 676.793 204.753 677.66 204.34C678.527 203.927 679.513 203.72 680.62 203.72C681.927 203.72 683.053 204.007 684 204.58C684.96 205.153 685.673 205.9 686.14 206.82L684.02 208.28C683.833 207.88 683.607 207.547 683.34 207.28C683.073 207 682.787 206.78 682.48 206.62C682.173 206.46 681.853 206.347 681.52 206.28C681.187 206.2 680.86 206.16 680.54 206.16C679.847 206.16 679.24 206.3 678.72 206.58C678.213 206.86 677.787 207.227 677.44 207.68C677.107 208.12 676.853 208.627 676.68 209.2C676.507 209.76 676.42 210.32 676.42 210.88C676.42 211.507 676.52 212.113 676.72 212.7C676.92 213.273 677.2 213.78 677.56 214.22C677.933 214.66 678.373 215.013 678.88 215.28C679.4 215.547 679.967 215.68 680.58 215.68C680.9 215.68 681.233 215.64 681.58 215.56C681.927 215.48 682.253 215.353 682.56 215.18C682.88 215.007 683.173 214.787 683.44 214.52C683.707 214.24 683.92 213.907 684.08 213.52L686.34 214.82C686.113 215.353 685.787 215.827 685.36 216.24C684.947 216.64 684.473 216.98 683.94 217.26C683.42 217.54 682.86 217.753 682.26 217.9C681.66 218.047 681.073 218.12 680.5 218.12C679.487 218.12 678.56 217.907 677.72 217.48C676.88 217.053 676.153 216.5 675.54 215.82C674.94 215.127 674.467 214.347 674.12 213.48C673.787 212.6 673.62 211.707 673.62 210.8ZM692.771 218.2C691.918 218.2 691.151 218.053 690.471 217.76C689.791 217.467 689.211 217.073 688.731 216.58C688.264 216.073 687.904 215.493 687.651 214.84C687.398 214.187 687.271 213.5 687.271 212.78C687.271 212.047 687.398 211.353 687.651 210.7C687.904 210.047 688.264 209.473 688.731 208.98C689.211 208.473 689.791 208.073 690.471 207.78C691.151 207.487 691.918 207.34 692.771 207.34C693.624 207.34 694.384 207.487 695.051 207.78C695.731 208.073 696.304 208.473 696.771 208.98C697.251 209.473 697.618 210.047 697.871 210.7C698.124 211.353 698.251 212.047 698.251 212.78C698.251 213.5 698.124 214.187 697.871 214.84C697.618 215.493 697.258 216.073 696.791 216.58C696.324 217.073 695.751 217.467 695.071 217.76C694.391 218.053 693.624 218.2 692.771 218.2ZM690.031 212.78C690.031 213.247 690.098 213.673 690.231 214.06C690.378 214.433 690.571 214.76 690.811 215.04C691.064 215.32 691.358 215.54 691.691 215.7C692.024 215.847 692.384 215.92 692.771 215.92C693.158 215.92 693.518 215.847 693.851 215.7C694.184 215.54 694.471 215.32 694.711 215.04C694.964 214.76 695.158 214.427 695.291 214.04C695.438 213.653 695.511 213.227 695.511 212.76C695.511 212.307 695.438 211.887 695.291 211.5C695.158 211.113 694.964 210.78 694.711 210.5C694.471 210.22 694.184 210.007 693.851 209.86C693.518 209.7 693.158 209.62 692.771 209.62C692.384 209.62 692.024 209.7 691.691 209.86C691.358 210.02 691.064 210.24 690.811 210.52C690.571 210.8 690.378 211.133 690.231 211.52C690.098 211.907 690.031 212.327 690.031 212.78ZM716.34 218H713.66V212.12C713.66 211.28 713.513 210.667 713.22 210.28C712.94 209.893 712.547 209.7 712.04 209.7C711.507 209.7 711.007 209.907 710.54 210.32C710.073 210.72 709.74 211.247 709.54 211.9V218H706.86V212.12C706.86 211.28 706.713 210.667 706.42 210.28C706.14 209.893 705.747 209.7 705.24 209.7C704.72 209.7 704.22 209.9 703.74 210.3C703.273 210.7 702.94 211.227 702.74 211.88V218H700.06V207.52H702.48V209.46C702.867 208.78 703.393 208.26 704.06 207.9C704.74 207.527 705.513 207.34 706.38 207.34C707.26 207.34 707.94 207.553 708.42 207.98C708.9 208.407 709.207 208.933 709.34 209.56C709.767 208.84 710.307 208.293 710.96 207.92C711.613 207.533 712.36 207.34 713.2 207.34C713.84 207.34 714.367 207.46 714.78 207.7C715.193 207.94 715.513 208.253 715.74 208.64C715.967 209.027 716.12 209.467 716.2 209.96C716.293 210.453 716.34 210.953 716.34 211.46V218ZM723.533 218.2C722.693 218.2 721.933 218.06 721.253 217.78C720.573 217.487 719.993 217.093 719.513 216.6C719.033 216.107 718.66 215.533 718.393 214.88C718.14 214.227 718.013 213.54 718.013 212.82C718.013 212.073 718.14 211.373 718.393 210.72C718.646 210.053 719.013 209.473 719.493 208.98C719.973 208.473 720.553 208.073 721.233 207.78C721.926 207.487 722.7 207.34 723.553 207.34C724.406 207.34 725.166 207.487 725.833 207.78C726.513 208.073 727.086 208.467 727.553 208.96C728.033 209.453 728.393 210.027 728.633 210.68C728.886 211.333 729.013 212.013 729.013 212.72C729.013 212.893 729.006 213.06 728.993 213.22C728.993 213.38 728.98 213.513 728.953 213.62H720.853C720.893 214.033 720.993 214.4 721.153 214.72C721.313 215.04 721.52 215.313 721.773 215.54C722.026 215.767 722.313 215.94 722.633 216.06C722.953 216.18 723.286 216.24 723.633 216.24C724.166 216.24 724.666 216.113 725.133 215.86C725.613 215.593 725.94 215.247 726.113 214.82L728.413 215.46C728.026 216.26 727.406 216.92 726.553 217.44C725.713 217.947 724.706 218.2 723.533 218.2ZM726.253 211.88C726.186 211.093 725.893 210.467 725.373 210C724.866 209.52 724.246 209.28 723.513 209.28C723.153 209.28 722.813 209.347 722.493 209.48C722.186 209.6 721.913 209.773 721.673 210C721.433 210.227 721.233 210.5 721.073 210.82C720.926 211.14 720.84 211.493 720.813 211.88H726.253ZM735.45 218V207.52H738.13V218H735.45ZM735.45 206.06V203.4H738.13V206.06H735.45ZM750.288 218H747.608V212.12C747.608 211.28 747.461 210.667 747.168 210.28C746.875 209.893 746.468 209.7 745.948 209.7C745.681 209.7 745.408 209.753 745.128 209.86C744.848 209.967 744.581 210.12 744.328 210.32C744.088 210.507 743.868 210.733 743.668 211C743.468 211.267 743.321 211.56 743.228 211.88V218H740.548V207.52H742.968V209.46C743.355 208.793 743.915 208.273 744.648 207.9C745.381 207.527 746.208 207.34 747.128 207.34C747.781 207.34 748.315 207.46 748.728 207.7C749.141 207.94 749.461 208.253 749.688 208.64C749.915 209.027 750.068 209.467 750.148 209.96C750.241 210.453 750.288 210.953 750.288 211.46V218ZM753.138 212.66V203.66H755.818V212.66H753.138ZM753.138 218V214.98H755.818V218H753.138Z" fill="white"/>
<rect x="82" y="76" width="129" height="43" rx="4" fill="#2368FF"/>
<path d="M103.38 90.84H105.92L107.52 95.54L109.12 90.84H111.68L109.26 97.3L111.06 101.84L115.08 90.8H118.08L112.3 105H109.98L107.52 99.04L105.06 105H102.74L97 90.8H99.96L104 101.84L105.76 97.3L103.38 90.84ZM122.846 105.2C122.006 105.2 121.246 105.06 120.566 104.78C119.886 104.487 119.306 104.093 118.826 103.6C118.346 103.107 117.972 102.533 117.706 101.88C117.452 101.227 117.326 100.54 117.326 99.82C117.326 99.0733 117.452 98.3733 117.706 97.72C117.959 97.0533 118.326 96.4733 118.806 95.98C119.286 95.4733 119.866 95.0733 120.546 94.78C121.239 94.4867 122.012 94.34 122.866 94.34C123.719 94.34 124.479 94.4867 125.146 94.78C125.826 95.0733 126.399 95.4667 126.866 95.96C127.346 96.4533 127.706 97.0267 127.946 97.68C128.199 98.3333 128.326 99.0133 128.326 99.72C128.326 99.8933 128.319 100.06 128.306 100.22C128.306 100.38 128.292 100.513 128.266 100.62H120.166C120.206 101.033 120.306 101.4 120.466 101.72C120.626 102.04 120.832 102.313 121.086 102.54C121.339 102.767 121.626 102.94 121.946 103.06C122.266 103.18 122.599 103.24 122.946 103.24C123.479 103.24 123.979 103.113 124.446 102.86C124.926 102.593 125.252 102.247 125.426 101.82L127.726 102.46C127.339 103.26 126.719 103.92 125.866 104.44C125.026 104.947 124.019 105.2 122.846 105.2ZM125.566 98.88C125.499 98.0933 125.206 97.4667 124.686 97C124.179 96.52 123.559 96.28 122.826 96.28C122.466 96.28 122.126 96.3467 121.806 96.48C121.499 96.6 121.226 96.7733 120.986 97C120.746 97.2267 120.546 97.5 120.386 97.82C120.239 98.14 120.152 98.4933 120.126 98.88H125.566ZM129.938 90.4H132.618V101.64C132.618 102.027 132.712 102.327 132.898 102.54C133.085 102.753 133.352 102.86 133.698 102.86C133.858 102.86 134.032 102.833 134.218 102.78C134.418 102.727 134.605 102.66 134.778 102.58L135.138 104.62C134.778 104.793 134.358 104.927 133.878 105.02C133.398 105.113 132.965 105.16 132.578 105.16C131.738 105.16 131.085 104.94 130.618 104.5C130.165 104.047 129.938 103.407 129.938 102.58V90.4ZM135.646 99.76C135.646 99.0267 135.773 98.3333 136.026 97.68C136.279 97.0267 136.646 96.4533 137.126 95.96C137.606 95.4667 138.186 95.0733 138.866 94.78C139.546 94.4867 140.313 94.34 141.166 94.34C142.313 94.34 143.286 94.5867 144.086 95.08C144.899 95.5733 145.506 96.22 145.906 97.02L143.286 97.82C143.059 97.4333 142.759 97.14 142.386 96.94C142.013 96.7267 141.599 96.62 141.146 96.62C140.759 96.62 140.399 96.7 140.066 96.86C139.733 97.0067 139.439 97.22 139.186 97.5C138.946 97.7667 138.753 98.0933 138.606 98.48C138.473 98.8667 138.406 99.2933 138.406 99.76C138.406 100.227 138.479 100.653 138.626 101.04C138.773 101.427 138.966 101.76 139.206 102.04C139.459 102.32 139.753 102.54 140.086 102.7C140.419 102.847 140.773 102.92 141.146 102.92C141.626 102.92 142.066 102.8 142.466 102.56C142.879 102.32 143.166 102.027 143.326 101.68L145.946 102.48C145.586 103.28 144.993 103.933 144.166 104.44C143.339 104.947 142.346 105.2 141.186 105.2C140.333 105.2 139.566 105.053 138.886 104.76C138.206 104.467 137.626 104.073 137.146 103.58C136.666 103.073 136.293 102.493 136.026 101.84C135.773 101.173 135.646 100.48 135.646 99.76ZM152.337 105.2C151.484 105.2 150.717 105.053 150.037 104.76C149.357 104.467 148.777 104.073 148.297 103.58C147.831 103.073 147.471 102.493 147.217 101.84C146.964 101.187 146.837 100.5 146.837 99.78C146.837 99.0467 146.964 98.3533 147.217 97.7C147.471 97.0467 147.831 96.4733 148.297 95.98C148.777 95.4733 149.357 95.0733 150.037 94.78C150.717 94.4867 151.484 94.34 152.337 94.34C153.191 94.34 153.951 94.4867 154.617 94.78C155.297 95.0733 155.871 95.4733 156.337 95.98C156.817 96.4733 157.184 97.0467 157.437 97.7C157.691 98.3533 157.817 99.0467 157.817 99.78C157.817 100.5 157.691 101.187 157.437 101.84C157.184 102.493 156.824 103.073 156.357 103.58C155.891 104.073 155.317 104.467 154.637 104.76C153.957 105.053 153.191 105.2 152.337 105.2ZM149.597 99.78C149.597 100.247 149.664 100.673 149.797 101.06C149.944 101.433 150.137 101.76 150.377 102.04C150.631 102.32 150.924 102.54 151.257 102.7C151.591 102.847 151.951 102.92 152.337 102.92C152.724 102.92 153.084 102.847 153.417 102.7C153.751 102.54 154.037 102.32 154.277 102.04C154.531 101.76 154.724 101.427 154.857 101.04C155.004 100.653 155.077 100.227 155.077 99.76C155.077 99.3067 155.004 98.8867 154.857 98.5C154.724 98.1133 154.531 97.78 154.277 97.5C154.037 97.22 153.751 97.0067 153.417 96.86C153.084 96.7 152.724 96.62 152.337 96.62C151.951 96.62 151.591 96.7 151.257 96.86C150.924 97.02 150.631 97.24 150.377 97.52C150.137 97.8 149.944 98.1333 149.797 98.52C149.664 98.9067 149.597 99.3267 149.597 99.78ZM175.906 105H173.226V99.12C173.226 98.28 173.08 97.6667 172.786 97.28C172.506 96.8933 172.113 96.7 171.606 96.7C171.073 96.7 170.573 96.9067 170.106 97.32C169.64 97.72 169.306 98.2467 169.106 98.9V105H166.426V99.12C166.426 98.28 166.28 97.6667 165.986 97.28C165.706 96.8933 165.313 96.7 164.806 96.7C164.286 96.7 163.786 96.9 163.306 97.3C162.84 97.7 162.506 98.2267 162.306 98.88V105H159.626V94.52H162.046V96.46C162.433 95.78 162.96 95.26 163.626 94.9C164.306 94.5267 165.08 94.34 165.946 94.34C166.826 94.34 167.506 94.5533 167.986 94.98C168.466 95.4067 168.773 95.9333 168.906 96.56C169.333 95.84 169.873 95.2933 170.526 94.92C171.18 94.5333 171.926 94.34 172.766 94.34C173.406 94.34 173.933 94.46 174.346 94.7C174.76 94.94 175.08 95.2533 175.306 95.64C175.533 96.0267 175.686 96.4667 175.766 96.96C175.86 97.4533 175.906 97.9533 175.906 98.46V105ZM183.1 105.2C182.26 105.2 181.5 105.06 180.82 104.78C180.14 104.487 179.56 104.093 179.08 103.6C178.6 103.107 178.226 102.533 177.96 101.88C177.706 101.227 177.58 100.54 177.58 99.82C177.58 99.0733 177.706 98.3733 177.96 97.72C178.213 97.0533 178.58 96.4733 179.06 95.98C179.54 95.4733 180.12 95.0733 180.8 94.78C181.493 94.4867 182.266 94.34 183.12 94.34C183.973 94.34 184.733 94.4867 185.4 94.78C186.08 95.0733 186.653 95.4667 187.12 95.96C187.6 96.4533 187.96 97.0267 188.2 97.68C188.453 98.3333 188.58 99.0133 188.58 99.72C188.58 99.8933 188.573 100.06 188.56 100.22C188.56 100.38 188.546 100.513 188.52 100.62H180.42C180.46 101.033 180.56 101.4 180.72 101.72C180.88 102.04 181.086 102.313 181.34 102.54C181.593 102.767 181.88 102.94 182.2 103.06C182.52 103.18 182.853 103.24 183.2 103.24C183.733 103.24 184.233 103.113 184.7 102.86C185.18 102.593 185.506 102.247 185.68 101.82L187.98 102.46C187.593 103.26 186.973 103.92 186.12 104.44C185.28 104.947 184.273 105.2 183.1 105.2ZM185.82 98.88C185.753 98.0933 185.46 97.4667 184.94 97C184.433 96.52 183.813 96.28 183.08 96.28C182.72 96.28 182.38 96.3467 182.06 96.48C181.753 96.6 181.48 96.7733 181.24 97C181 97.2267 180.8 97.5 180.64 97.82C180.493 98.14 180.406 98.4933 180.38 98.88H185.82ZM190.732 99.66V90.66H193.412V99.66H190.732ZM190.732 105V101.98H193.412V105H190.732Z" fill="white"/>
<rect x="1" y="146" width="48" height="41" rx="3" fill="white"/>
<path d="M13.08 159.8L16.58 166.64L20.14 159.8H23.12L17.96 169.04V174H15.22V169L10.08 159.8H13.08ZM27.4077 174.2C26.5543 174.2 25.7877 174.053 25.1077 173.76C24.4277 173.467 23.8477 173.073 23.3677 172.58C22.901 172.073 22.541 171.493 22.2877 170.84C22.0343 170.187 21.9077 169.5 21.9077 168.78C21.9077 168.047 22.0343 167.353 22.2877 166.7C22.541 166.047 22.901 165.473 23.3677 164.98C23.8477 164.473 24.4277 164.073 25.1077 163.78C25.7877 163.487 26.5543 163.34 27.4077 163.34C28.261 163.34 29.021 163.487 29.6877 163.78C30.3677 164.073 30.941 164.473 31.4077 164.98C31.8877 165.473 32.2543 166.047 32.5077 166.7C32.761 167.353 32.8877 168.047 32.8877 168.78C32.8877 169.5 32.761 170.187 32.5077 170.84C32.2543 171.493 31.8943 172.073 31.4277 172.58C30.961 173.073 30.3877 173.467 29.7077 173.76C29.0277 174.053 28.261 174.2 27.4077 174.2ZM24.6677 168.78C24.6677 169.247 24.7343 169.673 24.8677 170.06C25.0143 170.433 25.2077 170.76 25.4477 171.04C25.701 171.32 25.9943 171.54 26.3277 171.7C26.661 171.847 27.021 171.92 27.4077 171.92C27.7943 171.92 28.1543 171.847 28.4877 171.7C28.821 171.54 29.1077 171.32 29.3477 171.04C29.601 170.76 29.7943 170.427 29.9277 170.04C30.0743 169.653 30.1477 169.227 30.1477 168.76C30.1477 168.307 30.0743 167.887 29.9277 167.5C29.7943 167.113 29.601 166.78 29.3477 166.5C29.1077 166.22 28.821 166.007 28.4877 165.86C28.1543 165.7 27.7943 165.62 27.4077 165.62C27.021 165.62 26.661 165.7 26.3277 165.86C25.9943 166.02 25.701 166.24 25.4477 166.52C25.2077 166.8 25.0143 167.133 24.8677 167.52C24.7343 167.907 24.6677 168.327 24.6677 168.78ZM35.2166 168.66V159.66H37.8966V168.66H35.2166ZM35.2166 174V170.98H37.8966V174H35.2166Z" fill="#2368FF"/>
<rect x="1" y="146" width="48" height="41" rx="3" stroke="#2368FF" stroke-width="2"/>
<path d="M355.572 562.1H370.128L377.053 505.955L355.57 505.956L355.572 562.1Z" fill="#FFB7B7"/>
<path d="M351.859 557.348L380.526 557.347H380.527C385.372 557.347 390.018 559.272 393.444 562.698C396.87 566.123 398.795 570.77 398.795 575.615V576.208L351.86 576.21L351.859 557.348Z" fill="#2F2E41"/>
<path d="M276.761 562.1H291.317L298.241 505.955L276.758 505.956L276.761 562.1Z" fill="#FFB7B7"/>
<path d="M273.051 557.348L301.717 557.347H301.718C306.563 557.347 311.209 559.272 314.635 562.698C318.061 566.123 319.986 570.77 319.986 575.615V576.208L273.052 576.21L273.051 557.348Z" fill="#2F2E41"/>
<path d="M270.832 307.638V455.879L274.585 551.579H305.547L315.867 371.438L336.508 445.559L349.644 549.702L387.173 547.826L361.841 307.638H270.832Z" fill="#2F2E41"/>
<path d="M306.822 174.408C319.258 174.408 329.34 164.327 329.34 151.891C329.34 139.455 319.258 129.373 306.822 129.373C294.386 129.373 284.305 139.455 284.305 151.891C284.305 164.327 294.386 174.408 306.822 174.408Z" fill="#FFB8B8"/>
<path d="M297.468 180.275L291.473 186.606L285.844 313.268L352.458 311.391L336.508 200.68L322.435 187.193L315.294 180.275H297.468Z" fill="#2368FF"/>
<path d="M286.782 194.111L291.839 185.904L293.35 203.493C293.35 203.493 305.547 242.899 304.609 277.614C303.671 312.328 309.3 393.955 301.794 394.893C294.288 395.831 262.388 397.708 262.388 391.14C262.388 384.572 260.512 210.061 260.512 210.061L286.782 194.111Z" fill="#3F3D56"/>
<path d="M320.925 185.904L333.695 195.987L361.842 206.308C361.842 206.308 361.842 326.402 367.471 354.549C373.1 382.696 383.421 385.511 370.286 386.449C357.15 387.387 358.089 382.696 358.089 382.696C358.089 382.696 367.471 335.784 355.274 326.402C343.077 317.02 319.621 262.602 321.498 232.579C323.374 202.555 319.048 185.904 320.925 185.904Z" fill="#3F3D56"/>
<path d="M285.522 158.936C285.522 158.936 287.435 155.576 286.991 144.352C286.546 133.128 303.637 139.476 317.919 138.406C332.201 137.335 329.178 157.144 329.178 157.144C329.178 157.144 330.208 155.967 332.414 146.406C334.62 136.845 329.611 127.318 329.611 127.318C328.136 117.271 320.186 120.491 320.186 120.491C324.015 121.982 323.28 125.169 323.28 125.169C320.039 119.487 312.089 122.707 312.089 122.707C301.486 116.053 290.74 124.815 290.74 124.815C277.931 127.722 285.443 137.908 285.443 137.908C272.561 144.418 285.522 158.936 285.522 158.936Z" fill="#2F2E41"/>
<path d="M262.42 377.575C263.374 376.566 264.096 375.36 264.534 374.042C264.972 372.725 265.116 371.327 264.955 369.948C264.795 368.568 264.334 367.241 263.605 366.059C262.876 364.877 261.896 363.87 260.736 363.107L264.792 341.784L252.435 336.158L247.13 366.352C245.978 368.386 245.613 370.773 246.103 373.059C246.593 375.345 247.905 377.371 249.79 378.755C251.675 380.138 254.001 380.782 256.329 380.564C258.657 380.347 260.824 379.283 262.42 377.575Z" fill="#FFB7B7"/>
<path d="M265.202 210.061L262.711 208.726C262.711 208.726 249.252 213.814 250.19 217.567C251.128 221.32 242.684 352.673 245.499 357.364C248.314 362.055 270.831 358.302 270.831 358.302L265.202 210.061Z" fill="#3F3D56"/>
<path d="M372.309 368.731C371.224 367.864 370.343 366.77 369.727 365.525C369.11 364.281 368.775 362.916 368.743 361.528C368.711 360.14 368.984 358.761 369.542 357.49C370.101 356.219 370.932 355.085 371.975 354.169L365.008 333.612L376.468 326.331L385.9 355.5C387.322 357.356 388.014 359.669 387.844 362C387.675 364.332 386.656 366.521 384.981 368.152C383.306 369.783 381.09 370.742 378.755 370.849C376.419 370.956 374.126 370.202 372.309 368.731V368.731Z" fill="#FFB7B7"/>
<path d="M361.311 350.808C361.311 350.808 384.131 351.41 386.269 346.374C388.408 341.339 361.871 212.418 362.281 208.571C362.691 204.724 348.657 201.547 348.657 201.547L346.375 203.214L361.311 350.808Z" fill="#3F3D56"/>
<path d="M462.17 356.61L448.042 287.381L441.836 236.248L428.086 245.143L429.985 301.491L451.931 359.873C451.226 361.217 450.936 362.739 451.098 364.248C451.261 365.756 451.868 367.183 452.843 368.345C453.818 369.508 455.117 370.354 456.574 370.776C458.031 371.199 459.581 371.178 461.027 370.718C462.472 370.257 463.748 369.377 464.693 368.189C465.637 367.001 466.206 365.559 466.329 364.047C466.451 362.535 466.121 361.02 465.381 359.696C464.64 358.371 463.523 357.297 462.17 356.61H462.17Z" fill="#FFB7B7"/>
<path d="M330.033 361.962L333.944 291.414L332.649 239.923L350.826 246.724L353.861 302.749L340.638 363.702C341.531 364.929 342.04 366.393 342.098 367.909C342.157 369.425 341.764 370.925 340.968 372.216C340.172 373.508 339.01 374.535 337.63 375.164C336.25 375.794 334.713 375.999 333.216 375.754C331.719 375.508 330.328 374.823 329.222 373.785C328.115 372.747 327.342 371.404 327.001 369.925C326.659 368.447 326.766 366.9 327.306 365.482C327.846 364.064 328.795 362.839 330.033 361.962Z" fill="#FFB7B7"/>
<path d="M368.103 567.07H377.391L381.81 531.244L368.102 531.245L368.103 567.07Z" fill="#FFB7B7"/>
<path d="M365.73 564.038L384.022 564.037H384.023C387.114 564.037 390.079 565.265 392.265 567.451C394.451 569.637 395.679 572.602 395.68 575.694V576.073L365.731 576.074L365.73 564.038Z" fill="#2F2E41"/>
<path d="M403.281 562.96L412.46 564.38L422.305 529.651L408.757 527.556L403.281 562.96Z" fill="#FFB7B7"/>
<path d="M401.402 559.601L419.479 562.397L419.48 562.397C422.535 562.87 425.277 564.537 427.103 567.031C428.929 569.526 429.689 572.644 429.217 575.699L429.159 576.073L399.562 571.495L401.402 559.601Z" fill="#2F2E41"/>
<path d="M365.371 556.374L365.323 556.114L331.699 374.318C329.03 359.724 331.159 344.657 337.767 331.374L358.119 290.671L418.845 298.898L426.012 350.719L451.552 449.575L451.527 449.656L418.805 553.596L397.359 555.007L416.356 462.225L381.572 383.22L384.025 554.96L365.371 556.374Z" fill="#2F2E41"/>
<path d="M420.26 305.53L419.859 304.902C419.787 304.789 412.411 293.676 392.338 301.096C371.847 308.672 355.969 294.039 355.811 293.891L355.732 293.816L351.092 252.454L345.613 218.877L363.052 215.817L371.625 210.673L405.718 210.066L414.689 217.123L429.419 218.728L430.767 249.323L430.761 249.356L420.26 305.53Z" fill="#2368FF"/>
<path d="M425.148 252.282V226.084L429.29 218.525L429.459 218.52C432.72 218.641 435.801 220.041 438.038 222.417C442.204 226.65 444.091 233.703 443.647 243.379L443.639 243.556L425.148 252.282Z" fill="#2368FF"/>
<path d="M352.952 249.434L331.841 246.9L331.824 246.657C331.104 236.13 332.941 228.315 337.286 223.431C339.466 220.819 342.559 219.135 345.936 218.721L346.058 218.715L351.773 223.91L352.952 249.434Z" fill="#2368FF"/>
<path d="M414.065 199.51H358.513C357.37 199.508 356.275 199.054 355.467 198.246C354.659 197.438 354.204 196.342 354.203 195.2V175.086C354.196 170.868 355.021 166.69 356.63 162.791C358.239 158.892 360.602 155.348 363.582 152.363C366.562 149.378 370.102 147.01 373.998 145.394C377.894 143.778 382.071 142.946 386.289 142.946C390.507 142.946 394.684 143.778 398.58 145.394C402.477 147.01 406.016 149.378 408.996 152.363C411.976 155.348 414.339 158.892 415.948 162.791C417.557 166.69 418.382 170.868 418.375 175.086V195.2C418.374 196.342 417.919 197.438 417.111 198.246C416.303 199.054 415.208 199.508 414.065 199.51Z" fill="#2F2E41"/>
<path d="M387.579 199.311C400.571 199.311 411.103 188.779 411.103 175.787C411.103 162.795 400.571 152.263 387.579 152.263C374.587 152.263 364.055 162.795 364.055 175.787C364.055 188.779 374.587 199.311 387.579 199.311Z" fill="#FFB7B7"/>
<path d="M409.936 176.522H378.878C378.295 176.522 377.732 176.308 377.294 175.922C376.857 175.536 376.575 175.003 376.502 174.424L376.1 171.208C376.062 170.898 375.923 170.61 375.707 170.386C375.49 170.162 375.206 170.015 374.898 169.967C374.59 169.918 374.275 169.971 374 170.118C373.725 170.264 373.505 170.496 373.373 170.778L371.337 175.141C371.143 175.553 370.836 175.902 370.452 176.146C370.068 176.391 369.622 176.521 369.167 176.522H364.449C364.116 176.522 363.786 176.453 363.48 176.318C363.175 176.183 362.902 175.985 362.677 175.738C362.453 175.492 362.282 175.2 362.177 174.884C362.072 174.567 362.034 174.232 362.066 173.9L363.926 154.47C363.966 154.054 364.113 153.656 364.353 153.314C364.592 152.972 364.917 152.698 365.294 152.52C379.518 145.88 393.941 145.888 408.165 152.545C408.526 152.714 408.839 152.971 409.075 153.292C409.312 153.613 409.464 153.988 409.52 154.383L412.306 173.787C412.355 174.127 412.331 174.473 412.234 174.803C412.137 175.132 411.971 175.437 411.746 175.696C411.521 175.956 411.243 176.164 410.931 176.306C410.619 176.449 410.279 176.522 409.936 176.522H409.936Z" fill="#2F2E41"/>
<path d="M422.718 358.81C423.902 358.391 424.98 357.717 425.876 356.836C426.771 355.956 427.463 354.889 427.902 353.712C428.341 352.536 428.516 351.277 428.416 350.025C428.316 348.773 427.942 347.558 427.322 346.466L447.457 323.512L431.739 321.344L415.028 343.473C413.262 344.637 411.985 346.409 411.438 348.451C410.891 350.494 411.113 352.667 412.061 354.557C413.009 356.448 414.617 357.925 416.581 358.709C418.546 359.492 420.729 359.528 422.718 358.81Z" fill="#9F616A"/>
<path d="M447.001 562.233L432.958 562.232L426.277 508.066L447.004 508.067L447.001 562.233Z" fill="#9F616A"/>
<path d="M450.581 575.847L405.301 575.845V575.273C405.301 570.598 407.158 566.116 410.463 562.811C413.768 559.506 418.251 557.649 422.925 557.648H422.926L450.582 557.65L450.581 575.847Z" fill="#2F2E41"/>
<path d="M520.511 550.482L507.099 554.646L484.656 504.897L504.451 498.752L520.511 550.482Z" fill="#9F616A"/>
<path d="M527.968 562.42L484.724 575.846L484.554 575.299C483.168 570.835 483.613 566.004 485.789 561.867C487.965 557.73 491.696 554.628 496.16 553.241L496.161 553.241L522.573 545.041L527.968 562.42Z" fill="#2F2E41"/>
<path d="M436.247 312.506L415.449 336.325L431.732 337.79L436.247 312.506Z" fill="#E6E6E6"/>
<path d="M428.12 343.209C428.12 343.209 420.896 346.82 419.993 363.075C419.089 379.33 422.702 421.775 422.702 421.775C422.702 421.775 419.09 440.739 422.702 457.896C426.314 475.053 419.09 537.358 423.605 537.358C428.12 537.358 451.598 540.068 452.501 537.358C453.405 534.649 454.308 494.014 454.308 494.014C454.308 494.014 461.532 473.244 454.308 460.605C454.308 460.605 479.531 504.65 495.846 538.264C499.417 545.621 526.549 537.361 522.034 529.233C517.519 521.106 506.683 484.082 506.683 484.082C506.683 484.082 498.556 456.992 484.108 445.253L491.332 387.459C491.332 387.459 506.684 348.629 497.655 343.211C488.626 337.793 428.12 343.209 428.12 343.209Z" fill="#2F2E41"/>
<path d="M455.209 196.015C468.175 196.015 478.687 185.503 478.687 172.537C478.687 159.57 468.175 149.059 455.209 149.059C442.242 149.059 431.73 159.57 431.73 172.537C431.73 185.503 442.242 196.015 455.209 196.015Z" fill="#A0616A"/>
<path d="M481.397 197.821L452.209 214.978C452.209 214.978 441.033 221.272 436.858 232.135C432.408 243.713 434.995 260.014 436.858 263.741C440.47 270.965 435.343 289.026 435.343 289.026L430.828 330.564C430.828 330.564 414.574 345.915 427.217 347.721C439.859 349.527 462.434 346.818 475.979 347.721C489.525 348.624 504.876 350.431 500.361 341.398C495.846 332.366 490.428 326.047 495.846 307.99C500.086 293.857 499.902 241.016 499.622 218.701C499.583 215.637 498.761 212.633 497.234 209.976C495.707 207.319 493.525 205.096 490.897 203.52L481.397 197.821Z" fill="#E5E5E5"/>
<path opacity="0.1" d="M468.306 226.268L471.015 281.351L444.761 334.517L440.309 332.823L467.399 283.157L468.306 226.268Z" fill="black"/>
<path opacity="0.1" d="M498.105 293.089V286.767L467.406 337.337L498.105 293.089Z" fill="black"/>
<path d="M438.547 150.787L434.669 149.236C434.669 149.236 442.786 140.301 454.076 141.077L450.9 137.581C450.9 137.581 458.663 134.474 465.72 142.631C469.43 146.919 473.722 151.96 476.401 157.638H480.557L478.823 161.458L484.895 165.279L478.662 164.595C479.253 167.893 479.051 171.284 478.073 174.489L478.244 177.508C478.244 177.508 471.016 166.324 471.016 164.773V168.658C471.016 168.658 467.134 165.161 467.134 162.831L465.017 165.55L463.958 161.278L450.903 165.55L453.018 162.052L444.901 163.218L448.077 158.945C448.077 158.945 438.903 163.995 438.55 168.269C438.197 172.543 433.61 177.981 433.61 177.981L431.493 174.096C431.493 174.096 428.318 156.615 438.547 150.787Z" fill="#2F2E41"/>
<path d="M453.735 361.365C454.826 360.742 455.767 359.888 456.492 358.862C457.217 357.836 457.708 356.664 457.931 355.428C458.154 354.192 458.104 352.922 457.783 351.708C457.462 350.493 456.879 349.364 456.074 348.399L471.815 322.236L455.962 322.892L443.445 347.637C441.914 349.096 440.971 351.065 440.795 353.173C440.62 355.28 441.224 357.379 442.492 359.071C443.76 360.763 445.605 361.932 447.678 362.354C449.75 362.777 451.905 362.425 453.735 361.365Z" fill="#9F616A"/>
<path d="M489.526 209.562L496.298 208.208C496.298 208.208 516.616 223.108 510.295 252.907C503.973 282.706 475.98 327.857 475.98 327.857C475.98 327.857 469.657 335.985 467.853 337.79C466.048 339.596 462.435 337.79 464.241 340.5C466.048 343.209 461.532 345.014 461.532 345.014C461.532 345.014 441.665 345.014 443.472 337.79C445.278 330.566 475.98 279.09 475.98 279.09L471.466 231.231C471.466 231.231 467.852 207.756 489.526 209.562Z" fill="#E5E5E5"/>
<path d="M194.206 244.738C194.425 274.218 175.589 269.759 152.624 269.759C129.658 269.759 113.043 274.15 111.041 244.738C107.859 198 120.135 163 152.624 163C186.232 163 193.859 198 194.206 244.738Z" fill="#2F2E41"/>
<path d="M68.4292 182.208C69.1712 183.71 69.5751 185.355 69.6123 187.03C69.6495 188.704 69.3191 190.366 68.6444 191.899C67.9697 193.432 66.9671 194.798 65.7072 195.902C64.4474 197.005 62.9609 197.819 61.3525 198.286L59.257 238.943L42.2188 226.403L46.8208 189.717C46.2156 186.963 46.6417 184.082 48.0183 181.622C49.3949 179.161 51.6263 177.29 54.2898 176.365C56.9533 175.439 59.8638 175.523 62.4698 176.6C65.0758 177.677 67.1961 179.672 68.4292 182.208V182.208Z" fill="#A0616A"/>
<path d="M222.073 411.977C222.998 410.58 223.605 408.998 223.852 407.341C224.099 405.685 223.98 403.994 223.502 402.389C223.025 400.784 222.202 399.302 221.091 398.049C219.979 396.797 218.606 395.803 217.069 395.138L220.09 354.539L201.613 364.843L201.577 401.817C200.632 404.473 200.693 407.384 201.75 409.998C202.807 412.612 204.786 414.748 207.313 416C209.839 417.253 212.737 417.535 215.458 416.793C218.178 416.051 220.532 414.338 222.073 411.977H222.073Z" fill="#A0616A"/>
<path d="M136.987 607.409L150.954 607.408L157.598 553.535L136.984 553.536L136.987 607.409Z" fill="#A0616A"/>
<path d="M133.422 602.849L160.928 602.848H160.929C163.231 602.848 165.51 603.301 167.637 604.182C169.764 605.063 171.696 606.354 173.324 607.982C174.952 609.609 176.243 611.542 177.124 613.668C178.005 615.795 178.458 618.075 178.458 620.376V620.946L133.423 620.948L133.422 602.849Z" fill="#2F2E41"/>
<path d="M225.846 607.409L239.813 607.408L246.458 553.535L225.844 553.536L225.846 607.409Z" fill="#A0616A"/>
<path d="M222.281 602.849L249.787 602.848H249.788C252.09 602.848 254.37 603.301 256.496 604.182C258.623 605.063 260.555 606.354 262.183 607.982C263.811 609.609 265.102 611.542 265.983 613.668C266.864 615.795 267.317 618.075 267.317 620.376V620.946L222.282 620.948L222.281 602.849Z" fill="#2F2E41"/>
<path d="M217.874 389.608L217.268 389.498C212.18 388.577 207.031 387.646 202.504 386.672L202.056 386.575L202.054 386.117C201.976 365.467 201.899 344.82 201.784 323.986C190.971 302.191 186.425 277.821 188.654 253.593L188.679 253.337L188.889 253.187C190.86 251.818 193.159 251 195.551 250.815C197.943 250.63 200.341 251.085 202.499 252.135C204.61 253.288 206.414 254.93 207.761 256.922C209.109 258.915 209.96 261.201 210.245 263.589C214.362 286.027 218.624 309.263 223.378 332.159L223.395 332.243L223.387 332.328C221.626 351.001 219.805 370.311 217.936 388.994L217.874 389.608Z" fill="#E5E5E5"/>
<path d="M208.77 588.208L208.659 587.683C202.125 556.777 195.817 531.609 189.718 507.269C182.408 478.1 175.481 450.46 168.488 414.692C169.448 459.798 171.679 492.204 174.243 529.453C175.401 546.273 176.598 563.666 177.812 583.97L177.85 584.589L177.229 584.574C155.37 584.014 132.974 582.663 111.315 581.358L110.742 581.324L110.781 580.751C114.882 520.309 116.167 481.034 117.105 452.356C119.084 391.852 119.389 382.552 141.926 331.347C142.78 329.404 147.877 323.665 153.481 324.539L197.823 331.44L197.901 331.831C199.152 338.133 205.361 357.258 213.955 383.728C232.327 440.314 260.09 525.827 268.763 576.799L268.861 577.377L268.282 577.459C255.684 579.249 246.618 581.114 237.85 582.916C229.554 584.623 220.976 586.386 209.3 588.128L208.77 588.208Z" fill="#2F2E41"/>
<path d="M170.231 347.435C158.396 347.436 146.698 343.33 138.312 335.334C137.001 334.572 135.893 333.505 135.08 332.225C134.268 330.945 133.775 329.488 133.642 327.978C133.427 326.594 133.518 325.18 133.907 323.835C134.296 322.49 134.976 321.246 135.897 320.191C127.675 310.239 119.186 299.954 111.06 289.48L110.836 289.191L111.096 288.695C116.412 278.537 121.91 268.035 127.189 257.657C127.556 256.752 128.161 255.964 128.94 255.374C129.718 254.785 130.641 254.416 131.611 254.308C132.454 254.149 133.321 254.163 134.158 254.35C134.995 254.537 135.785 254.893 136.48 255.396L136.491 255.144C136.711 249.89 136.932 244.637 137.159 239.657L137.183 239.125L137.715 239.113C147.866 238.889 158.363 238.657 168.673 238.046L169.065 238.022L174.179 249.429C182.485 248.623 190.842 250.319 198.176 254.3L198.513 254.48L198.474 254.861C196.417 274.465 196.865 294.252 199.805 313.743C199.646 322.642 199.474 331.738 197.668 338.989L197.616 339.2L197.435 339.323C189.375 344.671 179.904 347.496 170.231 347.435Z" fill="#E5E5E5"/>
<path d="M126.667 297.947L125.986 297.634C118.034 293.644 110.057 289.219 102.342 284.939L101.276 284.731C80.9641 280.653 69.7751 278.408 51.45 267.662L51.3093 267.578L51.2336 267.434C42.0579 249.905 39.4984 234.583 41.79 210.902L41.8359 210.427L42.311 210.389C44.2974 210.227 47.5352 210.12 50.6662 210.015C53.7124 209.914 56.8623 209.808 58.7934 209.657L59.2415 209.621L59.38 210.048C61.7812 217.463 63.821 224.381 65.9808 231.705C68.2006 239.234 70.495 247.015 73.2897 255.661C83.5221 258.601 110.953 257.722 119.482 256.561C122.033 256.373 124.59 256.829 126.919 257.888C129.247 258.947 131.272 260.574 132.808 262.62L132.966 262.818L132.925 263.068C131.047 274.527 128.891 286.054 126.806 297.202L126.667 297.947Z" fill="#E5E5E5"/>
<path d="M176.667 220.242C184.079 206.682 179.096 189.681 165.536 182.268C151.976 174.856 134.975 179.839 127.562 193.399C120.15 206.959 125.133 223.96 138.693 231.373C152.253 238.785 169.254 233.802 176.667 220.242Z" fill="#A0616A"/>
<path d="M120.156 205.152H131.223L136.106 191.481L137.082 205.152H142.372L145.22 197.177L145.789 205.152H185.094C185.094 197.296 181.973 189.762 176.418 184.207C170.863 178.652 163.329 175.531 155.473 175.531H149.777C141.921 175.531 134.387 178.652 128.832 184.207C123.277 189.762 120.156 197.296 120.156 205.152Z" fill="#2F2E41"/>
<path d="M695.445 542.415C698.889 543.625 702.586 543.929 706.181 543.295C709.775 542.662 713.146 541.114 715.969 538.8C723.158 532.766 725.414 522.826 727.245 513.622L732.669 486.397L721.313 494.217C713.147 499.84 704.797 505.644 699.142 513.789C693.487 521.934 691.019 533.053 695.562 541.866" fill="#2F2E41"/>
<path d="M696.419 575.375C695.27 567.003 694.088 558.524 694.894 550.062C695.611 542.547 697.903 535.207 702.571 529.188C705.049 525.999 708.064 523.267 711.48 521.115C712.371 520.554 713.19 521.965 712.304 522.524C706.393 526.26 701.82 531.777 699.246 538.279C696.404 545.509 695.947 553.392 696.441 561.072C696.737 565.717 697.365 570.33 697.998 574.94C698.049 575.149 698.018 575.369 697.912 575.556C697.806 575.743 697.633 575.882 697.428 575.945C697.219 576.001 696.996 575.973 696.808 575.866C696.62 575.759 696.482 575.582 696.423 575.374L696.419 575.375Z" fill="#F2F2F2"/>
<path d="M788.15 575.041C788.15 575.041 776.224 545.685 812.001 523.669L788.15 575.041Z" fill="#2F2E41"/>
<path d="M773.483 574.506C773.483 574.506 769.845 553.583 741.688 553.763L773.483 574.506Z" fill="#2F2E41"/>
<path d="M547.977 564.101H537.516L532.539 523.747H547.979L547.977 564.101Z" fill="#FFB7B7"/>
<path d="M550.648 574.243L516.914 574.241V573.815C516.914 570.332 518.298 566.993 520.76 564.53C523.222 562.068 526.562 560.685 530.044 560.685H530.045L550.649 560.685L550.648 574.243Z" fill="#2F2E41"/>
<path d="M637.867 548.808L629.095 554.51L602.926 523.391L615.872 514.975L637.867 548.808Z" fill="#FFB7B7"/>
<path d="M645.63 555.856L617.346 574.243L617.114 573.885C615.216 570.965 614.556 567.411 615.278 564.005C616 560.598 618.046 557.618 620.965 555.72L620.966 555.719L638.24 544.489L645.63 555.856Z" fill="#2F2E41"/>
<path d="M574.714 183.203C580.038 183.203 584.354 178.887 584.354 173.563C584.354 168.239 580.038 163.923 574.714 163.923C569.39 163.923 565.074 168.239 565.074 173.563C565.074 178.887 569.39 183.203 574.714 183.203Z" fill="#2F2E41"/>
<path d="M565.614 177.069C564.609 175.737 563.966 174.168 563.749 172.513C563.532 170.859 563.748 169.177 564.376 167.631C565.004 166.086 566.022 164.729 567.331 163.695C568.64 162.661 570.195 161.984 571.844 161.73C570.506 161.693 569.175 161.936 567.936 162.442C566.696 162.948 565.576 163.707 564.646 164.67C563.716 165.632 562.997 166.779 562.535 168.035C562.072 169.291 561.877 170.63 561.96 171.966C562.044 173.302 562.405 174.606 563.02 175.795C563.635 176.983 564.492 178.031 565.534 178.871C566.577 179.71 567.783 180.323 569.076 180.671C570.368 181.019 571.719 181.093 573.042 180.89C571.597 180.853 570.178 180.49 568.892 179.828C567.605 179.166 566.485 178.223 565.614 177.069Z" fill="#2F2E41"/>
<path d="M564.727 235.99C580.366 235.99 593.044 223.312 593.044 207.673C593.044 192.033 580.366 179.355 564.727 179.355C549.088 179.355 536.41 192.033 536.41 207.673C536.41 223.312 549.088 235.99 564.727 235.99Z" fill="#2F2E41"/>
<path d="M538.339 197.358C541.404 190.685 546.941 185.463 553.782 182.796C560.624 180.128 568.234 180.223 575.006 183.06C574.721 182.917 574.437 182.772 574.144 182.637C567.319 179.504 559.529 179.21 552.487 181.82C545.445 184.431 539.728 189.731 536.594 196.557C533.461 203.382 533.167 211.172 535.777 218.214C538.388 225.256 543.688 230.973 550.514 234.106C550.806 234.241 551.101 234.361 551.396 234.485C544.83 231.198 539.798 225.488 537.362 218.561C534.926 211.634 535.276 204.031 538.339 197.358Z" fill="#2F2E41"/>
<path d="M599.083 356.267L619.377 461.543L646.013 540.181L602.888 549.06L561.032 391.781L559.763 542.719L505.223 543.987L517.907 453.932L533.306 352.263L599.083 356.267Z" fill="#2F2E41"/>
<path d="M564.815 235.794C575.322 235.794 583.84 227.276 583.84 216.769C583.84 206.261 575.322 197.743 564.815 197.743C554.307 197.743 545.789 206.261 545.789 216.769C545.789 227.276 554.307 235.794 564.815 235.794Z" fill="#FFB8B8"/>
<path d="M582.594 245.188L553.421 245.918L533.127 256.066L535.664 314.411L530.745 359.09C530.745 359.09 528.907 366.093 541.591 372.435C545.649 374.464 550.878 375.325 556.111 375.556C566.828 375.904 577.342 372.579 585.91 366.133C588.57 364.184 591.518 362.881 594.009 363.878C600.351 366.414 601.619 358.804 601.619 358.804L594.009 322.021L605.424 287.044L593.895 249.496L582.594 245.188Z" fill="#2368FF"/>
<path d="M547.254 196.876V218.059H552.161L558.404 211.37L557.568 218.059H579.252L577.915 211.37L580.59 218.059H584.047V196.876H547.254Z" fill="#2F2E41"/>
<path d="M587.852 211.493C587.797 210.919 587.531 210.386 587.105 209.998C586.679 209.61 586.123 209.395 585.547 209.394H583.219V224.74H585.547C586.123 224.739 586.679 224.523 587.105 224.135C587.531 223.747 587.797 223.215 587.852 222.641C589.013 222.329 590.038 221.642 590.769 220.689C591.5 219.735 591.897 218.567 591.898 217.366V216.768C591.897 215.566 591.5 214.398 590.769 213.445C590.038 212.491 589.013 211.805 587.852 211.493Z" fill="#2368FF"/>
<path d="M545.774 222.835H543.2C542.482 222.835 541.77 222.694 541.107 222.419C540.443 222.144 539.84 221.741 539.332 221.233C538.825 220.725 538.422 220.122 538.147 219.459C537.872 218.795 537.73 218.084 537.73 217.366V216.768C537.73 216.05 537.872 215.339 538.147 214.675C538.422 214.012 538.825 213.409 539.332 212.901C539.84 212.393 540.443 211.99 541.107 211.715C541.77 211.44 542.482 211.299 543.2 211.299H545.774V222.835V222.835Z" fill="#2368FF"/>
<path d="M546.411 224.74H544.082C543.465 224.74 542.873 224.495 542.436 224.058C541.999 223.621 541.754 223.029 541.754 222.412V211.722C541.754 211.104 541.999 210.512 542.436 210.076C542.873 209.639 543.465 209.394 544.082 209.394H546.411V224.74Z" fill="#2368FF"/>
<path d="M586.608 212.102H584.901C584.901 200.048 575.97 190.242 564.992 190.242C554.013 190.242 545.082 200.048 545.082 212.102H543.375C543.375 199.107 553.072 188.535 564.992 188.535C576.911 188.535 586.608 199.107 586.608 212.102Z" fill="#2368FF"/>
<path d="M517.075 389.929C518.102 389.369 518.993 388.59 519.686 387.648C520.379 386.705 520.858 385.623 521.087 384.475C521.317 383.328 521.292 382.145 521.015 381.008C520.737 379.872 520.214 378.81 519.482 377.898L528.27 361.862L519.828 354.145L507.735 376.964C506.284 378.296 505.371 380.113 505.171 382.073C504.97 384.032 505.495 385.997 506.646 387.595C507.798 389.193 509.495 390.313 511.417 390.744C513.339 391.174 515.352 390.884 517.075 389.929V389.929Z" fill="#FFB7B7"/>
<path d="M539.471 256.065L536.057 254.393C536.057 254.393 528.056 256.065 525.519 261.139C522.982 266.212 516.64 318.216 516.64 318.216L511.567 352.462C511.567 352.462 507.762 352.462 507.762 356.267C507.762 360.072 502.688 370.219 506.493 370.219C510.298 370.219 525.519 370.219 528.056 367.683C530.592 365.146 535.666 354.999 534.398 353.73C533.129 352.462 530.592 352.462 530.592 352.462L534.161 318.128L539.471 256.065Z" fill="#2368FF"/>
<path d="M607.639 378.009C606.787 377.207 606.122 376.228 605.69 375.141C605.257 374.054 605.069 372.885 605.137 371.717C605.205 370.55 605.529 369.411 606.085 368.382C606.641 367.352 607.415 366.457 608.355 365.76L603.91 348.022L614.031 342.692L619.955 367.83C621.022 369.485 621.445 371.474 621.143 373.421C620.842 375.367 619.837 377.135 618.318 378.39C616.8 379.645 614.875 380.299 612.906 380.229C610.938 380.159 609.064 379.369 607.639 378.009Z" fill="#FFB7B7"/>
<path d="M594.908 306.906L598.476 341.24C598.476 341.24 595.939 341.24 594.671 342.508C593.403 343.777 598.476 353.924 601.013 356.46C603.55 358.997 618.77 358.997 622.575 358.997C626.38 358.997 621.307 348.85 621.307 345.045C621.307 341.24 617.502 341.24 617.502 341.24L612.428 306.994C612.428 306.994 606.086 260.601 603.55 255.528C601.013 250.454 593.012 248.781 593.012 248.781L589.598 250.454L594.908 306.906Z" fill="#2368FF"/>
<path d="M525.345 378.385L525.182 378.488L522.336 374.003C522.12 373.663 521.839 373.368 521.508 373.135C521.178 372.903 520.805 372.738 520.411 372.65C520.017 372.562 519.61 372.553 519.212 372.622C518.814 372.691 518.434 372.838 518.093 373.055L508.591 379.083C507.903 379.52 507.416 380.212 507.238 381.008C507.06 381.804 507.206 382.637 507.642 383.326L523.253 407.931C523.469 408.272 523.751 408.567 524.081 408.799C524.411 409.031 524.784 409.196 525.178 409.284C525.572 409.372 525.979 409.382 526.377 409.313C526.775 409.243 527.155 409.096 527.496 408.88L536.998 402.851C537.686 402.415 538.173 401.722 538.351 400.926C538.529 400.131 538.383 399.297 537.947 398.609L527.207 381.681L527.371 381.577L525.345 378.385Z" fill="#3F3D56"/>
<path d="M521.798 374.372L537.385 398.94C537.711 399.455 537.82 400.077 537.687 400.672C537.554 401.266 537.191 401.783 536.677 402.109L527.129 408.167C526.615 408.493 525.992 408.601 525.398 408.468C524.804 408.335 524.287 407.972 523.96 407.458L508.373 382.889C508.047 382.375 507.938 381.752 508.071 381.158C508.204 380.564 508.567 380.047 509.082 379.72L510.24 378.985C510.272 379.161 510.346 379.327 510.457 379.467C510.568 379.608 510.711 379.719 510.875 379.791C511.039 379.862 511.218 379.893 511.396 379.879C511.574 379.866 511.747 379.809 511.898 379.713L517.341 376.26C517.492 376.164 517.617 376.032 517.705 375.877C517.794 375.721 517.842 375.546 517.847 375.367C517.852 375.189 517.812 375.011 517.733 374.851C517.653 374.691 517.535 374.553 517.389 374.45L518.629 373.663C519.143 373.337 519.766 373.228 520.36 373.361C520.954 373.494 521.472 373.857 521.798 374.372Z" fill="#2368FF"/>
<path d="M804.229 575.999H447.935C447.687 575.999 447.449 575.901 447.274 575.725C447.099 575.55 447 575.312 447 575.064C447 574.816 447.099 574.578 447.274 574.403C447.449 574.227 447.687 574.129 447.935 574.129H804.229C804.477 574.129 804.715 574.227 804.89 574.403C805.065 574.578 805.164 574.816 805.164 575.064C805.164 575.312 805.065 575.55 804.89 575.725C804.715 575.901 804.477 575.999 804.229 575.999Z" fill="#CBCBCB"/>
<defs>
<filter id="filter0_di_431_3618" x="54" y="188" width="273.87" height="370.305" filterUnits="userSpaceOnUse" color-interpolation-filters="sRGB">
<feFlood flood-opacity="0" result="BackgroundImageFix"/>
<feColorMatrix in="SourceAlpha" type="matrix" values="0 0 0 0 0 0 0 0 0 0 0 0 0 0 0 0 0 0 127 0" result="hardAlpha"/>
<feOffset dx="1.43496" dy="2.86993"/>
<feGaussianBlur stdDeviation="0.717481"/>
<feComposite in2="hardAlpha" operator="out"/>
<feColorMatrix type="matrix" values="0 0 0 0 0 0 0 0 0 0 0 0 0 0 0 0 0 0 0.25 0"/>
<feBlend mode="normal" in2="BackgroundImageFix" result="effect1_dropShadow_431_3618"/>
<feBlend mode="normal" in="SourceGraphic" in2="effect1_dropShadow_431_3618" result="shape"/>
<feColorMatrix in="SourceAlpha" type="matrix" values="0 0 0 0 0 0 0 0 0 0 0 0 0 0 0 0 0 0 127 0" result="hardAlpha"/>
<feOffset dx="1.43496" dy="1.43496"/>
<feGaussianBlur stdDeviation="2.86993"/>
<feComposite in2="hardAlpha" operator="arithmetic" k2="-1" k3="1"/>
<feColorMatrix type="matrix" values="0 0 0 0 1 0 0 0 0 1 0 0 0 0 1 0 0 0 0.25 0"/>
<feBlend mode="normal" in2="shape" result="effect2_innerShadow_431_3618"/>
</filter>
<filter id="filter1_di_431_3618" x="469" y="321" width="251" height="237" filterUnits="userSpaceOnUse" color-interpolation-filters="sRGB">
<feFlood flood-opacity="0" result="BackgroundImageFix"/>
<feColorMatrix in="SourceAlpha" type="matrix" values="0 0 0 0 0 0 0 0 0 0 0 0 0 0 0 0 0 0 127 0" result="hardAlpha"/>
<feOffset dx="1" dy="3"/>
<feGaussianBlur stdDeviation="2"/>
<feComposite in2="hardAlpha" operator="out"/>
<feColorMatrix type="matrix" values="0 0 0 0 0 0 0 0 0 0 0 0 0 0 0 0 0 0 0.25 0"/>
<feBlend mode="normal" in2="BackgroundImageFix" result="effect1_dropShadow_431_3618"/>
<feBlend mode="normal" in="SourceGraphic" in2="effect1_dropShadow_431_3618" result="shape"/>
<feColorMatrix in="SourceAlpha" type="matrix" values="0 0 0 0 0 0 0 0 0 0 0 0 0 0 0 0 0 0 127 0" result="hardAlpha"/>
<feOffset dx="0.540636" dy="0.540636"/>
<feGaussianBlur stdDeviation="1.08127"/>
<feComposite in2="hardAlpha" operator="arithmetic" k2="-1" k3="1"/>
<feColorMatrix type="matrix" values="0 0 0 0 1 0 0 0 0 1 0 0 0 0 1 0 0 0 0.25 0"/>
<feBlend mode="normal" in2="shape" result="effect2_innerShadow_431_3618"/>
</filter>
<filter id="filter2_di_431_3618" x="261" y="0" width="263.663" height="454.494" filterUnits="userSpaceOnUse" color-interpolation-filters="sRGB">
<feFlood flood-opacity="0" result="BackgroundImageFix"/>
<feColorMatrix in="SourceAlpha" type="matrix" values="0 0 0 0 0 0 0 0 0 0 0 0 0 0 0 0 0 0 127 0" result="hardAlpha"/>
<feOffset dx="0.831325" dy="1.66265"/>
<feGaussianBlur stdDeviation="0.415663"/>
<feComposite in2="hardAlpha" operator="out"/>
<feColorMatrix type="matrix" values="0 0 0 0 0.137255 0 0 0 0 0.407843 0 0 0 0 1 0 0 0 0.25 0"/>
<feBlend mode="normal" in2="BackgroundImageFix" result="effect1_dropShadow_431_3618"/>
<feBlend mode="normal" in="SourceGraphic" in2="effect1_dropShadow_431_3618" result="shape"/>
<feColorMatrix in="SourceAlpha" type="matrix" values="0 0 0 0 0 0 0 0 0 0 0 0 0 0 0 0 0 0 127 0" result="hardAlpha"/>
<feOffset dx="0.831325" dy="0.831325"/>
<feGaussianBlur stdDeviation="1.66265"/>
<feComposite in2="hardAlpha" operator="arithmetic" k2="-1" k3="1"/>
<feColorMatrix type="matrix" values="0 0 0 0 1 0 0 0 0 1 0 0 0 0 1 0 0 0 0.25 0"/>
<feBlend mode="normal" in2="shape" result="effect2_innerShadow_431_3618"/>
</filter>
</defs>
</svg>
