<svg width="655" height="641" viewBox="0 0 655 641" fill="none" xmlns="http://www.w3.org/2000/svg">
<g filter="url(#filter0_di_105_2200)">
<rect x="101" width="235" height="356" rx="4.98795" fill="white"/>
<rect x="101.25" y="0.25" width="234.5" height="355.5" rx="4.73795" stroke="#2368FF" stroke-width="0.5"/>
</g>
<rect x="1" y="184" width="147" height="41" rx="3" fill="white"/>
<path d="M22.1 200.22H17.56V212H14.82V200.22H10.28V197.8H22.1V200.22ZM26.4902 212.2C25.6502 212.2 24.8902 212.06 24.2102 211.78C23.5302 211.487 22.9502 211.093 22.4702 210.6C21.9902 210.093 21.6168 209.52 21.3502 208.88C21.0968 208.227 20.9702 207.54 20.9702 206.82C20.9702 205.82 21.1902 204.907 21.6302 204.08C22.0835 203.253 22.7235 202.593 23.5502 202.1C24.3902 201.593 25.3768 201.34 26.5102 201.34C27.6568 201.34 28.6368 201.593 29.4502 202.1C30.2635 202.593 30.8835 203.253 31.3102 204.08C31.7502 204.893 31.9702 205.773 31.9702 206.72C31.9702 206.88 31.9635 207.047 31.9502 207.22C31.9368 207.38 31.9235 207.513 31.9102 207.62H23.8102C23.8635 208.153 24.0168 208.62 24.2702 209.02C24.5368 209.42 24.8702 209.727 25.2702 209.94C25.6835 210.14 26.1235 210.24 26.5902 210.24C27.1235 210.24 27.6235 210.113 28.0902 209.86C28.5702 209.593 28.8968 209.247 29.0702 208.82L31.3702 209.46C31.1168 209.993 30.7502 210.467 30.2702 210.88C29.8035 211.293 29.2502 211.62 28.6102 211.86C27.9702 212.087 27.2635 212.2 26.4902 212.2ZM23.7502 205.92H29.2302C29.1768 205.387 29.0235 204.927 28.7702 204.54C28.5302 204.14 28.2102 203.833 27.8102 203.62C27.4102 203.393 26.9635 203.28 26.4702 203.28C25.9902 203.28 25.5502 203.393 25.1502 203.62C24.7635 203.833 24.4435 204.14 24.1902 204.54C23.9502 204.927 23.8035 205.387 23.7502 205.92ZM38.4828 212.2C37.6295 212.2 36.8628 212.06 36.1828 211.78C35.5028 211.487 34.9228 211.087 34.4428 210.58C33.9628 210.06 33.5895 209.473 33.3228 208.82C33.0695 208.167 32.9428 207.48 32.9428 206.76C32.9428 205.773 33.1628 204.873 33.6028 204.06C34.0561 203.233 34.6961 202.573 35.5228 202.08C36.3495 201.587 37.3295 201.34 38.4628 201.34C39.5961 201.34 40.5695 201.587 41.3828 202.08C42.1961 202.573 42.8028 203.22 43.2028 204.02L40.5828 204.82C40.3561 204.433 40.0561 204.14 39.6828 203.94C39.3095 203.727 38.8961 203.62 38.4428 203.62C37.9361 203.62 37.4695 203.753 37.0428 204.02C36.6295 204.273 36.3028 204.64 36.0628 205.12C35.8228 205.587 35.7028 206.133 35.7028 206.76C35.7028 207.373 35.8228 207.92 36.0628 208.4C36.3161 208.867 36.6495 209.24 37.0628 209.52C37.4761 209.787 37.9361 209.92 38.4428 209.92C38.7628 209.92 39.0628 209.867 39.3428 209.76C39.6361 209.653 39.8961 209.507 40.1228 209.32C40.3495 209.133 40.5161 208.92 40.6228 208.68L43.2428 209.48C43.0028 210 42.6495 210.467 42.1828 210.88C41.7295 211.293 41.1895 211.62 40.5628 211.86C39.9495 212.087 39.2561 212.2 38.4828 212.2ZM54.6319 212H51.9519V206.12C51.9519 205.307 51.7919 204.7 51.4719 204.3C51.1652 203.9 50.7385 203.7 50.1919 203.7C49.8719 203.7 49.5319 203.793 49.1719 203.98C48.8119 204.167 48.4852 204.427 48.1919 204.76C47.9119 205.08 47.7052 205.453 47.5719 205.88V212H44.8919V197.4H47.5719V203.46C47.9585 202.793 48.4852 202.273 49.1519 201.9C49.8185 201.527 50.5452 201.34 51.3319 201.34C52.0119 201.34 52.5652 201.46 52.9919 201.7C53.4185 201.927 53.7519 202.24 53.9919 202.64C54.2319 203.027 54.3985 203.467 54.4919 203.96C54.5852 204.44 54.6319 204.94 54.6319 205.46V212ZM70.4869 201.52C70.3935 201.427 70.2202 201.3 69.9669 201.14C69.7269 200.98 69.4269 200.827 69.0669 200.68C68.7202 200.533 68.3402 200.407 67.9269 200.3C67.5135 200.18 67.0935 200.12 66.6669 200.12C65.9202 200.12 65.3535 200.26 64.9669 200.54C64.5935 200.82 64.4069 201.213 64.4069 201.72C64.4069 202.107 64.5269 202.413 64.7669 202.64C65.0069 202.867 65.3669 203.06 65.8469 203.22C66.3269 203.38 66.9269 203.553 67.6469 203.74C68.5802 203.967 69.3869 204.247 70.0669 204.58C70.7602 204.9 71.2869 205.327 71.6469 205.86C72.0202 206.38 72.2069 207.073 72.2069 207.94C72.2069 208.7 72.0669 209.353 71.7869 209.9C71.5069 210.433 71.1202 210.867 70.6269 211.2C70.1335 211.533 69.5735 211.78 68.9469 211.94C68.3202 212.087 67.6535 212.16 66.9469 212.16C66.2402 212.16 65.5335 212.087 64.8269 211.94C64.1202 211.793 63.4402 211.587 62.7869 211.32C62.1335 211.04 61.5335 210.707 60.9869 210.32L62.2069 207.94C62.3269 208.06 62.5402 208.22 62.8469 208.42C63.1535 208.607 63.5269 208.8 63.9669 209C64.4069 209.187 64.8869 209.347 65.4069 209.48C65.9269 209.613 66.4535 209.68 66.9869 209.68C67.7335 209.68 68.3002 209.553 68.6869 209.3C69.0735 209.047 69.2669 208.687 69.2669 208.22C69.2669 207.793 69.1135 207.46 68.8069 207.22C68.5002 206.98 68.0735 206.773 67.5269 206.6C66.9802 206.413 66.3335 206.213 65.5869 206C64.6935 205.747 63.9469 205.467 63.3469 205.16C62.7469 204.84 62.3002 204.44 62.0069 203.96C61.7135 203.48 61.5669 202.88 61.5669 202.16C61.5669 201.187 61.7935 200.373 62.2469 199.72C62.7135 199.053 63.3402 198.553 64.1269 198.22C64.9135 197.873 65.7869 197.7 66.7469 197.7C67.4135 197.7 68.0402 197.773 68.6269 197.92C69.2269 198.067 69.7869 198.26 70.3069 198.5C70.8269 198.74 71.2935 199 71.7069 199.28L70.4869 201.52ZM73.8739 208.08V201.52H76.5539V207.5C76.5539 208.3 76.7006 208.907 76.9939 209.32C77.2872 209.72 77.7206 209.92 78.2939 209.92C78.6406 209.92 78.9806 209.853 79.3139 209.72C79.6606 209.573 79.9739 209.36 80.2539 209.08C80.5472 208.8 80.7939 208.447 80.9939 208.02V201.52H83.6739V209C83.6739 209.28 83.7206 209.48 83.8139 209.6C83.9206 209.72 84.0872 209.793 84.3139 209.82V212C84.0472 212.04 83.8206 212.067 83.6339 212.08C83.4606 212.107 83.3006 212.12 83.1539 212.12C82.6739 212.12 82.2806 212.013 81.9739 211.8C81.6806 211.573 81.5072 211.267 81.4539 210.88L81.3939 210.04C80.9272 210.747 80.3272 211.287 79.5939 211.66C78.8606 212.02 78.0539 212.2 77.1739 212.2C76.0939 212.2 75.2739 211.853 74.7139 211.16C74.1539 210.453 73.8739 209.427 73.8739 208.08ZM92.6172 212.2C91.8039 212.2 91.0839 212.02 90.4572 211.66C89.8439 211.287 89.3639 210.787 89.0172 210.16V216.26H86.3372V201.52H88.6772V203.32C89.0772 202.707 89.5839 202.227 90.1972 201.88C90.8105 201.52 91.5105 201.34 92.2972 201.34C93.0039 201.34 93.6505 201.48 94.2372 201.76C94.8372 202.04 95.3572 202.433 95.7972 202.94C96.2372 203.433 96.5772 204.007 96.8172 204.66C97.0705 205.3 97.1972 205.993 97.1972 206.74C97.1972 207.753 96.9972 208.673 96.5972 209.5C96.2105 210.327 95.6705 210.987 94.9772 211.48C94.2972 211.96 93.5105 212.2 92.6172 212.2ZM91.7172 209.92C92.1305 209.92 92.5039 209.833 92.8372 209.66C93.1705 209.487 93.4572 209.253 93.6972 208.96C93.9505 208.653 94.1372 208.313 94.2572 207.94C94.3905 207.553 94.4572 207.153 94.4572 206.74C94.4572 206.3 94.3839 205.893 94.2372 205.52C94.1039 205.147 93.9039 204.82 93.6372 204.54C93.3705 204.247 93.0572 204.02 92.6972 203.86C92.3505 203.7 91.9705 203.62 91.5572 203.62C91.3039 203.62 91.0439 203.667 90.7772 203.76C90.5239 203.84 90.2772 203.96 90.0372 204.12C89.7972 204.28 89.5839 204.467 89.3972 204.68C89.2239 204.893 89.0972 205.127 89.0172 205.38V207.84C89.1772 208.227 89.3905 208.58 89.6572 208.9C89.9372 209.22 90.2572 209.473 90.6172 209.66C90.9772 209.833 91.3439 209.92 91.7172 209.92ZM105.293 212.2C104.48 212.2 103.76 212.02 103.133 211.66C102.52 211.287 102.04 210.787 101.693 210.16V216.26H99.013V201.52H101.353V203.32C101.753 202.707 102.26 202.227 102.873 201.88C103.486 201.52 104.186 201.34 104.973 201.34C105.68 201.34 106.326 201.48 106.913 201.76C107.513 202.04 108.033 202.433 108.473 202.94C108.913 203.433 109.253 204.007 109.493 204.66C109.746 205.3 109.873 205.993 109.873 206.74C109.873 207.753 109.673 208.673 109.273 209.5C108.886 210.327 108.346 210.987 107.653 211.48C106.973 211.96 106.186 212.2 105.293 212.2ZM104.393 209.92C104.806 209.92 105.18 209.833 105.513 209.66C105.846 209.487 106.133 209.253 106.373 208.96C106.626 208.653 106.813 208.313 106.933 207.94C107.066 207.553 107.133 207.153 107.133 206.74C107.133 206.3 107.06 205.893 106.913 205.52C106.78 205.147 106.58 204.82 106.313 204.54C106.046 204.247 105.733 204.02 105.373 203.86C105.026 203.7 104.646 203.62 104.233 203.62C103.98 203.62 103.72 203.667 103.453 203.76C103.2 203.84 102.953 203.96 102.713 204.12C102.473 204.28 102.26 204.467 102.073 204.68C101.9 204.893 101.773 205.127 101.693 205.38V207.84C101.853 208.227 102.066 208.58 102.333 208.9C102.613 209.22 102.933 209.473 103.293 209.66C103.653 209.833 104.02 209.92 104.393 209.92ZM116.529 212.2C115.675 212.2 114.909 212.06 114.229 211.78C113.549 211.487 112.969 211.087 112.489 210.58C112.022 210.073 111.662 209.493 111.409 208.84C111.155 208.187 111.029 207.5 111.029 206.78C111.029 206.047 111.155 205.353 111.409 204.7C111.662 204.047 112.022 203.467 112.489 202.96C112.969 202.453 113.549 202.06 114.229 201.78C114.909 201.487 115.675 201.34 116.529 201.34C117.382 201.34 118.142 201.487 118.809 201.78C119.489 202.06 120.069 202.453 120.549 202.96C121.029 203.467 121.389 204.047 121.629 204.7C121.882 205.353 122.009 206.047 122.009 206.78C122.009 207.5 121.882 208.187 121.629 208.84C121.389 209.493 121.029 210.073 120.549 210.58C120.082 211.087 119.509 211.487 118.829 211.78C118.149 212.06 117.382 212.2 116.529 212.2ZM113.789 206.78C113.789 207.393 113.909 207.94 114.149 208.42C114.389 208.887 114.715 209.253 115.129 209.52C115.542 209.787 116.009 209.92 116.529 209.92C117.035 209.92 117.495 209.787 117.909 209.52C118.322 209.24 118.649 208.867 118.889 208.4C119.142 207.92 119.269 207.373 119.269 206.76C119.269 206.16 119.142 205.62 118.889 205.14C118.649 204.66 118.322 204.287 117.909 204.02C117.495 203.753 117.035 203.62 116.529 203.62C116.009 203.62 115.542 203.76 115.129 204.04C114.715 204.307 114.389 204.68 114.149 205.16C113.909 205.627 113.789 206.167 113.789 206.78ZM130.058 203.84C129.244 203.84 128.518 204 127.878 204.32C127.238 204.627 126.778 205.073 126.498 205.66V212H123.818V201.52H126.278V203.76C126.651 203.04 127.124 202.473 127.698 202.06C128.271 201.647 128.878 201.42 129.518 201.38C129.664 201.38 129.778 201.38 129.858 201.38C129.938 201.38 130.004 201.387 130.058 201.4V203.84ZM137.832 211.46C137.605 211.553 137.332 211.66 137.012 211.78C136.692 211.9 136.345 211.993 135.972 212.06C135.612 212.14 135.245 212.18 134.872 212.18C134.379 212.18 133.925 212.093 133.512 211.92C133.099 211.747 132.765 211.473 132.512 211.1C132.272 210.713 132.152 210.213 132.152 209.6V203.58H130.772V201.52H132.152V198.12H134.832V201.52H137.032V203.58H134.832V208.7C134.845 209.06 134.945 209.32 135.132 209.48C135.319 209.64 135.552 209.72 135.832 209.72C136.112 209.72 136.385 209.673 136.652 209.58C136.919 209.487 137.132 209.407 137.292 209.34L137.832 211.46Z" fill="#2368FF"/>
<rect x="1" y="184" width="147" height="41" rx="3" stroke="#2368FF" stroke-width="2"/>
<g filter="url(#filter1_di_105_2200)">
<rect x="208" y="458" width="102.686" height="121" rx="3.26239" fill="#2368FF"/>
</g>
<g filter="url(#filter2_di_105_2200)">
<rect x="440" y="356" width="120" height="154" rx="3.24382" fill="#2368FF"/>
</g>
<rect x="345" y="91" width="210" height="43" rx="4" fill="#2368FF"/>
<path d="M366.34 105.84H368.9L370.52 110.54L372.16 105.84H374.7L372.26 112.3L374.06 116.82L378.08 105.8H381.08L375.4 120H373.02L370.52 114.04L368.04 120H365.66L360 105.8H362.96L367 116.82L368.76 112.3L366.34 105.84ZM385.728 120.2C384.888 120.2 384.128 120.06 383.448 119.78C382.768 119.487 382.188 119.093 381.708 118.6C381.228 118.093 380.855 117.52 380.588 116.88C380.335 116.227 380.208 115.54 380.208 114.82C380.208 113.82 380.428 112.907 380.868 112.08C381.322 111.253 381.962 110.593 382.788 110.1C383.628 109.593 384.615 109.34 385.748 109.34C386.895 109.34 387.875 109.593 388.688 110.1C389.502 110.593 390.122 111.253 390.548 112.08C390.988 112.893 391.208 113.773 391.208 114.72C391.208 114.88 391.202 115.047 391.188 115.22C391.175 115.38 391.162 115.513 391.148 115.62H383.048C383.102 116.153 383.255 116.62 383.508 117.02C383.775 117.42 384.108 117.727 384.508 117.94C384.922 118.14 385.362 118.24 385.828 118.24C386.362 118.24 386.862 118.113 387.328 117.86C387.808 117.593 388.135 117.247 388.308 116.82L390.608 117.46C390.355 117.993 389.988 118.467 389.508 118.88C389.042 119.293 388.488 119.62 387.848 119.86C387.208 120.087 386.502 120.2 385.728 120.2ZM382.988 113.92H388.468C388.415 113.387 388.262 112.927 388.008 112.54C387.768 112.14 387.448 111.833 387.048 111.62C386.648 111.393 386.202 111.28 385.708 111.28C385.228 111.28 384.788 111.393 384.388 111.62C384.002 111.833 383.682 112.14 383.428 112.54C383.188 112.927 383.042 113.387 382.988 113.92ZM398.801 120.2C398.001 120.2 397.288 120.02 396.661 119.66C396.034 119.3 395.541 118.807 395.181 118.18V120H392.841V105.4H395.521V111.36C395.894 110.733 396.381 110.24 396.981 109.88C397.594 109.52 398.308 109.34 399.121 109.34C399.801 109.34 400.421 109.487 400.981 109.78C401.541 110.06 402.021 110.453 402.421 110.96C402.834 111.467 403.148 112.047 403.361 112.7C403.588 113.353 403.701 114.053 403.701 114.8C403.701 115.547 403.574 116.247 403.321 116.9C403.081 117.553 402.741 118.133 402.301 118.64C401.861 119.133 401.341 119.52 400.741 119.8C400.154 120.067 399.508 120.2 398.801 120.2ZM398.061 117.92C398.488 117.92 398.874 117.84 399.221 117.68C399.581 117.507 399.888 117.28 400.141 117C400.408 116.72 400.608 116.393 400.741 116.02C400.888 115.633 400.961 115.233 400.961 114.82C400.961 114.247 400.841 113.72 400.601 113.24C400.374 112.747 400.054 112.353 399.641 112.06C399.241 111.767 398.768 111.62 398.221 111.62C397.834 111.62 397.461 111.713 397.101 111.9C396.754 112.073 396.441 112.313 396.161 112.62C395.894 112.927 395.681 113.273 395.521 113.66V116.16C395.601 116.427 395.728 116.667 395.901 116.88C396.088 117.093 396.301 117.28 396.541 117.44C396.781 117.587 397.028 117.707 397.281 117.8C397.548 117.88 397.808 117.92 398.061 117.92ZM410.582 120V105.8H415.742C417.288 105.8 418.582 106.12 419.622 106.76C420.662 107.387 421.442 108.24 421.962 109.32C422.482 110.387 422.742 111.573 422.742 112.88C422.742 114.32 422.455 115.573 421.882 116.64C421.308 117.707 420.495 118.533 419.442 119.12C418.402 119.707 417.168 120 415.742 120H410.582ZM419.962 112.88C419.962 111.96 419.795 111.153 419.462 110.46C419.128 109.753 418.648 109.207 418.022 108.82C417.395 108.42 416.635 108.22 415.742 108.22H413.342V117.58H415.742C416.648 117.58 417.415 117.38 418.042 116.98C418.668 116.567 419.142 116.007 419.462 115.3C419.795 114.58 419.962 113.773 419.962 112.88ZM429.498 120.2C428.658 120.2 427.898 120.06 427.218 119.78C426.538 119.487 425.958 119.093 425.478 118.6C424.998 118.093 424.625 117.52 424.358 116.88C424.105 116.227 423.978 115.54 423.978 114.82C423.978 113.82 424.198 112.907 424.638 112.08C425.091 111.253 425.731 110.593 426.558 110.1C427.398 109.593 428.385 109.34 429.518 109.34C430.665 109.34 431.645 109.593 432.458 110.1C433.271 110.593 433.891 111.253 434.318 112.08C434.758 112.893 434.978 113.773 434.978 114.72C434.978 114.88 434.971 115.047 434.958 115.22C434.945 115.38 434.931 115.513 434.918 115.62H426.818C426.871 116.153 427.025 116.62 427.278 117.02C427.545 117.42 427.878 117.727 428.278 117.94C428.691 118.14 429.131 118.24 429.598 118.24C430.131 118.24 430.631 118.113 431.098 117.86C431.578 117.593 431.905 117.247 432.078 116.82L434.378 117.46C434.125 117.993 433.758 118.467 433.278 118.88C432.811 119.293 432.258 119.62 431.618 119.86C430.978 120.087 430.271 120.2 429.498 120.2ZM426.758 113.92H432.238C432.185 113.387 432.031 112.927 431.778 112.54C431.538 112.14 431.218 111.833 430.818 111.62C430.418 111.393 429.971 111.28 429.478 111.28C428.998 111.28 428.558 111.393 428.158 111.62C427.771 111.833 427.451 112.14 427.198 112.54C426.958 112.927 426.811 113.387 426.758 113.92ZM439.138 120L435.278 109.52H438.058L440.698 117.56L443.358 109.52H445.898L442.058 120H439.138ZM451.822 120.2C450.982 120.2 450.222 120.06 449.542 119.78C448.862 119.487 448.282 119.093 447.802 118.6C447.322 118.093 446.949 117.52 446.682 116.88C446.429 116.227 446.302 115.54 446.302 114.82C446.302 113.82 446.522 112.907 446.962 112.08C447.416 111.253 448.056 110.593 448.882 110.1C449.722 109.593 450.709 109.34 451.842 109.34C452.989 109.34 453.969 109.593 454.782 110.1C455.596 110.593 456.216 111.253 456.642 112.08C457.082 112.893 457.302 113.773 457.302 114.72C457.302 114.88 457.296 115.047 457.282 115.22C457.269 115.38 457.256 115.513 457.242 115.62H449.142C449.196 116.153 449.349 116.62 449.602 117.02C449.869 117.42 450.202 117.727 450.602 117.94C451.016 118.14 451.456 118.24 451.922 118.24C452.456 118.24 452.956 118.113 453.422 117.86C453.902 117.593 454.229 117.247 454.402 116.82L456.702 117.46C456.449 117.993 456.082 118.467 455.602 118.88C455.136 119.293 454.582 119.62 453.942 119.86C453.302 120.087 452.596 120.2 451.822 120.2ZM449.082 113.92H454.562C454.509 113.387 454.356 112.927 454.102 112.54C453.862 112.14 453.542 111.833 453.142 111.62C452.742 111.393 452.296 111.28 451.802 111.28C451.322 111.28 450.882 111.393 450.482 111.62C450.096 111.833 449.776 112.14 449.522 112.54C449.282 112.927 449.136 113.387 449.082 113.92ZM458.915 105.4H461.595V116.64C461.595 117.12 461.675 117.447 461.835 117.62C461.995 117.78 462.215 117.86 462.495 117.86C462.708 117.86 462.928 117.833 463.155 117.78C463.382 117.727 463.582 117.66 463.755 117.58L464.115 119.62C463.755 119.793 463.335 119.927 462.855 120.02C462.375 120.113 461.942 120.16 461.555 120.16C460.715 120.16 460.062 119.94 459.595 119.5C459.142 119.047 458.915 118.407 458.915 117.58V105.4ZM470.123 120.2C469.269 120.2 468.503 120.06 467.823 119.78C467.143 119.487 466.563 119.087 466.083 118.58C465.616 118.073 465.256 117.493 465.003 116.84C464.749 116.187 464.623 115.5 464.623 114.78C464.623 114.047 464.749 113.353 465.003 112.7C465.256 112.047 465.616 111.467 466.083 110.96C466.563 110.453 467.143 110.06 467.823 109.78C468.503 109.487 469.269 109.34 470.123 109.34C470.976 109.34 471.736 109.487 472.403 109.78C473.083 110.06 473.663 110.453 474.143 110.96C474.623 111.467 474.983 112.047 475.223 112.7C475.476 113.353 475.603 114.047 475.603 114.78C475.603 115.5 475.476 116.187 475.223 116.84C474.983 117.493 474.623 118.073 474.143 118.58C473.676 119.087 473.103 119.487 472.423 119.78C471.743 120.06 470.976 120.2 470.123 120.2ZM467.383 114.78C467.383 115.393 467.503 115.94 467.743 116.42C467.983 116.887 468.309 117.253 468.723 117.52C469.136 117.787 469.603 117.92 470.123 117.92C470.629 117.92 471.089 117.787 471.503 117.52C471.916 117.24 472.243 116.867 472.483 116.4C472.736 115.92 472.863 115.373 472.863 114.76C472.863 114.16 472.736 113.62 472.483 113.14C472.243 112.66 471.916 112.287 471.503 112.02C471.089 111.753 470.629 111.62 470.123 111.62C469.603 111.62 469.136 111.76 468.723 112.04C468.309 112.307 467.983 112.68 467.743 113.16C467.503 113.627 467.383 114.167 467.383 114.78ZM483.691 120.2C482.878 120.2 482.158 120.02 481.531 119.66C480.918 119.287 480.438 118.787 480.091 118.16V124.26H477.411V109.52H479.751V111.32C480.151 110.707 480.658 110.227 481.271 109.88C481.885 109.52 482.585 109.34 483.371 109.34C484.078 109.34 484.725 109.48 485.311 109.76C485.911 110.04 486.431 110.433 486.871 110.94C487.311 111.433 487.651 112.007 487.891 112.66C488.145 113.3 488.271 113.993 488.271 114.74C488.271 115.753 488.071 116.673 487.671 117.5C487.285 118.327 486.745 118.987 486.051 119.48C485.371 119.96 484.585 120.2 483.691 120.2ZM482.791 117.92C483.205 117.92 483.578 117.833 483.911 117.66C484.245 117.487 484.531 117.253 484.771 116.96C485.025 116.653 485.211 116.313 485.331 115.94C485.465 115.553 485.531 115.153 485.531 114.74C485.531 114.3 485.458 113.893 485.311 113.52C485.178 113.147 484.978 112.82 484.711 112.54C484.445 112.247 484.131 112.02 483.771 111.86C483.425 111.7 483.045 111.62 482.631 111.62C482.378 111.62 482.118 111.667 481.851 111.76C481.598 111.84 481.351 111.96 481.111 112.12C480.871 112.28 480.658 112.467 480.471 112.68C480.298 112.893 480.171 113.127 480.091 113.38V115.84C480.251 116.227 480.465 116.58 480.731 116.9C481.011 117.22 481.331 117.473 481.691 117.66C482.051 117.833 482.418 117.92 482.791 117.92ZM506.367 120H503.687V114.12C503.687 113.293 503.541 112.687 503.247 112.3C502.967 111.9 502.574 111.7 502.067 111.7C501.547 111.7 501.047 111.907 500.567 112.32C500.101 112.72 499.767 113.247 499.567 113.9V120H496.887V114.12C496.887 113.28 496.741 112.667 496.447 112.28C496.167 111.893 495.774 111.7 495.267 111.7C494.747 111.7 494.247 111.9 493.767 112.3C493.301 112.7 492.967 113.227 492.767 113.88V120H490.087V109.52H492.507V111.46C492.907 110.78 493.441 110.26 494.107 109.9C494.774 109.527 495.541 109.34 496.407 109.34C497.274 109.34 497.947 109.553 498.427 109.98C498.921 110.407 499.234 110.933 499.367 111.56C499.794 110.84 500.334 110.293 500.987 109.92C501.654 109.533 502.401 109.34 503.227 109.34C503.881 109.34 504.407 109.46 504.807 109.7C505.221 109.927 505.541 110.24 505.767 110.64C505.994 111.027 506.147 111.467 506.227 111.96C506.321 112.453 506.367 112.953 506.367 113.46V120ZM513.56 120.2C512.72 120.2 511.96 120.06 511.28 119.78C510.6 119.487 510.02 119.093 509.54 118.6C509.06 118.093 508.687 117.52 508.42 116.88C508.167 116.227 508.04 115.54 508.04 114.82C508.04 113.82 508.26 112.907 508.7 112.08C509.154 111.253 509.794 110.593 510.62 110.1C511.46 109.593 512.447 109.34 513.58 109.34C514.727 109.34 515.707 109.593 516.52 110.1C517.334 110.593 517.954 111.253 518.38 112.08C518.82 112.893 519.04 113.773 519.04 114.72C519.04 114.88 519.034 115.047 519.02 115.22C519.007 115.38 518.994 115.513 518.98 115.62H510.88C510.934 116.153 511.087 116.62 511.34 117.02C511.607 117.42 511.94 117.727 512.34 117.94C512.754 118.14 513.194 118.24 513.66 118.24C514.194 118.24 514.694 118.113 515.16 117.86C515.64 117.593 515.967 117.247 516.14 116.82L518.44 117.46C518.187 117.993 517.82 118.467 517.34 118.88C516.874 119.293 516.32 119.62 515.68 119.86C515.04 120.087 514.334 120.2 513.56 120.2ZM510.82 113.92H516.3C516.247 113.387 516.094 112.927 515.84 112.54C515.6 112.14 515.28 111.833 514.88 111.62C514.48 111.393 514.034 111.28 513.54 111.28C513.06 111.28 512.62 111.393 512.22 111.62C511.834 111.833 511.514 112.14 511.26 112.54C511.02 112.927 510.874 113.387 510.82 113.92ZM530.413 120H527.733V114.12C527.733 113.28 527.586 112.667 527.293 112.28C527 111.893 526.593 111.7 526.073 111.7C525.713 111.7 525.346 111.793 524.973 111.98C524.613 112.167 524.286 112.427 523.993 112.76C523.7 113.08 523.486 113.453 523.353 113.88V120H520.673V109.52H523.093V111.46C523.36 111.007 523.7 110.627 524.113 110.32C524.526 110 525 109.76 525.533 109.6C526.08 109.427 526.653 109.34 527.253 109.34C527.906 109.34 528.44 109.46 528.853 109.7C529.28 109.927 529.6 110.24 529.813 110.64C530.04 111.027 530.193 111.467 530.273 111.96C530.366 112.453 530.413 112.953 530.413 113.46V120ZM538.965 119.46C538.738 119.553 538.465 119.66 538.145 119.78C537.825 119.9 537.478 119.993 537.105 120.06C536.745 120.14 536.378 120.18 536.005 120.18C535.512 120.18 535.058 120.093 534.645 119.92C534.232 119.747 533.898 119.473 533.645 119.1C533.405 118.713 533.285 118.213 533.285 117.6V111.58H531.905V109.52H533.285V106.12H535.965V109.52H538.165V111.58H535.965V116.7C535.978 117.06 536.078 117.32 536.265 117.48C536.452 117.64 536.685 117.72 536.965 117.72C537.245 117.72 537.518 117.673 537.785 117.58C538.052 117.487 538.265 117.407 538.425 117.34L538.965 119.46Z" fill="white"/>
<rect x="466" y="599" width="188" height="41" rx="3" fill="white"/>
<path d="M475.62 619.8C475.62 618.933 475.773 618.087 476.08 617.26C476.4 616.42 476.86 615.66 477.46 614.98C478.06 614.287 478.793 613.74 479.66 613.34C480.527 612.927 481.513 612.72 482.62 612.72C483.927 612.72 485.053 613.007 486 613.58C486.96 614.153 487.673 614.9 488.14 615.82L486.02 617.28C485.78 616.747 485.467 616.327 485.08 616.02C484.693 615.7 484.28 615.48 483.84 615.36C483.4 615.227 482.967 615.16 482.54 615.16C481.847 615.16 481.24 615.3 480.72 615.58C480.213 615.86 479.787 616.227 479.44 616.68C479.093 617.133 478.833 617.64 478.66 618.2C478.5 618.76 478.42 619.32 478.42 619.88C478.42 620.507 478.52 621.113 478.72 621.7C478.92 622.273 479.2 622.787 479.56 623.24C479.933 623.68 480.373 624.033 480.88 624.3C481.4 624.553 481.967 624.68 482.58 624.68C483.02 624.68 483.467 624.607 483.92 624.46C484.373 624.313 484.793 624.08 485.18 623.76C485.567 623.44 485.867 623.027 486.08 622.52L488.34 623.82C488.06 624.527 487.6 625.127 486.96 625.62C486.333 626.113 485.627 626.487 484.84 626.74C484.053 626.993 483.273 627.12 482.5 627.12C481.487 627.12 480.56 626.913 479.72 626.5C478.88 626.073 478.153 625.513 477.54 624.82C476.94 624.113 476.467 623.327 476.12 622.46C475.787 621.58 475.62 620.693 475.62 619.8ZM489.831 623.08V616.52H492.511V622.5C492.511 623.3 492.658 623.907 492.951 624.32C493.244 624.72 493.678 624.92 494.251 624.92C494.598 624.92 494.938 624.853 495.271 624.72C495.618 624.573 495.931 624.36 496.211 624.08C496.504 623.8 496.751 623.447 496.951 623.02V616.52H499.631V624C499.631 624.28 499.678 624.48 499.771 624.6C499.878 624.72 500.044 624.793 500.271 624.82V627C500.004 627.04 499.778 627.067 499.591 627.08C499.418 627.107 499.258 627.12 499.111 627.12C498.631 627.12 498.238 627.013 497.931 626.8C497.638 626.573 497.464 626.267 497.411 625.88L497.351 625.04C496.884 625.747 496.284 626.287 495.551 626.66C494.818 627.02 494.011 627.2 493.131 627.2C492.051 627.2 491.231 626.853 490.671 626.16C490.111 625.453 489.831 624.427 489.831 623.08ZM506.154 627.2C505.261 627.2 504.408 627.053 503.594 626.76C502.781 626.467 502.081 626.033 501.494 625.46L502.454 623.72C503.081 624.227 503.694 624.6 504.294 624.84C504.908 625.08 505.494 625.2 506.054 625.2C506.574 625.2 506.988 625.107 507.294 624.92C507.614 624.733 507.774 624.453 507.774 624.08C507.774 623.827 507.688 623.633 507.514 623.5C507.341 623.353 507.088 623.227 506.754 623.12C506.434 623.013 506.041 622.893 505.574 622.76C504.801 622.507 504.154 622.26 503.634 622.02C503.114 621.78 502.721 621.48 502.454 621.12C502.201 620.747 502.074 620.273 502.074 619.7C502.074 619.007 502.248 618.413 502.594 617.92C502.954 617.413 503.448 617.02 504.074 616.74C504.714 616.46 505.461 616.32 506.314 616.32C507.061 616.32 507.768 616.44 508.434 616.68C509.101 616.907 509.708 617.28 510.254 617.8L509.174 619.5C508.641 619.087 508.134 618.787 507.654 618.6C507.174 618.4 506.688 618.3 506.194 618.3C505.914 618.3 505.648 618.333 505.394 618.4C505.154 618.467 504.954 618.58 504.794 618.74C504.648 618.887 504.574 619.1 504.574 619.38C504.574 619.633 504.641 619.833 504.774 619.98C504.921 620.113 505.134 620.233 505.414 620.34C505.708 620.447 506.061 620.567 506.474 620.7C507.314 620.94 508.021 621.187 508.594 621.44C509.181 621.693 509.621 622.007 509.914 622.38C510.208 622.74 510.354 623.24 510.354 623.88C510.354 624.92 509.974 625.733 509.214 626.32C508.454 626.907 507.434 627.2 506.154 627.2ZM518.398 626.46C518.172 626.553 517.898 626.66 517.578 626.78C517.258 626.9 516.912 626.993 516.538 627.06C516.178 627.14 515.812 627.18 515.438 627.18C514.945 627.18 514.492 627.093 514.078 626.92C513.665 626.747 513.332 626.473 513.078 626.1C512.838 625.713 512.718 625.213 512.718 624.6V618.58H511.338V616.52H512.718V613.12H515.398V616.52H517.598V618.58H515.398V623.7C515.412 624.06 515.512 624.32 515.698 624.48C515.885 624.64 516.118 624.72 516.398 624.72C516.678 624.72 516.952 624.673 517.218 624.58C517.485 624.487 517.698 624.407 517.858 624.34L518.398 626.46ZM524.517 627.2C523.664 627.2 522.897 627.06 522.217 626.78C521.537 626.487 520.957 626.087 520.477 625.58C520.01 625.073 519.65 624.493 519.397 623.84C519.144 623.187 519.017 622.5 519.017 621.78C519.017 621.047 519.144 620.353 519.397 619.7C519.65 619.047 520.01 618.467 520.477 617.96C520.957 617.453 521.537 617.06 522.217 616.78C522.897 616.487 523.664 616.34 524.517 616.34C525.37 616.34 526.13 616.487 526.797 616.78C527.477 617.06 528.057 617.453 528.537 617.96C529.017 618.467 529.377 619.047 529.617 619.7C529.87 620.353 529.997 621.047 529.997 621.78C529.997 622.5 529.87 623.187 529.617 623.84C529.377 624.493 529.017 625.073 528.537 625.58C528.07 626.087 527.497 626.487 526.817 626.78C526.137 627.06 525.37 627.2 524.517 627.2ZM521.777 621.78C521.777 622.393 521.897 622.94 522.137 623.42C522.377 623.887 522.704 624.253 523.117 624.52C523.53 624.787 523.997 624.92 524.517 624.92C525.024 624.92 525.484 624.787 525.897 624.52C526.31 624.24 526.637 623.867 526.877 623.4C527.13 622.92 527.257 622.373 527.257 621.76C527.257 621.16 527.13 620.62 526.877 620.14C526.637 619.66 526.31 619.287 525.897 619.02C525.484 618.753 525.024 618.62 524.517 618.62C523.997 618.62 523.53 618.76 523.117 619.04C522.704 619.307 522.377 619.68 522.137 620.16C521.897 620.627 521.777 621.167 521.777 621.78ZM548.086 627H545.406V621.12C545.406 620.293 545.259 619.687 544.966 619.3C544.686 618.9 544.293 618.7 543.786 618.7C543.266 618.7 542.766 618.907 542.286 619.32C541.819 619.72 541.486 620.247 541.286 620.9V627H538.606V621.12C538.606 620.28 538.459 619.667 538.166 619.28C537.886 618.893 537.493 618.7 536.986 618.7C536.466 618.7 535.966 618.9 535.486 619.3C535.019 619.7 534.686 620.227 534.486 620.88V627H531.806V616.52H534.226V618.46C534.626 617.78 535.159 617.26 535.826 616.9C536.493 616.527 537.259 616.34 538.126 616.34C538.993 616.34 539.666 616.553 540.146 616.98C540.639 617.407 540.953 617.933 541.086 618.56C541.513 617.84 542.053 617.293 542.706 616.92C543.373 616.533 544.119 616.34 544.946 616.34C545.599 616.34 546.126 616.46 546.526 616.7C546.939 616.927 547.259 617.24 547.486 617.64C547.713 618.027 547.866 618.467 547.946 618.96C548.039 619.453 548.086 619.953 548.086 620.46V627ZM555.279 627.2C554.439 627.2 553.679 627.06 552.999 626.78C552.319 626.487 551.739 626.093 551.259 625.6C550.779 625.093 550.406 624.52 550.139 623.88C549.886 623.227 549.759 622.54 549.759 621.82C549.759 620.82 549.979 619.907 550.419 619.08C550.873 618.253 551.513 617.593 552.339 617.1C553.179 616.593 554.166 616.34 555.299 616.34C556.446 616.34 557.426 616.593 558.239 617.1C559.053 617.593 559.673 618.253 560.099 619.08C560.539 619.893 560.759 620.773 560.759 621.72C560.759 621.88 560.753 622.047 560.739 622.22C560.726 622.38 560.713 622.513 560.699 622.62H552.599C552.653 623.153 552.806 623.62 553.059 624.02C553.326 624.42 553.659 624.727 554.059 624.94C554.473 625.14 554.913 625.24 555.379 625.24C555.913 625.24 556.413 625.113 556.879 624.86C557.359 624.593 557.686 624.247 557.859 623.82L560.159 624.46C559.906 624.993 559.539 625.467 559.059 625.88C558.593 626.293 558.039 626.62 557.399 626.86C556.759 627.087 556.053 627.2 555.279 627.2ZM552.539 620.92H558.019C557.966 620.387 557.813 619.927 557.559 619.54C557.319 619.14 556.999 618.833 556.599 618.62C556.199 618.393 555.753 618.28 555.259 618.28C554.779 618.28 554.339 618.393 553.939 618.62C553.553 618.833 553.233 619.14 552.979 619.54C552.739 619.927 552.593 620.387 552.539 620.92ZM568.632 618.84C567.819 618.84 567.092 619 566.452 619.32C565.812 619.627 565.352 620.073 565.072 620.66V627H562.392V616.52H564.852V618.76C565.225 618.04 565.699 617.473 566.272 617.06C566.845 616.647 567.452 616.42 568.092 616.38C568.239 616.38 568.352 616.38 568.432 616.38C568.512 616.38 568.579 616.387 568.632 616.4V618.84ZM583.202 616.52C583.108 616.427 582.935 616.3 582.682 616.14C582.442 615.98 582.142 615.827 581.782 615.68C581.435 615.533 581.055 615.407 580.642 615.3C580.228 615.18 579.808 615.12 579.382 615.12C578.635 615.12 578.068 615.26 577.682 615.54C577.308 615.82 577.122 616.213 577.122 616.72C577.122 617.107 577.242 617.413 577.482 617.64C577.722 617.867 578.082 618.06 578.562 618.22C579.042 618.38 579.642 618.553 580.362 618.74C581.295 618.967 582.102 619.247 582.782 619.58C583.475 619.9 584.002 620.327 584.362 620.86C584.735 621.38 584.922 622.073 584.922 622.94C584.922 623.7 584.782 624.353 584.502 624.9C584.222 625.433 583.835 625.867 583.342 626.2C582.848 626.533 582.288 626.78 581.662 626.94C581.035 627.087 580.368 627.16 579.662 627.16C578.955 627.16 578.248 627.087 577.542 626.94C576.835 626.793 576.155 626.587 575.502 626.32C574.848 626.04 574.248 625.707 573.702 625.32L574.922 622.94C575.042 623.06 575.255 623.22 575.562 623.42C575.868 623.607 576.242 623.8 576.682 624C577.122 624.187 577.602 624.347 578.122 624.48C578.642 624.613 579.168 624.68 579.702 624.68C580.448 624.68 581.015 624.553 581.402 624.3C581.788 624.047 581.982 623.687 581.982 623.22C581.982 622.793 581.828 622.46 581.522 622.22C581.215 621.98 580.788 621.773 580.242 621.6C579.695 621.413 579.048 621.213 578.302 621C577.408 620.747 576.662 620.467 576.062 620.16C575.462 619.84 575.015 619.44 574.722 618.96C574.428 618.48 574.282 617.88 574.282 617.16C574.282 616.187 574.508 615.373 574.962 614.72C575.428 614.053 576.055 613.553 576.842 613.22C577.628 612.873 578.502 612.7 579.462 612.7C580.128 612.7 580.755 612.773 581.342 612.92C581.942 613.067 582.502 613.26 583.022 613.5C583.542 613.74 584.008 614 584.422 614.28L583.202 616.52ZM591.607 627.2C590.767 627.2 590.007 627.06 589.327 626.78C588.647 626.487 588.067 626.093 587.587 625.6C587.107 625.093 586.734 624.52 586.467 623.88C586.214 623.227 586.087 622.54 586.087 621.82C586.087 620.82 586.307 619.907 586.747 619.08C587.201 618.253 587.841 617.593 588.667 617.1C589.507 616.593 590.494 616.34 591.627 616.34C592.774 616.34 593.754 616.593 594.567 617.1C595.381 617.593 596.001 618.253 596.427 619.08C596.867 619.893 597.087 620.773 597.087 621.72C597.087 621.88 597.081 622.047 597.067 622.22C597.054 622.38 597.041 622.513 597.027 622.62H588.927C588.981 623.153 589.134 623.62 589.387 624.02C589.654 624.42 589.987 624.727 590.387 624.94C590.801 625.14 591.241 625.24 591.707 625.24C592.241 625.24 592.741 625.113 593.207 624.86C593.687 624.593 594.014 624.247 594.187 623.82L596.487 624.46C596.234 624.993 595.867 625.467 595.387 625.88C594.921 626.293 594.367 626.62 593.727 626.86C593.087 627.087 592.381 627.2 591.607 627.2ZM588.867 620.92H594.347C594.294 620.387 594.141 619.927 593.887 619.54C593.647 619.14 593.327 618.833 592.927 618.62C592.527 618.393 592.081 618.28 591.587 618.28C591.107 618.28 590.667 618.393 590.267 618.62C589.881 618.833 589.561 619.14 589.307 619.54C589.067 619.927 588.921 620.387 588.867 620.92ZM604.96 618.84C604.147 618.84 603.42 619 602.78 619.32C602.14 619.627 601.68 620.073 601.4 620.66V627H598.72V616.52H601.18V618.76C601.553 618.04 602.027 617.473 602.6 617.06C603.173 616.647 603.78 616.42 604.42 616.38C604.567 616.38 604.68 616.38 604.76 616.38C604.84 616.38 604.907 616.387 604.96 616.4V618.84ZM609.274 627L605.414 616.52H608.194L610.834 624.56L613.494 616.52H616.034L612.194 627H609.274ZM617.45 627V616.52H620.13V627H617.45ZM617.45 615.06V612.4H620.13V615.06H617.45ZM627.428 627.2C626.575 627.2 625.808 627.06 625.128 626.78C624.448 626.487 623.868 626.087 623.388 625.58C622.908 625.06 622.535 624.473 622.268 623.82C622.015 623.167 621.888 622.48 621.888 621.76C621.888 620.773 622.108 619.873 622.548 619.06C623.001 618.233 623.641 617.573 624.468 617.08C625.295 616.587 626.275 616.34 627.408 616.34C628.541 616.34 629.515 616.587 630.328 617.08C631.141 617.573 631.748 618.22 632.148 619.02L629.528 619.82C629.301 619.433 629.001 619.14 628.628 618.94C628.255 618.727 627.841 618.62 627.388 618.62C626.881 618.62 626.415 618.753 625.988 619.02C625.575 619.273 625.248 619.64 625.008 620.12C624.768 620.587 624.648 621.133 624.648 621.76C624.648 622.373 624.768 622.92 625.008 623.4C625.261 623.867 625.595 624.24 626.008 624.52C626.421 624.787 626.881 624.92 627.388 624.92C627.708 624.92 628.008 624.867 628.288 624.76C628.581 624.653 628.841 624.507 629.068 624.32C629.295 624.133 629.461 623.92 629.568 623.68L632.188 624.48C631.948 625 631.595 625.467 631.128 625.88C630.675 626.293 630.135 626.62 629.508 626.86C628.895 627.087 628.201 627.2 627.428 627.2ZM638.6 627.2C637.76 627.2 637 627.06 636.32 626.78C635.64 626.487 635.06 626.093 634.58 625.6C634.1 625.093 633.726 624.52 633.46 623.88C633.206 623.227 633.08 622.54 633.08 621.82C633.08 620.82 633.3 619.907 633.74 619.08C634.193 618.253 634.833 617.593 635.66 617.1C636.5 616.593 637.486 616.34 638.62 616.34C639.766 616.34 640.746 616.593 641.56 617.1C642.373 617.593 642.993 618.253 643.42 619.08C643.86 619.893 644.08 620.773 644.08 621.72C644.08 621.88 644.073 622.047 644.06 622.22C644.046 622.38 644.033 622.513 644.02 622.62H635.92C635.973 623.153 636.126 623.62 636.38 624.02C636.646 624.42 636.98 624.727 637.38 624.94C637.793 625.14 638.233 625.24 638.7 625.24C639.233 625.24 639.733 625.113 640.2 624.86C640.68 624.593 641.006 624.247 641.18 623.82L643.48 624.46C643.226 624.993 642.86 625.467 642.38 625.88C641.913 626.293 641.36 626.62 640.72 626.86C640.08 627.087 639.373 627.2 638.6 627.2ZM635.86 620.92H641.34C641.286 620.387 641.133 619.927 640.88 619.54C640.64 619.14 640.32 618.833 639.92 618.62C639.52 618.393 639.073 618.28 638.58 618.28C638.1 618.28 637.66 618.393 637.26 618.62C636.873 618.833 636.553 619.14 636.3 619.54C636.06 619.927 635.913 620.387 635.86 620.92Z" fill="#2368FF"/>
<rect x="466" y="599" width="188" height="41" rx="3" stroke="#2368FF" stroke-width="2"/>
<path d="M461.415 171.231C460.829 170.841 460.237 170.471 459.651 170.094C442.726 159.269 424.584 150.475 405.602 143.893L401.2 204.613H373.297V135.03C371.54 134.666 369.77 134.323 368 134V204.613H334.841C316.586 204.613 299.08 197.361 286.172 184.453C273.264 171.545 266.012 154.038 266.012 135.784V135.783C264.235 136.167 262.472 136.578 260.709 137.015V204.613H233.701L229.508 146.713C210 154.195 191.481 164.033 174.361 176.009C174.065 176.211 173.769 176.42 173.479 176.622C171.992 177.665 170.525 178.728 169.064 179.805V411.45H248.662L247.255 391.966L239.515 284.991H395.379L387.639 391.966L386.232 411.45H464.948V173.573C463.777 172.779 462.599 171.998 461.415 171.231ZM260.709 267.324H238.237L234.084 209.916H260.709V267.324ZM368 267.324H330.258V266.187C330.258 265.64 330.15 265.098 329.941 264.593C329.731 264.088 329.424 263.629 329.037 263.243C328.65 262.857 328.191 262.551 327.686 262.342C327.18 262.133 326.639 262.026 326.092 262.027H309.684C309.138 262.027 308.597 262.135 308.092 262.343C307.587 262.552 307.129 262.859 306.742 263.245C306.356 263.631 306.05 264.09 305.841 264.595C305.632 265.099 305.524 265.64 305.525 266.187V267.324H266.012V209.916H368V267.324ZM373.297 267.324V209.916H400.817L396.664 267.324H373.297Z" fill="black"/>
<path d="M547.859 555.003L548.385 543.174C553.869 540.243 559.986 538.695 566.204 538.664C557.646 545.661 558.715 559.149 552.913 568.558C551.081 571.479 548.615 573.95 545.698 575.788C542.781 577.627 539.487 578.785 536.062 579.177L528.9 583.562C527.917 578.084 528.134 572.457 529.535 567.07C530.936 561.684 533.488 556.665 537.016 552.359C539.019 549.963 541.316 547.829 543.852 546.008C545.567 550.53 547.859 555.003 547.859 555.003Z" fill="#2368FF"/>
<path d="M163.601 542.04L146.318 536.807C144.051 527.599 144.066 517.976 146.363 508.774C153.48 524.057 173.816 527.557 185.537 539.676C189.163 543.484 191.886 548.059 193.504 553.062C195.122 558.066 195.594 563.369 194.884 568.579L198.667 580.815C190.2 580.204 181.966 577.765 174.533 573.665C167.1 569.565 160.644 563.903 155.609 557.068C152.823 553.206 150.535 549.008 148.797 544.574C156.128 543.742 163.601 542.04 163.601 542.04Z" fill="black"/>
<path d="M534.41 581.628C534.407 581.986 534.265 582.329 534.013 582.584C533.888 582.708 533.74 582.807 533.577 582.874C533.415 582.941 533.24 582.975 533.064 582.974H527.653C527.476 582.975 527.301 582.94 527.137 582.873C526.973 582.806 526.825 582.706 526.7 582.581C526.575 582.456 526.476 582.308 526.408 582.144C526.341 581.98 526.306 581.805 526.307 581.628V417.992C526.307 414.384 525.095 411.457 523.608 411.45H118.124C116.63 411.457 115.426 414.384 115.419 417.992V580.625C115.418 580.96 115.292 581.282 115.067 581.529C114.842 581.777 114.533 581.932 114.201 581.965C113.11 582.072 112.02 582.167 110.937 582.254C110.91 582.254 110.883 582.261 110.856 582.261C110.263 582.315 109.671 582.355 109.079 582.402H109.072C108.763 581.844 108.467 581.271 108.164 580.699C108.067 580.505 108.016 580.291 108.016 580.074V409.505C108.016 408.509 108.056 407.506 108.123 406.517C108.219 405.158 108.388 403.806 108.628 402.465C109.765 396.213 112.336 391.98 115.257 391.966H526.468C526.895 391.969 527.316 392.058 527.707 392.229C528.281 392.483 528.8 392.846 529.234 393.299C529.825 393.912 530.33 394.603 530.735 395.352C532.176 397.889 533.205 401.671 533.569 406.073C533.569 406.113 533.575 406.153 533.575 406.194C533.67 407.284 533.717 408.395 533.71 409.505L533.804 423.928L533.865 432.529L534.047 459.517L534.114 469.1L534.41 581.628Z" fill="#2B2B2B"/>
<path d="M570.197 584.643L384.613 584.85C384.401 584.849 384.198 584.765 384.048 584.615C383.899 584.464 383.814 584.261 383.814 584.049C383.814 583.837 383.899 583.633 384.048 583.483C384.198 583.333 384.401 583.248 384.613 583.247L570.197 583.041C570.409 583.041 570.612 583.126 570.762 583.276C570.912 583.426 570.996 583.63 570.996 583.842C570.996 584.054 570.912 584.257 570.762 584.408C570.612 584.558 570.409 584.643 570.197 584.643Z" fill="#CACACA"/>
<path d="M339.842 344.156H306.974C306.509 344.157 306.063 344.342 305.735 344.672C305.406 345.001 305.222 345.447 305.223 345.912V397.835H341.598V345.912C341.598 345.681 341.553 345.453 341.465 345.24C341.377 345.027 341.247 344.833 341.084 344.67C340.921 344.507 340.728 344.378 340.514 344.29C340.301 344.201 340.073 344.156 339.842 344.156ZM323.519 373.658C322.491 373.653 321.506 373.243 320.779 372.516C320.053 371.789 319.642 370.805 319.637 369.777V363.788C319.637 362.759 320.046 361.772 320.774 361.044C321.502 360.316 322.489 359.907 323.519 359.907C324.548 359.907 325.535 360.316 326.263 361.044C326.991 361.772 327.4 362.759 327.4 363.788V369.777C327.395 370.805 326.985 371.789 326.258 372.516C325.531 373.243 324.547 373.653 323.519 373.658V373.658Z" fill="#2F2E41"/>
<path d="M394.272 263.124H253.771C252.563 263.126 251.406 263.606 250.553 264.46C249.699 265.313 249.219 266.471 249.217 267.678V362.488C249.218 363.696 249.698 364.853 250.552 365.707C251.406 366.561 252.563 367.041 253.771 367.042H394.272C395.479 367.041 396.637 366.561 397.49 365.707C398.344 364.853 398.824 363.696 398.825 362.488V267.678C398.823 266.471 398.343 265.313 397.489 264.46C396.636 263.606 395.479 263.126 394.272 263.124V263.124Z" fill="#3F3D56"/>
<path d="M393.096 266.413H254.941C254.295 266.414 253.675 266.672 253.219 267.129C252.762 267.587 252.506 268.207 252.506 268.853V361.314C252.507 361.959 252.764 362.578 253.22 363.035C253.677 363.491 254.296 363.748 254.941 363.749H393.096C393.741 363.748 394.36 363.491 394.816 363.035C395.273 362.578 395.53 361.959 395.531 361.314V268.853C395.531 268.207 395.274 267.587 394.818 267.129C394.361 266.672 393.742 266.414 393.096 266.413V266.413Z" fill="white"/>
<path d="M305.109 396.174V401.184C305.11 401.443 305.213 401.692 305.397 401.876C305.58 402.059 305.829 402.163 306.089 402.163H340.731C340.99 402.162 341.239 402.058 341.422 401.875C341.606 401.692 341.709 401.443 341.71 401.184V396.174H305.109Z" fill="#3F3D56"/>
<path d="M366.187 403.906H283.992C283.767 403.906 283.545 403.855 283.342 403.759C283.139 403.662 282.96 403.521 282.818 403.346C282.677 403.171 282.576 402.967 282.523 402.749C282.47 402.53 282.467 402.302 282.513 402.082L283.788 396.025C283.861 395.686 284.047 395.382 284.316 395.164C284.585 394.945 284.921 394.825 285.268 394.824H364.912C365.258 394.825 365.594 394.945 365.863 395.164C366.132 395.382 366.318 395.686 366.391 396.025L367.666 402.082C367.713 402.302 367.709 402.53 367.657 402.749C367.604 402.967 367.503 403.171 367.361 403.346C367.219 403.521 367.04 403.662 366.837 403.759C366.634 403.855 366.412 403.906 366.187 403.906V403.906Z" fill="#2F2E41"/>
<path d="M288.055 395.915H286.18C285.999 395.915 285.852 396.062 285.852 396.244V397.105C285.852 397.287 285.999 397.434 286.18 397.434H288.055C288.236 397.434 288.383 397.287 288.383 397.105V396.244C288.383 396.062 288.236 395.915 288.055 395.915Z" fill="#3F3D56"/>
<path d="M293.119 395.915H291.245C291.063 395.915 290.916 396.062 290.916 396.244V397.105C290.916 397.287 291.063 397.434 291.245 397.434H293.119C293.3 397.434 293.448 397.287 293.448 397.105V396.244C293.448 396.062 293.3 395.915 293.119 395.915Z" fill="#3F3D56"/>
<path d="M298.181 395.915H296.307C296.126 395.915 295.979 396.062 295.979 396.244V397.105C295.979 397.287 296.126 397.434 296.307 397.434H298.181C298.363 397.434 298.51 397.287 298.51 397.105V396.244C298.51 396.062 298.363 395.915 298.181 395.915Z" fill="#3F3D56"/>
<path d="M303.244 395.915H301.37C301.188 395.915 301.041 396.062 301.041 396.244V397.105C301.041 397.287 301.188 397.434 301.37 397.434H303.244C303.425 397.434 303.573 397.287 303.573 397.105V396.244C303.573 396.062 303.425 395.915 303.244 395.915Z" fill="#3F3D56"/>
<path d="M308.306 395.915H306.432C306.251 395.915 306.104 396.062 306.104 396.244V397.105C306.104 397.287 306.251 397.434 306.432 397.434H308.306C308.488 397.434 308.635 397.287 308.635 397.105V396.244C308.635 396.062 308.488 395.915 308.306 395.915Z" fill="#3F3D56"/>
<path d="M313.371 395.915H311.497C311.315 395.915 311.168 396.062 311.168 396.244V397.105C311.168 397.287 311.315 397.434 311.497 397.434H313.371C313.552 397.434 313.699 397.287 313.699 397.105V396.244C313.699 396.062 313.552 395.915 313.371 395.915Z" fill="#3F3D56"/>
<path d="M318.433 395.915H316.559C316.378 395.915 316.23 396.062 316.23 396.244V397.105C316.23 397.287 316.378 397.434 316.559 397.434H318.433C318.615 397.434 318.762 397.287 318.762 397.105V396.244C318.762 396.062 318.615 395.915 318.433 395.915Z" fill="#3F3D56"/>
<path d="M323.496 395.915H321.622C321.44 395.915 321.293 396.062 321.293 396.244V397.105C321.293 397.287 321.44 397.434 321.622 397.434H323.496C323.677 397.434 323.824 397.287 323.824 397.105V396.244C323.824 396.062 323.677 395.915 323.496 395.915Z" fill="#3F3D56"/>
<path d="M328.558 395.915H326.684C326.503 395.915 326.355 396.062 326.355 396.244V397.105C326.355 397.287 326.503 397.434 326.684 397.434H328.558C328.74 397.434 328.887 397.287 328.887 397.105V396.244C328.887 396.062 328.74 395.915 328.558 395.915Z" fill="#3F3D56"/>
<path d="M333.621 395.915H331.747C331.565 395.915 331.418 396.062 331.418 396.244V397.105C331.418 397.287 331.565 397.434 331.747 397.434H333.621C333.802 397.434 333.949 397.287 333.949 397.105V396.244C333.949 396.062 333.802 395.915 333.621 395.915Z" fill="#3F3D56"/>
<path d="M338.685 395.915H336.811C336.63 395.915 336.482 396.062 336.482 396.244V397.105C336.482 397.287 336.63 397.434 336.811 397.434H338.685C338.867 397.434 339.014 397.287 339.014 397.105V396.244C339.014 396.062 338.867 395.915 338.685 395.915Z" fill="#3F3D56"/>
<path d="M343.748 395.915H341.873C341.692 395.915 341.545 396.062 341.545 396.244V397.105C341.545 397.287 341.692 397.434 341.873 397.434H343.748C343.929 397.434 344.076 397.287 344.076 397.105V396.244C344.076 396.062 343.929 395.915 343.748 395.915Z" fill="#3F3D56"/>
<path d="M348.81 395.915H346.936C346.755 395.915 346.607 396.062 346.607 396.244V397.105C346.607 397.287 346.755 397.434 346.936 397.434H348.81C348.992 397.434 349.139 397.287 349.139 397.105V396.244C349.139 396.062 348.992 395.915 348.81 395.915Z" fill="#3F3D56"/>
<path d="M353.875 395.915H352C351.819 395.915 351.672 396.062 351.672 396.244V397.105C351.672 397.287 351.819 397.434 352 397.434H353.875C354.056 397.434 354.203 397.287 354.203 397.105V396.244C354.203 396.062 354.056 395.915 353.875 395.915Z" fill="#3F3D56"/>
<path d="M358.937 395.915H357.063C356.881 395.915 356.734 396.062 356.734 396.244V397.105C356.734 397.287 356.881 397.434 357.063 397.434H358.937C359.119 397.434 359.266 397.287 359.266 397.105V396.244C359.266 396.062 359.119 395.915 358.937 395.915Z" fill="#3F3D56"/>
<path d="M364 395.915H362.125C361.944 395.915 361.797 396.062 361.797 396.244V397.105C361.797 397.287 361.944 397.434 362.125 397.434H364C364.181 397.434 364.328 397.287 364.328 397.105V396.244C364.328 396.062 364.181 395.915 364 395.915Z" fill="#3F3D56"/>
<path d="M287.994 398.447H286.12C285.938 398.447 285.791 398.594 285.791 398.775V399.637C285.791 399.819 285.938 399.966 286.12 399.966H287.994C288.175 399.966 288.323 399.819 288.323 399.637V398.775C288.323 398.594 288.175 398.447 287.994 398.447Z" fill="#3F3D56"/>
<path d="M293.058 398.447H291.184C291.003 398.447 290.855 398.594 290.855 398.775V399.637C290.855 399.819 291.003 399.966 291.184 399.966H293.058C293.24 399.966 293.387 399.819 293.387 399.637V398.775C293.387 398.594 293.24 398.447 293.058 398.447Z" fill="#3F3D56"/>
<path d="M298.121 398.447H296.247C296.065 398.447 295.918 398.594 295.918 398.775V399.637C295.918 399.819 296.065 399.966 296.247 399.966H298.121C298.302 399.966 298.449 399.819 298.449 399.637V398.775C298.449 398.594 298.302 398.447 298.121 398.447Z" fill="#3F3D56"/>
<path d="M303.183 398.447H301.309C301.128 398.447 300.98 398.594 300.98 398.775V399.637C300.98 399.819 301.128 399.966 301.309 399.966H303.183C303.365 399.966 303.512 399.819 303.512 399.637V398.775C303.512 398.594 303.365 398.447 303.183 398.447Z" fill="#3F3D56"/>
<path d="M308.248 398.447H306.373C306.192 398.447 306.045 398.594 306.045 398.775V399.637C306.045 399.819 306.192 399.966 306.373 399.966H308.248C308.429 399.966 308.576 399.819 308.576 399.637V398.775C308.576 398.594 308.429 398.447 308.248 398.447Z" fill="#3F3D56"/>
<path d="M313.31 398.447H311.436C311.255 398.447 311.107 398.594 311.107 398.775V399.637C311.107 399.819 311.255 399.966 311.436 399.966H313.31C313.492 399.966 313.639 399.819 313.639 399.637V398.775C313.639 398.594 313.492 398.447 313.31 398.447Z" fill="#3F3D56"/>
<path d="M318.373 398.447H316.498C316.317 398.447 316.17 398.594 316.17 398.775V399.637C316.17 399.819 316.317 399.966 316.498 399.966H318.373C318.554 399.966 318.701 399.819 318.701 399.637V398.775C318.701 398.594 318.554 398.447 318.373 398.447Z" fill="#3F3D56"/>
<path d="M323.437 398.447H321.563C321.381 398.447 321.234 398.594 321.234 398.775V399.637C321.234 399.819 321.381 399.966 321.563 399.966H323.437C323.619 399.966 323.766 399.819 323.766 399.637V398.775C323.766 398.594 323.619 398.447 323.437 398.447Z" fill="#3F3D56"/>
<path d="M328.5 398.447H326.625C326.444 398.447 326.297 398.594 326.297 398.775V399.637C326.297 399.819 326.444 399.966 326.625 399.966H328.5C328.681 399.966 328.828 399.819 328.828 399.637V398.775C328.828 398.594 328.681 398.447 328.5 398.447Z" fill="#3F3D56"/>
<path d="M333.562 398.447H331.688C331.506 398.447 331.359 398.594 331.359 398.775V399.637C331.359 399.819 331.506 399.966 331.688 399.966H333.562C333.744 399.966 333.891 399.819 333.891 399.637V398.775C333.891 398.594 333.744 398.447 333.562 398.447Z" fill="#3F3D56"/>
<path d="M338.625 398.447H336.75C336.569 398.447 336.422 398.594 336.422 398.775V399.637C336.422 399.819 336.569 399.966 336.75 399.966H338.625C338.806 399.966 338.953 399.819 338.953 399.637V398.775C338.953 398.594 338.806 398.447 338.625 398.447Z" fill="#3F3D56"/>
<path d="M343.687 398.447H341.813C341.631 398.447 341.484 398.594 341.484 398.775V399.637C341.484 399.819 341.631 399.966 341.813 399.966H343.687C343.869 399.966 344.016 399.819 344.016 399.637V398.775C344.016 398.594 343.869 398.447 343.687 398.447Z" fill="#3F3D56"/>
<path d="M348.752 398.447H346.877C346.696 398.447 346.549 398.594 346.549 398.775V399.637C346.549 399.819 346.696 399.966 346.877 399.966H348.752C348.933 399.966 349.08 399.819 349.08 399.637V398.775C349.08 398.594 348.933 398.447 348.752 398.447Z" fill="#3F3D56"/>
<path d="M353.814 398.447H351.94C351.758 398.447 351.611 398.594 351.611 398.775V399.637C351.611 399.819 351.758 399.966 351.94 399.966H353.814C353.996 399.966 354.143 399.819 354.143 399.637V398.775C354.143 398.594 353.996 398.447 353.814 398.447Z" fill="#3F3D56"/>
<path d="M358.877 398.447H357.002C356.821 398.447 356.674 398.594 356.674 398.775V399.637C356.674 399.819 356.821 399.966 357.002 399.966H358.877C359.058 399.966 359.205 399.819 359.205 399.637V398.775C359.205 398.594 359.058 398.447 358.877 398.447Z" fill="#3F3D56"/>
<path d="M363.939 398.447H362.065C361.883 398.447 361.736 398.594 361.736 398.775V399.637C361.736 399.819 361.883 399.966 362.065 399.966H363.939C364.121 399.966 364.268 399.819 364.268 399.637V398.775C364.268 398.594 364.121 398.447 363.939 398.447Z" fill="#3F3D56"/>
<path d="M330.017 401.485H310.422C310.241 401.485 310.094 401.632 310.094 401.813V402.675C310.094 402.857 310.241 403.004 310.422 403.004H330.017C330.199 403.004 330.346 402.857 330.346 402.675V401.813C330.346 401.632 330.199 401.485 330.017 401.485Z" fill="#3F3D56"/>
<path d="M386.153 279.153H256.882C256.748 279.15 256.62 279.094 256.526 278.998C256.432 278.902 256.379 278.773 256.379 278.639C256.379 278.504 256.432 278.375 256.526 278.279C256.62 278.183 256.748 278.127 256.882 278.125H386.153C386.288 278.127 386.416 278.183 386.51 278.279C386.604 278.375 386.657 278.504 386.657 278.639C386.657 278.773 386.604 278.902 386.51 278.998C386.416 279.094 386.288 279.15 386.153 279.153V279.153Z" fill="#CACACA"/>
<path d="M265.681 275.5C267.345 275.5 268.693 274.121 268.693 272.42C268.693 270.719 267.345 269.34 265.681 269.34C264.017 269.34 262.668 270.719 262.668 272.42C262.668 274.121 264.017 275.5 265.681 275.5Z" fill="#3F3D56"/>
<path d="M276.089 275.5C277.753 275.5 279.102 274.121 279.102 272.42C279.102 270.719 277.753 269.34 276.089 269.34C274.425 269.34 273.076 270.719 273.076 272.42C273.076 274.121 274.425 275.5 276.089 275.5Z" fill="#3F3D56"/>
<path d="M286.497 275.5C288.161 275.5 289.51 274.121 289.51 272.42C289.51 270.719 288.161 269.34 286.497 269.34C284.833 269.34 283.484 270.719 283.484 272.42C283.484 274.121 284.833 275.5 286.497 275.5Z" fill="#3F3D56"/>
<path d="M379.887 270.104H372.494C372.348 270.107 372.208 270.167 372.105 270.272C372.003 270.376 371.945 270.517 371.945 270.664C371.945 270.81 372.003 270.951 372.105 271.056C372.208 271.16 372.348 271.221 372.494 271.224H379.887C380.034 271.221 380.173 271.16 380.276 271.056C380.378 270.951 380.436 270.81 380.436 270.664C380.436 270.517 380.378 270.376 380.276 270.272C380.173 270.167 380.034 270.107 379.887 270.104V270.104Z" fill="#3F3D56"/>
<path d="M379.887 272.204H372.494C372.348 272.207 372.208 272.267 372.105 272.372C372.003 272.477 371.945 272.617 371.945 272.764C371.945 272.91 372.003 273.051 372.105 273.156C372.208 273.26 372.348 273.321 372.494 273.324H379.887C380.034 273.321 380.173 273.26 380.276 273.156C380.378 273.051 380.436 272.91 380.436 272.764C380.436 272.617 380.378 272.477 380.276 272.372C380.173 272.267 380.034 272.207 379.887 272.204V272.204Z" fill="#3F3D56"/>
<path d="M379.887 274.304H372.494C372.348 274.307 372.208 274.367 372.105 274.472C372.003 274.576 371.945 274.717 371.945 274.863C371.945 275.01 372.003 275.151 372.105 275.255C372.208 275.36 372.348 275.42 372.494 275.423H379.887C380.034 275.42 380.173 275.36 380.276 275.255C380.378 275.151 380.436 275.01 380.436 274.863C380.436 274.717 380.378 274.576 380.276 274.472C380.173 274.367 380.034 274.307 379.887 274.304V274.304Z" fill="#3F3D56"/>
<path d="M331.844 309.185H315.691C314.478 309.185 313.494 310.168 313.494 311.381V311.381C313.494 312.595 314.478 313.578 315.691 313.578H331.844C333.057 313.578 334.041 312.595 334.041 311.381V311.381C334.041 310.168 333.057 309.185 331.844 309.185Z" fill="#2368FF"/>
<path d="M342.278 317.972H305.255C304.042 317.972 303.059 318.955 303.059 320.169V320.169C303.059 321.382 304.042 322.365 305.255 322.365H342.278C343.492 322.365 344.475 321.382 344.475 320.169C344.475 318.955 343.492 317.972 342.278 317.972Z" fill="#E6E6E6"/>
<path d="M342.278 326.759H305.255C304.042 326.759 303.059 327.743 303.059 328.956C303.059 330.169 304.042 331.153 305.255 331.153H342.278C343.492 331.153 344.475 330.169 344.475 328.956C344.475 327.743 343.492 326.759 342.278 326.759Z" fill="#E6E6E6"/>
<path d="M258.144 410.514H217.763C216.335 410.514 214.966 411.081 213.956 412.091C212.946 413.1 212.379 414.47 212.379 415.898C212.379 417.326 212.946 418.695 213.956 419.705C214.966 420.715 216.335 421.282 217.763 421.282H232.569V463.009H243.338V421.282H258.144C259.572 421.282 260.941 420.715 261.951 419.705C262.961 418.695 263.528 417.326 263.528 415.898C263.528 414.47 262.961 413.1 261.951 412.091C260.941 411.081 259.572 410.514 258.144 410.514Z" fill="#3F3D56"/>
<path d="M284.797 486.119H176.789C166.319 486.081 156.211 482.277 148.313 475.402C140.415 468.527 135.254 459.041 133.773 448.675L129.95 434.612C122.036 405.471 109.983 377.615 94.1578 351.897C86.9247 340.15 83.2018 328.78 91.6576 317.832C91.7296 317.739 91.8004 317.647 91.87 317.556C98.6521 308.729 132.409 306.818 143.413 306.446C143.848 306.432 144.284 306.424 144.722 306.424H211.902C212.34 306.424 212.776 306.432 213.211 306.446C219.143 306.619 224.918 308.395 229.922 311.585C234.927 314.775 238.975 319.26 241.636 324.564C244.476 329.98 245.797 336.064 245.458 342.17C245.12 348.276 243.135 354.176 239.714 359.245C216.116 394.693 208.891 416.92 216.288 431.314C223.443 445.237 245.376 452.356 285.311 453.716C296.043 454.081 300.969 462.438 301.003 470.047C301.037 477.46 296.301 485.645 285.825 486.097C285.484 486.112 285.142 486.119 284.797 486.119Z" fill="#3F3D56"/>
<path d="M195.138 582.023H235.519C236.947 582.023 238.316 581.456 239.326 580.446C240.336 579.436 240.903 578.067 240.903 576.639C240.903 575.211 240.336 573.841 239.326 572.832C238.316 571.822 236.947 571.255 235.519 571.255H220.713V480.398H209.944V571.255H195.138C193.71 571.255 192.341 571.822 191.331 572.832C190.321 573.841 189.754 575.211 189.754 576.639C189.754 578.067 190.321 579.436 191.331 580.446C192.341 581.456 193.71 582.023 195.138 582.023Z" fill="#3F3D56"/>
<path d="M191.913 309.796L192.759 314.94C193.159 317.434 194.61 335.054 193.535 337.156C193.441 333.231 186.132 327.061 181.397 328.469L173.965 330.121L169.353 331.147L165.598 331.97L154.69 334.353C154.671 334.227 154.657 334.092 154.638 333.966C154.612 333.806 154.586 333.646 154.554 333.488C154.351 332.465 153.98 331.482 153.457 330.58C153.402 331.789 153.045 332.965 152.419 334C152.402 334.027 152.387 334.056 152.375 334.085C152.181 334.399 151.967 334.699 151.734 334.986C151.724 334.993 151.714 335.002 151.706 335.012C151.706 335.012 149.464 299.282 149.699 298.952C149.871 298.718 150.044 298.49 150.225 298.267C150.405 298.038 150.58 297.817 150.767 297.593C150.791 297.572 150.812 297.547 150.828 297.519C151.353 296.897 151.91 296.301 152.496 295.735C152.668 295.569 152.847 295.402 153.026 295.235C155.755 292.71 159.016 290.829 162.568 289.731C162.969 289.608 163.385 289.495 163.808 289.381C164.226 289.275 164.652 289.174 165.081 289.086L165.226 289.056C165.43 289.015 165.643 288.978 165.848 288.943C166.107 288.897 166.367 288.857 166.621 288.826C169.926 288.35 173.293 288.539 176.524 289.382C176.531 289.381 176.532 289.388 176.539 289.386C179.236 290.091 181.799 291.233 184.127 292.766C188.154 295.425 189.722 299.762 190.835 304.631C191.225 306.303 191.554 308.042 191.913 309.796Z" fill="#2F2E41"/>
<path d="M231.686 545.393L238.642 549.172L257.057 523.711L246.789 518.134L231.686 545.393Z" fill="#FFB6B6"/>
<path d="M235.035 536.321L247.663 540.276L245.653 545.566L254.313 558.135C254.741 558.755 254.959 559.496 254.936 560.25C254.912 561.003 254.649 561.73 254.184 562.323C253.718 562.916 253.075 563.345 252.349 563.547C251.623 563.749 250.851 563.713 250.146 563.445L235.445 557.86L234.899 551.664L231.922 556.521L226.379 554.416L235.035 536.321Z" fill="#2F2E41"/>
<path d="M271.088 431.513C269.978 431.783 268.822 431.807 267.701 431.582C266.581 431.357 265.523 430.89 264.603 430.212C263.683 429.534 262.923 428.663 262.376 427.66C261.829 426.656 261.508 425.545 261.437 424.405L202.104 403.059L212.993 393.583L269.309 416.006C271.233 416.014 273.087 416.727 274.52 418.01C275.954 419.293 276.867 421.058 277.086 422.969C277.305 424.881 276.816 426.806 275.71 428.381C274.605 429.955 272.96 431.07 271.088 431.513V431.513Z" fill="#FFB6B6"/>
<path d="M185.529 350.178C185.529 350.178 175.536 350.398 174.647 361.807C173.759 373.216 195.564 401.435 198.942 406.089C202.321 410.742 239.846 416.47 239.846 416.47L252.602 407.209C239.198 398.524 226.966 391.865 218.756 392.164L185.529 350.178Z" fill="#2368FF"/>
<path d="M173.273 400.518L175.709 410.98C175.709 410.98 175.732 420.628 177.441 422.407C179.138 424.177 216.446 420.622 216.446 420.622C216.446 420.622 212.49 405.076 212.543 393.312L173.273 400.518Z" fill="#FFB6B6"/>
<path d="M252.088 534.349L238.628 526.946C238.372 509.431 248.907 485.728 261.402 460.901C233.457 465.708 207.093 467.247 184.289 461.433C180.545 460.445 177.341 458.023 175.368 454.691C173.396 451.359 172.814 447.384 173.748 443.627C173.836 443.258 173.939 442.893 174.056 442.532C176.785 434.205 170.665 428.985 176.294 419.827C191.098 414.771 205.161 413.343 218.021 417.808L226.078 435.623L266.016 430.455C267.946 430.225 269.902 430.378 271.772 430.907C273.642 431.436 275.389 432.329 276.912 433.536C278.435 434.743 279.704 436.24 280.646 437.94C281.588 439.64 282.184 441.509 282.4 443.44C282.454 443.874 282.489 444.309 282.505 444.746C274.43 482.605 265.375 516.67 252.088 534.349Z" fill="#2F2E41"/>
<path d="M175.123 328.218C184.155 326.37 189.98 317.549 188.131 308.516C186.283 299.483 177.462 293.659 168.429 295.507C159.397 297.356 153.573 306.177 155.421 315.209C157.269 324.242 166.09 330.066 175.123 328.218Z" fill="#FFB6B6"/>
<path d="M167.852 334.278L183.238 333.37C183.887 333.331 184.531 333.496 185.082 333.842C185.632 334.187 186.062 334.696 186.309 335.297L190.657 345.837L208.728 360.773C208.728 360.773 215.882 369.877 215.899 381.636C215.916 393.394 218.437 420.61 218.437 420.61C218.437 420.61 207.996 405.912 201.551 409.821C200.454 410.486 200.069 411.846 198.92 412.533C198.347 412.876 197.024 412.543 196.445 412.886C187.564 418.159 178.302 423.309 177.437 422.406C175.738 420.633 173.676 411.572 173.676 411.572L159.593 359.826C158.829 357.103 158.678 354.245 159.149 351.457C159.62 348.669 160.702 346.02 162.318 343.699C163.302 342.314 164.333 341.284 165.291 341.113C167.442 340.655 166.298 335.834 167.852 334.278Z" fill="#2368FF"/>
<path d="M298.731 567.313L305.226 562.797L290.513 535.04L280.928 541.704L298.731 567.313Z" fill="#FFB6B6"/>
<path d="M299.713 548.688L289.534 557.786C273.35 539.752 261.115 514.46 250.746 485.738C223.58 477.781 203.092 464.949 185.207 449.714C179.14 444.579 174.591 437.984 179.766 431.73C180.008 431.437 180.26 431.155 180.524 430.882C186.634 424.602 202.128 425.799 211.203 420.046L231.475 441.715L230.2 447.524L268.277 460.422C270.109 461.064 271.796 462.063 273.24 463.36C274.685 464.658 275.858 466.228 276.692 467.981C277.526 469.734 278.005 471.635 278.102 473.574C278.198 475.513 277.909 477.451 277.252 479.278C277.109 479.691 276.949 480.098 276.772 480.497L299.713 548.688Z" fill="#2F2E41"/>
<path d="M294.945 565.482L305.342 557.295L308.572 561.942L323.835 561.896C324.588 561.893 325.323 562.132 325.932 562.577C326.54 563.021 326.991 563.649 327.218 564.368C327.444 565.087 327.435 565.86 327.191 566.573C326.948 567.286 326.483 567.903 325.864 568.334L312.95 577.31L307.529 574.26L309.856 579.461L304.987 582.846L294.945 565.482Z" fill="#2F2E41"/>
<path d="M190.571 464.688C189.519 464.241 188.577 463.569 187.813 462.72C187.049 461.87 186.48 460.863 186.147 459.77C185.814 458.677 185.725 457.524 185.886 456.393C186.046 455.262 186.453 454.179 187.077 453.222L152.246 400.659L166.639 399.564L198.407 451.189C199.946 452.344 201.007 454.024 201.39 455.909C201.773 457.795 201.45 459.755 200.485 461.419C199.519 463.083 197.976 464.335 196.149 464.937C194.321 465.54 192.337 465.451 190.571 464.688Z" fill="#FFB6B6"/>
<path d="M170.544 348.348C170.544 348.348 162.399 342.555 154.871 351.174C147.343 359.792 147.971 395.449 147.901 401.199C147.878 403 150.478 406.885 154.061 411.373C155.669 413.388 157.475 415.524 159.331 417.647C160.405 418.876 159.479 421.434 160.558 422.628C161.63 423.816 164.706 423.641 165.726 424.744C170.568 429.976 174.502 433.96 174.502 433.96L190.264 434.154C190.441 422.436 182.417 411.977 172.109 401.869L170.544 348.348Z" fill="#2368FF"/>
<path d="M192.641 303.753C192.024 304.058 191.424 304.352 190.836 304.631C188.473 305.792 186.032 306.785 183.53 307.603C183.114 306.47 182.478 305.431 181.661 304.544C181.87 305.769 181.763 307.027 181.351 308.2C177.563 309.138 173.588 308.984 169.884 307.757C172.306 312.242 174.096 321.692 173.966 330.12C173.909 334.577 173.306 338.746 171.989 341.743L170.296 336.594C170.139 334.754 169.824 332.932 169.353 331.147C168.218 326.137 167.159 329.487 165.599 331.97L154.69 334.353C154.671 334.227 154.657 334.092 154.638 333.965C154.612 333.806 154.587 333.646 154.554 333.488C154.351 332.465 153.981 331.482 153.458 330.58C153.402 331.789 153.045 332.965 152.42 334C152.402 334.027 152.388 334.056 152.375 334.085C152.181 334.399 151.968 334.699 151.735 334.985C151.724 334.993 151.714 335.002 151.706 335.012C144.663 335.954 139.726 299.634 149.701 298.958C149.991 298.939 150.046 298.496 150.226 298.267C150.405 298.038 150.58 297.817 150.768 297.593C150.792 297.572 150.812 297.547 150.828 297.519C151.361 296.901 151.913 296.308 152.497 295.735C152.669 295.569 152.847 295.402 153.026 295.235C155.764 292.722 159.023 290.845 162.57 289.737C162.97 289.614 163.386 289.495 163.809 289.381C164.227 289.275 164.653 289.174 165.081 289.086L165.226 289.056C165.431 289.014 165.643 288.978 165.849 288.943C166.107 288.897 166.367 288.857 166.622 288.826C167.578 289.307 168.396 290.024 168.999 290.908L175.968 289.482C176.153 289.445 176.339 289.413 176.526 289.389L176.539 289.386C185.24 287.929 190.835 294.924 192.641 303.753Z" fill="#2F2E41"/>
<path d="M154.657 297.332C153.165 298.409 151.595 299.519 149.774 299.786C147.953 300.053 145.821 299.172 145.317 297.402C144.701 295.238 146.655 293.268 148.412 291.861L153.982 287.401C155.002 286.496 156.153 285.752 157.397 285.193C158.021 284.918 158.7 284.787 159.382 284.81C160.064 284.833 160.732 285.009 161.337 285.325C161.935 285.729 162.42 286.28 162.746 286.925C163.071 287.569 163.226 288.287 163.196 289.009C163.117 290.455 162.639 291.851 161.817 293.044C160.783 294.655 159.434 296.041 157.85 297.118C156.266 298.194 154.481 298.939 152.603 299.307" fill="#2F2E41"/>
<path d="M196.9 413.206H156.519C155.091 413.206 153.721 413.773 152.712 414.783C151.702 415.793 151.135 417.162 151.135 418.59C151.135 420.018 151.702 421.388 152.712 422.397C153.721 423.407 155.091 423.974 156.519 423.974H171.325V465.701H182.093V423.974H196.9C198.328 423.974 199.697 423.407 200.707 422.397C201.717 421.388 202.284 420.018 202.284 418.59C202.284 417.162 201.717 415.793 200.707 414.783C199.697 413.773 198.328 413.206 196.9 413.206Z" fill="#3F3D56"/>
<path d="M346.084 583.97L50.799 584.177C50.5869 584.177 50.3837 584.092 50.2339 583.942C50.0841 583.791 50 583.588 50 583.376C50 583.164 50.0841 582.96 50.2339 582.81C50.3837 582.66 50.5869 582.575 50.799 582.575L346.084 582.368C346.296 582.368 346.499 582.453 346.649 582.603C346.799 582.753 346.883 582.957 346.883 583.169C346.883 583.381 346.799 583.585 346.649 583.735C346.499 583.885 346.296 583.97 346.084 583.97Z" fill="#CACACA"/>
<path d="M432.014 494.584L438.587 501.748L469.346 479.802L459.644 469.229L432.014 494.584Z" fill="#FEC5CD"/>
<path d="M445.619 504.722V504.715L444.953 497.561L444.65 497.42L442.88 496.579L434.528 492.628L434.353 492.44L432.677 490.609L423.396 499.129L435.968 512.832L444.59 522.227L444.879 521.958C446.061 520.875 447.017 519.571 447.694 518.118C448.37 516.666 448.754 515.094 448.823 513.493C448.892 511.893 448.644 510.294 448.094 508.789C447.545 507.284 446.704 505.902 445.619 504.722H445.619Z" fill="#2F2E41"/>
<path d="M397.957 566.048L407.259 568.874L422.587 534.336L408.856 530.166L397.957 566.048Z" fill="#FEC5CD"/>
<path d="M422.043 573.781C421.293 572.364 420.269 571.112 419.03 570.095C417.792 569.078 416.363 568.318 414.828 567.858L410.608 562.037L410.279 562.064L399.127 563.087L398.878 563.012L396.509 562.292L392.848 574.346L422.844 583.459L422.958 583.075C423.426 581.542 423.586 579.932 423.429 578.336C423.272 576.741 422.801 575.193 422.043 573.781V573.781Z" fill="#2F2E41"/>
<path d="M474.668 385.214C474.668 385.214 534.062 442.56 496.514 460.31H484.909C484.909 460.31 481.421 447.92 473.437 437.471C472.341 436.036 468.233 436.328 467.092 434.929C460.127 426.391 452.576 419.058 447.361 419.349L448.608 458.971L450.627 473.104C451.688 480.411 421.767 544.203 421.767 544.203L402.961 536.812C402.961 536.812 422.555 484.269 422.784 476.695L407.082 393.406L474.668 385.214Z" fill="#2F2E41"/>
<path d="M479.62 388.042C479.318 388.474 478.922 388.833 478.463 389.092C477.706 389.52 476.886 389.824 476.033 389.994C462.66 393.029 418.975 399.322 407.635 396.32C406.242 395.957 405.333 395.445 405.037 394.772C404.088 392.646 404.209 383.661 404.768 372.812C404.869 370.779 407.11 368.579 407.244 366.452C407.339 364.857 405.326 363.356 405.434 361.734C406.174 350.764 407.13 339.585 407.769 332.519C408.173 327.976 408.449 325.136 408.449 325.136L401.551 281.639L401.874 281.107L402.237 280.925L424.48 269.915L425.692 266.819C426.043 265.928 426.653 265.162 427.444 264.621C428.234 264.08 429.169 263.788 430.127 263.784L444.778 263.723C445.539 263.719 446.289 263.896 446.966 264.241C447.644 264.585 448.23 265.086 448.675 265.702L452.646 271.2L478.893 288.026L478.792 288.335L466.476 325.815L466.416 328.736V328.743L465.958 352.231L467.23 355.414L465.797 360.637C465.797 360.637 466.456 366.741 469.99 371.277C473.193 375.396 477.272 379.69 479.116 383.176V383.183C480.139 385.108 480.482 386.777 479.62 388.042Z" fill="#2368FF"/>
<path d="M499.365 456.904L496.19 460.915C496.19 460.915 466.993 481.342 465.99 483.251L461.376 487.617L450.211 475.683L456.017 468.405C460.664 462.581 466.667 457.985 473.501 455.019V455.019L482.4 447.125L499.365 456.904Z" fill="#2F2E41"/>
<path d="M480.812 399.571L475.495 348.105L474.092 326.924L488.974 324.233C488.974 324.233 488.384 339.378 490.334 347.924C492.258 356.356 490.589 398.441 490.47 399.566C491.563 400.544 492.334 401.83 492.68 403.255C493.026 404.679 492.931 406.175 492.408 407.545C491.886 408.915 490.959 410.094 489.752 410.926C488.545 411.758 487.113 412.204 485.647 412.204C484.181 412.205 482.749 411.761 481.541 410.93C480.333 410.099 479.406 408.921 478.882 407.552C478.357 406.182 478.261 404.686 478.606 403.261C478.951 401.836 479.72 400.549 480.812 399.571V399.571Z" fill="#FEC5CD"/>
<path d="M495.33 358.771L476.201 362.731L474.529 356.063L472.579 353.994L468.683 333.586L463.094 321.631L464.547 280.75L478.743 288.279L478.76 288.293C480.932 290.65 482.428 294.023 484.916 297.408C492.757 308.075 493.627 333.993 493.389 348.19C493.385 348.423 493.62 348.669 493.901 348.928C495.236 350.153 496.107 351.802 496.368 353.595C496.628 355.389 496.262 357.217 495.33 358.771V358.771Z" fill="#2368FF"/>
<path d="M394.193 401.59L399.51 350.124L400.914 328.943L386.031 326.252C386.031 326.252 386.621 341.397 384.672 349.943C382.748 358.375 384.416 400.46 384.535 401.585C383.442 402.563 382.672 403.849 382.326 405.274C381.98 406.698 382.074 408.195 382.597 409.564C383.12 410.934 384.046 412.113 385.253 412.945C386.461 413.777 387.892 414.223 389.358 414.223C390.824 414.224 392.256 413.78 393.464 412.949C394.672 412.118 395.6 410.94 396.124 409.571C396.648 408.201 396.744 406.705 396.399 405.28C396.054 403.855 395.285 402.568 394.193 401.59V401.59Z" fill="#FEC5CD"/>
<path d="M411.914 323.649L407.768 332.519L406.321 335.608L402.424 356.014L400.479 358.08L398.803 364.75L398.016 364.588L383.815 361.647L379.676 360.792C378.744 359.238 378.376 357.409 378.636 355.615C378.896 353.821 379.768 352.172 381.103 350.946C381.386 350.69 381.621 350.441 381.615 350.206C381.379 336.012 382.247 310.094 390.088 299.427C392.578 296.042 394.072 292.67 396.246 290.314C396.253 290.308 396.253 290.301 396.259 290.301L401.549 281.639L401.872 281.107L402.236 280.926L411.914 323.649Z" fill="#2368FF"/>
<path d="M437.029 259.552C447.796 259.552 456.524 250.824 456.524 240.058C456.524 229.291 447.796 220.563 437.029 220.563C426.263 220.563 417.535 229.291 417.535 240.058C417.535 250.824 426.263 259.552 437.029 259.552Z" fill="#FEC5CD"/>
<path d="M458.945 231.507C458.878 228.182 458.501 223.928 456.172 220.536C454.207 217.683 450.243 215.421 446.548 216.552C446.59 215.813 446.425 215.077 446.074 214.426C445.722 213.775 445.197 213.234 444.556 212.864C443.156 212.009 441.474 211.855 439.986 211.713C436.238 211.363 432.354 211 428.559 211.72C424.298 212.528 420.812 214.722 419.002 217.743L418.961 217.838L418.591 219.628C418.542 219.868 418.441 220.094 418.296 220.292C418.151 220.489 417.964 220.653 417.75 220.772C417.535 220.892 417.297 220.964 417.051 220.981C416.806 220.999 416.559 220.962 416.33 220.873C416.079 220.779 415.807 220.752 415.542 220.795C415.278 220.837 415.029 220.949 414.82 221.117C414.611 221.286 414.45 221.506 414.353 221.756C414.255 222.006 414.224 222.277 414.264 222.542L414.365 223.255L413.295 223.053C413.026 223.001 412.748 223.022 412.49 223.113C412.232 223.204 412.003 223.363 411.827 223.572C411.651 223.781 411.534 224.034 411.487 224.303C411.441 224.573 411.468 224.85 411.565 225.106L411.861 225.921C411.64 225.923 411.422 225.971 411.219 226.06C411.017 226.149 410.835 226.278 410.683 226.439C410.467 226.673 410.331 226.971 410.295 227.287C410.259 227.604 410.324 227.925 410.481 228.202C411.681 230.249 413.381 231.958 415.421 233.169C416.339 233.722 417.329 234.145 418.362 234.427C418.578 234.488 418.8 234.542 419.029 234.589C427.292 236.37 435.811 236.625 444.166 235.343C443.674 236.991 443.484 238.715 443.607 240.431C443.876 242.578 445.135 244.348 446.817 244.94C447.198 245.069 447.59 245.164 447.988 245.223C448.37 245.284 448.746 245.377 449.112 245.498C449.654 245.697 450.133 246.034 450.502 246.477C450.871 246.92 451.116 247.453 451.213 248.021C451.31 248.589 451.255 249.173 451.054 249.714C450.853 250.254 450.513 250.731 450.068 251.098C450.068 251.098 451.831 252.558 452.053 252.484C452.92 252.102 453.645 251.457 454.126 250.64C457.485 245.808 459.107 239.374 458.945 231.507Z" fill="#2F2E41"/>
<rect x="57" y="514" width="134" height="43" rx="4" fill="#2368FF"/>
<path d="M73.48 543V528.8H76.24V543H73.48ZM89.8227 531.22H85.2827V543H82.5427V531.22H78.0027V528.8H89.8227V531.22ZM104.264 532.52C104.171 532.427 103.998 532.3 103.744 532.14C103.504 531.98 103.204 531.827 102.844 531.68C102.498 531.533 102.118 531.407 101.704 531.3C101.291 531.18 100.871 531.12 100.444 531.12C99.6976 531.12 99.1309 531.26 98.7442 531.54C98.3709 531.82 98.1842 532.213 98.1842 532.72C98.1842 533.107 98.3042 533.413 98.5442 533.64C98.7842 533.867 99.1442 534.06 99.6242 534.22C100.104 534.38 100.704 534.553 101.424 534.74C102.358 534.967 103.164 535.247 103.844 535.58C104.538 535.9 105.064 536.327 105.424 536.86C105.798 537.38 105.984 538.073 105.984 538.94C105.984 539.7 105.844 540.353 105.564 540.9C105.284 541.433 104.898 541.867 104.404 542.2C103.911 542.533 103.351 542.78 102.724 542.94C102.098 543.087 101.431 543.16 100.724 543.16C100.018 543.16 99.3109 543.087 98.6042 542.94C97.8976 542.793 97.2176 542.587 96.5642 542.32C95.9109 542.04 95.3109 541.707 94.7642 541.32L95.9842 538.94C96.1042 539.06 96.3176 539.22 96.6242 539.42C96.9309 539.607 97.3042 539.8 97.7442 540C98.1842 540.187 98.6642 540.347 99.1842 540.48C99.7042 540.613 100.231 540.68 100.764 540.68C101.511 540.68 102.078 540.553 102.464 540.3C102.851 540.047 103.044 539.687 103.044 539.22C103.044 538.793 102.891 538.46 102.584 538.22C102.278 537.98 101.851 537.773 101.304 537.6C100.758 537.413 100.111 537.213 99.3642 537C98.4709 536.747 97.7242 536.467 97.1242 536.16C96.5242 535.84 96.0776 535.44 95.7842 534.96C95.4909 534.48 95.3442 533.88 95.3442 533.16C95.3442 532.187 95.5709 531.373 96.0242 530.72C96.4909 530.053 97.1176 529.553 97.9042 529.22C98.6909 528.873 99.5642 528.7 100.524 528.7C101.191 528.7 101.818 528.773 102.404 528.92C103.004 529.067 103.564 529.26 104.084 529.5C104.604 529.74 105.071 530 105.484 530.28L104.264 532.52ZM112.67 543.2C111.83 543.2 111.07 543.06 110.39 542.78C109.71 542.487 109.13 542.093 108.65 541.6C108.17 541.093 107.797 540.52 107.53 539.88C107.277 539.227 107.15 538.54 107.15 537.82C107.15 536.82 107.37 535.907 107.81 535.08C108.263 534.253 108.903 533.593 109.73 533.1C110.57 532.593 111.557 532.34 112.69 532.34C113.837 532.34 114.817 532.593 115.63 533.1C116.443 533.593 117.063 534.253 117.49 535.08C117.93 535.893 118.15 536.773 118.15 537.72C118.15 537.88 118.143 538.047 118.13 538.22C118.117 538.38 118.103 538.513 118.09 538.62H109.99C110.043 539.153 110.197 539.62 110.45 540.02C110.717 540.42 111.05 540.727 111.45 540.94C111.863 541.14 112.303 541.24 112.77 541.24C113.303 541.24 113.803 541.113 114.27 540.86C114.75 540.593 115.077 540.247 115.25 539.82L117.55 540.46C117.297 540.993 116.93 541.467 116.45 541.88C115.983 542.293 115.43 542.62 114.79 542.86C114.15 543.087 113.443 543.2 112.67 543.2ZM109.93 536.92H115.41C115.357 536.387 115.203 535.927 114.95 535.54C114.71 535.14 114.39 534.833 113.99 534.62C113.59 534.393 113.143 534.28 112.65 534.28C112.17 534.28 111.73 534.393 111.33 534.62C110.943 534.833 110.623 535.14 110.37 535.54C110.13 535.927 109.983 536.387 109.93 536.92ZM126.023 534.84C125.209 534.84 124.483 535 123.842 535.32C123.203 535.627 122.743 536.073 122.463 536.66V543H119.783V532.52H122.243V534.76C122.616 534.04 123.089 533.473 123.663 533.06C124.236 532.647 124.843 532.42 125.483 532.38C125.629 532.38 125.743 532.38 125.823 532.38C125.903 532.38 125.969 532.387 126.023 532.4V534.84ZM130.337 543L126.477 532.52H129.257L131.897 540.56L134.557 532.52H137.097L133.257 543H130.337ZM138.513 543V532.52H141.193V543H138.513ZM138.513 531.06V528.4H141.193V531.06H138.513ZM148.491 543.2C147.637 543.2 146.871 543.06 146.191 542.78C145.511 542.487 144.931 542.087 144.451 541.58C143.971 541.06 143.597 540.473 143.331 539.82C143.077 539.167 142.951 538.48 142.951 537.76C142.951 536.773 143.171 535.873 143.611 535.06C144.064 534.233 144.704 533.573 145.531 533.08C146.357 532.587 147.337 532.34 148.471 532.34C149.604 532.34 150.577 532.587 151.391 533.08C152.204 533.573 152.811 534.22 153.211 535.02L150.591 535.82C150.364 535.433 150.064 535.14 149.691 534.94C149.317 534.727 148.904 534.62 148.451 534.62C147.944 534.62 147.477 534.753 147.051 535.02C146.637 535.273 146.311 535.64 146.071 536.12C145.831 536.587 145.711 537.133 145.711 537.76C145.711 538.373 145.831 538.92 146.071 539.4C146.324 539.867 146.657 540.24 147.071 540.52C147.484 540.787 147.944 540.92 148.451 540.92C148.771 540.92 149.071 540.867 149.351 540.76C149.644 540.653 149.904 540.507 150.131 540.32C150.357 540.133 150.524 539.92 150.631 539.68L153.251 540.48C153.011 541 152.657 541.467 152.191 541.88C151.737 542.293 151.197 542.62 150.571 542.86C149.957 543.087 149.264 543.2 148.491 543.2ZM159.662 543.2C158.822 543.2 158.062 543.06 157.382 542.78C156.702 542.487 156.122 542.093 155.642 541.6C155.162 541.093 154.789 540.52 154.522 539.88C154.269 539.227 154.142 538.54 154.142 537.82C154.142 536.82 154.362 535.907 154.802 535.08C155.255 534.253 155.895 533.593 156.722 533.1C157.562 532.593 158.549 532.34 159.682 532.34C160.829 532.34 161.809 532.593 162.622 533.1C163.435 533.593 164.055 534.253 164.482 535.08C164.922 535.893 165.142 536.773 165.142 537.72C165.142 537.88 165.135 538.047 165.122 538.22C165.109 538.38 165.095 538.513 165.082 538.62H156.982C157.035 539.153 157.189 539.62 157.442 540.02C157.709 540.42 158.042 540.727 158.442 540.94C158.855 541.14 159.295 541.24 159.762 541.24C160.295 541.24 160.795 541.113 161.262 540.86C161.742 540.593 162.069 540.247 162.242 539.82L164.542 540.46C164.289 540.993 163.922 541.467 163.442 541.88C162.975 542.293 162.422 542.62 161.782 542.86C161.142 543.087 160.435 543.2 159.662 543.2ZM156.922 536.92H162.402C162.349 536.387 162.195 535.927 161.942 535.54C161.702 535.14 161.382 534.833 160.982 534.62C160.582 534.393 160.135 534.28 159.642 534.28C159.162 534.28 158.722 534.393 158.322 534.62C157.935 534.833 157.615 535.14 157.362 535.54C157.122 535.927 156.975 536.387 156.922 536.92ZM170.635 543.2C169.741 543.2 168.888 543.053 168.075 542.76C167.261 542.467 166.561 542.033 165.975 541.46L166.935 539.72C167.561 540.227 168.175 540.6 168.775 540.84C169.388 541.08 169.975 541.2 170.535 541.2C171.055 541.2 171.468 541.107 171.775 540.92C172.095 540.733 172.255 540.453 172.255 540.08C172.255 539.827 172.168 539.633 171.995 539.5C171.821 539.353 171.568 539.227 171.235 539.12C170.915 539.013 170.521 538.893 170.055 538.76C169.281 538.507 168.635 538.26 168.115 538.02C167.595 537.78 167.201 537.48 166.935 537.12C166.681 536.747 166.555 536.273 166.555 535.7C166.555 535.007 166.728 534.413 167.075 533.92C167.435 533.413 167.928 533.02 168.555 532.74C169.195 532.46 169.941 532.32 170.795 532.32C171.541 532.32 172.248 532.44 172.915 532.68C173.581 532.907 174.188 533.28 174.735 533.8L173.655 535.5C173.121 535.087 172.615 534.787 172.135 534.6C171.655 534.4 171.168 534.3 170.675 534.3C170.395 534.3 170.128 534.333 169.875 534.4C169.635 534.467 169.435 534.58 169.275 534.74C169.128 534.887 169.055 535.1 169.055 535.38C169.055 535.633 169.121 535.833 169.255 535.98C169.401 536.113 169.615 536.233 169.895 536.34C170.188 536.447 170.541 536.567 170.955 536.7C171.795 536.94 172.501 537.187 173.075 537.44C173.661 537.693 174.101 538.007 174.395 538.38C174.688 538.74 174.835 539.24 174.835 539.88C174.835 540.92 174.455 541.733 173.695 542.32C172.935 542.907 171.915 543.2 170.635 543.2Z" fill="white"/>
<defs>
<filter id="filter0_di_105_2200" x="101" y="0" width="236.663" height="358.494" filterUnits="userSpaceOnUse" color-interpolation-filters="sRGB">
<feFlood flood-opacity="0" result="BackgroundImageFix"/>
<feColorMatrix in="SourceAlpha" type="matrix" values="0 0 0 0 0 0 0 0 0 0 0 0 0 0 0 0 0 0 127 0" result="hardAlpha"/>
<feOffset dx="0.831325" dy="1.66265"/>
<feGaussianBlur stdDeviation="0.415663"/>
<feComposite in2="hardAlpha" operator="out"/>
<feColorMatrix type="matrix" values="0 0 0 0 0.137255 0 0 0 0 0.407843 0 0 0 0 1 0 0 0 0.25 0"/>
<feBlend mode="normal" in2="BackgroundImageFix" result="effect1_dropShadow_105_2200"/>
<feBlend mode="normal" in="SourceGraphic" in2="effect1_dropShadow_105_2200" result="shape"/>
<feColorMatrix in="SourceAlpha" type="matrix" values="0 0 0 0 0 0 0 0 0 0 0 0 0 0 0 0 0 0 127 0" result="hardAlpha"/>
<feOffset dx="0.831325" dy="0.831325"/>
<feGaussianBlur stdDeviation="1.66265"/>
<feComposite in2="hardAlpha" operator="arithmetic" k2="-1" k3="1"/>
<feColorMatrix type="matrix" values="0 0 0 0 1 0 0 0 0 1 0 0 0 0 1 0 0 0 0.25 0"/>
<feBlend mode="normal" in2="shape" result="effect2_innerShadow_105_2200"/>
</filter>
<filter id="filter1_di_105_2200" x="208" y="458" width="103.773" height="122.631" filterUnits="userSpaceOnUse" color-interpolation-filters="sRGB">
<feFlood flood-opacity="0" result="BackgroundImageFix"/>
<feColorMatrix in="SourceAlpha" type="matrix" values="0 0 0 0 0 0 0 0 0 0 0 0 0 0 0 0 0 0 127 0" result="hardAlpha"/>
<feOffset dx="0.543732" dy="1.08746"/>
<feGaussianBlur stdDeviation="0.271866"/>
<feComposite in2="hardAlpha" operator="out"/>
<feColorMatrix type="matrix" values="0 0 0 0 0 0 0 0 0 0 0 0 0 0 0 0 0 0 0.25 0"/>
<feBlend mode="normal" in2="BackgroundImageFix" result="effect1_dropShadow_105_2200"/>
<feBlend mode="normal" in="SourceGraphic" in2="effect1_dropShadow_105_2200" result="shape"/>
<feColorMatrix in="SourceAlpha" type="matrix" values="0 0 0 0 0 0 0 0 0 0 0 0 0 0 0 0 0 0 127 0" result="hardAlpha"/>
<feOffset dx="0.543732" dy="0.543732"/>
<feGaussianBlur stdDeviation="1.08746"/>
<feComposite in2="hardAlpha" operator="arithmetic" k2="-1" k3="1"/>
<feColorMatrix type="matrix" values="0 0 0 0 1 0 0 0 0 1 0 0 0 0 1 0 0 0 0.25 0"/>
<feBlend mode="normal" in2="shape" result="effect2_innerShadow_105_2200"/>
</filter>
<filter id="filter2_di_105_2200" x="440" y="356" width="121.081" height="155.622" filterUnits="userSpaceOnUse" color-interpolation-filters="sRGB">
<feFlood flood-opacity="0" result="BackgroundImageFix"/>
<feColorMatrix in="SourceAlpha" type="matrix" values="0 0 0 0 0 0 0 0 0 0 0 0 0 0 0 0 0 0 127 0" result="hardAlpha"/>
<feOffset dx="0.540636" dy="1.08127"/>
<feGaussianBlur stdDeviation="0.270318"/>
<feComposite in2="hardAlpha" operator="out"/>
<feColorMatrix type="matrix" values="0 0 0 0 0 0 0 0 0 0 0 0 0 0 0 0 0 0 0.25 0"/>
<feBlend mode="normal" in2="BackgroundImageFix" result="effect1_dropShadow_105_2200"/>
<feBlend mode="normal" in="SourceGraphic" in2="effect1_dropShadow_105_2200" result="shape"/>
<feColorMatrix in="SourceAlpha" type="matrix" values="0 0 0 0 0 0 0 0 0 0 0 0 0 0 0 0 0 0 127 0" result="hardAlpha"/>
<feOffset dx="0.540636" dy="0.540636"/>
<feGaussianBlur stdDeviation="1.08127"/>
<feComposite in2="hardAlpha" operator="arithmetic" k2="-1" k3="1"/>
<feColorMatrix type="matrix" values="0 0 0 0 1 0 0 0 0 1 0 0 0 0 1 0 0 0 0.25 0"/>
<feBlend mode="normal" in2="shape" result="effect2_innerShadow_105_2200"/>
</filter>
</defs>
</svg>
