<svg width="591" height="283" viewBox="0 0 591 283" fill="none" xmlns="http://www.w3.org/2000/svg">
<path d="M135.287 247.315C136.747 235.572 144.025 224.001 155.225 220.18C150.808 232.267 150.809 245.526 155.227 257.613C156.948 262.268 159.347 267.266 157.728 271.958C156.721 274.877 154.257 277.11 151.503 278.507C148.749 279.903 145.692 280.569 142.674 281.221L142.079 281.713C137.288 270.892 133.827 259.058 135.287 247.315Z" fill="#0240C8"/>
<path d="M155.336 220.401C148.814 227.708 144.76 236.885 143.751 246.628C143.496 248.722 143.573 250.842 143.979 252.912C144.439 254.915 145.428 256.758 146.842 258.25C148.132 259.668 149.616 260.969 150.539 262.675C150.999 263.556 151.267 264.524 151.326 265.515C151.386 266.507 151.235 267.499 150.883 268.429C150.068 270.766 148.462 272.672 146.826 274.481C145.01 276.489 143.091 278.547 142.319 281.209C142.226 281.532 141.731 281.368 141.824 281.046C143.167 276.413 147.664 273.782 149.809 269.609C150.81 267.663 151.23 265.402 150.291 263.347C149.471 261.55 147.942 260.207 146.623 258.783C145.223 257.348 144.195 255.592 143.629 253.668C143.12 251.625 142.961 249.511 143.16 247.416C143.534 242.691 144.648 238.055 146.462 233.676C148.505 228.668 151.389 224.046 154.991 220.01C155.214 219.76 155.557 220.153 155.336 220.401L155.336 220.401Z" fill="white"/>
<path d="M143.893 243.473C142.281 243.081 140.861 242.13 139.886 240.788C138.911 239.447 138.445 237.802 138.571 236.149C138.597 235.814 139.119 235.84 139.092 236.175C138.972 237.714 139.407 239.246 140.317 240.494C141.227 241.741 142.554 242.622 144.056 242.977C144.383 243.055 144.218 243.55 143.893 243.473Z" fill="white"/>
<path d="M146.092 257.619C149.003 255.881 151.152 253.109 152.11 249.857C152.205 249.535 152.7 249.699 152.605 250.021C151.602 253.403 149.36 256.282 146.327 258.084C146.038 258.256 145.805 257.789 146.092 257.619Z" fill="white"/>
<path d="M148.989 229.163C149.581 229.444 150.233 229.574 150.888 229.541C151.543 229.507 152.179 229.312 152.739 228.972C153.026 228.797 153.259 229.264 152.974 229.438C152.353 229.811 151.65 230.025 150.927 230.064C150.204 230.102 149.482 229.963 148.825 229.658C148.761 229.634 148.708 229.587 148.677 229.526C148.646 229.465 148.64 229.394 148.659 229.329C148.681 229.263 148.728 229.209 148.79 229.178C148.852 229.147 148.923 229.141 148.989 229.163Z" fill="white"/>
<path d="M189.364 241.155C189.187 241.269 189.011 241.384 188.835 241.503C186.477 243.054 184.248 244.794 182.171 246.705C182.008 246.851 181.845 247 181.687 247.15C176.732 251.81 172.686 257.348 169.754 263.485C168.589 265.928 167.612 268.456 166.831 271.047C165.752 274.626 164.868 278.592 162.733 281.519C162.513 281.827 162.275 282.121 162.02 282.4H142.726C142.683 282.378 142.639 282.36 142.595 282.338L141.824 282.373C141.855 282.237 141.89 282.096 141.921 281.959C141.939 281.88 141.961 281.801 141.978 281.722C141.991 281.669 142.005 281.616 142.014 281.568C142.018 281.55 142.022 281.532 142.027 281.519C142.035 281.471 142.049 281.427 142.058 281.383C142.251 280.595 142.451 279.807 142.656 279.019C142.656 279.015 142.656 279.015 142.66 279.01C144.168 272.991 146.385 267.173 149.263 261.676C149.351 261.513 149.439 261.346 149.536 261.183C150.869 258.75 152.399 256.43 154.11 254.246C155.05 253.053 156.051 251.908 157.107 250.817C159.842 248.001 163.003 245.634 166.474 243.8C173.394 240.147 181.405 238.747 188.8 240.979C188.989 241.036 189.174 241.093 189.364 241.155Z" fill="#2368FF"/>
<path d="M189.32 241.4C179.713 243.308 170.951 248.195 164.28 255.366C162.816 256.884 161.601 258.624 160.679 260.52C159.84 262.397 159.52 264.464 159.75 266.506C159.927 268.415 160.329 270.347 160.038 272.266C159.875 273.245 159.507 274.18 158.957 275.007C158.407 275.834 157.689 276.536 156.849 277.067C154.791 278.443 152.361 278.997 149.966 279.456C147.307 279.966 144.536 280.454 142.317 282.115C142.048 282.316 141.751 281.887 142.02 281.686C145.881 278.796 151.056 279.403 155.28 277.363C157.252 276.41 158.948 274.859 159.436 272.653C159.863 270.724 159.45 268.731 159.255 266.8C159.001 264.811 159.238 262.79 159.945 260.913C160.767 258.976 161.913 257.192 163.334 255.639C166.477 252.092 170.158 249.061 174.243 246.657C178.889 243.888 183.975 241.934 189.28 240.88C189.609 240.815 189.647 241.335 189.32 241.4V241.4Z" fill="white"/>
<path d="M166.291 252.929C165.24 251.647 164.679 250.032 164.708 248.374C164.737 246.716 165.355 245.122 166.451 243.877C166.674 243.626 167.075 243.96 166.852 244.212C165.829 245.369 165.254 246.853 165.229 248.398C165.205 249.942 165.734 251.444 166.72 252.632C166.934 252.891 166.504 253.186 166.291 252.929Z" fill="white"/>
<path d="M159.532 265.55C162.902 265.914 166.287 264.995 169.01 262.976C169.279 262.776 169.576 263.204 169.307 263.405C166.469 265.501 162.945 266.45 159.439 266.063C159.105 266.026 159.2 265.513 159.532 265.55Z" fill="white"/>
<path d="M178.976 244.573C179.279 245.154 179.722 245.65 180.265 246.018C180.807 246.386 181.433 246.613 182.085 246.679C182.42 246.712 182.324 247.225 181.992 247.192C181.272 247.116 180.581 246.864 179.981 246.459C179.38 246.054 178.888 245.509 178.547 244.87C178.51 244.812 178.496 244.743 178.508 244.675C178.52 244.608 178.558 244.548 178.613 244.507C178.67 244.468 178.74 244.453 178.808 244.465C178.876 244.477 178.936 244.516 178.976 244.573Z" fill="white"/>
<path d="M482.533 251.467C481.27 241.315 474.978 231.313 465.296 228.009C469.115 238.458 469.114 249.921 465.294 260.37C463.806 264.394 461.732 268.716 463.132 272.771C464.003 275.295 466.133 277.226 468.514 278.433C470.895 279.641 473.537 280.216 476.147 280.78L476.66 281.205C480.803 271.851 483.795 261.619 482.533 251.467Z" fill="#2368FF"/>
<path d="M465.202 228.2C470.841 234.518 474.345 242.451 475.218 250.874C475.438 252.684 475.371 254.517 475.021 256.306C474.623 258.038 473.768 259.632 472.546 260.922C471.43 262.147 470.147 263.272 469.349 264.747C468.952 265.508 468.72 266.345 468.669 267.202C468.617 268.059 468.748 268.918 469.052 269.721C469.756 271.742 471.145 273.389 472.559 274.953C474.129 276.689 475.788 278.468 476.455 280.77C476.536 281.049 476.964 280.907 476.883 280.628C475.722 276.624 471.835 274.349 469.981 270.742C469.115 269.059 468.752 267.105 469.563 265.328C470.273 263.774 471.595 262.614 472.735 261.382C473.945 260.142 474.834 258.623 475.323 256.96C475.763 255.194 475.901 253.367 475.728 251.555C475.405 247.471 474.442 243.462 472.874 239.677C471.108 235.347 468.614 231.351 465.501 227.862C465.308 227.646 465.011 227.986 465.202 228.2H465.202Z" fill="white"/>
<path d="M475.095 248.145C476.489 247.807 477.716 246.985 478.559 245.825C479.402 244.665 479.805 243.243 479.696 241.814C479.674 241.524 479.223 241.546 479.246 241.836C479.35 243.167 478.974 244.491 478.187 245.57C477.4 246.648 476.253 247.41 474.954 247.717C474.672 247.784 474.815 248.212 475.095 248.145Z" fill="white"/>
<path d="M473.192 260.374C470.675 258.872 468.818 256.476 467.989 253.665C467.907 253.386 467.479 253.528 467.561 253.806C468.429 256.73 470.367 259.219 472.989 260.777C473.239 260.925 473.44 260.522 473.192 260.374Z" fill="white"/>
<path d="M470.69 235.775C470.178 236.018 469.614 236.131 469.048 236.102C468.482 236.073 467.932 235.904 467.448 235.611C467.2 235.459 466.999 235.863 467.245 236.013C467.782 236.335 468.389 236.521 469.015 236.554C469.64 236.587 470.264 236.467 470.832 236.203C470.887 236.183 470.933 236.142 470.96 236.089C470.986 236.036 470.992 235.975 470.975 235.919C470.956 235.862 470.915 235.815 470.862 235.788C470.809 235.761 470.747 235.757 470.69 235.775L470.69 235.775Z" fill="white"/>
<path d="M435.785 246.141C435.937 246.24 436.09 246.339 436.242 246.442C438.281 247.782 440.208 249.287 442.003 250.94C442.144 251.065 442.285 251.195 442.422 251.324C446.705 255.352 450.203 260.141 452.738 265.446C453.745 267.558 454.59 269.743 455.265 271.983C456.197 275.077 456.962 278.506 458.808 281.036C458.997 281.303 459.203 281.557 459.424 281.798H476.103C476.141 281.779 476.179 281.763 476.218 281.744L476.883 281.775C476.857 281.657 476.826 281.535 476.8 281.417C476.784 281.349 476.765 281.28 476.75 281.212C476.739 281.166 476.727 281.12 476.72 281.078C476.716 281.063 476.712 281.048 476.708 281.036C476.701 280.995 476.689 280.957 476.682 280.919C476.514 280.237 476.342 279.556 476.164 278.875C476.164 278.871 476.164 278.871 476.16 278.867C474.857 273.664 472.941 268.634 470.452 263.882C470.376 263.741 470.3 263.596 470.216 263.456C469.064 261.352 467.742 259.346 466.263 257.458C465.449 256.427 464.584 255.438 463.671 254.494C461.307 252.06 458.574 250.013 455.573 248.428C449.591 245.27 442.665 244.059 436.272 245.989C436.109 246.038 435.949 246.088 435.785 246.141Z" fill="#0240C8"/>
<path d="M435.825 246.353C444.13 248.003 451.705 252.227 457.473 258.427C458.738 259.739 459.789 261.243 460.586 262.883C461.31 264.505 461.588 266.292 461.388 268.058C461.236 269.708 460.888 271.378 461.139 273.037C461.28 273.884 461.599 274.692 462.074 275.407C462.549 276.122 463.17 276.729 463.896 277.187C465.676 278.377 467.776 278.856 469.847 279.253C472.146 279.694 474.541 280.116 476.46 281.552C476.692 281.726 476.949 281.355 476.717 281.181C473.378 278.683 468.905 279.207 465.253 277.443C463.548 276.62 462.082 275.279 461.66 273.372C461.291 271.704 461.647 269.982 461.817 268.312C462.036 266.592 461.832 264.845 461.22 263.223C460.509 261.548 459.518 260.006 458.29 258.663C455.573 255.597 452.39 252.976 448.859 250.898C444.843 248.504 440.446 246.815 435.859 245.903C435.575 245.847 435.543 246.297 435.825 246.353Z" fill="white"/>
<path d="M455.729 256.321C456.637 255.212 457.122 253.816 457.097 252.382C457.072 250.949 456.538 249.571 455.59 248.495C455.398 248.278 455.051 248.567 455.244 248.784C456.128 249.784 456.626 251.068 456.646 252.403C456.667 253.738 456.21 255.036 455.358 256.064C455.173 256.287 455.545 256.543 455.729 256.321Z" fill="white"/>
<path d="M461.573 267.232C458.659 267.547 455.734 266.753 453.38 265.007C453.147 264.834 452.89 265.205 453.123 265.378C455.576 267.19 458.622 268.01 461.654 267.676C461.943 267.643 461.861 267.2 461.573 267.232H461.573Z" fill="white"/>
<path d="M444.763 249.098C444.5 249.6 444.118 250.029 443.648 250.347C443.179 250.665 442.638 250.861 442.075 250.918C441.786 250.947 441.868 251.39 442.155 251.362C442.778 251.296 443.375 251.078 443.894 250.728C444.413 250.378 444.839 249.907 445.133 249.354C445.165 249.305 445.177 249.245 445.167 249.186C445.156 249.128 445.124 249.076 445.076 249.041C445.027 249.007 444.967 248.994 444.908 249.005C444.849 249.015 444.797 249.049 444.763 249.098H444.763Z" fill="white"/>
<path d="M517.347 20.5085H124.824C124.673 20.5085 124.528 20.4485 124.421 20.3417C124.314 20.2348 124.254 20.0899 124.254 19.9388C124.254 19.7878 124.314 19.6428 124.421 19.536C124.528 19.4292 124.673 19.3691 124.824 19.3691H517.347C517.498 19.3691 517.643 19.4292 517.749 19.536C517.856 19.6428 517.916 19.7878 517.916 19.9388C517.916 20.0899 517.856 20.2348 517.749 20.3417C517.643 20.4485 517.498 20.5085 517.347 20.5085Z" fill="#CACACA"/>
<path d="M137.646 12.5334C141.107 12.5334 143.912 9.72769 143.912 6.2667C143.912 2.80569 141.107 0 137.646 0C134.185 0 131.379 2.80569 131.379 6.2667C131.379 9.72769 134.185 12.5334 137.646 12.5334Z" fill="#3F3D56"/>
<path d="M159.294 12.5334C162.755 12.5334 165.561 9.72769 165.561 6.2667C165.561 2.80569 162.755 0 159.294 0C155.833 0 153.027 2.80569 153.027 6.2667C153.027 9.72769 155.833 12.5334 159.294 12.5334Z" fill="#3F3D56"/>
<path d="M180.942 12.5334C184.403 12.5334 187.209 9.72769 187.209 6.2667C187.209 2.80569 184.403 0 180.942 0C177.481 0 174.676 2.80569 174.676 6.2667C174.676 9.72769 177.481 12.5334 180.942 12.5334Z" fill="#3F3D56"/>
<path d="M504.377 3.83251H488.995C488.693 3.83251 488.403 3.71247 488.189 3.49879C487.976 3.28511 487.855 2.9953 487.855 2.69311C487.855 2.39092 487.976 2.10111 488.189 1.88743C488.403 1.67375 488.693 1.55371 488.995 1.55371H504.377C504.527 1.55337 504.675 1.58259 504.814 1.63969C504.952 1.6968 505.078 1.78067 505.184 1.88651C505.29 1.99234 505.374 2.11807 505.432 2.25647C505.489 2.39488 505.519 2.54326 505.519 2.69311C505.519 2.84296 505.489 2.99134 505.432 3.12975C505.374 3.26816 505.29 3.39388 505.184 3.49971C505.078 3.60555 504.952 3.68942 504.814 3.74653C504.675 3.80363 504.527 3.83285 504.377 3.83251H504.377Z" fill="#3F3D56"/>
<path d="M504.377 8.10595H488.995C488.693 8.10595 488.403 7.98591 488.189 7.77223C487.976 7.55855 487.855 7.26874 487.855 6.96655C487.855 6.66437 487.976 6.37456 488.189 6.16088C488.403 5.9472 488.693 5.82715 488.995 5.82715H504.377C504.679 5.82715 504.969 5.9472 505.182 6.16088C505.396 6.37456 505.516 6.66437 505.516 6.96655C505.516 7.26874 505.396 7.55855 505.182 7.77223C504.969 7.98591 504.679 8.10595 504.377 8.10595H504.377Z" fill="#3F3D56"/>
<path d="M504.377 12.3784H488.995C488.693 12.3784 488.403 12.2584 488.189 12.0447C487.976 11.831 487.855 11.5412 487.855 11.239C487.855 10.9368 487.976 10.647 488.189 10.4333C488.403 10.2197 488.693 10.0996 488.995 10.0996H504.377C504.527 10.0993 504.675 10.1285 504.814 10.1856C504.952 10.2427 505.078 10.3266 505.184 10.4324C505.29 10.5382 505.374 10.664 505.432 10.8024C505.489 10.9408 505.519 11.0892 505.519 11.239C505.519 11.3889 505.489 11.5372 505.432 11.6756C505.374 11.8141 505.29 11.9398 505.184 12.0456C505.078 12.1514 504.952 12.2353 504.814 12.2924C504.675 12.3495 504.527 12.3787 504.377 12.3784H504.377Z" fill="#3F3D56"/>
<path d="M505.517 44.9385H423.48V94.1246H505.517V44.9385Z" fill="#2368FF"/>
<path d="M489.15 116.72H440.338C439.729 116.719 439.145 116.477 438.715 116.046C438.285 115.615 438.043 115.03 438.043 114.421C438.043 113.812 438.285 113.228 438.715 112.797C439.145 112.366 439.729 112.123 440.338 112.122H489.15C489.76 112.122 490.345 112.364 490.776 112.795C491.207 113.227 491.449 113.811 491.449 114.421C491.449 115.031 491.207 115.616 490.776 116.047C490.345 116.478 489.76 116.72 489.15 116.72Z" fill="#E4E4E4"/>
<path d="M481.281 108.85H448.209C447.907 108.851 447.607 108.792 447.328 108.676C447.049 108.561 446.795 108.392 446.581 108.178C446.367 107.965 446.197 107.711 446.082 107.432C445.966 107.153 445.906 106.853 445.906 106.551C445.906 106.249 445.966 105.95 446.082 105.67C446.197 105.391 446.367 105.138 446.581 104.924C446.795 104.711 447.049 104.541 447.328 104.426C447.607 104.311 447.907 104.251 448.209 104.252H481.281C481.583 104.251 481.882 104.311 482.162 104.426C482.441 104.541 482.695 104.711 482.909 104.924C483.123 105.138 483.292 105.391 483.408 105.67C483.524 105.95 483.584 106.249 483.584 106.551C483.584 106.853 483.524 107.153 483.408 107.432C483.292 107.711 483.123 107.965 482.909 108.178C482.695 108.392 482.441 108.561 482.162 108.676C481.882 108.792 481.583 108.851 481.281 108.85Z" fill="#E4E4E4"/>
<path d="M505.517 134.382H423.48V183.568H505.517V134.382Z" fill="#F0F0F0"/>
<path d="M489.15 206.164H440.338C439.728 206.164 439.144 205.921 438.712 205.49C438.281 205.059 438.039 204.474 438.039 203.865C438.039 203.255 438.281 202.67 438.712 202.239C439.144 201.808 439.728 201.565 440.338 201.565H489.15C489.76 201.565 490.344 201.808 490.776 202.239C491.207 202.67 491.449 203.255 491.449 203.865C491.449 204.474 491.207 205.059 490.776 205.49C490.344 205.921 489.76 206.164 489.15 206.164Z" fill="#E4E4E4"/>
<path d="M481.281 198.294H448.209C447.599 198.294 447.015 198.051 446.584 197.62C446.152 197.189 445.91 196.604 445.91 195.994C445.91 195.385 446.152 194.8 446.584 194.369C447.015 193.938 447.599 193.695 448.209 193.695H481.281C481.891 193.695 482.475 193.938 482.907 194.369C483.338 194.8 483.58 195.385 483.58 195.994C483.58 196.604 483.338 197.189 482.907 197.62C482.475 198.051 481.891 198.294 481.281 198.294Z" fill="#E4E4E4"/>
<path d="M381.413 79.4254H133.783C133.174 79.4254 132.589 79.1831 132.158 78.752C131.727 78.3208 131.484 77.736 131.484 77.1263C131.484 76.5165 131.727 75.9317 132.158 75.5005C132.589 75.0694 133.174 74.8271 133.783 74.8271H381.413C382.023 74.8271 382.608 75.0694 383.039 75.5005C383.47 75.9317 383.712 76.5165 383.712 77.1263C383.712 77.736 383.47 78.3208 383.039 78.752C382.608 79.1831 382.023 79.4254 381.413 79.4254Z" fill="#525252"/>
<path d="M381.413 96.8433H133.783C133.174 96.8433 132.589 96.6011 132.158 96.1699C131.727 95.7388 131.484 95.154 131.484 94.5442C131.484 93.9345 131.727 93.3497 132.158 92.9185C132.589 92.4873 133.174 92.2451 133.783 92.2451H381.413C382.023 92.2451 382.608 92.4873 383.039 92.9185C383.47 93.3497 383.712 93.9345 383.712 94.5442C383.712 95.154 383.47 95.7388 383.039 96.1699C382.608 96.6011 382.023 96.8433 381.413 96.8433Z" fill="#525252"/>
<path d="M381.413 114.263H133.783C133.174 114.263 132.589 114.021 132.158 113.59C131.727 113.159 131.484 112.574 131.484 111.964C131.484 111.354 131.727 110.77 132.158 110.338C132.589 109.907 133.174 109.665 133.783 109.665H381.413C382.023 109.665 382.608 109.907 383.039 110.338C383.47 110.77 383.712 111.354 383.712 111.964C383.712 112.574 383.47 113.159 383.039 113.59C382.608 114.021 382.023 114.263 381.413 114.263Z" fill="#525252"/>
<path d="M381.413 131.682H133.783C133.174 131.682 132.589 131.44 132.158 131.009C131.727 130.578 131.484 129.993 131.484 129.383C131.484 128.773 131.727 128.189 132.158 127.757C132.589 127.326 133.174 127.084 133.783 127.084H381.413C382.023 127.084 382.608 127.326 383.039 127.757C383.47 128.189 383.712 128.773 383.712 129.383C383.712 129.993 383.47 130.578 383.039 131.009C382.608 131.44 382.023 131.682 381.413 131.682Z" fill="#525252"/>
<path d="M381.413 166.52H133.783C133.174 166.52 132.589 166.278 132.158 165.847C131.727 165.416 131.484 164.831 131.484 164.221C131.484 163.611 131.727 163.026 132.158 162.595C132.589 162.164 133.174 161.922 133.783 161.922H381.413C382.023 161.922 382.608 162.164 383.039 162.595C383.47 163.026 383.712 163.611 383.712 164.221C383.712 164.831 383.47 165.416 383.039 165.847C382.608 166.278 382.023 166.52 381.413 166.52Z" fill="#525252"/>
<path d="M381.413 183.939H133.783C133.174 183.939 132.589 183.697 132.158 183.266C131.727 182.834 131.484 182.25 131.484 181.64C131.484 181.03 131.727 180.445 132.158 180.014C132.589 179.583 133.174 179.341 133.783 179.341H381.413C382.023 179.341 382.608 179.583 383.039 180.014C383.47 180.445 383.712 181.03 383.712 181.64C383.712 182.25 383.47 182.834 383.039 183.266C382.608 183.697 382.023 183.939 381.413 183.939Z" fill="#525252"/>
<path d="M340.507 61.9439H174.69C174.387 61.9444 174.088 61.8853 173.809 61.77C173.529 61.6547 173.275 61.4854 173.061 61.2718C172.848 61.0583 172.678 60.8047 172.562 60.5255C172.446 60.2463 172.387 59.947 172.387 59.6448C172.387 59.3426 172.446 59.0433 172.562 58.7641C172.678 58.4849 172.848 58.2313 173.061 58.0178C173.275 57.8042 173.529 57.635 173.809 57.5196C174.088 57.4043 174.387 57.3452 174.69 57.3457H340.507C340.809 57.3452 341.108 57.4043 341.388 57.5196C341.667 57.635 341.921 57.8042 342.135 58.0178C342.349 58.2313 342.518 58.4849 342.634 58.7641C342.75 59.0433 342.81 59.3426 342.81 59.6448C342.81 59.947 342.75 60.2463 342.634 60.5255C342.518 60.8047 342.349 61.0583 342.135 61.2718C341.921 61.4854 341.667 61.6547 341.388 61.77C341.108 61.8853 340.809 61.9444 340.507 61.9439Z" fill="#525252"/>
<path d="M404.04 277.979H408.827L411.105 259.513L404.039 259.513L404.04 277.979Z" fill="#FFB6B6"/>
<path d="M402.82 276.415L412.249 276.415H412.249C413.843 276.415 415.371 277.048 416.498 278.175C417.624 279.302 418.257 280.83 418.258 282.423V282.619L402.821 282.619L402.82 276.415Z" fill="#2F2E41"/>
<path d="M379.572 277.979H384.359L386.636 259.513L379.57 259.513L379.572 277.979Z" fill="#FFB6B6"/>
<path d="M378.352 276.415L387.78 276.415H387.78C389.374 276.415 390.902 277.048 392.029 278.175C393.156 279.302 393.789 280.83 393.789 282.423V282.619L378.352 282.619L378.352 276.415Z" fill="#2F2E41"/>
<path d="M435.478 72.2008C435.479 71.3972 435.301 70.6036 434.958 69.877C434.615 69.1503 434.115 68.5088 433.494 67.9984C432.874 67.488 432.147 67.1216 431.368 66.9254C430.589 66.7291 429.776 66.7081 428.988 66.8636C428.199 67.0192 427.455 67.3475 426.809 67.825C426.163 68.3026 425.63 68.9174 425.25 69.6252C424.87 70.3331 424.651 71.1165 424.61 71.9189C424.569 72.7214 424.706 73.5231 425.011 74.2663L414.009 91.6731L407.16 105.476L412.812 110.492L417.162 105.915L431.387 77.4636C432.557 77.1652 433.593 76.486 434.334 75.5331C435.075 74.5802 435.477 73.4078 435.478 72.2008Z" fill="#FFB6B6"/>
<path d="M378.378 129.295L367.594 127.624L365.024 147.134L351.028 177.254C350.115 177.823 349.391 178.65 348.948 179.63C348.505 180.611 348.362 181.7 348.538 182.761C348.714 183.823 349.201 184.808 349.937 185.593C350.673 186.377 351.625 186.926 352.672 187.17C353.72 187.414 354.817 187.341 355.823 186.962C356.83 186.583 357.702 185.914 358.328 185.039C358.955 184.165 359.308 183.124 359.343 182.049C359.378 180.974 359.094 179.912 358.526 178.998L373.16 152.572L378.378 129.295Z" fill="#FFB6B6"/>
<path d="M384.357 161.799C384.357 161.799 374.873 170.568 376.078 192.619L378.735 226.683L378.065 274.168L387.806 273.402L396.316 193.824L404.472 226.451L401.544 269.913L410.927 270.131L420.786 221.013L418.449 184.604L414.524 161.799H384.357Z" fill="#2F2E41"/>
<path d="M394.501 110.446L371.844 116.79L383.364 151.307L381.642 164.512L416.577 164.738L408.486 139.216C408.486 139.216 413.026 129.879 407.842 123.335L394.501 110.446Z" fill="#2368FF"/>
<path d="M391.781 115.883L394.5 110.445C394.5 110.445 394.412 109.079 400.8 108.403L408.296 100.953L415.156 107.791L403.563 124.946L391.781 115.883Z" fill="#2368FF"/>
<path d="M380.906 121.321C380.906 121.321 372.749 112.258 368.218 116.789C363.686 121.321 366.01 135.73 366.01 135.73L380.124 137.92L380.906 121.321Z" fill="#2368FF"/>
<path d="M385.047 86.4834C398.938 86.5457 398.936 107.666 385.046 107.727C371.156 107.664 371.157 86.5438 385.047 86.4834Z" fill="#FFB6B6"/>
<path d="M386.59 96.4038C388.467 97.5095 390.418 98.6404 392.585 98.8776C394.751 99.1147 397.203 98.203 398.072 96.2048C398.344 95.5124 398.488 94.7766 398.498 94.0329C398.688 90.2378 397.375 86.5206 394.843 83.6874C393.572 82.2986 392.017 81.2002 390.283 80.4672C388.549 79.7341 386.678 79.3835 384.796 79.4394C381.207 79.5954 377.89 81.2944 374.705 82.9565C371.776 84.4851 368.684 86.1693 367.092 89.0646C364.734 93.3548 366.453 98.6073 366.911 103.481C367.232 107.116 366.818 110.778 365.693 114.249C364.568 117.719 362.756 120.928 360.363 123.683L380.127 125.555C382.532 125.783 384.985 126.008 387.343 125.482C389.377 125.028 391.25 124.03 392.763 122.597C394.276 121.163 395.372 119.346 395.934 117.339C396.497 115.332 396.505 113.21 395.958 111.199C395.411 109.188 394.33 107.362 392.828 105.917C390.023 103.216 385.511 101.304 385.4 97.4115" fill="#2F2E41"/>
<path d="M533.883 277.537H528.639L526.145 257.312H533.883L533.883 277.537Z" fill="#9F616A"/>
<path d="M535.22 282.619L518.312 282.619V282.405C518.313 280.66 519.006 278.986 520.24 277.752C521.474 276.518 523.148 275.824 524.893 275.824H524.894L535.22 275.825L535.22 282.619Z" fill="#2F2E41"/>
<path d="M582.641 277.537H577.397L574.902 257.312H582.641L582.641 277.537Z" fill="#9F616A"/>
<path d="M583.978 282.619L567.07 282.619V282.405C567.07 280.66 567.764 278.986 568.998 277.752C570.232 276.518 571.906 275.824 573.651 275.824H573.652L583.978 275.825L583.978 282.619Z" fill="#2F2E41"/>
<path d="M531.791 174.899C531.791 174.899 527.389 186.846 528.018 191.876C528.647 196.906 523.617 232.116 524.246 235.26C524.874 238.404 523.617 254.123 524.246 256.638C524.874 259.153 522.481 262.157 523.738 264.672C524.996 267.187 526.761 272.357 526.761 272.357L534.934 271.728L536.192 264.812C536.192 264.812 539.965 264.183 539.336 260.411C538.707 256.638 542.48 231.488 542.48 231.488L553.168 196.277L568.259 228.344C568.259 228.344 568.887 250.979 570.774 253.494C572.66 256.009 568.887 262.926 570.774 265.441C572.66 267.956 574.546 272.357 574.546 272.357H583.978V267.327C583.978 267.327 589.637 264.183 583.978 254.752L580.154 198.112L576.381 172.333L531.791 174.899Z" fill="#2F2E41"/>
<path d="M555.232 95.837C561.718 95.837 566.976 90.5792 566.976 84.0933C566.976 77.6074 561.718 72.3496 555.232 72.3496C548.746 72.3496 543.488 77.6074 543.488 84.0933C543.488 90.5792 548.746 95.837 555.232 95.837Z" fill="#A0616A"/>
<path d="M545.238 83.2841C546.067 85.4013 546.896 87.5185 547.724 89.6357C548.743 92.2385 549.91 95.0232 552.298 96.4758C555.246 98.2692 559.183 97.3947 562.036 95.452C564.601 93.7046 566.57 91.2142 567.678 88.315C568.787 85.4159 568.982 82.247 568.236 79.234C567.491 76.221 565.842 73.5081 563.51 71.4598C561.178 69.4115 558.275 68.1259 555.191 67.7756L555.073 69.9015L552.464 67.7148C552.272 68.0459 552.006 68.3289 551.688 68.5427C551.37 68.7564 551.008 68.8953 550.628 68.949C550.249 69.0026 549.862 68.9696 549.498 68.8524C549.133 68.7353 548.799 68.5369 548.522 68.2724C549.207 69.6928 548.417 71.4252 547.274 72.5134C545.871 73.8501 541.858 75.4566 542.025 77.8462C542.136 79.4409 544.591 81.6315 545.238 83.2841Z" fill="#2F2E41"/>
<path d="M587.557 192.27C587.962 191.666 588.229 190.981 588.341 190.262C588.452 189.544 588.404 188.81 588.201 188.112C587.998 187.414 587.644 186.769 587.165 186.222C586.685 185.676 586.092 185.241 585.426 184.949L585.661 173.588L578.792 171.762L578.686 187.81C578.269 188.961 578.288 190.224 578.741 191.362C579.193 192.499 580.047 193.431 581.141 193.98C582.234 194.53 583.491 194.66 584.674 194.344C585.856 194.029 586.882 193.291 587.557 192.27V192.27Z" fill="#9F616A"/>
<path d="M563.953 103.096C563.953 103.096 554.852 98.5454 546.257 101.579C537.662 104.612 533.112 108.151 533.112 108.151L538.674 137.475L531.09 176.91C531.09 176.91 570.019 173.877 573.559 176.91C577.098 179.944 577.098 173.371 577.098 173.371L574.064 135.958L579.626 112.196L563.953 103.096Z" fill="#3F3D56"/>
<path d="M525.545 192.942C526.103 192.476 526.552 191.893 526.861 191.235C527.169 190.577 527.33 189.859 527.331 189.132C527.332 188.405 527.173 187.687 526.866 187.028C526.56 186.369 526.112 185.785 525.556 185.317L528.97 174.479L522.89 170.798L518.283 186.171C517.56 187.158 517.224 188.376 517.339 189.595C517.453 190.813 518.011 191.947 518.907 192.782C519.802 193.617 520.972 194.094 522.196 194.124C523.419 194.153 524.611 193.733 525.545 192.942Z" fill="#9F616A"/>
<path d="M536.651 108.152H533.112C533.112 108.152 527.55 111.691 527.55 116.747C527.55 121.803 519.461 180.956 519.461 180.956L528.056 182.472L535.639 141.015L541.201 129.892L536.651 108.152Z" fill="#3F3D56"/>
<path d="M570.023 112.196H579.629C579.629 112.196 582.663 115.23 584.18 122.308C585.696 129.386 587.213 157.193 587.213 157.193L586.202 182.472H578.618L577.607 149.609L572.551 128.375L570.023 112.196Z" fill="#3F3D56"/>
<path d="M124.746 145.84C124.503 145.958 124.27 146.094 124.049 146.248L101.56 137.457L100.668 131.659L91.7422 131.861L92.3228 142.278C92.3697 143.12 92.6884 143.924 93.2309 144.569C93.7735 145.214 94.5106 145.666 95.3317 145.856L122.093 152.064C122.419 153.049 123.038 153.911 123.867 154.536C124.696 155.161 125.695 155.518 126.732 155.561C127.769 155.604 128.795 155.33 129.673 154.776C130.55 154.222 131.238 153.414 131.645 152.459C132.052 151.504 132.159 150.448 131.951 149.431C131.743 148.414 131.231 147.485 130.482 146.766C129.733 146.048 128.783 145.574 127.758 145.409C126.733 145.243 125.683 145.394 124.746 145.84H124.746Z" fill="#9F616A"/>
<path d="M90.9778 276.833L96.9471 276.832L99.7864 253.809H90.9766L90.9778 276.833Z" fill="#9F616A"/>
<path d="M89.457 274.884L101.213 274.884H101.213C103.2 274.884 105.105 275.673 106.51 277.078C107.915 278.483 108.705 280.388 108.705 282.375V282.619L89.4574 282.619L89.457 274.884Z" fill="#2F2E41"/>
<path d="M62.2506 276.833L68.2199 276.832L71.0599 253.809H62.25L62.2506 276.833Z" fill="#9F616A"/>
<path d="M60.7305 274.884L72.4861 274.884H72.4866C74.4734 274.884 76.3789 275.673 77.7838 277.078C79.1887 278.483 79.9781 280.388 79.9782 282.375V282.619L60.7308 282.619L60.7305 274.884Z" fill="#2F2E41"/>
<path d="M65.7127 101.291C64.0127 94.2719 62.5724 86.3549 65.7785 79.8901C68.003 75.4045 76.2324 73.8939 80.9498 75.5099C85.6673 77.1259 89.078 81.5102 90.578 86.2905C92.0781 91.0707 91.9038 96.2218 91.25 101.191C82.574 101.025 73.898 100.858 65.7127 101.291Z" fill="#2F2E41"/>
<path d="M80.3554 101.289C85.9429 101.289 90.4725 96.7594 90.4725 91.1718C90.4725 85.5843 85.9429 81.0547 80.3554 81.0547C74.7679 81.0547 70.2383 85.5843 70.2383 91.1718C70.2383 96.7594 74.7679 101.289 80.3554 101.289Z" fill="#9F616A"/>
<path d="M67.9866 89.0872C67.9545 87.3844 68.2649 85.6926 68.8995 84.1121C69.5341 82.5317 70.4799 81.095 71.6807 79.8873C72.8815 78.6796 74.3128 77.7256 75.8896 77.082C77.4664 76.4384 79.1564 76.1183 80.8593 76.1408C82.5623 76.1632 84.2433 76.5277 85.8026 77.2127C87.3618 77.8976 88.7675 78.889 89.9361 80.1279C91.1046 81.3669 92.0122 82.828 92.6049 84.4246C93.1976 86.0213 93.4633 87.7207 93.3863 89.422C84.7268 89.4404 76.0673 89.4588 67.9866 89.0872Z" fill="#2F2E41"/>
<path d="M71.959 138.614L67.7278 145.666C67.7278 145.666 56.1402 167.399 56.8294 185.414L59.3937 207.852L56.5795 213.358L58.4632 223.046L54.9648 229.986L61.2889 263.489L61.5579 270.755H71.784L71.2458 263.355L75.5515 230.715L82.8174 195.866L86.5849 225.949L85.2394 233.484L86.9885 239.808L89.4105 259.318L89.6796 268.737L98.9638 269.813L102.462 234.964L104.48 218.336L93.664 144.612L71.959 138.614Z" fill="#2F2E41"/>
<path d="M70.6144 104.564L64.3152 107.24L60.7773 121.882L68.2265 140.959L65.4417 150.491C73.8713 164.91 84.3051 167.005 96.5828 157.758C93.9843 150.462 94.3597 142.961 96.9492 135.305C96.9492 135.305 103.408 129.291 98.8961 121.472L94.5924 109.79L89.264 107.126L70.6144 104.564Z" fill="#CBCBCB"/>
<path d="M93.3516 112.337L94.7816 109.682C94.7816 109.682 98.5528 110.249 100.093 114.789C101.633 119.329 102.034 137.669 102.034 137.669L93.9644 138.077L93.3516 112.337Z" fill="#CBCBCB"/>
<path d="M290.37 112.123L50.5753 173.922C49.9858 174.072 49.361 173.982 48.8377 173.672C48.3145 173.361 47.9355 172.857 47.7837 172.268C47.6319 171.679 47.7197 171.053 48.0278 170.529C48.336 170.005 48.8394 169.624 49.4278 169.47L289.222 107.67C289.515 107.594 289.82 107.576 290.119 107.618C290.419 107.659 290.707 107.76 290.968 107.913C291.229 108.066 291.457 108.27 291.639 108.511C291.821 108.753 291.953 109.028 292.029 109.321C292.104 109.614 292.121 109.919 292.079 110.218C292.036 110.518 291.935 110.806 291.781 111.066C291.627 111.327 291.423 111.554 291.181 111.735C290.938 111.917 290.663 112.048 290.37 112.123Z" fill="#2368FF"/>
<path d="M61.7417 174.584C62.4263 174.243 63.0279 173.757 63.504 173.158C63.9802 172.56 64.3194 171.865 64.4977 171.121C64.6761 170.378 64.6892 169.604 64.5362 168.855C64.3832 168.105 64.0678 167.399 63.6121 166.785L67.5234 128.544H59.0708L55.9625 165.884C54.9815 166.718 54.3405 167.883 54.1608 169.157C53.9812 170.432 54.2754 171.729 54.9878 172.801C55.7002 173.873 56.7812 174.647 58.026 174.976C59.2707 175.305 60.5928 175.165 61.7417 174.584V174.584Z" fill="#9F616A"/>
<path d="M69.4641 111.565L66.502 107.377C66.502 107.377 61.2927 103.845 58.637 111.973C55.9812 120.101 56.3898 135.16 56.3898 135.16L66.502 139.348L69.4641 111.565Z" fill="#CBCBCB"/>
<path d="M229.452 283H0.600659C0.441354 283 0.288574 282.937 0.175928 282.824C0.063283 282.712 0 282.559 0 282.399C0 282.24 0.063283 282.087 0.175928 281.975C0.288574 281.862 0.441354 281.799 0.600659 281.799H229.452C229.611 281.799 229.764 281.862 229.876 281.975C229.989 282.087 230.052 282.24 230.052 282.399C230.052 282.559 229.989 282.712 229.876 282.824C229.764 282.937 229.611 283 229.452 283Z" fill="#CACACA"/>
<path d="M589.846 283H360.995C360.836 283 360.683 282.937 360.57 282.824C360.458 282.712 360.395 282.559 360.395 282.399C360.395 282.24 360.458 282.087 360.57 281.975C360.683 281.862 360.836 281.799 360.995 281.799H589.846C590.005 281.799 590.158 281.862 590.271 281.975C590.384 282.087 590.447 282.24 590.447 282.399C590.447 282.559 590.384 282.712 590.271 282.824C590.158 282.937 590.005 283 589.846 283Z" fill="#CACACA"/>
</svg>
