<svg width="434" height="329" viewBox="0 0 434 329" fill="none" xmlns="http://www.w3.org/2000/svg">
<path d="M282.944 134.642C281.995 134.778 281.029 134.706 280.112 134.429C279.194 134.152 278.349 133.677 277.635 133.038C276.921 132.399 276.356 131.612 275.98 130.731C275.603 129.85 275.424 128.897 275.455 127.94L253.715 119.585L263.558 112.544L282.694 121.557C284.299 121.716 285.791 122.459 286.885 123.645C287.979 124.83 288.601 126.376 288.632 127.989C288.662 129.602 288.1 131.17 287.052 132.396C286.003 133.623 284.541 134.422 282.943 134.642L282.944 134.642Z" fill="#FFB7B7"/>
<path d="M270.522 128.649L273.916 116.675L273.749 116.561L241.953 94.9623L214.468 67.3838L198.457 73.7806L199.508 78.8482L199.577 78.9104L236.12 111.642L236.154 111.658L270.522 128.649Z" fill="#E6E7E8"/>
<path d="M237.95 155.998L188.742 149.1L193.073 118.906H229.301L237.95 155.998Z" fill="#FFB6B6"/>
<path d="M154.336 303.851L164.43 306.197L178.281 268.379L163.384 264.917L154.336 303.851Z" fill="#FFB6B6"/>
<path d="M144.945 320.102L152.184 321.784L155.064 315.25L156.785 322.854L175.985 327.315C176.905 327.529 177.869 327.443 178.738 327.07C179.606 326.697 180.332 326.056 180.81 325.241C181.288 324.426 181.493 323.48 181.395 322.54C181.297 321.6 180.901 320.717 180.265 320.018L167.394 305.866L169 298.957L152.65 296.172L144.945 320.102Z" fill="#2F2E41"/>
<path d="M216.621 309.476H226.984L231.916 269.504H216.621V309.476Z" fill="#FFB6B6"/>
<path d="M211.152 327.431H218.584L219.911 320.414L223.308 327.431H243.019C243.964 327.431 244.884 327.129 245.645 326.569C246.406 326.009 246.968 325.221 247.249 324.319C247.53 323.417 247.516 322.448 247.208 321.555C246.9 320.662 246.314 319.891 245.536 319.354L229.796 308.483V301.39L213.24 302.378L211.152 327.431Z" fill="#2F2E41"/>
<path d="M188.119 143.976L236.242 140.148C250.443 173.321 241.413 226.277 230.5 285.89L215.022 287.891L213.821 192.1L175.019 281.214L158.887 280.39L188.119 143.976Z" fill="#2F2E41"/>
<path d="M216.129 56.6243V40.3435C216.131 37.4776 215.568 34.6396 214.472 31.9915C213.376 29.3434 211.769 26.9372 209.744 24.9102C207.718 22.8833 205.312 21.2753 202.665 20.1783C200.017 19.0812 197.179 18.5166 194.313 18.5166C191.448 18.5166 188.61 19.0812 185.962 20.1783C183.315 21.2753 180.909 22.8833 178.883 24.9102C176.857 26.9372 175.251 29.3434 174.155 31.9915C173.059 34.6396 172.496 37.4776 172.498 40.3435C168.652 48.3559 171.058 52.1653 172.498 56.6243C172.499 57.4007 172.808 58.145 173.357 58.6941C173.906 59.2431 174.65 59.5521 175.427 59.5534H213.199C213.975 59.5525 214.72 59.2436 215.27 58.6946C215.819 58.1455 216.128 57.401 216.129 56.6243Z" fill="#2F2E41"/>
<path d="M199.698 59.308C208.532 59.308 215.693 52.1469 215.693 43.3132C215.693 34.4795 208.532 27.3184 199.698 27.3184C190.864 27.3184 183.703 34.4795 183.703 43.3132C183.703 52.1469 190.864 59.308 199.698 59.308Z" fill="#FFB7B7"/>
<path d="M221.29 41.6459C221.285 37.0705 219.465 32.6841 216.23 29.4489C212.995 26.2136 208.608 24.3938 204.033 24.3887H200.777C196.201 24.3938 191.815 26.2137 188.58 29.4489C185.344 32.6841 183.525 37.0705 183.52 41.6459V41.9716C185.958 43.6388 188.273 43.8826 190.401 41.9716L192.748 35.3997L193.217 41.9716H196.774L197.96 38.656L198.197 41.9716C203.001 46.063 212.086 44.1024 221.29 41.9716L221.29 41.6459Z" fill="#2F2E41"/>
<path d="M190.374 127.731L231.098 126.181L233.375 99.5392C235.13 94.6627 235.159 90.4726 233.459 87.0942C231.997 84.3173 229.541 82.1945 226.582 81.1501L217.671 70.3873C216.524 69.004 215.085 67.8926 213.457 67.1335C211.829 66.3744 210.052 65.9864 208.255 65.9977L185.101 66.156C184.543 65.8206 181.158 64.1 174.481 66.9929C167.24 70.1314 168.921 81.035 168.939 81.1445L168.956 81.247L169.036 81.3167L184.436 94.2889L190.374 127.731Z" fill="#E6E7E8"/>
<path d="M0.683261 328.115H409.585C409.767 328.115 409.94 328.043 410.069 327.914C410.197 327.786 410.269 327.613 410.269 327.431C410.269 327.25 410.197 327.076 410.069 326.948C409.94 326.82 409.767 326.748 409.585 326.748H0.683261C0.50205 326.748 0.328263 326.82 0.200128 326.948C0.0719922 327.076 0 327.25 0 327.431C0 327.613 0.0719922 327.786 0.200128 327.914C0.328263 328.043 0.50205 328.115 0.683261 328.115Z" fill="#CCCCCC"/>
<path d="M298.411 166.4C298.38 181.92 292.545 196.868 282.052 208.304C271.56 219.741 257.168 226.838 241.708 228.202C226.247 229.565 210.836 225.096 198.504 215.673C186.171 206.249 177.81 192.554 175.063 177.278C172.317 162.003 175.384 146.252 183.662 133.123C191.939 119.994 204.829 110.437 219.796 106.33C234.763 102.222 250.725 103.862 264.544 110.928C278.364 117.993 289.04 129.972 294.475 144.51C294.611 144.875 294.743 145.24 294.871 145.608V145.612C295.445 147.232 295.95 148.882 296.387 150.563C297.735 155.734 298.415 161.056 298.411 166.4Z" fill="#3F3D56"/>
<path d="M228.98 124.176C226.167 122.655 223.045 121.797 219.85 121.666C216.655 121.535 213.473 122.136 210.546 123.422C207.968 124.544 205.254 126.556 204.395 130.19C207.872 128.137 212.374 131.38 213.268 136.582L213.06 136.639C212.587 140.242 213.642 144.165 215.685 146.399C215.837 145.391 216.211 144.429 216.781 143.584C217.351 142.739 218.102 142.031 218.979 141.512C220.48 140.526 222.141 139.809 223.286 138.113C224.644 136.103 224.989 133.165 225.529 130.484C226.068 127.804 227.091 124.923 228.98 124.176Z" fill="#2368FF"/>
<path d="M209.516 154.836C208.553 156.283 207.267 157.19 206.112 158.32C204.78 159.532 203.906 161.166 203.637 162.948C203.491 164.206 203.717 165.486 203.686 166.758C203.654 168.031 203.23 169.463 202.364 169.78C200.998 170.273 199.955 167.735 198.55 167.558C197.434 167.419 196.429 169.175 196.753 170.698C197.076 172.22 198.595 172.895 199.468 171.901C200.257 173.225 199.701 175.628 198.515 176.034C198.39 176.869 198.265 177.7 198.143 178.534C195.146 176.438 192.118 174.307 189.57 171.236C186.735 167.851 184.977 163.696 184.521 159.304C184.191 155.775 184.681 151.738 183.061 149.023C181.764 146.85 179.539 146.37 177.536 146.506C177.171 146.53 176.803 146.572 176.438 146.617C177.619 143.07 179.119 139.637 180.919 136.36C181.327 136.185 181.705 135.95 182.042 135.661C183.906 134.079 184.733 130.877 186.246 128.662C186.343 128.52 186.444 128.381 186.548 128.245C188.095 126.225 190.168 125.186 192.17 124.219C196.603 122.067 201.165 119.887 205.845 120.186L204.513 120.314C202.959 124.667 201.404 129.021 199.847 133.374C199.611 134.041 199.372 134.71 199.131 135.38C198.248 137.855 197.337 140.491 197.472 143.262C197.552 144.903 198.123 146.655 199.207 147.218C200.219 147.74 201.325 147.1 202.302 146.467C202.715 146.203 203.126 145.939 203.539 145.671C205.024 144.715 206.669 143.735 208.237 144.374C209.673 144.958 210.733 146.909 210.935 149.012C211.12 151.057 210.621 153.105 209.516 154.836Z" fill="#2368FF"/>
<path d="M218.344 184.556C214.008 181.886 209.672 179.217 205.336 176.547L205.41 176.357C202.714 177.384 201.595 182.176 202.04 186.095C202.486 190.014 203.997 193.518 204.76 197.336C205.789 202.562 205.401 207.967 203.635 212.992C209.337 206.595 214.382 199.642 218.697 192.237C219.299 191.304 219.759 190.286 220.059 189.216C220.377 188.077 220.264 186.86 219.741 185.798C219.386 185.275 218.906 184.848 218.344 184.556Z" fill="#2368FF"/>
<path d="M201.233 135.986C200.724 137.079 200.646 138.324 201.014 139.473C201.442 140.398 202.218 141.117 203.173 141.472L205.569 142.66C206.366 143.055 207.225 143.454 208.037 143.129C209.017 142.737 209.697 141.201 209.521 139.774C209.334 138.257 208.377 137.212 207.493 136.323C206.254 135.079 205.016 133.835 203.778 132.591L203.08 133.446C202.325 134.182 201.701 135.041 201.233 135.986Z" fill="#2368FF"/>
<path d="M285.571 152.212C286.649 152.466 287.726 152.72 288.804 152.973C288.616 156.614 286.812 159.983 284.392 161.203C283.384 161.711 282.261 161.898 281.426 162.848C280.672 163.71 280.289 165.052 279.938 166.335C279.323 168.574 278.707 170.813 278.092 173.052C277.431 175.465 276.583 178.146 274.865 179.015C273.391 179.762 271.705 178.848 270.572 177.315C269.438 175.782 268.746 173.72 268.075 171.71C268.117 173.901 267.098 176.049 265.655 176.811C264.209 177.572 262.45 176.884 261.483 175.184C260.788 173.963 260.499 172.353 259.818 171.116C259.136 169.878 257.707 169.169 256.963 170.33C256.473 171.102 256.535 172.284 256.292 173.264C256.17 173.915 255.847 174.512 255.37 174.971C254.893 175.43 254.284 175.729 253.629 175.827C253.026 175.813 252.433 175.677 251.885 175.426C251.337 175.176 250.845 174.816 250.441 174.37C248.311 172.192 246.925 169.397 246.48 166.384C246.179 164.939 246.217 163.444 246.592 162.017C247.019 160.664 248.052 159.621 249.078 159.878C249.752 158.453 248.421 156.562 247.221 156.728C246.018 156.895 245.076 158.185 244.088 159.176C243.105 160.167 241.728 160.887 240.737 159.903C240.759 160.263 240.637 160.617 240.398 160.887C240.16 161.157 239.823 161.321 239.463 161.343C239.428 161.346 239.392 161.346 239.356 161.346C238.698 161.157 238.085 160.832 237.559 160.393C235.289 158.978 232.406 159.917 230.793 162.594C231.801 158.303 233.279 153.38 236.377 152.372C237.642 151.958 239.023 152.299 240.219 151.583C242.336 150.314 242.764 145.519 240.935 143.541C241.168 145.411 241.123 147.595 240.135 148.874C239.148 150.154 237.076 149.319 237.201 147.428C237.173 147.694 237.061 147.944 236.882 148.143C236.703 148.342 236.466 148.479 236.204 148.534C235.942 148.59 235.67 148.561 235.425 148.452C235.181 148.343 234.977 148.16 234.844 147.929C234.186 146.927 234.242 145.29 234.708 144.094C235.188 143.01 235.877 142.032 236.735 141.215C238.386 139.445 240.062 137.654 241.975 136.542C243.89 135.429 246.102 135.054 248.021 136.159C249.033 136.744 249.923 137.717 250.955 138.232C251.198 138.382 251.468 138.483 251.75 138.53C252.032 138.576 252.32 138.566 252.598 138.501C252.876 138.436 253.138 138.317 253.37 138.15C253.602 137.984 253.799 137.773 253.95 137.53C253.961 137.512 253.973 137.493 253.984 137.474C254.752 136.125 254.39 134.122 254.676 132.436C255.187 129.456 258.166 128.062 259.818 130.03C258.584 129.713 257.307 131.174 257.154 132.943C256.998 134.713 257.892 136.5 259.088 137.036C261.097 137.926 263.065 135.687 264.585 133.614C266.17 131.445 267.758 129.276 269.348 127.109C269.602 126.74 269.887 126.394 270.2 126.073C270.698 125.588 271.361 125.31 272.057 125.295C272.752 125.281 273.427 125.532 273.944 125.997C275.55 127.307 276.305 129.995 277.623 131.845C279.535 134.532 282.396 135.186 285.06 135.707C287.045 136.093 289.031 136.482 291.019 136.872C292.344 139.337 293.5 141.889 294.478 144.511C290.834 146.173 287.742 148.846 285.571 152.212Z" fill="#2368FF"/>
<path d="M296.388 150.563C295.981 151.764 295.758 153.02 295.728 154.287C294.024 152.208 293.753 148.31 294.872 145.612C295.446 147.233 295.951 148.883 296.388 150.563Z" fill="#2368FF"/>
<path d="M291.988 194.045C290.498 197.069 288.766 199.968 286.807 202.712C285.556 202.177 284.21 203.133 283.039 204.03C281.815 204.969 280.344 205.883 279.089 205.028C277.806 204.152 277.392 201.701 277.799 199.757C278.266 197.964 279.084 196.282 280.205 194.806C281.248 193.248 282.364 191.632 283.814 191.027C285.267 190.422 287.134 191.277 287.558 193.342L288.588 193.308C288.01 192.515 288.313 190.874 289.088 190.585C289.982 190.248 290.757 191.475 291.286 192.56C291.522 193.05 291.762 193.544 291.988 194.045Z" fill="#2368FF"/>
<path d="M252.57 179.359C250.358 179.498 248.606 176.775 247.441 174.096C246.277 171.417 245.214 168.353 243.218 166.99C242.078 166.21 240.778 166.103 239.541 165.726C238.839 165.549 238.19 165.207 237.647 164.729C237.104 164.25 236.682 163.65 236.418 162.976L235.014 162.409C233.051 163.39 231.254 164.672 229.687 166.208C227.896 168.11 226.78 170.549 226.512 173.148C226.244 175.957 227.234 179.089 229.083 180.144C230.545 180.978 232.246 180.452 233.727 181.215C235.576 182.169 236.674 184.939 237.09 187.674C237.505 190.409 237.4 193.251 237.697 196.017C237.995 198.784 238.814 201.662 240.51 203.079C242.633 204.853 245.747 203.379 246.7 200.15C247.167 198.566 247.151 196.779 247.5 195.135C248.115 192.239 249.776 190.091 251.092 187.716C252.409 185.341 253.446 182.115 252.57 179.359Z" fill="#2368FF"/>
<path d="M230.713 150.908C230.919 151.097 231.111 151.302 231.289 151.519C231.472 151.835 231.566 152.196 231.559 152.561C231.553 152.927 231.447 153.284 231.253 153.594C231.52 153.579 231.78 153.508 232.018 153.387C232.256 153.267 232.466 153.098 232.636 152.891C233.039 152.431 233.394 151.931 233.695 151.398C233.837 151.216 233.938 151.005 233.992 150.781C234.046 150.556 234.051 150.323 234.008 150.096C233.903 149.798 233.656 149.671 233.483 149.446C233.243 149.008 233.079 148.532 232.998 148.038C232.902 147.576 232.679 147.149 232.354 146.807C232.029 146.464 231.615 146.219 231.158 146.099L231.269 146.12C231.08 146.232 230.931 146.4 230.843 146.601C230.754 146.802 230.731 147.025 230.776 147.24C230.843 147.674 231.122 148.034 231.094 148.477C231.054 149.113 230.418 149.411 230.379 150.048C230.373 150.367 230.493 150.676 230.713 150.908Z" fill="#2368FF"/>
<path d="M226.922 140.095L226.932 140.093C227 140.031 227.063 139.964 227.121 139.892L226.922 140.095Z" fill="#2368FF"/>
<path d="M227.587 143.081C227.853 142.848 228.049 142.546 228.155 142.209C228.261 141.872 228.272 141.512 228.188 141.169C228.027 140.445 227.458 139.959 226.934 140.092C226.781 140.247 226.592 140.36 226.385 140.421C226.177 140.482 225.957 140.49 225.745 140.442C225.421 140.359 225.065 140.144 224.783 140.388C224.622 140.571 224.51 140.791 224.456 141.028C224.352 141.347 224.248 141.667 224.143 141.987C224.094 142.101 224.081 142.228 224.106 142.35C224.126 142.399 224.159 142.442 224.2 142.475C224.241 142.508 224.29 142.529 224.343 142.538C224.967 142.722 225.592 142.906 226.217 143.09C226.432 143.189 226.666 143.24 226.903 143.238C227.14 143.237 227.373 143.183 227.587 143.081Z" fill="#2368FF"/>
<path d="M274.745 184.316C274.456 183.844 274.167 183.371 273.878 182.898C273.595 182.35 273.207 181.864 272.737 181.465C272.635 181.379 272.517 181.315 272.391 181.275C272.264 181.235 272.131 181.221 271.998 181.232C271.866 181.244 271.737 181.282 271.62 181.343C271.502 181.405 271.397 181.489 271.312 181.59L271.297 181.609L271.332 181.879C272.105 182.708 272.632 183.736 272.854 184.848C272.919 185.331 272.897 185.831 272.954 186.316C272.96 186.541 273.011 186.763 273.103 186.968C273.194 187.174 273.326 187.359 273.489 187.514C273.944 187.818 274.478 187.37 274.802 186.823C275.091 186.374 275.221 185.841 275.17 185.31C275.098 184.953 274.953 184.615 274.745 184.316Z" fill="#2368FF"/>
<path d="M279.276 184.931C279.331 184.488 279.295 184.039 279.17 183.611C279.149 183.032 279.303 182.459 279.611 181.968C279.917 181.505 280.149 180.997 280.298 180.462C280.361 180.218 280.349 179.961 280.265 179.724C280.169 179.51 279.938 179.412 279.805 179.582L280.089 179.765C279.705 179.696 279.311 179.715 278.936 179.821C278.722 179.903 278.531 180.035 278.378 180.206C278.226 180.378 278.118 180.584 278.062 180.806C278.015 181.153 277.938 181.495 277.833 181.828C277.663 182.177 277.335 182.293 277.129 182.598C276.988 182.87 276.917 183.171 276.922 183.477C276.927 183.782 277.008 184.082 277.158 184.348C277.417 184.783 277.828 185.107 278.313 185.256C278.66 185.381 279.117 185.387 279.276 184.931Z" fill="#2368FF"/>
<path d="M287.343 187.366C287.468 187.692 287.636 188.001 287.843 188.283C288.229 188.672 288.754 188.433 289.222 188.338C289.647 188.271 290.083 188.32 290.482 188.481C290.882 188.641 291.23 188.906 291.491 189.249C291.31 188.342 290.913 187.493 290.335 186.772C289.757 186.051 289.014 185.479 288.169 185.104C287.072 184.724 285.915 184.543 284.753 184.57L284.555 184.621C285.06 186.092 286.648 186.06 287.343 187.366Z" fill="#2368FF"/>
<path d="M253.176 190.376L253.179 190.382L253.237 190.271L253.176 190.376Z" fill="#2368FF"/>
<path d="M251.952 192.744C251.685 193.229 251.455 193.733 251.265 194.252C251.014 195.094 250.847 195.958 250.768 196.833C250.706 197.331 250.686 197.966 250.998 198.208C251.087 198.267 251.195 198.292 251.302 198.278C251.408 198.263 251.506 198.211 251.576 198.13C251.749 197.946 251.891 197.736 251.995 197.507C252.608 196.452 253.083 195.323 253.41 194.148C253.752 192.902 253.67 191.577 253.179 190.382C252.77 191.169 252.361 191.957 251.952 192.744Z" fill="#2368FF"/>
<path d="M240.146 129.634C240.34 129.824 240.586 129.953 240.853 130.005C241.119 130.057 241.396 130.03 241.647 129.927C242.168 129.699 242.646 129.383 243.06 128.993C243.403 128.74 243.694 128.423 243.917 128.059C244.039 127.842 244.118 127.603 244.148 127.355C244.178 127.107 244.159 126.856 244.092 126.616C243.996 126.385 243.843 126.183 243.648 126.029C243.452 125.874 243.22 125.772 242.974 125.732C242.281 125.526 241.587 125.32 240.894 125.115L241.396 124.663C240.88 124.386 240.309 124.9 239.986 125.536C239.779 125.952 239.635 126.396 239.558 126.853C239.449 127.332 239.444 127.828 239.546 128.308C239.647 128.788 239.852 129.241 240.146 129.634Z" fill="#2368FF"/>
<path d="M252.388 125.524C252.583 125.739 252.853 125.872 253.143 125.896C253.433 125.919 253.721 125.832 253.949 125.651C254.145 125.503 254.308 125.317 254.427 125.102C254.546 124.888 254.618 124.651 254.64 124.407C254.689 123.861 254.419 123.255 254.034 123.208L254.122 122.697C253.38 122.563 252.467 122.537 252.069 123.438C251.935 123.783 251.894 124.157 251.95 124.523C252.006 124.889 252.157 125.234 252.388 125.524Z" fill="#2368FF"/>
<path d="M179.304 180.176C178.591 179.536 178.028 178.747 177.653 177.866C177.278 176.984 177.1 176.031 177.133 175.074C177.166 174.117 177.409 173.178 177.843 172.324C178.278 171.471 178.894 170.723 179.649 170.133L172.129 148.091L183.846 151.134L189.185 171.598C190.093 172.933 190.479 174.554 190.27 176.154C190.062 177.754 189.274 179.222 188.055 180.28C186.837 181.337 185.272 181.911 183.659 181.892C182.045 181.873 180.495 181.263 179.301 180.177L179.304 180.176Z" fill="#FFB7B7"/>
<path d="M175.945 166.799L187.313 161.733L183.494 123.282L187.051 84.5087L171.873 76.3174L168.657 80.3722V80.4643L166.953 129.494L166.962 129.531L175.945 166.799Z" fill="#E6E7E8"/>
<path d="M350.095 281.382C343.667 278.426 336.734 274.943 329.295 270.934C290.82 250.192 243.508 217.835 196.074 179.824C148.639 141.812 106.75 102.687 78.1226 69.6571C64.1774 53.5668 54.1324 39.7871 48.2672 28.7005C42.0571 16.9632 40.8048 8.64564 44.544 3.97926C51.8291 -5.11149 75.5538 3.07667 94.1735 11.5466L93.4931 13.0429C67.9233 1.4114 50.9951 -1.44222 45.8269 5.00733C39.244 13.2216 51.4684 36.393 79.3648 68.5805C107.929 101.538 149.742 140.59 197.101 178.541C244.461 216.492 291.685 248.791 330.075 269.487C367.566 289.699 392.846 296.581 399.428 288.366C404.894 281.546 397.439 264.368 378.437 239.997L379.733 238.986C393.54 256.695 408.387 279.815 400.711 289.394C396.972 294.061 388.581 294.651 375.773 291.147C368.472 289.15 359.879 285.881 350.095 281.382Z" fill="#2368FF"/>
<path d="M103.954 170.548C86.2327 162.399 70.0373 154.215 55.8526 146.205C37.312 135.736 23.2212 126.131 13.9719 117.661C4.17944 108.692 0.205142 101.278 2.15943 95.6269C5.96603 84.6174 31.0628 84.3583 51.4461 86.0795L51.3076 87.7179C23.3163 85.3538 6.41357 88.3533 3.71262 96.1645C0.272663 106.113 19.5715 123.83 56.6609 144.773C94.6385 166.218 147.141 188.951 204.498 208.783C261.855 228.617 317.186 243.171 360.299 249.765C402.403 256.205 428.524 254.193 431.964 244.245C434.82 235.985 422.026 222.311 395.941 205.741L396.822 204.353C415.776 216.393 437.529 233.181 433.517 244.782C431.563 250.434 423.858 253.808 410.617 254.813C398.111 255.761 381.098 254.61 360.05 251.39C316.842 244.781 261.409 230.201 203.961 210.337C167.923 197.876 133.784 184.265 103.954 170.548Z" fill="#2368FF"/>
<path d="M130.841 86.892C136.132 86.892 140.42 82.6032 140.42 77.3127C140.42 72.0222 136.132 67.7334 130.841 67.7334C125.551 67.7334 121.262 72.0222 121.262 77.3127C121.262 82.6032 125.551 86.892 130.841 86.892Z" fill="#E6E6E6"/>
<path d="M319.657 203.813C322.896 203.813 325.521 201.188 325.521 197.949C325.521 194.71 322.896 192.085 319.657 192.085C316.418 192.085 313.793 194.71 313.793 197.949C313.793 201.188 316.418 203.813 319.657 203.813Z" fill="#FF6584"/>
<path d="M32.8645 255.288C38.155 255.288 42.4438 250.999 42.4438 245.708C42.4438 240.418 38.155 236.129 32.8645 236.129C27.574 236.129 23.2852 240.418 23.2852 245.708C23.2852 250.999 27.574 255.288 32.8645 255.288Z" fill="#E6E6E6"/>
</svg>
