<svg width="488" height="426" viewBox="0 0 488 426" fill="none" xmlns="http://www.w3.org/2000/svg">
<path d="M224.96 88.6984C222.144 88.6151 219.892 86.4624 219.702 83.6754L218.75 77.2077V77.1532C218.589 74.456 220.044 71.8996 222.453 70.6438L227.318 68.1387L231.146 88.8842L224.963 88.7017L224.96 88.6984Z" fill="white"/>
<path d="M261.208 68.1357L266.066 70.6377C268.482 71.8998 269.937 74.4562 269.779 77.1534V77.2079L268.824 83.6756C268.63 86.4594 266.382 88.6154 263.566 88.6987L257.383 88.8813L261.212 68.1357H261.208Z" fill="white"/>
<path d="M243.918 101.473C234.668 100.311 227.168 93.1828 225.565 84.0883L225.526 84.0434L225.494 83.6494L223.281 55.9365L223.723 55.5167C226.513 52.8611 229.936 51.5765 232.439 50.9615L228.665 44.4713L232.606 43.8338C233.842 43.6352 235.106 43.5327 236.364 43.5327C240.79 43.5327 245.157 44.8012 248.902 47.1397V42.3506L252.634 43.7569C260.243 46.6208 264.969 53.9535 264.969 62.8911C264.969 63.7304 264.911 64.5953 264.801 65.4602L262.995 84.0467L262.962 84.085C261.363 93.1828 253.86 100.311 244.609 101.473L244.264 101.518L243.918 101.473Z" fill="white"/>
<path d="M252.176 44.9564L250.192 44.21V49.6206C246.315 46.5677 241.454 44.8186 236.364 44.8186C235.177 44.8186 233.984 44.9147 232.813 45.1037L230.716 45.4433L234.448 51.863C231.339 52.3659 227.529 53.6697 224.613 56.4471L225.004 61.3132L226.781 83.5483C228.168 92.268 235.225 99.0914 244.08 100.206L244.263 100.229L244.447 100.206C253.298 99.0914 260.359 92.2712 261.746 83.5515L263.517 65.3207C263.62 64.523 263.678 63.7126 263.678 62.8956C263.678 54.9767 259.637 47.7658 252.176 44.9596V44.9564Z" fill="black"/>
<path d="M258.7 102.997C257.461 103.01 256.345 102.145 256.051 100.94C255.764 99.7679 256.322 98.5377 257.406 97.9515C257.509 97.8939 257.571 97.8361 257.584 97.7785L260.225 86.182C260.509 84.9775 261.58 84.1254 262.828 84.1094C263.048 84.1094 263.267 84.1318 263.483 84.1798C264.938 84.5194 265.844 85.9706 265.502 87.4153L262.861 99.0118C262.464 100.687 261.325 102.058 259.738 102.769C259.406 102.917 259.054 102.994 258.693 103L258.7 102.997Z" fill="white"/>
<path d="M231.254 78.2943C232.396 80.5751 234.767 82.1448 237.502 82.1448C238.912 82.1448 240.221 81.7251 241.318 81.0075C237.75 80.6776 234.36 79.739 231.254 78.291V78.2943Z" fill="white"/>
<path d="M247 81.0142C248.097 81.7287 249.406 82.1483 250.813 82.1483C253.541 82.1483 255.906 80.5849 257.054 78.3105C253.948 79.7521 250.561 80.6875 247 81.0142Z" fill="white"/>
<path d="M236.775 89.484C237.014 89.5001 237.256 89.5129 237.501 89.5129C240.165 89.5129 242.414 88.523 244.259 86.8925C245.675 87.8118 247.546 88.3468 249.362 88.3468C253.261 88.3468 256.874 85.893 258.138 82.4556C258.138 82.4556 257.845 82.4525 257.845 82.4492C256.19 84.4963 253.652 85.8096 250.803 85.8096C248.171 85.8096 245.8 84.6885 244.152 82.9042C242.501 84.6885 240.133 85.8096 237.501 85.8096C234.869 85.8096 232.034 84.6051 230.379 82.7023C230.95 90.0286 236.824 95.9582 244.017 97.1211C240.817 95.4681 238.253 92.7708 236.779 89.4872L236.775 89.484Z" fill="#2368FF"/>
<path d="M260.104 68.092C255.746 71.5966 250.201 73.6981 244.169 73.6981C238.138 73.6981 232.596 71.5934 228.238 68.092C229.47 70.578 231.27 72.737 233.477 74.3965C232.341 74.6239 231.174 74.7521 229.974 74.7552C250.285 85.0414 260.104 68.0889 260.104 68.0889V68.092Z" fill="#2368FF"/>
<path d="M226.365 70.0684L223.056 71.7726C221.088 72.7977 219.911 74.8735 220.037 77.0743L220.988 83.5389C221.114 85.6691 222.856 87.351 225.001 87.415L229.587 87.5496L226.362 70.0684H226.365Z" fill="black"/>
<path d="M225.973 73.0664L224.16 73.9859C224.067 74.0339 223.976 74.0884 223.889 74.146L223.86 74.162C223.051 74.7098 222.418 75.4787 222.476 76.7472L222.531 77.1669L223.047 81.4307C223.047 81.4307 223.047 75.8374 226.224 76.6094L225.973 73.0664Z" fill="#58595B"/>
<path d="M262.168 70.0684L265.477 71.7726C267.445 72.7977 268.622 74.8735 268.496 77.0743L267.545 83.5389C267.419 85.6691 265.677 87.351 263.532 87.415L258.945 87.5496L262.171 70.0684H262.168Z" fill="black"/>
<path d="M265.997 78.3105L266.271 76.4013C266.329 75.1326 265.478 74.6009 264.668 74.0596L264.639 74.0403C264.552 73.9826 264.461 73.9281 264.368 73.8801L262.768 73.0664L261.688 81.6005C261.688 81.6005 263.042 73.3004 266 78.3105H265.997Z" fill="#323E48"/>
<path d="M222.534 77.2136C222.702 76.3776 223.225 75.8074 223.86 75.3812L223.889 75.3621C223.976 75.3044 224.067 75.2499 224.16 75.2019L226.057 74.2664L225.973 73.0684L224.16 73.9878C224.067 74.0359 223.976 74.0903 223.889 74.1479L223.86 74.1639C223.051 74.7117 222.418 75.4806 222.476 76.7491L222.531 77.1689L222.538 77.2136H222.534Z" fill="white"/>
<path d="M264.665 74.0596L264.636 74.0403C264.548 73.9826 264.458 73.9281 264.365 73.8801L262.765 73.0664L262.594 74.4279L264.407 75.1102C265.29 75.5459 266.061 75.6709 266.129 76.9426L266.097 77.6378L266.274 76.4044C266.332 75.1359 265.481 74.6041 264.671 74.0627L264.665 74.0596Z" fill="white"/>
<path d="M257.307 100.635C257.51 101.471 258.426 101.949 259.216 101.596C260.381 101.074 261.297 100.043 261.613 98.7101L264.255 87.1168C264.435 86.3576 263.961 85.5983 263.197 85.419C262.432 85.2396 261.668 85.7105 261.49 86.4698L258.849 98.063C258.746 98.5051 258.449 98.8446 258.033 99.0689C257.465 99.3764 257.159 100.007 257.313 100.632L257.307 100.635Z" fill="black"/>
<path d="M254.251 64.7694C253.429 60.2877 247.923 53.2594 240.198 51.7666L243.662 57.7282C235.275 56.0849 230.379 59.2178 230.379 59.2178L242.317 67.5115L238.414 60.7972C238.414 60.7972 246.839 60.7651 254.255 64.7694H254.251Z" fill="white"/>
<path d="M265.938 411.163C265.548 411.181 265.162 411.078 264.832 410.87C264.503 410.661 264.245 410.356 264.095 409.996C263.944 409.636 263.908 409.238 263.991 408.857C264.074 408.475 264.272 408.129 264.559 407.864L264.689 407.345C264.672 407.304 264.655 407.262 264.637 407.221C264.244 406.293 263.586 405.503 262.746 404.948C261.905 404.393 260.919 404.099 259.912 404.103C258.904 404.106 257.921 404.408 257.084 404.969C256.247 405.53 255.595 406.326 255.209 407.256C253.667 410.97 251.704 414.69 251.221 418.617C251.008 420.352 251.098 422.112 251.486 423.817C247.864 415.917 245.984 407.33 245.972 398.639C245.971 396.458 246.092 394.279 246.335 392.112C246.535 390.335 246.813 388.571 247.169 386.82C249.11 377.316 253.278 368.409 259.33 360.829C262.259 359.231 264.628 356.773 266.117 353.787C266.657 352.714 267.038 351.568 267.249 350.386C266.919 350.429 266.003 345.397 266.253 345.088C265.792 344.389 264.968 344.042 264.465 343.36C261.964 339.969 258.518 340.561 256.719 345.169C252.876 347.109 252.839 350.325 255.197 353.419C256.697 355.387 256.903 358.051 258.219 360.158C258.084 360.331 257.943 360.499 257.808 360.672C255.332 363.856 253.175 367.274 251.366 370.878C251.806 366.84 251.281 362.756 249.834 358.961C248.368 355.424 245.62 352.445 243.2 349.387C240.293 345.714 234.332 347.317 233.82 351.973C233.815 352.018 233.81 352.063 233.805 352.108C234.165 352.311 234.517 352.526 234.861 352.754C235.294 353.043 235.629 353.456 235.823 353.938C236.016 354.421 236.06 354.951 235.947 355.459C235.835 355.967 235.572 356.429 235.192 356.784C234.812 357.14 234.334 357.373 233.82 357.452L233.768 357.46C233.896 358.756 234.122 360.04 234.445 361.301C231.34 373.307 238.043 377.68 247.613 377.876C247.824 377.985 248.03 378.093 248.242 378.196C246.424 383.346 245.284 388.71 244.85 394.154C244.605 397.366 244.619 400.592 244.894 403.801L244.878 403.688C244.184 400.119 242.28 396.899 239.488 394.571C235.34 391.164 229.48 389.909 225.005 387.17C224.53 386.865 223.977 386.702 223.412 386.701C222.847 386.699 222.293 386.86 221.816 387.163C221.339 387.466 220.958 387.899 220.719 388.411C220.48 388.923 220.393 389.493 220.467 390.053C220.473 390.093 220.479 390.133 220.485 390.173C221.152 390.444 221.802 390.757 222.43 391.11C222.789 391.312 223.141 391.528 223.486 391.755C223.918 392.044 224.253 392.457 224.447 392.94C224.641 393.423 224.684 393.953 224.572 394.46C224.459 394.968 224.196 395.43 223.817 395.786C223.437 396.142 222.959 396.374 222.445 396.453L222.392 396.462C222.354 396.467 222.322 396.472 222.284 396.478C223.424 399.199 225.023 401.704 227.013 403.883C228.954 414.364 237.292 415.358 246.21 412.306H246.216C247.194 416.558 248.612 420.697 250.446 424.656H265.559C265.613 424.488 265.662 424.315 265.711 424.147C264.312 424.235 262.908 424.151 261.529 423.898C262.65 422.522 263.772 421.135 264.893 419.76C264.918 419.734 264.941 419.707 264.963 419.678C265.532 418.974 266.106 418.275 266.675 417.571L266.675 417.57C266.706 415.412 266.458 413.258 265.938 411.163L265.938 411.163Z" fill="#525252"/>
<path d="M243.551 172.195C226.522 172.195 209.876 167.146 195.717 157.685C181.559 148.225 170.523 134.778 164.007 119.046C157.49 103.313 155.785 86.0021 159.108 69.3008C162.43 52.5995 170.63 37.2584 182.671 25.2174C194.712 13.1765 210.053 4.97647 226.754 1.65438C243.455 -1.66771 260.767 0.0373034 276.499 6.55383C292.231 13.0703 305.678 24.1057 315.138 38.2644C324.599 52.423 329.648 69.0691 329.648 86.0976C329.622 108.924 320.543 130.808 304.402 146.949C288.262 163.09 266.377 172.169 243.551 172.195ZM243.551 1.35591C226.79 1.35591 210.406 6.32592 196.471 15.6375C182.535 24.949 174.988 60.5155 168.574 76C162.16 91.4845 157.168 86.1916 160.437 102.63C163.707 119.068 171.778 134.168 183.629 146.019C195.481 157.87 210.58 165.941 227.018 169.211C243.457 172.481 260.495 170.803 275.98 164.389C291.465 157.975 299.763 137.936 309.074 124C318.386 110.064 328.292 102.858 328.292 86.0976C328.267 63.6305 296.961 57.8867 281.074 42C265.188 26.1133 266.018 1.3813 243.551 1.35591Z" fill="#F2F2F2"/>
<path d="M252.991 117.282H234.687C233.788 117.282 232.925 116.925 232.29 116.289C231.654 115.654 231.297 114.792 231.297 113.893C231.297 112.994 231.654 112.131 232.29 111.496C232.925 110.86 233.788 110.503 234.687 110.503H252.991C253.89 110.503 254.752 110.86 255.388 111.496C256.023 112.131 256.38 112.994 256.38 113.893C256.38 114.792 256.023 115.654 255.388 116.289C254.752 116.925 253.89 117.282 252.991 117.282Z" fill="#E6E6E6"/>
<path d="M257.196 215.662H230.482C229.17 215.662 227.912 215.141 226.984 214.213C226.056 213.285 225.535 212.027 225.535 210.715C225.535 209.403 226.056 208.144 226.984 207.217C227.912 206.289 229.17 205.768 230.482 205.768H257.196C258.509 205.768 259.767 206.289 260.695 207.217C261.622 208.144 262.144 209.403 262.144 210.715C262.144 212.027 261.622 213.285 260.695 214.213C259.767 215.141 258.509 215.662 257.196 215.662Z" fill="#D3D3D3"/>
<path d="M333.133 194.927H154.549C152.957 194.925 151.432 194.292 150.307 193.167C149.182 192.041 148.549 190.516 148.547 188.925V135.683C148.549 134.092 149.182 132.567 150.307 131.442C151.432 130.316 152.957 129.683 154.549 129.682H333.133C334.724 129.683 336.25 130.316 337.375 131.442C338.5 132.567 339.133 134.092 339.135 135.683V188.925C339.133 190.516 338.5 192.041 337.375 193.167C336.25 194.292 334.724 194.925 333.133 194.927Z" fill="#E6E6E6"/>
<path d="M315.779 190.878H158.596C157.004 190.877 155.479 190.244 154.354 189.118C153.229 187.993 152.596 186.468 152.594 184.877V139.735C152.596 138.144 153.229 136.618 154.354 135.493C155.479 134.368 157.004 133.735 158.596 133.733H329.083C330.674 133.735 332.199 134.368 333.324 135.493C334.45 136.618 335.083 138.144 335.084 139.735V171.573C335.079 176.691 333.043 181.598 329.424 185.218C325.805 188.837 320.897 190.873 315.779 190.878Z" fill="white"/>
<path d="M261.564 149.788H189.786C189.376 149.788 188.982 149.625 188.692 149.335C188.401 149.045 188.238 148.651 188.238 148.24C188.238 147.83 188.401 147.436 188.692 147.146C188.982 146.855 189.376 146.692 189.786 146.692H261.564C261.974 146.692 262.368 146.855 262.658 147.146C262.948 147.436 263.111 147.83 263.111 148.24C263.111 148.651 262.948 149.045 262.658 149.335C262.368 149.625 261.974 149.788 261.564 149.788Z" fill="#2368FF"/>
<path d="M297.899 156.119H189.786C189.376 156.119 188.982 155.956 188.692 155.666C188.401 155.376 188.238 154.982 188.238 154.571C188.238 154.161 188.401 153.767 188.692 153.477C188.982 153.187 189.376 153.023 189.786 153.023H297.899C298.309 153.023 298.703 153.187 298.993 153.477C299.283 153.767 299.446 154.161 299.446 154.571C299.446 154.982 299.283 155.376 298.993 155.666C298.703 155.956 298.309 156.119 297.899 156.119Z" fill="#E6E6E6"/>
<path d="M297.898 163.385H189.786C189.582 163.385 189.38 163.346 189.192 163.268C189.004 163.19 188.833 163.076 188.689 162.933C188.545 162.789 188.43 162.618 188.353 162.43C188.275 162.242 188.234 162.04 188.234 161.837C188.234 161.633 188.275 161.432 188.353 161.244C188.43 161.056 188.545 160.885 188.689 160.741C188.833 160.598 189.004 160.484 189.192 160.406C189.38 160.328 189.582 160.289 189.786 160.289H297.898C298.308 160.29 298.701 160.453 298.99 160.744C299.28 161.034 299.442 161.427 299.442 161.837C299.442 162.247 299.28 162.64 298.99 162.93C298.701 163.221 298.308 163.384 297.898 163.385Z" fill="#E6E6E6"/>
<path d="M297.898 170.653H189.786C189.582 170.654 189.38 170.614 189.192 170.536C189.004 170.459 188.833 170.345 188.689 170.201C188.545 170.057 188.43 169.887 188.353 169.699C188.275 169.511 188.234 169.309 188.234 169.106C188.234 168.902 188.275 168.7 188.353 168.512C188.43 168.324 188.545 168.154 188.689 168.01C188.833 167.866 189.004 167.752 189.192 167.675C189.38 167.597 189.582 167.557 189.786 167.558H297.898C298.308 167.558 298.701 167.722 298.99 168.012C299.28 168.302 299.442 168.696 299.442 169.106C299.442 169.515 299.28 169.909 298.99 170.199C298.701 170.489 298.308 170.653 297.898 170.653Z" fill="#E6E6E6"/>
<path d="M297.898 177.919H189.786C189.582 177.919 189.38 177.88 189.192 177.802C189.004 177.725 188.833 177.611 188.689 177.467C188.545 177.323 188.43 177.152 188.353 176.964C188.275 176.776 188.234 176.575 188.234 176.371C188.234 176.168 188.275 175.966 188.353 175.778C188.43 175.59 188.545 175.419 188.689 175.275C188.833 175.132 189.004 175.018 189.192 174.94C189.38 174.863 189.582 174.823 189.786 174.823H297.898C298.308 174.824 298.701 174.988 298.99 175.278C299.28 175.568 299.442 175.961 299.442 176.371C299.442 176.781 299.28 177.174 298.99 177.465C298.701 177.755 298.308 177.918 297.898 177.919Z" fill="#E6E6E6"/>
<path d="M392.89 417.495L385.635 417.495L382.184 389.512L392.892 389.512L392.89 417.495Z" fill="#A0616A"/>
<path d="M393.142 425.065L370.832 425.064V424.782C370.832 422.479 371.747 420.27 373.376 418.642C375.004 417.013 377.213 416.099 379.516 416.098H379.516L383.591 413.007L391.195 416.099L393.142 416.099L393.142 425.065Z" fill="#2F2E41"/>
<path d="M452.196 408.208L445.696 411.428L430.18 387.886L439.774 383.133L452.196 408.208Z" fill="#A0616A"/>
<path d="M455.788 414.874L435.797 424.778L435.672 424.525C434.65 422.461 434.489 420.076 435.225 417.894C435.961 415.712 437.534 413.912 439.598 412.889L439.598 412.889L441.877 408.309L450.063 407.704L451.808 406.84L455.788 414.874Z" fill="#2F2E41"/>
<path d="M371.396 267.082C371.396 267.082 363.138 278.595 369.099 298.484C375.06 318.374 371.714 336.156 373.387 339.722C375.06 343.287 378.428 346.673 375.645 349.377C372.862 352.08 371.396 354.278 373.595 355.011C375.793 355.744 383.12 407.036 383.12 407.036L395.577 407.768C395.577 407.768 400.089 383.942 395.269 364.714C395.269 364.714 396.327 350.755 394.12 346.655C391.913 342.554 392.346 346.253 392.496 341.106C392.579 337.384 393.122 333.687 394.111 330.098C394.844 327.167 395.269 297.626 395.269 297.626L407.395 336.827C407.881 338.178 408.064 339.619 407.93 341.049C407.63 343.068 407.627 346.085 407.995 347.141C408.362 348.197 408.772 348.419 408.567 350.506C408.362 352.594 432.768 396.592 432.768 396.592L444.894 388.456L432.947 349.882C431.76 348.567 430.773 347.086 430.016 345.485C428.55 342.554 428.493 342.393 429.255 340.275C430.016 338.158 430.016 334.033 430.016 332.798C430.016 331.563 430.777 275.511 421.237 267.266C411.697 259.022 371.396 267.082 371.396 267.082Z" fill="#2F2E41"/>
<path d="M416.192 177.906L413.709 170.84L406.93 164.06L394.425 162.567L386.284 167.919L378.745 175.352L367.609 267.784C367.609 267.784 420.205 288.062 427.097 271.044L416.192 177.906Z" fill="#CCCCCC"/>
<path d="M420.456 177.905L413.15 170.6C413.15 170.6 409.66 217.29 411.147 220.574C412.634 223.858 414.385 223.02 412.492 224.795C410.6 226.57 408.566 224.808 410.6 228.062C411.799 229.886 412.387 232.044 412.279 234.224C412.279 234.224 422.803 300.464 428.904 300.464C435.006 300.464 438.825 298.678 438.61 296.86C438.395 295.041 434.796 290.513 435.918 289.387C437.039 288.262 439.804 289.112 437.066 286.992C434.328 284.872 432.972 285.55 433.65 282.838C434.328 280.126 429.145 244.973 429.145 244.973L428.639 186.254L420.456 177.905Z" fill="#3F3D56"/>
<path d="M386.284 167.919L376.823 169.258L365.576 173.551C365.576 173.551 370.713 231.502 369.64 233.442C368.568 235.383 366.662 234.171 368.293 236.133C369.924 238.095 371.391 237.225 369.64 239.015C367.89 240.806 364.943 238.538 366.756 241.706C368.568 244.874 359.835 288.494 362.186 290.833C364.538 293.173 370.596 291.717 370.599 289.99C370.414 288.127 369.71 286.354 368.568 284.872C368.24 284.496 368.059 284.015 368.059 283.516C368.059 283.018 368.24 282.536 368.568 282.16C369.529 281.236 370.188 280.044 370.461 278.74C370.602 277.415 371.637 275.787 372.136 274.567C372.636 273.347 385.206 190.781 385.206 190.781L386.284 167.919Z" fill="#3F3D56"/>
<path d="M345.915 213.549L350.182 211.321C344.854 206.515 331.636 198.653 331.636 198.653L308.853 183.293C308.519 182.508 307.985 181.825 307.303 181.312C306.622 180.799 305.817 180.475 304.97 180.371C304.123 180.268 303.264 180.39 302.479 180.725C301.695 181.059 301.012 181.595 300.5 182.277C299.988 182.959 299.664 183.764 299.562 184.611C299.46 185.458 299.583 186.317 299.918 187.101C300.254 187.886 300.79 188.568 301.473 189.079C302.156 189.591 302.961 189.913 303.808 190.014L329.34 212.888L345.915 213.549Z" fill="#A0616A"/>
<path d="M377.1 196.601L377.146 177.867L366.739 172.89L340.492 200.669L338.458 199.313H333.712L322.188 212.871C322.188 212.871 328.326 216.509 331.358 215.029C334.39 213.549 334.105 215.676 334.105 215.676C334.555 216.241 335.182 216.639 335.886 216.804C336.589 216.97 337.328 216.894 337.983 216.588C340.492 215.583 345.237 218.295 345.237 218.295L377.1 196.601Z" fill="#3F3D56"/>
<path d="M402.044 158.263C410.425 158.263 417.22 151.468 417.22 143.087C417.22 134.705 410.425 127.91 402.044 127.91C393.662 127.91 386.867 134.705 386.867 143.087C386.867 151.468 393.662 158.263 402.044 158.263Z" fill="#A0616A"/>
<path d="M420.362 146.94C418.929 149.744 417.006 152.269 414.684 154.396C414.017 155.153 413.167 155.727 412.214 156.061C411.736 156.217 411.217 156.2 410.75 156.014C410.282 155.827 409.895 155.482 409.655 155.039L409.374 154.655C410.187 154.406 410.954 154.027 411.646 153.531C411.989 153.282 412.268 152.954 412.459 152.575C412.65 152.196 412.748 151.777 412.745 151.353C412.72 150.928 412.532 150.53 412.22 150.242C411.908 149.954 411.496 149.797 411.071 149.806C410.123 149.919 409.276 151.026 408.426 150.599C407.74 150.251 407.838 149.252 408.035 148.498C409.091 144.562 408.65 138.462 407.13 138.249C405.618 137.941 404.178 137.352 402.885 136.512C401.59 135.67 400.143 135.088 398.626 134.799C398.517 134.784 398.406 134.777 398.288 134.767C398.245 133.956 398.103 133.152 397.867 132.375C397.702 133.196 397.451 133.997 397.116 134.765C395.802 134.944 394.475 135.011 393.149 134.965C391.736 134.801 387.676 138.093 387.646 137.64C387.602 136.829 387.461 136.026 387.225 135.248C387.06 136.069 386.808 136.87 386.474 137.638C386.458 137.669 386.451 137.696 386.436 137.727C386.004 136.675 385.881 135.498 385.892 136.377C384.985 130.784 386.783 127.417 391.373 124.101C392.289 123.369 393.377 122.883 394.533 122.686C395.11 122.594 395.702 122.652 396.25 122.855C396.799 123.057 397.286 123.398 397.665 123.843C399.427 122.911 401.406 122.467 403.398 122.557C405.389 122.648 407.321 123.269 408.991 124.357C412.293 126.568 414.897 128.04 414.458 131.995C417.587 132.296 420.23 134.81 421.219 137.788C422.199 140.771 421.69 144.101 420.362 146.94Z" fill="#2F2E41"/>
<path d="M439.737 226.02L428.849 224.461C425.166 230.618 423.858 247.008 423.858 247.008L413.202 272.334C412.496 272.814 411.929 273.471 411.558 274.239C411.187 275.007 411.025 275.859 411.087 276.71C411.15 277.561 411.436 278.38 411.916 279.085C412.397 279.79 413.054 280.356 413.823 280.726C414.591 281.097 415.444 281.258 416.294 281.194C417.145 281.13 417.964 280.843 418.668 280.362C419.373 279.881 419.938 279.223 420.308 278.454C420.677 277.685 420.837 276.832 420.772 275.982L438.268 246.503L439.737 226.02Z" fill="#A0616A"/>
<path d="M414.664 188.266L419.278 181.911L428.633 186.259L436.414 216.273C436.414 216.273 442.096 219.97 440.884 222.579C439.672 225.187 439.027 227.292 440.28 228.786C441.533 230.281 445.182 230.391 442.464 232.828C439.746 235.265 442.073 241.632 442.073 241.632L439.468 247.446L423.197 246.768L414.664 188.266Z" fill="#3F3D56"/>
<path d="M38.3635 281.353C39.3905 280.547 40.0626 279.372 40.2367 278.078C40.4107 276.785 40.0731 275.474 39.2957 274.425C39.1343 274.215 38.9558 274.018 38.7619 273.837L45.7094 257.794L38.8092 251.404L31.668 274.41C30.9789 275.272 30.5946 276.338 30.575 277.442C30.5554 278.545 30.9017 279.624 31.5598 280.51C31.9391 281.011 32.4133 281.432 32.9553 281.749C33.4973 282.066 34.0965 282.274 34.7186 282.359C35.3408 282.445 35.9738 282.408 36.5814 282.249C37.189 282.09 37.7593 281.813 38.2599 281.433C38.2948 281.407 38.3294 281.38 38.3635 281.353Z" fill="#FFB6B6"/>
<path d="M78.7202 177.28C78.7202 177.28 73.5774 167.503 61.6472 178.061C49.717 188.619 35.6192 241.468 35.893 243.455C36.1667 245.441 39.0827 244.656 35.3944 247.516C31.7062 250.377 29.6668 247.807 31.7061 250.377C33.7454 252.947 38.3058 255.67 34.2679 256.052C30.23 256.434 45.0326 262.803 45.0326 262.803C45.0326 262.803 47.3608 262.244 48.0752 256.872C48.4764 253.854 47.1169 252.141 49.5101 251.638C51.9033 251.135 49.6601 245.678 50.0046 244.82C50.3491 243.961 69.4582 206.462 69.4582 206.462L78.7202 177.28Z" fill="#D3D3D3"/>
<path d="M102.209 416.052L110.847 416.052L114.958 382.729L102.207 382.729L102.209 416.052Z" fill="#FFB6B6"/>
<path d="M101.907 425.064L128.474 425.063V424.727C128.473 421.985 127.384 419.355 125.445 417.415C123.506 415.476 120.875 414.387 118.133 414.387H118.132L113.28 410.705L104.225 414.387L101.906 414.387L101.907 425.064Z" fill="#2F2E41"/>
<path d="M41.6562 400.16L48.723 405.129L71.2535 380.234L60.8221 372.9L41.6562 400.16Z" fill="#FFB6B6"/>
<path d="M36.2188 407.358L57.9513 422.638L58.1446 422.364C59.7219 420.12 60.3434 417.342 59.8726 414.64C59.4017 411.939 57.877 409.535 55.6337 407.957L55.6332 407.957L53.7812 402.154L44.2568 399.958L42.3597 398.624L36.2188 407.358Z" fill="#2F2E41"/>
<path d="M67.7897 250.27L67.0719 251.804C62.3534 261.884 61.147 273.152 62.9806 284.13C63.117 284.559 63.0909 285.023 62.9075 285.433C61.7703 286.767 63.5545 292.562 64.5771 295.798L65.4989 301.52C65.4989 301.52 63.9704 306.834 66.2921 306.443C68.6137 306.053 65.1566 311.721 67.3711 313.141L73.1158 348.803L49.1484 388.304L58.0253 401.176L93.5325 355.46L93.9764 314.183L99.3024 347.471L99.7463 399.844L115.895 398.128L121.812 347.351L116.168 277.129L107.292 246.683L67.7897 250.27Z" fill="#2F2E41"/>
<path d="M78.8839 158.846L91.9486 159.468L98.196 170.261C100.966 171.092 103.515 172.535 105.653 174.482C107.791 176.43 109.465 178.833 110.55 181.514L114.618 191.565L109.99 249.676C109.99 249.676 109.063 253.191 110.771 252.678C112.479 252.165 111.783 256.57 111.783 256.57L118.078 280.783L60.8422 275.806L64.0203 250.152C64.0203 250.152 59.6017 250.295 62.7086 247.188C65.8155 244.081 67.3264 245.071 64.3419 241.398C61.3573 237.724 60.9135 235.061 60.9135 235.061L59.5819 216.864L57.3868 191.254C57.0385 187.19 57.7057 183.104 59.3284 179.362C60.9512 175.62 63.4786 172.34 66.6834 169.817L78.8839 158.846Z" fill="#D3D3D3"/>
<path d="M85.6582 155.85C94.8086 155.85 102.226 148.432 102.226 139.281C102.226 130.131 94.8086 122.713 85.6582 122.713C76.5077 122.713 69.0898 130.131 69.0898 139.281C69.0898 148.432 76.5077 155.85 85.6582 155.85Z" fill="#FFB6B6"/>
<path d="M79.2543 154.491C84.0088 154.335 84.4407 153.079 89.1951 152.923C90.709 152.874 92.4955 152.666 93.2274 151.34C93.4404 150.843 93.5352 150.304 93.5045 149.764C93.4737 149.224 93.3181 148.699 93.05 148.23C92.5075 147.298 92.0185 146.336 91.5853 145.349C91.3244 144.574 91.2559 143.748 91.3859 142.941C91.5159 142.134 91.8403 141.372 92.3313 140.718C92.8222 140.065 93.4648 139.541 94.2036 139.192C94.9424 138.843 95.7551 138.679 96.5714 138.714C98.0183 138.777 99.3771 139.457 100.82 139.581C102.799 139.752 107.174 133.218 106.263 131.454C105.377 129.736 103.592 128.439 103.311 126.527C103.128 125.276 103.644 124.032 103.715 122.77C103.82 120.898 99.0744 125.119 99.9434 123.458C102.075 119.382 81.9868 114.33 78.6796 119.435C77.4435 121.343 75.2407 121.212 73.2774 122.358C71.9905 123.109 68.7412 125.7 68.0024 127.315C67.3237 128.962 67.0029 130.735 67.0615 132.516C67.0318 140.8 68.2937 148.419 74.975 153.315" fill="#2F2E41"/>
<path d="M126.29 280.641C125.313 279.776 124.712 278.563 124.615 277.261C124.519 275.959 124.934 274.671 125.773 273.671C125.946 273.47 126.136 273.284 126.341 273.115L120.363 256.686L127.633 250.72L133.388 274.111C134.024 275.013 134.344 276.1 134.298 277.202C134.251 278.305 133.841 279.361 133.132 280.206C132.723 280.683 132.225 281.075 131.665 281.36C131.105 281.644 130.494 281.815 129.868 281.864C129.242 281.912 128.612 281.837 128.015 281.642C127.418 281.447 126.865 281.137 126.388 280.728C126.355 280.7 126.322 280.671 126.29 280.641Z" fill="#FFB6B6"/>
<path d="M92.2148 174.345C92.2148 174.345 97.9321 164.892 109.211 176.144C120.489 187.395 131.407 240.991 131.015 242.958C130.624 244.925 127.76 243.966 131.271 247.042C134.782 250.118 136.971 247.674 134.782 250.118C132.592 252.561 127.878 255.007 131.886 255.63C135.893 256.252 120.737 261.726 120.737 261.726C120.737 261.726 118.446 261.029 118.054 255.624C117.834 252.588 119.293 250.959 116.934 250.314C114.575 249.669 117.14 244.356 116.847 243.478C116.555 242.601 99.7183 204.027 99.7183 204.027L92.2148 174.345Z" fill="#D3D3D3"/>
<path d="M0.574222 425.193C0.573906 425.299 0.594563 425.405 0.634996 425.503C0.675429 425.601 0.734837 425.69 0.809817 425.765C0.884797 425.84 0.973868 425.899 1.07189 425.939C1.16992 425.98 1.27497 426 1.38101 426H486.3C486.514 426 486.719 425.915 486.871 425.764C487.022 425.613 487.107 425.407 487.107 425.193C487.107 424.98 487.022 424.774 486.871 424.623C486.719 424.472 486.514 424.387 486.3 424.387H1.38101C1.27497 424.386 1.16992 424.407 1.07189 424.447C0.97387 424.488 0.884807 424.547 0.809827 424.622C0.734848 424.697 0.67543 424.786 0.634996 424.884C0.594562 424.982 0.57391 425.087 0.574222 425.193Z" fill="white"/>
</svg>
