<svg width="389" height="296" viewBox="0 0 389 296" fill="none" xmlns="http://www.w3.org/2000/svg">
<path d="M359.096 268.395C346.383 278.076 330.895 287.883 315.668 292.507C311.279 293.879 306.749 294.755 302.164 295.119C297.878 295.464 293.564 295.129 289.382 294.127C278.392 291.394 268.199 286.607 258.336 281.014C255.114 279.184 251.928 277.27 248.762 275.314C243.593 272.12 238.475 268.814 233.344 265.587C232.576 265.098 231.812 264.618 231.043 264.143H231.039C229.8 263.365 228.558 262.599 227.314 261.843C227.095 261.708 226.876 261.577 226.652 261.442C224.301 260.017 221.909 258.625 219.476 257.265C219.178 257.102 218.88 256.935 218.582 256.772C213.876 254.161 209.04 251.794 204.091 249.68C200.841 248.311 197.548 247.077 194.224 246.024H194.219C192.948 245.624 191.672 245.247 190.391 244.902C186.551 243.848 182.638 243.083 178.684 242.611C173.236 241.951 167.726 241.995 162.288 242.741C161.921 242.793 161.557 242.844 161.19 242.904C146.475 245.261 133.045 253.205 118.265 255.077C117.785 255.137 117.31 255.193 116.831 255.235C116.626 255.254 116.421 255.277 116.216 255.291C111.921 255.658 107.598 255.552 103.326 254.974C91.3914 253.4 79.7685 248.516 69.3051 242.359C44.8438 227.966 25.0066 205.842 12.946 180.222C10.8749 175.831 9.0361 171.334 7.43721 166.75C2.96681 154.039 0.50495 140.708 0.14026 127.239C-0.991299 80.5047 25.5654 33.6172 67.2608 12.4808C108.961 -8.65555 163.816 -1.66597 197.446 30.8046C217.847 50.5021 229.651 77.1939 245.004 101.04C260.357 124.882 282.178 147.658 310.322 151.132C324.66 152.901 339.664 149.479 353.406 153.93C361.014 156.398 367.506 161.12 372.735 167.136C376.251 171.219 379.193 175.762 381.48 180.641C383.157 184.167 384.517 187.835 385.546 191.602C385.736 192.296 385.913 192.99 386.086 193.684C392.931 221.642 381.993 250.951 359.096 268.395Z" fill="#CDDDFE"/>
<path d="M130.1 217.782H86.3275C79.7695 217.782 74.4531 223.099 74.4531 229.657V229.657C74.4531 236.215 79.7695 241.531 86.3275 241.531H130.1C136.658 241.531 141.974 236.215 141.974 229.657C141.974 223.099 136.658 217.782 130.1 217.782Z" fill="#3F3D56"/>
<path d="M116.832 235.477V255.235C112.336 255.67 107.804 255.582 103.328 254.974V235.477H116.832Z" fill="#3F3D56"/>
<path d="M162.286 242.741C161.919 242.793 161.555 242.844 161.187 242.904C146.472 245.261 133.043 253.205 118.263 255.077C117.783 255.137 117.308 255.193 116.828 255.235C116.624 255.254 116.419 255.277 116.214 255.291C112.605 251.757 108.996 247.994 105.606 244.096C103.767 241.987 101.988 239.836 100.316 237.656C95.976 232.031 92.2973 226.248 89.8666 220.567C90.1134 217.842 88.4183 211.542 87.6081 206.718L87.6034 206.713C87.2589 204.687 87.0726 202.927 87.2449 201.796C88.2321 195.267 93.5639 196.017 95.203 189.619C96.6817 188.391 98.256 187.284 99.9109 186.308C100.186 186.145 100.465 185.982 100.754 185.819L118.542 173.525L125.341 180.194L135.688 190.345L146.901 201.339L137.383 210.955C137.383 210.955 145.336 220.124 154.636 232.348C157.131 235.631 159.725 239.137 162.286 242.741Z" fill="#2F2E41"/>
<path d="M315.668 235.477V292.506C311.279 293.879 306.749 294.755 302.164 295.119V235.477H315.668Z" fill="#3F3D56"/>
<path d="M333.131 230.82H289.359C282.801 230.82 277.484 236.137 277.484 242.695V242.695C277.484 249.253 282.801 254.569 289.359 254.569H333.131C339.689 254.569 345.005 249.253 345.005 242.695C345.005 236.137 339.689 230.82 333.131 230.82Z" fill="#3F3D56"/>
<path d="M226.652 261.443C224.3 260.018 221.908 258.625 219.476 257.266C219.178 257.103 218.88 256.935 218.582 256.772L220.184 256.088L224.505 254.23L224.547 254.211L224.594 254.369L226.652 261.443Z" fill="#FFB6B6"/>
<path d="M233.343 265.587C232.574 265.098 231.811 264.618 231.042 264.143H231.038C229.799 263.366 228.557 262.599 227.312 261.843C227.094 261.708 226.875 261.577 226.651 261.442C224.299 260.018 221.908 258.625 219.475 257.265C219.177 257.102 218.879 256.935 218.581 256.772C213.875 254.161 209.038 251.794 204.09 249.68C200.839 248.311 197.547 247.077 194.222 246.024H194.218L191.605 241.652L179.847 221.959L177.263 217.633C177.263 217.633 168.448 220.241 155.973 222.741C151.433 223.654 146.413 224.548 141.146 225.302C135.516 226.103 129.612 226.741 123.744 227.049C120.946 227.198 118.156 227.272 115.409 227.249C108.308 227.202 101.486 226.536 95.5114 224.953C93.5183 223.081 87.5113 220.534 83.2086 218.201H83.2039C81.3971 217.223 79.8977 216.287 79.1107 215.454C74.5752 210.657 78.4495 206.918 74.4169 201.684C74.3626 199.764 74.4607 197.842 74.7102 195.938C74.7521 195.621 74.794 195.3 74.8453 194.974L76.1165 173.386L85.5601 172.138L99.9305 170.238L115.498 168.18L117.211 181.6C117.211 181.6 129.332 180.985 144.69 181.19C169.356 181.526 202.362 183.984 206.833 194.536C207.252 195.528 207.671 196.529 208.09 197.53C209.086 199.924 210.074 202.33 211.051 204.748C214.595 213.503 217.976 222.341 221.063 230.695C222.982 235.892 224.788 240.902 226.451 245.591C227.787 249.363 229.026 252.93 230.158 256.213C231.191 259.212 232.127 261.973 232.961 264.451C233.091 264.837 233.217 265.219 233.343 265.587Z" fill="#2F2E41"/>
<path d="M146.469 134.788L116.641 109.456L136.047 89.8154L149.586 111.992L199.773 121.941C201.282 120.806 203.088 120.134 204.973 120.007C206.857 119.881 208.738 120.305 210.385 121.229C212.032 122.153 213.375 123.536 214.25 125.21C215.125 126.883 215.494 128.776 215.312 130.655C215.13 132.535 214.405 134.322 213.225 135.796C212.046 137.271 210.462 138.371 208.669 138.962C206.875 139.553 204.948 139.608 203.122 139.123C201.297 138.637 199.653 137.631 198.39 136.227L146.469 134.788Z" fill="#A0616A"/>
<path d="M90.281 76.162C86.8338 87.3764 119.664 114.123 119.664 114.123C120.029 111.43 138.642 134.646 139.909 132.544C143.508 126.568 147.468 111.797 151.623 109.91C154 108.83 140.368 93.8241 140.368 93.8241C140.368 93.8241 133.414 84.6245 124.234 72.9651C121.699 69.6207 118.36 66.9718 114.526 65.2652C110.693 63.5585 106.49 62.8496 102.308 63.2042C102.308 63.2042 93.7282 64.9477 90.281 76.162Z" fill="#3F3D56"/>
<path d="M104.799 51.336C115.941 51.336 124.974 42.3036 124.974 31.1616C124.974 20.0197 115.941 10.9873 104.799 10.9873C93.6574 10.9873 84.625 20.0197 84.625 31.1616C84.625 42.3036 93.6574 51.336 104.799 51.336Z" fill="#A0616A"/>
<path d="M114.885 64.6706C119.231 67.2545 121.831 72.002 123.323 76.833C126.087 85.7771 127.75 95.0245 128.276 104.371L129.853 132.352L149.376 191.932C132.456 206.25 68.8545 195.186 68.8545 195.186C68.8545 195.186 66.9022 194.536 68.8545 192.583C70.8069 190.631 72.7075 192.36 70.7552 190.408C68.8028 188.456 70.1487 190.631 70.7995 188.678C71.4503 186.726 70.7995 188.028 70.1487 187.377C69.4979 186.726 75.1868 180.869 75.1868 180.869L69.9805 146.669L63.4727 77.6862C71.2821 67.9244 86.9879 62.1699 86.9879 62.1699L91.0461 54.8652L111.337 56.4885L114.885 64.6706Z" fill="#3F3D56"/>
<path d="M121.429 20.4435C122.997 21.613 124.158 23.2448 124.75 25.1092C124.977 22.0624 124.992 19.0034 124.793 15.9546C124.556 13.8121 123.047 13.3302 121.301 12.7718C119.723 12.2673 117.94 11.6975 117.46 9.61765C111.118 3.44836 100.079 3.75945 92.5233 5.91139C88.3661 7.09557 85.974 8.61699 85.76 9.50826L85.7156 9.69173L85.5468 9.77614C82.3422 11.3784 81.7185 16.438 81.7597 20.4003C81.8377 27.8655 84.4153 36.3441 85.8674 37.0329C85.9443 37.0693 85.9637 37.0551 85.9969 37.0273C88.1834 35.28 90.8509 37.1601 92.0232 38.1822C92.7146 33.5424 94.9409 29.2682 98.3465 26.0421C101.752 22.8161 106.14 20.8243 110.811 20.3849C112.336 20.2375 113.849 19.9838 115.339 19.6256C116.095 19.4301 116.872 19.3281 117.652 19.322C118.996 19.3016 120.314 19.693 121.429 20.4435Z" fill="#2F2E41"/>
<path d="M96.0101 165.184L89.8387 162.023C89.5081 161.787 89.2732 161.441 89.1771 161.046C89.0809 160.652 89.1298 160.236 89.3149 159.874C89.4999 159.513 89.8088 159.23 90.1851 159.078C90.5614 158.925 90.98 158.913 91.3644 159.044L97.5357 162.205C97.8664 162.44 98.1013 162.787 98.1974 163.181C98.2936 163.576 98.2447 163.992 98.0596 164.353C97.8746 164.714 97.5657 164.997 97.1894 165.15C96.8131 165.302 96.3945 165.314 96.0101 165.184L96.0101 165.184Z" fill="#2368FF"/>
<path d="M75.234 156.716L65.082 118.922L92.2109 113.786L90.752 139.728L126.397 176.43C128.284 176.353 130.153 176.827 131.775 177.793C133.398 178.76 134.704 180.178 135.535 181.874C136.366 183.57 136.685 185.471 136.454 187.346C136.223 189.22 135.451 190.987 134.233 192.43C133.016 193.874 131.404 194.932 129.595 195.475C127.786 196.019 125.859 196.024 124.047 195.491C122.235 194.958 120.617 193.909 119.391 192.472C118.165 191.036 117.384 189.274 117.142 187.4L75.234 156.716Z" fill="#A0616A"/>
<path d="M62.3074 76.5461C53.0989 83.8157 64.918 124.479 64.918 124.479C66.7479 122.471 68.8744 152.151 71.1111 151.14C77.468 148.268 89.1194 138.363 93.6113 139.171C96.1801 139.633 93.4888 119.539 93.4888 119.539C93.4888 119.539 92.9938 108.018 92.0634 93.2066C91.8781 89.0144 90.635 84.9372 88.4501 81.3547C86.2652 77.7721 83.2093 74.8006 79.567 72.7168C79.567 72.7168 71.5159 69.2764 62.3074 76.5461Z" fill="#3F3D56"/>
<path d="M381.481 180.641L12.9463 180.222C10.8752 175.831 9.0364 171.334 7.4375 166.75L372.736 167.136C376.251 171.219 379.193 175.762 381.481 180.641Z" fill="#3F3D56"/>
<path d="M264.101 278.346C262.196 279.268 260.274 280.158 258.336 281.014C255.113 279.184 251.928 277.271 248.762 275.315L260.506 270.155L264.101 278.346Z" fill="#FFB6B6"/>
<path d="M349.726 214.178C347.817 216.739 345.847 219.249 343.817 221.707C341.945 223.975 340.023 226.199 338.052 228.38C337.237 229.284 336.413 230.182 335.57 231.072C334.019 232.734 332.435 234.369 330.816 235.975C327.901 236.893 321.996 238.508 315.668 240.017C311.062 241.111 306.233 242.15 302.164 242.811C299.885 243.22 297.58 243.466 295.267 243.547C292.52 243.57 289.73 243.496 286.932 243.347C283.774 243.179 280.613 242.918 277.488 242.583C269.362 241.731 261.493 240.404 254.703 239.039C252.217 238.546 249.879 238.043 247.728 237.554C243.653 236.636 240.244 235.78 237.776 235.128C234.996 234.401 233.413 233.931 233.413 233.931L226.451 245.591L222.838 251.64L220.184 256.087L219.476 257.265C219.178 257.102 218.88 256.935 218.582 256.772C213.876 254.161 209.039 251.794 204.09 249.68C200.84 248.311 197.548 247.077 194.223 246.024H194.218C192.947 245.624 191.671 245.247 190.391 244.902C190.791 243.826 191.196 242.743 191.606 241.652C192.37 239.617 193.149 237.563 193.944 235.491C195.662 231.002 197.441 226.448 199.271 221.917C200.77 218.196 202.298 214.49 203.844 210.834C204.556 209.148 206.004 207.668 208.03 206.368C208.998 205.758 210.008 205.216 211.052 204.748C216.85 202.108 225.39 200.389 234.801 199.286C235.579 199.197 236.361 199.109 237.148 199.025C244.938 198.205 253.204 197.782 260.934 197.586C264.803 197.488 268.538 197.451 272.012 197.446C273.134 197.446 274.225 197.449 275.286 197.456H275.29C278.154 197.47 280.79 197.512 283.109 197.558C283.56 197.567 283.998 197.581 284.427 197.591H284.431C284.72 197.595 285.004 197.605 285.283 197.609C290.354 197.74 293.465 197.898 293.465 197.898L294.671 188.436L294.918 186.527L295.151 184.711V184.706L295.179 184.478L295.37 184.473L298.722 184.408L326.904 183.858L342.299 183.556L339.859 194.014L335.831 211.272C336.241 214.001 349.866 211.863 349.726 214.178Z" fill="#2F2E41"/>
<path d="M267.571 276.624C266.421 277.21 265.262 277.788 264.097 278.346C262.193 279.269 260.271 280.158 258.333 281.015C255.11 279.185 251.925 277.271 248.759 275.315C243.59 272.121 238.472 268.814 233.34 265.587C232.572 265.098 231.808 264.619 231.04 264.144H231.035C228.921 261.005 226.765 257.736 224.591 254.37C224.558 254.323 224.53 254.276 224.502 254.23C223.943 253.373 223.388 252.51 222.835 251.641C219.357 246.193 215.859 240.511 212.465 234.709L221.061 230.695L237.042 223.235L239.799 221.95L247.725 237.554L254.794 251.473L256.367 254.57L267.571 276.624Z" fill="#2F2E41"/>
<path d="M269.983 201.706L310.729 162.412L322.022 130.435L305.364 123.191C296.808 131.388 287.559 156.917 287.559 156.917L259.52 192.588C259.302 192.663 259.084 192.743 258.868 192.838C257.606 193.395 256.508 194.268 255.681 195.373C254.854 196.478 254.326 197.778 254.149 199.147C253.971 200.515 254.15 201.907 254.667 203.187C255.184 204.466 256.023 205.591 257.102 206.452C258.18 207.312 259.463 207.88 260.826 208.101C262.188 208.321 263.584 208.186 264.88 207.709C266.175 207.232 267.325 206.428 268.219 205.377C269.113 204.325 269.721 203.061 269.983 201.706Z" fill="#FFB8B8"/>
<path d="M300.676 126.762L321.805 133.469L321.885 133.456C329.749 132.139 336.275 119.294 340.365 108.751C341.71 105.273 341.685 101.415 340.294 97.9548C338.904 94.495 336.251 91.6922 332.873 90.1132C330.374 88.9652 327.603 88.5392 324.873 88.8836C322.144 89.2279 319.566 90.3288 317.43 92.0617L306.579 100.928L300.676 126.762Z" fill="#2368FF"/>
<path d="M349.641 214.649L349.764 214.485C356.357 205.742 347.34 184.09 345.977 180.95L352.107 179.134L351.038 167.463L350.524 162.259L355.29 157.733L355.306 157.617L358.584 134.291L362.872 118.852C364.489 113.016 364.523 106.855 362.971 101.001C361.42 95.1467 358.338 89.811 354.043 85.5415L345.276 76.8369L334.772 60.3961L317.161 59.9414L310.828 71.1913C304.939 72.3932 299.658 75.6231 295.905 80.3183C292.152 85.0135 290.166 90.8765 290.291 96.8858L290.887 126.835L284.568 163.942L284.391 170.683L278.189 177.228L279.335 183.845L274.696 185.693L272.426 195.095C271.559 196.18 265.834 203.416 265.781 205.434C265.774 205.737 265.99 206.035 266.461 206.372C270.167 209.024 290.879 214.769 300.201 211.315C310.131 207.639 349.047 214.543 349.439 214.613L349.641 214.649Z" fill="#2368FF"/>
<path d="M324.429 54.9009C337.315 54.9009 347.76 44.4552 347.76 31.5696C347.76 18.6841 337.315 8.23828 324.429 8.23828C311.543 8.23828 301.098 18.6841 301.098 31.5696C301.098 44.4552 311.543 54.9009 324.429 54.9009Z" fill="#FFB8B8"/>
<path d="M321.58 55.2131C325.193 55.2694 328.804 55.017 332.374 54.4587C335.913 53.7391 343.829 47.9379 346.036 44.4471C347.676 41.8534 348.724 37.8031 349.315 34.8623C350.111 30.9707 350.081 26.9554 349.226 23.0762C348.371 19.1971 346.712 15.5407 344.354 12.3438C343.448 11.0066 342.197 9.93921 340.734 9.25445C340.605 9.20374 340.471 9.15881 340.337 9.1204C338.205 8.55952 336.289 7.37431 334.836 5.71693C334.554 5.38171 334.249 5.06721 333.922 4.77589C332.279 3.3898 330.332 2.41208 328.24 1.92265C324.862 1.01861 319.973 1.91599 313.71 4.59245C310.563 5.93716 307.122 5.4505 304.475 4.87625C304.326 4.84757 304.173 4.85827 304.03 4.90728C303.887 4.9563 303.759 5.04193 303.659 5.15565C302.533 6.21303 301.048 6.80491 299.503 6.81232C298.557 6.85387 297.564 8.16403 296.364 9.87252C296.092 10.2603 295.774 10.713 295.545 10.9883L295.514 10.4594L294.979 11.0494C294.138 11.9768 293.545 13.102 293.256 14.3202C292.966 15.5385 292.99 16.8101 293.324 18.0168C293.659 19.2235 294.293 20.3259 295.168 21.2214C296.043 22.1169 297.131 22.7764 298.329 23.1385C299.281 23.3917 300.256 23.5471 301.24 23.6023C301.835 23.6559 302.452 23.7113 303.042 23.8138C304.937 24.2018 306.699 25.0747 308.156 26.3471C309.613 27.6195 310.716 29.2479 311.355 31.0735C311.507 31.4955 311.753 31.877 312.075 32.1887C312.397 32.5004 312.787 32.7339 313.214 32.8712C313.64 33.0085 314.093 33.0458 314.536 32.9804C314.98 32.915 315.402 32.7486 315.771 32.4939C316.386 32.0149 317.108 31.6919 317.875 31.5522C318.642 31.4125 319.432 31.4604 320.176 31.6918C320.819 32.0496 321.32 32.6176 321.594 33.3007C321.928 34.0617 322.48 34.7063 323.181 35.152C325.579 36.3884 325.745 41.8655 324.883 46.4314C324.053 50.8324 322.412 54.0162 320.893 54.1736C319.723 54.2946 319.589 54.3777 319.504 54.5846L319.429 54.7698L319.56 54.943C320.206 55.1772 320.895 55.2693 321.58 55.2131Z" fill="#2F2E41"/>
<path d="M306.47 119.708L297.474 101.772C284.416 102.664 258.5 117.762 258.5 117.762L209.467 128.158C208.014 127.6 206.44 127.434 204.903 127.677C203.366 127.921 201.92 128.565 200.711 129.544C199.502 130.524 198.572 131.805 198.016 133.258C197.459 134.712 197.295 136.286 197.54 137.823C197.786 139.359 198.431 140.804 199.412 142.012C200.394 143.22 201.676 144.148 203.13 144.703C204.583 145.258 206.158 145.42 207.694 145.173C209.231 144.926 210.675 144.279 211.882 143.296L274.255 138.825L306.47 119.708Z" fill="#FFB8B8"/>
<path d="M302.843 122.653L326.338 105.193L330.476 90.2795C331.278 87.3487 331.244 84.2521 330.378 81.3396C329.513 78.427 327.85 75.8147 325.577 73.7978C322.478 71.0844 318.464 69.6491 314.348 69.7819C310.231 69.9147 306.318 71.6058 303.4 74.5133C294.559 83.3381 284.475 95.6497 286.641 104.187L286.663 104.273L302.843 122.653Z" fill="#2368FF"/>
<path d="M273.763 169.353H210.898V177.734H273.763V169.353Z" fill="#9B9DA0"/>
<path d="M113.107 169.353H50.2422V177.734H113.107V169.353Z" fill="#9B9DA0"/>
<path d="M120.445 129.045V168.954C120.446 169.463 120.648 169.95 121.008 170.31C121.367 170.669 121.855 170.872 122.363 170.872H181.505C182.013 170.872 182.501 170.669 182.86 170.31C183.22 169.95 183.422 169.463 183.423 168.954V129.045C183.421 128.537 183.219 128.05 182.859 127.691C182.5 127.332 182.013 127.13 181.505 127.129H122.363C121.855 127.13 121.368 127.332 121.009 127.691C120.649 128.05 120.447 128.537 120.445 129.045Z" fill="#3F3D56"/>
<path d="M121.832 129.541V168.461C121.833 168.733 121.941 168.993 122.133 169.185C122.325 169.378 122.585 169.486 122.857 169.486H181.012C181.283 169.486 181.544 169.378 181.736 169.185C181.928 168.993 182.036 168.733 182.037 168.461V129.541C182.037 129.269 181.929 129.008 181.737 128.815C181.544 128.623 181.284 128.514 181.012 128.514H122.857C122.585 128.514 122.324 128.623 122.132 128.815C121.94 129.008 121.832 129.269 121.832 129.541Z" fill="#2368FF"/>
<path d="M119.207 176.737C119.316 176.873 119.453 176.982 119.61 177.057C119.767 177.132 119.939 177.171 120.112 177.17H183.439C183.612 177.17 183.783 177.131 183.939 177.056C184.095 176.982 184.233 176.873 184.342 176.739C184.451 176.604 184.529 176.447 184.57 176.279C184.611 176.11 184.613 175.935 184.578 175.766L183.595 171.096C183.554 170.906 183.466 170.729 183.339 170.581C183.213 170.433 183.051 170.319 182.869 170.25C182.737 170.198 182.597 170.172 182.456 170.172H121.091C120.95 170.172 120.81 170.198 120.678 170.25C120.496 170.319 120.334 170.433 120.208 170.581C120.081 170.729 119.993 170.906 119.952 171.096L118.969 175.766C118.934 175.935 118.938 176.11 118.979 176.278C119.02 176.446 119.098 176.603 119.207 176.737Z" fill="#2F2E41"/>
<path d="M180.285 172.184H181.78C181.906 172.184 182.008 172.082 182.008 171.956V171.241C182.008 171.115 181.906 171.013 181.78 171.013H180.285C180.159 171.013 180.057 171.115 180.057 171.241V171.956C180.057 172.082 180.159 172.184 180.285 172.184Z" fill="#3F3D56"/>
<path d="M176.386 172.184H177.882C178.008 172.184 178.109 172.082 178.109 171.956V171.241C178.109 171.115 178.008 171.013 177.882 171.013H176.386C176.261 171.013 176.159 171.115 176.159 171.241V171.956C176.159 172.082 176.261 172.184 176.386 172.184Z" fill="#3F3D56"/>
<path d="M172.48 172.184H173.976C174.101 172.184 174.203 172.082 174.203 171.956V171.241C174.203 171.115 174.101 171.013 173.976 171.013H172.48C172.355 171.013 172.253 171.115 172.253 171.241V171.956C172.253 172.082 172.355 172.184 172.48 172.184Z" fill="#3F3D56"/>
<path d="M168.585 172.184H170.081C170.207 172.184 170.309 172.082 170.309 171.956V171.241C170.309 171.115 170.207 171.013 170.081 171.013H168.585C168.46 171.013 168.358 171.115 168.358 171.241V171.956C168.358 172.082 168.46 172.184 168.585 172.184Z" fill="#3F3D56"/>
<path d="M164.679 172.184H166.175C166.301 172.184 166.402 172.082 166.402 171.956V171.241C166.402 171.115 166.301 171.013 166.175 171.013H164.679C164.554 171.013 164.452 171.115 164.452 171.241V171.956C164.452 172.082 164.554 172.184 164.679 172.184Z" fill="#3F3D56"/>
<path d="M160.777 172.184H162.273C162.398 172.184 162.5 172.082 162.5 171.956V171.241C162.5 171.115 162.398 171.013 162.273 171.013H160.777C160.651 171.013 160.55 171.115 160.55 171.241V171.956C160.55 172.082 160.651 172.184 160.777 172.184Z" fill="#3F3D56"/>
<path d="M156.878 172.184H158.374C158.5 172.184 158.602 172.082 158.602 171.956V171.241C158.602 171.115 158.5 171.013 158.374 171.013H156.878C156.753 171.013 156.651 171.115 156.651 171.241V171.956C156.651 172.082 156.753 172.184 156.878 172.184Z" fill="#3F3D56"/>
<path d="M152.976 172.184H154.472C154.597 172.184 154.699 172.082 154.699 171.956V171.241C154.699 171.115 154.597 171.013 154.472 171.013H152.976C152.851 171.013 152.749 171.115 152.749 171.241V171.956C152.749 172.082 152.851 172.184 152.976 172.184Z" fill="#3F3D56"/>
<path d="M149.078 172.184H150.573C150.699 172.184 150.801 172.082 150.801 171.956V171.241C150.801 171.115 150.699 171.013 150.573 171.013H149.078C148.952 171.013 148.85 171.115 148.85 171.241V171.956C148.85 172.082 148.952 172.184 149.078 172.184Z" fill="#3F3D56"/>
<path d="M145.175 172.184H146.671C146.797 172.184 146.898 172.082 146.898 171.956V171.241C146.898 171.115 146.797 171.013 146.671 171.013H145.175C145.05 171.013 144.948 171.115 144.948 171.241V171.956C144.948 172.082 145.05 172.184 145.175 172.184Z" fill="#3F3D56"/>
<path d="M141.277 172.184H142.773C142.898 172.184 143 172.082 143 171.956V171.241C143 171.115 142.898 171.013 142.773 171.013H141.277C141.151 171.013 141.05 171.115 141.05 171.241V171.956C141.05 172.082 141.151 172.184 141.277 172.184Z" fill="#3F3D56"/>
<path d="M137.375 172.184H138.87C138.996 172.184 139.098 172.082 139.098 171.956V171.241C139.098 171.115 138.996 171.013 138.87 171.013H137.375C137.249 171.013 137.147 171.115 137.147 171.241V171.956C137.147 172.082 137.249 172.184 137.375 172.184Z" fill="#3F3D56"/>
<path d="M133.476 172.184H134.972C135.097 172.184 135.199 172.082 135.199 171.956V171.241C135.199 171.115 135.097 171.013 134.972 171.013H133.476C133.351 171.013 133.249 171.115 133.249 171.241V171.956C133.249 172.082 133.351 172.184 133.476 172.184Z" fill="#3F3D56"/>
<path d="M129.574 172.184H131.07C131.195 172.184 131.297 172.082 131.297 171.956V171.241C131.297 171.115 131.195 171.013 131.07 171.013H129.574C129.448 171.013 129.346 171.115 129.346 171.241V171.956C129.346 172.082 129.448 172.184 129.574 172.184Z" fill="#3F3D56"/>
<path d="M125.675 172.184H127.171C127.297 172.184 127.398 172.082 127.398 171.956V171.241C127.398 171.115 127.297 171.013 127.171 171.013H125.675C125.55 171.013 125.448 171.115 125.448 171.241V171.956C125.448 172.082 125.55 172.184 125.675 172.184Z" fill="#3F3D56"/>
<path d="M121.773 172.184H123.269C123.394 172.184 123.496 172.082 123.496 171.956V171.241C123.496 171.115 123.394 171.013 123.269 171.013H121.773C121.647 171.013 121.546 171.115 121.546 171.241V171.956C121.546 172.082 121.647 172.184 121.773 172.184Z" fill="#3F3D56"/>
<path d="M180.332 174.134H181.827C181.953 174.134 182.055 174.032 182.055 173.906V173.191C182.055 173.065 181.953 172.964 181.827 172.964H180.332C180.206 172.964 180.104 173.065 180.104 173.191V173.906C180.104 174.032 180.206 174.134 180.332 174.134Z" fill="#3F3D56"/>
<path d="M176.433 174.134H177.929C178.054 174.134 178.156 174.032 178.156 173.906V173.191C178.156 173.065 178.054 172.964 177.929 172.964H176.433C176.308 172.964 176.206 173.065 176.206 173.191V173.906C176.206 174.032 176.308 174.134 176.433 174.134Z" fill="#3F3D56"/>
<path d="M172.527 174.134H174.023C174.148 174.134 174.25 174.032 174.25 173.906V173.191C174.25 173.065 174.148 172.964 174.023 172.964H172.527C172.401 172.964 172.3 173.065 172.3 173.191V173.906C172.3 174.032 172.401 174.134 172.527 174.134Z" fill="#3F3D56"/>
<path d="M168.625 174.134H170.12C170.246 174.134 170.348 174.032 170.348 173.906V173.191C170.348 173.065 170.246 172.964 170.12 172.964H168.625C168.499 172.964 168.397 173.065 168.397 173.191V173.906C168.397 174.032 168.499 174.134 168.625 174.134Z" fill="#3F3D56"/>
<path d="M164.726 174.134H166.222C166.347 174.134 166.449 174.032 166.449 173.906V173.191C166.449 173.065 166.347 172.964 166.222 172.964H164.726C164.601 172.964 164.499 173.065 164.499 173.191V173.906C164.499 174.032 164.601 174.134 164.726 174.134Z" fill="#3F3D56"/>
<path d="M160.832 174.134H162.327C162.453 174.134 162.555 174.032 162.555 173.906V173.191C162.555 173.065 162.453 172.964 162.327 172.964H160.832C160.706 172.964 160.604 173.065 160.604 173.191V173.906C160.604 174.032 160.706 174.134 160.832 174.134Z" fill="#3F3D56"/>
<path d="M156.925 174.134H158.421C158.547 174.134 158.648 174.032 158.648 173.906V173.191C158.648 173.065 158.547 172.964 158.421 172.964H156.925C156.8 172.964 156.698 173.065 156.698 173.191V173.906C156.698 174.032 156.8 174.134 156.925 174.134Z" fill="#3F3D56"/>
<path d="M153.023 174.134H154.519C154.644 174.134 154.746 174.032 154.746 173.906V173.191C154.746 173.065 154.644 172.964 154.519 172.964H153.023C152.897 172.964 152.796 173.065 152.796 173.191V173.906C152.796 174.032 152.897 174.134 153.023 174.134Z" fill="#3F3D56"/>
<path d="M149.125 174.134H150.62C150.746 174.134 150.848 174.032 150.848 173.906V173.191C150.848 173.065 150.746 172.964 150.62 172.964H149.125C148.999 172.964 148.897 173.065 148.897 173.191V173.906C148.897 174.032 148.999 174.134 149.125 174.134Z" fill="#3F3D56"/>
<path d="M145.222 174.134H146.718C146.844 174.134 146.945 174.032 146.945 173.906V173.191C146.945 173.065 146.844 172.964 146.718 172.964H145.222C145.097 172.964 144.995 173.065 144.995 173.191V173.906C144.995 174.032 145.097 174.134 145.222 174.134Z" fill="#3F3D56"/>
<path d="M141.324 174.134H142.82C142.945 174.134 143.047 174.032 143.047 173.906V173.191C143.047 173.065 142.945 172.964 142.82 172.964H141.324C141.198 172.964 141.096 173.065 141.096 173.191V173.906C141.096 174.032 141.198 174.134 141.324 174.134Z" fill="#3F3D56"/>
<path d="M137.421 174.134H138.917C139.043 174.134 139.145 174.032 139.145 173.906V173.191C139.145 173.065 139.043 172.964 138.917 172.964H137.421C137.296 172.964 137.194 173.065 137.194 173.191V173.906C137.194 174.032 137.296 174.134 137.421 174.134Z" fill="#3F3D56"/>
<path d="M133.519 174.134H135.015C135.14 174.134 135.242 174.032 135.242 173.906V173.191C135.242 173.065 135.14 172.964 135.015 172.964H133.519C133.394 172.964 133.292 173.065 133.292 173.191V173.906C133.292 174.032 133.394 174.134 133.519 174.134Z" fill="#3F3D56"/>
<path d="M129.621 174.134H131.116C131.242 174.134 131.344 174.032 131.344 173.906V173.191C131.344 173.065 131.242 172.964 131.116 172.964H129.621C129.495 172.964 129.393 173.065 129.393 173.191V173.906C129.393 174.032 129.495 174.134 129.621 174.134Z" fill="#3F3D56"/>
<path d="M125.718 174.134H127.214C127.34 174.134 127.441 174.032 127.441 173.906V173.191C127.441 173.065 127.34 172.964 127.214 172.964H125.718C125.593 172.964 125.491 173.065 125.491 173.191V173.906C125.491 174.032 125.593 174.134 125.718 174.134Z" fill="#3F3D56"/>
<path d="M121.82 174.134H123.316C123.441 174.134 123.543 174.032 123.543 173.906V173.191C123.543 173.065 123.441 172.964 123.316 172.964H121.82C121.694 172.964 121.593 173.065 121.593 173.191V173.906C121.593 174.032 121.694 174.134 121.82 174.134Z" fill="#3F3D56"/>
<path d="M147.952 176.474H163.101C163.226 176.474 163.328 176.372 163.328 176.246V175.531C163.328 175.405 163.226 175.303 163.101 175.303H147.952C147.827 175.303 147.725 175.405 147.725 175.531V176.246C147.725 176.372 147.827 176.474 147.952 176.474Z" fill="#3F3D56"/>
</svg>
