<svg xmlns="http://www.w3.org/2000/svg" viewBox="0 0 721.43 721.43"><defs><style>.cls-1{fill:#b6caef;}</style></defs><g id="Layer_2" data-name="Layer 2"><g id="Layer_1-2" data-name="Layer 1"><path class="cls-1" d="M390.86,360.72,519,232.61a21.31,21.31,0,0,0-30.14-30.14L360.71,330.58,232.61,202.47a21.31,21.31,0,0,0-30.14,30.14l128.1,128.11L202.47,488.83A21.31,21.31,0,0,0,232.61,519l128.1-128.11L488.82,519A21.31,21.31,0,0,0,519,488.83Zm330.57,0c0,199.22-161.5,360.72-360.72,360.72S0,559.93,0,360.71,161.5,0,360.71,0,721.43,161.5,721.43,360.71Z"/></g></g></svg>