<svg xmlns="http://www.w3.org/2000/svg" viewBox="0 0 721.43 721.43"><defs><style>.cls-1{fill:#b6caef;}</style></defs><g id="Layer_2" data-name="Layer 2"><g id="Layer_1-2" data-name="Layer 1"><path class="cls-1" d="M721.43,360.71c0,199.22-161.5,360.72-360.72,360.72S0,559.93,0,360.71,161.5,0,360.71,0,721.43,161.5,721.43,360.71ZM248,285.48h64.7c0-28.92,17.64-46.08,47.54-46.08,28.92,0,46.57,17.65,46.57,46.08.49,44.11-37.75,53.42-88.72,53.42H296l2.45,83.33h60.29l2-37.74c65.19,0,112.74-32.35,112.74-98.52S426.89,182.05,360.23,182.05C288.67,182.05,247,226.17,248,285.48ZM370,499.18c0-22.54-17.65-40.19-41.67-40.19-25,0-42.64,17.65-42.64,40.19s17.64,40.2,42.64,40.2C352.39,539.38,370,521.73,370,499.18Z"/></g></g></svg>