<svg xmlns="http://www.w3.org/2000/svg" viewBox="0 0 721.43 721.43"><defs><style>.cls-1{fill:#b6caef;}</style></defs><g id="Layer_2" data-name="Layer 2"><g id="Layer_1-2" data-name="Layer 1"><path class="cls-1" d="M283.32,501.53,169.15,387.88a18.92,18.92,0,0,1,.12-26.94l11.3-11.07a18.93,18.93,0,0,1,26.62.15l74.89,74.89a18.92,18.92,0,0,0,26.79,0L513.19,220a18.92,18.92,0,0,1,26.68-.13c4.07,4,8.07,7.93,12.09,11.84l.13.14a19,19,0,0,1,.24,27L310.07,501.49A18.93,18.93,0,0,1,283.32,501.53ZM360.71,0C161.5,0,0,161.5,0,360.71S161.5,721.43,360.71,721.43s360.72-161.5,360.72-360.72S559.93,0,360.71,0Z"/></g></g></svg>