<svg xmlns="http://www.w3.org/2000/svg" xmlns:xlink="http://www.w3.org/1999/xlink" viewBox="0 0 1920.1 509.93"><defs><style>.cls-1,.cls-10,.cls-4{fill:none;}.cls-11,.cls-2,.cls-8{isolation:isolate;}.cls-3{fill:#1a4bb7;opacity:0.1;}.cls-4{stroke:#e2e2e2;}.cls-5{fill:url(#linear-gradient);}.cls-11,.cls-6,.cls-9{mix-blend-mode:overlay;}.cls-7{clip-path:url(#clip-path);}.cls-11,.cls-8{fill:#fff;}.cls-11,.cls-8,.cls-9{opacity:0.5;}.cls-10{stroke:#fff;stroke-width:2px;}</style><linearGradient id="linear-gradient" x1="420.28" y1="795.81" x2="420.28" y2="794.36" gradientTransform="matrix(1920, 0, 0, -445.48, -805980.51, 354380.21)" gradientUnits="userSpaceOnUse"><stop offset="0" stop-color="#1a4bb7"/><stop offset="1" stop-color="#212429"/></linearGradient><clipPath id="clip-path"><path class="cls-1" d="M1920.08,509.93H.08V128.72s287.64-98.23,680.75-51.8,502.58,60.9,778.71,51.8,460.54-51.8,460.54-51.8Z"/></clipPath></defs><g class="cls-2"><g id="Layer_2" data-name="Layer 2"><g id="Layer_1-2" data-name="Layer 1"><g id="Group_205" data-name="Group 205"><path id="Path_119" data-name="Path 119" class="cls-3" d="M1920.08,97.58S1576.35,22,1347.93,18.51,629.27,159.08,404.36,136.23.08,37.84.08,37.84V382.23h1920Z"/><path id="Path_120" data-name="Path 120" class="cls-4" d="M.08,8.37s212.67-32.85,465.7,35.68,307.5,119.49,657.16,47.44,403.54-82.58,797.14-63.26"/><path id="Path_118" data-name="Path 118" class="cls-5" d="M1920.08,509.93H.08V128.72s287.64-98.23,680.75-51.8,502.58,60.9,778.71,51.8,460.54-51.8,460.54-51.8Z"/><g class="cls-6"><g class="cls-7"><g id="Mask_Group_17" data-name="Mask Group 17"><circle id="Ellipse_1" data-name="Ellipse 1" class="cls-8" cx="254.08" cy="181.93" r="161"/></g></g></g><g id="Ellipse_2" data-name="Ellipse 2" class="cls-9"><circle class="cls-1" cx="1769.08" cy="381.93" r="89"/><circle class="cls-10" cx="1769.08" cy="381.93" r="88"/></g><circle id="Ellipse_3" data-name="Ellipse 3" class="cls-11" cx="1691.08" cy="325.93" r="33"/></g></g></g></g></svg>