<svg xmlns="http://www.w3.org/2000/svg" xmlns:xlink="http://www.w3.org/1999/xlink" width="1920" height="979" viewBox="0 0 1920 979"><defs><linearGradient id="a" x1="0.907" y1="0.787" x2="0.898" y2="-0.011" gradientUnits="objectBoundingBox"><stop offset="0" stop-color="#1a4bb7"/><stop offset="1" stop-color="#212429"/></linearGradient><clipPath id="c"><path d="M-24929-24818v255.928s113.086,61.176,233.295,76.2,181.982,21.705,502.539-30.053,657.25,213.463,794.184,313.879c195.34,143.248,389.982,32.977,389.982,32.977V-24818Z" transform="translate(24929 24918)" fill="url(#a)"/></clipPath></defs><g transform="translate(0 -100)"><rect width="1920" height="979" transform="translate(0 100)" fill="#fff"/><path d="M-24929-24818v255.928s113.086,61.176,233.295,76.2,181.982,21.705,502.539-30.053,657.25,213.463,794.184,313.879c195.34,143.248,389.982,32.977,389.982,32.977V-24818Z" transform="translate(24929 24918)" fill="url(#a)"/><circle cx="161" cy="161" r="161" transform="translate(1467 534)" fill="#fff" opacity="0.5" style="mix-blend-mode:overlay;isolation:isolate"/><g transform="translate(929 151)" fill="none" stroke="#fff" stroke-width="2" opacity="0.5" style="mix-blend-mode:overlay;isolation:isolate"><circle cx="97" cy="97" r="97" stroke="none"/><circle cx="97" cy="97" r="96" fill="none"/></g><g clip-path="url(#c)" style="mix-blend-mode:overlay;isolation:isolate"><g transform="translate(-32 50)" fill="none" stroke="#fff" stroke-width="2" opacity="0.5" style="mix-blend-mode:overlay;isolation:isolate"><circle cx="89" cy="89" r="89" stroke="none"/><circle cx="89" cy="89" r="88" fill="none"/></g></g><circle cx="33" cy="33" r="33" transform="translate(100 167)" fill="#fff" opacity="0.5" style="mix-blend-mode:overlay;isolation:isolate"/></g></svg>