<svg width="203" height="52" viewBox="0 0 203 52" fill="none" xmlns="http://www.w3.org/2000/svg">
<g clip-path="url(#clip0_45_7372)">
<path d="M84.5905 28.935C84.638 28.6246 84.6632 28.306 84.6632 27.9846C84.6632 24.4138 81.6634 21.5214 77.959 21.5214C74.2547 21.5214 71.2549 24.4165 71.2549 27.9846C71.2549 31.5527 74.2547 34.4479 77.959 34.4479C80.3046 34.4479 82.4378 33.5771 84.0285 32.1515L81.9681 30.1574C80.9532 31.1847 79.533 31.8219 77.959 31.8219C76.385 31.8219 75.1186 30.5914 74.7523 28.935H84.5877H84.5905ZM81.1461 26.9436H74.7719C75.1661 25.3312 76.4409 24.1473 77.9562 24.1473C79.4715 24.1473 80.7464 25.3422 81.1433 26.9436H81.1461Z" fill="black"/>
<path d="M69.787 30.9759C67.4665 31.9043 67.3603 29.0723 66.01 27.7291C68.0145 27.1056 69.4683 25.2625 69.4683 23.087C69.4683 20.3979 67.2485 18.2169 64.5115 18.2169H56.2725V34.1128H59.9992V27.9571H60.8155C64.9616 27.9571 63.3596 36.5107 70.6285 33.687L69.787 30.9759V30.9759ZM63.4575 25.3312H59.9992V20.8429H63.4575C64.7183 20.8429 65.7416 21.8482 65.7416 23.087C65.7416 24.3258 64.7183 25.3312 63.4575 25.3312Z" fill="black"/>
<path d="M116.493 21.5214C112.654 21.5214 109.54 24.4165 109.54 27.9846C109.54 31.5527 112.651 34.4479 116.493 34.4479C120.334 34.4479 123.445 31.5527 123.445 27.9846C123.445 24.4165 120.334 21.5214 116.493 21.5214ZM116.493 31.116C114.7 31.116 113.244 29.7096 113.244 27.9846C113.244 26.2596 114.7 24.8533 116.493 24.8533C118.285 24.8533 119.741 26.2596 119.741 27.9846C119.741 29.7096 118.285 31.116 116.493 31.116Z" fill="black"/>
<path d="M141.972 21.5214C138.134 21.5214 135.02 24.4165 135.02 27.9846C135.02 31.5527 138.131 34.4479 141.972 34.4479C145.814 34.4479 148.925 31.5527 148.925 27.9846C148.925 24.4165 145.814 21.5214 141.972 21.5214V21.5214ZM141.972 31.116C140.18 31.116 138.724 29.7096 138.724 27.9846C138.724 26.2596 140.18 24.8533 141.972 24.8533C143.765 24.8533 145.221 26.2596 145.221 27.9846C145.221 29.7096 143.765 31.116 141.972 31.116V31.116Z" fill="black"/>
<path d="M173.693 21.524C169.854 21.524 166.74 24.4192 166.74 27.9873C166.74 31.5554 169.851 34.4506 173.693 34.4506C177.534 34.4506 180.646 31.5554 180.646 27.9873C180.646 24.4192 177.534 21.524 173.693 21.524ZM173.693 31.1187C171.901 31.1187 170.444 29.7123 170.444 27.9873C170.444 26.2623 171.901 24.8559 173.693 24.8559C175.485 24.8559 176.941 26.2623 176.941 27.9873C176.941 29.7123 175.485 31.1187 173.693 31.1187Z" fill="black"/>
<path d="M196.05 21.524C192.212 21.524 189.097 24.4192 189.097 27.9873C189.097 31.5554 192.209 34.4506 196.05 34.4506C199.891 34.4506 203.003 31.5554 203.003 27.9873C203.003 24.4192 199.891 21.524 196.05 21.524ZM196.05 31.1187C194.258 31.1187 192.801 29.7123 192.801 27.9873C192.801 26.2623 194.258 24.8559 196.05 24.8559C197.842 24.8559 199.299 26.2623 199.299 27.9873C199.299 29.7123 197.842 31.1187 196.05 31.1187Z" fill="black"/>
<path d="M132.721 30.9456C132.436 31.1956 132.059 31.3494 131.645 31.3494C130.75 31.3494 130.023 30.6352 130.023 29.7562V24.4357H133.784V21.8097H130.023V18.1207L126.297 18.5904V21.8097H124.102V24.4357H126.297V29.7562C126.297 32.3492 128.435 34.4478 131.072 34.4478C132.305 34.4478 133.423 33.9863 134.27 33.231L132.721 30.9429V30.9456Z" fill="black"/>
<path d="M102.416 21.5214C100.699 21.5214 99.1782 22.3317 98.2137 23.5815C97.252 22.3317 95.7311 21.5214 94.0117 21.5214C92.5691 21.5214 91.2608 22.0927 90.3102 23.0156C89.6979 22.1147 88.6551 21.5214 87.4726 21.5214C86.7624 21.5214 86.0999 21.7356 85.5547 22.1009L85.7923 24.7544H86.3682C86.8044 24.7544 87.1566 25.1005 87.1566 25.529V34.0743C88.2386 34.0743 89.5386 34.0743 90.8833 34.0771V26.7019C90.8833 25.4328 91.9289 24.4055 93.2206 24.4055C94.5122 24.4055 95.5578 25.4328 95.5578 26.7019V34.1128H99.2845V26.7019C99.2845 25.4328 100.333 24.4055 101.622 24.4055C102.911 24.4055 103.959 25.4328 103.959 26.7019V34.1128H107.686V26.7019C107.686 23.8397 105.326 21.5214 102.413 21.5214H102.416Z" fill="black"/>
<path d="M182.837 37.766C184.987 37.1837 186.564 35.2499 186.564 32.9508V21.8015H183.173V32.9508C183.173 33.8683 182.44 34.5907 181.389 34.9505L182.835 37.766H182.837Z" fill="black"/>
<path d="M165.219 31.0995H164.643C164.207 31.0995 163.855 30.7534 163.855 30.3249V17.6923L160.128 18.162V22.5404C159.144 21.8949 157.975 21.5186 156.717 21.5186C153.223 21.5186 150.391 24.4137 150.391 27.9818C150.391 31.55 153.223 34.4451 156.717 34.4451C158.263 34.4451 159.678 33.8793 160.777 32.9398C161.397 33.7804 162.401 34.3297 163.539 34.3297C164.249 34.3297 164.912 34.1155 165.457 33.7502L165.219 31.0967V31.0995ZM157.344 31.116C155.552 31.116 154.095 29.7096 154.095 27.9846C154.095 26.2596 155.552 24.8532 157.344 24.8532C159.136 24.8532 160.592 26.2596 160.592 27.9846C160.592 29.7096 159.136 31.116 157.344 31.116Z" fill="black"/>
<path d="M188.27 16.6155C186.763 16.198 185.398 15.3712 184.345 14.234C183.92 15.7145 183.075 17.0495 181.915 18.085C183.422 18.5026 184.786 19.3294 185.84 20.4665C186.265 18.986 187.109 17.6511 188.27 16.6155V16.6155Z" fill="black"/>
<path d="M5.39571 39.741C2.95505 39.6696 1.00364 37.8237 0.83869 35.434L0.0139533 29.8882V29.8415C-0.125833 27.5287 1.13504 25.3367 3.22344 24.2599L7.43938 22.1119L10.7579 39.9003L5.39851 39.7438L5.39571 39.741Z" fill="#323E48"/>
<path d="M36.8143 22.1091L41.0246 24.2544C43.1186 25.3366 44.3795 27.5286 44.2425 29.8414V29.8881L43.415 35.4339C43.2472 37.8209 41.2986 39.6695 38.8579 39.741L33.4985 39.8975L36.8171 22.1091H36.8143Z" fill="#323E48"/>
<path d="M21.8235 50.6953C13.8054 49.6982 7.30537 43.5865 5.91589 35.7883L5.88234 35.7498L5.85439 35.412L3.93652 11.6493L4.31954 11.2894C6.73783 9.01231 9.70409 7.91083 11.8736 7.38345L8.60258 1.81839L12.0189 1.27178C13.0897 1.10147 14.1856 1.01358 15.276 1.01358C19.1117 1.01358 22.8971 2.10132 26.1429 4.10649V0L29.3776 1.20585C35.9727 3.66151 40.0684 9.94897 40.0684 17.6126C40.0684 18.3323 40.0181 19.0739 39.923 19.8155L38.3574 35.7526L38.3295 35.7855C36.9428 43.5865 30.4399 49.6982 22.4218 50.6953L22.1227 50.7337L21.8235 50.6953Z" fill="#323E48"/>
<path d="M28.9802 2.23315L27.2609 1.59314V6.23251C23.9004 3.6148 19.6873 2.11503 15.2756 2.11503C14.2468 2.11503 13.2124 2.19744 12.1975 2.3595L10.3803 2.65066L13.615 8.15529C10.9199 8.58654 7.61815 9.70449 5.09082 12.086L5.4291 16.2584L6.96954 35.3241C8.1717 42.8009 14.2887 48.6516 21.963 49.6075L22.1223 49.6267L22.2817 49.6075C29.9532 48.6516 36.073 42.8036 37.2751 35.3268L38.81 19.6947C38.8995 19.0107 38.9498 18.3158 38.9498 17.6153C38.9498 10.8252 35.4467 4.64211 28.9802 2.23589V2.23315Z" fill="black"/>
<path d="M34.636 52.0001C33.5624 52.011 32.5951 51.2694 32.3407 50.2366C32.0919 49.2313 32.5755 48.1765 33.5149 47.6738C33.6044 47.6244 33.6575 47.5749 33.6687 47.5255L35.9584 37.582C36.2044 36.5492 37.1326 35.8185 38.2145 35.8048C38.4046 35.8048 38.5947 35.824 38.782 35.8652C40.0429 36.1564 40.8285 37.4007 40.5321 38.6395L38.2425 48.583C37.8986 50.0196 36.9117 51.1952 35.5362 51.805C35.2482 51.9314 34.9435 51.9973 34.6304 52.0028L34.636 52.0001Z" fill="#323E48"/>
<path d="M10.853 30.8193C11.8427 32.775 13.8976 34.121 16.2683 34.121C17.4901 34.121 18.6251 33.7611 19.5757 33.1458C16.4836 32.8629 13.5453 32.0581 10.853 30.8165V30.8193Z" fill="white"/>
<path d="M24.4932 33.1513C25.4437 33.7639 26.5788 34.1237 27.7977 34.1237C30.1629 34.1237 32.2122 32.7832 33.2074 30.833C30.5151 32.0691 27.5796 32.8711 24.4932 33.1513Z" fill="white"/>
<path d="M15.6421 40.4138C15.8489 40.4276 16.0586 40.4386 16.2711 40.4386C18.5804 40.4386 20.529 39.5898 22.1281 38.1917C23.3554 38.98 24.977 39.4387 26.551 39.4387C29.931 39.4387 33.0622 37.3347 34.1581 34.3873C34.1581 34.3873 33.9037 34.3846 33.9037 34.3818C32.4695 36.1371 30.2693 37.2632 27.8006 37.2632C25.5193 37.2632 23.4645 36.3019 22.0359 34.7719C20.6045 36.3019 18.5524 37.2632 16.2711 37.2632C13.9898 37.2632 11.5323 36.2304 10.0981 34.5988C10.593 40.8808 15.684 45.9652 21.9184 46.9623C19.1451 45.5449 16.9225 43.2321 15.6449 40.4166L15.6421 40.4138Z" fill="#2368FF"/>
<path d="M35.8553 22.0734C32.0782 25.0784 27.2724 26.8804 22.0444 26.8804C16.8164 26.8804 12.0133 25.0757 8.23633 22.0734C9.30429 24.205 10.8643 26.0563 12.7766 27.4792C11.7925 27.6742 10.7804 27.7841 9.74043 27.7868C27.3451 36.6068 35.8553 22.0707 35.8553 22.0707V22.0734Z" fill="#2368FF"/>
<path d="M6.6118 23.7682L3.74339 25.2295C2.038 26.1085 1.01756 27.8884 1.1266 29.7755L1.95133 35.3186C2.06037 37.1452 3.57006 38.5873 5.42921 38.6422L9.40472 38.7576L6.609 23.7682H6.6118Z" fill="black"/>
<path d="M6.27644 26.3364L4.70525 27.1248C4.62417 27.166 4.54589 27.2127 4.47041 27.2621L4.44525 27.2758C3.74352 27.7455 3.19556 28.4048 3.24588 29.4925L3.29341 29.8524L3.74073 33.5084C3.74073 33.5084 3.74073 28.7124 6.49451 29.3744L6.27644 26.3364V26.3364Z" fill="#58595B"/>
<path d="M37.6416 23.7682L40.51 25.2295C42.2154 26.1085 43.2358 27.8884 43.1268 29.7755L42.302 35.3186C42.193 37.1452 40.6833 38.5873 38.8242 38.6422L34.8486 38.7576L37.6444 23.7682H37.6416Z" fill="black"/>
<path d="M40.9602 30.8331L41.1978 29.196C41.2481 28.1082 40.5101 27.6523 39.8083 27.1881L39.7832 27.1716C39.7077 27.1221 39.6294 27.0754 39.5483 27.0342L38.1617 26.3365L37.2251 33.6541C37.2251 33.6541 38.3993 26.5371 40.963 30.8331H40.9602Z" fill="#323E48"/>
<path d="M3.29621 29.8936C3.44158 29.1767 3.89449 28.6878 4.44525 28.3224L4.47041 28.306C4.54589 28.2565 4.62417 28.2098 4.70525 28.1686L6.34913 27.3665L6.27644 26.3392L4.70525 27.1276C4.62417 27.1688 4.54589 27.2155 4.47041 27.2649L4.44525 27.2786C3.74352 27.7483 3.19556 28.4076 3.24588 29.4953L3.29341 29.8552L3.299 29.8936H3.29621Z" fill="white"/>
<path d="M39.8056 27.1881L39.7804 27.1716C39.7049 27.1221 39.6267 27.0754 39.5456 27.0342L38.1589 26.3365L38.0107 27.5039L39.5819 28.089C40.348 28.4626 41.0161 28.5697 41.0749 29.6602L41.0469 30.2563L41.2007 29.1987C41.251 28.111 40.5129 27.655 39.8112 27.1908L39.8056 27.1881Z" fill="white"/>
<path d="M33.4285 49.9784C33.6046 50.6953 34.3986 51.1046 35.0835 50.8024C36.0928 50.3547 36.8868 49.4702 37.1608 48.3276L39.4505 38.3868C39.607 37.7358 39.196 37.0848 38.5335 36.931C37.8709 36.7772 37.2083 37.181 37.0545 37.832L34.7648 47.7727C34.6754 48.1518 34.4182 48.4429 34.0575 48.6352C33.5655 48.8989 33.2999 49.44 33.4341 49.9756L33.4285 49.9784Z" fill="black"/>
<path d="M30.7863 19.2222C30.0734 15.3794 25.3011 9.35289 18.6054 8.07288L21.608 13.1847C14.3391 11.7756 10.0952 14.462 10.0952 14.462L20.4422 21.5735L17.0594 15.8162C17.0594 15.8162 24.3618 15.7887 30.7891 19.2222H30.7863Z" fill="white"/>
</g>
<defs>
<clipPath id="clip0_45_7372">
<rect width="203" height="52" fill="white"/>
</clipPath>
</defs>
</svg>
