<?xml version="1.0" standalone="no"?>
<!DOCTYPE svg PUBLIC "-//W3C//DTD SVG 20010904//EN"
 "http://www.w3.org/TR/2001/REC-SVG-20010904/DTD/svg10.dtd">
<svg version="1.0" xmlns="http://www.w3.org/2000/svg"
 width="516.000000pt" height="83.000000pt" viewBox="0 0 516.000000 83.000000"
 preserveAspectRatio="xMidYMid meet">

<g transform="translate(0.000000,83.000000) scale(0.100000,-0.100000)"
fill="#1A4BB7" stroke="none">
<path d="M375 681 l-58 -139 -56 -6 c-31 -3 -98 -9 -149 -12 -51 -4 -95 -10
-97 -14 -2 -4 47 -51 111 -105 79 -68 113 -103 110 -114 -6 -19 -66 -281 -66
-286 0 -2 60 32 134 76 l135 81 113 -68 c62 -37 123 -74 135 -81 19 -13 21
-12 17 4 -46 195 -64 276 -64 283 0 5 52 54 116 109 65 57 110 103 102 105 -7
2 -76 9 -153 15 -77 7 -143 15 -146 19 -3 4 -29 65 -59 135 -29 70 -56 130
-60 132 -3 2 -33 -58 -65 -134z"/>
<path d="M1456 680 c-48 -117 -62 -140 -80 -141 -97 -4 -276 -26 -274 -34 1
-5 51 -52 110 -104 59 -51 108 -95 108 -98 0 -7 -59 -262 -66 -285 -4 -12 40
9 130 63 l136 82 135 -81 c114 -68 134 -78 130 -59 -3 12 -19 80 -35 150 -17
71 -30 130 -30 131 0 2 51 48 114 102 63 54 113 101 111 105 -3 3 -46 9 -97
13 -51 3 -119 9 -150 12 l-57 6 -58 139 c-31 77 -60 139 -63 139 -3 0 -31 -63
-64 -140z"/>
<path d="M2537 680 c-49 -118 -62 -140 -80 -141 -67 -2 -278 -25 -280 -30 -1
-3 49 -49 111 -103 61 -54 112 -100 112 -103 0 -7 -59 -265 -66 -285 -3 -12
41 10 130 63 l136 82 135 -81 c74 -45 135 -79 135 -78 0 2 -16 70 -35 150 -19
81 -35 148 -35 150 0 2 51 48 114 102 63 54 113 101 111 105 -3 3 -46 9 -97
13 -51 3 -119 9 -150 12 l-57 6 -57 139 c-32 77 -60 139 -63 139 -3 0 -32 -63
-64 -140z"/>
<path d="M3632 803 c-5 -10 -33 -73 -62 -140 -43 -101 -56 -123 -74 -124 -82
-3 -276 -25 -276 -32 0 -4 49 -50 110 -103 60 -52 110 -100 110 -107 -1 -7
-16 -75 -34 -152 -19 -77 -34 -141 -33 -142 1 -1 62 35 135 79 l133 80 135
-81 c74 -44 134 -78 134 -76 0 2 -13 61 -30 132 -16 70 -32 138 -35 149 -4 18
17 40 110 120 63 54 111 101 107 105 -4 3 -72 12 -151 18 -80 6 -146 13 -147
14 -1 1 -27 63 -59 137 -32 74 -59 137 -60 138 -2 2 -8 -5 -13 -15z"/>
<path d="M4673 710 c-23 -52 -49 -111 -57 -131 l-15 -36 -161 -13 c-88 -7
-160 -14 -160 -15 0 -3 206 -185 227 -200 11 -9 8 -36 -21 -160 -19 -83 -33
-151 -32 -153 2 -1 64 35 139 80 l136 83 -1 215 c0 118 -3 262 -7 320 l-6 106
-42 -96z"/>
</g>
</svg>
