<svg xmlns="http://www.w3.org/2000/svg" width="123.951" height="20" viewBox="0 0 123.951 20">
  <g id="Group_380" data-name="Group 380" transform="translate(-906 -3899)">
    <path id="Path_star" data-name="Path / star" d="M12.526,18.074,19.032,22l-1.726-7.4,5.747-4.979-7.568-.653L12.526,2,9.568,8.968,2,9.621,7.737,14.6,6.021,22Z" transform="translate(904 3897)" fill="#1a4bb7"/>
    <path id="Path_star-2" data-name="Path / star" d="M12.526,18.074,19.032,22l-1.726-7.4,5.747-4.979-7.568-.653L12.526,2,9.568,8.968,2,9.621,7.737,14.6,6.021,22Z" transform="translate(930 3897)" fill="#1a4bb7"/>
    <path id="Path_star-3" data-name="Path / star" d="M12.526,18.074,19.032,22l-1.726-7.4,5.747-4.979-7.568-.653L12.526,2,9.568,8.968,2,9.621,7.737,14.6,6.021,22Z" transform="translate(955.949 3897)" fill="#1a4bb7"/>
    <path id="Path_star-4" data-name="Path / star" d="M12.526,18.074,19.032,22l-1.726-7.4,5.747-4.979-7.568-.653L12.526,2,9.568,8.968,2,9.621,7.737,14.6,6.021,22Z" transform="translate(980.949 3897)" fill="#1a4bb7"/>
    <path id="Path_star-5" data-name="Path / star" d="M12.526,18.074,19.032,22l-1.726-7.4,5.747-4.979-7.568-.653L12.526,2,9.568,8.968,2,9.621,7.737,14.6,6.021,22Z" transform="translate(1006.898 3897)" fill="#1a4bb7"/>
  </g>
</svg>
